<svg class="main-svg" xmlns="http://www.w3.org/2000/svg" xmlns:xlink="http://www.w3.org/1999/xlink" width="500" height="400" style="" viewBox="0 0 500 400"><rect x="0" y="0" width="500" height="400" style="fill: rgb(255, 255, 255); fill-opacity: 1;"/><defs id="defs-93d57a"><g class="clips"><clipPath id="clip93d57axyplot" class="plotclip"><rect width="336" height="330"/></clipPath><clipPath class="axesclip" id="clip93d57ax"><rect x="40" y="0" width="336" height="400"/></clipPath><clipPath class="axesclip" id="clip93d57ay"><rect x="0" y="20" width="500" height="330"/></clipPath><clipPath class="axesclip" id="clip93d57axy"><rect x="40" y="20" width="336" height="330"/></clipPath></g><g class="gradients"/><g class="patterns"/></defs><g class="bglayer"/><g class="layer-below"><g class="imagelayer"/><g class="shapelayer"/></g><g class="cartesianlayer"><g class="subplot xy"><g class="layer-subplot"><g class="shapelayer"/><g class="imagelayer"/></g><g class="minor-gridlayer"><g class="x"/><g class="y"/></g><g class="gridlayer"><g class="x"><path class="xgrid crisp" transform="translate(110,0)" d="M0,20v330" style="stroke: rgb(0, 0, 0); stroke-opacity: 1; stroke-width: 0.5px;"/><path class="xgrid crisp" transform="translate(180,0)" d="M0,20v330" style="stroke: rgb(0, 0, 0); stroke-opacity: 1; stroke-width: 0.5px;"/><path class="xgrid crisp" transform="translate(250,0)" d="M0,20v330" style="stroke: rgb(0, 0, 0); stroke-opacity: 1; stroke-width: 0.5px;"/><path class="xgrid crisp" transform="translate(320,0)" d="M0,20v330" style="stroke: rgb(0, 0, 0); stroke-opacity: 1; stroke-width: 0.5px;"/></g><g class="y"><path class="ygrid crisp" transform="translate(0,279.48)" d="M40,0h336" style="stroke: rgb(0, 0, 0); stroke-opacity: 1; stroke-width: 0.5px;"/><path class="ygrid crisp" transform="translate(0,225.45)" d="M40,0h336" style="stroke: rgb(0, 0, 0); stroke-opacity: 1; stroke-width: 0.5px;"/><path class="ygrid crisp" transform="translate(0,171.43)" d="M40,0h336" style="stroke: rgb(0, 0, 0); stroke-opacity: 1; stroke-width: 0.5px;"/><path class="ygrid crisp" transform="translate(0,117.41)" d="M40,0h336" style="stroke: rgb(0, 0, 0); stroke-opacity: 1; stroke-width: 0.5px;"/><path class="ygrid crisp" transform="translate(0,63.38)" d="M40,0h336" style="stroke: rgb(0, 0, 0); stroke-opacity: 1; stroke-width: 0.5px;"/></g></g><g class="zerolinelayer"><path class="xzl zl crisp" transform="translate(40,0)" d="M0,20v330" style="stroke: rgb(0, 0, 0); stroke-opacity: 1; stroke-width: 0.5px;"/><path class="yzl zl crisp" transform="translate(0,333.5)" d="M40,0h336" style="stroke: rgb(0, 0, 0); stroke-opacity: 1; stroke-width: 0.5px;"/></g><g class="layer-between"><g class="shapelayer"/><g class="imagelayer"/></g><path class="xlines-below"/><path class="ylines-below"/><g class="overlines-below"/><g class="xaxislayer-below"/><g class="yaxislayer-below"/><g class="overaxes-below"/><g class="overplot"><g class="xy" transform="translate(40,20)" clip-path="url(#clip93d57axyplot)"><g class="scatterlayer mlayer"><g class="trace scatter traced4f6b5" style="stroke-miterlimit: 2; opacity: 1;"><g class="fills"/><g class="errorbars"/><g class="lines"><path class="js-line" d="M0,286.49L2.14,240.58L2.14,240.5L2.8,220.95L3.08,228.29L3.11,229.05L5.39,268.06L5.42,268.43L8.16,293.05L8.2,293.25L10.82,305.75L10.85,305.85L13.1,310.77L13.13,310.81L15.5,312.74L15.53,312.75L19.45,313.43L19.48,313.43L34.26,313.5L34.26,313.5L34.27,313.5L336,313.5" style="vector-effect: none; fill: none; stroke: rgb(51, 204, 51); stroke-opacity: 1; stroke-width: 1.7px; opacity: 1;"/></g><g class="points"/><g class="text"/></g><g class="trace scatter tracee2b0ec" style="stroke-miterlimit: 2; opacity: 1;"><g class="fills"/><g class="errorbars"/><g class="lines"><path class="js-line" d="M0,286.49L4.68,243.39L4.71,242.98L7.64,194.09L7.67,193.47L14.85,59.93L14.89,59.58L17.54,36.75L17.57,36.57L19.97,26.11L20,26.02L22.9,20.26L22.93,20.22L26.23,17.72L26.26,17.71L30.36,16.73L30.39,16.73L33.6,16.5L33.6,310.53L36.07,307.01L36.07,307L38.1,301.3L38.13,301.18L40.38,289.17L40.41,288.95L42.66,266.97L42.69,266.58L45.37,222.13L45.4,221.5L53.51,58.36L53.54,58L56.22,35.5L56.26,35.32L58.84,24.92L58.88,24.84L61.43,20.15L61.47,20.12L64.15,17.97L64.18,17.95L67.2,16.97L67.2,310.53L69.68,307L69.68,307L69.68,306.99L71.7,301.32L71.73,301.2L73.98,289.21L74.01,288.99L76.44,264.66L76.47,264.25L77.99,240.98L78.02,240.44L81.87,156.17L81.9,155.44L85.97,73.46L86,73.01L88.68,43.25L88.71,43L92.38,25.1L92.41,25.02L95.56,19.58L95.59,19.55L98.61,17.58L98.64,17.57L100.8,16.97L100.8,310.53L103.28,307L103.28,307L103.28,306.99L105.3,301.32L105.33,301.2L107.58,289.21L107.61,288.99L110.04,264.66L110.07,264.25L111.59,240.98L111.62,240.44L115.47,156.17L115.5,155.44L119.57,73.46L119.6,73.01L122.28,43.25L122.31,43L125.98,25.1L126.01,25.02L129.16,19.58L129.19,19.55L132.21,17.58L132.24,17.57L134.4,16.97L134.4,310.53L136.88,307L136.88,307L136.88,306.99L138.9,301.32L138.93,301.2L141.18,289.21L141.21,288.99L143.64,264.66L143.67,264.25L145.19,240.98L145.22,240.44L149.07,156.17L149.1,155.44L153.17,73.46L153.2,73.01L155.88,43.25L155.91,43L159.58,25.1L159.61,25.02L162.76,19.58L162.79,19.55L165.81,17.58L165.84,17.57L168,16.97L168,310.53L170.48,307L170.48,307L170.48,306.99L172.5,301.32L172.53,301.2L174.78,289.21L174.81,288.99L177.24,264.66L177.27,264.25L178.79,240.98L178.82,240.44L182.67,156.17L182.7,155.44L186.77,73.46L186.8,73.01L189.48,43.25L189.51,43L193.18,25.1L193.21,25.02L196.36,19.58L196.39,19.55L199.41,17.58L199.44,17.57L201.6,16.97L201.6,310.53L204.08,307L204.08,307L204.08,306.99L206.1,301.32L206.13,301.2L208.38,289.21L208.41,288.99L210.84,264.66L210.87,264.25L212.39,240.98L212.42,240.44L216.27,156.17L216.3,155.44L220.37,73.46L220.4,73.01L223.08,43.25L223.11,43L226.78,25.1L226.81,25.02L229.96,19.58L229.99,19.55L233.01,17.58L233.04,17.57L235.2,16.97L235.2,310.53L237.68,307L237.68,307L237.68,306.99L239.7,301.32L239.73,301.2L241.98,289.21L242.01,288.99L244.44,264.66L244.47,264.25L245.99,240.98L246.02,240.44L249.87,156.17L249.9,155.44L253.97,73.46L254,73.01L256.68,43.25L256.71,43L260.38,25.1L260.41,25.02L263.56,19.58L263.59,19.55L266.61,17.58L266.64,17.57L268.8,16.97L268.8,310.53L271.28,307L271.28,307L271.28,306.99L273.3,301.32L273.33,301.2L275.58,289.21L275.61,288.99L278.04,264.66L278.07,264.25L279.59,240.98L279.62,240.44L283.47,156.17L283.5,155.44L287.57,73.46L287.6,73.01L290.28,43.25L290.31,43L293.98,25.1L294.01,25.02L297.16,19.58L297.19,19.55L300.21,17.58L300.24,17.57L302.4,16.97L302.4,310.53L304.88,307L304.88,307L304.88,306.99L306.9,301.32L306.93,301.2L309.18,289.21L309.21,288.99L311.64,264.66L311.67,264.25L313.19,240.98L313.22,240.44L317.07,156.17L317.1,155.44L321.17,73.46L321.2,73.01L323.88,43.25L323.91,43L327.58,25.1L327.61,25.02L330.76,19.58L330.79,19.55L333.81,17.58L333.84,17.57L336,16.97" style="vector-effect: none; fill: none; stroke: rgb(255, 28, 28); stroke-opacity: 1; stroke-width: 1.7px; opacity: 1;"/></g><g class="points"/><g class="text"/></g></g></g></g><path class="xlines-above crisp" d="M0,0" style="fill: none;"/><path class="ylines-above crisp" d="M0,0" style="fill: none;"/><g class="overlines-above"/><g class="xaxislayer-above"><g class="xtick"><text text-anchor="middle" x="0" y="365" transform="translate(40,0)" style="font-family: 'Open Sans', verdana, arial, sans-serif; font-size: 14px; fill: rgb(0, 0, 0); fill-opacity: 1; white-space: pre; opacity: 1;">0</text></g><g class="xtick"><text text-anchor="middle" x="0" y="365" style="font-family: 'Open Sans', verdana, arial, sans-serif; font-size: 14px; fill: rgb(0, 0, 0); fill-opacity: 1; white-space: pre; opacity: 1;" transform="translate(110,0)">50</text></g><g class="xtick"><text text-anchor="middle" x="0" y="365" style="font-family: 'Open Sans', verdana, arial, sans-serif; font-size: 14px; fill: rgb(0, 0, 0); fill-opacity: 1; white-space: pre; opacity: 1;" transform="translate(180,0)">100</text></g><g class="xtick"><text text-anchor="middle" x="0" y="365" style="font-family: 'Open Sans', verdana, arial, sans-serif; font-size: 14px; fill: rgb(0, 0, 0); fill-opacity: 1; white-space: pre; opacity: 1;" transform="translate(250,0)">150</text></g><g class="xtick"><text text-anchor="middle" x="0" y="365" style="font-family: 'Open Sans', verdana, arial, sans-serif; font-size: 14px; fill: rgb(0, 0, 0); fill-opacity: 1; white-space: pre; opacity: 1;" transform="translate(320,0)">200</text></g></g><g class="yaxislayer-above"><g class="ytick"><text text-anchor="end" x="39" y="4.8999999999999995" transform="translate(0,333.5)" style="font-family: 'Open Sans', verdana, arial, sans-serif; font-size: 14px; fill: rgb(0, 0, 0); fill-opacity: 1; white-space: pre; opacity: 1;">0</text></g><g class="ytick"><text text-anchor="end" x="39" y="4.8999999999999995" style="font-family: 'Open Sans', verdana, arial, sans-serif; font-size: 14px; fill: rgb(0, 0, 0); fill-opacity: 1; white-space: pre; opacity: 1;" transform="translate(0,279.48)">0.2</text></g><g class="ytick"><text text-anchor="end" x="39" y="4.8999999999999995" style="font-family: 'Open Sans', verdana, arial, sans-serif; font-size: 14px; fill: rgb(0, 0, 0); fill-opacity: 1; white-space: pre; opacity: 1;" transform="translate(0,225.45)">0.4</text></g><g class="ytick"><text text-anchor="end" x="39" y="4.8999999999999995" style="font-family: 'Open Sans', verdana, arial, sans-serif; font-size: 14px; fill: rgb(0, 0, 0); fill-opacity: 1; white-space: pre; opacity: 1;" transform="translate(0,171.43)">0.6</text></g><g class="ytick"><text text-anchor="end" x="39" y="4.8999999999999995" style="font-family: 'Open Sans', verdana, arial, sans-serif; font-size: 14px; fill: rgb(0, 0, 0); fill-opacity: 1; white-space: pre; opacity: 1;" transform="translate(0,117.41)">0.8</text></g><g class="ytick"><text text-anchor="end" x="39" y="4.8999999999999995" style="font-family: 'Open Sans', verdana, arial, sans-serif; font-size: 14px; fill: rgb(0, 0, 0); fill-opacity: 1; white-space: pre; opacity: 1;" transform="translate(0,63.38)">1</text></g></g><g class="overaxes-above"/></g></g><g class="polarlayer"/><g class="smithlayer"/><g class="ternarylayer"/><g class="geolayer"/><g class="funnelarealayer"/><g class="pielayer"/><g class="iciclelayer"/><g class="treemaplayer"/><g class="sunburstlayer"/><g class="glimages"/><defs id="topdefs-93d57a"><g class="clips"/><clipPath id="legend93d57a"><rect width="117" height="53" x="0" y="0"/></clipPath></defs><g class="layer-above"><g class="imagelayer"/><g class="shapelayer"/></g><g class="infolayer"><g class="legend" pointer-events="all" transform="translate(382.72,20)"><rect class="bg" shape-rendering="crispEdges" style="stroke: rgb(68, 68, 68); stroke-opacity: 1; fill: rgb(255, 255, 255); fill-opacity: 1; stroke-width: 0px;" width="117" height="53" x="0" y="0"/><g class="scrollbox" transform="" clip-path="url(#legend93d57a)"><g class="groups"><g class="traces" transform="translate(0,15.6)" style="opacity: 1;"><text class="legendtext" text-anchor="start" x="40" y="5.46" style="font-family: 'Open Sans', verdana, arial, sans-serif; font-size: 14px; fill: rgb(0, 0, 0); fill-opacity: 1; white-space: pre;">E_coli</text><g class="layers" style="opacity: 1;"><g class="legendfill"/><g class="legendlines"><path class="js-line" d="M5,0h30" style="fill: none; stroke: rgb(51, 204, 51); stroke-opacity: 1; stroke-width: 1.7px;"/></g><g class="legendsymbols"><g class="legendpoints"/></g></g><rect class="legendtoggle" x="0" y="-10.6" width="111.8125" height="21.2" style="fill: rgb(0, 0, 0); fill-opacity: 0;"/></g><g class="traces" transform="translate(0,36.8)" style="opacity: 1;"><text class="legendtext" text-anchor="start" x="40" y="5.46" style="font-family: 'Open Sans', verdana, arial, sans-serif; font-size: 14px; fill: rgb(0, 0, 0); fill-opacity: 1; white-space: pre;">Salmonella</text><g class="layers" style="opacity: 1;"><g class="legendfill"/><g class="legendlines"><path class="js-line" d="M5,0h30" style="fill: none; stroke: rgb(255, 28, 28); stroke-opacity: 1; stroke-width: 1.7px;"/></g><g class="legendsymbols"><g class="legendpoints"/></g></g><rect class="legendtoggle" x="0" y="-10.6" width="111.8125" height="21.2" style="fill: rgb(0, 0, 0); fill-opacity: 0;"/></g></g></g><rect class="scrollbar" rx="20" ry="3" width="0" height="0" style="fill: rgb(128, 139, 164); fill-opacity: 1;" x="0" y="0"/></g><g class="g-gtitle"/><g class="g-xtitle" transform="translate(0,5.699999999999989)"><text class="xtitle" x="208" y="378.3" text-anchor="middle" style="opacity: 1; font-family: 'Open Sans', verdana, arial, sans-serif; font-size: 14px; fill: rgb(0, 0, 0); fill-opacity: 1; white-space: pre;">Time [h]</text></g><g class="g-ytitle" transform="translate(0.150390625,0)"><text class="ytitle" transform="rotate(-90,14.850000000000001,185)" x="14.850000000000001" y="185" text-anchor="middle" style="opacity: 1; font-family: 'Open Sans', verdana, arial, sans-serif; font-size: 14px; fill: rgb(0, 0, 0); fill-opacity: 1; white-space: pre;">Abundance [OD]</text></g></g></svg>