<svg class="main-svg" xmlns="http://www.w3.org/2000/svg" xmlns:xlink="http://www.w3.org/1999/xlink" width="200" height="200" style="" viewBox="0 0 200 200"><rect x="0" y="0" width="200" height="200" style="fill: rgb(255, 255, 255); fill-opacity: 1;"/><defs id="defs-be0242"><g class="clips"><clipPath id="clipbe0242xyplot" class="plotclip"><rect width="124" height="134"/></clipPath><clipPath class="axesclip" id="clipbe0242x"><rect x="46" y="0" width="124" height="200"/></clipPath><clipPath class="axesclip" id="clipbe0242y"><rect x="0" y="30" width="200" height="134"/></clipPath><clipPath class="axesclip" id="clipbe0242xy"><rect x="46" y="30" width="124" height="134"/></clipPath></g><g class="gradients"/><g class="patterns"/></defs><g class="bglayer"/><g class="layer-below"><g class="imagelayer"/><g class="shapelayer"/></g><g class="cartesianlayer"><g class="subplot xy"><g class="layer-subplot"><g class="shapelayer"/><g class="imagelayer"/></g><g class="minor-gridlayer"><g class="x"/><g class="y"/></g><g class="gridlayer"><g class="x"><path class="xgrid crisp" transform="translate(77,0)" d="M0,30v134" style="stroke: rgb(128, 128, 128); stroke-opacity: 1; stroke-width: 0.2px;"/><path class="xgrid crisp" transform="translate(108,0)" d="M0,30v134" style="stroke: rgb(128, 128, 128); stroke-opacity: 1; stroke-width: 0.2px;"/><path class="xgrid crisp" transform="translate(139,0)" d="M0,30v134" style="stroke: rgb(128, 128, 128); stroke-opacity: 1; stroke-width: 0.2px;"/></g><g class="y"><path class="ygrid crisp" transform="translate(0,130.5)" d="M46,0h124" style="stroke: rgb(128, 128, 128); stroke-opacity: 1; stroke-width: 0.2px;"/><path class="ygrid crisp" transform="translate(0,97)" d="M46,0h124" style="stroke: rgb(128, 128, 128); stroke-opacity: 1; stroke-width: 0.2px;"/><path class="ygrid crisp" transform="translate(0,63.5)" d="M46,0h124" style="stroke: rgb(128, 128, 128); stroke-opacity: 1; stroke-width: 0.2px;"/></g></g><g class="zerolinelayer"/><g class="layer-between"><g class="shapelayer"/><g class="imagelayer"/></g><path class="xlines-below"/><path class="ylines-below"/><g class="overlines-below"/><g class="xaxislayer-below"/><g class="yaxislayer-below"/><g class="overaxes-below"/><g class="overplot"><g class="xy" transform="translate(46,30)" clip-path="url(#clipbe0242xyplot)"><g class="scatterlayer mlayer"><g class="trace scatter traceff87c5" style="stroke-miterlimit: 2; opacity: 1;"><g class="fills"/><g class="errorbars"/><g class="lines"><path class="js-line" d="M0,53.6L2.58,50.7L2.81,51.33L2.84,51.4L2.95,51.58L2.98,51.52L3.01,47.16L3.78,48.85L3.81,48.85L12.08,48.85L12.108786349731004,-2680.0000000000005L0,-2680L12.175358153712171,-2680L12.2,-76.86L12.23,-2211.8L12.244309290953545,-2680L12.506155338930391,-2680L12.62,1468.41L13.02,-1180.87L13.05,47.33L13.242571436330556,-2680L13.315609287627462,-2680L13.34,1472.47L13.82,-2275.26L13.85,-865.27L13.99,1468.39L14.131644131387507,-2680L20.96479454330037,-2680L21.56,-2607.36L21.58,48.85L21.59961349675845,2813.9999999999995L0,2814L21.85581391004998,2814L22.32,48.85L22.35,48.85L31,48.85L31,75.65L33.58,71.81L33.84,72.55L33.87,72.64L36.03,78.25L36.11,77.86L36.14,68.05L36.15022706037772,2813.9999999999995L41.38,2814" style="vector-effect: none; fill: none; stroke: rgb(152, 202, 170); stroke-opacity: 1; stroke-width: 1.7px; opacity: 1;"/><path class="js-line" d="M41.43,2814L42.09,2814" style="vector-effect: none; fill: none; stroke: rgb(152, 202, 170); stroke-opacity: 1; stroke-width: 1.7px; opacity: 1;"/><path class="js-line" d="M42.17,2814L42.380705729147934,2814L42.77,108.58L42.7701730679401,2814L43.03,2814" style="vector-effect: none; fill: none; stroke: rgb(152, 202, 170); stroke-opacity: 1; stroke-width: 1.7px; opacity: 1;"/><path class="js-line" d="M43.08,2814L43.64994230664294,2814L43.65,108.39L43.668708753215384,2814L43.68,2814" style="vector-effect: none; fill: none; stroke: rgb(152, 202, 170); stroke-opacity: 1; stroke-width: 1.7px; opacity: 1;"/><path class="js-line" d="M43.77,2814L44.53,2814" style="vector-effect: none; fill: none; stroke: rgb(152, 202, 170); stroke-opacity: 1; stroke-width: 1.7px; opacity: 1;"/><path class="js-line" d="M44.59,2814L45.25,2814" style="vector-effect: none; fill: none; stroke: rgb(152, 202, 170); stroke-opacity: 1; stroke-width: 1.7px; opacity: 1;"/><path class="js-line" d="M45.33,2814L46.18,2814" style="vector-effect: none; fill: none; stroke: rgb(152, 202, 170); stroke-opacity: 1; stroke-width: 1.7px; opacity: 1;"/><path class="js-line" d="M46.24,2814L46.80994229259643,2814L46.81,107.73L46.82871047064192,2814L46.84,2814" style="vector-effect: none; fill: none; stroke: rgb(152, 202, 170); stroke-opacity: 1; stroke-width: 1.7px; opacity: 1;"/><path class="js-line" d="M46.92,2814" style="vector-effect: none; fill: none; stroke: rgb(152, 202, 170); stroke-opacity: 1; stroke-width: 1.7px; opacity: 1;"/><path class="js-line" d="M47.61,2814L47.84873455657932,2814L48.29,107.44L48.30412058814214,2814L55.63,2814" style="vector-effect: none; fill: none; stroke: rgb(152, 202, 170); stroke-opacity: 1; stroke-width: 1.7px; opacity: 1;"/><path class="js-line" d="M55.69,2814L56.03,2814" style="vector-effect: none; fill: none; stroke: rgb(152, 202, 170); stroke-opacity: 1; stroke-width: 1.7px; opacity: 1;"/><path class="js-line" d="M56.08,2814L57.99,2814" style="vector-effect: none; fill: none; stroke: rgb(152, 202, 170); stroke-opacity: 1; stroke-width: 1.7px; opacity: 1;"/><path class="js-line" d="M58.05,2814L58.39,2814" style="vector-effect: none; fill: none; stroke: rgb(152, 202, 170); stroke-opacity: 1; stroke-width: 1.7px; opacity: 1;"/><path class="js-line" d="M58.44,2814L58.79,2814" style="vector-effect: none; fill: none; stroke: rgb(152, 202, 170); stroke-opacity: 1; stroke-width: 1.7px; opacity: 1;"/><path class="js-line" d="M58.84,2814L59.18,2814" style="vector-effect: none; fill: none; stroke: rgb(152, 202, 170); stroke-opacity: 1; stroke-width: 1.7px; opacity: 1;"/><path class="js-line" d="M59.24,2814L61.1463724934898,2814L61.15,142.07L61.18298941784406,2814L78.77954795831515,2814L78.78,48.78L79.32,74.07L79.35,73.99L85.29,56.45L85.32,56.37L85.97,52.78L86,51.86L86.54,34.38L86.54005926839919,2814L87.81990045319732,2814L87.82,-1860.92L87.86568898705538,2814L87.91,2814" style="vector-effect: none; fill: none; stroke: rgb(152, 202, 170); stroke-opacity: 1; stroke-width: 1.7px; opacity: 1;"/><path class="js-line" d="M88.08,2814L88.42,2814" style="vector-effect: none; fill: none; stroke: rgb(152, 202, 170); stroke-opacity: 1; stroke-width: 1.7px; opacity: 1;"/><path class="js-line" d="M88.48,2814L88.82,2814" style="vector-effect: none; fill: none; stroke: rgb(152, 202, 170); stroke-opacity: 1; stroke-width: 1.7px; opacity: 1;"/><path class="js-line" d="M88.88,2814L89.22,2814" style="vector-effect: none; fill: none; stroke: rgb(152, 202, 170); stroke-opacity: 1; stroke-width: 1.7px; opacity: 1;"/><path class="js-line" d="M89.27,2814" style="vector-effect: none; fill: none; stroke: rgb(152, 202, 170); stroke-opacity: 1; stroke-width: 1.7px; opacity: 1;"/><path class="js-line" d="M89.44,2814L0,2814L89.58971143318657,2813.999999999767L89.59,107.45L89.62839862397452,2814.0000000000005L0,2814L109.57994237389609,2814L109.58,111.55L112.28,111.39L112.31,111.39L119.62,110.33L119.65,110.32L124,109.12" style="vector-effect: none; fill: none; stroke: rgb(152, 202, 170); stroke-opacity: 1; stroke-width: 1.7px; opacity: 1;"/></g><g class="points"/><g class="text"/></g><g class="trace scatter trace550733" style="stroke-miterlimit: 2; opacity: 1;"><g class="fills"/><g class="errorbars"/><g class="lines"><path class="js-line" d="M0,53.6L3.01,29.33L3.04,48.85L12.06,48.85L12.08,-1379.17L12.098283009056027,-2680L12.207991748870654,-2680L12.62,825.14L12.85,-477.54L12.88,-223.19L12.97,1018.79L13.272988210810631,-2680L13.599064900062015,-2680L13.62,-2094.85L13.65,1455.95L13.98793478172058,-2680L14.359938906716954,-2680L14.42,-2532.8L14.44,-923.35L14.49813192874083,-2680L14.604574291742013,-2680L14.9,1134.92L15.24,-1504.21L15.27,-2205.49L15.336320048638337,-2680L15.53382507183344,-2680L15.81,1458.66L16.04,-2668.11L16.07,-2601.74L16.111156981330527,-2680L16.58851936145531,-2680L16.78,1468.12L16.858917484340147,-2679.999999999999L0,-2680L17.325705048157957,-2680L17.35,1139.79L17.66,628.52L17.69,554.44L17.92,1471.84L18.51,1196.71L18.54,45.54L18.68,52.88L19.25,34.72L19.31,34.77L19.34,35.82L19.62,51.61L19.65,34.75L19.88,48.46L19.91,1212.6L20.02,1196.77L20.805163280104818,2814L21.87658691653308,2814L22.38,48.85L22.41,48.85L31,48.78L31,75.58L36.14,34.04L36.1400592756345,2814L41.20990045319733,2814L41.21,-1860.92L41.232848475764726,2814.000000000001L42.09,2814" style="vector-effect: none; fill: none; stroke: rgb(49, 97, 66); stroke-opacity: 1; stroke-width: 1.7px; opacity: 1;"/><path class="js-line" d="M42.17,2814L43.68,2814" style="vector-effect: none; fill: none; stroke: rgb(49, 97, 66); stroke-opacity: 1; stroke-width: 1.7px; opacity: 1;"/><path class="js-line" d="M43.77,2814L45.25,2814" style="vector-effect: none; fill: none; stroke: rgb(49, 97, 66); stroke-opacity: 1; stroke-width: 1.7px; opacity: 1;"/><path class="js-line" d="M45.33,2814L46.84,2814" style="vector-effect: none; fill: none; stroke: rgb(49, 97, 66); stroke-opacity: 1; stroke-width: 1.7px; opacity: 1;"/><path class="js-line" d="M46.92,2814L47.52,2814" style="vector-effect: none; fill: none; stroke: rgb(49, 97, 66); stroke-opacity: 1; stroke-width: 1.7px; opacity: 1;"/><path class="js-line" d="M47.61,2814L48.28869182562171,2814L48.29,107.44L48.306640747606195,2814L56.98993363546489,2814L56.99,-1860.92L56.99066364535117,2814L57.19,2814" style="vector-effect: none; fill: none; stroke: rgb(49, 97, 66); stroke-opacity: 1; stroke-width: 1.7px; opacity: 1;"/><path class="js-line" d="M57.25,2814L57.59,2814" style="vector-effect: none; fill: none; stroke: rgb(49, 97, 66); stroke-opacity: 1; stroke-width: 1.7px; opacity: 1;"/><path class="js-line" d="M57.65,2814L57.99,2814" style="vector-effect: none; fill: none; stroke: rgb(49, 97, 66); stroke-opacity: 1; stroke-width: 1.7px; opacity: 1;"/><path class="js-line" d="M58.05,2814L58.39,2814" style="vector-effect: none; fill: none; stroke: rgb(49, 97, 66); stroke-opacity: 1; stroke-width: 1.7px; opacity: 1;"/><path class="js-line" d="M58.44,2814L61.149943058150285,2814L61.15,143.7L61.18296933098284,2814L78.77954795831515,2814L78.78,48.78L79.32,74.05L79.35,73.97L85.29,56.43L85.32,56.35L85.97,52.55L86,51.63L86.54,34.15L86.54005927329366,2814L88.02,2814" style="vector-effect: none; fill: none; stroke: rgb(49, 97, 66); stroke-opacity: 1; stroke-width: 1.7px; opacity: 1;"/><path class="js-line" d="M88.08,2814L88.42,2814" style="vector-effect: none; fill: none; stroke: rgb(49, 97, 66); stroke-opacity: 1; stroke-width: 1.7px; opacity: 1;"/><path class="js-line" d="M88.48,2814L89.58994228642449,2814L89.59,107.44L89.59442470745599,2814L91.89,2814" style="vector-effect: none; fill: none; stroke: rgb(49, 97, 66); stroke-opacity: 1; stroke-width: 1.7px; opacity: 1;"/><path class="js-line" d="M91.95,2814" style="vector-effect: none; fill: none; stroke: rgb(49, 97, 66); stroke-opacity: 1; stroke-width: 1.7px; opacity: 1;"/><path class="js-line" d="M92.15,2814L92.79876625992291,2814L92.8,143.7L92.83179253275547,2814L109.57994237389609,2814L109.58,111.55L112.28,111.39L112.31,111.39L119.62,110.33L119.65,110.32L124,109.12" style="vector-effect: none; fill: none; stroke: rgb(49, 97, 66); stroke-opacity: 1; stroke-width: 1.7px; opacity: 1;"/></g><g class="points"/><g class="text"/></g></g></g></g><g class="zerolinelayer-above"/><path class="xlines-above crisp" d="M45.5,164.25H170.5M45.5,29.75H170.5" style="fill: none; stroke-width: 0.5px; stroke: rgb(0, 0, 0); stroke-opacity: 1;"/><path class="ylines-above crisp" d="M45.75,30V164M170.25,30V164" style="fill: none; stroke-width: 0.5px; stroke: rgb(0, 0, 0); stroke-opacity: 1;"/><g class="overlines-above"/><g class="xaxislayer-above"><path class="xtick ticks crisp" d="M0,164v-5" transform="translate(77,0)" style="stroke: rgb(0, 0, 0); stroke-opacity: 1; stroke-width: 0.5px;"/><path class="xtick ticks crisp" d="M0,164v-5" transform="translate(108,0)" style="stroke: rgb(0, 0, 0); stroke-opacity: 1; stroke-width: 0.5px;"/><path class="xtick ticks crisp" d="M0,164v-5" transform="translate(139,0)" style="stroke: rgb(0, 0, 0); stroke-opacity: 1; stroke-width: 0.5px;"/><g class="xtick"><text text-anchor="middle" x="0" y="177.7" transform="translate(46,0)" style="font-family: 'Open Sans', verdana, arial, sans-serif; font-size: 11px; fill: rgb(0, 0, 0); fill-opacity: 1; white-space: pre;">0</text></g><g class="xtick"><text text-anchor="middle" x="0" y="177.7" style="font-family: 'Open Sans', verdana, arial, sans-serif; font-size: 11px; fill: rgb(0, 0, 0); fill-opacity: 1; white-space: pre;" transform="translate(77,0)">1</text></g><g class="xtick"><text text-anchor="middle" x="0" y="177.7" style="font-family: 'Open Sans', verdana, arial, sans-serif; font-size: 11px; fill: rgb(0, 0, 0); fill-opacity: 1; white-space: pre;" transform="translate(108,0)">2</text></g><g class="xtick"><text text-anchor="middle" x="0" y="177.7" style="font-family: 'Open Sans', verdana, arial, sans-serif; font-size: 11px; fill: rgb(0, 0, 0); fill-opacity: 1; white-space: pre;" transform="translate(139,0)">3</text></g><g class="xtick"><text text-anchor="middle" x="0" y="177.7" style="font-family: 'Open Sans', verdana, arial, sans-serif; font-size: 11px; fill: rgb(0, 0, 0); fill-opacity: 1; white-space: pre;" transform="translate(170,0)">4</text></g></g><g class="yaxislayer-above"><path class="ytick ticks crisp" d="M46,0h5" transform="translate(0,130.5)" style="stroke: rgb(0, 0, 0); stroke-opacity: 1; stroke-width: 0.5px;"/><path class="ytick ticks crisp" d="M46,0h5" transform="translate(0,97)" style="stroke: rgb(0, 0, 0); stroke-opacity: 1; stroke-width: 0.5px;"/><path class="ytick ticks crisp" d="M46,0h5" transform="translate(0,63.5)" style="stroke: rgb(0, 0, 0); stroke-opacity: 1; stroke-width: 0.5px;"/><g class="ytick"><text text-anchor="end" x="43.3" y="3.8499999999999996" transform="translate(0,164)" style="font-family: 'Open Sans', verdana, arial, sans-serif; font-size: 11px; fill: rgb(0, 0, 0); fill-opacity: 1; white-space: pre;">10⁰</text></g><g class="ytick"><text text-anchor="end" x="43.3" y="3.8499999999999996" style="font-family: 'Open Sans', verdana, arial, sans-serif; font-size: 11px; fill: rgb(0, 0, 0); fill-opacity: 1; white-space: pre;" transform="translate(0,130.5)">10²·⁵</text></g><g class="ytick"><text text-anchor="end" x="43.3" y="3.8499999999999996" style="font-family: 'Open Sans', verdana, arial, sans-serif; font-size: 11px; fill: rgb(0, 0, 0); fill-opacity: 1; white-space: pre;" transform="translate(0,97)">10⁵</text></g><g class="ytick"><text text-anchor="end" x="43.3" y="3.8499999999999996" style="font-family: 'Open Sans', verdana, arial, sans-serif; font-size: 11px; fill: rgb(0, 0, 0); fill-opacity: 1; white-space: pre;" transform="translate(0,63.5)">10⁷·⁵</text></g><g class="ytick"><text text-anchor="end" x="43.3" y="3.8499999999999996" style="font-family: 'Open Sans', verdana, arial, sans-serif; font-size: 11px; fill: rgb(0, 0, 0); fill-opacity: 1; white-space: pre;" transform="translate(0,30)">10¹⁰</text></g></g><g class="overaxes-above"/></g></g><g class="polarlayer"/><g class="smithlayer"/><g class="ternarylayer"/><g class="geolayer"/><g class="funnelarealayer"/><g class="pielayer"/><g class="iciclelayer"/><g class="treemaplayer"/><g class="sunburstlayer"/><g class="glimages"/><defs id="topdefs-be0242"><g class="clips"/></defs><g class="layer-above"><g class="imagelayer"/><g class="shapelayer"/></g><g class="infolayer"><g class="g-gtitle"/><g class="g-xtitle" transform="translate(0,4.550000000000011)"><text class="xtitle" x="108" y="188.1501953125" text-anchor="middle" style="opacity: 1; font-family: 'Open Sans', verdana, arial, sans-serif; font-size: 11px; fill: rgb(0, 0, 0); fill-opacity: 1; white-space: pre;">Time (days)</text></g><g class="g-ytitle"><text class="ytitle" transform="rotate(-90,16.5435546875,97)" x="16.5435546875" y="97" text-anchor="middle" style="opacity: 1; font-family: 'Open Sans', verdana, arial, sans-serif; font-size: 11px; fill: rgb(0, 0, 0); fill-opacity: 1; white-space: pre;">CFUs/mL</text></g></g></svg>