<svg class="main-svg" xmlns="http://www.w3.org/2000/svg" xmlns:xlink="http://www.w3.org/1999/xlink" width="500" height="400" style="" viewBox="0 0 500 400"><rect x="0" y="0" width="500" height="400" style="fill: rgb(255, 255, 255); fill-opacity: 1;"/><defs id="defs-5e22ca"><g class="clips"><clipPath id="clip5e22caxyplot" class="plotclip"><rect width="336" height="330"/></clipPath><clipPath class="axesclip" id="clip5e22cax"><rect x="40" y="0" width="336" height="400"/></clipPath><clipPath class="axesclip" id="clip5e22cay"><rect x="0" y="20" width="500" height="330"/></clipPath><clipPath class="axesclip" id="clip5e22caxy"><rect x="40" y="20" width="336" height="330"/></clipPath></g><g class="gradients"/><g class="patterns"/></defs><g class="bglayer"/><g class="layer-below"><g class="imagelayer"/><g class="shapelayer"/></g><g class="cartesianlayer"><g class="subplot xy"><g class="layer-subplot"><g class="shapelayer"/><g class="imagelayer"/></g><g class="minor-gridlayer"><g class="x"/><g class="y"/></g><g class="gridlayer"><g class="x"><path class="xgrid crisp" transform="translate(56.8,0)" d="M0,20v330" style="stroke: rgb(0, 0, 0); stroke-opacity: 1; stroke-width: 0.5px;"/><path class="xgrid crisp" transform="translate(73.6,0)" d="M0,20v330" style="stroke: rgb(0, 0, 0); stroke-opacity: 1; stroke-width: 0.5px;"/><path class="xgrid crisp" transform="translate(90.4,0)" d="M0,20v330" style="stroke: rgb(0, 0, 0); stroke-opacity: 1; stroke-width: 0.5px;"/><path class="xgrid crisp" transform="translate(107.2,0)" d="M0,20v330" style="stroke: rgb(0, 0, 0); stroke-opacity: 1; stroke-width: 0.5px;"/><path class="xgrid crisp" transform="translate(124,0)" d="M0,20v330" style="stroke: rgb(0, 0, 0); stroke-opacity: 1; stroke-width: 0.5px;"/><path class="xgrid crisp" transform="translate(140.8,0)" d="M0,20v330" style="stroke: rgb(0, 0, 0); stroke-opacity: 1; stroke-width: 0.5px;"/><path class="xgrid crisp" transform="translate(157.6,0)" d="M0,20v330" style="stroke: rgb(0, 0, 0); stroke-opacity: 1; stroke-width: 0.5px;"/><path class="xgrid crisp" transform="translate(174.4,0)" d="M0,20v330" style="stroke: rgb(0, 0, 0); stroke-opacity: 1; stroke-width: 0.5px;"/><path class="xgrid crisp" transform="translate(191.2,0)" d="M0,20v330" style="stroke: rgb(0, 0, 0); stroke-opacity: 1; stroke-width: 0.5px;"/><path class="xgrid crisp" transform="translate(208,0)" d="M0,20v330" style="stroke: rgb(0, 0, 0); stroke-opacity: 1; stroke-width: 0.5px;"/><path class="xgrid crisp" transform="translate(224.8,0)" d="M0,20v330" style="stroke: rgb(0, 0, 0); stroke-opacity: 1; stroke-width: 0.5px;"/><path class="xgrid crisp" transform="translate(241.6,0)" d="M0,20v330" style="stroke: rgb(0, 0, 0); stroke-opacity: 1; stroke-width: 0.5px;"/><path class="xgrid crisp" transform="translate(258.4,0)" d="M0,20v330" style="stroke: rgb(0, 0, 0); stroke-opacity: 1; stroke-width: 0.5px;"/><path class="xgrid crisp" transform="translate(275.2,0)" d="M0,20v330" style="stroke: rgb(0, 0, 0); stroke-opacity: 1; stroke-width: 0.5px;"/><path class="xgrid crisp" transform="translate(292,0)" d="M0,20v330" style="stroke: rgb(0, 0, 0); stroke-opacity: 1; stroke-width: 0.5px;"/><path class="xgrid crisp" transform="translate(308.8,0)" d="M0,20v330" style="stroke: rgb(0, 0, 0); stroke-opacity: 1; stroke-width: 0.5px;"/><path class="xgrid crisp" transform="translate(325.6,0)" d="M0,20v330" style="stroke: rgb(0, 0, 0); stroke-opacity: 1; stroke-width: 0.5px;"/><path class="xgrid crisp" transform="translate(342.4,0)" d="M0,20v330" style="stroke: rgb(0, 0, 0); stroke-opacity: 1; stroke-width: 0.5px;"/><path class="xgrid crisp" transform="translate(359.2,0)" d="M0,20v330" style="stroke: rgb(0, 0, 0); stroke-opacity: 1; stroke-width: 0.5px;"/></g><g class="y"><path class="ygrid crisp" transform="translate(0,295)" d="M40,0h336" style="stroke: rgb(0, 0, 0); stroke-opacity: 1; stroke-width: 0.5px;"/><path class="ygrid crisp" transform="translate(0,240)" d="M40,0h336" style="stroke: rgb(0, 0, 0); stroke-opacity: 1; stroke-width: 0.5px;"/><path class="ygrid crisp" transform="translate(0,185)" d="M40,0h336" style="stroke: rgb(0, 0, 0); stroke-opacity: 1; stroke-width: 0.5px;"/><path class="ygrid crisp" transform="translate(0,130)" d="M40,0h336" style="stroke: rgb(0, 0, 0); stroke-opacity: 1; stroke-width: 0.5px;"/><path class="ygrid crisp" transform="translate(0,75)" d="M40,0h336" style="stroke: rgb(0, 0, 0); stroke-opacity: 1; stroke-width: 0.5px;"/></g></g><g class="zerolinelayer"><path class="xzl zl crisp" transform="translate(40,0)" d="M0,20v330" style="stroke: rgb(0, 0, 0); stroke-opacity: 1; stroke-width: 0.5px;"/><path class="yzl zl crisp" transform="translate(0,350)" d="M40,0h336" style="stroke: rgb(0, 0, 0); stroke-opacity: 1; stroke-width: 0.5px;"/></g><g class="layer-between"><g class="shapelayer"/><g class="imagelayer"/></g><path class="xlines-below"/><path class="ylines-below"/><g class="overlines-below"/><g class="xaxislayer-below"/><g class="yaxislayer-below"/><g class="overaxes-below"/><g class="overplot"><g class="xy" transform="translate(40,20)" clip-path="url(#clip5e22caxyplot)"><g class="scatterlayer mlayer"><g class="trace scatter traceec83c9" style="stroke-miterlimit: 2; opacity: 1;"><g class="fills"/><g class="errorbars"/><g class="lines"><path class="js-line" d="M0,302.5L2.08,257.53L2.08,257.45L2.8,235.77L3.08,243.1L3.11,243.84L4.83,268.21L4.87,268.37L5.48,269.87L5.79,269.32L5.82,269.22L6.75,262.74L6.78,262.42L9.71,223.18L9.74,222.81L12.23,200.64L12.27,200.46L14.48,192.23L14.52,192.16L16.77,189.14L16.8,189.11L19.66,188.1L19.7,188.09L26.57,188.37L26.6,188.37L33.6,189.06L33.6,328.59L35.32,325.82L35.32,325.81L37.14,321.91L37.17,321.91L40.87,321.9L40.9,321.89L42.84,320.65L42.87,320.61L44.23,317.83L44.26,317.73L45.71,310.38L45.74,310.15L47.62,289.29L47.65,288.84L53.6,205.53L53.63,205.32L56.5,193.73L56.53,193.67L58.94,190.67L58.97,190.65L61.93,189.57L61.96,189.57L67.2,189.26L67.2,328.59L68.81,326.11L68.81,326.1L70.74,321.92L70.77,321.93L74.99,321.74L75.03,321.72L76.75,320.23L76.78,320.18L78.11,316.85L78.14,316.73L79.62,307.85L79.65,307.59L81.59,283.54L81.62,283.06L86.86,208.04L86.9,207.8L89.15,196.27L89.18,196.18L91.3,191.92L91.33,191.88L94.02,190.06L94.05,190.05L98.21,189.45L98.24,189.45L100.8,189.38L100.8,328.59L102.41,326.11L102.41,326.11L102.41,326.1L104.34,321.93L104.37,321.93L108.56,321.76L108.59,321.74L110.29,320.32L110.32,320.28L111.83,316.37L111.86,316.25L113.37,306.48L113.4,306.2L114.64,291.8L114.67,291.37L120.87,205.19L120.9,204.99L122.99,195.59L123.02,195.5L125.52,191.32L125.55,191.29L128.39,189.89L128.42,189.89L132.92,189.46L132.95,189.46L134.4,189.43L134.4,328.59L136.01,326.11L136.01,326.11L136.01,326.1L137.94,321.93L137.97,321.94L142.19,321.75L142.23,321.73L144.04,320.09L144.08,320.04L145.52,315.99L145.56,315.85L147.07,305.62L147.1,305.33L149.19,277.05L149.22,276.53L153.88,209.57L153.91,209.31L156.13,197.04L156.16,196.94L158.26,192.3L158.29,192.26L160.63,190.36L160.66,190.35L164.27,189.58L164.3,189.58L168,189.45L168,328.59L169.5,326.37L169.5,326.37L169.5,326.36L171.54,321.93L171.57,321.94L175.79,321.75L175.83,321.73L177.64,320.09L177.68,320.04L179.12,315.99L179.16,315.85L180.67,305.62L180.7,305.32L182.67,279.08L182.7,278.58L187.48,209.57L187.51,209.32L189.73,197.05L189.76,196.94L191.98,192.14L192.01,192.1L194.39,190.3L194.42,190.29L198.21,189.57L198.24,189.57L201.6,189.46L201.6,328.59L203.1,326.37L203.1,326.37L203.1,326.36L205.14,321.93L205.17,321.94L209.39,321.75L209.43,321.73L211.12,320.28L211.15,320.23L212.54,316.74L212.57,316.62L214.11,307.04L214.14,306.76L216.15,281.08L216.18,280.59L221.17,208.82L221.2,208.58L223.42,196.74L223.45,196.64L225.92,191.75L225.95,191.72L228.42,190.14L228.45,190.13L232.64,189.52L232.67,189.52L235.2,189.46L235.2,328.59L236.7,326.37L236.7,326.37L236.7,326.36L238.74,321.93L238.77,321.94L242.99,321.75L243.03,321.73L244.72,320.28L244.75,320.23L246.14,316.74L246.17,316.62L247.71,307.04L247.74,306.76L249.75,281.08L249.78,280.59L254.77,208.82L254.8,208.58L257.02,196.74L257.05,196.64L259.52,191.75L259.55,191.72L262.02,190.14L262.05,190.13L266.21,189.53L266.24,189.53L268.8,189.46L268.8,328.59L270.3,326.37L270.3,326.37L270.3,326.36L272.34,321.93L272.37,321.94L276.59,321.75L276.63,321.73L278.32,320.28L278.35,320.23L279.74,316.74L279.77,316.62L281.31,307.04L281.34,306.76L283.35,281.08L283.38,280.59L288.37,208.83L288.4,208.58L290.62,196.74L290.65,196.64L293.12,191.75L293.15,191.72L295.62,190.14L295.65,190.13L299.81,189.53L299.84,189.53L302.4,189.46L302.4,328.59L303.9,326.37L303.9,326.37L303.9,326.36L305.94,321.93L305.97,321.94L310.19,321.75L310.23,321.73L311.92,320.28L311.95,320.23L313.34,316.74L313.37,316.62L314.91,307.04L314.94,306.76L316.95,281.08L316.98,280.59L321.97,208.83L322,208.58L324.22,196.74L324.25,196.64L326.72,191.75L326.75,191.72L329.22,190.14L329.25,190.13L333.41,189.53L333.44,189.53L336,189.46" style="vector-effect: none; fill: none; stroke: rgb(51, 204, 51); stroke-opacity: 1; stroke-width: 1.7px; opacity: 1;"/></g><g class="points"/><g class="text"/></g><g class="trace scatter tracecc3626" style="stroke-miterlimit: 2; opacity: 1;"><g class="fills"/><g class="errorbars"/><g class="lines"><path class="js-line" d="M0,302.5L4.59,260.1L4.62,259.71L10.75,186.77L10.79,186.58L13.04,177.1L13.07,177.01L15.32,173.14L15.35,173.11L17.94,171.39L17.97,171.38L22.66,170.3L22.69,170.3L31.84,169.23L31.87,169.23L33.6,169.05L33.6,328.39L36.34,326.19L36.34,326.19L36.34,326.18L38.56,322.47L38.59,322.4L40.93,314.6L40.96,314.46L43.43,298.39L43.46,298.12L46.24,265.27L46.27,264.81L52.09,186.59L52.12,186.37L54.37,175.23L54.41,175.14L56.5,170.95L56.53,170.92L59.09,169.1L59.12,169.09L63.84,168.39L63.87,168.39L67.2,168.31L67.2,328.38L69.93,326.19L69.93,326.18L72.22,322.29L72.25,322.22L74.53,314.53L74.56,314.39L77,298.52L77.03,298.25L79.59,268.62L79.62,268.18L85.69,186.4L85.72,186.18L87.88,175.37L87.91,175.27L90.1,170.82L90.13,170.78L92.85,168.92L92.88,168.91L97.16,168.27L97.19,168.27L100.8,168.18L100.8,328.38L103.52,326.19L103.52,326.19L103.53,326.18L105.82,322.28L105.85,322.21L108.13,314.52L108.16,314.38L110.6,298.5L110.63,298.23L113.19,268.58L113.22,268.14L119.29,186.35L119.32,186.13L121.48,175.32L121.51,175.22L123.7,170.77L123.73,170.73L126.45,168.87L126.48,168.86L130.76,168.22L130.79,168.22L134.4,168.13L134.4,328.38L137.12,326.19L137.12,326.19L137.12,326.18L139.17,322.84L139.2,322.77L141.02,317.46L141.05,317.35L142.84,308.56L142.87,308.37L145.37,286.78L145.4,286.43L148.61,240.35L148.64,239.85L152.31,191.06L152.34,190.79L154.62,176.92L154.65,176.8L156.84,171.37L156.87,171.32L159.27,169.17L159.31,169.16L162.42,168.35L162.45,168.35L168,168.11L168,328.38L170.72,326.19L170.72,326.19L170.72,326.18L172.77,322.84L172.8,322.77L174.62,317.46L174.65,317.35L176.44,308.56L176.47,308.36L178.72,289.49L178.75,289.16L180.23,270.74L180.27,270.31L186.59,185.65L186.62,185.44L188.81,174.91L188.84,174.82L190.9,170.74L190.93,170.7L193.68,168.83L193.71,168.82L197.93,168.2L197.96,168.2L201.6,168.11L201.6,328.38L204.32,326.19L204.32,326.19L204.32,326.18L206.37,322.84L206.4,322.77L208.22,317.46L208.25,317.35L210.04,308.55L210.07,308.36L212.32,289.49L212.35,289.16L213.83,270.74L213.87,270.3L220.28,185L220.31,184.79L222.65,174.2L222.68,174.11L224.9,170.29L224.93,170.26L227.71,168.7L227.74,168.69L232.64,168.15L232.67,168.15L235.2,168.1L235.2,328.38L237.92,326.19L237.92,326.19L237.92,326.18L239.97,322.84L240,322.77L241.82,317.46L241.85,317.35L243.64,308.55L243.67,308.36L245.92,289.49L245.95,289.16L247.43,270.74L247.47,270.3L253.88,185L253.91,184.79L256.13,174.54L256.16,174.45L258.35,170.45L258.38,170.42L260.85,168.84L260.88,168.83L265.16,168.19L265.19,168.19L268.8,168.1L268.8,328.38L271.52,326.19L271.52,326.19L271.52,326.18L273.57,322.84L273.6,322.77L275.42,317.46L275.45,317.34L277.12,309.31L277.15,309.12L279.52,289.49L279.55,289.16L281.03,270.74L281.07,270.3L287.48,185L287.51,184.79L289.73,174.54L289.76,174.45L291.95,170.45L291.98,170.42L294.45,168.84L294.48,168.83L298.76,168.19L298.79,168.19L302.4,168.1L302.4,328.38L305.12,326.19L305.12,326.19L305.12,326.18L307.17,322.84L307.2,322.77L309.02,317.46L309.05,317.34L310.72,309.31L310.75,309.12L313.12,289.49L313.15,289.16L314.63,270.74L314.67,270.3L321.08,185L321.11,184.79L323.33,174.54L323.36,174.45L325.55,170.45L325.58,170.42L328.05,168.84L328.08,168.83L332.36,168.19L332.39,168.19L336,168.1" style="vector-effect: none; fill: none; stroke: rgb(255, 28, 28); stroke-opacity: 1; stroke-width: 1.7px; opacity: 1;"/></g><g class="points"/><g class="text"/></g></g></g></g><path class="xlines-above crisp" d="M0,0" style="fill: none;"/><path class="ylines-above crisp" d="M0,0" style="fill: none;"/><g class="overlines-above"/><g class="xaxislayer-above"><g class="xtick"><text text-anchor="start" x="0" y="365" transform="translate(40,0) rotate(90,0,358)" style="font-family: 'Open Sans', verdana, arial, sans-serif; font-size: 14px; fill: rgb(0, 0, 0); fill-opacity: 1; white-space: pre; opacity: 1;">0</text></g><g class="xtick"><text text-anchor="start" x="0" y="365" style="font-family: 'Open Sans', verdana, arial, sans-serif; font-size: 14px; fill: rgb(0, 0, 0); fill-opacity: 1; white-space: pre; opacity: 1;" transform="translate(56.8,0) rotate(90,0,358)">12</text></g><g class="xtick"><text text-anchor="start" x="0" y="365" style="font-family: 'Open Sans', verdana, arial, sans-serif; font-size: 14px; fill: rgb(0, 0, 0); fill-opacity: 1; white-space: pre; opacity: 1;" transform="translate(73.6,0) rotate(90,0,358)">24</text></g><g class="xtick"><text text-anchor="start" x="0" y="365" style="font-family: 'Open Sans', verdana, arial, sans-serif; font-size: 14px; fill: rgb(0, 0, 0); fill-opacity: 1; white-space: pre; opacity: 1;" transform="translate(90.4,0) rotate(90,0,358)">36</text></g><g class="xtick"><text text-anchor="start" x="0" y="365" style="font-family: 'Open Sans', verdana, arial, sans-serif; font-size: 14px; fill: rgb(0, 0, 0); fill-opacity: 1; white-space: pre; opacity: 1;" transform="translate(107.2,0) rotate(90,0,358)">48</text></g><g class="xtick"><text text-anchor="start" x="0" y="365" style="font-family: 'Open Sans', verdana, arial, sans-serif; font-size: 14px; fill: rgb(0, 0, 0); fill-opacity: 1; white-space: pre; opacity: 1;" transform="translate(124,0) rotate(90,0,358)">60</text></g><g class="xtick"><text text-anchor="start" x="0" y="365" style="font-family: 'Open Sans', verdana, arial, sans-serif; font-size: 14px; fill: rgb(0, 0, 0); fill-opacity: 1; white-space: pre; opacity: 1;" transform="translate(140.8,0) rotate(90,0,358)">72</text></g><g class="xtick"><text text-anchor="start" x="0" y="365" style="font-family: 'Open Sans', verdana, arial, sans-serif; font-size: 14px; fill: rgb(0, 0, 0); fill-opacity: 1; white-space: pre; opacity: 1;" transform="translate(157.6,0) rotate(90,0,358)">84</text></g><g class="xtick"><text text-anchor="start" x="0" y="365" style="font-family: 'Open Sans', verdana, arial, sans-serif; font-size: 14px; fill: rgb(0, 0, 0); fill-opacity: 1; white-space: pre; opacity: 1;" transform="translate(174.4,0) rotate(90,0,358)">96</text></g><g class="xtick"><text text-anchor="start" x="0" y="365" style="font-family: 'Open Sans', verdana, arial, sans-serif; font-size: 14px; fill: rgb(0, 0, 0); fill-opacity: 1; white-space: pre; opacity: 1;" transform="translate(191.2,0) rotate(90,0,358)">108</text></g><g class="xtick"><text text-anchor="start" x="0" y="365" style="font-family: 'Open Sans', verdana, arial, sans-serif; font-size: 14px; fill: rgb(0, 0, 0); fill-opacity: 1; white-space: pre; opacity: 1;" transform="translate(208,0) rotate(90,0,358)">120</text></g><g class="xtick"><text text-anchor="start" x="0" y="365" style="font-family: 'Open Sans', verdana, arial, sans-serif; font-size: 14px; fill: rgb(0, 0, 0); fill-opacity: 1; white-space: pre; opacity: 1;" transform="translate(224.8,0) rotate(90,0,358)">132</text></g><g class="xtick"><text text-anchor="start" x="0" y="365" style="font-family: 'Open Sans', verdana, arial, sans-serif; font-size: 14px; fill: rgb(0, 0, 0); fill-opacity: 1; white-space: pre; opacity: 1;" transform="translate(241.6,0) rotate(90,0,358)">144</text></g><g class="xtick"><text text-anchor="start" x="0" y="365" style="font-family: 'Open Sans', verdana, arial, sans-serif; font-size: 14px; fill: rgb(0, 0, 0); fill-opacity: 1; white-space: pre; opacity: 1;" transform="translate(258.4,0) rotate(90,0,358)">156</text></g><g class="xtick"><text text-anchor="start" x="0" y="365" style="font-family: 'Open Sans', verdana, arial, sans-serif; font-size: 14px; fill: rgb(0, 0, 0); fill-opacity: 1; white-space: pre; opacity: 1;" transform="translate(275.2,0) rotate(90,0,358)">168</text></g><g class="xtick"><text text-anchor="start" x="0" y="365" style="font-family: 'Open Sans', verdana, arial, sans-serif; font-size: 14px; fill: rgb(0, 0, 0); fill-opacity: 1; white-space: pre; opacity: 1;" transform="translate(292,0) rotate(90,0,358)">180</text></g><g class="xtick"><text text-anchor="start" x="0" y="365" style="font-family: 'Open Sans', verdana, arial, sans-serif; font-size: 14px; fill: rgb(0, 0, 0); fill-opacity: 1; white-space: pre; opacity: 1;" transform="translate(308.8,0) rotate(90,0,358)">192</text></g><g class="xtick"><text text-anchor="start" x="0" y="365" style="font-family: 'Open Sans', verdana, arial, sans-serif; font-size: 14px; fill: rgb(0, 0, 0); fill-opacity: 1; white-space: pre; opacity: 1;" transform="translate(325.6,0) rotate(90,0,358)">204</text></g><g class="xtick"><text text-anchor="start" x="0" y="365" style="font-family: 'Open Sans', verdana, arial, sans-serif; font-size: 14px; fill: rgb(0, 0, 0); fill-opacity: 1; white-space: pre; opacity: 1;" transform="translate(342.4,0) rotate(90,0,358)">216</text></g><g class="xtick"><text text-anchor="start" x="0" y="365" style="font-family: 'Open Sans', verdana, arial, sans-serif; font-size: 14px; fill: rgb(0, 0, 0); fill-opacity: 1; white-space: pre; opacity: 1;" transform="translate(359.2,0) rotate(90,0,358)">228</text></g><g class="xtick"><text text-anchor="start" x="0" y="365" style="font-family: 'Open Sans', verdana, arial, sans-serif; font-size: 14px; fill: rgb(0, 0, 0); fill-opacity: 1; white-space: pre; opacity: 1;" transform="translate(376,0) rotate(90,0,358)">240</text></g></g><g class="yaxislayer-above"><g class="ytick"><text text-anchor="end" x="39" y="4.8999999999999995" transform="translate(0,350)" style="font-family: 'Open Sans', verdana, arial, sans-serif; font-size: 14px; fill: rgb(0, 0, 0); fill-opacity: 1; white-space: pre; opacity: 1;">0</text></g><g class="ytick"><text text-anchor="end" x="39" y="4.8999999999999995" style="font-family: 'Open Sans', verdana, arial, sans-serif; font-size: 14px; fill: rgb(0, 0, 0); fill-opacity: 1; white-space: pre; opacity: 1;" transform="translate(0,295)">0.2</text></g><g class="ytick"><text text-anchor="end" x="39" y="4.8999999999999995" style="font-family: 'Open Sans', verdana, arial, sans-serif; font-size: 14px; fill: rgb(0, 0, 0); fill-opacity: 1; white-space: pre; opacity: 1;" transform="translate(0,240)">0.4</text></g><g class="ytick"><text text-anchor="end" x="39" y="4.8999999999999995" style="font-family: 'Open Sans', verdana, arial, sans-serif; font-size: 14px; fill: rgb(0, 0, 0); fill-opacity: 1; white-space: pre; opacity: 1;" transform="translate(0,185)">0.6</text></g><g class="ytick"><text text-anchor="end" x="39" y="4.8999999999999995" style="font-family: 'Open Sans', verdana, arial, sans-serif; font-size: 14px; fill: rgb(0, 0, 0); fill-opacity: 1; white-space: pre; opacity: 1;" transform="translate(0,130)">0.8</text></g><g class="ytick"><text text-anchor="end" x="39" y="4.8999999999999995" style="font-family: 'Open Sans', verdana, arial, sans-serif; font-size: 14px; fill: rgb(0, 0, 0); fill-opacity: 1; white-space: pre; opacity: 1;" transform="translate(0,75)">1</text></g><g class="ytick"><text text-anchor="end" x="39" y="4.8999999999999995" style="font-family: 'Open Sans', verdana, arial, sans-serif; font-size: 14px; fill: rgb(0, 0, 0); fill-opacity: 1; white-space: pre; opacity: 1;" transform="translate(0,20)">1.2</text></g></g><g class="overaxes-above"/></g></g><g class="polarlayer"/><g class="smithlayer"/><g class="ternarylayer"/><g class="geolayer"/><g class="funnelarealayer"/><g class="pielayer"/><g class="iciclelayer"/><g class="treemaplayer"/><g class="sunburstlayer"/><g class="glimages"/><defs id="topdefs-5e22ca"><g class="clips"/><clipPath id="legend5e22ca"><rect width="117" height="53" x="0" y="0"/></clipPath></defs><g class="layer-above"><g class="imagelayer"/><g class="shapelayer"/></g><g class="infolayer"><g class="legend" pointer-events="all" transform="translate(382.72,20)"><rect class="bg" shape-rendering="crispEdges" style="stroke: rgb(68, 68, 68); stroke-opacity: 1; fill: rgb(255, 255, 255); fill-opacity: 1; stroke-width: 0px;" width="117" height="53" x="0" y="0"/><g class="scrollbox" transform="" clip-path="url(#legend5e22ca)"><g class="groups"><g class="traces" transform="translate(0,15.6)" style="opacity: 1;"><text class="legendtext" text-anchor="start" x="40" y="5.46" style="font-family: 'Open Sans', verdana, arial, sans-serif; font-size: 14px; fill: rgb(0, 0, 0); fill-opacity: 1; white-space: pre;">E_coli</text><g class="layers" style="opacity: 1;"><g class="legendfill"/><g class="legendlines"><path class="js-line" d="M5,0h30" style="fill: none; stroke: rgb(51, 204, 51); stroke-opacity: 1; stroke-width: 1.7px;"/></g><g class="legendsymbols"><g class="legendpoints"/></g></g><rect class="legendtoggle" x="0" y="-10.6" width="111.8125" height="21.2" style="fill: rgb(0, 0, 0); fill-opacity: 0;"/></g><g class="traces" transform="translate(0,36.8)" style="opacity: 1;"><text class="legendtext" text-anchor="start" x="40" y="5.46" style="font-family: 'Open Sans', verdana, arial, sans-serif; font-size: 14px; fill: rgb(0, 0, 0); fill-opacity: 1; white-space: pre;">Salmonella</text><g class="layers" style="opacity: 1;"><g class="legendfill"/><g class="legendlines"><path class="js-line" d="M5,0h30" style="fill: none; stroke: rgb(255, 28, 28); stroke-opacity: 1; stroke-width: 1.7px;"/></g><g class="legendsymbols"><g class="legendpoints"/></g></g><rect class="legendtoggle" x="0" y="-10.6" width="111.8125" height="21.2" style="fill: rgb(0, 0, 0); fill-opacity: 0;"/></g></g></g><rect class="scrollbar" rx="20" ry="3" width="0" height="0" style="fill: rgb(128, 139, 164); fill-opacity: 1;" x="0" y="0"/></g><g class="g-gtitle"/><g class="g-xtitle" transform="translate(0,4.684374999999989)"><text class="xtitle" x="208" y="391.315625" text-anchor="middle" style="opacity: 1; font-family: 'Open Sans', verdana, arial, sans-serif; font-size: 14px; fill: rgb(0, 0, 0); fill-opacity: 1; white-space: pre;">Time [1/h]</text></g><g class="g-ytitle" transform="translate(0.150390625,0)"><text class="ytitle" transform="rotate(-90,14.850000000000001,185)" x="14.850000000000001" y="185" text-anchor="middle" style="opacity: 1; font-family: 'Open Sans', verdana, arial, sans-serif; font-size: 14px; fill: rgb(0, 0, 0); fill-opacity: 1; white-space: pre;">Abundance</text></g></g></svg>