<svg class="main-svg" xmlns="http://www.w3.org/2000/svg" xmlns:xlink="http://www.w3.org/1999/xlink" width="500" height="400" style="" viewBox="0 0 500 400"><rect x="0" y="0" width="500" height="400" style="fill: rgb(255, 255, 255); fill-opacity: 1;"/><defs id="defs-8b52eb"><g class="clips"><clipPath id="clip8b52ebxyplot" class="plotclip"><rect width="336" height="330"/></clipPath><clipPath class="axesclip" id="clip8b52ebx"><rect x="40" y="0" width="336" height="400"/></clipPath><clipPath class="axesclip" id="clip8b52eby"><rect x="0" y="20" width="500" height="330"/></clipPath><clipPath class="axesclip" id="clip8b52ebxy"><rect x="40" y="20" width="336" height="330"/></clipPath></g><g class="gradients"/><g class="patterns"/></defs><g class="bglayer"/><g class="layer-below"><g class="imagelayer"/><g class="shapelayer"/></g><g class="cartesianlayer"><g class="subplot xy"><g class="layer-subplot"><g class="shapelayer"/><g class="imagelayer"/></g><g class="minor-gridlayer"><g class="x"/><g class="y"/></g><g class="gridlayer"><g class="x"><path class="xgrid crisp" transform="translate(110,0)" d="M0,20v330" style="stroke: rgb(0, 0, 0); stroke-opacity: 1; stroke-width: 0.5px;"/><path class="xgrid crisp" transform="translate(180,0)" d="M0,20v330" style="stroke: rgb(0, 0, 0); stroke-opacity: 1; stroke-width: 0.5px;"/><path class="xgrid crisp" transform="translate(250,0)" d="M0,20v330" style="stroke: rgb(0, 0, 0); stroke-opacity: 1; stroke-width: 0.5px;"/><path class="xgrid crisp" transform="translate(320,0)" d="M0,20v330" style="stroke: rgb(0, 0, 0); stroke-opacity: 1; stroke-width: 0.5px;"/></g><g class="y"><path class="ygrid crisp" transform="translate(0,285.21)" d="M40,0h336" style="stroke: rgb(0, 0, 0); stroke-opacity: 1; stroke-width: 0.5px;"/><path class="ygrid crisp" transform="translate(0,234.32)" d="M40,0h336" style="stroke: rgb(0, 0, 0); stroke-opacity: 1; stroke-width: 0.5px;"/><path class="ygrid crisp" transform="translate(0,183.43)" d="M40,0h336" style="stroke: rgb(0, 0, 0); stroke-opacity: 1; stroke-width: 0.5px;"/><path class="ygrid crisp" transform="translate(0,132.54000000000002)" d="M40,0h336" style="stroke: rgb(0, 0, 0); stroke-opacity: 1; stroke-width: 0.5px;"/><path class="ygrid crisp" transform="translate(0,81.65)" d="M40,0h336" style="stroke: rgb(0, 0, 0); stroke-opacity: 1; stroke-width: 0.5px;"/><path class="ygrid crisp" transform="translate(0,30.759999999999998)" d="M40,0h336" style="stroke: rgb(0, 0, 0); stroke-opacity: 1; stroke-width: 0.5px;"/></g></g><g class="zerolinelayer"><path class="xzl zl crisp" transform="translate(40,0)" d="M0,20v330" style="stroke: rgb(0, 0, 0); stroke-opacity: 1; stroke-width: 0.5px;"/><path class="yzl zl crisp" transform="translate(0,336.1)" d="M40,0h336" style="stroke: rgb(0, 0, 0); stroke-opacity: 1; stroke-width: 0.5px;"/></g><g class="layer-between"><g class="shapelayer"/><g class="imagelayer"/></g><path class="xlines-below"/><path class="ylines-below"/><g class="overlines-below"/><g class="xaxislayer-below"/><g class="yaxislayer-below"/><g class="overaxes-below"/><g class="overplot"><g class="xy" transform="translate(40,20)" clip-path="url(#clip8b52ebxyplot)"><g class="scatterlayer mlayer"><g class="trace scatter trace3f4a99" style="stroke-miterlimit: 2; opacity: 1;"><g class="fills"/><g class="errorbars"/><g class="lines"><path class="js-line" d="M0,265.21L0.7,243.53L0.7,243.43L1.44,213.72L1.44,213.59L2.19,175.86L2.2,175.71L2.8,141.73L2.95,149.53L2.98,151.01L5.11,203.94L5.14,204.1L5.45,204.83L5.79,203.8L5.82,203.62L6.65,193.33L6.68,192.77L7.86,165.83L7.89,165.02L11.65,83.61L11.68,83.21L13.84,64.23L13.87,64.06L16,56.71L16.03,56.64L18.25,54.04L18.28,54.02L21.11,53.35L21.14,53.35L27.16,54.1L27.19,54.11L33.6,55.28L33.6,313.49L34.99,309.81L34.99,309.79L36.27,302.13L36.27,302.1L36.4,300.92L37.11,301.12L37.14,301.13L40.5,301.26L40.53,301.25L42.2,299.95L42.23,299.91L43.65,296.38L43.68,296.26L45.03,287.56L45.06,287.27L46.64,264.18L46.67,263.55L49.01,198.88L49.04,197.89L52.77,98.1L52.8,97.58L55.02,71.88L55.05,71.66L57.15,61.77L57.18,61.68L59.34,57.8L59.37,57.77L61.99,56.21L62.02,56.21L65.94,55.69L65.97,55.69L67.2,55.65L67.2,313.5L68.59,309.82L68.59,309.8L69.87,302.12L69.87,302.1L70,300.94L70.71,301.14L70.74,301.15L74.1,301.28L74.13,301.27L75.89,299.83L75.92,299.78L77.34,295.99L77.37,295.86L78.76,286.26L78.79,285.95L80.45,259.43L80.48,258.76L83.23,178.68L83.26,177.69L86.46,96.57L86.49,96.06L89.45,66.97L89.49,66.81L91.64,59.88L91.67,59.82L94.14,57.07L94.17,57.05L97.41,56.08L97.44,56.08L100.8,55.88L100.8,313.5L102.19,309.82L102.19,309.81L103.47,302.14L103.47,302.11L103.6,300.95L104.31,301.16L104.34,301.16L107.7,301.29L107.73,301.28L109.37,300.01L109.4,299.97L110.75,296.72L110.78,296.61L111.96,289.92L111.99,289.67L113.53,269.89L113.56,269.33L115.72,214.29L115.75,213.33L120.13,95.63L120.16,95.13L122.38,71.03L122.41,70.83L124.44,61.8L124.47,61.72L126.51,58.15L126.54,58.12L128.94,56.61L128.97,56.6L133.38,56L133.41,56L134.4,55.97L134.4,313.5L135.79,309.82L135.79,309.81L137.17,301.24L137.17,301.22L137.2,300.96L137.91,301.16L137.94,301.17L141.3,301.3L141.33,301.29L143.09,299.84L143.12,299.79L144.54,296L144.57,295.87L145.96,286.26L145.99,285.95L147.65,259.42L147.68,258.74L150.3,182.66L150.33,181.67L153.6,97.67L153.63,97.16L155.85,71.92L155.88,71.7L158.04,61.83L158.07,61.75L160.26,58.03L160.29,58L162.97,56.52L163.01,56.51L167.78,56.01L167.82,56.01L168,56.01L168,313.5L169.39,309.82L169.39,309.81L170.67,302.12L170.67,302.1L170.8,300.96L171.51,301.16L171.54,301.17L174.9,301.3L174.93,301.29L176.69,299.84L176.72,299.79L178.05,296.37L178.08,296.25L179.43,287.48L179.46,287.18L181.04,263.97L181.07,263.34L183.5,195.62L183.53,194.63L187.17,98.2L187.2,97.68L189.45,71.93L189.48,71.71L191.64,61.85L191.67,61.76L193.86,58.04L193.89,58.01L196.57,56.53L196.61,56.52L201.35,56.03L201.38,56.03L201.6,56.02L201.6,313.5L202.99,309.82L202.99,309.81L204.27,302.12L204.27,302.1L204.4,300.96L205.11,301.16L205.14,301.17L208.5,301.3L208.53,301.29L210.29,299.84L210.32,299.79L211.65,296.37L211.68,296.25L213.03,287.48L213.06,287.18L214.64,263.97L214.67,263.34L217.1,195.62L217.13,194.63L220.77,98.21L220.8,97.69L223.02,72.16L223.05,71.94L225.12,62.2L225.15,62.11L227.31,58.2L227.34,58.17L229.96,56.6L229.99,56.59L234.95,56.03L234.98,56.03L235.2,56.03L235.2,313.5L236.59,309.82L236.59,309.81L237.87,302.12L237.87,302.1L238,300.96L238.71,301.16L238.74,301.17L242.1,301.3L242.13,301.29L243.89,299.84L243.92,299.79L245.25,296.37L245.28,296.25L246.63,287.48L246.66,287.18L248.24,263.97L248.27,263.34L250.7,195.62L250.73,194.63L254.37,98.21L254.4,97.69L256.62,72.16L256.65,71.94L258.72,62.2L258.75,62.11L260.91,58.2L260.94,58.17L263.56,56.6L263.59,56.59L268.52,56.04L268.55,56.04L268.8,56.03L268.8,313.5L270.19,309.82L270.19,309.81L271.47,302.12L271.47,302.1L271.6,300.96L272.31,301.16L272.34,301.17L275.7,301.3L275.73,301.29L277.49,299.84L277.52,299.79L278.85,296.37L278.88,296.25L280.23,287.48L280.26,287.18L281.84,263.97L281.87,263.34L284.3,195.62L284.33,194.63L287.97,98.21L288,97.69L290.25,71.94L290.28,71.72L292.44,61.86L292.47,61.77L294.66,58.05L294.69,58.02L297.37,56.54L297.41,56.53L302.15,56.04L302.18,56.04L302.4,56.03L302.4,313.5L303.79,309.82L303.79,309.81L305.07,302.12L305.07,302.1L305.2,300.96L305.91,301.16L305.94,301.17L309.3,301.3L309.33,301.29L311.09,299.84L311.12,299.79L312.45,296.37L312.48,296.25L313.83,287.48L313.86,287.18L315.44,263.97L315.47,263.34L317.9,195.62L317.93,194.63L321.57,98.21L321.6,97.69L323.85,71.94L323.88,71.72L326.04,61.86L326.07,61.77L328.26,58.05L328.29,58.02L330.97,56.54L331.01,56.53L335.75,56.04L335.78,56.04L336,56.03" style="vector-effect: none; fill: none; stroke: rgb(51, 204, 51); stroke-opacity: 1; stroke-width: 1.7px; opacity: 1;"/></g><g class="points"/><g class="text"/></g><g class="trace scatter trace1b7597" style="stroke-miterlimit: 2; opacity: 1;"><g class="fills"/><g class="errorbars"/><g class="lines"><path class="js-line" d="M0,265.21L4.68,184.59L4.71,183.86L10.69,51.76L10.72,51.4L12.94,33.6L12.97,33.45L15.78,25L15.81,24.95L18.22,22.39L18.25,22.37L22.04,20.74L22.07,20.73L33.6,18.25L33.6,313.12L36.09,309.58L36.09,309.57L38.16,303.77L38.19,303.65L40.41,291.72L40.44,291.49L42.69,268.57L42.72,268.16L45.25,221.45L45.28,220.72L52.62,44.2L52.65,43.85L54.87,27.16L54.9,27.02L56.99,20.78L57.03,20.73L59.28,18.23L59.31,18.21L62.48,17.17L62.51,17.17L67.2,16.88L67.2,313.11L69.67,309.59L69.67,309.58L71.73,303.83L71.76,303.71L73.98,291.83L74.01,291.61L76.29,268.37L76.32,267.95L78.73,223.98L78.76,223.26L86.25,43.52L86.28,43.17L88.44,27.03L88.47,26.89L90.59,20.53L90.63,20.48L92.88,18L92.91,17.98L95.74,16.99L95.77,16.99L100.8,16.65L100.8,313.11L103.27,309.58L103.27,309.58L103.27,309.57L105.33,303.82L105.36,303.7L107.58,291.81L107.61,291.59L109.86,268.75L109.89,268.33L112.33,223.91L112.36,223.2L119.85,43.42L119.88,43.08L122.04,26.94L122.07,26.8L124.19,20.44L124.23,20.39L126.48,17.91L126.51,17.89L129.34,16.9L129.37,16.9L134.4,16.56L134.4,313.11L136.87,309.58L136.87,309.58L136.87,309.57L138.93,303.81L138.96,303.7L141.18,291.81L141.21,291.58L143.46,268.74L143.49,268.32L145.93,223.89L145.96,223.17L153.45,43.38L153.48,43.04L155.64,26.91L155.67,26.76L157.79,20.41L157.83,20.35L160.08,17.87L160.11,17.85L163.28,16.81L163.31,16.81L168,16.52L168,313.1L170.47,309.58L170.47,309.58L170.47,309.57L172.53,303.81L172.56,303.7L174.78,291.8L174.81,291.58L177.06,268.73L177.09,268.31L179.53,223.88L179.56,223.16L187.05,43.37L187.08,43.03L189.24,26.89L189.27,26.75L191.39,20.39L191.43,20.34L193.68,17.86L193.71,17.84L196.54,16.85L196.57,16.85L201.6,16.51L201.6,313.1L204.07,309.58L204.07,309.58L204.07,309.57L206.13,303.81L206.16,303.69L208.22,292.9L208.25,292.68L210.32,273.11L210.35,272.73L212.79,231.5L212.82,230.83L216.36,133.71L216.39,132.81L219.63,56.98L219.66,56.5L221.94,31.94L221.97,31.73L224.13,22.28L224.16,22.2L226.29,18.64L226.32,18.61L228.82,17.16L228.85,17.15L232.92,16.58L232.95,16.58L235.2,16.5L235.2,313.1L237.67,309.58L237.67,309.58L237.67,309.57L239.73,303.81L239.76,303.69L241.82,292.9L241.85,292.68L244.1,270.77L244.14,270.36L246.51,228.78L246.54,228.09L250.18,127.41L250.21,126.52L253.38,54.61L253.42,54.15L255.67,31.12L255.7,30.93L257.76,22.19L257.79,22.11L260.41,18.17L260.44,18.15L263.59,16.87L263.62,16.87L268.8,16.5L268.8,313.1L271.27,309.58L271.27,309.58L271.27,309.57L273.33,303.81L273.36,303.69L275.42,292.9L275.45,292.68L277.7,270.77L277.74,270.36L280.11,228.78L280.14,228.09L283.78,127.41L283.81,126.52L286.98,54.61L287.02,54.15L289.27,31.12L289.3,30.92L291.46,21.96L291.49,21.88L293.64,18.49L293.67,18.46L296.51,17.02L296.54,17.01L301.57,16.52L301.6,16.52L302.4,16.5L302.4,313.1L304.87,309.58L304.87,309.58L304.87,309.57L306.93,303.81L306.96,303.69L309.02,292.9L309.05,292.68L311.3,270.77L311.34,270.36L313.71,228.78L313.74,228.09L317.38,127.41L317.41,126.52L320.58,54.61L320.62,54.15L322.87,31.12L322.9,30.92L325.06,21.96L325.09,21.88L327.24,18.49L327.27,18.46L330.11,17.02L330.14,17.01L335.17,16.52L335.2,16.52L336,16.5" style="vector-effect: none; fill: none; stroke: rgb(255, 28, 28); stroke-opacity: 1; stroke-width: 1.7px; opacity: 1;"/></g><g class="points"/><g class="text"/></g></g></g></g><path class="xlines-above crisp" d="M0,0" style="fill: none;"/><path class="ylines-above crisp" d="M0,0" style="fill: none;"/><g class="overlines-above"/><g class="xaxislayer-above"><g class="xtick"><text text-anchor="middle" x="0" y="365" transform="translate(40,0)" style="font-family: 'Open Sans', verdana, arial, sans-serif; font-size: 14px; fill: rgb(0, 0, 0); fill-opacity: 1; white-space: pre; opacity: 1;">0</text></g><g class="xtick"><text text-anchor="middle" x="0" y="365" style="font-family: 'Open Sans', verdana, arial, sans-serif; font-size: 14px; fill: rgb(0, 0, 0); fill-opacity: 1; white-space: pre; opacity: 1;" transform="translate(110,0)">50</text></g><g class="xtick"><text text-anchor="middle" x="0" y="365" style="font-family: 'Open Sans', verdana, arial, sans-serif; font-size: 14px; fill: rgb(0, 0, 0); fill-opacity: 1; white-space: pre; opacity: 1;" transform="translate(180,0)">100</text></g><g class="xtick"><text text-anchor="middle" x="0" y="365" style="font-family: 'Open Sans', verdana, arial, sans-serif; font-size: 14px; fill: rgb(0, 0, 0); fill-opacity: 1; white-space: pre; opacity: 1;" transform="translate(250,0)">150</text></g><g class="xtick"><text text-anchor="middle" x="0" y="365" style="font-family: 'Open Sans', verdana, arial, sans-serif; font-size: 14px; fill: rgb(0, 0, 0); fill-opacity: 1; white-space: pre; opacity: 1;" transform="translate(320,0)">200</text></g></g><g class="yaxislayer-above"><g class="ytick"><text text-anchor="end" x="39" y="4.8999999999999995" transform="translate(0,336.1)" style="font-family: 'Open Sans', verdana, arial, sans-serif; font-size: 14px; fill: rgb(0, 0, 0); fill-opacity: 1; white-space: pre; opacity: 1;">0</text></g><g class="ytick"><text text-anchor="end" x="39" y="4.8999999999999995" style="font-family: 'Open Sans', verdana, arial, sans-serif; font-size: 14px; fill: rgb(0, 0, 0); fill-opacity: 1; white-space: pre; opacity: 1;" transform="translate(0,285.21)">0.1</text></g><g class="ytick"><text text-anchor="end" x="39" y="4.8999999999999995" style="font-family: 'Open Sans', verdana, arial, sans-serif; font-size: 14px; fill: rgb(0, 0, 0); fill-opacity: 1; white-space: pre; opacity: 1;" transform="translate(0,234.32)">0.2</text></g><g class="ytick"><text text-anchor="end" x="39" y="4.8999999999999995" style="font-family: 'Open Sans', verdana, arial, sans-serif; font-size: 14px; fill: rgb(0, 0, 0); fill-opacity: 1; white-space: pre; opacity: 1;" transform="translate(0,183.43)">0.3</text></g><g class="ytick"><text text-anchor="end" x="39" y="4.8999999999999995" style="font-family: 'Open Sans', verdana, arial, sans-serif; font-size: 14px; fill: rgb(0, 0, 0); fill-opacity: 1; white-space: pre; opacity: 1;" transform="translate(0,132.54000000000002)">0.4</text></g><g class="ytick"><text text-anchor="end" x="39" y="4.8999999999999995" style="font-family: 'Open Sans', verdana, arial, sans-serif; font-size: 14px; fill: rgb(0, 0, 0); fill-opacity: 1; white-space: pre; opacity: 1;" transform="translate(0,81.65)">0.5</text></g><g class="ytick"><text text-anchor="end" x="39" y="4.8999999999999995" style="font-family: 'Open Sans', verdana, arial, sans-serif; font-size: 14px; fill: rgb(0, 0, 0); fill-opacity: 1; white-space: pre; opacity: 1;" transform="translate(0,30.759999999999998)">0.6</text></g></g><g class="overaxes-above"/></g></g><g class="polarlayer"/><g class="smithlayer"/><g class="ternarylayer"/><g class="geolayer"/><g class="funnelarealayer"/><g class="pielayer"/><g class="iciclelayer"/><g class="treemaplayer"/><g class="sunburstlayer"/><g class="glimages"/><defs id="topdefs-8b52eb"><g class="clips"/><clipPath id="legend8b52eb"><rect width="117" height="53" x="0" y="0"/></clipPath></defs><g class="layer-above"><g class="imagelayer"/><g class="shapelayer"/></g><g class="infolayer"><g class="legend" pointer-events="all" transform="translate(382.72,20)"><rect class="bg" shape-rendering="crispEdges" width="117" height="53" x="0" y="0" style="stroke: rgb(68, 68, 68); stroke-opacity: 1; fill: rgb(255, 255, 255); fill-opacity: 1; stroke-width: 0px;"/><g class="scrollbox" transform="" clip-path="url(#legend8b52eb)"><g class="groups"><g class="traces" transform="translate(0,15.6)" style="opacity: 1;"><text class="legendtext" text-anchor="start" x="40" y="5.46" style="font-family: 'Open Sans', verdana, arial, sans-serif; font-size: 14px; fill: rgb(0, 0, 0); fill-opacity: 1; white-space: pre;">E_coli</text><g class="layers" style="opacity: 1;"><g class="legendfill"/><g class="legendlines"><path class="js-line" d="M5,0h30" style="fill: none; stroke: rgb(51, 204, 51); stroke-opacity: 1; stroke-width: 1.7px;"/></g><g class="legendsymbols"><g class="legendpoints"/></g></g><rect class="legendtoggle" x="0" y="-10.6" width="111.8125" height="21.2" style="fill: rgb(0, 0, 0); fill-opacity: 0;"/></g><g class="traces" transform="translate(0,36.8)" style="opacity: 1;"><text class="legendtext" text-anchor="start" x="40" y="5.46" style="font-family: 'Open Sans', verdana, arial, sans-serif; font-size: 14px; fill: rgb(0, 0, 0); fill-opacity: 1; white-space: pre;">Salmonella</text><g class="layers" style="opacity: 1;"><g class="legendfill"/><g class="legendlines"><path class="js-line" d="M5,0h30" style="fill: none; stroke: rgb(255, 28, 28); stroke-opacity: 1; stroke-width: 1.7px;"/></g><g class="legendsymbols"><g class="legendpoints"/></g></g><rect class="legendtoggle" x="0" y="-10.6" width="111.8125" height="21.2" style="fill: rgb(0, 0, 0); fill-opacity: 0;"/></g></g></g><rect class="scrollbar" rx="20" ry="3" width="0" height="0" x="0" y="0" style="fill: rgb(128, 139, 164); fill-opacity: 1;"/></g><g class="g-gtitle"/><g class="g-xtitle" transform="translate(0,5.699999999999989)"><text class="xtitle" x="208" y="378.3" text-anchor="middle" style="opacity: 1; font-family: 'Open Sans', verdana, arial, sans-serif; font-size: 14px; fill: rgb(0, 0, 0); fill-opacity: 1; white-space: pre;">Time [h]</text></g><g class="g-ytitle" transform="translate(0.150390625,0)"><text class="ytitle" transform="rotate(-90,14.850000000000001,185)" x="14.850000000000001" y="185" text-anchor="middle" style="opacity: 1; font-family: 'Open Sans', verdana, arial, sans-serif; font-size: 14px; fill: rgb(0, 0, 0); fill-opacity: 1; white-space: pre;">Abundance [OD]</text></g></g></svg>