<svg class="main-svg" xmlns="http://www.w3.org/2000/svg" xmlns:xlink="http://www.w3.org/1999/xlink" width="150" height="150" style="" viewBox="0 0 150 150"><rect x="0" y="0" width="150" height="150" style="fill: rgb(255, 255, 255); fill-opacity: 1;"/><defs id="defs-110e3f"><g class="clips"><clipPath id="clip110e3fxyplot" class="plotclip"><rect width="116" height="118"/></clipPath><clipPath class="axesclip" id="clip110e3fx"><rect x="33" y="0" width="116" height="150"/></clipPath><clipPath class="axesclip" id="clip110e3fy"><rect x="0" y="1" width="150" height="118"/></clipPath><clipPath class="axesclip" id="clip110e3fxy"><rect x="33" y="1" width="116" height="118"/></clipPath></g><g class="gradients"/><g class="patterns"/></defs><g class="bglayer"/><g class="layer-below"><g class="imagelayer"/><g class="shapelayer"/></g><g class="cartesianlayer"><g class="subplot xy"><g class="layer-subplot"><g class="shapelayer"/><g class="imagelayer"/></g><g class="minor-gridlayer"><g class="x"/><g class="y"/></g><g class="gridlayer"><g class="x"><path class="xgrid crisp" transform="translate(91,0)" d="M0,1v118" style="stroke: rgb(128, 128, 128); stroke-opacity: 1; stroke-width: 0.2px;"/></g><g class="y"><path class="ygrid crisp" transform="translate(0,113.1)" d="M33,0h116" style="stroke: rgb(128, 128, 128); stroke-opacity: 1; stroke-width: 0.2px;"/><path class="ygrid crisp" transform="translate(0,60)" d="M33,0h116" style="stroke: rgb(128, 128, 128); stroke-opacity: 1; stroke-width: 0.2px;"/><path class="ygrid crisp" transform="translate(0,6.9)" d="M33,0h116" style="stroke: rgb(128, 128, 128); stroke-opacity: 1; stroke-width: 0.2px;"/></g></g><g class="zerolinelayer"/><g class="layer-between"><g class="shapelayer"/><g class="imagelayer"/></g><path class="xlines-below"/><path class="ylines-below"/><g class="overlines-below"/><g class="xaxislayer-below"/><g class="yaxislayer-below"/><g class="overaxes-below"/><g class="overplot"><g class="xy" transform="translate(33,1)" clip-path="url(#clip110e3fxyplot)"><g class="scatterlayer mlayer"><g class="trace scatter traceb52639" style="stroke-miterlimit: 2; opacity: 1;"><g class="fills"/><g class="errorbars"/><g class="lines"><path class="js-line" d="M0,101.48L0.83,76.18L0.83,76.15L0.97,72.07L1.17,80.06L1.18,80.42L2.68,107.48L2.69,107.55L3.94,111.57L3.95,111.58L5.59,112.07L5.6,112.07L17.3,112.1L17.31,112.1L116,112.1" style="vector-effect: none; fill: none; stroke: rgb(80, 162, 80); stroke-opacity: 1; stroke-width: 1.7px; opacity: 1;"/></g><g class="points"/><g class="text"/></g><g class="trace scatter trace6f7cba" style="stroke-miterlimit: 2; opacity: 1;"><g class="fills"/><g class="errorbars"/><g class="lines"><path class="js-line" d="M0,101.48L1.02,74.98L1.03,74.71L3.9,8.25L3.92,8.21L5.17,6.16L5.18,6.15L7.82,5.9L7.83,5.9L11.6,5.9L11.6,111.04L12.25,107.62L12.25,107.61L13.18,83.33L13.19,82.82L13.81,47.53L13.82,46.91L15.2,8.76L15.21,8.69L16.37,6.1L16.38,6.1L18.89,5.9L18.9,5.9L23.2,5.9L23.2,111.04L23.85,107.62L23.85,107.61L24.78,83.33L24.79,82.82L25.41,47.53L25.42,46.91L26.8,8.76L26.81,8.69L27.97,6.1L27.98,6.1L30.49,5.9L30.5,5.9L34.8,5.9L34.8,111.04L35.45,107.62L35.45,107.61L36.38,83.33L36.39,82.82L37.01,47.53L37.02,46.91L38.4,8.76L38.41,8.69L39.57,6.1L39.58,6.1L42.09,5.9L42.1,5.9L46.4,5.9L46.4,111.04L47.05,107.62L47.05,107.61L47.98,83.33L47.99,82.82L48.61,47.53L48.62,46.91L50,8.76L50.01,8.69L51.17,6.1L51.18,6.1L53.69,5.9L53.7,5.9L58,5.9L58,111.04L58.65,107.62L58.65,107.61L59.58,83.33L59.59,82.82L60.21,47.53L60.22,46.91L61.6,8.76L61.61,8.69L62.77,6.1L62.78,6.1L65.29,5.9L65.3,5.9L69.6,5.9L69.6,111.04L70.25,107.62L70.25,107.61L71.18,83.33L71.19,82.82L71.81,47.53L71.82,46.91L73.2,8.76L73.21,8.69L74.37,6.1L74.38,6.1L76.89,5.9L76.9,5.9L81.2,5.9L81.2,111.04L81.85,107.62L81.85,107.61L82.78,83.33L82.79,82.82L83.41,47.53L83.42,46.91L84.8,8.76L84.81,8.69L85.97,6.1L85.98,6.1L88.49,5.9L88.5,5.9L92.8,5.9L92.8,111.04L93.45,107.62L93.45,107.61L94.38,83.33L94.39,82.82L95.01,47.53L95.02,46.91L96.4,8.76L96.41,8.69L97.57,6.1L97.58,6.1L100.09,5.9L100.1,5.9L104.4,5.9L104.4,111.04L105.05,107.62L105.05,107.61L105.98,83.33L105.99,82.82L106.61,47.53L106.62,46.91L108,8.76L108.01,8.69L109.17,6.1L109.18,6.1L111.69,5.9L111.7,5.9L116,5.9" style="vector-effect: none; fill: none; stroke: rgb(222, 89, 89); stroke-opacity: 1; stroke-width: 1.7px; opacity: 1;"/></g><g class="points"/><g class="text"/></g></g></g></g><g class="zerolinelayer-above"/><path class="xlines-above crisp" d="M32.5,119.25H149.5M32.5,0.75H149.5" style="fill: none; stroke-width: 0.5px; stroke: rgb(0, 0, 0); stroke-opacity: 1;"/><path class="ylines-above crisp" d="M32.75,1V119M149.25,1V119" style="fill: none; stroke-width: 0.5px; stroke: rgb(0, 0, 0); stroke-opacity: 1;"/><g class="overlines-above"/><g class="xaxislayer-above"><path class="xtick ticks crisp" d="M0,119v-5" transform="translate(91,0)" style="stroke: rgb(0, 0, 0); stroke-opacity: 1; stroke-width: 0.5px;"/><g class="xtick"><text text-anchor="middle" x="0" y="136.3" transform="translate(33,0)" style="font-family: 'Open Sans', verdana, arial, sans-serif; font-size: 14px; fill: rgb(0, 0, 0); fill-opacity: 1; white-space: pre;">0</text></g><g class="xtick"><text text-anchor="middle" x="0" y="136.3" style="font-family: 'Open Sans', verdana, arial, sans-serif; font-size: 14px; fill: rgb(0, 0, 0); fill-opacity: 1; white-space: pre;" transform="translate(91,0)">5</text></g><g class="xtick"/></g><g class="yaxislayer-above"><path class="ytick ticks crisp" d="M33,0h5" transform="translate(0,113.1)" style="stroke: rgb(0, 0, 0); stroke-opacity: 1; stroke-width: 0.5px;"/><path class="ytick ticks crisp" d="M33,0h5" transform="translate(0,60)" style="stroke: rgb(0, 0, 0); stroke-opacity: 1; stroke-width: 0.5px;"/><path class="ytick ticks crisp" d="M33,0h5" transform="translate(0,6.9)" style="stroke: rgb(0, 0, 0); stroke-opacity: 1; stroke-width: 0.5px;"/><g class="ytick"><text text-anchor="end" x="29.7" y="4.8999999999999995" transform="translate(0,113.1)" style="font-family: 'Open Sans', verdana, arial, sans-serif; font-size: 14px; fill: rgb(0, 0, 0); fill-opacity: 1; white-space: pre;">0</text></g><g class="ytick"><text text-anchor="end" x="29.7" y="4.8999999999999995" style="font-family: 'Open Sans', verdana, arial, sans-serif; font-size: 14px; fill: rgb(0, 0, 0); fill-opacity: 1; white-space: pre;" transform="translate(0,60)">0.5</text></g><g class="ytick"/></g><g class="overaxes-above"/></g></g><g class="polarlayer"/><g class="smithlayer"/><g class="ternarylayer"/><g class="geolayer"/><g class="funnelarealayer"/><g class="pielayer"/><g class="iciclelayer"/><g class="treemaplayer"/><g class="sunburstlayer"/><g class="glimages"/><defs id="topdefs-110e3f"><g class="clips"/></defs><g class="layer-above"><g class="imagelayer"/><g class="shapelayer"/></g><g class="infolayer"><g class="g-gtitle"/><g class="g-xtitle" transform="translate(0,-3.8498046875000114)"><text class="xtitle" x="91" y="149.8498046875" text-anchor="middle" style="opacity: 1; font-family: 'Open Sans', verdana, arial, sans-serif; font-size: 14px; fill: rgb(0, 0, 0); fill-opacity: 1; white-space: pre;">Days</text></g><g class="g-ytitle" transform="translate(9.7001953125,0)"><text class="ytitle" transform="rotate(-90,5.300195312500001,60)" x="5.300195312500001" y="60" text-anchor="middle" style="opacity: 1; font-family: 'Open Sans', verdana, arial, sans-serif; font-size: 14px; fill: rgb(0, 0, 0); fill-opacity: 1; white-space: pre;">Abundance</text></g></g></svg>