<svg class="main-svg" xmlns="http://www.w3.org/2000/svg" xmlns:xlink="http://www.w3.org/1999/xlink" width="500" height="400" style="" viewBox="0 0 500 400"><rect x="0" y="0" width="500" height="400" style="fill: rgb(255, 255, 255); fill-opacity: 1;"/><defs id="defs-9535ec"><g class="clips"><clipPath id="clip9535ecxyplot" class="plotclip"><rect width="460" height="330"/></clipPath><clipPath class="axesclip" id="clip9535ecx"><rect x="40" y="0" width="460" height="400"/></clipPath><clipPath class="axesclip" id="clip9535ecy"><rect x="0" y="20" width="500" height="330"/></clipPath><clipPath class="axesclip" id="clip9535ecxy"><rect x="40" y="20" width="460" height="330"/></clipPath></g><g class="gradients"/><g class="patterns"/></defs><g class="bglayer"/><g class="layer-below"><g class="imagelayer"/><g class="shapelayer"/></g><g class="cartesianlayer"><g class="subplot xy"><g class="layer-subplot"><g class="shapelayer"/><g class="imagelayer"/></g><g class="minor-gridlayer"><g class="x"/><g class="y"/></g><g class="gridlayer"><g class="x"><path class="xgrid crisp" transform="translate(135.82999999999998,0)" d="M0,20v330" style="stroke: rgb(0, 0, 0); stroke-opacity: 1; stroke-width: 0.5px;"/><path class="xgrid crisp" transform="translate(231.67,0)" d="M0,20v330" style="stroke: rgb(0, 0, 0); stroke-opacity: 1; stroke-width: 0.5px;"/><path class="xgrid crisp" transform="translate(327.5,0)" d="M0,20v330" style="stroke: rgb(0, 0, 0); stroke-opacity: 1; stroke-width: 0.5px;"/><path class="xgrid crisp" transform="translate(423.33,0)" d="M0,20v330" style="stroke: rgb(0, 0, 0); stroke-opacity: 1; stroke-width: 0.5px;"/></g><g class="y"><path class="ygrid crisp" transform="translate(0,274.1)" d="M40,0h460" style="stroke: rgb(0, 0, 0); stroke-opacity: 1; stroke-width: 0.5px;"/><path class="ygrid crisp" transform="translate(0,214.7)" d="M40,0h460" style="stroke: rgb(0, 0, 0); stroke-opacity: 1; stroke-width: 0.5px;"/><path class="ygrid crisp" transform="translate(0,155.3)" d="M40,0h460" style="stroke: rgb(0, 0, 0); stroke-opacity: 1; stroke-width: 0.5px;"/><path class="ygrid crisp" transform="translate(0,95.9)" d="M40,0h460" style="stroke: rgb(0, 0, 0); stroke-opacity: 1; stroke-width: 0.5px;"/><path class="ygrid crisp" transform="translate(0,36.5)" d="M40,0h460" style="stroke: rgb(0, 0, 0); stroke-opacity: 1; stroke-width: 0.5px;"/></g></g><g class="zerolinelayer"><path class="xzl zl crisp" transform="translate(40,0)" d="M0,20v330" style="stroke: rgb(0, 0, 0); stroke-opacity: 1; stroke-width: 0.5px;"/><path class="yzl zl crisp" transform="translate(0,333.5)" d="M40,0h460" style="stroke: rgb(0, 0, 0); stroke-opacity: 1; stroke-width: 0.5px;"/></g><g class="layer-between"><g class="shapelayer"/><g class="imagelayer"/></g><path class="xlines-below"/><path class="ylines-below"/><g class="overlines-below"/><g class="xaxislayer-below"/><g class="yaxislayer-below"/><g class="overaxes-below"/><g class="overplot"><g class="xy" transform="translate(40,20)" clip-path="url(#clip9535ecxyplot)"><g class="scatterlayer mlayer"><g class="trace scatter traceeb4971" style="stroke-miterlimit: 2; opacity: 1;"><g class="fills"/><g class="errorbars"/><g class="lines"><path class="js-line" d="M0,313.5L3.83,313.5L3.83,313.5L3.88,16.5L6.11,227.74L6.15,230.07L8.31,295.81L8.35,296.37L9.95,308.45L10,308.61L11.64,311.92L11.68,311.96L14.09,313.04L14.13,313.05L20.17,313.36L20.21,313.36L49.83,313.5L49.83,313.5L49.88,16.5L53.34,100.14L53.38,101.37L59.96,281.93L60.01,282.59L62.07,304.48L62.12,304.74L63.89,311.21L63.93,311.28L65.87,313.07L65.91,313.09L69.88,313.48L69.92,313.48L95.83,313.5L95.83,313.5L95.88,16.5L99.34,100.46L99.38,101.69L105.92,281.54L105.96,282.22L108.54,307.09L108.58,307.28L110.31,311.91L110.35,311.96L112.34,313.22L112.38,313.22L116.77,313.49L116.81,313.49L141.83,313.5L141.83,313.5L141.88,16.5L145.42,102.99L145.46,104.23L148.42,195.99L148.46,197.29L151.75,278.82L151.79,279.53L154.41,306.49L154.45,306.7L156.48,312.12L156.52,312.17L158.67,313.29L158.72,313.29L164.12,313.49L164.16,313.49L187.83,313.5L187.83,313.5L187.88,16.5L191.42,103.01L191.46,104.25L194.42,196.03L194.46,197.32L197.71,278.12L197.75,278.84L199.86,303.27L199.91,303.55L201.72,310.92L201.76,311.01L203.7,313.01L203.75,313.03L207,313.46L207.04,313.46L220.46,313.5L220.5,313.5L233.83,313.5L233.83,313.5L233.88,16.5L237.42,103.02L237.46,104.26L240.42,196.04L240.46,197.33L243.71,278.13L243.75,278.85L245.86,303.27L245.91,303.56L247.68,310.83L247.72,310.92L249.49,312.92L249.54,312.94L252.19,313.43L252.24,313.44L279.83,313.5L279.83,313.5L279.88,16.5L283.42,103.02L283.46,104.26L286.59,201.19L286.63,202.47L289.75,278.85L289.79,279.56L292.41,306.51L292.45,306.71L294.48,312.12L294.52,312.17L296.55,313.26L296.59,313.27L302.12,313.49L302.16,313.49L325.83,313.5L325.83,313.5L325.88,16.5L329.42,103.02L329.46,104.26L332.59,201.2L332.63,202.48L335.79,279.56L335.84,280.26L337.95,303.84L337.99,304.11L339.76,311.01L339.8,311.09L341.7,313.02L341.75,313.03L344.57,313.45L344.62,313.45L358.21,313.5L358.25,313.5L371.83,313.5L371.83,313.5L371.88,16.5L375.42,103.02L375.46,104.26L378.59,201.2L378.63,202.48L381.79,279.56L381.84,280.26L383.95,303.84L383.99,304.11L385.76,311.01L385.8,311.09L387.7,313.02L387.75,313.03L390.57,313.45L390.62,313.45L404.21,313.5L404.25,313.5L417.83,313.5L417.83,313.5L417.88,16.5L421.42,103.02L421.46,104.26L424.59,201.2L424.63,202.48L427.79,279.56L427.84,280.26L429.95,303.84L429.99,304.11L431.76,311.01L431.8,311.09L433.7,313.02L433.75,313.03L436.57,313.45L436.62,313.45L450.21,313.5L450.25,313.5L460,313.5" style="vector-effect: none; fill: none; stroke: rgb(0, 0, 0); stroke-opacity: 1; stroke-width: 1.7px; opacity: 1;"/></g><g class="points"/><g class="text"/></g></g></g></g><path class="xlines-above crisp" d="M0,0" style="fill: none;"/><path class="ylines-above crisp" d="M0,0" style="fill: none;"/><g class="overlines-above"/><g class="xaxislayer-above"><g class="xtick"><text text-anchor="middle" x="0" y="365" transform="translate(40,0)" style="font-family: 'Open Sans', verdana, arial, sans-serif; font-size: 14px; fill: rgb(0, 0, 0); fill-opacity: 1; white-space: pre; opacity: 1;">0</text></g><g class="xtick"><text text-anchor="middle" x="0" y="365" style="font-family: 'Open Sans', verdana, arial, sans-serif; font-size: 14px; fill: rgb(0, 0, 0); fill-opacity: 1; white-space: pre; opacity: 1;" transform="translate(135.82999999999998,0)">50</text></g><g class="xtick"><text text-anchor="middle" x="0" y="365" style="font-family: 'Open Sans', verdana, arial, sans-serif; font-size: 14px; fill: rgb(0, 0, 0); fill-opacity: 1; white-space: pre; opacity: 1;" transform="translate(231.67,0)">100</text></g><g class="xtick"><text text-anchor="middle" x="0" y="365" style="font-family: 'Open Sans', verdana, arial, sans-serif; font-size: 14px; fill: rgb(0, 0, 0); fill-opacity: 1; white-space: pre; opacity: 1;" transform="translate(327.5,0)">150</text></g><g class="xtick"><text text-anchor="middle" x="0" y="365" style="font-family: 'Open Sans', verdana, arial, sans-serif; font-size: 14px; fill: rgb(0, 0, 0); fill-opacity: 1; white-space: pre; opacity: 1;" transform="translate(423.33,0)">200</text></g></g><g class="yaxislayer-above"><g class="ytick"><text text-anchor="end" x="39" y="4.8999999999999995" transform="translate(0,333.5)" style="font-family: 'Open Sans', verdana, arial, sans-serif; font-size: 14px; fill: rgb(0, 0, 0); fill-opacity: 1; white-space: pre; opacity: 1;">0</text></g><g class="ytick"><text text-anchor="end" x="39" y="4.8999999999999995" style="font-family: 'Open Sans', verdana, arial, sans-serif; font-size: 14px; fill: rgb(0, 0, 0); fill-opacity: 1; white-space: pre; opacity: 1;" transform="translate(0,274.1)">0.05</text></g><g class="ytick"><text text-anchor="end" x="39" y="4.8999999999999995" style="font-family: 'Open Sans', verdana, arial, sans-serif; font-size: 14px; fill: rgb(0, 0, 0); fill-opacity: 1; white-space: pre; opacity: 1;" transform="translate(0,214.7)">0.1</text></g><g class="ytick"><text text-anchor="end" x="39" y="4.8999999999999995" style="font-family: 'Open Sans', verdana, arial, sans-serif; font-size: 14px; fill: rgb(0, 0, 0); fill-opacity: 1; white-space: pre; opacity: 1;" transform="translate(0,155.3)">0.15</text></g><g class="ytick"><text text-anchor="end" x="39" y="4.8999999999999995" style="font-family: 'Open Sans', verdana, arial, sans-serif; font-size: 14px; fill: rgb(0, 0, 0); fill-opacity: 1; white-space: pre; opacity: 1;" transform="translate(0,95.9)">0.2</text></g><g class="ytick"><text text-anchor="end" x="39" y="4.8999999999999995" style="font-family: 'Open Sans', verdana, arial, sans-serif; font-size: 14px; fill: rgb(0, 0, 0); fill-opacity: 1; white-space: pre; opacity: 1;" transform="translate(0,36.5)">0.25</text></g></g><g class="overaxes-above"/></g></g><g class="polarlayer"/><g class="smithlayer"/><g class="ternarylayer"/><g class="geolayer"/><g class="funnelarealayer"/><g class="pielayer"/><g class="iciclelayer"/><g class="treemaplayer"/><g class="sunburstlayer"/><g class="glimages"/><defs id="topdefs-9535ec"><g class="clips"/></defs><g class="layer-above"><g class="imagelayer"/><g class="shapelayer"/></g><g class="infolayer"><g class="g-gtitle"/><g class="g-xtitle" transform="translate(0,5.699999999999989)"><text class="xtitle" x="270" y="378.3" text-anchor="middle" style="opacity: 1; font-family: 'Open Sans', verdana, arial, sans-serif; font-size: 14px; fill: rgb(0, 0, 0); fill-opacity: 1; white-space: pre;">Time [1/h]</text></g><g class="g-ytitle" transform="translate(8.150390625,0)"><text class="ytitle" transform="rotate(-90,6.850000000000001,185)" x="6.850000000000001" y="185" text-anchor="middle" style="opacity: 1; font-family: 'Open Sans', verdana, arial, sans-serif; font-size: 14px; fill: rgb(0, 0, 0); fill-opacity: 1; white-space: pre;">Cefotaxime concentration [µg/mL]</text></g></g></svg>