<svg class="main-svg" xmlns="http://www.w3.org/2000/svg" xmlns:xlink="http://www.w3.org/1999/xlink" width="150" height="150" style="" viewBox="0 0 150 150"><rect x="0" y="0" width="150" height="150" style="fill: rgb(255, 255, 255); fill-opacity: 1;"/><defs id="defs-af1d29"><g class="clips"><clipPath id="clipaf1d29xyplot" class="plotclip"><rect width="103" height="105"/></clipPath><clipPath class="axesclip" id="clipaf1d29x"><rect x="36" y="0" width="103" height="150"/></clipPath><clipPath class="axesclip" id="clipaf1d29y"><rect x="0" y="11" width="150" height="105"/></clipPath><clipPath class="axesclip" id="clipaf1d29xy"><rect x="36" y="11" width="103" height="105"/></clipPath></g><g class="gradients"/><g class="patterns"/></defs><g class="bglayer"/><g class="layer-below"><g class="imagelayer"/><g class="shapelayer"/></g><g class="cartesianlayer"><g class="subplot xy"><g class="layer-subplot"><g class="shapelayer"/><g class="imagelayer"/></g><g class="minor-gridlayer"><g class="x"/><g class="y"/></g><g class="gridlayer"><g class="x"><path class="xgrid crisp" transform="translate(77.2,0)" d="M0,11v105" style="stroke: rgb(128, 128, 128); stroke-opacity: 1; stroke-width: 0.2px;"/><path class="xgrid crisp" transform="translate(118.4,0)" d="M0,11v105" style="stroke: rgb(128, 128, 128); stroke-opacity: 1; stroke-width: 0.2px;"/></g><g class="y"><path class="ygrid crisp" transform="translate(0,110.99)" d="M36,0h103" style="stroke: rgb(128, 128, 128); stroke-opacity: 1; stroke-width: 0.2px;"/><path class="ygrid crisp" transform="translate(0,88.62)" d="M36,0h103" style="stroke: rgb(128, 128, 128); stroke-opacity: 1; stroke-width: 0.2px;"/><path class="ygrid crisp" transform="translate(0,66.25999999999999)" d="M36,0h103" style="stroke: rgb(128, 128, 128); stroke-opacity: 1; stroke-width: 0.2px;"/><path class="ygrid crisp" transform="translate(0,43.9)" d="M36,0h103" style="stroke: rgb(128, 128, 128); stroke-opacity: 1; stroke-width: 0.2px;"/><path class="ygrid crisp" transform="translate(0,21.53)" d="M36,0h103" style="stroke: rgb(128, 128, 128); stroke-opacity: 1; stroke-width: 0.2px;"/></g></g><g class="zerolinelayer"/><g class="layer-between"><g class="shapelayer"/><g class="imagelayer"/></g><path class="xlines-below"/><path class="ylines-below"/><g class="overlines-below"/><g class="xaxislayer-below"/><g class="yaxislayer-below"/><g class="overaxes-below"/><g class="overplot"><g class="xy" transform="translate(36,11)" clip-path="url(#clipaf1d29xyplot)"><g class="scatterlayer mlayer"><g class="trace scatter tracefb323d" style="stroke-miterlimit: 2; opacity: 1;"><g class="fills"/><g class="errorbars"/><g class="lines"><path class="js-line" d="M0,88.8L3.47,42.43L3.49,42.38L4.99,40.48L5.01,40.48L7.77,40.18L7.78,40.18L20.6,40.18L20.6,99.39L21.67,97.4L21.67,97.39L22.47,92.7L22.49,92.53L23.53,76.59L23.55,76.18L25.11,42.65L25.13,42.37L26.7,31.25L26.72,31.2L28.27,29.63L28.29,29.63L31.99,29.41L32.01,29.41L41.2,29.41L41.2,99.28L42.2,97.22L42.2,97.22L42.2,97.21L43.11,90.99L43.12,90.78L44.2,70.69L44.22,70.2L46.79,23.59L46.81,23.5L48.28,20.28L48.3,20.27L50.63,19.79L50.65,19.79L61.8,19.77L61.8,99.18L62.8,96.83L62.8,96.82L63.61,90.91L63.63,90.69L64.63,71.65L64.65,71.14L67.41,15.57L67.43,15.47L68.92,12.18L68.94,12.17L71.13,11.7L71.15,11.7L82.4,11.68L82.4,99.1L83.33,96.82L83.33,96.81L84.14,90.9L84.15,90.68L85.14,71.63L85.16,71.1L88.03,9.14L88.05,9.05L89.48,5.79L89.5,5.78L91.66,5.28L91.68,5.28L103,5.25" style="vector-effect: none; fill: none; stroke: rgb(80, 162, 80); stroke-opacity: 1; stroke-width: 1.7px; opacity: 1;"/></g><g class="points"/><g class="text"/></g><g class="trace scatter trace63524d" style="stroke-miterlimit: 2; opacity: 1;"><g class="fills"/><g class="errorbars"/><g class="lines"><path class="js-line" d="M0,88.8L3.23,50.45L3.25,50.39L4.61,48.38L4.63,48.37L7.2,47.99L7.22,47.99L20.6,47.98L20.6,99.46L21.71,97.9L21.71,97.9L21.71,97.89L22.62,93.89L22.64,93.76L23.89,80.23L23.9,79.98L26.1,60.92L26.12,60.87L27.5,59.09L27.51,59.08L30.18,58.75L30.2,58.75L41.2,58.75L41.2,99.57L42.4,98.14L42.4,98.14L42.4,98.13L43.45,93.82L43.46,93.69L44.96,79.62L44.98,79.44L46.73,69.88L46.75,69.84L48.4,68.55L48.42,68.55L53.01,68.39L53.03,68.39L61.8,68.39L61.8,99.67L63.16,98.28L63.16,98.27L64.33,93.7L64.35,93.59L67.49,77.34L67.51,77.32L69.21,76.56L69.23,76.56L75.5,76.48L75.52,76.48L82.4,76.48L82.4,99.75L83.91,98.46L83.91,98.46L83.91,98.45L84.99,95.07L85.01,94.98L87.59,84.04L87.61,84.02L89.31,83.02L89.33,83.01L95.82,82.9L95.84,82.9L103,82.9" style="vector-effect: none; fill: none; stroke: rgb(222, 89, 89); stroke-opacity: 1; stroke-width: 1.7px; opacity: 1;"/></g><g class="points"/><g class="text"/></g></g></g></g><path class="xlines-above crisp" d="M35.5,116.25H139.5M35.5,10.75H139.5" style="fill: none; stroke-width: 0.5px; stroke: rgb(0, 0, 0); stroke-opacity: 1;"/><path class="ylines-above crisp" d="M35.75,11V116M139.25,11V116" style="fill: none; stroke-width: 0.5px; stroke: rgb(0, 0, 0); stroke-opacity: 1;"/><g class="overlines-above"/><g class="xaxislayer-above"><path class="xtick ticks crisp" d="M0,116v-5" transform="translate(77.2,0)" style="stroke: rgb(0, 0, 0); stroke-opacity: 1; stroke-width: 0.5px;"/><path class="xtick ticks crisp" d="M0,116v-5" transform="translate(118.4,0)" style="stroke: rgb(0, 0, 0); stroke-opacity: 1; stroke-width: 0.5px;"/><g class="xtick"><text text-anchor="middle" x="0" y="129.7" transform="translate(36,0)" style="font-family: 'Open Sans', verdana, arial, sans-serif; font-size: 11px; fill: rgb(0, 0, 0); fill-opacity: 1; white-space: pre; opacity: 1;">0</text></g><g class="xtick"><text text-anchor="middle" x="0" y="129.7" style="font-family: 'Open Sans', verdana, arial, sans-serif; font-size: 11px; fill: rgb(0, 0, 0); fill-opacity: 1; white-space: pre; opacity: 1;" transform="translate(77.2,0)">2</text></g><g class="xtick"><text text-anchor="middle" x="0" y="129.7" style="font-family: 'Open Sans', verdana, arial, sans-serif; font-size: 11px; fill: rgb(0, 0, 0); fill-opacity: 1; white-space: pre; opacity: 1;" transform="translate(118.4,0)">4</text></g></g><g class="yaxislayer-above"><path class="ytick ticks crisp" d="M36,0h5" transform="translate(0,110.99)" style="stroke: rgb(0, 0, 0); stroke-opacity: 1; stroke-width: 0.5px;"/><path class="ytick ticks crisp" d="M36,0h5" transform="translate(0,88.62)" style="stroke: rgb(0, 0, 0); stroke-opacity: 1; stroke-width: 0.5px;"/><path class="ytick ticks crisp" d="M36,0h5" transform="translate(0,66.25999999999999)" style="stroke: rgb(0, 0, 0); stroke-opacity: 1; stroke-width: 0.5px;"/><path class="ytick ticks crisp" d="M36,0h5" transform="translate(0,43.9)" style="stroke: rgb(0, 0, 0); stroke-opacity: 1; stroke-width: 0.5px;"/><path class="ytick ticks crisp" d="M36,0h5" transform="translate(0,21.53)" style="stroke: rgb(0, 0, 0); stroke-opacity: 1; stroke-width: 0.5px;"/><g class="ytick"><text text-anchor="end" x="33.3" y="3.8499999999999996" transform="translate(0,110.99)" style="font-family: 'Open Sans', verdana, arial, sans-serif; font-size: 11px; fill: rgb(0, 0, 0); fill-opacity: 1; white-space: pre; opacity: 1;">0</text></g><g class="ytick"><text text-anchor="end" x="33.3" y="3.8499999999999996" style="font-family: 'Open Sans', verdana, arial, sans-serif; font-size: 11px; fill: rgb(0, 0, 0); fill-opacity: 1; white-space: pre; opacity: 1;" transform="translate(0,88.62)">0.2</text></g><g class="ytick"><text text-anchor="end" x="33.3" y="3.8499999999999996" style="font-family: 'Open Sans', verdana, arial, sans-serif; font-size: 11px; fill: rgb(0, 0, 0); fill-opacity: 1; white-space: pre; opacity: 1;" transform="translate(0,66.25999999999999)">0.4</text></g><g class="ytick"><text text-anchor="end" x="33.3" y="3.8499999999999996" style="font-family: 'Open Sans', verdana, arial, sans-serif; font-size: 11px; fill: rgb(0, 0, 0); fill-opacity: 1; white-space: pre; opacity: 1;" transform="translate(0,43.9)">0.6</text></g><g class="ytick"><text text-anchor="end" x="33.3" y="3.8499999999999996" style="font-family: 'Open Sans', verdana, arial, sans-serif; font-size: 11px; fill: rgb(0, 0, 0); fill-opacity: 1; white-space: pre; opacity: 1;" transform="translate(0,21.53)">0.8</text></g></g><g class="overaxes-above"/></g></g><g class="polarlayer"/><g class="smithlayer"/><g class="ternarylayer"/><g class="geolayer"/><g class="funnelarealayer"/><g class="pielayer"/><g class="iciclelayer"/><g class="treemaplayer"/><g class="sunburstlayer"/><g class="glimages"/><defs id="topdefs-af1d29"><g class="clips"/></defs><g class="layer-above"><g class="imagelayer"/><g class="shapelayer"/></g><g class="infolayer"><g class="g-gtitle"/><g class="g-xtitle" transform="translate(0,4.550000000000011)"><text class="xtitle" x="87.5" y="140.153125" text-anchor="middle" style="opacity: 1; font-family: 'Open Sans', verdana, arial, sans-serif; font-size: 11px; fill: rgb(0, 0, 0); fill-opacity: 1; white-space: pre;">Days</text></g><g class="g-ytitle"><text class="ytitle" transform="rotate(-90,14.181249999999999,63.5)" x="14.181249999999999" y="63.5" text-anchor="middle" style="opacity: 1; font-family: 'Open Sans', verdana, arial, sans-serif; font-size: 11px; fill: rgb(0, 0, 0); fill-opacity: 1; white-space: pre;">Abundance</text></g></g></svg>