<svg class="main-svg" xmlns="http://www.w3.org/2000/svg" xmlns:xlink="http://www.w3.org/1999/xlink" width="500" height="400" style="" viewBox="0 0 500 400"><rect x="0" y="0" width="500" height="400" style="fill: rgb(255, 255, 255); fill-opacity: 1;"/><defs id="defs-8952dd"><g class="clips"><clipPath id="clip8952ddxyplot" class="plotclip"><rect width="336" height="330"/></clipPath><clipPath class="axesclip" id="clip8952ddx"><rect x="40" y="0" width="336" height="400"/></clipPath><clipPath class="axesclip" id="clip8952ddy"><rect x="0" y="20" width="500" height="330"/></clipPath><clipPath class="axesclip" id="clip8952ddxy"><rect x="40" y="20" width="336" height="330"/></clipPath></g><g class="gradients"/><g class="patterns"/></defs><g class="bglayer"/><g class="layer-below"><g class="imagelayer"/><g class="shapelayer"/></g><g class="cartesianlayer"><g class="subplot xy"><g class="layer-subplot"><g class="shapelayer"/><g class="imagelayer"/></g><g class="minor-gridlayer"><g class="x"/><g class="y"/></g><g class="gridlayer"><g class="x"><path class="xgrid crisp" transform="translate(208,0)" d="M0,20v330" style="stroke: rgb(0, 0, 0); stroke-opacity: 1; stroke-width: 0.5px;"/></g><g class="y"><path class="ygrid crisp" transform="translate(0,295)" d="M40,0h336" style="stroke: rgb(0, 0, 0); stroke-opacity: 1; stroke-width: 0.5px;"/><path class="ygrid crisp" transform="translate(0,240)" d="M40,0h336" style="stroke: rgb(0, 0, 0); stroke-opacity: 1; stroke-width: 0.5px;"/><path class="ygrid crisp" transform="translate(0,185)" d="M40,0h336" style="stroke: rgb(0, 0, 0); stroke-opacity: 1; stroke-width: 0.5px;"/><path class="ygrid crisp" transform="translate(0,130)" d="M40,0h336" style="stroke: rgb(0, 0, 0); stroke-opacity: 1; stroke-width: 0.5px;"/><path class="ygrid crisp" transform="translate(0,75)" d="M40,0h336" style="stroke: rgb(0, 0, 0); stroke-opacity: 1; stroke-width: 0.5px;"/></g></g><g class="zerolinelayer"><path class="xzl zl crisp" transform="translate(40,0)" d="M0,20v330" style="stroke: rgb(0, 0, 0); stroke-opacity: 1; stroke-width: 0.5px;"/><path class="yzl zl crisp" transform="translate(0,350)" d="M40,0h336" style="stroke: rgb(0, 0, 0); stroke-opacity: 1; stroke-width: 0.5px;"/></g><g class="layer-between"><g class="shapelayer"/><g class="imagelayer"/></g><path class="xlines-below"/><path class="ylines-below"/><g class="overlines-below"/><g class="xaxislayer-below"/><g class="yaxislayer-below"/><g class="overaxes-below"/><g class="overplot"><g class="xy" transform="translate(40,20)" clip-path="url(#clip8952ddxyplot)"><g class="scatterlayer mlayer"><g class="trace scatter trace19cad9" style="stroke-miterlimit: 2; opacity: 1;"><g class="fills"/><g class="errorbars"/><g class="lines"><path class="js-line" d="M0,302.5L6.42,291.85L6.45,291.8L14.88,273.36L14.91,273.29L20.54,258.25L20.57,258.17L27.08,238.68L27.1,238.59L41.57,192.82L41.87,191.88L52.05,163.96L52.36,163.21L59.14,148.46L59.45,147.86L66.54,135.92L66.85,135.47L73.94,126.68L74.25,126.35L81.34,120.09L81.65,119.86L89.05,115.35L89.35,115.2L97.06,112.05L97.37,111.95L107.85,109.34L108.16,109.29L120.49,107.65L120.8,107.63L139.61,106.56L139.92,106.55L176.91,106.06L177.22,106.06L336,105.99" style="vector-effect: none; fill: none; stroke: rgb(51, 204, 51); stroke-opacity: 1; stroke-width: 1.7px; opacity: 1;"/></g><g class="points"/><g class="text"/></g><g class="trace scatter trace6feffe" style="stroke-miterlimit: 2; opacity: 1;"><g class="fills"/><g class="errorbars"/><g class="lines"><path class="js-line" d="M0,302.5L11.94,293.06L11.97,293.03L40.64,269.21L40.95,269L51.74,262.58L52.05,262.43L62.53,258.15L62.84,258.05L73.94,255.22L74.25,255.17L87.2,253.34L87.5,253.31L107.54,252.11L107.85,252.1L147.01,251.58L147.32,251.58L336,251.51" style="vector-effect: none; fill: none; stroke: rgb(255, 28, 28); stroke-opacity: 1; stroke-width: 1.7px; opacity: 1;"/></g><g class="points"/><g class="text"/></g></g></g></g><path class="xlines-above crisp" d="M0,0" style="fill: none;"/><path class="ylines-above crisp" d="M0,0" style="fill: none;"/><g class="overlines-above"/><g class="xaxislayer-above"><g class="xtick"><text text-anchor="middle" x="0" y="365" transform="translate(40,0)" style="font-family: 'Open Sans', verdana, arial, sans-serif; font-size: 14px; fill: rgb(0, 0, 0); fill-opacity: 1; white-space: pre; opacity: 1;">0</text></g><g class="xtick"><text text-anchor="middle" x="0" y="365" style="font-family: 'Open Sans', verdana, arial, sans-serif; font-size: 14px; fill: rgb(0, 0, 0); fill-opacity: 1; white-space: pre; opacity: 1;" transform="translate(208,0)">12</text></g><g class="xtick"><text text-anchor="middle" x="0" y="365" style="font-family: 'Open Sans', verdana, arial, sans-serif; font-size: 14px; fill: rgb(0, 0, 0); fill-opacity: 1; white-space: pre; opacity: 1;" transform="translate(376,0)">24</text></g></g><g class="yaxislayer-above"><g class="ytick"><text text-anchor="end" x="39" y="4.8999999999999995" transform="translate(0,350)" style="font-family: 'Open Sans', verdana, arial, sans-serif; font-size: 14px; fill: rgb(0, 0, 0); fill-opacity: 1; white-space: pre; opacity: 1;">0</text></g><g class="ytick"><text text-anchor="end" x="39" y="4.8999999999999995" style="font-family: 'Open Sans', verdana, arial, sans-serif; font-size: 14px; fill: rgb(0, 0, 0); fill-opacity: 1; white-space: pre; opacity: 1;" transform="translate(0,295)">0.2</text></g><g class="ytick"><text text-anchor="end" x="39" y="4.8999999999999995" style="font-family: 'Open Sans', verdana, arial, sans-serif; font-size: 14px; fill: rgb(0, 0, 0); fill-opacity: 1; white-space: pre; opacity: 1;" transform="translate(0,240)">0.4</text></g><g class="ytick"><text text-anchor="end" x="39" y="4.8999999999999995" style="font-family: 'Open Sans', verdana, arial, sans-serif; font-size: 14px; fill: rgb(0, 0, 0); fill-opacity: 1; white-space: pre; opacity: 1;" transform="translate(0,185)">0.6</text></g><g class="ytick"><text text-anchor="end" x="39" y="4.8999999999999995" style="font-family: 'Open Sans', verdana, arial, sans-serif; font-size: 14px; fill: rgb(0, 0, 0); fill-opacity: 1; white-space: pre; opacity: 1;" transform="translate(0,130)">0.8</text></g><g class="ytick"><text text-anchor="end" x="39" y="4.8999999999999995" style="font-family: 'Open Sans', verdana, arial, sans-serif; font-size: 14px; fill: rgb(0, 0, 0); fill-opacity: 1; white-space: pre; opacity: 1;" transform="translate(0,75)">1</text></g><g class="ytick"><text text-anchor="end" x="39" y="4.8999999999999995" style="font-family: 'Open Sans', verdana, arial, sans-serif; font-size: 14px; fill: rgb(0, 0, 0); fill-opacity: 1; white-space: pre; opacity: 1;" transform="translate(0,20)">1.2</text></g></g><g class="overaxes-above"/></g></g><g class="polarlayer"/><g class="smithlayer"/><g class="ternarylayer"/><g class="geolayer"/><g class="funnelarealayer"/><g class="pielayer"/><g class="iciclelayer"/><g class="treemaplayer"/><g class="sunburstlayer"/><g class="glimages"/><defs id="topdefs-8952dd"><g class="clips"/><clipPath id="legend8952dd"><rect width="117" height="53" x="0" y="0"/></clipPath></defs><g class="layer-above"><g class="imagelayer"/><g class="shapelayer"/></g><g class="infolayer"><g class="legend" pointer-events="all" transform="translate(382.72,20)"><rect class="bg" shape-rendering="crispEdges" width="117" height="53" x="0" y="0" style="stroke: rgb(68, 68, 68); stroke-opacity: 1; fill: rgb(255, 255, 255); fill-opacity: 1; stroke-width: 0px;"/><g class="scrollbox" transform="" clip-path="url(#legend8952dd)"><g class="groups"><g class="traces" transform="translate(0,15.6)" style="opacity: 1;"><text class="legendtext" text-anchor="start" x="40" y="5.46" style="font-family: 'Open Sans', verdana, arial, sans-serif; font-size: 14px; fill: rgb(0, 0, 0); fill-opacity: 1; white-space: pre;">E_coli</text><g class="layers" style="opacity: 1;"><g class="legendfill"/><g class="legendlines"><path class="js-line" d="M5,0h30" style="fill: none; stroke: rgb(51, 204, 51); stroke-opacity: 1; stroke-width: 1.7px;"/></g><g class="legendsymbols"><g class="legendpoints"/></g></g><rect class="legendtoggle" x="0" y="-10.6" width="111.8125" height="21.2" style="fill: rgb(0, 0, 0); fill-opacity: 0;"/></g><g class="traces" transform="translate(0,36.8)" style="opacity: 1;"><text class="legendtext" text-anchor="start" x="40" y="5.46" style="font-family: 'Open Sans', verdana, arial, sans-serif; font-size: 14px; fill: rgb(0, 0, 0); fill-opacity: 1; white-space: pre;">Salmonella</text><g class="layers" style="opacity: 1;"><g class="legendfill"/><g class="legendlines"><path class="js-line" d="M5,0h30" style="fill: none; stroke: rgb(255, 28, 28); stroke-opacity: 1; stroke-width: 1.7px;"/></g><g class="legendsymbols"><g class="legendpoints"/></g></g><rect class="legendtoggle" x="0" y="-10.6" width="111.8125" height="21.2" style="fill: rgb(0, 0, 0); fill-opacity: 0;"/></g></g></g><rect class="scrollbar" rx="20" ry="3" width="0" height="0" x="0" y="0" style="fill: rgb(128, 139, 164); fill-opacity: 1;"/></g><g class="g-gtitle"/><g class="g-xtitle" transform="translate(0,5.699999999999989)"><text class="xtitle" x="208" y="378.3" text-anchor="middle" style="opacity: 1; font-family: 'Open Sans', verdana, arial, sans-serif; font-size: 14px; fill: rgb(0, 0, 0); fill-opacity: 1; white-space: pre;">Time [1/h]</text></g><g class="g-ytitle" transform="translate(0.150390625,0)"><text class="ytitle" transform="rotate(-90,14.850000000000001,185)" x="14.850000000000001" y="185" text-anchor="middle" style="opacity: 1; font-family: 'Open Sans', verdana, arial, sans-serif; font-size: 14px; fill: rgb(0, 0, 0); fill-opacity: 1; white-space: pre;">Abundance</text></g></g></svg>