<svg class="main-svg" xmlns="http://www.w3.org/2000/svg" xmlns:xlink="http://www.w3.org/1999/xlink" width="180" height="180" style="" viewBox="0 0 180 180"><rect x="0" y="0" width="180" height="180" style="fill: rgb(255, 255, 255); fill-opacity: 1;"/><defs id="defs-2f667a"><g class="clips"><clipPath id="clip2f667axyplot" class="plotclip"><rect width="104" height="114"/></clipPath><clipPath class="axesclip" id="clip2f667ax"><rect x="46" y="0" width="104" height="180"/></clipPath><clipPath class="axesclip" id="clip2f667ay"><rect x="0" y="30" width="180" height="114"/></clipPath><clipPath class="axesclip" id="clip2f667axy"><rect x="46" y="30" width="104" height="114"/></clipPath></g><g class="gradients"/><g class="patterns"/></defs><g class="bglayer"/><g class="layer-below"><g class="imagelayer"/><g class="shapelayer"/></g><g class="cartesianlayer"><g class="subplot xy"><g class="layer-subplot"><g class="shapelayer"/><g class="imagelayer"/></g><g class="minor-gridlayer"><g class="x"/><g class="y"/></g><g class="gridlayer"><g class="x"><path class="xgrid crisp" transform="translate(72,0)" d="M0,30v114" style="stroke: rgb(128, 128, 128); stroke-opacity: 1; stroke-width: 0.2px;"/><path class="xgrid crisp" transform="translate(98,0)" d="M0,30v114" style="stroke: rgb(128, 128, 128); stroke-opacity: 1; stroke-width: 0.2px;"/><path class="xgrid crisp" transform="translate(124,0)" d="M0,30v114" style="stroke: rgb(128, 128, 128); stroke-opacity: 1; stroke-width: 0.2px;"/></g><g class="y"><path class="ygrid crisp" transform="translate(0,115.5)" d="M46,0h104" style="stroke: rgb(128, 128, 128); stroke-opacity: 1; stroke-width: 0.2px;"/><path class="ygrid crisp" transform="translate(0,87)" d="M46,0h104" style="stroke: rgb(128, 128, 128); stroke-opacity: 1; stroke-width: 0.2px;"/><path class="ygrid crisp" transform="translate(0,58.5)" d="M46,0h104" style="stroke: rgb(128, 128, 128); stroke-opacity: 1; stroke-width: 0.2px;"/></g></g><g class="zerolinelayer"/><g class="layer-between"><g class="shapelayer"/><g class="imagelayer"/></g><path class="xlines-below"/><path class="ylines-below"/><g class="overlines-below"/><g class="xaxislayer-below"/><g class="yaxislayer-below"/><g class="overaxes-below"/><g class="overplot"><g class="xy" transform="translate(46,30)" clip-path="url(#clip2f667axyplot)"><g class="scatterlayer mlayer"><g class="trace scatter traceb5398d" style="stroke-miterlimit: 2; opacity: 1;"><g class="fills"/><g class="errorbars"/><g class="lines"><path class="js-line" d="M0,45.6L5.29,8.79L5.32,8.74L6.79,7.33L6.82,7.32L11.97,7.16L12,7.16L26,7.16L26,29.96L29.48,8.07L29.5,8.02L30.98,6.69L31.01,6.69L34.7,6.54L34.73,6.54L52,6.54L52,29.34L55.43,7.76L55.45,7.71L57.01,6.37L57.03,6.36L62.02,6.24L62.04,6.24L78,6.24L78,29.04L81.41,7.61L81.43,7.56L82.86,6.25L82.89,6.24L87.71,6.09L87.73,6.09L104,6.09" style="vector-effect: none; fill: none; stroke: rgb(152, 202, 170); stroke-opacity: 1; stroke-width: 1.7px; opacity: 1;"/></g><g class="points"/><g class="text"/></g><g class="trace scatter trace5c0b09" style="stroke-miterlimit: 2; opacity: 1;"><g class="fills"/><g class="errorbars"/><g class="lines"><path class="js-line" d="M0,45.6L4.58,16.89L4.6,16.8L6.22,13.91L6.25,13.9L8.56,13.58L8.58,13.58L19.99,13.57L20.01,13.57L26,13.57L26,36.37L29.05,19.12L29.07,19.05L30.58,17.09L30.6,17.09L33.51,16.85L33.53,16.85L52,16.85L52,39.65L55,22.66L55.03,22.59L56.55,20.62L56.58,20.62L59.3,20.4L59.32,20.4L78,20.4L78,43.2L81,26.27L81.03,26.2L82.5,24.31L82.53,24.3L85.89,24.08L85.92,24.08L104,24.08" style="vector-effect: none; fill: none; stroke: rgb(49, 97, 66); stroke-opacity: 1; stroke-width: 1.7px; opacity: 1;"/></g><g class="points"/><g class="text"/></g></g></g></g><g class="zerolinelayer-above"/><path class="xlines-above crisp" d="M45.5,144.25H150.5M45.5,29.75H150.5" style="fill: none; stroke-width: 0.5px; stroke: rgb(0, 0, 0); stroke-opacity: 1;"/><path class="ylines-above crisp" d="M45.75,30V144M150.25,30V144" style="fill: none; stroke-width: 0.5px; stroke: rgb(0, 0, 0); stroke-opacity: 1;"/><g class="overlines-above"/><g class="xaxislayer-above"><path class="xtick ticks crisp" d="M0,144v-5" transform="translate(72,0)" style="stroke: rgb(0, 0, 0); stroke-opacity: 1; stroke-width: 0.5px;"/><path class="xtick ticks crisp" d="M0,144v-5" transform="translate(98,0)" style="stroke: rgb(0, 0, 0); stroke-opacity: 1; stroke-width: 0.5px;"/><path class="xtick ticks crisp" d="M0,144v-5" transform="translate(124,0)" style="stroke: rgb(0, 0, 0); stroke-opacity: 1; stroke-width: 0.5px;"/><g class="xtick"><text text-anchor="middle" x="0" y="157.7" transform="translate(46,0)" style="font-family: 'Open Sans', verdana, arial, sans-serif; font-size: 11px; fill: rgb(0, 0, 0); fill-opacity: 1; white-space: pre;">0</text></g><g class="xtick"><text text-anchor="middle" x="0" y="157.7" style="font-family: 'Open Sans', verdana, arial, sans-serif; font-size: 11px; fill: rgb(0, 0, 0); fill-opacity: 1; white-space: pre;" transform="translate(72,0)">1</text></g><g class="xtick"><text text-anchor="middle" x="0" y="157.7" style="font-family: 'Open Sans', verdana, arial, sans-serif; font-size: 11px; fill: rgb(0, 0, 0); fill-opacity: 1; white-space: pre;" transform="translate(98,0)">2</text></g><g class="xtick"><text text-anchor="middle" x="0" y="157.7" style="font-family: 'Open Sans', verdana, arial, sans-serif; font-size: 11px; fill: rgb(0, 0, 0); fill-opacity: 1; white-space: pre;" transform="translate(124,0)">3</text></g><g class="xtick"><text text-anchor="middle" x="0" y="157.7" style="font-family: 'Open Sans', verdana, arial, sans-serif; font-size: 11px; fill: rgb(0, 0, 0); fill-opacity: 1; white-space: pre;" transform="translate(150,0)">4</text></g></g><g class="yaxislayer-above"><path class="ytick ticks crisp" d="M46,0h5" transform="translate(0,115.5)" style="stroke: rgb(0, 0, 0); stroke-opacity: 1; stroke-width: 0.5px;"/><path class="ytick ticks crisp" d="M46,0h5" transform="translate(0,87)" style="stroke: rgb(0, 0, 0); stroke-opacity: 1; stroke-width: 0.5px;"/><path class="ytick ticks crisp" d="M46,0h5" transform="translate(0,58.5)" style="stroke: rgb(0, 0, 0); stroke-opacity: 1; stroke-width: 0.5px;"/><g class="ytick"><text text-anchor="end" x="43.3" y="3.8499999999999996" transform="translate(0,144)" style="font-family: 'Open Sans', verdana, arial, sans-serif; font-size: 11px; fill: rgb(0, 0, 0); fill-opacity: 1; white-space: pre;">10⁰</text></g><g class="ytick"><text text-anchor="end" x="43.3" y="3.8499999999999996" style="font-family: 'Open Sans', verdana, arial, sans-serif; font-size: 11px; fill: rgb(0, 0, 0); fill-opacity: 1; white-space: pre;" transform="translate(0,115.5)">10²·⁵</text></g><g class="ytick"><text text-anchor="end" x="43.3" y="3.8499999999999996" style="font-family: 'Open Sans', verdana, arial, sans-serif; font-size: 11px; fill: rgb(0, 0, 0); fill-opacity: 1; white-space: pre;" transform="translate(0,87)">10⁵</text></g><g class="ytick"><text text-anchor="end" x="43.3" y="3.8499999999999996" style="font-family: 'Open Sans', verdana, arial, sans-serif; font-size: 11px; fill: rgb(0, 0, 0); fill-opacity: 1; white-space: pre;" transform="translate(0,58.5)">10⁷·⁵</text></g><g class="ytick"><text text-anchor="end" x="43.3" y="3.8499999999999996" style="font-family: 'Open Sans', verdana, arial, sans-serif; font-size: 11px; fill: rgb(0, 0, 0); fill-opacity: 1; white-space: pre;" transform="translate(0,30)">10¹⁰</text></g></g><g class="overaxes-above"/></g></g><g class="polarlayer"/><g class="smithlayer"/><g class="ternarylayer"/><g class="geolayer"/><g class="funnelarealayer"/><g class="pielayer"/><g class="iciclelayer"/><g class="treemaplayer"/><g class="sunburstlayer"/><g class="glimages"/><defs id="topdefs-2f667a"><g class="clips"/></defs><g class="layer-above"><g class="imagelayer"/><g class="shapelayer"/></g><g class="infolayer"><g class="g-gtitle"/><g class="g-xtitle" transform="translate(0,4.550000000000011)"><text class="xtitle" x="98" y="168.1501953125" text-anchor="middle" style="opacity: 1; font-family: 'Open Sans', verdana, arial, sans-serif; font-size: 11px; fill: rgb(0, 0, 0); fill-opacity: 1; white-space: pre;">Time (days)</text></g><g class="g-ytitle"><text class="ytitle" transform="rotate(-90,16.5435546875,87)" x="16.5435546875" y="87" text-anchor="middle" style="opacity: 1; font-family: 'Open Sans', verdana, arial, sans-serif; font-size: 11px; fill: rgb(0, 0, 0); fill-opacity: 1; white-space: pre;">CFUs/mL</text></g></g></svg>