<svg class="main-svg" xmlns="http://www.w3.org/2000/svg" xmlns:xlink="http://www.w3.org/1999/xlink" width="180" height="180" style="" viewBox="0 0 180 180"><rect x="0" y="0" width="180" height="180" style="fill: rgb(255, 255, 255); fill-opacity: 1;"/><defs id="defs-076877"><g class="clips"><clipPath id="clip076877xyplot" class="plotclip"><rect width="133" height="135"/></clipPath><clipPath class="axesclip" id="clip076877x"><rect x="36" y="0" width="133" height="180"/></clipPath><clipPath class="axesclip" id="clip076877y"><rect x="0" y="11" width="180" height="135"/></clipPath><clipPath class="axesclip" id="clip076877xy"><rect x="36" y="11" width="133" height="135"/></clipPath><clipPath class="contourclip" id="clip89e1d4"><path d="M133,122.86Q131.66,122.86 131.66,122.86C131.66,122.86 130.31,122.86 130.31,122.86C130.31,122.86 128.97,122.86 128.97,122.86C128.97,122.86 127.63,122.86 127.63,122.86C127.63,122.86 126.28,122.86 126.28,122.86C126.28,122.86 124.94,122.86 124.94,122.86C124.94,122.86 123.6,122.86 123.6,122.86C123.6,122.86 122.25,122.86 122.25,122.86C122.25,122.86 120.91,122.86 120.91,122.86C120.91,122.86 119.57,122.86 119.57,122.86C119.57,122.86 118.22,122.86 118.22,122.86C118.22,122.86 116.88,122.86 116.88,122.86C116.88,122.86 115.54,122.86 115.54,122.86C115.54,122.86 114.19,122.86 114.19,122.86C114.19,122.86 112.85,122.86 112.85,122.86C112.85,122.86 111.51,122.86 111.51,122.86C111.51,122.86 110.16,122.86 110.16,122.86C110.16,122.86 108.82,122.86 108.82,122.86C108.82,122.86 107.47,122.86 107.47,122.86C107.47,122.86 106.13,122.86 106.13,122.86C106.13,122.86 104.79,122.86 104.79,122.86C104.79,122.86 103.44,122.86 103.44,122.86C103.44,122.86 102.1,122.86 102.1,122.86C102.1,122.86 100.76,122.86 100.76,122.86C100.76,122.86 99.41,122.86 99.41,122.86C99.41,122.86 98.07,122.86 98.07,122.86C98.07,122.86 96.73,122.86 96.73,122.86C96.73,122.86 95.38,122.86 95.38,122.86C95.38,122.86 94.04,122.86 94.04,122.86C94.04,122.86 92.7,122.86 92.7,122.86C92.7,122.86 91.35,122.86 91.35,122.86C91.35,122.86 90.01,122.86 90.01,122.86C90.01,122.86 88.67,122.86 88.67,122.86C88.67,122.86 87.32,122.86 87.32,122.86C87.32,122.86 85.98,122.86 85.98,122.86C85.98,122.86 84.64,122.86 84.64,122.86C84.64,122.86 83.29,122.86 83.29,122.86C83.29,122.86 81.95,122.86 81.95,122.86C81.95,122.86 80.61,122.86 80.61,122.86C80.61,122.86 79.26,122.86 79.26,122.86C79.26,122.86 77.92,122.86 77.92,122.86C77.92,122.86 76.58,122.86 76.58,122.86C76.58,122.86 75.23,122.86 75.23,122.86C75.23,122.86 73.89,122.86 73.89,122.86C73.89,122.86 72.55,122.86 72.55,122.86C72.55,122.86 71.2,122.86 71.2,122.86C71.2,122.86 69.86,122.86 69.86,122.86C69.86,122.86 68.52,122.86 68.52,122.86C68.52,122.86 67.17,122.86 67.17,122.86C67.17,122.86 65.83,122.86 65.83,122.86C65.83,122.86 64.48,122.86 64.48,122.86C64.48,122.86 63.14,122.86 63.14,122.86C63.14,122.86 61.8,122.86 61.8,122.86C61.8,122.86 60.45,122.86 60.45,122.86C60.45,122.86 59.11,122.86 59.11,122.86C59.11,122.86 57.77,122.86 57.77,122.86C57.77,122.86 56.42,122.86 56.42,122.86C56.42,122.86 55.08,122.86 55.08,122.86C55.08,122.86 53.74,122.86 53.74,122.86C53.74,122.86 52.39,122.86 52.39,122.86C52.39,122.86 51.05,122.86 51.05,122.86C51.05,122.86 49.71,122.86 49.71,122.86C49.71,122.86 48.36,122.86 48.36,122.86C48.36,122.86 47.02,122.86 47.02,122.86C47.02,122.86 45.68,122.86 45.68,122.86C45.68,122.86 44.33,122.86 44.33,122.86C44.33,122.86 42.99,122.86 42.99,122.86C42.99,122.86 41.65,122.86 41.65,122.86C41.65,122.86 40.3,122.86 40.3,122.86C40.3,122.86 38.96,122.86 38.96,122.86C38.96,122.86 37.62,122.86 37.62,122.86C37.62,122.86 36.27,122.86 36.27,122.86C36.27,122.86 34.93,122.86 34.93,122.86C34.93,122.86 33.59,122.86 33.59,122.86C33.59,122.86 32.24,122.86 32.24,122.86C32.24,122.86 30.9,122.86 30.9,122.86C30.9,122.86 29.56,122.86 29.56,122.86C29.56,122.86 28.21,122.86 28.21,122.86C28.21,122.86 26.87,122.86 26.87,122.86C26.87,122.86 25.53,122.86 25.53,122.86C25.53,122.86 24.18,122.86 24.18,122.86C24.18,122.86 22.84,122.86 22.84,122.86C22.84,122.86 21.49,122.86 21.49,122.86C21.49,122.86 20.15,122.86 20.15,122.86C20.15,122.86 18.81,122.86 18.81,122.86C18.81,122.86 17.46,122.86 17.46,122.86C17.46,122.86 16.12,122.86 16.12,122.86C16.12,122.86 14.78,122.86 14.78,122.86C14.78,122.86 13.43,122.86 13.43,122.86C13.43,122.86 12.09,122.86 12.09,122.86C12.09,122.86 10.75,122.86 10.75,122.86C10.75,122.86 9.4,122.86 9.4,122.86C9.4,122.86 8.06,122.86 8.06,122.86C8.06,122.86 6.72,122.86 6.72,122.86C6.72,122.86 5.37,122.86 5.37,122.86C5.37,122.86 4.03,122.86 4.03,122.86C4.03,122.86 2.69,122.86 2.69,122.86C2.69,122.86 1.34,122.86 1.34,122.86Q1.34,122.86 0,122.86L0,0L133,0Z"/></clipPath></g><g class="gradients"/><g class="patterns"/></defs><g class="bglayer"/><g class="layer-below"><g class="imagelayer"/><g class="shapelayer"/></g><g class="cartesianlayer"><g class="subplot xy"><g class="layer-subplot"><g class="shapelayer"/><g class="imagelayer"/></g><g class="minor-gridlayer"><g class="x"/><g class="y"/></g><g class="gridlayer"><g class="x"/><g class="y"/></g><g class="zerolinelayer"/><g class="layer-between"><g class="shapelayer"/><g class="imagelayer"/></g><path class="xlines-below"/><path class="ylines-below"/><g class="overlines-below"/><g class="xaxislayer-below"/><g class="yaxislayer-below"/><g class="overaxes-below"/><g class="overplot"><g class="xy" transform="translate(36,11)" clip-path="url(#clip076877xyplot)"><g class="contourlayer mlayer"><g class="contour" clip-path="url(#clip89e1d4)" style="opacity: 1;"><g class="heatmapcoloring"/><g class="contourbg"><path d="M0,0L133,0L133,135L0,135Z" style="stroke: none; fill: rgb(49, 97, 66);"/></g><g class="contourfill"><path d="M0,0L133,0L133,135L0,135Z" style="stroke: none; fill: rgb(54, 103, 71);"/><path d="M0,0L133,0L133,135L0,135Z" style="stroke: none; fill: rgb(60, 108, 77);"/><path d="M0,0L133,0L133,135L0,135Z" style="stroke: none; fill: rgb(65, 114, 82);"/><path d="M0,0L133,0L133,135L0,135Z" style="stroke: none; fill: rgb(71, 119, 88);"/><path d="M0,0L133,0L133,135L0,135Z" style="stroke: none; fill: rgb(76, 125, 93);"/><path d="M0,0L133,0L133,135L0,135Z" style="stroke: none; fill: rgb(82, 130, 99);"/><path d="M0,0L133,0L133,135L0,135Z" style="stroke: none; fill: rgb(87, 136, 104);"/><path d="M0,0L133,0L133,135L0,135Z" style="stroke: none; fill: rgb(92, 141, 110);"/><path d="M0,0L133,0L133,135L0,135Z" style="stroke: none; fill: rgb(98, 147, 115);"/><path d="M0,0L133,0L133,135L0,135Z" style="stroke: none; fill: rgb(103, 152, 121);"/><path d="M0,0L133,0L133,135L0,135Z" style="stroke: none; fill: rgb(109, 158, 126);"/><path d="M0,0L133,0L133,135L0,135Z" style="stroke: none; fill: rgb(114, 163, 132);"/><path d="M0,0L133,0L133,135L0,135Z" style="stroke: none; fill: rgb(119, 169, 137);"/><path d="M0,0L133,0L133,135L0,135Z" style="stroke: none; fill: rgb(125, 174, 143);"/><path d="M133,112.39Q132.04,112.72 131.66,112.87C131.37,112.98 130.95,113.01 130.91,113.18C130.86,113.38 131.48,113.8 131.66,114.06C131.78,114.24 131.77,114.45 131.93,114.55Q132.15,114.69 133,114.63L133,135L0,135L0,0L133,0Z" style="stroke: none; fill: rgb(130, 180, 148);"/><path d="M133,110.44Q132.11,110.69 131.66,110.82C131.21,110.95 130.76,111.1 130.31,111.24C129.86,111.38 129.29,111.57 128.97,111.68C128.8,111.74 128.73,111.75 128.57,111.82C128.32,111.93 127.96,112.12 127.63,112.32C127.22,112.56 126.3,112.93 126.32,113.18C126.34,113.42 127.21,113.55 127.63,113.78C128.06,114.01 128.42,114.4 128.87,114.56C129.32,114.72 129.84,114.67 130.31,114.72C130.77,114.77 131.21,114.8 131.66,114.84Q132.11,114.88 133,114.94L133,135L0,135L0,0L133,0Z" style="stroke: none; fill: rgb(136, 185, 154);"/><path d="M133,108.78Q132.18,108.99 131.75,109.11500000000001C131.29,109.25 130.78,109.4 130.31,109.54C129.85,109.68 129.42,109.81 128.97,109.96C128.5,110.11 128.01,110.26 127.55,110.42500000000001C127.11,110.58 126.71,110.74 126.28,110.92C125.84,111.1 125.31,111.33 124.94,111.5C124.68,111.62 124.49,111.67 124.28,111.82C124.04,111.99 123.81,112.24 123.6,112.47C123.39,112.7 122.96,113.02 123,113.18C123.03,113.31 123.36,113.31 123.6,113.4C123.96,113.54 124.5,113.75 124.94,113.94C125.38,114.13 125.78,114.42 126.225,114.56C126.67,114.7 127.17,114.72 127.63,114.78C128.08,114.84 128.52,114.89 128.97,114.94C129.42,114.99 129.86,115.02 130.31,115.06C130.76,115.1 131.21,115.13 131.66,115.16Q132.11,115.19 133,115.25L133,135L0,135L0,0L133,0Z" style="stroke: none; fill: rgb(141, 191, 159);"/><path d="M133,107.21Q132,107.48 131.66,107.58C131.45,107.64 131.34,107.68 131.15,107.73C130.91,107.8 130.62,107.87 130.31,107.96C129.91,108.07 129.42,108.22 128.97,108.36C128.52,108.5 128.03,108.65 127.63,108.78C127.3,108.89 126.98,109 126.73,109.09C126.55,109.15 126.47,109.18 126.28,109.25C125.95,109.37 125.38,109.57 124.94,109.74C124.49,109.91 123.91,110.16 123.6,110.29C123.44,110.36 123.38,110.38 123.23,110.45C122.98,110.57 122.6,110.75 122.25,110.94C121.82,111.17 121.2,111.39 120.83,111.77C120.46,112.14 119.93,112.89 120.03,113.18C120.11,113.4 120.58,113.41 120.91,113.53C121.31,113.68 121.8,113.85 122.25,114.02C122.7,114.19 123.15,114.4 123.6,114.54C124.04,114.67 124.49,114.76 124.94,114.84C125.39,114.92 125.83,114.98 126.28,115.04C126.73,115.1 127.18,115.15 127.63,115.19C128.08,115.23 128.52,115.27 128.97,115.3C129.42,115.33 129.86,115.36 130.31,115.39C130.76,115.42 131.21,115.45 131.66,115.48Q132.11,115.51 133,115.56L133,135L0,135L0,0L133,0Z" style="stroke: none; fill: rgb(147, 196, 165);"/><path d="M133,105.49Q132.11,105.72 131.66,105.85C131.21,105.98 130.59,106.18 130.31,106.27C130.18,106.31 130.15,106.32 130.03,106.36C129.79,106.43 129.34,106.54 128.97,106.64C128.55,106.76 128.08,106.88 127.63,107.02C127.18,107.16 126.66,107.33 126.28,107.46C126,107.56 125.79,107.65 125.56,107.73C125.35,107.8 125.19,107.84 124.94,107.92C124.58,108.04 124.05,108.21 123.6,108.37C123.15,108.53 122.57,108.76 122.25,108.9C122.07,108.98 122.01,109.02 121.84,109.09C121.59,109.2 121.25,109.32 120.91,109.47C120.5,109.65 119.93,109.93 119.57,110.11C119.32,110.24 119.16,110.33 118.94,110.45C118.71,110.58 118.49,110.71 118.22,110.89C117.85,111.14 117.11,111.58 116.95,111.82C116.88,111.92 116.91,111.96 116.88,112.08C116.81,112.32 116.47,113 116.56,113.18C116.61,113.28 116.74,113.26 116.88,113.32C117.17,113.44 117.77,113.7 118.22,113.87C118.67,114.03 119.18,114.19 119.57,114.31C119.86,114.4 120.09,114.48 120.33,114.55C120.54,114.61 120.68,114.66 120.91,114.72C121.26,114.81 121.8,114.95 122.25,115.04C122.7,115.13 123.15,115.19 123.6,115.25C124.05,115.31 124.49,115.36 124.94,115.4C125.39,115.44 125.83,115.48 126.28,115.51C126.73,115.54 127.18,115.56 127.63,115.59C128.08,115.61 128.52,115.64 128.97,115.66C129.42,115.68 129.86,115.71 130.31,115.73C130.76,115.75 131.21,115.77 131.66,115.8Q132.11,115.82 133,115.88L133,135L0,135L0,0L133,0Z" style="stroke: none; fill: rgb(152, 202, 170);"/></g><g class="contourlines"/></g></g></g></g><g class="zerolinelayer-above"/><path class="xlines-above crisp" d="M35.5,146.25H169.5M35.5,10.75H169.5" style="fill: none; stroke-width: 0.5px; stroke: rgb(0, 0, 0); stroke-opacity: 1;"/><path class="ylines-above crisp" d="M35.75,11V146M169.25,11V146" style="fill: none; stroke-width: 0.5px; stroke: rgb(0, 0, 0); stroke-opacity: 1;"/><g class="overlines-above"/><g class="xaxislayer-above"><path class="xtick ticks crisp" d="M0,146v-5" transform="translate(72.94,0)" style="stroke: rgb(0, 0, 0); stroke-opacity: 1; stroke-width: 0.5px;"/><path class="xtick ticks crisp" d="M0,146v-5" transform="translate(109.89,0)" style="stroke: rgb(0, 0, 0); stroke-opacity: 1; stroke-width: 0.5px;"/><path class="xtick ticks crisp" d="M0,146v-5" transform="translate(146.82999999999998,0)" style="stroke: rgb(0, 0, 0); stroke-opacity: 1; stroke-width: 0.5px;"/><g class="xtick"><text text-anchor="middle" x="0" y="159.7" transform="translate(36,0)" style="font-family: 'Open Sans', verdana, arial, sans-serif; font-size: 11px; fill: rgb(0, 0, 0); fill-opacity: 1; white-space: pre;">0</text></g><g class="xtick"><text text-anchor="middle" x="0" y="159.7" style="font-family: 'Open Sans', verdana, arial, sans-serif; font-size: 11px; fill: rgb(0, 0, 0); fill-opacity: 1; white-space: pre;" transform="translate(72.94,0)">0.5</text></g><g class="xtick"><text text-anchor="middle" x="0" y="159.7" style="font-family: 'Open Sans', verdana, arial, sans-serif; font-size: 11px; fill: rgb(0, 0, 0); fill-opacity: 1; white-space: pre;" transform="translate(109.89,0)">1</text></g><g class="xtick"><text text-anchor="middle" x="0" y="159.7" style="font-family: 'Open Sans', verdana, arial, sans-serif; font-size: 11px; fill: rgb(0, 0, 0); fill-opacity: 1; white-space: pre;" transform="translate(146.82999999999998,0)">1.5</text></g></g><g class="yaxislayer-above"><path class="ytick ticks crisp" d="M36,0h5" transform="translate(0,108.5)" style="stroke: rgb(0, 0, 0); stroke-opacity: 1; stroke-width: 0.5px;"/><path class="ytick ticks crisp" d="M36,0h5" transform="translate(0,71)" style="stroke: rgb(0, 0, 0); stroke-opacity: 1; stroke-width: 0.5px;"/><path class="ytick ticks crisp" d="M36,0h5" transform="translate(0,33.5)" style="stroke: rgb(0, 0, 0); stroke-opacity: 1; stroke-width: 0.5px;"/><g class="ytick"><text text-anchor="end" x="33.3" y="3.8499999999999996" transform="translate(0,146)" style="font-family: 'Open Sans', verdana, arial, sans-serif; font-size: 11px; fill: rgb(0, 0, 0); fill-opacity: 1; white-space: pre;">0</text></g><g class="ytick"><text text-anchor="end" x="33.3" y="3.8499999999999996" style="font-family: 'Open Sans', verdana, arial, sans-serif; font-size: 11px; fill: rgb(0, 0, 0); fill-opacity: 1; white-space: pre;" transform="translate(0,108.5)">0.5</text></g><g class="ytick"><text text-anchor="end" x="33.3" y="3.8499999999999996" style="font-family: 'Open Sans', verdana, arial, sans-serif; font-size: 11px; fill: rgb(0, 0, 0); fill-opacity: 1; white-space: pre;" transform="translate(0,71)">1</text></g><g class="ytick"><text text-anchor="end" x="33.3" y="3.8499999999999996" style="font-family: 'Open Sans', verdana, arial, sans-serif; font-size: 11px; fill: rgb(0, 0, 0); fill-opacity: 1; white-space: pre;" transform="translate(0,33.5)">1.5</text></g></g><g class="overaxes-above"/></g></g><g class="polarlayer"/><g class="smithlayer"/><g class="ternarylayer"/><g class="geolayer"/><g class="funnelarealayer"/><g class="pielayer"/><g class="iciclelayer"/><g class="treemaplayer"/><g class="sunburstlayer"/><g class="glimages"/><defs id="topdefs-076877"><g class="clips"/></defs><g class="layer-above"><g class="imagelayer"/><g class="shapelayer"/></g><g class="infolayer"><g class="g-gtitle"/><g class="g-xtitle" transform="translate(0,4.550000000000011)"><text class="xtitle" x="102.5" y="170.1501953125" text-anchor="middle" style="opacity: 1; font-family: 'Open Sans', verdana, arial, sans-serif; font-size: 11px; fill: rgb(0, 0, 0); fill-opacity: 1; white-space: pre;">Maximum growth rate ST (1/h)</text></g><g class="g-ytitle"><text class="ytitle" transform="rotate(-90,14.184179687499999,78.5)" x="14.184179687499999" y="78.5" text-anchor="middle" style="opacity: 1; font-family: 'Open Sans', verdana, arial, sans-serif; font-size: 11px; fill: rgb(0, 0, 0); fill-opacity: 1; white-space: pre;">Maximum growth rate EcN (1/h)</text></g></g></svg>