<svg class="main-svg" xmlns="http://www.w3.org/2000/svg" xmlns:xlink="http://www.w3.org/1999/xlink" width="150" height="150" style="" viewBox="0 0 150 150"><rect x="0" y="0" width="150" height="150" style="fill: rgb(255, 255, 255); fill-opacity: 1;"/><defs id="defs-eb3036"><g class="clips"><clipPath id="clipeb3036xyplot" class="plotclip"><rect width="96" height="98"/></clipPath><clipPath class="axesclip" id="clipeb3036x"><rect x="36" y="0" width="96" height="150"/></clipPath><clipPath class="axesclip" id="clipeb3036y"><rect x="0" y="18" width="150" height="98"/></clipPath><clipPath class="axesclip" id="clipeb3036xy"><rect x="36" y="18" width="96" height="98"/></clipPath><clipPath class="contourclip" id="clip9a885c"><path d="M11.54,98Q11.54,97.01 11.54,97.01C11.54,97.01 11.54,96.02 11.54,96.02C11.54,96.02 11.54,95.03 11.54,95.03C11.54,95.03 11.54,94.04 11.54,94.04C11.54,94.04 11.54,93.05 11.54,93.05C11.54,93.05 11.54,92.06 11.54,92.06C11.54,92.06 11.54,91.07 11.54,91.07C11.54,91.07 11.54,90.08 11.54,90.08C11.54,90.08 11.54,89.09 11.54,89.09C11.54,89.09 11.54,88.1 11.54,88.1C11.54,88.1 11.54,87.11 11.54,87.11C11.54,87.11 11.54,86.12 11.54,86.12C11.54,86.12 11.54,85.13 11.54,85.13C11.54,85.13 11.54,84.14 11.54,84.14C11.54,84.14 11.54,83.15 11.54,83.15C11.54,83.15 11.54,82.16 11.54,82.16C11.54,82.16 11.54,81.17 11.54,81.17C11.54,81.17 11.54,80.18 11.54,80.18C11.54,80.18 11.54,79.19 11.54,79.19C11.54,79.19 11.54,78.2 11.54,78.2C11.54,78.2 11.54,77.21 11.54,77.21C11.54,77.21 11.54,76.22 11.54,76.22C11.54,76.22 11.54,75.23 11.54,75.23C11.54,75.23 11.54,74.24 11.54,74.24C11.54,74.24 11.54,73.25 11.54,73.25C11.54,73.25 11.54,72.26 11.54,72.26C11.54,72.26 11.54,71.27 11.54,71.27C11.54,71.27 11.54,70.28 11.54,70.28C11.54,70.28 11.54,69.29 11.54,69.29C11.54,69.29 11.54,68.3 11.54,68.3C11.54,68.3 11.54,67.31 11.54,67.31C11.54,67.31 11.54,66.32 11.54,66.32C11.54,66.32 11.54,65.33 11.54,65.33C11.54,65.33 11.54,64.34 11.54,64.34C11.54,64.34 11.54,63.35 11.54,63.35C11.54,63.35 11.54,62.36 11.54,62.36C11.54,62.36 11.54,61.37 11.54,61.37C11.54,61.37 11.54,60.38 11.54,60.38C11.54,60.38 11.54,59.39 11.54,59.39C11.54,59.39 11.54,58.4 11.54,58.4C11.54,58.4 11.54,57.41 11.54,57.41C11.54,57.41 11.54,56.42 11.54,56.42C11.54,56.42 11.54,55.43 11.54,55.43C11.54,55.43 11.54,54.44 11.54,54.44C11.54,54.44 11.54,53.45 11.54,53.45C11.54,53.45 11.54,52.46 11.54,52.46C11.54,52.46 11.54,51.47 11.54,51.47C11.54,51.47 11.54,50.48 11.54,50.48C11.54,50.48 11.54,49.49 11.54,49.49C11.54,49.49 11.54,48.51 11.54,48.51C11.54,48.51 11.54,47.52 11.54,47.52C11.54,47.52 11.54,46.53 11.54,46.53C11.54,46.53 11.54,45.54 11.54,45.54C11.54,45.54 11.54,44.55 11.54,44.55C11.54,44.55 11.54,43.56 11.54,43.56C11.54,43.56 11.54,42.57 11.54,42.57C11.54,42.57 11.54,41.58 11.54,41.58C11.54,41.58 11.54,40.59 11.54,40.59C11.54,40.59 11.54,39.6 11.54,39.6C11.54,39.6 11.54,38.61 11.54,38.61C11.54,38.61 11.54,37.62 11.54,37.62C11.54,37.62 11.54,36.63 11.54,36.63C11.54,36.63 11.54,35.64 11.54,35.64C11.54,35.64 11.54,34.65 11.54,34.65C11.54,34.65 11.54,33.66 11.54,33.66C11.54,33.66 10.67,32.77 10.67,32.77C10.67,32.77 10.57,32.67 10.57,32.67C10.57,32.67 9.7,31.78 9.7,31.78C9.7,31.78 8.73,31.78 8.73,31.78C8.73,31.78 7.76,31.78 7.76,31.78C7.76,31.78 6.79,31.78 6.79,31.78C6.79,31.78 5.82,31.78 5.82,31.78C5.82,31.78 4.85,31.78 4.85,31.78C4.85,31.78 3.88,31.78 3.88,31.78C3.88,31.78 2.91,31.78 2.91,31.78C2.91,31.78 1.94,31.78 1.94,31.78C1.94,31.78 0.97,31.78 0.97,31.78Q0.97,31.78 0,31.78L0,0L96,0L96,98Z"/></clipPath></g><g class="gradients"/><g class="patterns"/></defs><g class="bglayer"/><g class="layer-below"><g class="imagelayer"/><g class="shapelayer"/></g><g class="cartesianlayer"><g class="subplot xy"><g class="layer-subplot"><g class="shapelayer"/><g class="imagelayer"/></g><g class="minor-gridlayer"><g class="x"/><g class="y"/></g><g class="gridlayer"><g class="x"><path class="xgrid crisp" transform="translate(68,0)" d="M0,18v98" style="stroke: rgb(128, 128, 128); stroke-opacity: 1; stroke-width: 0.2px;"/><path class="xgrid crisp" transform="translate(100,0)" d="M0,18v98" style="stroke: rgb(128, 128, 128); stroke-opacity: 1; stroke-width: 0.2px;"/></g><g class="y"><path class="ygrid crisp" transform="translate(0,83.33)" d="M36,0h96" style="stroke: rgb(128, 128, 128); stroke-opacity: 1; stroke-width: 0.2px;"/><path class="ygrid crisp" transform="translate(0,50.67)" d="M36,0h96" style="stroke: rgb(128, 128, 128); stroke-opacity: 1; stroke-width: 0.2px;"/></g></g><g class="zerolinelayer"/><g class="layer-between"><g class="shapelayer"/><g class="imagelayer"/></g><path class="xlines-below"/><path class="ylines-below"/><g class="overlines-below"/><g class="xaxislayer-below"/><g class="yaxislayer-below"/><g class="overaxes-below"/><g class="overplot"><g class="xy" transform="translate(36,18)" clip-path="url(#clipeb3036xyplot)"><g class="contourlayer mlayer"><g class="contour" clip-path="url(#clip9a885c)" style="opacity: 1;"><g class="heatmapcoloring"/><g class="contourbg"><path d="M0,0L96,0L96,98L0,98Z" style="stroke: none; fill: rgb(59, 76, 192);"/></g><g class="contourfill"><path d="M92.12,0Q91.47,0.66 91.15,0.99C90.83,1.32 90.5,1.65 90.18,1.98C89.86,2.31 89.53,2.64 89.21,2.97C88.89,3.3 88.6,3.81 88.24,3.96C87.94,4.09 87.57,3.83 87.27,3.96C86.91,4.11 86.62,4.62 86.3,4.95C85.98,5.28 85.65,5.61 85.33,5.94C85.01,6.27 84.68,6.6 84.36,6.93C84.04,7.26 83.75,7.77 83.39,7.92C83.09,8.05 82.72,7.79 82.42,7.92C82.06,8.07 81.77,8.58 81.45,8.91C81.13,9.24 80.8,9.57 80.48,9.9C80.16,10.23 79.84,10.56 79.52,10.89C79.2,11.22 78.91,11.73 78.55,11.88C78.25,12.01 77.88,11.75 77.58,11.88C77.22,12.03 76.93,12.54 76.61,12.87C76.29,13.2 75.96,13.53 75.64,13.86C75.32,14.19 75.03,14.7 74.67,14.85C74.37,14.98 74,14.72 73.7,14.85C73.34,15 73.05,15.51 72.73,15.84C72.41,16.17 72.08,16.5 71.76,16.83C71.44,17.16 71.15,17.67 70.79,17.82C70.49,17.95 70.12,17.69 69.82,17.82C69.46,17.97 69.17,18.48 68.85,18.81C68.53,19.14 68.2,19.47 67.88,19.8C67.56,20.13 67.27,20.64 66.91,20.79C66.61,20.92 66.24,20.66 65.94,20.79C65.58,20.94 65.29,21.45 64.97,21.78C64.65,22.11 64.32,22.44 64,22.77C63.68,23.1 63.39,23.61 63.03,23.76C62.73,23.89 62.36,23.63 62.06,23.76C61.7,23.91 61.41,24.42 61.09,24.75C60.77,25.08 60.44,25.41 60.12,25.74C59.8,26.07 59.51,26.58 59.15,26.73C58.85,26.86 58.48,26.6 58.18,26.73C57.82,26.88 57.53,27.39 57.21,27.72C56.89,28.05 56.6,28.56 56.24,28.71C55.94,28.84 55.57,28.58 55.27,28.71C54.91,28.86 54.62,29.37 54.3,29.7C53.98,30.03 53.65,30.36 53.33,30.69C53.01,31.02 52.72,31.53 52.36,31.68C52.06,31.81 51.69,31.55 51.39,31.68C51.03,31.83 50.74,32.34 50.42,32.67C50.1,33 49.81,33.51 49.45,33.66C49.15,33.79 48.78,33.53 48.48,33.66C48.12,33.81 47.84,34.32 47.52,34.65C47.2,34.98 46.91,35.49 46.55,35.64C46.25,35.77 45.88,35.51 45.58,35.64C45.22,35.79 44.93,36.3 44.61,36.63C44.29,36.96 44,37.47 43.64,37.62C43.34,37.75 42.97,37.49 42.67,37.62C42.31,37.77 42.02,38.28 41.7,38.61C41.38,38.94 41.05,39.27 40.73,39.6C40.41,39.93 40.12,40.44 39.76,40.59C39.46,40.72 39.09,40.46 38.79,40.59C38.43,40.74 38.14,41.25 37.82,41.58C37.5,41.91 37.21,42.42 36.85,42.57C36.55,42.7 36.18,42.44 35.88,42.57C35.52,42.72 35.23,43.23 34.91,43.56C34.59,43.89 34.3,44.4 33.94,44.55C33.64,44.68 33.27,44.42 32.97,44.55C32.61,44.7 32.36,45.39 32,45.54C31.7,45.67 31.33,45.41 31.03,45.54C30.67,45.69 30.38,46.2 30.06,46.53C29.74,46.86 29.45,47.37 29.09,47.52C28.79,47.65 28.42,47.39 28.12,47.52C27.76,47.67 27.47,48.18 27.15,48.51C26.83,48.84 26.54,49.34 26.18,49.49C25.88,49.61 25.51,49.36 25.21,49.49C24.85,49.64 24.56,50.15 24.24,50.48C23.92,50.81 23.63,51.32 23.27,51.47C22.97,51.6 22.6,51.34 22.3,51.47C21.94,51.62 21.69,52.31 21.33,52.46C21.03,52.59 20.68,52.46 20.36,52.46C20.04,52.46 19.69,52.33 19.39,52.46C19.03,52.61 18.78,53.3 18.42,53.45C18.12,53.58 17.77,53.45 17.45,53.45C17.13,53.45 16.78,53.58 16.48,53.45C16.12,53.3 15.84,52.79 15.52,52.46C15.2,52.13 14.7,51.83 14.55,51.47C14.42,51.16 14.68,50.79 14.55,50.48C14.4,50.12 13.73,49.85 13.58,49.49C13.46,49.19 13.58,48.84 13.58,48.51C13.58,48.18 13.58,47.85 13.58,47.52C13.58,47.19 13.71,46.84 13.58,46.53C13.43,46.17 12.76,45.9 12.61,45.54C12.48,45.23 12.61,44.88 12.61,44.55C12.61,44.22 12.61,43.89 12.61,43.56C12.61,43.23 12.61,42.9 12.61,42.57C12.61,42.24 12.61,41.91 12.61,41.58C12.61,41.25 12.61,40.92 12.61,40.59C12.61,40.26 12.61,39.93 12.61,39.6C12.61,39.27 12.61,38.94 12.61,38.61C12.61,38.28 12.61,37.95 12.61,37.62C12.61,37.29 12.61,36.96 12.61,36.63C12.61,36.3 12.74,35.95 12.61,35.64C12.46,35.28 11.79,35.01 11.64,34.65C11.51,34.34 11.64,33.66 11.64,33.66C11.64,33.66 11.64,34.32 11.64,34.65C11.64,34.98 11.64,35.31 11.64,35.64C11.64,35.97 11.64,36.3 11.64,36.63C11.64,36.96 11.64,37.29 11.64,37.62C11.64,37.95 11.64,38.28 11.64,38.61C11.64,38.94 11.64,39.27 11.64,39.6C11.64,39.93 11.64,40.26 11.64,40.59C11.64,40.92 11.64,41.25 11.64,41.58C11.64,41.91 11.64,42.24 11.64,42.57C11.64,42.9 11.64,43.23 11.64,43.56C11.64,43.89 11.64,44.22 11.64,44.55C11.64,44.88 11.64,45.21 11.64,45.54C11.64,45.87 11.64,46.2 11.64,46.53C11.64,46.86 11.64,47.19 11.64,47.52C11.64,47.85 11.64,48.18 11.64,48.51C11.64,48.84 11.64,49.16 11.64,49.49C11.64,49.82 11.64,50.15 11.64,50.48C11.64,50.81 11.64,51.14 11.64,51.47C11.64,51.8 11.64,52.13 11.64,52.46C11.64,52.79 11.64,53.12 11.64,53.45C11.64,53.78 11.64,54.11 11.64,54.44C11.64,54.77 11.64,55.1 11.64,55.43C11.64,55.76 11.64,56.09 11.64,56.42C11.64,56.75 11.64,57.08 11.64,57.41C11.64,57.74 11.64,58.07 11.64,58.4C11.64,58.73 11.64,59.06 11.64,59.39C11.64,59.72 11.64,60.05 11.64,60.38C11.64,60.71 11.64,61.04 11.64,61.37C11.64,61.7 11.64,62.03 11.64,62.36C11.64,62.69 11.64,63.02 11.64,63.35C11.64,63.68 11.64,64.01 11.64,64.34C11.64,64.67 11.64,65 11.64,65.33C11.64,65.66 11.64,65.99 11.64,66.32C11.64,66.65 11.64,66.98 11.64,67.31C11.64,67.64 11.64,67.97 11.64,68.3C11.64,68.63 11.64,68.96 11.64,69.29C11.64,69.62 11.64,69.95 11.64,70.28C11.64,70.61 11.64,70.94 11.64,71.27C11.64,71.6 11.64,71.93 11.64,72.26C11.64,72.59 11.64,72.92 11.64,73.25C11.64,73.58 11.64,73.91 11.64,74.24C11.64,74.57 11.64,74.9 11.64,75.23C11.64,75.56 11.64,75.89 11.64,76.22C11.64,76.55 11.64,76.88 11.64,77.21C11.64,77.54 11.64,77.87 11.64,78.2C11.64,78.53 11.64,78.86 11.64,79.19C11.64,79.52 11.64,79.85 11.64,80.18C11.64,80.51 11.64,80.84 11.64,81.17C11.64,81.5 11.64,81.83 11.64,82.16C11.64,82.49 11.64,82.82 11.64,83.15C11.64,83.48 11.64,83.81 11.64,84.14C11.64,84.47 11.64,84.8 11.64,85.13C11.64,85.46 11.64,85.79 11.64,86.12C11.64,86.45 11.64,86.78 11.64,87.11C11.64,87.44 11.64,87.77 11.64,88.1C11.64,88.43 11.64,88.76 11.64,89.09C11.64,89.42 11.64,89.75 11.64,90.08C11.64,90.41 11.64,90.74 11.64,91.07C11.64,91.4 11.64,91.73 11.64,92.06C11.64,92.39 11.64,92.72 11.64,93.05C11.64,93.38 11.64,93.71 11.64,94.04C11.64,94.37 11.64,94.7 11.64,95.03C11.64,95.36 11.64,95.69 11.64,96.02C11.64,96.35 11.64,96.68 11.64,97.01Q11.64,97.34 11.64,98L0,98L0,0Z" style="stroke: none; fill: rgb(113, 139, 208);"/><path d="M83.79,0Q83.54,0.21 83.39,0.34C83.18,0.52 82.82,0.84 82.64,0.99C82.55,1.07 82.52,1.09 82.42,1.17C82.21,1.34 81.79,1.72 81.465,1.99C81.14,2.27 80.68,2.66 80.48,2.82C80.4,2.89 80.38,2.9 80.3,2.97C80.13,3.11 79.74,3.45 79.52,3.63C79.37,3.76 79.27,3.84 79.13,3.96C78.96,4.11 78.74,4.28 78.55,4.44C78.35,4.61 78.13,4.8 77.95,4.95C77.81,5.07 77.73,5.14 77.58,5.26C77.36,5.44 76.94,5.8 76.77,5.94C76.7,6 76.69,6.01 76.61,6.08C76.42,6.24 75.94,6.64 75.61500000000001,6.91C75.3,7.17 74.89,7.5 74.67,7.68C74.55,7.78 74.5,7.82 74.38,7.92C74.2,8.07 73.91,8.31 73.7,8.48C73.51,8.63 73.35,8.77 73.18,8.91C73.02,9.04 72.9,9.14 72.73,9.28C72.51,9.46 72.16,9.76 71.98,9.9C71.88,9.98 71.86,10 71.76,10.08C71.55,10.25 71.11,10.62 70.785,10.89C70.46,11.15 70.04,11.48 69.82,11.66C69.7,11.75 69.67,11.79 69.56,11.88C69.38,12.03 69.07,12.27 68.85,12.45C68.66,12.6 68.5,12.74 68.33,12.87C68.17,12.99 68.05,13.09 67.88,13.23C67.66,13.41 67.28,13.72 67.11,13.86C67.02,13.93 67,13.95 66.91,14.02C66.7,14.19 66.24,14.57 65.91499999999999,14.83C65.6,15.09 65.2,15.39 64.97,15.58C64.83,15.69 64.77,15.74 64.64,15.84C64.46,15.98 64.21,16.18 64,16.35C63.8,16.51 63.58,16.69 63.4,16.83C63.26,16.94 63.18,17 63.03,17.12C62.79,17.31 62.43,17.61 62.11,17.86C61.78,18.12 61.29,18.5 61.09,18.66C61,18.73 60.99,18.74 60.91,18.81C60.74,18.95 60.35,19.24 60.12,19.42C59.94,19.56 59.81,19.67 59.65,19.8C59.49,19.93 59.33,20.04 59.15,20.18C58.92,20.36 58.57,20.65 58.39,20.79C58.3,20.86 58.28,20.88 58.18,20.95C57.97,21.11 57.5,21.49 57.17,21.745C56.85,21.99 56.48,22.27 56.24,22.46C56.08,22.58 55.99,22.66 55.85,22.77C55.68,22.9 55.47,23.05 55.27,23.21C55.05,23.38 54.75,23.62 54.57,23.76C54.46,23.84 54.42,23.87 54.3,23.96C54.07,24.13 53.64,24.48 53.31,24.735C52.99,24.98 52.6,25.26 52.36,25.45C52.21,25.57 52.14,25.63 52,25.74C51.82,25.88 51.6,26.03 51.39,26.19C51.17,26.36 50.88,26.59 50.7,26.73C50.59,26.82 50.54,26.85 50.42,26.94C50.19,27.11 49.76,27.46 49.43,27.705C49.11,27.95 48.72,28.22 48.48,28.41C48.32,28.53 48.24,28.6 48.1,28.71C47.93,28.84 47.72,28.99 47.52,29.14C47.29,29.31 46.97,29.57 46.79,29.7C46.69,29.78 46.66,29.8 46.55,29.88C46.33,30.05 45.86,30.41 45.53,30.655C45.22,30.89 44.86,31.14 44.61,31.33C44.43,31.46 44.32,31.56 44.16,31.68C43.99,31.81 43.83,31.92 43.64,32.06C43.4,32.24 43.01,32.55 42.84,32.67C42.76,32.73 42.75,32.73 42.67,32.79C42.48,32.93 41.9,33.36 41.7,33.51C41.61,33.58 41.6,33.59 41.51,33.66C41.34,33.79 40.97,34.05 40.73,34.23C40.53,34.38 40.34,34.52 40.17,34.65C40.02,34.76 39.92,34.83 39.76,34.95C39.51,35.14 39.13,35.42 38.815,35.655C38.49,35.9 38.06,36.2 37.82,36.38C37.68,36.48 37.62,36.53 37.49,36.63C37.31,36.76 37.07,36.93 36.85,37.09C36.62,37.26 36.32,37.49 36.14,37.62C36.03,37.7 36,37.73 35.88,37.81C35.65,37.98 35.18,38.32 34.849999999999994,38.565C34.54,38.79 34.2,39.03 33.94,39.22C33.74,39.36 33.6,39.48 33.43,39.6C33.27,39.71 33.15,39.79 32.97,39.92C32.71,40.11 32.35,40.38 32.035,40.615C31.71,40.85 31.27,41.15 31.03,41.33C30.89,41.43 30.83,41.49 30.7,41.58C30.52,41.71 30.28,41.87 30.06,42.03C29.82,42.2 29.51,42.44 29.33,42.57C29.23,42.64 29.2,42.66 29.09,42.73C28.87,42.88 28.31,43.29 28.12,43.43C28.04,43.49 28.03,43.5 27.95,43.56C27.78,43.68 27.4,43.94 27.15,44.12C26.94,44.27 26.74,44.43 26.56,44.55C26.42,44.65 26.34,44.7 26.18,44.81C25.93,44.99 25.51,45.29 25.185000000000002,45.519999999999996C24.87,45.74 24.51,45.97 24.24,46.16C24.04,46.3 23.89,46.41 23.72,46.53C23.57,46.64 23.45,46.71 23.27,46.83C23,47.01 22.61,47.29 22.28,47.505C21.96,47.71 21.62,47.92 21.33,48.1C21.1,48.25 20.87,48.4 20.69,48.51C20.56,48.58 20.5,48.61 20.36,48.69C20.12,48.82 19.67,49.08 19.39,49.22C19.17,49.33 18.98,49.41 18.81,49.49C18.67,49.55 18.58,49.6 18.42,49.66C18.17,49.75 17.78,49.88 17.45,49.93C17.13,49.98 16.8,50.01 16.48,49.94C16.15,49.87 15.78,49.73 15.52,49.5C15.25,49.26 15.08,48.78 14.9,48.51C14.77,48.32 14.65,48.21 14.55,48.04C14.46,47.88 14.39,47.72 14.33,47.52C14.25,47.25 14.19,46.86 14.14,46.53C14.09,46.2 14.09,45.87 14.01,45.54C13.93,45.21 13.75,44.78 13.67,44.55C13.63,44.43 13.62,44.38 13.58,44.27C13.52,44.09 13.38,43.82 13.31,43.56C13.23,43.26 13.19,42.9 13.15,42.57C13.11,42.24 13.09,41.91 13.07,41.58C13.05,41.25 13.03,40.92 13.02,40.59C13.01,40.26 13,39.93 12.99,39.6C12.98,39.27 12.98,38.94 12.97,38.61C12.96,38.28 12.96,37.95 12.95,37.62C12.95,37.29 12.94,36.96 12.94,36.63C12.94,36.3 12.94,35.97 12.93,35.64C12.92,35.31 12.9,34.98 12.85,34.65C12.8,34.32 12.8,33.9 12.6,33.67C12.4,33.43 11.88,33.21 11.64,33.26C11.46,33.29 11.34,33.48 11.23,33.66C11.08,33.9 11.03,34.34 10.93,34.65C10.84,34.94 10.75,35.3 10.67,35.47C10.63,35.55 10.6,35.56 10.56,35.64C10.46,35.83 10.28,36.29 10.14,36.63C10,36.97 9.87,37.34 9.719999999999999,37.675C9.58,38 9.43,38.29 9.27,38.61C9.1,38.95 8.94,39.32 8.754999999999999,39.655C8.58,39.98 8.38,40.3 8.21,40.59C8.05,40.85 7.88,41.15 7.76,41.33C7.69,41.44 7.65,41.47 7.57,41.58C7.4,41.8 7.08,42.27 6.8100000000000005,42.6C6.54,42.93 6.08,43.39 5.93,43.56C5.88,43.62 5.88,43.62 5.82,43.68C5.66,43.84 5.16,44.27 4.824999999999999,44.53C4.51,44.77 4.18,45.01 3.88,45.19C3.63,45.34 3.36,45.45 3.18,45.54C3.07,45.6 3.03,45.63 2.91,45.68C2.69,45.78 2.27,45.96 1.94,46.06C1.62,46.16 1.3,46.23 0.97,46.29Q0.65,46.35 0,46.4L0,0Z" style="stroke: none; fill: rgb(178, 199, 229);"/><path d="M79.82,0Q79.65,0.14 79.52,0.25C79.3,0.44 78.91,0.76 78.595,1.03C78.26,1.31 77.76,1.74 77.58,1.88C77.52,1.93 77.51,1.93 77.45,1.98C77.29,2.11 76.83,2.49 76.61,2.67C76.46,2.79 76.39,2.86 76.25,2.97C76.07,3.11 75.84,3.29 75.64,3.46C75.44,3.62 75.22,3.82 75.04,3.96C74.9,4.07 74.82,4.14 74.67,4.26C74.45,4.44 74,4.82 73.84,4.95C73.77,5 73.77,5.01 73.7,5.06C73.52,5.21 73.01,5.63 72.68,5.9C72.37,6.15 72,6.44 71.76,6.63C71.61,6.75 71.54,6.82 71.4,6.93C71.22,7.07 70.99,7.25 70.79,7.41C70.58,7.58 70.35,7.78 70.17,7.92C70.04,8.03 69.96,8.08 69.82,8.2C69.59,8.39 69.22,8.7 68.9,8.95C68.57,9.22 68.08,9.6 67.88,9.76C67.8,9.83 67.79,9.84 67.71,9.9C67.54,10.04 67.14,10.35 66.91,10.53C66.74,10.67 66.62,10.77 66.46,10.89C66.29,11.02 66.13,11.15 65.94,11.3C65.72,11.48 65.4,11.74 65.22,11.88C65.12,11.96 65.08,11.98 64.97,12.07C64.75,12.24 64.32,12.6 63.989999999999995,12.86C63.67,13.11 63.26,13.42 63.03,13.6C62.89,13.71 62.84,13.76 62.71,13.86C62.53,14 62.27,14.19 62.06,14.36C61.85,14.52 61.62,14.71 61.44,14.85C61.31,14.95 61.23,15.01 61.09,15.12C60.85,15.31 60.47,15.62 60.155,15.865C59.83,16.12 59.37,16.46 59.15,16.63C59.04,16.72 59.01,16.75 58.91,16.83C58.73,16.97 58.4,17.21 58.18,17.38C57.98,17.53 57.8,17.69 57.63,17.82C57.48,17.93 57.38,18 57.21,18.13C56.96,18.32 56.61,18.61 56.295,18.85C55.96,19.11 55.48,19.46 55.27,19.63C55.17,19.71 55.15,19.73 55.06,19.8C54.89,19.94 54.53,20.19 54.3,20.37C54.1,20.52 53.93,20.66 53.76,20.79C53.61,20.9 53.5,20.98 53.33,21.11C53.08,21.3 52.73,21.58 52.415,21.82C52.08,22.07 51.61,22.43 51.39,22.6C51.29,22.68 51.27,22.7 51.17,22.77C50.99,22.9 50.65,23.15 50.42,23.32C50.22,23.47 50.03,23.63 49.86,23.76C49.71,23.87 49.61,23.94 49.45,24.06C49.2,24.25 48.84,24.53 48.519999999999996,24.775C48.19,25.02 47.75,25.36 47.52,25.53C47.4,25.62 47.35,25.65 47.24,25.74C47.06,25.87 46.77,26.08 46.55,26.25C46.33,26.41 46.1,26.6 45.92,26.73C45.79,26.83 45.72,26.87 45.58,26.98C45.34,27.16 44.93,27.48 44.61,27.72C44.29,27.96 43.89,28.25 43.64,28.43C43.49,28.54 43.41,28.61 43.27,28.71C43.09,28.84 42.88,28.99 42.67,29.15C42.44,29.32 42.13,29.57 41.95,29.7C41.85,29.78 41.81,29.8 41.7,29.88C41.47,30.05 41.01,30.4 40.675,30.645000000000003C40.36,30.88 40.02,31.12 39.76,31.31C39.57,31.45 39.44,31.56 39.28,31.68C39.12,31.8 38.97,31.89 38.79,32.03C38.54,32.21 38.09,32.55 37.94,32.67C37.88,32.71 37.88,32.72 37.82,32.76C37.65,32.88 37.07,33.31 36.85,33.47C36.74,33.55 36.71,33.58 36.6,33.66C36.42,33.79 36.11,34.01 35.88,34.18C35.66,34.34 35.43,34.52 35.25,34.65C35.12,34.74 35.05,34.79 34.91,34.89C34.67,35.07 34.25,35.39 33.925,35.625C33.61,35.86 33.22,36.12 32.97,36.31C32.8,36.44 32.7,36.52 32.55,36.63C32.38,36.75 32.2,36.87 32,37.02C31.76,37.2 31.37,37.5 31.2,37.62C31.12,37.68 31.11,37.68 31.03,37.74C30.84,37.88 30.27,38.3 30.06,38.45C29.96,38.52 29.94,38.54 29.84,38.61C29.66,38.74 29.33,38.98 29.09,39.15C28.88,39.31 28.66,39.47 28.48,39.6C28.35,39.7 28.27,39.74 28.12,39.85C27.87,40.03 27.47,40.34 27.14,40.58C26.82,40.81 26.44,41.07 26.18,41.26C26.01,41.39 25.9,41.47 25.75,41.58C25.58,41.7 25.41,41.82 25.21,41.96C24.96,42.14 24.54,42.46 24.38,42.57C24.31,42.61 24.31,42.61 24.24,42.66C24.06,42.78 23.5,43.19 23.27,43.35C23.15,43.44 23.11,43.48 22.99,43.56C22.81,43.69 22.53,43.87 22.3,44.03C22.06,44.2 21.75,44.43 21.57,44.55C21.47,44.62 21.44,44.64 21.33,44.71C21.12,44.85 20.58,45.2 20.36,45.35C20.24,45.43 20.2,45.47 20.09,45.54C19.91,45.66 19.64,45.81 19.39,45.96C19.09,46.13 18.75,46.36 18.42,46.52C18.1,46.68 17.78,46.83 17.45,46.93C17.13,47.03 16.8,47.15 16.48,47.14C16.16,47.13 15.73,47.04 15.52,46.9C15.38,46.8 15.36,46.68 15.24,46.53C15.06,46.31 14.63,45.89 14.55,45.71C14.52,45.64 14.54,45.62 14.52,45.54C14.48,45.35 14.39,44.88 14.32,44.55C14.25,44.22 14.17,43.89 14.08,43.56C13.99,43.23 13.88,42.87 13.79,42.57C13.72,42.32 13.62,42.07 13.58,41.89C13.55,41.77 13.55,41.71 13.53,41.58C13.5,41.34 13.46,40.92 13.43,40.59C13.4,40.26 13.39,39.93 13.37,39.6C13.35,39.27 13.34,38.94 13.33,38.61C13.32,38.28 13.3,37.95 13.29,37.62C13.28,37.29 13.28,36.96 13.27,36.63C13.26,36.3 13.26,35.97 13.25,35.64C13.24,35.31 13.23,34.98 13.2,34.65C13.17,34.32 13.12,33.99 13.05,33.66C12.98,33.33 12.87,32.9 12.78,32.67C12.72,32.54 12.69,32.38 12.61,32.37C12.52,32.36 12.42,32.59 12.28,32.67C12.11,32.77 11.85,32.74 11.64,32.87C11.36,33.03 10.97,33.43 10.82,33.66C10.73,33.79 10.76,33.89 10.67,34.02C10.53,34.22 10.1,34.46 9.93,34.65C9.82,34.78 9.81,34.87 9.7,35C9.54,35.19 9.19,35.45 9.02,35.64C8.9,35.77 8.85,35.88 8.73,36.01C8.56,36.2 8.24,36.45 8.06,36.63C7.94,36.75 7.89,36.84 7.76,36.96C7.57,37.15 7.16,37.46 6.99,37.62C6.9,37.7 6.89,37.74 6.79,37.82C6.59,38 6.11,38.34 5.775,38.58C5.46,38.8 5.15,39.02 4.85,39.2C4.58,39.36 4.24,39.51 4.07,39.6C3.99,39.64 3.97,39.66 3.88,39.7C3.68,39.79 3.24,40 2.91,40.12C2.59,40.24 2.26,40.33 1.94,40.41C1.63,40.49 1.33,40.55 1.01,40.595Q0.68,40.65 0,40.71L0,0Z" style="stroke: none; fill: rgb(255, 255, 255);"/><path d="M68.8,0Q68.06,0.66 67.88,0.83C67.8,0.9 67.79,0.92 67.71,0.99C67.54,1.14 67.11,1.52 66.91,1.7C66.78,1.81 66.72,1.87 66.6,1.98C66.42,2.14 66.14,2.38 65.94,2.56C65.77,2.71 65.65,2.83 65.49,2.97C65.32,3.12 65.15,3.26 64.97,3.42C64.78,3.59 64.55,3.81 64.37,3.96C64.23,4.08 64.14,4.15 64,4.27C63.79,4.45 63.42,4.8 63.24,4.95C63.15,5.03 63.12,5.05 63.03,5.13C62.83,5.31 62.41,5.68 62.085,5.960000000000001C61.76,6.24 61.27,6.66 61.09,6.81C61.02,6.87 61.02,6.87 60.95,6.93C60.79,7.07 60.33,7.45 60.12,7.63C59.98,7.75 59.92,7.81 59.79,7.92C59.61,8.07 59.35,8.28 59.15,8.45C58.97,8.61 58.8,8.77 58.63,8.91C58.48,9.04 58.35,9.14 58.18,9.28C57.97,9.46 57.64,9.75 57.46,9.9C57.36,9.99 57.32,10.01 57.21,10.1C57,10.28 56.58,10.64 56.265,10.905000000000001C55.94,11.18 55.46,11.56 55.27,11.73C55.19,11.8 55.18,11.81 55.1,11.88C54.93,12.02 54.52,12.35 54.3,12.53C54.14,12.66 54.05,12.75 53.9,12.87C53.73,13.01 53.52,13.17 53.33,13.33C53.12,13.5 52.88,13.71 52.7,13.86C52.57,13.97 52.5,14.02 52.36,14.13C52.13,14.32 51.76,14.64 51.45,14.895C51.12,15.17 50.59,15.58 50.42,15.73C50.36,15.78 50.36,15.79 50.3,15.84C50.15,15.97 49.67,16.33 49.45,16.51C49.3,16.63 49.22,16.71 49.08,16.83C48.91,16.97 48.68,17.14 48.48,17.3C48.27,17.47 48.04,17.68 47.86,17.82C47.73,17.93 47.66,17.98 47.52,18.09C47.29,18.28 46.91,18.59 46.595,18.845C46.27,19.11 45.78,19.5 45.58,19.66C45.5,19.73 45.49,19.74 45.41,19.8C45.24,19.94 44.84,20.26 44.61,20.44C44.44,20.57 44.33,20.67 44.18,20.79C44.01,20.92 43.83,21.06 43.64,21.21C43.42,21.38 43.13,21.64 42.95,21.78C42.84,21.87 42.79,21.9 42.67,22C42.45,22.18 42.03,22.52 41.71,22.78C41.39,23.04 40.95,23.37 40.73,23.55C40.62,23.64 40.58,23.67 40.47,23.76C40.29,23.9 39.98,24.14 39.76,24.32C39.57,24.47 39.4,24.62 39.23,24.75C39.08,24.87 38.96,24.96 38.79,25.09C38.56,25.27 38.16,25.61 37.99,25.74C37.91,25.8 37.9,25.81 37.82,25.87C37.62,26.03 37.13,26.43 36.8,26.689999999999998C36.49,26.94 36.12,27.22 35.88,27.41C35.73,27.53 35.64,27.61 35.5,27.72C35.33,27.86 35.11,28.01 34.91,28.17C34.69,28.34 34.43,28.57 34.25,28.71C34.13,28.81 34.07,28.85 33.94,28.95C33.71,29.13 33.31,29.46 32.989999999999995,29.715C32.66,29.97 32.22,30.32 32,30.49C31.89,30.58 31.86,30.61 31.75,30.69C31.57,30.83 31.25,31.07 31.03,31.25C30.84,31.4 30.67,31.55 30.5,31.68C30.35,31.8 30.23,31.89 30.06,32.02C29.83,32.2 29.43,32.54 29.26,32.67C29.18,32.73 29.17,32.73 29.09,32.79C28.89,32.94 28.4,33.35 28.065,33.614999999999995C27.75,33.86 27.39,34.13 27.15,34.32C26.99,34.45 26.9,34.53 26.76,34.65C26.59,34.79 26.38,34.93 26.18,35.09C25.96,35.26 25.69,35.5 25.51,35.64C25.39,35.73 25.34,35.76 25.21,35.86C24.98,36.04 24.57,36.38 24.25,36.635000000000005C23.93,36.89 23.49,37.22 23.27,37.4C23.15,37.49 23.11,37.53 23,37.62C22.82,37.76 22.52,37.99 22.3,38.16C22.1,38.32 21.91,38.48 21.74,38.61C21.59,38.72 21.49,38.79 21.33,38.92C21.08,39.11 20.73,39.39 20.415,39.635000000000005C20.08,39.89 19.62,40.23 19.39,40.4C19.28,40.48 19.25,40.51 19.14,40.59C18.96,40.72 18.66,40.92 18.42,41.08C18.17,41.25 17.84,41.47 17.66,41.58C17.57,41.64 17.55,41.65 17.45,41.7C17.25,41.8 16.81,42.05 16.48,42.12C16.17,42.19 15.77,42.24 15.52,42.13C15.3,42.03 15.18,41.76 15.02,41.58C14.86,41.4 14.64,41.23 14.55,41.05C14.48,40.9 14.49,40.77 14.46,40.59C14.41,40.32 14.34,39.93 14.28,39.6C14.22,39.27 14.16,38.94 14.1,38.61C14.04,38.28 13.97,37.95 13.91,37.62C13.85,37.29 13.79,36.96 13.73,36.63C13.67,36.31 13.61,35.99 13.575,35.665C13.54,35.33 13.56,34.99 13.55,34.65C13.54,34.32 13.53,33.99 13.51,33.66C13.49,33.33 13.49,33 13.44,32.67C13.39,32.34 13.36,31.9 13.19,31.68C13.05,31.5 12.73,31.33 12.61,31.37C12.52,31.4 12.54,31.56 12.45,31.68C12.29,31.89 11.82,32.29 11.64,32.47C11.55,32.56 11.54,32.58 11.45,32.67C11.28,32.84 10.96,33.25 10.67,33.42C10.41,33.57 9.96,33.58 9.81,33.66C9.75,33.69 9.76,33.71 9.7,33.75C9.54,33.86 9.04,34.09 8.73,34.25C8.44,34.39 8.05,34.56 7.89,34.65C7.83,34.68 7.82,34.69 7.76,34.73C7.59,34.83 7.11,35.08 6.79,35.24C6.48,35.39 6.17,35.52 5.855,35.66C5.53,35.8 5.18,35.96 4.85,36.09C4.53,36.21 4.18,36.33 3.88,36.42C3.62,36.5 3.31,36.58 3.13,36.63C3.03,36.66 3.01,36.67 2.91,36.69C2.7,36.74 2.26,36.84 1.94,36.9C1.62,36.96 1.29,37 0.97,37.04Q0.65,37.07 0,37.11L0,0Z" style="stroke: none; fill: rgb(230, 181, 169);"/><path d="M21.58,0Q21.38,0.61 21.33,0.79C21.31,0.88 21.3,0.9 21.28,0.99C21.23,1.19 21.1,1.65 21.01,1.98C20.91,2.31 20.81,2.64 20.71,2.97C20.6,3.31 20.47,3.66 20.375,3.995C20.28,4.32 20.21,4.63 20.12,4.95C20.03,5.28 19.93,5.61 19.82,5.94C19.71,6.27 19.55,6.73 19.47,6.93C19.44,7.02 19.42,7.04 19.39,7.13C19.33,7.3 19.28,7.64 19.2,7.92C19.11,8.23 19,8.58 18.89,8.91C18.77,9.24 18.59,9.7 18.51,9.9C18.47,9.99 18.45,10.01 18.42,10.1C18.36,10.27 18.33,10.61 18.26,10.89C18.18,11.2 18.07,11.55 17.95,11.88C17.83,12.21 17.62,12.69 17.53,12.87C17.5,12.94 17.47,12.95 17.45,13.02C17.4,13.18 17.38,13.57 17.32,13.86C17.25,14.18 17.17,14.52 17.05,14.85C16.93,15.18 16.72,15.63 16.61,15.84C16.56,15.95 16.51,15.97 16.48,16.07C16.42,16.25 16.44,16.56 16.4,16.83C16.35,17.14 16.3,17.49 16.21,17.82C16.12,18.15 15.99,18.53 15.86,18.81C15.76,19.04 15.58,19.23 15.52,19.41C15.48,19.55 15.5,19.64 15.48,19.8C15.45,20.05 15.43,20.46 15.38,20.79C15.33,21.12 15.28,21.46 15.17,21.78C15.06,22.12 14.83,22.55 14.71,22.77C14.65,22.88 14.59,22.91 14.55,23.02C14.49,23.2 14.49,23.5 14.46,23.76C14.43,24.07 14.41,24.42 14.37,24.75C14.33,25.08 14.32,25.42 14.2,25.74C14.07,26.09 13.75,26.42 13.61,26.765C13.48,27.08 13.44,27.4 13.38,27.72C13.32,28.05 13.3,28.38 13.27,28.71C13.24,29.04 13.29,29.4 13.18,29.7C13.07,30.01 12.73,30.39 12.61,30.55C12.56,30.62 12.54,30.62 12.5,30.69C12.39,30.87 12.21,31.43 12.04,31.68C11.92,31.86 11.79,31.93 11.64,32.08C11.46,32.26 11.24,32.5 11.06,32.67C10.92,32.81 10.85,32.98 10.67,33.04C10.43,33.12 10.02,32.94 9.7,32.93C9.38,32.92 9.05,32.95 8.73,32.99C8.41,33.03 8.08,33.1 7.76,33.16C7.44,33.22 7.11,33.29 6.79,33.36C6.47,33.43 6.1,33.51 5.82,33.56C5.61,33.6 5.44,33.63 5.27,33.66C5.12,33.69 5.02,33.72 4.85,33.75C4.59,33.8 4.2,33.86 3.88,33.91C3.56,33.96 3.23,34.01 2.91,34.05C2.59,34.09 2.26,34.12 1.94,34.15C1.62,34.18 1.29,34.2 0.97,34.22Q0.65,34.24 0,34.26L0,0Z" style="stroke: none; fill: rgb(205, 97, 97);"/></g><g class="contourlines"/></g></g></g></g><path class="xlines-above crisp" d="M35.5,116.25H132.5M35.5,17.75H132.5" style="fill: none; stroke-width: 0.5px; stroke: rgb(0, 0, 0); stroke-opacity: 1;"/><path class="ylines-above crisp" d="M35.75,18V116M132.25,18V116" style="fill: none; stroke-width: 0.5px; stroke: rgb(0, 0, 0); stroke-opacity: 1;"/><g class="overlines-above"/><g class="xaxislayer-above"><path class="xtick ticks crisp" d="M0,116v-5" transform="translate(68,0)" style="stroke: rgb(0, 0, 0); stroke-opacity: 1; stroke-width: 0.5px;"/><path class="xtick ticks crisp" d="M0,116v-5" transform="translate(100,0)" style="stroke: rgb(0, 0, 0); stroke-opacity: 1; stroke-width: 0.5px;"/><g class="xtick"><text text-anchor="middle" x="0" y="129.7" transform="translate(36,0)" style="font-family: 'Open Sans', verdana, arial, sans-serif; font-size: 11px; fill: rgb(0, 0, 0); fill-opacity: 1; white-space: pre; opacity: 1;">0</text></g><g class="xtick"><text text-anchor="middle" x="0" y="129.7" style="font-family: 'Open Sans', verdana, arial, sans-serif; font-size: 11px; fill: rgb(0, 0, 0); fill-opacity: 1; white-space: pre; opacity: 1;" transform="translate(68,0)">0.5</text></g><g class="xtick"><text text-anchor="middle" x="0" y="129.7" style="font-family: 'Open Sans', verdana, arial, sans-serif; font-size: 11px; fill: rgb(0, 0, 0); fill-opacity: 1; white-space: pre; opacity: 1;" transform="translate(100,0)">1</text></g><g class="xtick"><text text-anchor="middle" x="0" y="129.7" style="font-family: 'Open Sans', verdana, arial, sans-serif; font-size: 11px; fill: rgb(0, 0, 0); fill-opacity: 1; white-space: pre; opacity: 1;" transform="translate(132,0)">1.5</text></g></g><g class="yaxislayer-above"><path class="ytick ticks crisp" d="M36,0h5" transform="translate(0,83.33)" style="stroke: rgb(0, 0, 0); stroke-opacity: 1; stroke-width: 0.5px;"/><path class="ytick ticks crisp" d="M36,0h5" transform="translate(0,50.67)" style="stroke: rgb(0, 0, 0); stroke-opacity: 1; stroke-width: 0.5px;"/><g class="ytick"><text text-anchor="end" x="33.3" y="3.8499999999999996" transform="translate(0,116)" style="font-family: 'Open Sans', verdana, arial, sans-serif; font-size: 11px; fill: rgb(0, 0, 0); fill-opacity: 1; white-space: pre; opacity: 1;">0</text></g><g class="ytick"><text text-anchor="end" x="33.3" y="3.8499999999999996" style="font-family: 'Open Sans', verdana, arial, sans-serif; font-size: 11px; fill: rgb(0, 0, 0); fill-opacity: 1; white-space: pre; opacity: 1;" transform="translate(0,83.33)">0.5</text></g><g class="ytick"><text text-anchor="end" x="33.3" y="3.8499999999999996" style="font-family: 'Open Sans', verdana, arial, sans-serif; font-size: 11px; fill: rgb(0, 0, 0); fill-opacity: 1; white-space: pre; opacity: 1;" transform="translate(0,50.67)">1</text></g><g class="ytick"><text text-anchor="end" x="33.3" y="3.8499999999999996" style="font-family: 'Open Sans', verdana, arial, sans-serif; font-size: 11px; fill: rgb(0, 0, 0); fill-opacity: 1; white-space: pre; opacity: 1;" transform="translate(0,18)">1.5</text></g></g><g class="overaxes-above"/></g></g><g class="polarlayer"/><g class="smithlayer"/><g class="ternarylayer"/><g class="geolayer"/><g class="funnelarealayer"/><g class="pielayer"/><g class="iciclelayer"/><g class="treemaplayer"/><g class="sunburstlayer"/><g class="glimages"/><defs id="topdefs-eb3036"><g class="clips"/></defs><g class="layer-above"><g class="imagelayer"/><g class="shapelayer"/></g><g class="infolayer"><g class="g-gtitle"/><g class="g-xtitle" transform="translate(0,4.550000000000011)"><text class="xtitle" x="84" y="140.153125" text-anchor="middle" style="opacity: 1; font-family: 'Open Sans', verdana, arial, sans-serif; font-size: 11px; fill: rgb(0, 0, 0); fill-opacity: 1; white-space: pre;">EcN [1/h]</text></g><g class="g-ytitle"><text class="ytitle" transform="rotate(-90,14.181249999999999,67)" x="14.181249999999999" y="67" text-anchor="middle" style="opacity: 1; font-family: 'Open Sans', verdana, arial, sans-serif; font-size: 11px; fill: rgb(0, 0, 0); fill-opacity: 1; white-space: pre;">ST [1/h]</text></g></g></svg>