<svg class="main-svg" xmlns="http://www.w3.org/2000/svg" xmlns:xlink="http://www.w3.org/1999/xlink" width="180" height="180" style="" viewBox="0 0 180 180"><rect x="0" y="0" width="180" height="180" style="fill: rgb(255, 255, 255); fill-opacity: 1;"/><defs id="defs-509710"><g class="clips"><clipPath id="clip509710xyplot" class="plotclip"><rect width="131" height="128"/></clipPath><clipPath class="axesclip" id="clip509710x"><rect x="36" y="0" width="131" height="180"/></clipPath><clipPath class="axesclip" id="clip509710y"><rect x="0" y="18" width="180" height="128"/></clipPath><clipPath class="axesclip" id="clip509710xy"><rect x="36" y="18" width="131" height="128"/></clipPath><clipPath class="contourclip" id="clip6c20cf"><path d="M0,0L131,0L131,128L0,128Z"/></clipPath></g><g class="gradients"/><g class="patterns"/></defs><g class="bglayer"/><g class="layer-below"><g class="imagelayer"/><g class="shapelayer"/></g><g class="cartesianlayer"><g class="subplot xy"><g class="layer-subplot"><g class="shapelayer"/><g class="imagelayer"/></g><g class="minor-gridlayer"><g class="x"/><g class="y"/></g><g class="gridlayer"><g class="x"><path class="xgrid crisp" transform="translate(101.5,0)" d="M0,18v128" style="stroke: rgb(128, 128, 128); stroke-opacity: 1; stroke-width: 0.2px;"/></g><g class="y"/></g><g class="zerolinelayer"/><g class="layer-between"><g class="shapelayer"/><g class="imagelayer"/></g><path class="xlines-below"/><path class="ylines-below"/><g class="overlines-below"/><g class="xaxislayer-below"/><g class="yaxislayer-below"/><g class="overaxes-below"/><g class="overplot"><g class="xy" transform="translate(36,18)" clip-path="url(#clip509710xyplot)"><g class="contourlayer mlayer"><g class="contour" clip-path="url(#clip6c20cf)" style="opacity: 1;"><g class="heatmapcoloring"/><g class="contourbg"><path d="M0,0L131,0L131,128L0,128Z" style="stroke: none; fill: rgb(49, 97, 66);"/></g><g class="contourfill"><path d="M131,84.45Q130.12,84.45 129.68,84.45C129.24,84.45 128.79,84.45 128.35,84.45C127.91,84.45 127.47,84.45 127.03,84.45C126.59,84.45 126.15,84.45 125.71,84.45C125.27,84.45 124.82,84.45 124.38,84.45C123.94,84.45 123.5,84.45 123.06,84.45C122.62,84.45 122.18,84.45 121.74,84.45C121.3,84.45 120.85,84.45 120.41,84.45C119.97,84.45 119.53,84.45 119.09,84.45C118.65,84.45 118.21,84.45 117.77,84.45C117.33,84.45 116.88,84.45 116.44,84.45C116,84.45 115.56,84.45 115.12,84.45C114.68,84.45 114.24,84.45 113.8,84.45C113.36,84.45 112.91,84.45 112.47,84.45C112.03,84.45 111.59,84.45 111.15,84.45C110.71,84.45 110.27,84.45 109.83,84.45C109.39,84.45 108.95,84.45 108.51,84.45C108.07,84.45 107.62,84.45 107.18,84.45C106.74,84.45 106.3,84.45 105.86,84.45C105.42,84.45 104.98,84.45 104.54,84.45C104.1,84.45 103.65,84.45 103.21,84.45C102.77,84.45 102.33,84.45 101.89,84.45C101.45,84.45 101.01,84.45 100.57,84.45C100.13,84.45 99.68,84.45 99.24,84.45C98.8,84.45 98.36,84.45 97.92,84.45C97.48,84.45 97.04,84.45 96.6,84.45C96.16,84.45 95.71,84.45 95.27,84.45C94.83,84.45 94.39,84.45 93.95,84.45C93.51,84.45 93.07,84.45 92.63,84.45C92.19,84.45 91.74,84.45 91.3,84.45C90.86,84.45 90.42,84.45 89.98,84.45C89.54,84.45 89.1,84.45 88.66,84.45C88.22,84.45 87.77,84.45 87.33,84.45C86.89,84.45 86.45,84.45 86.01,84.45C85.57,84.45 85.13,84.45 84.69,84.45C84.25,84.45 83.8,84.45 83.36,84.45C82.92,84.45 82.48,84.45 82.04,84.45C81.6,84.45 81.16,84.45 80.72,84.45C80.28,84.45 79.83,84.45 79.39,84.45C78.95,84.45 78.51,84.45 78.07,84.45C77.63,84.45 77.19,84.45 76.75,84.45C76.31,84.45 75.86,84.45 75.42,84.45C74.98,84.45 74.54,84.45 74.1,84.45C73.66,84.45 73.22,84.45 72.78,84.45C72.34,84.45 71.89,84.45 71.45,84.45C71.01,84.45 70.57,84.45 70.13,84.45C69.69,84.45 69.25,84.45 68.81,84.45C68.37,84.45 67.92,84.45 67.48,84.45C67.04,84.45 66.6,84.45 66.16,84.45C65.72,84.45 65.28,84.45 64.84,84.45C64.4,84.45 63.96,84.45 63.52,84.45C63.08,84.45 62.63,84.45 62.19,84.45C61.75,84.45 61.31,84.45 60.87,84.45C60.43,84.45 59.99,84.45 59.55,84.45C59.11,84.45 58.66,84.45 58.22,84.45C57.78,84.45 57.34,84.45 56.9,84.45C56.46,84.45 56.02,84.45 55.58,84.45C55.14,84.45 54.69,84.45 54.25,84.45C53.81,84.45 53.37,84.45 52.93,84.45C52.49,84.45 52.05,84.45 51.61,84.45C51.17,84.45 50.72,84.45 50.28,84.45C49.84,84.45 49.4,84.45 48.96,84.45C48.52,84.45 48.08,84.45 47.64,84.45C47.2,84.45 46.75,84.45 46.31,84.45C45.87,84.45 45.43,84.45 44.99,84.45C44.55,84.45 44.11,84.45 43.67,84.45C43.23,84.45 42.78,84.45 42.34,84.45C41.9,84.45 41.46,84.45 41.02,84.45C40.58,84.45 40.14,84.45 39.7,84.45C39.26,84.45 38.81,84.45 38.37,84.45C37.93,84.45 37.49,84.45 37.05,84.45C36.61,84.45 36.17,84.45 35.73,84.45C35.29,84.45 34.84,84.45 34.4,84.45C33.96,84.45 33.52,84.45 33.08,84.45C32.64,84.45 32.2,84.45 31.76,84.45C31.32,84.45 30.87,84.45 30.43,84.45C29.99,84.45 29.55,84.45 29.11,84.45C28.67,84.45 28.23,84.45 27.79,84.45C27.35,84.45 26.9,84.45 26.46,84.45C26.02,84.45 25.58,84.45 25.14,84.45C24.7,84.45 24.26,84.45 23.82,84.45C23.38,84.45 22.93,84.45 22.49,84.45C22.05,84.45 21.61,84.45 21.17,84.45C20.73,84.45 20.29,84.45 19.85,84.45C19.41,84.45 18.97,84.45 18.53,84.45C18.09,84.45 17.64,84.45 17.2,84.45C16.76,84.45 16.32,84.45 15.88,84.45C15.44,84.45 15,84.45 14.56,84.45C14.12,84.45 13.67,84.45 13.23,84.45C12.79,84.45 12.35,84.45 11.91,84.45C11.47,84.45 11.03,84.45 10.59,84.45C10.15,84.45 9.7,84.45 9.26,84.45C8.82,84.45 8.38,84.45 7.94,84.45C7.5,84.45 7.06,84.45 6.62,84.45C6.18,84.45 5.73,84.45 5.29,84.45C4.85,84.45 4.41,84.45 3.97,84.45C3.53,84.45 3.09,84.45 2.65,84.45C2.21,84.45 1.76,84.45 1.32,84.45Q0.88,84.45 0,84.45L0,0L131,0Z" style="stroke: none; fill: rgb(54, 103, 71);"/><path d="M131,73.76Q130.12,73.76 129.68,73.76C129.24,73.76 128.79,73.76 128.35,73.76C127.91,73.76 127.47,73.76 127.03,73.76C126.59,73.76 126.15,73.76 125.71,73.76C125.27,73.76 124.82,73.76 124.38,73.76C123.94,73.76 123.5,73.76 123.06,73.76C122.62,73.76 122.18,73.76 121.74,73.76C121.3,73.76 120.85,73.76 120.41,73.76C119.97,73.76 119.53,73.76 119.09,73.76C118.65,73.76 118.21,73.76 117.77,73.76C117.33,73.76 116.88,73.76 116.44,73.76C116,73.76 115.56,73.76 115.12,73.76C114.68,73.76 114.24,73.76 113.8,73.76C113.36,73.76 112.91,73.76 112.47,73.76C112.03,73.76 111.59,73.76 111.15,73.76C110.71,73.76 110.27,73.76 109.83,73.76C109.39,73.76 108.95,73.76 108.51,73.76C108.07,73.76 107.62,73.76 107.18,73.76C106.74,73.76 106.3,73.76 105.86,73.76C105.42,73.76 104.98,73.76 104.54,73.76C104.1,73.76 103.65,73.76 103.21,73.76C102.77,73.76 102.33,73.76 101.89,73.76C101.45,73.76 101.01,73.76 100.57,73.76C100.13,73.76 99.68,73.76 99.24,73.76C98.8,73.76 98.36,73.76 97.92,73.76C97.48,73.76 97.04,73.76 96.6,73.76C96.16,73.76 95.71,73.76 95.27,73.76C94.83,73.76 94.39,73.76 93.95,73.76C93.51,73.76 93.07,73.76 92.63,73.76C92.19,73.76 91.74,73.76 91.3,73.76C90.86,73.76 90.42,73.76 89.98,73.76C89.54,73.76 89.1,73.76 88.66,73.76C88.22,73.76 87.77,73.76 87.33,73.76C86.89,73.76 86.45,73.76 86.01,73.76C85.57,73.76 85.13,73.76 84.69,73.76C84.25,73.76 83.8,73.76 83.36,73.76C82.92,73.76 82.48,73.76 82.04,73.76C81.6,73.76 81.16,73.76 80.72,73.76C80.28,73.76 79.83,73.76 79.39,73.76C78.95,73.76 78.51,73.76 78.07,73.76C77.63,73.76 77.19,73.76 76.75,73.76C76.31,73.76 75.86,73.76 75.42,73.76C74.98,73.76 74.54,73.76 74.1,73.76C73.66,73.76 73.22,73.76 72.78,73.76C72.34,73.76 71.89,73.76 71.45,73.76C71.01,73.76 70.57,73.76 70.13,73.76C69.69,73.76 69.25,73.76 68.81,73.76C68.37,73.76 67.92,73.76 67.48,73.76C67.04,73.76 66.6,73.76 66.16,73.76C65.72,73.76 65.28,73.76 64.84,73.76C64.4,73.76 63.96,73.76 63.52,73.76C63.08,73.76 62.63,73.76 62.19,73.76C61.75,73.76 61.31,73.76 60.87,73.76C60.43,73.76 59.99,73.76 59.55,73.76C59.11,73.76 58.66,73.76 58.22,73.76C57.78,73.76 57.34,73.76 56.9,73.76C56.46,73.76 56.02,73.76 55.58,73.76C55.14,73.76 54.69,73.76 54.25,73.76C53.81,73.76 53.37,73.76 52.93,73.76C52.49,73.76 52.05,73.76 51.61,73.76C51.17,73.76 50.72,73.76 50.28,73.76C49.84,73.76 49.4,73.76 48.96,73.76C48.52,73.76 48.08,73.76 47.64,73.76C47.2,73.76 46.75,73.76 46.31,73.76C45.87,73.76 45.43,73.76 44.99,73.76C44.55,73.76 44.11,73.76 43.67,73.76C43.23,73.76 42.78,73.76 42.34,73.76C41.9,73.76 41.46,73.76 41.02,73.76C40.58,73.76 40.14,73.76 39.7,73.76C39.26,73.76 38.81,73.76 38.37,73.76C37.93,73.76 37.49,73.76 37.05,73.76C36.61,73.76 36.17,73.76 35.73,73.76C35.29,73.76 34.84,73.76 34.4,73.76C33.96,73.76 33.52,73.76 33.08,73.76C32.64,73.76 32.2,73.76 31.76,73.76C31.32,73.76 30.87,73.76 30.43,73.76C29.99,73.76 29.55,73.76 29.11,73.76C28.67,73.76 28.23,73.76 27.79,73.76C27.35,73.76 26.9,73.76 26.46,73.76C26.02,73.76 25.58,73.76 25.14,73.76C24.7,73.76 24.26,73.76 23.82,73.76C23.38,73.76 22.93,73.76 22.49,73.76C22.05,73.76 21.61,73.76 21.17,73.76C20.73,73.76 20.29,73.76 19.85,73.76C19.41,73.76 18.97,73.76 18.53,73.76C18.09,73.76 17.64,73.76 17.2,73.76C16.76,73.76 16.32,73.76 15.88,73.76C15.44,73.76 15,73.76 14.56,73.76C14.12,73.76 13.67,73.76 13.23,73.76C12.79,73.76 12.35,73.76 11.91,73.76C11.47,73.76 11.03,73.76 10.59,73.76C10.15,73.76 9.7,73.76 9.26,73.76C8.82,73.76 8.38,73.76 7.94,73.76C7.5,73.76 7.06,73.76 6.62,73.76C6.18,73.76 5.73,73.76 5.29,73.76C4.85,73.76 4.41,73.76 3.97,73.76C3.53,73.76 3.09,73.76 2.65,73.76C2.21,73.76 1.76,73.76 1.32,73.76Q0.88,73.76 0,73.76L0,0L131,0Z" style="stroke: none; fill: rgb(60, 108, 77);"/><path d="M131,60.76Q130.12,60.76 129.68,60.76C129.24,60.76 128.79,60.76 128.35,60.76C127.91,60.76 127.47,60.76 127.03,60.76C126.59,60.76 126.15,60.76 125.71,60.76C125.27,60.76 124.82,60.76 124.38,60.76C123.94,60.76 123.5,60.76 123.06,60.76C122.62,60.76 122.18,60.76 121.74,60.76C121.3,60.76 120.85,60.76 120.41,60.76C119.97,60.76 119.53,60.76 119.09,60.76C118.65,60.76 118.21,60.76 117.77,60.76C117.33,60.76 116.88,60.76 116.44,60.76C116,60.76 115.56,60.76 115.12,60.76C114.68,60.76 114.24,60.76 113.8,60.76C113.36,60.76 112.91,60.76 112.47,60.76C112.03,60.76 111.59,60.76 111.15,60.76C110.71,60.76 110.27,60.76 109.83,60.76C109.39,60.76 108.95,60.76 108.51,60.76C108.07,60.76 107.62,60.76 107.18,60.76C106.74,60.76 106.3,60.76 105.86,60.76C105.42,60.76 104.98,60.76 104.54,60.76C104.1,60.76 103.65,60.76 103.21,60.76C102.77,60.76 102.33,60.76 101.89,60.76C101.45,60.76 101.01,60.76 100.57,60.76C100.13,60.76 99.68,60.76 99.24,60.76C98.8,60.76 98.36,60.76 97.92,60.76C97.48,60.76 97.04,60.76 96.6,60.76C96.16,60.76 95.71,60.76 95.27,60.76C94.83,60.76 94.39,60.76 93.95,60.76C93.51,60.76 93.07,60.76 92.63,60.76C92.19,60.76 91.74,60.76 91.3,60.76C90.86,60.76 90.42,60.76 89.98,60.76C89.54,60.76 89.1,60.76 88.66,60.76C88.22,60.76 87.77,60.76 87.33,60.76C86.89,60.76 86.45,60.76 86.01,60.76C85.57,60.76 85.13,60.76 84.69,60.76C84.25,60.76 83.8,60.76 83.36,60.76C82.92,60.76 82.48,60.76 82.04,60.76C81.6,60.76 81.16,60.76 80.72,60.76C80.28,60.76 79.83,60.76 79.39,60.76C78.95,60.76 78.51,60.76 78.07,60.76C77.63,60.76 77.19,60.76 76.75,60.76C76.31,60.76 75.86,60.76 75.42,60.76C74.98,60.76 74.54,60.76 74.1,60.76C73.66,60.76 73.22,60.76 72.78,60.76C72.34,60.76 71.89,60.76 71.45,60.76C71.01,60.76 70.57,60.76 70.13,60.76C69.69,60.76 69.25,60.76 68.81,60.76C68.37,60.76 67.92,60.76 67.48,60.76C67.04,60.76 66.6,60.76 66.16,60.76C65.72,60.76 65.28,60.76 64.84,60.76C64.4,60.76 63.96,60.76 63.52,60.76C63.08,60.76 62.63,60.76 62.19,60.76C61.75,60.76 61.31,60.76 60.87,60.76C60.43,60.76 59.99,60.76 59.55,60.76C59.11,60.76 58.66,60.76 58.22,60.76C57.78,60.76 57.34,60.76 56.9,60.76C56.46,60.76 56.02,60.76 55.58,60.76C55.14,60.76 54.69,60.76 54.25,60.76C53.81,60.76 53.37,60.76 52.93,60.76C52.49,60.76 52.05,60.76 51.61,60.76C51.17,60.76 50.72,60.76 50.28,60.76C49.84,60.76 49.4,60.76 48.96,60.76C48.52,60.76 48.08,60.76 47.64,60.76C47.2,60.76 46.75,60.76 46.31,60.76C45.87,60.76 45.43,60.76 44.99,60.76C44.55,60.76 44.11,60.76 43.67,60.76C43.23,60.76 42.78,60.76 42.34,60.76C41.9,60.76 41.46,60.76 41.02,60.76C40.58,60.76 40.14,60.76 39.7,60.76C39.26,60.76 38.81,60.76 38.37,60.76C37.93,60.76 37.49,60.76 37.05,60.76C36.61,60.76 36.17,60.76 35.73,60.76C35.29,60.76 34.84,60.76 34.4,60.76C33.96,60.76 33.52,60.76 33.08,60.76C32.64,60.76 32.2,60.76 31.76,60.76C31.32,60.76 30.87,60.76 30.43,60.76C29.99,60.76 29.55,60.76 29.11,60.76C28.67,60.76 28.23,60.76 27.79,60.76C27.35,60.76 26.9,60.76 26.46,60.76C26.02,60.76 25.58,60.76 25.14,60.76C24.7,60.76 24.26,60.76 23.82,60.76C23.38,60.76 22.93,60.76 22.49,60.76C22.05,60.76 21.61,60.76 21.17,60.76C20.73,60.76 20.29,60.76 19.85,60.76C19.41,60.76 18.97,60.76 18.53,60.76C18.09,60.76 17.64,60.76 17.2,60.76C16.76,60.76 16.32,60.76 15.88,60.76C15.44,60.76 15,60.76 14.56,60.76C14.12,60.76 13.67,60.76 13.23,60.76C12.79,60.76 12.35,60.76 11.91,60.76C11.47,60.76 11.03,60.76 10.59,60.76C10.15,60.76 9.7,60.76 9.26,60.76C8.82,60.76 8.38,60.76 7.94,60.76C7.5,60.76 7.06,60.76 6.62,60.76C6.18,60.76 5.73,60.76 5.29,60.76C4.85,60.76 4.41,60.76 3.97,60.76C3.53,60.76 3.09,60.76 2.65,60.76C2.21,60.76 1.76,60.76 1.32,60.76Q0.88,60.76 0,60.76L0,0L131,0Z" style="stroke: none; fill: rgb(65, 114, 82);"/><path d="M131,44.64Q130.12,44.64 129.68,44.64C129.24,44.64 128.79,44.64 128.35,44.64C127.91,44.64 127.47,44.64 127.03,44.64C126.59,44.64 126.15,44.64 125.71,44.64C125.27,44.64 124.82,44.64 124.38,44.64C123.94,44.64 123.5,44.64 123.06,44.64C122.62,44.64 122.18,44.64 121.74,44.64C121.3,44.64 120.85,44.64 120.41,44.64C119.97,44.64 119.53,44.64 119.09,44.64C118.65,44.64 118.21,44.64 117.77,44.64C117.33,44.64 116.88,44.64 116.44,44.64C116,44.64 115.56,44.64 115.12,44.64C114.68,44.64 114.24,44.64 113.8,44.64C113.36,44.64 112.91,44.64 112.47,44.64C112.03,44.64 111.59,44.64 111.15,44.64C110.71,44.64 110.27,44.64 109.83,44.64C109.39,44.64 108.95,44.64 108.51,44.64C108.07,44.64 107.62,44.64 107.18,44.64C106.74,44.64 106.3,44.64 105.86,44.64C105.42,44.64 104.98,44.64 104.54,44.64C104.1,44.64 103.65,44.64 103.21,44.64C102.77,44.64 102.33,44.64 101.89,44.64C101.45,44.64 101.01,44.64 100.57,44.64C100.13,44.64 99.68,44.64 99.24,44.64C98.8,44.64 98.36,44.64 97.92,44.64C97.48,44.64 97.04,44.64 96.6,44.64C96.16,44.64 95.71,44.64 95.27,44.64C94.83,44.64 94.39,44.64 93.95,44.64C93.51,44.64 93.07,44.64 92.63,44.64C92.19,44.64 91.74,44.64 91.3,44.64C90.86,44.64 90.42,44.64 89.98,44.64C89.54,44.64 89.1,44.64 88.66,44.64C88.22,44.64 87.77,44.64 87.33,44.64C86.89,44.64 86.45,44.64 86.01,44.64C85.57,44.64 85.13,44.64 84.69,44.64C84.25,44.64 83.8,44.64 83.36,44.64C82.92,44.64 82.48,44.64 82.04,44.64C81.6,44.64 81.16,44.64 80.72,44.64C80.28,44.64 79.83,44.64 79.39,44.64C78.95,44.64 78.51,44.64 78.07,44.64C77.63,44.64 77.19,44.64 76.75,44.64C76.31,44.64 75.86,44.64 75.42,44.64C74.98,44.64 74.54,44.64 74.1,44.64C73.66,44.64 73.22,44.64 72.78,44.64C72.34,44.64 71.89,44.64 71.45,44.64C71.01,44.64 70.57,44.64 70.13,44.64C69.69,44.64 69.25,44.64 68.81,44.64C68.37,44.64 67.92,44.64 67.48,44.64C67.04,44.64 66.6,44.64 66.16,44.64C65.72,44.64 65.28,44.64 64.84,44.64C64.4,44.64 63.96,44.64 63.52,44.64C63.08,44.64 62.63,44.64 62.19,44.64C61.75,44.64 61.31,44.64 60.87,44.64C60.43,44.64 59.99,44.64 59.55,44.64C59.11,44.64 58.66,44.64 58.22,44.64C57.78,44.64 57.34,44.64 56.9,44.64C56.46,44.64 56.02,44.64 55.58,44.64C55.14,44.64 54.69,44.64 54.25,44.64C53.81,44.64 53.37,44.64 52.93,44.64C52.49,44.64 52.05,44.64 51.61,44.64C51.17,44.64 50.72,44.64 50.28,44.64C49.84,44.64 49.4,44.64 48.96,44.64C48.52,44.64 48.08,44.64 47.64,44.64C47.2,44.64 46.75,44.64 46.31,44.64C45.87,44.64 45.43,44.64 44.99,44.64C44.55,44.64 44.11,44.64 43.67,44.64C43.23,44.64 42.78,44.64 42.34,44.64C41.9,44.64 41.46,44.64 41.02,44.64C40.58,44.64 40.14,44.64 39.7,44.64C39.26,44.64 38.81,44.64 38.37,44.64C37.93,44.64 37.49,44.64 37.05,44.64C36.61,44.64 36.17,44.64 35.73,44.64C35.29,44.64 34.84,44.64 34.4,44.64C33.96,44.64 33.52,44.64 33.08,44.64C32.64,44.64 32.2,44.64 31.76,44.64C31.32,44.64 30.87,44.64 30.43,44.64C29.99,44.64 29.55,44.64 29.11,44.64C28.67,44.64 28.23,44.64 27.79,44.64C27.35,44.64 26.9,44.64 26.46,44.64C26.02,44.64 25.58,44.64 25.14,44.64C24.7,44.64 24.26,44.64 23.82,44.64C23.38,44.64 22.93,44.64 22.49,44.64C22.05,44.64 21.61,44.64 21.17,44.64C20.73,44.64 20.29,44.64 19.85,44.64C19.41,44.64 18.97,44.64 18.53,44.64C18.09,44.64 17.64,44.64 17.2,44.64C16.76,44.64 16.32,44.64 15.88,44.64C15.44,44.64 15,44.64 14.56,44.64C14.12,44.64 13.67,44.64 13.23,44.64C12.79,44.64 12.35,44.64 11.91,44.64C11.47,44.64 11.03,44.64 10.59,44.64C10.15,44.64 9.7,44.64 9.26,44.64C8.82,44.64 8.38,44.64 7.94,44.64C7.5,44.64 7.06,44.64 6.62,44.64C6.18,44.64 5.73,44.64 5.29,44.64C4.85,44.64 4.41,44.64 3.97,44.64C3.53,44.64 3.09,44.64 2.65,44.64C2.21,44.64 1.76,44.64 1.32,44.64Q0.88,44.64 0,44.64L0,0L131,0Z" style="stroke: none; fill: rgb(71, 119, 88);"/><path d="M131,24.97Q130.12,24.97 129.68,24.97C129.24,24.97 128.79,24.97 128.35,24.97C127.91,24.97 127.47,24.97 127.03,24.97C126.59,24.97 126.15,24.97 125.71,24.97C125.27,24.97 124.82,24.97 124.38,24.97C123.94,24.97 123.5,24.97 123.06,24.97C122.62,24.97 122.18,24.97 121.74,24.97C121.3,24.97 120.85,24.97 120.41,24.97C119.97,24.97 119.53,24.97 119.09,24.97C118.65,24.97 118.21,24.97 117.77,24.97C117.33,24.97 116.88,24.97 116.44,24.97C116,24.97 115.56,24.97 115.12,24.97C114.68,24.97 114.24,24.97 113.8,24.97C113.36,24.97 112.91,24.97 112.47,24.97C112.03,24.97 111.59,24.97 111.15,24.97C110.71,24.97 110.27,24.97 109.83,24.97C109.39,24.97 108.95,24.97 108.51,24.97C108.07,24.97 107.62,24.97 107.18,24.97C106.74,24.97 106.3,24.97 105.86,24.97C105.42,24.97 104.98,24.97 104.54,24.97C104.1,24.97 103.65,24.97 103.21,24.97C102.77,24.97 102.33,24.97 101.89,24.97C101.45,24.97 101.01,24.97 100.57,24.97C100.13,24.97 99.68,24.97 99.24,24.97C98.8,24.97 98.36,24.97 97.92,24.97C97.48,24.97 97.04,24.97 96.6,24.97C96.16,24.97 95.71,24.97 95.27,24.97C94.83,24.97 94.39,24.97 93.95,24.97C93.51,24.97 93.07,24.97 92.63,24.97C92.19,24.97 91.74,24.97 91.3,24.97C90.86,24.97 90.42,24.97 89.98,24.97C89.54,24.97 89.1,24.97 88.66,24.97C88.22,24.97 87.77,24.97 87.33,24.97C86.89,24.97 86.45,24.97 86.01,24.97C85.57,24.97 85.13,24.97 84.69,24.97C84.25,24.97 83.8,24.97 83.36,24.97C82.92,24.97 82.48,24.97 82.04,24.97C81.6,24.97 81.16,24.97 80.72,24.97C80.28,24.97 79.83,24.97 79.39,24.97C78.95,24.97 78.51,24.97 78.07,24.97C77.63,24.97 77.19,24.97 76.75,24.97C76.31,24.97 75.86,24.97 75.42,24.97C74.98,24.97 74.54,24.97 74.1,24.97C73.66,24.97 73.22,24.97 72.78,24.97C72.34,24.97 71.89,24.97 71.45,24.97C71.01,24.97 70.57,24.97 70.13,24.97C69.69,24.97 69.25,24.97 68.81,24.97C68.37,24.97 67.92,24.97 67.48,24.97C67.04,24.97 66.6,24.97 66.16,24.97C65.72,24.97 65.28,24.97 64.84,24.97C64.4,24.97 63.96,24.97 63.52,24.97C63.08,24.97 62.63,24.97 62.19,24.97C61.75,24.97 61.31,24.97 60.87,24.97C60.43,24.97 59.99,24.97 59.55,24.97C59.11,24.97 58.66,24.97 58.22,24.97C57.78,24.97 57.34,24.97 56.9,24.97C56.46,24.97 56.02,24.97 55.58,24.97C55.14,24.97 54.69,24.97 54.25,24.97C53.81,24.97 53.37,24.97 52.93,24.97C52.49,24.97 52.05,24.97 51.61,24.97C51.17,24.97 50.72,24.97 50.28,24.97C49.84,24.97 49.4,24.97 48.96,24.97C48.52,24.97 48.08,24.97 47.64,24.97C47.2,24.97 46.75,24.97 46.31,24.97C45.87,24.97 45.43,24.97 44.99,24.97C44.55,24.97 44.11,24.97 43.67,24.97C43.23,24.97 42.78,24.97 42.34,24.97C41.9,24.97 41.46,24.97 41.02,24.97C40.58,24.97 40.14,24.97 39.7,24.97C39.26,24.97 38.81,24.97 38.37,24.97C37.93,24.97 37.49,24.97 37.05,24.97C36.61,24.97 36.17,24.97 35.73,24.97C35.29,24.97 34.84,24.97 34.4,24.97C33.96,24.97 33.52,24.97 33.08,24.97C32.64,24.97 32.2,24.97 31.76,24.97C31.32,24.97 30.87,24.97 30.43,24.97C29.99,24.97 29.55,24.97 29.11,24.97C28.67,24.97 28.23,24.97 27.79,24.97C27.35,24.97 26.9,24.97 26.46,24.97C26.02,24.97 25.58,24.97 25.14,24.97C24.7,24.97 24.26,24.97 23.82,24.97C23.38,24.97 22.93,24.97 22.49,24.97C22.05,24.97 21.61,24.97 21.17,24.97C20.73,24.97 20.29,24.97 19.85,24.97C19.41,24.97 18.97,24.97 18.53,24.97C18.09,24.97 17.64,24.97 17.2,24.97C16.76,24.97 16.32,24.97 15.88,24.97C15.44,24.97 15,24.97 14.56,24.97C14.12,24.97 13.67,24.97 13.23,24.97C12.79,24.97 12.35,24.97 11.91,24.97C11.47,24.97 11.03,24.97 10.59,24.97C10.15,24.97 9.7,24.97 9.26,24.97C8.82,24.97 8.38,24.97 7.94,24.97C7.5,24.97 7.06,24.97 6.62,24.97C6.18,24.97 5.73,24.97 5.29,24.97C4.85,24.97 4.41,24.97 3.97,24.97C3.53,24.97 3.09,24.97 2.65,24.97C2.21,24.97 1.76,24.97 1.32,24.97Q0.88,24.97 0,24.97L0,0L131,0Z" style="stroke: none; fill: rgb(76, 125, 93);"/><path d="M131,0.82Q130.12,0.82 129.68,0.82C129.24,0.82 128.79,0.82 128.35,0.82C127.91,0.82 127.47,0.82 127.03,0.82C126.59,0.82 126.15,0.82 125.71,0.82C125.27,0.82 124.82,0.82 124.38,0.82C123.94,0.82 123.5,0.82 123.06,0.82C122.62,0.82 122.18,0.82 121.74,0.82C121.3,0.82 120.85,0.82 120.41,0.82C119.97,0.82 119.53,0.82 119.09,0.82C118.65,0.82 118.21,0.82 117.77,0.82C117.33,0.82 116.88,0.82 116.44,0.82C116,0.82 115.56,0.82 115.12,0.82C114.68,0.82 114.24,0.82 113.8,0.82C113.36,0.82 112.91,0.82 112.47,0.82C112.03,0.82 111.59,0.82 111.15,0.82C110.71,0.82 110.27,0.82 109.83,0.82C109.39,0.82 108.95,0.82 108.51,0.82C108.07,0.82 107.62,0.82 107.18,0.82C106.74,0.82 106.3,0.82 105.86,0.82C105.42,0.82 104.98,0.82 104.54,0.82C104.1,0.82 103.65,0.82 103.21,0.82C102.77,0.82 102.33,0.82 101.89,0.82C101.45,0.82 101.01,0.82 100.57,0.82C100.13,0.82 99.68,0.82 99.24,0.82C98.8,0.82 98.36,0.82 97.92,0.82C97.48,0.82 97.04,0.82 96.6,0.82C96.16,0.82 95.71,0.82 95.27,0.82C94.83,0.82 94.39,0.82 93.95,0.82C93.51,0.82 93.07,0.82 92.63,0.82C92.19,0.82 91.74,0.82 91.3,0.82C90.86,0.82 90.42,0.82 89.98,0.82C89.54,0.82 89.1,0.82 88.66,0.82C88.22,0.82 87.77,0.82 87.33,0.82C86.89,0.82 86.45,0.82 86.01,0.82C85.57,0.82 85.13,0.82 84.69,0.82C84.25,0.82 83.8,0.82 83.36,0.82C82.92,0.82 82.48,0.82 82.04,0.82C81.6,0.82 81.16,0.82 80.72,0.82C80.28,0.82 79.83,0.82 79.39,0.82C78.95,0.82 78.51,0.82 78.07,0.82C77.63,0.82 77.19,0.82 76.75,0.82C76.31,0.82 75.86,0.82 75.42,0.82C74.98,0.82 74.54,0.82 74.1,0.82C73.66,0.82 73.22,0.82 72.78,0.82C72.34,0.82 71.89,0.82 71.45,0.82C71.01,0.82 70.57,0.82 70.13,0.82C69.69,0.82 69.25,0.82 68.81,0.82C68.37,0.82 67.92,0.82 67.48,0.82C67.04,0.82 66.6,0.82 66.16,0.82C65.72,0.82 65.28,0.82 64.84,0.82C64.4,0.82 63.96,0.82 63.52,0.82C63.08,0.82 62.63,0.82 62.19,0.82C61.75,0.82 61.31,0.82 60.87,0.82C60.43,0.82 59.99,0.82 59.55,0.82C59.11,0.82 58.66,0.82 58.22,0.82C57.78,0.82 57.34,0.82 56.9,0.82C56.46,0.82 56.02,0.82 55.58,0.82C55.14,0.82 54.69,0.82 54.25,0.82C53.81,0.82 53.37,0.82 52.93,0.82C52.49,0.82 52.05,0.82 51.61,0.82C51.17,0.82 50.72,0.82 50.28,0.82C49.84,0.82 49.4,0.82 48.96,0.82C48.52,0.82 48.08,0.82 47.64,0.82C47.2,0.82 46.75,0.82 46.31,0.82C45.87,0.82 45.43,0.82 44.99,0.82C44.55,0.82 44.11,0.82 43.67,0.82C43.23,0.82 42.78,0.82 42.34,0.82C41.9,0.82 41.46,0.82 41.02,0.82C40.58,0.82 40.14,0.82 39.7,0.82C39.26,0.82 38.81,0.82 38.37,0.82C37.93,0.82 37.49,0.82 37.05,0.82C36.61,0.82 36.17,0.82 35.73,0.82C35.29,0.82 34.84,0.82 34.4,0.82C33.96,0.82 33.52,0.82 33.08,0.82C32.64,0.82 32.2,0.82 31.76,0.82C31.32,0.82 30.87,0.82 30.43,0.82C29.99,0.82 29.55,0.82 29.11,0.82C28.67,0.82 28.23,0.82 27.79,0.82C27.35,0.82 26.9,0.82 26.46,0.82C26.02,0.82 25.58,0.82 25.14,0.82C24.7,0.82 24.26,0.82 23.82,0.82C23.38,0.82 22.93,0.82 22.49,0.82C22.05,0.82 21.61,0.82 21.17,0.82C20.73,0.82 20.29,0.82 19.85,0.82C19.41,0.82 18.97,0.82 18.53,0.82C18.09,0.82 17.64,0.82 17.2,0.82C16.76,0.82 16.32,0.82 15.88,0.82C15.44,0.82 15,0.82 14.56,0.82C14.12,0.82 13.67,0.82 13.23,0.82C12.79,0.82 12.35,0.82 11.91,0.82C11.47,0.82 11.03,0.82 10.59,0.82C10.15,0.82 9.7,0.82 9.26,0.82C8.82,0.82 8.38,0.82 7.94,0.82C7.5,0.82 7.06,0.82 6.62,0.82C6.18,0.82 5.73,0.82 5.29,0.82C4.85,0.82 4.41,0.82 3.97,0.82C3.53,0.82 3.09,0.82 2.65,0.82C2.21,0.82 1.76,0.82 1.32,0.82Q0.88,0.82 0,0.82L0,0L131,0Z" style="stroke: none; fill: rgb(82, 130, 99);"/></g><g class="contourlines"/></g></g></g></g><g class="zerolinelayer-above"/><path class="xlines-above crisp" d="M35.5,146.25H167.5M35.5,17.75H167.5" style="fill: none; stroke-width: 0.5px; stroke: rgb(0, 0, 0); stroke-opacity: 1;"/><path class="ylines-above crisp" d="M35.75,18V146M167.25,18V146" style="fill: none; stroke-width: 0.5px; stroke: rgb(0, 0, 0); stroke-opacity: 1;"/><g class="overlines-above"/><g class="xaxislayer-above"><path class="xtick ticks crisp" d="M0,146v-5" transform="translate(101.5,0)" style="stroke: rgb(0, 0, 0); stroke-opacity: 1; stroke-width: 0.5px;"/><g class="xtick"><text text-anchor="middle" x="0" y="159.7" transform="translate(36,0)" style="font-family: 'Open Sans', verdana, arial, sans-serif; font-size: 11px; fill: rgb(0, 0, 0); fill-opacity: 1; white-space: pre;">0</text></g><g class="xtick"><text text-anchor="middle" x="0" y="159.7" style="font-family: 'Open Sans', verdana, arial, sans-serif; font-size: 11px; fill: rgb(0, 0, 0); fill-opacity: 1; white-space: pre;" transform="translate(101.5,0)">0.5</text></g><g class="xtick"><text text-anchor="middle" x="0" y="159.7" style="font-family: 'Open Sans', verdana, arial, sans-serif; font-size: 11px; fill: rgb(0, 0, 0); fill-opacity: 1; white-space: pre;" transform="translate(167,0)">1</text></g></g><g class="yaxislayer-above"><path class="ytick ticks crisp" d="M36,0h5" transform="translate(0,82)" style="stroke: rgb(0, 0, 0); stroke-opacity: 1; stroke-width: 0.5px;"/><g class="ytick"><text text-anchor="end" x="33.3" y="3.8499999999999996" transform="translate(0,146)" style="font-family: 'Open Sans', verdana, arial, sans-serif; font-size: 11px; fill: rgb(0, 0, 0); fill-opacity: 1; white-space: pre;">0</text></g><g class="ytick"><text text-anchor="end" x="33.3" y="3.8499999999999996" style="font-family: 'Open Sans', verdana, arial, sans-serif; font-size: 11px; fill: rgb(0, 0, 0); fill-opacity: 1; white-space: pre;" transform="translate(0,82)">0.5</text></g><g class="ytick"><text text-anchor="end" x="33.3" y="3.8499999999999996" style="font-family: 'Open Sans', verdana, arial, sans-serif; font-size: 11px; fill: rgb(0, 0, 0); fill-opacity: 1; white-space: pre;" transform="translate(0,18)">1</text></g></g><g class="overaxes-above"/></g></g><g class="polarlayer"/><g class="smithlayer"/><g class="ternarylayer"/><g class="geolayer"/><g class="funnelarealayer"/><g class="pielayer"/><g class="iciclelayer"/><g class="treemaplayer"/><g class="sunburstlayer"/><g class="glimages"/><defs id="topdefs-509710"><g class="clips"/></defs><g class="layer-above"><g class="imagelayer"/><g class="shapelayer"/></g><g class="infolayer"><g class="g-gtitle"/><g class="g-xtitle" transform="translate(0,4.550000000000011)"><text class="xtitle" x="101.5" y="170.1501953125" text-anchor="middle" style="opacity: 1; font-family: 'Open Sans', verdana, arial, sans-serif; font-size: 11px; fill: rgb(0, 0, 0); fill-opacity: 1; white-space: pre;">Death rate EcN (1/h)</text></g><g class="g-ytitle"><text class="ytitle" transform="rotate(-90,14.184179687499999,82)" x="14.184179687499999" y="82" text-anchor="middle" style="opacity: 1; font-family: 'Open Sans', verdana, arial, sans-serif; font-size: 11px; fill: rgb(0, 0, 0); fill-opacity: 1; white-space: pre;">Degradation rate ST (1/h)</text></g></g></svg>