<svg class="main-svg" xmlns="http://www.w3.org/2000/svg" xmlns:xlink="http://www.w3.org/1999/xlink" width="180" height="180" style="" viewBox="0 0 180 180"><rect x="0" y="0" width="180" height="180" style="fill: rgb(255, 255, 255); fill-opacity: 1;"/><defs id="defs-4b9c06"><g class="clips"><clipPath id="clip4b9c06xyplot" class="plotclip"><rect width="133" height="135"/></clipPath><clipPath class="axesclip" id="clip4b9c06x"><rect x="36" y="0" width="133" height="180"/></clipPath><clipPath class="axesclip" id="clip4b9c06y"><rect x="0" y="11" width="180" height="135"/></clipPath><clipPath class="axesclip" id="clip4b9c06xy"><rect x="36" y="11" width="133" height="135"/></clipPath><clipPath class="contourclip" id="clip604d56"><path d="M133,29.13Q126,29.13 126,29.13C126,29.13 119,29.13 119,29.13C119,29.13 112,29.13 112,29.13C112,29.13 105,29.13 105,29.13C105,29.13 98,29.13 98,29.13C98,29.13 91,29.13 91,29.13C91,29.13 84,29.13 84,29.13C84,29.13 77,29.13 77,29.13C77,29.13 70,29.13 70,29.13C70,29.13 63,29.13 63,29.13C63,29.13 56,29.13 56,29.13C56,29.13 49,29.13 49,29.13C49,29.13 42,29.13 42,29.13C42,29.13 35,29.13 35,29.13C35,29.13 28,29.13 28,29.13C28,29.13 21,29.13 21,29.13C21,29.13 14,29.13 14,29.13C14,29.13 7,29.13 7,29.13Q7,29.13 0,29.13L0,0L133,0Z"/></clipPath></g><g class="gradients"/><g class="patterns"/></defs><g class="bglayer"/><g class="layer-below"><g class="imagelayer"/><g class="shapelayer"/></g><g class="cartesianlayer"><g class="subplot xy"><g class="layer-subplot"><g class="shapelayer"/><g class="imagelayer"/></g><g class="minor-gridlayer"><g class="x"/><g class="y"/></g><g class="gridlayer"><g class="x"/><g class="y"/></g><g class="zerolinelayer"/><g class="layer-between"><g class="shapelayer"/><g class="imagelayer"/></g><path class="xlines-below"/><path class="ylines-below"/><g class="overlines-below"/><g class="xaxislayer-below"/><g class="yaxislayer-below"/><g class="overaxes-below"/><g class="overplot"><g class="xy" transform="translate(36,11)" clip-path="url(#clip4b9c06xyplot)"><g class="contourlayer mlayer"><g class="contour" clip-path="url(#clip604d56)" style="opacity: 1;"><g class="heatmapcoloring"/><g class="contourbg"><path d="M0,0L133,0L133,135L0,135Z" style="stroke: none; fill: rgb(49, 97, 66);"/></g><g class="contourfill"><path d="M0,0L133,0L133,135L0,135Z" style="stroke: none; fill: rgb(54, 103, 71);"/><path d="M0,0L133,0L133,135L0,135Z" style="stroke: none; fill: rgb(60, 108, 77);"/><path d="M0,0L133,0L133,135L0,135Z" style="stroke: none; fill: rgb(65, 114, 82);"/><path d="M0,0L133,0L133,135L0,135Z" style="stroke: none; fill: rgb(71, 119, 88);"/><path d="M0,0L133,0L133,135L0,135Z" style="stroke: none; fill: rgb(76, 125, 93);"/><path d="M0,0L133,0L133,135L0,135Z" style="stroke: none; fill: rgb(82, 130, 99);"/><path d="M0,0L133,0L133,135L0,135Z" style="stroke: none; fill: rgb(87, 136, 104);"/><path d="M0,0L133,0L133,135L0,135Z" style="stroke: none; fill: rgb(92, 141, 110);"/><path d="M0,0L133,0L133,135L0,135Z" style="stroke: none; fill: rgb(98, 147, 115);"/><path d="M0,0L133,0L133,135L0,135Z" style="stroke: none; fill: rgb(103, 152, 121);"/><path d="M0,0L133,0L133,135L0,135Z" style="stroke: none; fill: rgb(109, 158, 126);"/><path d="M133,24.79Q128.26,26.14 126,26.76C123.88,27.34 119.86,27.76 119.83,28.42C119.8,29.09 123.86,30.09 126,30.78Q128.24,31.51 133,32.65L133,135L0,135L0,0L133,0Z" style="stroke: none; fill: rgb(114, 163, 132);"/><path d="M133,16.39Q128.33,17.64 126,18.28C123.66,18.93 120.92,19.69 119,20.26C117.65,20.66 116.71,20.96 115.55,21.32C114.37,21.69 113.38,22.02 112,22.46C110.06,23.08 107.33,23.94 105,24.68C102.67,25.42 100.07,26.23 98,26.91C96.34,27.45 93.54,27.85 93.52,28.42C93.5,29 96.36,29.56 98,30.36C100.09,31.38 103.24,33.22 105,34.17C106.06,34.74 106.59,34.96 107.54,35.53C108.84,36.31 110.32,37.51 112,38.51C114.04,39.73 117.64,41.59 119,42.2C119.54,42.44 119.63,42.42 120.16,42.63C121.36,43.11 123.93,44.45 126,45.1Q128.2,45.79 133,46.6L133,135L0,135L0,0L133,0Z" style="stroke: none; fill: rgb(119, 169, 137);"/><path d="M133,7.99Q128.33,9.2 126,9.87C123.66,10.55 121.23,11.29 119,12.04C116.94,12.74 114.28,13.82 113.09,14.21C112.59,14.37 112.52,14.37 112,14.52C110.68,14.9 107.33,15.86 105,16.59C102.66,17.33 100.22,18.12 98,18.94C95.94,19.7 93.29,20.89 92.1,21.32C91.59,21.51 91.52,21.5 91,21.68C89.67,22.13 85.16,22.68 84,24.09C83.11,25.17 83.33,27.22 83.41,28.42C83.46,29.28 83.44,29.9 84,30.62C85.05,31.97 89.48,33.65 91,34.53C91.75,34.96 92,34.98 92.66,35.53C94.01,36.66 96.86,40.56 98,41.69C98.48,42.17 98.62,42.14 99.1,42.63C100.32,43.87 102.93,47.38 105,49.74C107.16,52.19 109.46,54.79 111.825,57.06C114.13,59.27 117.48,62.17 119,63.2C119.63,63.63 119.81,63.6 120.44,63.95C121.7,64.66 123.98,66.45 126,67.34Q128.14,68.28 133,69.37L133,135L0,135L0,0L133,0Z" style="stroke: none; fill: rgb(125, 174, 143);"/><path d="M111.1,0Q107.08,1.43 105,2.38C102.72,3.42 99.53,5.19 98,6.06C97.23,6.5 97.05,6.74 96.31,7.11C95.05,7.74 92.87,8.32 91,9.16C88.8,10.15 85.66,11.85 84,12.81C83.05,13.36 82.72,13.75 81.82,14.21C80.55,14.86 78.73,15.31 77,16.11C74.86,17.1 71.66,18.84 70,19.84C69.04,20.42 67.73,21.06 67.8,21.32C67.86,21.55 69.06,21.38 70,21.43C71.68,21.52 75.01,20.77 77,21.79C79.19,22.91 81.17,26.12 82.34,28.42C83.35,30.42 83.19,33.53 84,34.62C84.42,35.19 84.97,34.97 85.47,35.53C86.54,36.73 87.88,40.23 88.81,42.63C89.72,44.97 90.28,47.36 91.005,49.730000000000004C91.74,52.1 92.52,54.46 93.19,56.84C93.85,59.2 94.42,61.58 94.99,63.95C95.56,66.31 96.09,68.7 96.6,71.05C97.11,73.37 97.55,75.63 98.055,77.965C98.58,80.37 99.17,82.84 99.69,85.26C100.2,87.64 100.68,90 101.16,92.37C101.64,94.74 102.1,97.1 102.55,99.47C103,101.84 103.44,104.24 103.87,106.58C104.29,108.86 104.64,111.03 105.08,113.33500000000001C105.54,115.76 106.11,118.33 106.59,120.79C107.06,123.18 107.5,125.52 107.93,127.89Q108.35,130.26 109.14,135L0,135L0,0Z" style="stroke: none; fill: rgb(130, 180, 148);"/><path d="M50.66,0Q49.54,1.95 49,3.05C48.39,4.3 47.95,5.59 47.2,7.11C46.19,9.17 44.36,12.63 43.36,14.21C42.83,15.05 42.51,15.27 42,16.07C41.18,17.36 38.66,20.55 39.08,21.32C39.37,21.86 40.82,21.44 42,21.51C43.83,21.62 46.67,21.77 49,21.89C51.33,22.01 53.67,22.11 56,22.22C58.33,22.33 60.67,22.43 63,22.53C65.33,22.63 67.67,22.73 70,22.83C72.33,22.93 75.11,22.16 77,23.11C78.86,24.05 80.47,26.38 81.28,28.42C82.1,30.51 81.69,33.16 81.8,35.53C81.91,37.9 82.02,40.26 81.97,42.63C81.92,45 81.76,47.38 81.51,49.74C81.26,52.11 80.9,54.48 80.48,56.84C80.05,59.22 79.53,61.59 78.95,63.95C78.37,66.32 77.72,68.68 76.995,71.03999999999999C76.26,73.42 75.43,75.8 74.58,78.16C73.73,80.54 72.7,83.13 71.88,85.26C71.2,87.02 70.56,88.76 70,90.06C69.61,90.98 69.36,91.39 68.92,92.37C68.15,94.09 66.84,97.11 65.84,99.47C64.85,101.8 63.88,104.1 62.935,106.44999999999999C61.98,108.83 60.96,111.26 60.13,113.68C59.32,116.04 58.57,118.41 57.98,120.79C57.4,123.14 56.92,125.51 56.62,127.89Q56.32,130.25 56.18,135L0,135L0,0Z" style="stroke: none; fill: rgb(136, 185, 154);"/><path d="M27.75,0Q27.53,4.74 27.43,7.11C27.33,9.48 27.24,11.84 27.17,14.21C27.1,16.58 26.51,20.07 27.01,21.32C27.23,21.88 27.45,22.06 28,22.32C29.23,22.89 32.67,22.72 35,22.87C37.33,23.02 39.67,23.13 42,23.24C44.33,23.35 46.67,23.44 49,23.53C51.33,23.62 53.67,23.69 56,23.77C58.33,23.85 60.67,23.92 63,24C65.33,24.08 67.67,24.16 70,24.23C72.33,24.3 75.25,23.57 77,24.44C78.5,25.18 79.79,26.79 80.21,28.42C80.71,30.36 79.5,33.27 78.94,35.53C78.41,37.67 77.66,40.53 77,41.66C76.7,42.17 76.47,42.13 76.1,42.63C75.17,43.88 73.09,47.75 71.98,49.74C71.19,51.16 70.79,52.25 70,53.42C69.19,54.62 68.18,55.54 67.17,56.84C65.89,58.48 64.07,61.3 63,62.54C62.43,63.2 62.19,63.3 61.57,63.95C60.31,65.28 57.13,69.08 56,70.19C55.55,70.63 55.46,70.63 54.99,71.05C53.82,72.11 50.42,75.62 49,76.84C48.27,77.46 47.99,77.57 47.27,78.16C45.98,79.21 43.64,81.44 42,82.7C40.67,83.72 39.44,84.39 38.25,85.26C37.11,86.09 36.33,86.89 35,87.82C33.1,89.15 30.19,90.86 27.810000000000002,92.275C25.52,93.64 23.36,95.01 21,96.18C18.6,97.37 15.93,98.38 13.504999999999999,99.325C11.27,100.19 9.24,101.12 7,101.65Q4.74,102.19 0,102.51L0,0Z" style="stroke: none; fill: rgb(141, 191, 159);"/><path d="M25.3,0Q24.95,4.74 24.87,7.11C24.79,9.48 24.79,11.84 24.81,14.21C24.83,16.58 24.24,19.55 25,21.32C25.59,22.69 26.64,23.74 28,24.35C29.74,25.13 32.67,24.62 35,24.72C37.33,24.82 39.67,24.9 42,24.97C44.33,25.04 46.67,25.1 49,25.16C51.33,25.22 53.67,25.27 56,25.32C58.33,25.37 60.67,25.43 63,25.48C65.33,25.53 67.67,25.57 70,25.62C72.33,25.67 75.44,25 77,25.77C78.09,26.3 78.94,27.29 79.14,28.42C79.41,29.99 78.05,33.44 77,34.55C76.34,35.25 75.46,34.94 74.6,35.53C73.22,36.49 71.52,39.25 70,40.49C68.81,41.46 67.59,41.78 66.46,42.63C65.25,43.54 64.39,44.75 63,45.83C61.2,47.22 58.67,48.64 56.394999999999996,50.065C54.01,51.56 51.22,53.41 49,54.61C47.28,55.54 45.58,56.17 44.3,56.84C43.39,57.32 42.99,57.65 42,58.15C40.31,59 37.37,60.33 35,61.28C32.62,62.24 30.13,63.07 27.744999999999997,63.875C25.46,64.65 23.28,65.39 21,66.02C18.7,66.66 16.34,67.21 14,67.68C11.67,68.15 9.34,68.56 7,68.83Q4.67,69.1 0,69.28L0,0Z" style="stroke: none; fill: rgb(147, 196, 165);"/><path d="M22.84,0Q22.37,4.74 22.31,7.11C22.25,9.48 22.34,11.84 22.45,14.21C22.56,16.58 22.06,19.29 22.99,21.32C23.92,23.35 25.99,25.52 28,26.39C30,27.25 32.67,26.52 35,26.57C37.33,26.62 39.67,26.65 42,26.69C44.33,26.73 46.67,26.76 49,26.79C51.33,26.82 53.67,26.84 56,26.87C58.33,26.9 60.67,26.92 63,26.95C65.33,26.97 67.67,27 70,27.02C72.33,27.04 75.75,26.48 77,27.09C77.62,27.39 77.97,27.85 78.07,28.42C78.21,29.2 77.84,30.69 77,31.49C75.75,32.68 72.31,32.83 70,33.53C67.72,34.22 65.52,34.9 63.230000000000004,35.655C60.85,36.44 58.4,37.42 56,38.17C53.66,38.91 51.34,39.53 49,40.14C46.67,40.75 43.99,41.41 42,41.85C40.53,42.18 39.37,42.36 38.15,42.63C37.05,42.87 36.26,43.11 35,43.38C33.13,43.78 30.34,44.3 28,44.7C25.67,45.1 23.34,45.45 21,45.76C18.67,46.07 16.34,46.34 14,46.57C11.67,46.8 9.33,47 7,47.13Q4.67,47.26 0,47.37L0,0Z" style="stroke: none; fill: rgb(152, 202, 170);"/></g><g class="contourlines"/></g></g></g></g><g class="zerolinelayer-above"/><path class="xlines-above crisp" d="M35.5,146.25H169.5M35.5,10.75H169.5" style="fill: none; stroke-width: 0.5px; stroke: rgb(0, 0, 0); stroke-opacity: 1;"/><path class="ylines-above crisp" d="M35.75,11V146M169.25,11V146" style="fill: none; stroke-width: 0.5px; stroke: rgb(0, 0, 0); stroke-opacity: 1;"/><g class="overlines-above"/><g class="xaxislayer-above"><path class="xtick ticks crisp" d="M0,146v-5" transform="translate(72.94,0)" style="stroke: rgb(0, 0, 0); stroke-opacity: 1; stroke-width: 0.5px;"/><path class="xtick ticks crisp" d="M0,146v-5" transform="translate(109.89,0)" style="stroke: rgb(0, 0, 0); stroke-opacity: 1; stroke-width: 0.5px;"/><path class="xtick ticks crisp" d="M0,146v-5" transform="translate(146.82999999999998,0)" style="stroke: rgb(0, 0, 0); stroke-opacity: 1; stroke-width: 0.5px;"/><g class="xtick"><text text-anchor="middle" x="0" y="159.7" transform="translate(36,0)" style="font-family: 'Open Sans', verdana, arial, sans-serif; font-size: 11px; fill: rgb(0, 0, 0); fill-opacity: 1; white-space: pre;">0</text></g><g class="xtick"><text text-anchor="middle" x="0" y="159.7" style="font-family: 'Open Sans', verdana, arial, sans-serif; font-size: 11px; fill: rgb(0, 0, 0); fill-opacity: 1; white-space: pre;" transform="translate(72.94,0)">0.5</text></g><g class="xtick"><text text-anchor="middle" x="0" y="159.7" style="font-family: 'Open Sans', verdana, arial, sans-serif; font-size: 11px; fill: rgb(0, 0, 0); fill-opacity: 1; white-space: pre;" transform="translate(109.89,0)">1</text></g><g class="xtick"><text text-anchor="middle" x="0" y="159.7" style="font-family: 'Open Sans', verdana, arial, sans-serif; font-size: 11px; fill: rgb(0, 0, 0); fill-opacity: 1; white-space: pre;" transform="translate(146.82999999999998,0)">1.5</text></g></g><g class="yaxislayer-above"><path class="ytick ticks crisp" d="M36,0h5" transform="translate(0,108.5)" style="stroke: rgb(0, 0, 0); stroke-opacity: 1; stroke-width: 0.5px;"/><path class="ytick ticks crisp" d="M36,0h5" transform="translate(0,71)" style="stroke: rgb(0, 0, 0); stroke-opacity: 1; stroke-width: 0.5px;"/><path class="ytick ticks crisp" d="M36,0h5" transform="translate(0,33.5)" style="stroke: rgb(0, 0, 0); stroke-opacity: 1; stroke-width: 0.5px;"/><g class="ytick"><text text-anchor="end" x="33.3" y="3.8499999999999996" transform="translate(0,146)" style="font-family: 'Open Sans', verdana, arial, sans-serif; font-size: 11px; fill: rgb(0, 0, 0); fill-opacity: 1; white-space: pre;">0</text></g><g class="ytick"><text text-anchor="end" x="33.3" y="3.8499999999999996" style="font-family: 'Open Sans', verdana, arial, sans-serif; font-size: 11px; fill: rgb(0, 0, 0); fill-opacity: 1; white-space: pre;" transform="translate(0,108.5)">0.5</text></g><g class="ytick"><text text-anchor="end" x="33.3" y="3.8499999999999996" style="font-family: 'Open Sans', verdana, arial, sans-serif; font-size: 11px; fill: rgb(0, 0, 0); fill-opacity: 1; white-space: pre;" transform="translate(0,71)">1</text></g><g class="ytick"><text text-anchor="end" x="33.3" y="3.8499999999999996" style="font-family: 'Open Sans', verdana, arial, sans-serif; font-size: 11px; fill: rgb(0, 0, 0); fill-opacity: 1; white-space: pre;" transform="translate(0,33.5)">1.5</text></g></g><g class="overaxes-above"/></g></g><g class="polarlayer"/><g class="smithlayer"/><g class="ternarylayer"/><g class="geolayer"/><g class="funnelarealayer"/><g class="pielayer"/><g class="iciclelayer"/><g class="treemaplayer"/><g class="sunburstlayer"/><g class="glimages"/><defs id="topdefs-4b9c06"><g class="clips"/></defs><g class="layer-above"><g class="imagelayer"/><g class="shapelayer"/></g><g class="infolayer"><g class="g-gtitle"/><g class="g-xtitle" transform="translate(0,4.550000000000011)"><text class="xtitle" x="102.5" y="170.1501953125" text-anchor="middle" style="opacity: 1; font-family: 'Open Sans', verdana, arial, sans-serif; font-size: 11px; fill: rgb(0, 0, 0); fill-opacity: 1; white-space: pre;">Maximum growth rate ST (1/h)</text></g><g class="g-ytitle"><text class="ytitle" transform="rotate(-90,14.184179687499999,78.5)" x="14.184179687499999" y="78.5" text-anchor="middle" style="opacity: 1; font-family: 'Open Sans', verdana, arial, sans-serif; font-size: 11px; fill: rgb(0, 0, 0); fill-opacity: 1; white-space: pre;">Maximum growth rate EcN (1/h)</text></g></g></svg>