<svg class="main-svg" xmlns="http://www.w3.org/2000/svg" xmlns:xlink="http://www.w3.org/1999/xlink" width="384.6153846153846" height="307.6923076923077" style="" viewBox="0 0 384.6153846153846 307.6923076923077"><rect x="0" y="0" width="384.6153846153846" height="307.6923076923077" style="fill: rgb(255, 255, 255); fill-opacity: 1;"/><defs id="defs-f82d9e"><g class="clips"><clipPath id="clipf82d9exyplot" class="plotclip"><rect width="325" height="238"/></clipPath><clipPath class="axesclip" id="clipf82d9ex"><rect x="60" y="0" width="325" height="307.6923076923077"/></clipPath><clipPath class="axesclip" id="clipf82d9ey"><rect x="0" y="20" width="384.6153846153846" height="238"/></clipPath><clipPath class="axesclip" id="clipf82d9exy"><rect x="60" y="20" width="325" height="238"/></clipPath></g><g class="gradients"/><g class="patterns"/></defs><g class="bglayer"/><g class="layer-below"><g class="imagelayer"/><g class="shapelayer"/></g><g class="cartesianlayer"><g class="subplot xy"><g class="layer-subplot"><g class="shapelayer"/><g class="imagelayer"/></g><g class="minor-gridlayer"><g class="x"/><g class="y"/></g><g class="gridlayer"><g class="x"><path class="xgrid crisp" transform="translate(150.88,0)" d="M0,20v238" style="stroke: rgb(0, 0, 0); stroke-opacity: 1; stroke-width: 1px;"/><path class="xgrid crisp" transform="translate(222.5,0)" d="M0,20v238" style="stroke: rgb(0, 0, 0); stroke-opacity: 1; stroke-width: 1px;"/><path class="xgrid crisp" transform="translate(294.13,0)" d="M0,20v238" style="stroke: rgb(0, 0, 0); stroke-opacity: 1; stroke-width: 1px;"/><path class="xgrid crisp" transform="translate(365.75,0)" d="M0,20v238" style="stroke: rgb(0, 0, 0); stroke-opacity: 1; stroke-width: 1px;"/></g><g class="y"><path class="ygrid crisp" transform="translate(0,207.54)" d="M60,0h325" style="stroke: rgb(0, 0, 0); stroke-opacity: 1; stroke-width: 1px;"/><path class="ygrid crisp" transform="translate(0,171.57)" d="M60,0h325" style="stroke: rgb(0, 0, 0); stroke-opacity: 1; stroke-width: 1px;"/><path class="ygrid crisp" transform="translate(0,135.6)" d="M60,0h325" style="stroke: rgb(0, 0, 0); stroke-opacity: 1; stroke-width: 1px;"/><path class="ygrid crisp" transform="translate(0,99.64)" d="M60,0h325" style="stroke: rgb(0, 0, 0); stroke-opacity: 1; stroke-width: 1px;"/><path class="ygrid crisp" transform="translate(0,63.67)" d="M60,0h325" style="stroke: rgb(0, 0, 0); stroke-opacity: 1; stroke-width: 1px;"/><path class="ygrid crisp" transform="translate(0,27.71)" d="M60,0h325" style="stroke: rgb(0, 0, 0); stroke-opacity: 1; stroke-width: 1px;"/></g></g><g class="zerolinelayer"><path class="xzl zl crisp" transform="translate(79.25,0)" d="M0,20v238" style="stroke: rgb(0, 0, 0); stroke-opacity: 1; stroke-width: 1px;"/><path class="yzl zl crisp" transform="translate(0,243.5)" d="M60,0h325" style="stroke: rgb(0, 0, 0); stroke-opacity: 1; stroke-width: 1px;"/></g><g class="layer-between"><g class="shapelayer"/><g class="imagelayer"/></g><path class="xlines-below"/><path class="ylines-below"/><g class="overlines-below"/><g class="xaxislayer-below"/><g class="yaxislayer-below"/><g class="overaxes-below"/><g class="overplot"><g class="xy" transform="translate(60,20)" clip-path="url(#clipf82d9exyplot)"><g class="scatterlayer mlayer"><g class="trace scatter tracedb5412" style="stroke-miterlimit: 2; opacity: 1;"><g class="fills"/><g class="errorbars"/><g class="lines"><path class="js-line" d="M19.25,180.34L37.16,194.01L55.06,204.8L72.97,162.36" style="vector-effect: none; fill: none; stroke: rgb(51, 204, 51); stroke-opacity: 1; stroke-width: 2px; opacity: 1;"/><path class="js-line" d="M126.69,153.73L162.5,14.9L198.31,65.25L234.13,217.96L269.94,221.92L305.75,221.78" style="vector-effect: none; fill: none; stroke: rgb(51, 204, 51); stroke-opacity: 1; stroke-width: 2px; opacity: 1;"/></g><g class="points"><path class="point" transform="translate(19.25,180.34)" d="M2,0A2,2 0 1,1 0,-2A2,2 0 0,1 2,0Z" style="opacity: 1; stroke-width: 0px; fill: rgb(51, 204, 51); fill-opacity: 1;"/><path class="point" transform="translate(37.16,194.01)" d="M2,0A2,2 0 1,1 0,-2A2,2 0 0,1 2,0Z" style="opacity: 1; stroke-width: 0px; fill: rgb(51, 204, 51); fill-opacity: 1;"/><path class="point" transform="translate(55.06,204.8)" d="M2,0A2,2 0 1,1 0,-2A2,2 0 0,1 2,0Z" style="opacity: 1; stroke-width: 0px; fill: rgb(51, 204, 51); fill-opacity: 1;"/><path class="point" transform="translate(72.97,162.36)" d="M2,0A2,2 0 1,1 0,-2A2,2 0 0,1 2,0Z" style="opacity: 1; stroke-width: 0px; fill: rgb(51, 204, 51); fill-opacity: 1;"/><path class="point" transform="translate(126.69,153.73)" d="M2,0A2,2 0 1,1 0,-2A2,2 0 0,1 2,0Z" style="opacity: 1; stroke-width: 0px; fill: rgb(51, 204, 51); fill-opacity: 1;"/><path class="point" transform="translate(162.5,14.9)" d="M2,0A2,2 0 1,1 0,-2A2,2 0 0,1 2,0Z" style="opacity: 1; stroke-width: 0px; fill: rgb(51, 204, 51); fill-opacity: 1;"/><path class="point" transform="translate(198.31,65.25)" d="M2,0A2,2 0 1,1 0,-2A2,2 0 0,1 2,0Z" style="opacity: 1; stroke-width: 0px; fill: rgb(51, 204, 51); fill-opacity: 1;"/><path class="point" transform="translate(234.13,217.96)" d="M2,0A2,2 0 1,1 0,-2A2,2 0 0,1 2,0Z" style="opacity: 1; stroke-width: 0px; fill: rgb(51, 204, 51); fill-opacity: 1;"/><path class="point" transform="translate(269.94,221.92)" d="M2,0A2,2 0 1,1 0,-2A2,2 0 0,1 2,0Z" style="opacity: 1; stroke-width: 0px; fill: rgb(51, 204, 51); fill-opacity: 1;"/><path class="point" transform="translate(305.75,221.78)" d="M2,0A2,2 0 1,1 0,-2A2,2 0 0,1 2,0Z" style="opacity: 1; stroke-width: 0px; fill: rgb(51, 204, 51); fill-opacity: 1;"/></g><g class="text"/></g><g class="trace scatter trace431ae4" style="stroke-miterlimit: 2; opacity: 1;"><g class="fills"/><g class="errorbars"/><g class="lines"><path class="js-line" d="M19.25,183.94L37.16,199.05L55.06,209.84L72.97,189.69L90.88,203.36L126.69,168.12L162.5,43.67L198.31,151.57L234.13,215.88L269.94,199.77L305.75,223.1" style="vector-effect: none; fill: none; stroke: rgb(51, 204, 51); stroke-opacity: 1; stroke-width: 2px; opacity: 1;"/></g><g class="points"><path class="point" transform="translate(19.25,183.94)" d="M2,0A2,2 0 1,1 0,-2A2,2 0 0,1 2,0Z" style="opacity: 1; stroke-width: 0px; fill: rgb(51, 204, 51); fill-opacity: 1;"/><path class="point" transform="translate(37.16,199.05)" d="M2,0A2,2 0 1,1 0,-2A2,2 0 0,1 2,0Z" style="opacity: 1; stroke-width: 0px; fill: rgb(51, 204, 51); fill-opacity: 1;"/><path class="point" transform="translate(55.06,209.84)" d="M2,0A2,2 0 1,1 0,-2A2,2 0 0,1 2,0Z" style="opacity: 1; stroke-width: 0px; fill: rgb(51, 204, 51); fill-opacity: 1;"/><path class="point" transform="translate(72.97,189.69)" d="M2,0A2,2 0 1,1 0,-2A2,2 0 0,1 2,0Z" style="opacity: 1; stroke-width: 0px; fill: rgb(51, 204, 51); fill-opacity: 1;"/><path class="point" transform="translate(90.88,203.36)" d="M2,0A2,2 0 1,1 0,-2A2,2 0 0,1 2,0Z" style="opacity: 1; stroke-width: 0px; fill: rgb(51, 204, 51); fill-opacity: 1;"/><path class="point" transform="translate(126.69,168.12)" d="M2,0A2,2 0 1,1 0,-2A2,2 0 0,1 2,0Z" style="opacity: 1; stroke-width: 0px; fill: rgb(51, 204, 51); fill-opacity: 1;"/><path class="point" transform="translate(162.5,43.67)" d="M2,0A2,2 0 1,1 0,-2A2,2 0 0,1 2,0Z" style="opacity: 1; stroke-width: 0px; fill: rgb(51, 204, 51); fill-opacity: 1;"/><path class="point" transform="translate(198.31,151.57)" d="M2,0A2,2 0 1,1 0,-2A2,2 0 0,1 2,0Z" style="opacity: 1; stroke-width: 0px; fill: rgb(51, 204, 51); fill-opacity: 1;"/><path class="point" transform="translate(234.13,215.88)" d="M2,0A2,2 0 1,1 0,-2A2,2 0 0,1 2,0Z" style="opacity: 1; stroke-width: 0px; fill: rgb(51, 204, 51); fill-opacity: 1;"/><path class="point" transform="translate(269.94,199.77)" d="M2,0A2,2 0 1,1 0,-2A2,2 0 0,1 2,0Z" style="opacity: 1; stroke-width: 0px; fill: rgb(51, 204, 51); fill-opacity: 1;"/><path class="point" transform="translate(305.75,223.1)" d="M2,0A2,2 0 1,1 0,-2A2,2 0 0,1 2,0Z" style="opacity: 1; stroke-width: 0px; fill: rgb(51, 204, 51); fill-opacity: 1;"/></g><g class="text"/></g><g class="trace scatter traceb2cde5" style="stroke-miterlimit: 2; opacity: 1;"><g class="fills"/><g class="errorbars"/><g class="lines"><path class="js-line" d="M19.25,168.83L37.16,196.17L55.06,201.2L72.97,185.38L90.88,202.64L126.69,183.94L162.5,79.64L198.31,108.41" style="vector-effect: none; fill: none; stroke: rgb(51, 204, 51); stroke-opacity: 1; stroke-width: 2px; opacity: 1;"/><path class="js-line" d="M269.94,221.27L305.75,220.91" style="vector-effect: none; fill: none; stroke: rgb(51, 204, 51); stroke-opacity: 1; stroke-width: 2px; opacity: 1;"/></g><g class="points"><path class="point" transform="translate(19.25,168.83)" d="M2,0A2,2 0 1,1 0,-2A2,2 0 0,1 2,0Z" style="opacity: 1; stroke-width: 0px; fill: rgb(51, 204, 51); fill-opacity: 1;"/><path class="point" transform="translate(37.16,196.17)" d="M2,0A2,2 0 1,1 0,-2A2,2 0 0,1 2,0Z" style="opacity: 1; stroke-width: 0px; fill: rgb(51, 204, 51); fill-opacity: 1;"/><path class="point" transform="translate(55.06,201.2)" d="M2,0A2,2 0 1,1 0,-2A2,2 0 0,1 2,0Z" style="opacity: 1; stroke-width: 0px; fill: rgb(51, 204, 51); fill-opacity: 1;"/><path class="point" transform="translate(72.97,185.38)" d="M2,0A2,2 0 1,1 0,-2A2,2 0 0,1 2,0Z" style="opacity: 1; stroke-width: 0px; fill: rgb(51, 204, 51); fill-opacity: 1;"/><path class="point" transform="translate(90.88,202.64)" d="M2,0A2,2 0 1,1 0,-2A2,2 0 0,1 2,0Z" style="opacity: 1; stroke-width: 0px; fill: rgb(51, 204, 51); fill-opacity: 1;"/><path class="point" transform="translate(126.69,183.94)" d="M2,0A2,2 0 1,1 0,-2A2,2 0 0,1 2,0Z" style="opacity: 1; stroke-width: 0px; fill: rgb(51, 204, 51); fill-opacity: 1;"/><path class="point" transform="translate(162.5,79.64)" d="M2,0A2,2 0 1,1 0,-2A2,2 0 0,1 2,0Z" style="opacity: 1; stroke-width: 0px; fill: rgb(51, 204, 51); fill-opacity: 1;"/><path class="point" transform="translate(198.31,108.41)" d="M2,0A2,2 0 1,1 0,-2A2,2 0 0,1 2,0Z" style="opacity: 1; stroke-width: 0px; fill: rgb(51, 204, 51); fill-opacity: 1;"/><path class="point" transform="translate(269.94,221.27)" d="M2,0A2,2 0 1,1 0,-2A2,2 0 0,1 2,0Z" style="opacity: 1; stroke-width: 0px; fill: rgb(51, 204, 51); fill-opacity: 1;"/><path class="point" transform="translate(305.75,220.91)" d="M2,0A2,2 0 1,1 0,-2A2,2 0 0,1 2,0Z" style="opacity: 1; stroke-width: 0px; fill: rgb(51, 204, 51); fill-opacity: 1;"/></g><g class="text"/></g></g></g></g><path class="xlines-above crisp" d="M0,0" style="fill: none;"/><path class="ylines-above crisp" d="M0,0" style="fill: none;"/><g class="overlines-above"/><g class="xaxislayer-above"><g class="xtick"><text text-anchor="middle" x="0" y="273" transform="translate(79.25,0)" style="font-family: 'Open Sans', verdana, arial, sans-serif; font-size: 14px; fill: rgb(0, 0, 0); fill-opacity: 1; white-space: pre; opacity: 1;">0</text></g><g class="xtick"><text text-anchor="middle" x="0" y="273" style="font-family: 'Open Sans', verdana, arial, sans-serif; font-size: 14px; fill: rgb(0, 0, 0); fill-opacity: 1; white-space: pre; opacity: 1;" transform="translate(150.88,0)">1</text></g><g class="xtick"><text text-anchor="middle" x="0" y="273" style="font-family: 'Open Sans', verdana, arial, sans-serif; font-size: 14px; fill: rgb(0, 0, 0); fill-opacity: 1; white-space: pre; opacity: 1;" transform="translate(222.5,0)">2</text></g><g class="xtick"><text text-anchor="middle" x="0" y="273" style="font-family: 'Open Sans', verdana, arial, sans-serif; font-size: 14px; fill: rgb(0, 0, 0); fill-opacity: 1; white-space: pre; opacity: 1;" transform="translate(294.13,0)">3</text></g><g class="xtick"><text text-anchor="middle" x="0" y="273" style="font-family: 'Open Sans', verdana, arial, sans-serif; font-size: 14px; fill: rgb(0, 0, 0); fill-opacity: 1; white-space: pre; opacity: 1;" transform="translate(365.75,0)">4</text></g></g><g class="yaxislayer-above"><g class="ytick"><text text-anchor="end" x="59" y="4.8999999999999995" transform="translate(0,243.5)" style="font-family: 'Open Sans', verdana, arial, sans-serif; font-size: 14px; fill: rgb(0, 0, 0); fill-opacity: 1; white-space: pre; opacity: 1;">0</text></g><g class="ytick"><text text-anchor="end" x="59" y="4.8999999999999995" style="font-family: 'Open Sans', verdana, arial, sans-serif; font-size: 14px; fill: rgb(0, 0, 0); fill-opacity: 1; white-space: pre; opacity: 1;" transform="translate(0,207.54)">0.5M</text></g><g class="ytick"><text text-anchor="end" x="59" y="4.8999999999999995" style="font-family: 'Open Sans', verdana, arial, sans-serif; font-size: 14px; fill: rgb(0, 0, 0); fill-opacity: 1; white-space: pre; opacity: 1;" transform="translate(0,171.57)">1M</text></g><g class="ytick"><text text-anchor="end" x="59" y="4.8999999999999995" style="font-family: 'Open Sans', verdana, arial, sans-serif; font-size: 14px; fill: rgb(0, 0, 0); fill-opacity: 1; white-space: pre; opacity: 1;" transform="translate(0,135.6)">1.5M</text></g><g class="ytick"><text text-anchor="end" x="59" y="4.8999999999999995" style="font-family: 'Open Sans', verdana, arial, sans-serif; font-size: 14px; fill: rgb(0, 0, 0); fill-opacity: 1; white-space: pre; opacity: 1;" transform="translate(0,99.64)">2M</text></g><g class="ytick"><text text-anchor="end" x="59" y="4.8999999999999995" style="font-family: 'Open Sans', verdana, arial, sans-serif; font-size: 14px; fill: rgb(0, 0, 0); fill-opacity: 1; white-space: pre; opacity: 1;" transform="translate(0,63.67)">2.5M</text></g><g class="ytick"><text text-anchor="end" x="59" y="4.8999999999999995" style="font-family: 'Open Sans', verdana, arial, sans-serif; font-size: 14px; fill: rgb(0, 0, 0); fill-opacity: 1; white-space: pre; opacity: 1;" transform="translate(0,27.71)">3M</text></g></g><g class="overaxes-above"/></g></g><g class="polarlayer"/><g class="smithlayer"/><g class="ternarylayer"/><g class="geolayer"/><g class="funnelarealayer"/><g class="pielayer"/><g class="iciclelayer"/><g class="treemaplayer"/><g class="sunburstlayer"/><g class="glimages"/><defs id="topdefs-f82d9e"><g class="clips"/></defs><g class="layer-above"><g class="imagelayer"/><g class="shapelayer"/></g><g class="infolayer"><g class="g-gtitle"><text class="gtitle" x="19.23076923076923" y="10" text-anchor="start" dy="0em" style="opacity: 1; font-family: 'Open Sans', verdana, arial, sans-serif; font-size: 14px; fill: rgb(0, 0, 0); fill-opacity: 1; white-space: pre;">EcN sfGFP Experiment 1</text></g><g class="g-xtitle" transform="translate(0,5.699999999999989)"><text class="xtitle" x="222.5" y="286.3" text-anchor="middle" style="opacity: 1; font-family: 'Open Sans', verdana, arial, sans-serif; font-size: 14px; fill: rgb(0, 0, 0); fill-opacity: 1; white-space: pre;">Time [h]</text></g><g class="g-ytitle"><text class="ytitle" transform="rotate(-90,22.225,139)" x="22.225" y="139" text-anchor="middle" style="opacity: 1; font-family: 'Open Sans', verdana, arial, sans-serif; font-size: 14px; fill: rgb(0, 0, 0); fill-opacity: 1; white-space: pre;">CFUs/mL</text></g></g></svg>