<svg class="main-svg" xmlns="http://www.w3.org/2000/svg" xmlns:xlink="http://www.w3.org/1999/xlink" width="384.6153846153846" height="307.6923076923077" style="" viewBox="0 0 384.6153846153846 307.6923076923077"><rect x="0" y="0" width="384.6153846153846" height="307.6923076923077" style="fill: rgb(255, 255, 255); fill-opacity: 1;"/><defs id="defs-094ca4"><g class="clips"><clipPath id="clip094ca4xyplot" class="plotclip"><rect width="233" height="238"/></clipPath><clipPath class="axesclip" id="clip094ca4x"><rect x="60" y="0" width="233" height="307.6923076923077"/></clipPath><clipPath class="axesclip" id="clip094ca4y"><rect x="0" y="20" width="384.6153846153846" height="238"/></clipPath><clipPath class="axesclip" id="clip094ca4xy"><rect x="60" y="20" width="233" height="238"/></clipPath></g><g class="gradients"/><g class="patterns"/></defs><g class="bglayer"/><g class="layer-below"><g class="imagelayer"/><g class="shapelayer"/></g><g class="cartesianlayer"><g class="subplot xy"><g class="layer-subplot"><g class="shapelayer"/><g class="imagelayer"/></g><g class="minor-gridlayer"><g class="x"/><g class="y"/></g><g class="gridlayer"><g class="x"><path class="xgrid crisp" transform="translate(142.55,0)" d="M0,20v238" style="stroke: rgb(0, 0, 0); stroke-opacity: 1; stroke-width: 1px;"/><path class="xgrid crisp" transform="translate(210.45,0)" d="M0,20v238" style="stroke: rgb(0, 0, 0); stroke-opacity: 1; stroke-width: 1px;"/><path class="xgrid crisp" transform="translate(278.35,0)" d="M0,20v238" style="stroke: rgb(0, 0, 0); stroke-opacity: 1; stroke-width: 1px;"/></g><g class="y"><path class="ygrid crisp" transform="translate(0,238.86)" d="M60,0h233" style="stroke: rgb(0, 0, 0); stroke-opacity: 1; stroke-width: 1px;"/><path class="ygrid crisp" transform="translate(0,224.05)" d="M60,0h233" style="stroke: rgb(0, 0, 0); stroke-opacity: 1; stroke-width: 1px;"/><path class="ygrid crisp" transform="translate(0,209.24)" d="M60,0h233" style="stroke: rgb(0, 0, 0); stroke-opacity: 1; stroke-width: 1px;"/><path class="ygrid crisp" transform="translate(0,189.67)" d="M60,0h233" style="stroke: rgb(0, 0, 0); stroke-opacity: 1; stroke-width: 1px;"/><path class="ygrid crisp" transform="translate(0,174.86)" d="M60,0h233" style="stroke: rgb(0, 0, 0); stroke-opacity: 1; stroke-width: 1px;"/><path class="ygrid crisp" transform="translate(0,160.05)" d="M60,0h233" style="stroke: rgb(0, 0, 0); stroke-opacity: 1; stroke-width: 1px;"/><path class="ygrid crisp" transform="translate(0,140.47)" d="M60,0h233" style="stroke: rgb(0, 0, 0); stroke-opacity: 1; stroke-width: 1px;"/><path class="ygrid crisp" transform="translate(0,125.67)" d="M60,0h233" style="stroke: rgb(0, 0, 0); stroke-opacity: 1; stroke-width: 1px;"/><path class="ygrid crisp" transform="translate(0,110.86)" d="M60,0h233" style="stroke: rgb(0, 0, 0); stroke-opacity: 1; stroke-width: 1px;"/><path class="ygrid crisp" transform="translate(0,91.28)" d="M60,0h233" style="stroke: rgb(0, 0, 0); stroke-opacity: 1; stroke-width: 1px;"/><path class="ygrid crisp" transform="translate(0,76.47)" d="M60,0h233" style="stroke: rgb(0, 0, 0); stroke-opacity: 1; stroke-width: 1px;"/><path class="ygrid crisp" transform="translate(0,61.66)" d="M60,0h233" style="stroke: rgb(0, 0, 0); stroke-opacity: 1; stroke-width: 1px;"/><path class="ygrid crisp" transform="translate(0,42.09)" d="M60,0h233" style="stroke: rgb(0, 0, 0); stroke-opacity: 1; stroke-width: 1px;"/><path class="ygrid crisp" transform="translate(0,27.28)" d="M60,0h233" style="stroke: rgb(0, 0, 0); stroke-opacity: 1; stroke-width: 1px;"/></g></g><g class="zerolinelayer"><path class="xzl zl crisp" transform="translate(74.65,0)" d="M0,20v238" style="stroke: rgb(0, 0, 0); stroke-opacity: 1; stroke-width: 1px;"/></g><g class="layer-between"><g class="shapelayer"/><g class="imagelayer"/></g><path class="xlines-below"/><path class="ylines-below"/><g class="overlines-below"/><g class="xaxislayer-below"/><g class="yaxislayer-below"/><g class="overaxes-below"/><g class="overplot"><g class="xy" transform="translate(60,20)" clip-path="url(#clip094ca4xyplot)"><g class="scatterlayer mlayer"><g class="trace scatter tracef89b46" style="stroke-miterlimit: 2; opacity: 1;"><g class="fills"/><g class="errorbars"/><g class="lines"><path class="js-line" d="M14.65,60.45L31.63,75.01L48.6,72.38L65.58,84.45L82.55,111.25L99.53,109.65L116.5,21.25L133.48,14.9L150.45,168.02L167.43,189.24L184.4,207.27L201.37,210.78L218.35,177.91" style="vector-effect: none; fill: none; stroke: rgb(51, 204, 51); stroke-opacity: 1; stroke-width: 2px; opacity: 1;"/></g><g class="points"><path class="point" transform="translate(14.65,60.45)" d="M2,0A2,2 0 1,1 0,-2A2,2 0 0,1 2,0Z" style="opacity: 1; stroke-width: 0px; fill: rgb(51, 204, 51); fill-opacity: 1;"/><path class="point" transform="translate(31.63,75.01)" d="M2,0A2,2 0 1,1 0,-2A2,2 0 0,1 2,0Z" style="opacity: 1; stroke-width: 0px; fill: rgb(51, 204, 51); fill-opacity: 1;"/><path class="point" transform="translate(48.6,72.38)" d="M2,0A2,2 0 1,1 0,-2A2,2 0 0,1 2,0Z" style="opacity: 1; stroke-width: 0px; fill: rgb(51, 204, 51); fill-opacity: 1;"/><path class="point" transform="translate(65.58,84.45)" d="M2,0A2,2 0 1,1 0,-2A2,2 0 0,1 2,0Z" style="opacity: 1; stroke-width: 0px; fill: rgb(51, 204, 51); fill-opacity: 1;"/><path class="point" transform="translate(82.55,111.25)" d="M2,0A2,2 0 1,1 0,-2A2,2 0 0,1 2,0Z" style="opacity: 1; stroke-width: 0px; fill: rgb(51, 204, 51); fill-opacity: 1;"/><path class="point" transform="translate(99.53,109.65)" d="M2,0A2,2 0 1,1 0,-2A2,2 0 0,1 2,0Z" style="opacity: 1; stroke-width: 0px; fill: rgb(51, 204, 51); fill-opacity: 1;"/><path class="point" transform="translate(116.5,21.25)" d="M2,0A2,2 0 1,1 0,-2A2,2 0 0,1 2,0Z" style="opacity: 1; stroke-width: 0px; fill: rgb(51, 204, 51); fill-opacity: 1;"/><path class="point" transform="translate(133.48,14.9)" d="M2,0A2,2 0 1,1 0,-2A2,2 0 0,1 2,0Z" style="opacity: 1; stroke-width: 0px; fill: rgb(51, 204, 51); fill-opacity: 1;"/><path class="point" transform="translate(150.45,168.02)" d="M2,0A2,2 0 1,1 0,-2A2,2 0 0,1 2,0Z" style="opacity: 1; stroke-width: 0px; fill: rgb(51, 204, 51); fill-opacity: 1;"/><path class="point" transform="translate(167.43,189.24)" d="M2,0A2,2 0 1,1 0,-2A2,2 0 0,1 2,0Z" style="opacity: 1; stroke-width: 0px; fill: rgb(51, 204, 51); fill-opacity: 1;"/><path class="point" transform="translate(184.4,207.27)" d="M2,0A2,2 0 1,1 0,-2A2,2 0 0,1 2,0Z" style="opacity: 1; stroke-width: 0px; fill: rgb(51, 204, 51); fill-opacity: 1;"/><path class="point" transform="translate(201.37,210.78)" d="M2,0A2,2 0 1,1 0,-2A2,2 0 0,1 2,0Z" style="opacity: 1; stroke-width: 0px; fill: rgb(51, 204, 51); fill-opacity: 1;"/><path class="point" transform="translate(218.35,177.91)" d="M2,0A2,2 0 1,1 0,-2A2,2 0 0,1 2,0Z" style="opacity: 1; stroke-width: 0px; fill: rgb(51, 204, 51); fill-opacity: 1;"/></g><g class="text"/></g><g class="trace scatter trace65618b" style="stroke-miterlimit: 2; opacity: 1;"><g class="fills"/><g class="errorbars"/><g class="lines"><path class="js-line" d="M14.65,61.24L31.63,82.92L48.6,70.04L65.58,68.86L82.55,93.11L99.53,113.91L116.5,103.63L133.48,76.05L150.45,161.58L167.43,166.13L184.4,178.54L201.37,211.98L218.35,172.4" style="vector-effect: none; fill: none; stroke: rgb(51, 204, 51); stroke-opacity: 1; stroke-width: 2px; opacity: 1;"/></g><g class="points"><path class="point" transform="translate(14.65,61.24)" d="M2,0A2,2 0 1,1 0,-2A2,2 0 0,1 2,0Z" style="opacity: 1; stroke-width: 0px; fill: rgb(51, 204, 51); fill-opacity: 1;"/><path class="point" transform="translate(31.63,82.92)" d="M2,0A2,2 0 1,1 0,-2A2,2 0 0,1 2,0Z" style="opacity: 1; stroke-width: 0px; fill: rgb(51, 204, 51); fill-opacity: 1;"/><path class="point" transform="translate(48.6,70.04)" d="M2,0A2,2 0 1,1 0,-2A2,2 0 0,1 2,0Z" style="opacity: 1; stroke-width: 0px; fill: rgb(51, 204, 51); fill-opacity: 1;"/><path class="point" transform="translate(65.58,68.86)" d="M2,0A2,2 0 1,1 0,-2A2,2 0 0,1 2,0Z" style="opacity: 1; stroke-width: 0px; fill: rgb(51, 204, 51); fill-opacity: 1;"/><path class="point" transform="translate(82.55,93.11)" d="M2,0A2,2 0 1,1 0,-2A2,2 0 0,1 2,0Z" style="opacity: 1; stroke-width: 0px; fill: rgb(51, 204, 51); fill-opacity: 1;"/><path class="point" transform="translate(99.53,113.91)" d="M2,0A2,2 0 1,1 0,-2A2,2 0 0,1 2,0Z" style="opacity: 1; stroke-width: 0px; fill: rgb(51, 204, 51); fill-opacity: 1;"/><path class="point" transform="translate(116.5,103.63)" d="M2,0A2,2 0 1,1 0,-2A2,2 0 0,1 2,0Z" style="opacity: 1; stroke-width: 0px; fill: rgb(51, 204, 51); fill-opacity: 1;"/><path class="point" transform="translate(133.48,76.05)" d="M2,0A2,2 0 1,1 0,-2A2,2 0 0,1 2,0Z" style="opacity: 1; stroke-width: 0px; fill: rgb(51, 204, 51); fill-opacity: 1;"/><path class="point" transform="translate(150.45,161.58)" d="M2,0A2,2 0 1,1 0,-2A2,2 0 0,1 2,0Z" style="opacity: 1; stroke-width: 0px; fill: rgb(51, 204, 51); fill-opacity: 1;"/><path class="point" transform="translate(167.43,166.13)" d="M2,0A2,2 0 1,1 0,-2A2,2 0 0,1 2,0Z" style="opacity: 1; stroke-width: 0px; fill: rgb(51, 204, 51); fill-opacity: 1;"/><path class="point" transform="translate(184.4,178.54)" d="M2,0A2,2 0 1,1 0,-2A2,2 0 0,1 2,0Z" style="opacity: 1; stroke-width: 0px; fill: rgb(51, 204, 51); fill-opacity: 1;"/><path class="point" transform="translate(201.37,211.98)" d="M2,0A2,2 0 1,1 0,-2A2,2 0 0,1 2,0Z" style="opacity: 1; stroke-width: 0px; fill: rgb(51, 204, 51); fill-opacity: 1;"/><path class="point" transform="translate(218.35,172.4)" d="M2,0A2,2 0 1,1 0,-2A2,2 0 0,1 2,0Z" style="opacity: 1; stroke-width: 0px; fill: rgb(51, 204, 51); fill-opacity: 1;"/></g><g class="text"/></g><g class="trace scatter trace9bca45" style="stroke-miterlimit: 2; opacity: 1;"><g class="fills"/><g class="errorbars"/><g class="lines"><path class="js-line" d="M14.65,67.75L31.63,83.67L48.6,68.48L65.58,84.45L82.55,113.59L99.53,113.29L116.5,101.77L133.48,93.11L150.45,124.2L167.43,168.42L184.4,210.2L201.37,223.1L218.35,131.39" style="vector-effect: none; fill: none; stroke: rgb(51, 204, 51); stroke-opacity: 1; stroke-width: 2px; opacity: 1;"/></g><g class="points"><path class="point" transform="translate(14.65,67.75)" d="M2,0A2,2 0 1,1 0,-2A2,2 0 0,1 2,0Z" style="opacity: 1; stroke-width: 0px; fill: rgb(51, 204, 51); fill-opacity: 1;"/><path class="point" transform="translate(31.63,83.67)" d="M2,0A2,2 0 1,1 0,-2A2,2 0 0,1 2,0Z" style="opacity: 1; stroke-width: 0px; fill: rgb(51, 204, 51); fill-opacity: 1;"/><path class="point" transform="translate(48.6,68.48)" d="M2,0A2,2 0 1,1 0,-2A2,2 0 0,1 2,0Z" style="opacity: 1; stroke-width: 0px; fill: rgb(51, 204, 51); fill-opacity: 1;"/><path class="point" transform="translate(65.58,84.45)" d="M2,0A2,2 0 1,1 0,-2A2,2 0 0,1 2,0Z" style="opacity: 1; stroke-width: 0px; fill: rgb(51, 204, 51); fill-opacity: 1;"/><path class="point" transform="translate(82.55,113.59)" d="M2,0A2,2 0 1,1 0,-2A2,2 0 0,1 2,0Z" style="opacity: 1; stroke-width: 0px; fill: rgb(51, 204, 51); fill-opacity: 1;"/><path class="point" transform="translate(99.53,113.29)" d="M2,0A2,2 0 1,1 0,-2A2,2 0 0,1 2,0Z" style="opacity: 1; stroke-width: 0px; fill: rgb(51, 204, 51); fill-opacity: 1;"/><path class="point" transform="translate(116.5,101.77)" d="M2,0A2,2 0 1,1 0,-2A2,2 0 0,1 2,0Z" style="opacity: 1; stroke-width: 0px; fill: rgb(51, 204, 51); fill-opacity: 1;"/><path class="point" transform="translate(133.48,93.11)" d="M2,0A2,2 0 1,1 0,-2A2,2 0 0,1 2,0Z" style="opacity: 1; stroke-width: 0px; fill: rgb(51, 204, 51); fill-opacity: 1;"/><path class="point" transform="translate(150.45,124.2)" d="M2,0A2,2 0 1,1 0,-2A2,2 0 0,1 2,0Z" style="opacity: 1; stroke-width: 0px; fill: rgb(51, 204, 51); fill-opacity: 1;"/><path class="point" transform="translate(167.43,168.42)" d="M2,0A2,2 0 1,1 0,-2A2,2 0 0,1 2,0Z" style="opacity: 1; stroke-width: 0px; fill: rgb(51, 204, 51); fill-opacity: 1;"/><path class="point" transform="translate(184.4,210.2)" d="M2,0A2,2 0 1,1 0,-2A2,2 0 0,1 2,0Z" style="opacity: 1; stroke-width: 0px; fill: rgb(51, 204, 51); fill-opacity: 1;"/><path class="point" transform="translate(201.37,223.1)" d="M2,0A2,2 0 1,1 0,-2A2,2 0 0,1 2,0Z" style="opacity: 1; stroke-width: 0px; fill: rgb(51, 204, 51); fill-opacity: 1;"/><path class="point" transform="translate(218.35,131.39)" d="M2,0A2,2 0 1,1 0,-2A2,2 0 0,1 2,0Z" style="opacity: 1; stroke-width: 0px; fill: rgb(51, 204, 51); fill-opacity: 1;"/></g><g class="text"/></g><g class="trace scatter trace006c1f" style="stroke-miterlimit: 2; opacity: 1;"><g class="fills"/><g class="errorbars"/><g class="lines"><path class="js-line" d="M14.65,47.32L218.35,177.33" style="vector-effect: none; fill: none; stroke: rgb(0, 0, 0); stroke-opacity: 1; stroke-dasharray: 9px, 9px; stroke-width: 2px; opacity: 1;"/></g><g class="points"><path class="point" transform="translate(14.65,47.32)" d="M2,0A2,2 0 1,1 0,-2A2,2 0 0,1 2,0Z" style="opacity: 1; stroke-width: 0px; fill: rgb(0, 0, 0); fill-opacity: 1;"/><path class="point" transform="translate(31.63,58.16)" d="M2,0A2,2 0 1,1 0,-2A2,2 0 0,1 2,0Z" style="opacity: 1; stroke-width: 0px; fill: rgb(0, 0, 0); fill-opacity: 1;"/><path class="point" transform="translate(48.6,68.99)" d="M2,0A2,2 0 1,1 0,-2A2,2 0 0,1 2,0Z" style="opacity: 1; stroke-width: 0px; fill: rgb(0, 0, 0); fill-opacity: 1;"/><path class="point" transform="translate(65.58,79.83)" d="M2,0A2,2 0 1,1 0,-2A2,2 0 0,1 2,0Z" style="opacity: 1; stroke-width: 0px; fill: rgb(0, 0, 0); fill-opacity: 1;"/><path class="point" transform="translate(82.55,90.66)" d="M2,0A2,2 0 1,1 0,-2A2,2 0 0,1 2,0Z" style="opacity: 1; stroke-width: 0px; fill: rgb(0, 0, 0); fill-opacity: 1;"/><path class="point" transform="translate(99.53,101.49)" d="M2,0A2,2 0 1,1 0,-2A2,2 0 0,1 2,0Z" style="opacity: 1; stroke-width: 0px; fill: rgb(0, 0, 0); fill-opacity: 1;"/><path class="point" transform="translate(116.5,112.33)" d="M2,0A2,2 0 1,1 0,-2A2,2 0 0,1 2,0Z" style="opacity: 1; stroke-width: 0px; fill: rgb(0, 0, 0); fill-opacity: 1;"/><path class="point" transform="translate(133.48,123.16)" d="M2,0A2,2 0 1,1 0,-2A2,2 0 0,1 2,0Z" style="opacity: 1; stroke-width: 0px; fill: rgb(0, 0, 0); fill-opacity: 1;"/><path class="point" transform="translate(150.45,133.99)" d="M2,0A2,2 0 1,1 0,-2A2,2 0 0,1 2,0Z" style="opacity: 1; stroke-width: 0px; fill: rgb(0, 0, 0); fill-opacity: 1;"/><path class="point" transform="translate(167.43,144.83)" d="M2,0A2,2 0 1,1 0,-2A2,2 0 0,1 2,0Z" style="opacity: 1; stroke-width: 0px; fill: rgb(0, 0, 0); fill-opacity: 1;"/><path class="point" transform="translate(184.4,155.66)" d="M2,0A2,2 0 1,1 0,-2A2,2 0 0,1 2,0Z" style="opacity: 1; stroke-width: 0px; fill: rgb(0, 0, 0); fill-opacity: 1;"/><path class="point" transform="translate(201.37,166.5)" d="M2,0A2,2 0 1,1 0,-2A2,2 0 0,1 2,0Z" style="opacity: 1; stroke-width: 0px; fill: rgb(0, 0, 0); fill-opacity: 1;"/><path class="point" transform="translate(218.35,177.33)" d="M2,0A2,2 0 1,1 0,-2A2,2 0 0,1 2,0Z" style="opacity: 1; stroke-width: 0px; fill: rgb(0, 0, 0); fill-opacity: 1;"/></g><g class="text"/></g></g></g></g><path class="xlines-above crisp" d="M0,0" style="fill: none;"/><path class="ylines-above crisp" d="M0,0" style="fill: none;"/><g class="overlines-above"/><g class="xaxislayer-above"><g class="xtick"><text text-anchor="middle" x="0" y="273" transform="translate(74.65,0)" style="font-family: 'Open Sans', verdana, arial, sans-serif; font-size: 14px; fill: rgb(0, 0, 0); fill-opacity: 1; white-space: pre; opacity: 1;">0</text></g><g class="xtick"><text text-anchor="middle" x="0" y="273" style="font-family: 'Open Sans', verdana, arial, sans-serif; font-size: 14px; fill: rgb(0, 0, 0); fill-opacity: 1; white-space: pre; opacity: 1;" transform="translate(142.55,0)">2</text></g><g class="xtick"><text text-anchor="middle" x="0" y="273" style="font-family: 'Open Sans', verdana, arial, sans-serif; font-size: 14px; fill: rgb(0, 0, 0); fill-opacity: 1; white-space: pre; opacity: 1;" transform="translate(210.45,0)">4</text></g><g class="xtick"><text text-anchor="middle" x="0" y="273" style="font-family: 'Open Sans', verdana, arial, sans-serif; font-size: 14px; fill: rgb(0, 0, 0); fill-opacity: 1; white-space: pre; opacity: 1;" transform="translate(278.35,0)">6</text></g></g><g class="yaxislayer-above"><g class="ytick"><text text-anchor="end" x="59" y="3.675" transform="translate(0,238.86)" style="font-family: 'Open Sans', verdana, arial, sans-serif; font-size: 10.5px; fill: rgb(0, 0, 0); fill-opacity: 1; white-space: pre; opacity: 1;">5</text></g><g class="ytick"><text text-anchor="end" x="59" y="4.8999999999999995" style="font-family: 'Open Sans', verdana, arial, sans-serif; font-size: 14px; fill: rgb(0, 0, 0); fill-opacity: 1; white-space: pre; opacity: 1;" transform="translate(0,224.05)">10k</text></g><g class="ytick"><text text-anchor="end" x="59" y="3.675" style="font-family: 'Open Sans', verdana, arial, sans-serif; font-size: 10.5px; fill: rgb(0, 0, 0); fill-opacity: 1; white-space: pre; opacity: 1;" transform="translate(0,209.24)">2</text></g><g class="ytick"><text text-anchor="end" x="59" y="3.675" style="font-family: 'Open Sans', verdana, arial, sans-serif; font-size: 10.5px; fill: rgb(0, 0, 0); fill-opacity: 1; white-space: pre; opacity: 1;" transform="translate(0,189.67)">5</text></g><g class="ytick"><text text-anchor="end" x="59" y="4.8999999999999995" style="font-family: 'Open Sans', verdana, arial, sans-serif; font-size: 14px; fill: rgb(0, 0, 0); fill-opacity: 1; white-space: pre; opacity: 1;" transform="translate(0,174.86)">100k</text></g><g class="ytick"><text text-anchor="end" x="59" y="3.675" style="font-family: 'Open Sans', verdana, arial, sans-serif; font-size: 10.5px; fill: rgb(0, 0, 0); fill-opacity: 1; white-space: pre; opacity: 1;" transform="translate(0,160.05)">2</text></g><g class="ytick"><text text-anchor="end" x="59" y="3.675" style="font-family: 'Open Sans', verdana, arial, sans-serif; font-size: 10.5px; fill: rgb(0, 0, 0); fill-opacity: 1; white-space: pre; opacity: 1;" transform="translate(0,140.47)">5</text></g><g class="ytick"><text text-anchor="end" x="59" y="4.8999999999999995" style="font-family: 'Open Sans', verdana, arial, sans-serif; font-size: 14px; fill: rgb(0, 0, 0); fill-opacity: 1; white-space: pre; opacity: 1;" transform="translate(0,125.67)">1M</text></g><g class="ytick"><text text-anchor="end" x="59" y="3.675" style="font-family: 'Open Sans', verdana, arial, sans-serif; font-size: 10.5px; fill: rgb(0, 0, 0); fill-opacity: 1; white-space: pre; opacity: 1;" transform="translate(0,110.86)">2</text></g><g class="ytick"><text text-anchor="end" x="59" y="3.675" style="font-family: 'Open Sans', verdana, arial, sans-serif; font-size: 10.5px; fill: rgb(0, 0, 0); fill-opacity: 1; white-space: pre; opacity: 1;" transform="translate(0,91.28)">5</text></g><g class="ytick"><text text-anchor="end" x="59" y="4.8999999999999995" style="font-family: 'Open Sans', verdana, arial, sans-serif; font-size: 14px; fill: rgb(0, 0, 0); fill-opacity: 1; white-space: pre; opacity: 1;" transform="translate(0,76.47)">10M</text></g><g class="ytick"><text text-anchor="end" x="59" y="3.675" style="font-family: 'Open Sans', verdana, arial, sans-serif; font-size: 10.5px; fill: rgb(0, 0, 0); fill-opacity: 1; white-space: pre; opacity: 1;" transform="translate(0,61.66)">2</text></g><g class="ytick"><text text-anchor="end" x="59" y="3.675" style="font-family: 'Open Sans', verdana, arial, sans-serif; font-size: 10.5px; fill: rgb(0, 0, 0); fill-opacity: 1; white-space: pre; opacity: 1;" transform="translate(0,42.09)">5</text></g><g class="ytick"><text text-anchor="end" x="59" y="4.8999999999999995" style="font-family: 'Open Sans', verdana, arial, sans-serif; font-size: 14px; fill: rgb(0, 0, 0); fill-opacity: 1; white-space: pre; opacity: 1;" transform="translate(0,27.28)">100M</text></g></g><g class="overaxes-above"/></g></g><g class="polarlayer"/><g class="smithlayer"/><g class="ternarylayer"/><g class="geolayer"/><g class="funnelarealayer"/><g class="pielayer"/><g class="iciclelayer"/><g class="treemaplayer"/><g class="sunburstlayer"/><g class="glimages"/><defs id="topdefs-094ca4"><g class="clips"/><clipPath id="legend094ca4"><rect width="87" height="53" x="0" y="0"/></clipPath></defs><g class="layer-above"><g class="imagelayer"/><g class="shapelayer"/></g><g class="infolayer"><g class="legend" pointer-events="all" transform="translate(297.6153846153846,20)"><rect class="bg" shape-rendering="crispEdges" style="stroke: rgb(68, 68, 68); stroke-opacity: 1; fill: rgb(255, 255, 255); fill-opacity: 1; stroke-width: 0px;" width="87" height="53" x="0" y="0"/><g class="scrollbox" transform="" clip-path="url(#legend094ca4)"><g class="groups"><g class="traces" transform="translate(0,15.6)" style="opacity: 1;"><text class="legendtext" text-anchor="start" x="40" y="5.46" style="font-family: 'Open Sans', verdana, arial, sans-serif; font-size: 14px; fill: rgb(0, 0, 0); fill-opacity: 1; white-space: pre;">Data</text><g class="layers" style="opacity: 1;"><g class="legendfill"/><g class="legendlines"><path class="js-line" d="M5,0h30" style="fill: none; stroke: rgb(51, 204, 51); stroke-opacity: 1; stroke-width: 2px;"/></g><g class="legendsymbols"><g class="legendpoints"><path class="scatterpts" transform="translate(20,0)" d="M2,0A2,2 0 1,1 0,-2A2,2 0 0,1 2,0Z" style="opacity: 1; stroke-width: 0px; fill: rgb(51, 204, 51); fill-opacity: 1;"/></g></g></g><rect class="legendtoggle" x="0" y="-10.6" width="81.078125" height="21.2" style="fill: rgb(0, 0, 0); fill-opacity: 0;"/></g><g class="traces" transform="translate(0,36.8)" style="opacity: 1;"><text class="legendtext" text-anchor="start" x="40" y="5.46" style="font-family: 'Open Sans', verdana, arial, sans-serif; font-size: 14px; fill: rgb(0, 0, 0); fill-opacity: 1; white-space: pre;">Model</text><g class="layers" style="opacity: 1;"><g class="legendfill"/><g class="legendlines"><path class="js-line" d="M5,0h30" style="fill: none; stroke: rgb(0, 0, 0); stroke-opacity: 1; stroke-dasharray: 9px, 9px; stroke-width: 2px;"/></g><g class="legendsymbols"><g class="legendpoints"><path class="scatterpts" transform="translate(20,0)" d="M2,0A2,2 0 1,1 0,-2A2,2 0 0,1 2,0Z" style="opacity: 1; stroke-width: 0px; fill: rgb(0, 0, 0); fill-opacity: 1;"/></g></g></g><rect class="legendtoggle" x="0" y="-10.6" width="81.078125" height="21.2" style="fill: rgb(0, 0, 0); fill-opacity: 0;"/></g></g></g><rect class="scrollbar" rx="20" ry="3" width="0" height="0" style="fill: rgb(128, 139, 164); fill-opacity: 1;" x="0" y="0"/></g><g class="g-gtitle"><text class="gtitle" x="19.23076923076923" y="10" text-anchor="start" dy="0em" style="opacity: 1; font-family: 'Open Sans', verdana, arial, sans-serif; font-size: 14px; fill: rgb(0, 0, 0); fill-opacity: 1; white-space: pre;">EcN sfGFP CAT Experiment 2</text></g><g class="g-xtitle"><text class="xtitle" x="176.5" y="286.3" text-anchor="middle" style="opacity: 1; font-family: 'Open Sans', verdana, arial, sans-serif; font-size: 14px; fill: rgb(0, 0, 0); fill-opacity: 1; white-space: pre;">Time [h]</text></g><g class="g-ytitle"><text class="ytitle" transform="rotate(-90,17.94375,139)" x="17.94375" y="139" text-anchor="middle" style="opacity: 1; font-family: 'Open Sans', verdana, arial, sans-serif; font-size: 14px; fill: rgb(0, 0, 0); fill-opacity: 1; white-space: pre;">CFUs/mL</text></g></g></svg>