<svg class="main-svg" xmlns="http://www.w3.org/2000/svg" xmlns:xlink="http://www.w3.org/1999/xlink" width="500" height="280" style="" viewBox="0 0 500 280"><rect x="0" y="0" width="500" height="280" style="fill: rgb(255, 255, 255); fill-opacity: 1;"/><defs id="defs-2a836a"><g class="clips"><clipPath id="clip2a836axyplot" class="plotclip"><rect width="234" height="210"/></clipPath><clipPath class="axesclip" id="clip2a836ax"><rect x="48" y="0" width="234" height="280"/></clipPath><clipPath class="axesclip" id="clip2a836ay"><rect x="0" y="20" width="500" height="210"/></clipPath><clipPath class="axesclip" id="clip2a836axy"><rect x="48" y="20" width="234" height="210"/></clipPath></g><g class="gradients"/><g class="patterns"/></defs><g class="bglayer"/><g class="layer-below"><g class="imagelayer"/><g class="shapelayer"/></g><g class="cartesianlayer"><g class="subplot xy"><g class="layer-subplot"><g class="shapelayer"/><g class="imagelayer"/></g><g class="minor-gridlayer"><g class="x"/><g class="y"/></g><g class="gridlayer"><g class="x"><path class="xgrid crisp" transform="translate(96.74000000000001,0)" d="M0,20v210" style="stroke: rgb(0, 0, 0); stroke-opacity: 1; stroke-width: 1px;"/><path class="xgrid crisp" transform="translate(145.49,0)" d="M0,20v210" style="stroke: rgb(0, 0, 0); stroke-opacity: 1; stroke-width: 1px;"/><path class="xgrid crisp" transform="translate(194.24,0)" d="M0,20v210" style="stroke: rgb(0, 0, 0); stroke-opacity: 1; stroke-width: 1px;"/><path class="xgrid crisp" transform="translate(242.99,0)" d="M0,20v210" style="stroke: rgb(0, 0, 0); stroke-opacity: 1; stroke-width: 1px;"/></g><g class="y"><path class="ygrid crisp" transform="translate(0,134.79000000000002)" d="M48,0h234" style="stroke: rgb(0, 0, 0); stroke-opacity: 1; stroke-width: 1px;"/><path class="ygrid crisp" transform="translate(0,54.36)" d="M48,0h234" style="stroke: rgb(0, 0, 0); stroke-opacity: 1; stroke-width: 1px;"/></g></g><g class="zerolinelayer"><path class="yzl zl crisp" transform="translate(0,215.21)" d="M48,0h234" style="stroke: rgb(0, 0, 0); stroke-opacity: 1; stroke-width: 1px;"/></g><g class="layer-between"><g class="shapelayer"/><g class="imagelayer"/></g><path class="xlines-below"/><path class="ylines-below"/><g class="overlines-below"/><g class="xaxislayer-below"/><g class="yaxislayer-below"/><g class="overaxes-below"/><g class="overplot"><g class="xy" transform="translate(48,20)" clip-path="url(#clip2a836axyplot)"><g class="scatterlayer mlayer"><g class="trace scatter tracedf623e" style="stroke-miterlimit: 2; opacity: 1;"><g class="fills"/><g class="errorbars"/><g class="lines"><path class="js-line" d="M0,198.32L2.43,199.5L3.65,199.42L4.87,198.67L6.09,198.99L9.75,197.76L10.97,197.33L13.4,193.55L14.62,190.39L20.72,163.47L21.93,158.64L31.68,122.75L32.9,120.12L37.78,101.38L39,98.08L45.09,81.44L46.31,75.4L47.53,75L48.75,72.59L49.97,71.38L51.18,66.66L52.4,66.93L53.62,66.37L54.84,63.85L56.06,58.33L57.28,58.84L58.5,55.91L59.72,58.11L60.93,52.08L62.15,56.21L63.37,50.26L64.59,50.18L65.81,48.06L67.03,50.79L68.25,48.57L70.68,46.18L71.9,42.94L74.34,43.66L75.56,40.63L76.78,43.1L78,39.99L80.43,38.49L81.65,36.08L82.87,36.58L84.09,27.39L87.75,27.98L88.97,24.47L90.19,25.91L91.4,26.13L92.62,25.7L93.84,27.68L95.06,24.36L96.28,25.3L98.72,23.15L99.94,24.6L101.15,25.59L102.37,22.7L104.81,19.7L106.03,22.86L107.25,19.45L108.47,19.8L109.69,20.63L110.9,19.13L112.12,23.1L113.34,20.82L114.56,18.81L115.78,23.74L117,23.82L118.22,21.46L119.44,23.26L120.65,23.15L121.87,26.48L123.09,26.4L124.31,25.59L125.53,27.44L126.75,25.91L127.97,28.06L129.19,24.87L130.4,31.41L131.62,29.8L132.84,29.83L134.06,31.6L135.28,28.62L136.5,28.52L137.72,30.55L140.15,33.31L141.37,27.09L143.81,33.07L145.03,32.13L146.25,34.17L147.47,31.81L148.69,28.01L149.9,29.64L151.12,34.09L152.34,31.95L153.56,30.71L154.78,33.21L156,33.93L157.22,32.38L158.44,34.73L159.66,30.74L160.87,32.64L162.09,32.67L163.31,32.62L164.53,31.63L165.75,33.31L166.97,32.86L169.41,32.59L170.62,29.75L173.06,32.78L174.28,31.38L175.5,32.99L176.72,29.59L177.94,31.46L179.16,30.47L180.37,30.93L181.59,29.32L185.25,31.95L186.47,31.63L188.91,32.38L190.12,31.95L191.34,30.55L192.56,31.76L193.78,32.21L195,30.93L196.22,30.63L197.44,31.36L198.66,31.28L199.87,29.94L201.09,27.9L202.31,30.45L203.53,28.7L204.75,29.24L205.97,28.76L207.19,29.27L208.41,31.57L209.62,29.51L210.84,29.78L212.06,31.12L215.72,29.8L216.94,30.69L218.16,30.79L219.37,29.88L220.59,30.55L221.81,28.57L224.25,28.62L225.47,29.83L226.69,29.4L227.91,29.99L229.12,29.86L230.34,28.57L231.56,27.47L232.78,28.54L234,28.3" style="vector-effect: none; fill: none; stroke: rgb(255, 28, 28); stroke-opacity: 1; stroke-width: 2px; opacity: 1;"/></g><g class="points"/><g class="text"/></g><g class="trace scatter trace1819c2" style="stroke-miterlimit: 2; opacity: 1;"><g class="fills"/><g class="errorbars"/><g class="lines"><path class="js-line" d="M0,197.86L2.44,198.78L3.65,198.86L6.09,199.47L7.31,198.35L8.53,197.03L9.75,197.19L10.97,196.52L12.19,193.63L14.62,186.95L15.84,179.88L18.28,168.59L19.5,166.61L20.72,159.53L21.94,157.04L24.37,144.81L25.59,140.95L30.47,124.44L31.69,117.49L32.9,113.95L34.12,107.6L35.34,106.58L36.56,100.07L41.44,89.93L42.65,84.63L46.31,72.8L47.53,74.12L48.75,75.54L49.97,71.14L51.19,72.03L52.41,68.92L53.62,68L54.84,62.59L56.06,60.69L57.28,57.2L59.72,55.27L60.94,58.59L63.37,54.71L64.59,55.46L67.03,48.81L68.25,50.95L70.69,42.16L71.9,46.1L73.12,47.47L74.34,45.81L75.56,43.66L76.78,37.93L78,38.11L79.22,40.07L80.44,40.23L81.65,36.91L82.87,30.71L84.09,32.13L85.31,31.12L86.53,31.84L88.97,30.61L90.19,26.69L91.41,27.09L92.62,23.96L93.84,27.09L95.06,25.65L96.28,27.68L97.5,25.57L99.94,26.61L101.16,26.53L102.37,29.53L103.59,29.21L104.81,30.02L106.03,24.28L108.47,29.19L109.69,25.54L110.91,23.29L112.12,27.87L113.34,24.92L114.56,24.57L115.78,20.9L117,25.86L119.44,33.69L120.66,31.01L121.87,31.14L123.09,34.12L124.31,32.83L125.53,28.11L127.97,37.2L129.19,36.85L130.41,37.23L131.62,34.57L134.06,39.72L135.28,34.6L136.5,34.23L137.72,34.98L138.94,30.74L140.16,37.87L141.37,39.48L142.59,37.44L143.81,33.42L145.03,34.55L146.25,36.85L147.47,35.06L148.69,37.84L149.91,35.22L151.12,34.84L152.34,37.5L153.56,39.27L154.78,35.19L156,38.51L157.22,38.84L158.44,41.6L159.66,40.95L160.87,35.73L162.09,37.31L163.31,40.82L164.53,39.27L165.75,40.28L166.97,40.26L168.19,41.36L169.41,37.93L171.84,40.23L173.06,40.45L174.28,37.44L175.5,38.06L181.59,42.8L182.81,41.52L184.03,41.81L185.25,41.06L187.69,38.03L188.91,39.75L190.13,40.18L191.34,39.8L192.56,38.35L193.78,39.67L195,38.68L196.22,39.96L197.44,40.1L198.66,37.58L199.88,37.58L201.09,39L202.31,38.54L203.53,40.36L204.75,40.58L205.97,39.56L208.41,39.96L209.63,38.68L210.84,37.93L212.06,38.7L213.28,37.63L214.5,37.93L215.72,36.34L216.94,37.95L219.38,37.01L220.59,37.07L221.81,36.34L223.03,36.83L224.25,36.56L225.47,34.06L226.69,36.58L227.91,36.88L230.34,36.05L231.56,37.04" style="vector-effect: none; fill: none; stroke: rgb(255, 28, 28); stroke-opacity: 1; stroke-width: 2px; opacity: 1;"/></g><g class="points"/><g class="text"/></g><g class="trace scatter trace39a547" style="stroke-miterlimit: 2; opacity: 1;"><g class="fills"/><g class="errorbars"/><g class="lines"><path class="js-line" d="M0,196.87L1.22,198.16L2.43,197.46L3.65,198.16L4.87,195.93L6.09,197.78L7.31,197.41L10.97,194.03L12.19,191.83L14.62,182.1L15.84,173.2L30.47,118.27L31.69,112.48L35.34,99.13L36.56,95.19L37.78,88.33L39,88L40.22,80.95L41.44,81.09L42.65,78.94L43.87,72.62L46.31,67.58L47.53,65.83L48.75,63.88L49.97,58L51.18,61.54L52.4,59.16L53.62,55.14L54.84,57.09L56.06,55.43L57.28,48.27L58.5,48.22L59.72,52.05L62.15,39.08L63.37,39.05L64.59,43.34L65.81,42.78L67.03,38.65L68.25,37.76L69.47,35.65L70.69,37.98L71.9,31.41L73.12,29.83L74.34,28.14L75.56,32.94L76.78,34.65L78,31.76L80.44,24.25L81.65,28.38L84.09,25.62L85.31,25.78L86.53,23.58L87.75,24.09L88.97,16.4L90.19,15.65L91.4,21.79L92.62,22.3L93.84,17.09L95.06,19.83L96.28,21.71L97.5,21.36L99.94,18.22L101.15,12.73L102.37,19.64L103.59,17.42L104.81,20.61L106.03,21.68L107.25,20.42L108.47,21.28L109.69,24.31L110.9,24.28L113.34,25.08L114.56,26.13L115.78,27.36L117,22.51L118.22,29.37L119.44,23.5L120.65,28.33L121.87,29L123.09,28.11L124.31,25.94L125.53,27.55L126.75,26.67L127.97,28.65L129.19,27.82L131.62,31.54L132.84,29.32L134.06,32.8L135.28,33.9L136.5,30.5L137.72,33.34L138.94,31.76L140.15,34.71L141.37,35.62L142.59,29.91L143.81,33.98L145.03,29.64L146.25,29.94L147.47,34.76L148.69,29.8L149.91,33.07L151.12,31.33L152.34,30.9L153.56,35.57L154.78,30.5L156,31.41L157.22,29.32L158.44,32.05L159.66,30.37L160.87,31.65L162.09,30.74L163.31,31.84L164.53,29.64L165.75,30.02L166.97,31.81L168.19,33.72L169.41,31.25L170.62,31.22L171.84,30.28L173.06,28.97L174.28,31.84L175.5,30.9L176.72,32.72L177.94,30.95L179.16,30.93L180.37,30.23L181.59,31.76L182.81,33.26L184.03,32.4L185.25,33.02L186.47,30.82L187.69,30.82L188.91,32.11L190.12,32.4L191.34,29.96L192.56,31.57L193.78,30.82L195,32.05L196.22,31.79L197.44,31.25L198.66,31.71L199.87,30.55L201.09,31.04L202.31,30.47L203.53,30.77L204.75,31.92L205.97,30.74L208.41,29.88L209.62,31.17L212.06,29.53L213.28,29.91L215.72,28.94L216.94,29.11L218.16,29.53L219.37,29.05L225.47,28.38L226.69,27.76L229.12,27.5L230.34,26L231.56,27.74L232.78,26.5L234,26.91" style="vector-effect: none; fill: none; stroke: rgb(255, 28, 28); stroke-opacity: 1; stroke-width: 2px; opacity: 1;"/></g><g class="points"/><g class="text"/></g><g class="trace scatter tracea7f03a" style="stroke-miterlimit: 2; opacity: 1;"><g class="fills"/><g class="errorbars"/><g class="lines"><path class="js-line" d="M0,197.19L2.43,198.7L3.65,198.62L4.87,197.54L6.09,197.7L8.53,196.15L9.75,193.74L10.97,190.73L12.18,184.94L17.06,161.19L18.28,152.32L23.15,121.78L24.37,117.22L26.81,107.12L28.03,104.52L29.25,101.97L30.47,97.63L31.68,92.19L32.9,90.68L36.56,83.37L37.78,78.7L40.22,72.62L41.43,71.84L43.87,66.1L45.09,63.9L49.97,55.46L51.18,51.06L53.62,50.61L54.84,48.09L56.06,47.23L57.28,45.16L59.72,42.83L60.93,38.73L62.15,39.8L63.37,39.32L64.59,37.15L65.81,36.8L73.12,28.57L74.34,28.7L75.56,26.48L76.78,27.66L78,25.03L79.22,25.06L80.43,24.17L81.65,21.12L82.87,22.75L84.09,17.9L85.31,18.76L86.53,18.17L87.75,18.49L88.97,16.59L90.19,17.39L91.4,17.12L92.62,15.89L93.84,17.23L95.06,14.71L96.28,16.77L97.5,16.21L98.72,17.36L101.15,19.16L102.37,16.42L104.81,17.77L106.03,19.8L107.25,18.49L108.47,21.25L109.69,19.35L110.9,20.58L113.34,27.26L114.56,18.65L115.78,21.49L117,20.12L118.22,19.37L119.44,20.2L121.87,22.94L123.09,23.34L124.31,21.41L125.53,23.26L126.75,22.54L127.97,23.72L129.19,21.01L130.4,26.59L131.62,24.01L132.84,25.33L135.28,27.98L136.5,26.42L138.94,30.28L140.15,31.87L141.37,26.13L142.59,30.34L146.25,35.46L147.47,30.53L148.69,27.52L149.9,31.57L151.12,34.73L152.34,33.72L153.56,29.75L154.78,33.21L157.22,38.49L158.44,38.43L159.66,35.24L160.87,34.9L162.09,40.55L163.31,33.58L164.53,32.43L165.75,38.62L166.97,34.95L168.19,35.46L169.41,34.36L170.62,29.43L171.84,33.39L173.06,31.17L174.28,30.1L175.5,32.19L176.72,27.34L177.94,31.95L179.16,26.77L180.37,31.09L181.59,27.55L182.81,35.16L184.03,32.72L185.25,43.53L186.47,34.84L187.69,39.29L188.91,35.75L190.12,36.29L191.34,35.54L192.56,32.89L193.78,39.61L195,33.82L196.22,29.67L197.44,30.07L198.66,37.55L199.87,28.01L201.09,25L202.31,29.8L203.53,30.15L204.75,29.24L207.19,29.75L208.41,32.86L210.84,29.94L212.06,31.44L213.28,31.28L214.5,29.48L215.72,29.96L216.94,32.78L218.16,38.51L219.37,30.04L220.59,31.04L221.81,29.05L224.25,34.57L225.47,31.76L226.69,31.81L227.91,33.69L230.34,28.73L231.56,31.81L232.78,33.85L234,34.41" style="vector-effect: none; fill: none; stroke: rgb(51, 204, 51); stroke-opacity: 1; stroke-width: 2px; opacity: 1;"/></g><g class="points"/><g class="text"/></g><g class="trace scatter trace313229" style="stroke-miterlimit: 2; opacity: 1;"><g class="fills"/><g class="errorbars"/><g class="lines"><path class="js-line" d="M0,197.54L3.65,198.21L4.87,198.27L6.09,198.35L7.31,197.38L9.75,195.59L10.97,194.43L17.06,172.21L18.28,164.41L23.15,134.03L24.37,124.06L28.03,108.62L29.25,107.41L31.69,98.67L32.9,95.62L35.34,86.64L36.56,87.2L37.78,86.9L39,84.17L40.22,80.9L41.44,80.12L42.65,74.97L43.87,74.95L46.31,64.44L47.53,64.79L49.97,63.74L51.19,61.57L54.84,55.19L56.06,53.77L58.5,47.58L59.72,47.23L60.94,48.14L62.15,45.51L63.37,44.9L64.59,45.32L67.03,40.77L68.25,41.46L70.69,37.82L71.9,38.86L73.12,38.78L74.34,37.28L76.78,32.46L78,32.48L79.22,33.64L80.44,31.87L82.87,26.53L84.09,27.15L85.31,25.81L86.53,26.21L88.97,24.33L90.19,23.96L92.62,21.06L93.84,22.59L95.06,21.63L96.28,22.05L97.5,19.78L98.72,20.12L99.94,20.66L101.16,20.26L102.37,23.1L103.59,22.46L104.81,22.94L106.03,19.13L108.47,21.95L109.69,20.71L110.91,17.82L112.12,19.99L113.34,18.49L114.56,18.94L115.78,17.04L117,19.91L119.44,24.52L120.66,22.48L121.87,21.49L123.09,23.82L124.31,22.86L125.53,23.77L126.75,23.48L127.97,27.23L129.19,26.08L130.41,26.45L131.62,25.08L132.84,26.8L136.5,32.3L137.72,29.35L138.94,28.33L140.16,31.76L141.37,29.67L142.59,30.2L143.81,28.6L145.03,32.78L146.25,32.19L147.47,34.25L148.69,33.02L149.91,37.63L151.12,35.81L152.34,38.94L153.56,34.28L154.78,36.48L156,35.78L157.22,37.55L158.44,36.93L159.66,41.92L162.09,34.25L163.31,35.51L164.53,34.44L165.75,42.05L166.97,35.75L168.19,51.97L169.41,57.39L170.62,44.9L171.84,44.41L173.06,42.38L174.28,46.45L175.5,45.46L177.94,59.45L179.16,58.38L180.38,58.51L181.59,55.99L182.81,47.15L184.03,45.35L185.25,48.94L186.47,46.34L187.69,40.77L188.91,40.23L190.13,51.11L191.34,47.36L192.56,40.12L193.78,47.87L195,47.04L196.22,51.54L197.44,44.92L198.66,53.34L199.88,43.37L201.09,46.88L203.53,59.67L204.75,57.95L205.97,65.3L207.19,52.46L208.41,53.96L209.63,46.88L210.84,47.09L212.06,43.53L213.28,45.99L214.5,41.3L215.72,41.33L216.94,42.62L218.16,39.86L219.38,40.55L220.59,40.61L221.81,50.82L223.03,45.35L224.25,53.45L225.47,55.94L226.69,48.33L227.91,49.1L229.13,51.41L230.34,57.28L231.56,48.78" style="vector-effect: none; fill: none; stroke: rgb(51, 204, 51); stroke-opacity: 1; stroke-width: 2px; opacity: 1;"/></g><g class="points"/><g class="text"/></g><g class="trace scatter tracee23a3a" style="stroke-miterlimit: 2; opacity: 1;"><g class="fills"/><g class="errorbars"/><g class="lines"><path class="js-line" d="M0,196.07L1.22,197.52L2.43,196.66L3.65,197.19L4.87,194.81L6.09,196.5L7.31,195.8L9.75,191.99L10.97,188.56L15.84,166.28L17.06,157.97L23.15,117.04L24.37,113.04L31.69,84.97L32.9,83.71L34.12,82.8L35.34,80.47L36.56,77.17L37.78,69.51L39,71.76L40.22,66.32L42.65,65.11L43.87,59.59L45.09,58.33L46.31,53.58L47.53,53.29L48.75,51.49L49.97,47.23L51.18,49L53.62,43.23L54.84,43.9L57.28,39.59L58.5,36.64L59.72,38.22L60.93,34.57L62.15,30.39L63.37,31.01L64.59,30.95L65.81,29.59L68.25,26.83L69.47,27.12L70.69,25.91L71.9,21.12L73.12,21.14L74.34,19.78L76.78,22.11L78,19.53L80.44,17.5L81.65,18.73L84.09,16.93L85.31,16.29L87.75,14.76L88.97,11.25L90.19,10.5L91.4,14.39L92.62,14.25L93.84,11.63L96.28,15.75L97.5,16.05L98.72,14.39L99.94,14.36L101.15,11.92L102.37,16.75L103.59,15.16L104.81,17.87L106.03,18.46L107.25,16.72L108.47,17.58L109.69,19.48L112.12,19.13L113.34,19.29L115.78,21.25L117,16.72L119.44,22.86L120.65,21.25L121.87,21.92L123.09,20.39L124.31,20.15L125.53,22.24L126.75,21.52L127.97,22.05L131.62,24.95L132.84,23.21L135.28,27.95L136.5,25.03L140.15,29.24L141.37,28.7L142.59,25.73L143.81,29.48L145.03,26.1L146.25,26.24L147.47,31.22L148.69,27.23L149.91,28.73L151.12,26.99L152.34,27.85L153.56,30.42L154.78,26.16L156,27.07L157.22,26.42L158.44,28.84L159.66,26.83L160.87,28.27L162.09,28.49L163.31,31.04L164.53,28.19L165.75,28.09L168.19,32.43L169.41,28.35L170.62,29.13L171.84,27.71L173.06,28.33L174.28,30.07L175.5,28.33L176.72,30.63L177.94,29.99L179.16,28.03L180.37,28.14L181.59,30.15L182.81,31.81L184.03,29.83L185.25,30.12L186.47,29.21L187.69,27.76L188.91,30.98L190.12,30.15L191.34,27.39L192.56,31.41L193.78,28.57L195,32.54L196.22,29.69L198.66,29.45L199.87,27.66L201.09,30.39L202.31,28.7L204.75,30.47L205.97,29.13L207.19,28.01L208.41,31.49L209.62,33.42L210.84,30.37L212.06,28.73L213.28,29.11L214.5,29.67L215.72,29.27L218.16,30.18L219.37,31.95L221.81,31.95L223.03,30.37L224.25,31.81L225.47,26.61L226.69,28.25L227.91,28.19L230.34,27.76L231.56,30.31L232.78,29.88L234,31.57" style="vector-effect: none; fill: none; stroke: rgb(51, 204, 51); stroke-opacity: 1; stroke-width: 2px; opacity: 1;"/></g><g class="points"/><g class="text"/></g></g></g></g><path class="xlines-above crisp" d="M0,0" style="fill: none;"/><path class="ylines-above crisp" d="M0,0" style="fill: none;"/><g class="overlines-above"/><g class="xaxislayer-above"><g class="xtick"><text text-anchor="middle" x="0" y="245" transform="translate(47.99,0)" style="font-family: 'Open Sans', verdana, arial, sans-serif; font-size: 14px; fill: rgb(0, 0, 0); fill-opacity: 1; white-space: pre; opacity: 1;">0</text></g><g class="xtick"><text text-anchor="middle" x="0" y="245" style="font-family: 'Open Sans', verdana, arial, sans-serif; font-size: 14px; fill: rgb(0, 0, 0); fill-opacity: 1; white-space: pre; opacity: 1;" transform="translate(96.74000000000001,0)">10</text></g><g class="xtick"><text text-anchor="middle" x="0" y="245" style="font-family: 'Open Sans', verdana, arial, sans-serif; font-size: 14px; fill: rgb(0, 0, 0); fill-opacity: 1; white-space: pre; opacity: 1;" transform="translate(145.49,0)">20</text></g><g class="xtick"><text text-anchor="middle" x="0" y="245" style="font-family: 'Open Sans', verdana, arial, sans-serif; font-size: 14px; fill: rgb(0, 0, 0); fill-opacity: 1; white-space: pre; opacity: 1;" transform="translate(194.24,0)">30</text></g><g class="xtick"><text text-anchor="middle" x="0" y="245" style="font-family: 'Open Sans', verdana, arial, sans-serif; font-size: 14px; fill: rgb(0, 0, 0); fill-opacity: 1; white-space: pre; opacity: 1;" transform="translate(242.99,0)">40</text></g></g><g class="yaxislayer-above"><g class="ytick"><text text-anchor="end" x="47" y="4.8999999999999995" transform="translate(0,215.21)" style="font-family: 'Open Sans', verdana, arial, sans-serif; font-size: 14px; fill: rgb(0, 0, 0); fill-opacity: 1; white-space: pre; opacity: 1;">0</text></g><g class="ytick"><text text-anchor="end" x="47" y="4.8999999999999995" style="font-family: 'Open Sans', verdana, arial, sans-serif; font-size: 14px; fill: rgb(0, 0, 0); fill-opacity: 1; white-space: pre; opacity: 1;" transform="translate(0,134.79000000000002)">0.5</text></g><g class="ytick"><text text-anchor="end" x="47" y="4.8999999999999995" style="font-family: 'Open Sans', verdana, arial, sans-serif; font-size: 14px; fill: rgb(0, 0, 0); fill-opacity: 1; white-space: pre; opacity: 1;" transform="translate(0,54.36)">1</text></g></g><g class="overaxes-above"/></g></g><g class="polarlayer"/><g class="smithlayer"/><g class="ternarylayer"/><g class="geolayer"/><g class="funnelarealayer"/><g class="pielayer"/><g class="iciclelayer"/><g class="treemaplayer"/><g class="sunburstlayer"/><g class="glimages"/><defs id="topdefs-2a836a"><g class="clips"/><clipPath id="legend2a836a"><rect width="213" height="89" x="0" y="0"/></clipPath></defs><g class="layer-above"><g class="imagelayer"/><g class="shapelayer"/></g><g class="infolayer"><g class="legend" pointer-events="all" transform="translate(286.68,20)"><rect class="bg" shape-rendering="crispEdges" width="213" height="89" x="0" y="0" style="stroke: rgb(68, 68, 68); stroke-opacity: 1; fill: rgb(255, 255, 255); fill-opacity: 1; stroke-width: 0px;"/><g class="scrollbox" transform="" clip-path="url(#legend2a836a)"><g class="groups"><g class="traces" transform="translate(0,24.7)" style="opacity: 1;"><text class="legendtext" text-anchor="start" x="40" y="-3.64" style="font-family: 'Open Sans', verdana, arial, sans-serif; font-size: 14px; fill: rgb(0, 0, 0); fill-opacity: 1; white-space: pre;"><tspan class="line" dy="0em" x="40" y="-3.64">Salmonella Typhimurium </tspan><tspan class="line" dy="1.3em" x="40" y="-3.64">mcherry:pGDPI CTX-M-15</tspan></text><g class="layers" style="opacity: 1;"><g class="legendfill"/><g class="legendlines"><path class="js-line" d="M5,0h30" style="fill: none; stroke: rgb(255, 28, 28); stroke-opacity: 1; stroke-width: 2px;"/></g><g class="legendsymbols"><g class="legendpoints"/></g></g><rect class="legendtoggle" x="0" y="-19.7" width="207.078125" height="39.4" style="fill: rgb(0, 0, 0); fill-opacity: 0;"/></g><g class="traces" transform="translate(0,64.1)" style="opacity: 1;"><text class="legendtext" text-anchor="start" x="40" y="-3.64" style="font-family: 'Open Sans', verdana, arial, sans-serif; font-size: 14px; fill: rgb(0, 0, 0); fill-opacity: 1; white-space: pre;"><tspan class="line" dy="0em" x="40" y="-3.64">Escherichia coli  </tspan><tspan class="line" dy="1.3em" x="40" y="-3.64">sfGFP:pGDPI CAT</tspan></text><g class="layers" style="opacity: 1;"><g class="legendfill"/><g class="legendlines"><path class="js-line" d="M5,0h30" style="fill: none; stroke: rgb(51, 204, 51); stroke-opacity: 1; stroke-width: 2px;"/></g><g class="legendsymbols"><g class="legendpoints"/></g></g><rect class="legendtoggle" x="0" y="-19.7" width="207.078125" height="39.4" style="fill: rgb(0, 0, 0); fill-opacity: 0;"/></g></g></g><rect class="scrollbar" rx="20" ry="3" width="0" height="0" x="0" y="0" style="fill: rgb(128, 139, 164); fill-opacity: 1;"/></g><g class="g-gtitle"><text class="gtitle" x="25" y="10" text-anchor="start" dy="0em" style="opacity: 1; font-family: 'Open Sans', verdana, arial, sans-serif; font-size: 14px; fill: rgb(0, 0, 0); fill-opacity: 1; white-space: pre;">Mono-culture growth curves 100% CFA</text></g><g class="g-xtitle" transform="translate(0,-0.39999999999997726)"><text class="xtitle" x="165" y="275.4" text-anchor="middle" style="opacity: 1; font-family: 'Open Sans', verdana, arial, sans-serif; font-size: 17px; fill: rgb(0, 0, 0); fill-opacity: 1; white-space: pre;">Time [h]</text></g><g class="g-ytitle" transform="translate(11.2001953125,0)"><text class="ytitle" transform="rotate(-90,6.799999999999997,125)" x="6.799999999999997" y="125" text-anchor="middle" style="opacity: 1; font-family: 'Open Sans', verdana, arial, sans-serif; font-size: 17px; fill: rgb(0, 0, 0); fill-opacity: 1; white-space: pre;">Abundance [OD]</text></g></g></svg>