<svg class="main-svg" xmlns="http://www.w3.org/2000/svg" xmlns:xlink="http://www.w3.org/1999/xlink" width="1000" height="400" style="" viewBox="0 0 1000 400"><rect x="0" y="0" width="1000" height="400" style="fill: rgb(255, 255, 255); fill-opacity: 1;"/><defs id="defs-d94e1a"><g class="clips"><clipPath id="clipd94e1axyplot" class="plotclip"><rect width="779" height="330"/></clipPath><clipPath class="axesclip" id="clipd94e1ax"><rect x="48" y="0" width="779" height="400"/></clipPath><clipPath class="axesclip" id="clipd94e1ay"><rect x="0" y="20" width="1000" height="330"/></clipPath><clipPath class="axesclip" id="clipd94e1axy"><rect x="48" y="20" width="779" height="330"/></clipPath></g><g class="gradients"/><g class="patterns"/></defs><g class="bglayer"/><g class="layer-below"><g class="imagelayer"/><g class="shapelayer"/></g><g class="cartesianlayer"><g class="subplot xy"><g class="layer-subplot"><g class="shapelayer"/><g class="imagelayer"/></g><g class="minor-gridlayer"><g class="x"/><g class="y"/></g><g class="gridlayer"><g class="x"><path class="xgrid crisp" transform="translate(129.14,0)" d="M0,20v330" style="stroke: rgb(0, 0, 0); stroke-opacity: 1; stroke-width: 0.5px;"/><path class="xgrid crisp" transform="translate(210.29,0)" d="M0,20v330" style="stroke: rgb(0, 0, 0); stroke-opacity: 1; stroke-width: 0.5px;"/><path class="xgrid crisp" transform="translate(291.43,0)" d="M0,20v330" style="stroke: rgb(0, 0, 0); stroke-opacity: 1; stroke-width: 0.5px;"/><path class="xgrid crisp" transform="translate(372.57,0)" d="M0,20v330" style="stroke: rgb(0, 0, 0); stroke-opacity: 1; stroke-width: 0.5px;"/><path class="xgrid crisp" transform="translate(453.71,0)" d="M0,20v330" style="stroke: rgb(0, 0, 0); stroke-opacity: 1; stroke-width: 0.5px;"/><path class="xgrid crisp" transform="translate(534.86,0)" d="M0,20v330" style="stroke: rgb(0, 0, 0); stroke-opacity: 1; stroke-width: 0.5px;"/><path class="xgrid crisp" transform="translate(616,0)" d="M0,20v330" style="stroke: rgb(0, 0, 0); stroke-opacity: 1; stroke-width: 0.5px;"/><path class="xgrid crisp" transform="translate(697.14,0)" d="M0,20v330" style="stroke: rgb(0, 0, 0); stroke-opacity: 1; stroke-width: 0.5px;"/><path class="xgrid crisp" transform="translate(778.29,0)" d="M0,20v330" style="stroke: rgb(0, 0, 0); stroke-opacity: 1; stroke-width: 0.5px;"/></g><g class="y"><path class="ygrid crisp" transform="translate(0,277.23)" d="M48,0h779" style="stroke: rgb(0, 0, 0); stroke-opacity: 1; stroke-width: 0.5px;"/><path class="ygrid crisp" transform="translate(0,226.46)" d="M48,0h779" style="stroke: rgb(0, 0, 0); stroke-opacity: 1; stroke-width: 0.5px;"/><path class="ygrid crisp" transform="translate(0,175.69)" d="M48,0h779" style="stroke: rgb(0, 0, 0); stroke-opacity: 1; stroke-width: 0.5px;"/><path class="ygrid crisp" transform="translate(0,124.92)" d="M48,0h779" style="stroke: rgb(0, 0, 0); stroke-opacity: 1; stroke-width: 0.5px;"/><path class="ygrid crisp" transform="translate(0,74.15)" d="M48,0h779" style="stroke: rgb(0, 0, 0); stroke-opacity: 1; stroke-width: 0.5px;"/><path class="ygrid crisp" transform="translate(0,23.38)" d="M48,0h779" style="stroke: rgb(0, 0, 0); stroke-opacity: 1; stroke-width: 0.5px;"/></g></g><g class="zerolinelayer"><path class="xzl zl crisp" transform="translate(48,0)" d="M0,20v330" style="stroke: rgb(0, 0, 0); stroke-opacity: 1; stroke-width: 0.5px;"/><path class="yzl zl crisp" transform="translate(0,328)" d="M48,0h779" style="stroke: rgb(0, 0, 0); stroke-opacity: 1; stroke-width: 0.5px;"/></g><g class="layer-between"><g class="shapelayer"/><g class="imagelayer"/></g><path class="xlines-below"/><path class="ylines-below"/><g class="overlines-below"/><g class="xaxislayer-below"/><g class="yaxislayer-below"/><g class="overaxes-below"/><g class="overplot"><g class="xy" transform="translate(48,20)" clip-path="url(#clipd94e1axyplot)"><g class="scatterlayer mlayer"><g class="trace scatter trace2d4888" style="stroke-miterlimit: 2; opacity: 1;"><g class="fills"/><g class="errorbars"/><g class="lines"><path class="js-line" d="M0.04,311.13L4.09,312.99L8.14,313.5L12.2,313.37L16.26,311.68L20.32,311.93L24.37,310.71L28.43,309.48L32.49,305.67L36.54,300.93L40.6,291.8L44.66,282.53L48.72,275.51L56.83,254.31L60.89,240.31L73.06,202.32L77.11,192.12L81.17,184.93L85.23,175.7L89.29,168.98L93.34,164.87L97.4,160.85L101.46,154L105.51,145.41L109.57,143.04L117.69,136.61L121.74,131.49L125.8,124.13L129.86,119.69L133.91,114.53L137.97,113.3L142.03,107.33L146.09,104.25L162.31,89.86L166.37,87.45L170.43,80.51L174.48,80.17L178.54,79.79L182.6,75.82L186.66,74.46L190.71,71.2L194.77,68.62L198.83,67.52L202.89,61.05L206.94,62.74L211,61.98L215.06,58.55L219.11,58L223.17,55.72L227.23,52.46L231.28,50.3L235.34,48.7L239.4,45.86L243.46,45.02L247.51,45.23L251.57,41.72L255.63,43.58L259.69,39.43L263.74,39.47L267.8,38.08L271.86,33.25L275.91,35.83L279.97,28.18L284.03,29.53L288.08,28.6L292.14,29.11L296.2,26.1L300.26,27.37L304.31,26.95L308.37,25L312.43,27.12L316.48,23.14L320.54,26.4L324.6,25.51L328.66,27.33L336.77,30.17L340.83,25.85L344.89,26.36L348.94,27.97L353,31.18L357.06,29.11L361.11,33.47L365.17,30.46L369.23,32.41L373.28,36.64L377.34,42.94L381.4,29.36L385.46,33.85L389.51,31.69L393.57,30.5L397.63,31.82L405.74,36.13L409.8,36.77L413.86,33.72L417.91,36.64L421.97,35.5L426.03,37.36L430.08,33.08L434.14,41.88L438.2,37.82L442.26,39.9L450.37,44.08L454.43,41.63L458.49,46.12L462.54,47.72L466.6,50.22L470.66,41.17L474.71,47.81L478.77,50.35L482.83,52.42L486.88,55.89L490.94,48.1L495,43.37L503.11,54.75L507.17,53.14L511.23,46.88L515.28,52.33L519.34,55.51L523.4,60.67L527.46,60.58L531.51,55.55L535.57,55L539.63,63.93L543.68,52.93L547.74,51.11L551.8,60.88L555.86,55.08L559.91,55.89L563.97,54.15L568.03,46.37L572.08,52.63L576.14,49.12L580.2,47.43L584.26,50.73L588.31,43.07L592.37,50.35L596.43,42.18L600.49,48.99L604.54,43.41L608.6,55.42L612.66,51.57L616.71,68.62L620.77,54.92L624.83,61.94L628.89,56.35L632.94,57.2L637,56.02L641.06,51.83L645.11,62.45L649.17,53.31L653.23,46.75L657.29,47.38L661.34,59.19L665.4,44.13L669.46,39.39L673.51,46.96L677.57,47.51L681.63,46.07L685.69,47.09L689.74,46.88L693.8,51.78L701.91,47.17L705.97,49.54L710.03,49.29L714.08,46.45L718.14,47.22L722.2,51.66L726.26,60.71L730.31,47.34L734.37,48.91L738.43,45.78L742.49,49.54L746.54,54.49L750.6,50.05L754.66,50.13L758.71,53.1L762.77,47.55L766.83,45.27L770.89,50.13L774.94,53.35L779,54.24" style="vector-effect: none; fill: none; stroke: rgb(51, 204, 51); stroke-opacity: 1; stroke-width: 3px; opacity: 1;"/></g><g class="points"/><g class="text"/></g><g class="trace scatter traceb073f0" style="stroke-miterlimit: 2; opacity: 1;"><g class="fills"/><g class="errorbars"/><g class="lines"><path class="js-line" d="M0.04,311.68L8.15,312.61L12.2,312.74L20.32,312.95L24.38,311.43L28.43,309.1L32.49,308.59L36.55,306.77L40.61,300.43L48.72,286.34L52.78,281.77L56.83,271.7L60.89,259.39L64.95,248.64L69,235.44L73.06,226.94L77.12,211.45L81.18,195.72L85.23,186.32L89.29,177.69L93.35,171.35L97.4,169.44L101.46,161.53L109.58,150.83L113.63,143.34L117.69,136.65L121.75,137.54L125.81,137.08L129.86,132.76L133.92,127.6L137.98,126.37L142.03,118.25L146.09,118.21L154.2,101.62L158.26,102.17L162.32,101.88L166.38,100.52L182.6,87.03L186.66,84.78L190.72,78.52L194.77,75.01L198.83,74.46L202.89,75.9L206.95,71.75L211,70.78L215.06,71.46L219.12,66.34L223.17,64.27L227.23,65.37L231.29,61.56L235.35,59.61L239.4,61.26L243.46,61.13L247.52,58.77L251.57,55.38L255.63,51.15L259.69,51.19L263.75,53.01L267.8,50.22L275.92,41.8L279.97,42.77L284.03,40.66L288.09,41.29L292.15,39.35L296.2,38.33L300.26,37.74L304.32,35.58L308.37,33.17L312.43,35.58L316.49,34.06L320.55,34.73L324.6,31.14L328.66,31.69L332.72,32.53L336.78,31.9L340.83,36.38L344.89,35.37L348.95,36.13L353,30.12L357.06,31.86L361.12,34.57L365.17,32.62L369.23,28.05L373.29,31.48L377.35,29.11L381.4,29.83L385.46,26.82L389.52,31.35L393.57,34.35L397.63,38.63L401.69,35.41L405.75,33.85L409.8,37.53L413.86,36L417.92,37.44L421.98,36.98L426.03,42.9L430.09,41.08L434.15,41.67L438.2,39.52L442.26,42.22L446.32,45.1L450.38,49.2L454.43,50.9L458.49,46.24L462.55,44.63L466.6,50.05L470.66,46.75L474.72,47.6L478.77,45.06L482.83,51.66L486.89,50.73L490.95,53.98L495,52.04L499.06,59.32L503.12,56.44L507.17,61.39L511.23,54.03L515.29,57.5L519.35,56.4L523.4,59.19L527.46,58.22L531.52,66.08L535.57,58.6L539.63,53.98L543.69,55.97L547.75,54.28L551.8,66.3L555.86,56.35L559.92,81.95L563.97,90.5L568.03,70.78L572.09,70.02L576.15,66.8L580.2,73.23L584.26,71.67L588.32,84.11L592.37,93.75L596.43,92.06L600.49,92.27L604.55,88.3L608.6,74.33L612.66,71.5L616.72,77.17L620.77,73.07L624.83,64.27L628.89,63.42L632.95,80.6L637,74.67L641.06,63.25L645.12,75.48L649.17,74.17L653.23,81.27L657.29,70.82L661.35,84.11L665.4,68.37L669.46,73.91L673.52,86.9L677.57,94.09L681.63,91.38L685.69,102.98L689.75,82.71L693.8,85.08L697.86,73.91L701.92,74.25L705.97,68.62L710.03,72.52L714.09,65.11L718.15,65.15L722.2,67.18L726.26,62.83L730.32,63.93L734.37,64.01L738.43,80.13L742.49,71.5L746.55,84.28L750.6,88.21L754.66,76.2L758.72,77.42L762.78,81.06L766.83,90.33L770.89,76.92" style="vector-effect: none; fill: none; stroke: rgb(51, 204, 51); stroke-opacity: 1; stroke-width: 3px; opacity: 1;"/></g><g class="points"/><g class="text"/></g><g class="trace scatter trace6a61d4" style="stroke-miterlimit: 2; opacity: 1;"><g class="fills"/><g class="errorbars"/><g class="lines"><path class="js-line" d="M0.04,309.35L4.09,311.64L8.14,310.28L12.2,311.13L16.26,307.37L20.32,310.03L24.37,308.93L32.49,302.92L36.54,297.51L48.72,273.1L52.77,262.35L77.12,184.63L81.17,178.33L89.29,164.53L93.34,153.75L97.4,151.08L101.46,140.12L105.52,134.03L109.57,132.04L113.63,130.6L117.69,126.92L121.74,121.72L125.8,109.62L129.86,113.17L133.92,104.58L137.97,104.03L142.03,102.68L146.08,93.97L150.14,91.98L154.2,84.49L158.26,84.02L162.31,81.19L166.37,74.46L170.43,77.25L174.49,73.74L178.54,68.16L182.6,69.22L186.66,66.59L190.71,62.4L194.77,57.75L198.83,60.25L206.94,47.89L211,48.87L215.06,48.78L219.11,46.62L227.23,42.27L231.29,42.73L235.34,40.83L239.4,33.25L243.46,33.3L247.51,31.14L251.57,33.63L255.63,34.82L259.69,30.76L263.74,28.6L267.8,27.54L271.86,29.49L275.91,27.37L279.97,26.65L292.14,23.23L296.2,17.68L300.26,16.5L304.31,22.63L308.37,22.42L312.43,18.28L316.49,22.34L320.54,24.79L324.6,25.26L328.66,22.63L332.71,22.59L336.77,18.74L340.83,26.36L344.88,23.86L348.94,28.13L353,29.07L357.06,26.32L361.11,27.67L365.17,30.67L369.23,29.87L377.34,30.38L381.4,31.77L385.46,33.47L389.51,26.32L393.57,32.83L397.63,36L401.69,33.47L405.74,34.52L409.8,32.11L413.86,31.73L417.91,35.03L421.97,33.89L430.08,35.96L434.14,38.42L438.2,39.3L442.26,36.55L450.37,44.04L454.43,39.43L458.49,41.88L462.54,42.94L466.6,46.07L470.66,45.23L474.71,40.53L478.77,46.45L482.83,41.12L486.89,41.33L490.94,49.2L495,42.9L499.06,45.27L503.11,42.52L507.17,43.87L511.23,47.93L515.29,41.21L519.34,42.65L523.4,41.63L527.46,45.44L531.51,42.27L535.57,44.55L539.63,44.89L543.68,48.91L547.74,44.42L551.8,44.25L555.86,48.87L559.91,51.11L563.97,44.68L568.03,45.9L572.09,43.66L576.14,44.63L580.2,47.38L584.26,44.63L588.31,48.27L592.37,47.26L596.43,44.17L600.49,44.34L608.6,50.13L612.66,47L616.72,47.47L620.77,46.03L624.83,43.75L628.89,48.82L632.94,47.51L637,43.15L641.06,49.5L645.11,45.02L649.17,51.28L653.23,46.79L657.29,46.2L661.34,46.41L665.4,43.58L669.46,47.89L673.51,45.23L677.57,46.2L681.63,48.02L685.69,45.9L689.74,44.13L693.8,49.63L697.86,52.67L701.91,47.85L705.97,45.27L710.03,45.86L714.09,46.75L718.14,46.12L726.26,47.55L730.31,50.35L738.43,50.35L742.49,47.85L746.54,50.13L750.6,41.93L754.66,44.51L758.71,44.42L762.77,44.59L766.83,43.75L770.89,47.77L774.94,47.09L779,49.75" style="vector-effect: none; fill: none; stroke: rgb(51, 204, 51); stroke-opacity: 1; stroke-width: 3px; opacity: 1;"/></g><g class="points"/><g class="text"/></g><g class="trace scatter traced90c01" style="stroke-miterlimit: 2; opacity: 1;"><g class="fills"/><g class="errorbars"/><g class="lines"><path class="js-line" d="M0,305.97L14.05,303.61L15.61,303.22L24.98,300.06L26.54,299.37L34.34,294.91L35.91,293.79L42.15,288.33L43.71,286.69L49.96,278.81L51.52,276.48L57.76,265.46L59.32,262.25L65.57,247.5L67.13,243.32L74.93,219.58L76.49,214.31L87.42,174.32L88.98,168.39L103.03,117.89L104.6,112.93L112.4,90.93L113.96,87.12L120.21,73.8L121.77,70.93L128.01,61.16L129.57,59.1L135.82,52.2L137.38,50.78L145.18,45.07L146.75,44.18L154.55,40.64L156.11,40.09L167.04,37.29L168.6,37L182.65,35.3L184.21,35.18L207.63,34.21L209.19,34.18L263.83,33.86L265.39,33.86L779,33.85" style="vector-effect: none; fill: none; stroke: rgb(0, 0, 0); stroke-opacity: 1; stroke-dasharray: 9px, 9px; stroke-width: 3px; opacity: 1;"/></g><g class="points"/><g class="text"/></g></g></g></g><path class="xlines-above crisp" d="M0,0" style="fill: none;"/><path class="ylines-above crisp" d="M0,0" style="fill: none;"/><g class="overlines-above"/><g class="xaxislayer-above"><g class="xtick"><text text-anchor="middle" x="0" y="365" transform="translate(48,0)" style="font-family: 'Open Sans', verdana, arial, sans-serif; font-size: 14px; fill: rgb(0, 0, 0); fill-opacity: 1; white-space: pre; opacity: 1;">0</text></g><g class="xtick"><text text-anchor="middle" x="0" y="365" style="font-family: 'Open Sans', verdana, arial, sans-serif; font-size: 14px; fill: rgb(0, 0, 0); fill-opacity: 1; white-space: pre; opacity: 1;" transform="translate(129.14,0)">5</text></g><g class="xtick"><text text-anchor="middle" x="0" y="365" style="font-family: 'Open Sans', verdana, arial, sans-serif; font-size: 14px; fill: rgb(0, 0, 0); fill-opacity: 1; white-space: pre; opacity: 1;" transform="translate(210.29,0)">10</text></g><g class="xtick"><text text-anchor="middle" x="0" y="365" style="font-family: 'Open Sans', verdana, arial, sans-serif; font-size: 14px; fill: rgb(0, 0, 0); fill-opacity: 1; white-space: pre; opacity: 1;" transform="translate(291.43,0)">15</text></g><g class="xtick"><text text-anchor="middle" x="0" y="365" style="font-family: 'Open Sans', verdana, arial, sans-serif; font-size: 14px; fill: rgb(0, 0, 0); fill-opacity: 1; white-space: pre; opacity: 1;" transform="translate(372.57,0)">20</text></g><g class="xtick"><text text-anchor="middle" x="0" y="365" style="font-family: 'Open Sans', verdana, arial, sans-serif; font-size: 14px; fill: rgb(0, 0, 0); fill-opacity: 1; white-space: pre; opacity: 1;" transform="translate(453.71,0)">25</text></g><g class="xtick"><text text-anchor="middle" x="0" y="365" style="font-family: 'Open Sans', verdana, arial, sans-serif; font-size: 14px; fill: rgb(0, 0, 0); fill-opacity: 1; white-space: pre; opacity: 1;" transform="translate(534.86,0)">30</text></g><g class="xtick"><text text-anchor="middle" x="0" y="365" style="font-family: 'Open Sans', verdana, arial, sans-serif; font-size: 14px; fill: rgb(0, 0, 0); fill-opacity: 1; white-space: pre; opacity: 1;" transform="translate(616,0)">35</text></g><g class="xtick"><text text-anchor="middle" x="0" y="365" style="font-family: 'Open Sans', verdana, arial, sans-serif; font-size: 14px; fill: rgb(0, 0, 0); fill-opacity: 1; white-space: pre; opacity: 1;" transform="translate(697.14,0)">40</text></g><g class="xtick"><text text-anchor="middle" x="0" y="365" style="font-family: 'Open Sans', verdana, arial, sans-serif; font-size: 14px; fill: rgb(0, 0, 0); fill-opacity: 1; white-space: pre; opacity: 1;" transform="translate(778.29,0)">45</text></g></g><g class="yaxislayer-above"><g class="ytick"><text text-anchor="end" x="47" y="4.8999999999999995" transform="translate(0,328)" style="font-family: 'Open Sans', verdana, arial, sans-serif; font-size: 14px; fill: rgb(0, 0, 0); fill-opacity: 1; white-space: pre; opacity: 1;">0</text></g><g class="ytick"><text text-anchor="end" x="47" y="4.8999999999999995" style="font-family: 'Open Sans', verdana, arial, sans-serif; font-size: 14px; fill: rgb(0, 0, 0); fill-opacity: 1; white-space: pre; opacity: 1;" transform="translate(0,277.23)">0.2</text></g><g class="ytick"><text text-anchor="end" x="47" y="4.8999999999999995" style="font-family: 'Open Sans', verdana, arial, sans-serif; font-size: 14px; fill: rgb(0, 0, 0); fill-opacity: 1; white-space: pre; opacity: 1;" transform="translate(0,226.46)">0.4</text></g><g class="ytick"><text text-anchor="end" x="47" y="4.8999999999999995" style="font-family: 'Open Sans', verdana, arial, sans-serif; font-size: 14px; fill: rgb(0, 0, 0); fill-opacity: 1; white-space: pre; opacity: 1;" transform="translate(0,175.69)">0.6</text></g><g class="ytick"><text text-anchor="end" x="47" y="4.8999999999999995" style="font-family: 'Open Sans', verdana, arial, sans-serif; font-size: 14px; fill: rgb(0, 0, 0); fill-opacity: 1; white-space: pre; opacity: 1;" transform="translate(0,124.92)">0.8</text></g><g class="ytick"><text text-anchor="end" x="47" y="4.8999999999999995" style="font-family: 'Open Sans', verdana, arial, sans-serif; font-size: 14px; fill: rgb(0, 0, 0); fill-opacity: 1; white-space: pre; opacity: 1;" transform="translate(0,74.15)">1</text></g><g class="ytick"><text text-anchor="end" x="47" y="4.8999999999999995" style="font-family: 'Open Sans', verdana, arial, sans-serif; font-size: 14px; fill: rgb(0, 0, 0); fill-opacity: 1; white-space: pre; opacity: 1;" transform="translate(0,23.38)">1.2</text></g></g><g class="overaxes-above"/></g></g><g class="polarlayer"/><g class="smithlayer"/><g class="ternarylayer"/><g class="geolayer"/><g class="funnelarealayer"/><g class="pielayer"/><g class="iciclelayer"/><g class="treemaplayer"/><g class="sunburstlayer"/><g class="glimages"/><defs id="topdefs-d94e1a"><g class="clips"/><clipPath id="legendd94e1a"><rect width="157" height="71" x="0" y="0"/></clipPath></defs><g class="layer-above"><g class="imagelayer"/><g class="shapelayer"/></g><g class="infolayer"><g class="legend" pointer-events="all" transform="translate(842.58,20)"><rect class="bg" shape-rendering="crispEdges" width="157" height="71" x="0" y="0" style="stroke: rgb(68, 68, 68); stroke-opacity: 1; fill: rgb(255, 255, 255); fill-opacity: 1; stroke-width: 0px;"/><g class="scrollbox" transform="" clip-path="url(#legendd94e1a)"><g class="groups"><g class="traces" transform="translate(0,24.7)" style="opacity: 1;"><text class="legendtext" text-anchor="start" x="40" y="-3.64" style="font-family: 'Open Sans', verdana, arial, sans-serif; font-size: 14px; fill: rgb(0, 0, 0); fill-opacity: 1; white-space: pre;"><tspan class="line" dy="0em" x="40" y="-3.64">Escherichia coli  </tspan><tspan class="line" dy="1.3em" x="40" y="-3.64">sfGFP:pGDPI CAT</tspan></text><g class="layers" style="opacity: 1;"><g class="legendfill"/><g class="legendlines"><path class="js-line" d="M5,0h30" style="fill: none; stroke: rgb(51, 204, 51); stroke-opacity: 1; stroke-width: 3px;"/></g><g class="legendsymbols"><g class="legendpoints"/></g></g><rect class="legendtoggle" x="0" y="-19.7" width="151.640625" height="39.4" style="fill: rgb(0, 0, 0); fill-opacity: 0;"/></g><g class="traces" transform="translate(0,55)" style="opacity: 1;"><text class="legendtext" text-anchor="start" x="40" y="5.46" style="font-family: 'Open Sans', verdana, arial, sans-serif; font-size: 14px; fill: rgb(0, 0, 0); fill-opacity: 1; white-space: pre;">Model</text><g class="layers" style="opacity: 1;"><g class="legendfill"/><g class="legendlines"><path class="js-line" d="M5,0h30" style="fill: none; stroke: rgb(0, 0, 0); stroke-opacity: 1; stroke-dasharray: 9px, 9px; stroke-width: 3px;"/></g><g class="legendsymbols"><g class="legendpoints"/></g></g><rect class="legendtoggle" x="0" y="-10.6" width="151.640625" height="21.2" style="fill: rgb(0, 0, 0); fill-opacity: 0;"/></g></g></g><rect class="scrollbar" rx="20" ry="3" width="0" height="0" x="0" y="0" style="fill: rgb(128, 139, 164); fill-opacity: 1;"/></g><g class="g-gtitle"/><g class="g-xtitle" transform="translate(0,-0.39999999999997726)"><text class="xtitle" x="437.5" y="395.4" text-anchor="middle" style="opacity: 1; font-family: 'Open Sans', verdana, arial, sans-serif; font-size: 17px; fill: rgb(0, 0, 0); fill-opacity: 1; white-space: pre;">Time [h]</text></g><g class="g-ytitle" transform="translate(11.2001953125,0)"><text class="ytitle" transform="rotate(-90,6.799999999999997,185)" x="6.799999999999997" y="185" text-anchor="middle" style="opacity: 1; font-family: 'Open Sans', verdana, arial, sans-serif; font-size: 17px; fill: rgb(0, 0, 0); fill-opacity: 1; white-space: pre;">Abundance [OD]</text></g></g></svg>