<svg class="main-svg" xmlns="http://www.w3.org/2000/svg" xmlns:xlink="http://www.w3.org/1999/xlink" width="500" height="400" style="" viewBox="0 0 500 400"><rect x="0" y="0" width="500" height="400" style="fill: rgb(255, 255, 255); fill-opacity: 1;"/><defs id="defs-de5244"><g class="clips"><clipPath id="clipde5244xyplot" class="plotclip"><rect width="297" height="361"/></clipPath><clipPath class="axesclip" id="clipde5244x"><rect x="40" y="0" width="297" height="400"/></clipPath><clipPath class="axesclip" id="clipde5244y"><rect x="0" y="10" width="500" height="361"/></clipPath><clipPath class="axesclip" id="clipde5244xy"><rect x="40" y="10" width="297" height="361"/></clipPath></g><g class="gradients"/><g class="patterns"/></defs><g class="bglayer"/><g class="layer-below"><g class="imagelayer"/><g class="shapelayer"/></g><g class="cartesianlayer"><g class="subplot xy"><g class="layer-subplot"><g class="shapelayer"/><g class="imagelayer"/></g><g class="minor-gridlayer"><g class="x"/><g class="y"/></g><g class="gridlayer"><g class="x"><path class="xgrid crisp" transform="translate(139,0)" d="M0,10v361" style="stroke: rgb(0, 0, 0); stroke-opacity: 1; stroke-width: 0.5px;"/><path class="xgrid crisp" transform="translate(238,0)" d="M0,10v361" style="stroke: rgb(0, 0, 0); stroke-opacity: 1; stroke-width: 0.5px;"/></g><g class="y"><path class="ygrid crisp" transform="translate(0,310.83)" d="M40,0h297" style="stroke: rgb(0, 0, 0); stroke-opacity: 1; stroke-width: 0.5px;"/><path class="ygrid crisp" transform="translate(0,250.67)" d="M40,0h297" style="stroke: rgb(0, 0, 0); stroke-opacity: 1; stroke-width: 0.5px;"/><path class="ygrid crisp" transform="translate(0,190.5)" d="M40,0h297" style="stroke: rgb(0, 0, 0); stroke-opacity: 1; stroke-width: 0.5px;"/><path class="ygrid crisp" transform="translate(0,130.32999999999998)" d="M40,0h297" style="stroke: rgb(0, 0, 0); stroke-opacity: 1; stroke-width: 0.5px;"/><path class="ygrid crisp" transform="translate(0,70.17)" d="M40,0h297" style="stroke: rgb(0, 0, 0); stroke-opacity: 1; stroke-width: 0.5px;"/></g></g><g class="zerolinelayer"><path class="xzl zl crisp" transform="translate(40,0)" d="M0,10v361" style="stroke: rgb(0, 0, 0); stroke-opacity: 1; stroke-width: 0.5px;"/><path class="yzl zl crisp" transform="translate(0,371)" d="M40,0h297" style="stroke: rgb(0, 0, 0); stroke-opacity: 1; stroke-width: 0.5px;"/></g><g class="layer-between"><g class="shapelayer"/><g class="imagelayer"/></g><path class="xlines-below"/><path class="ylines-below"/><g class="overlines-below"/><g class="xaxislayer-below"/><g class="yaxislayer-below"/><g class="overaxes-below"/><g class="overplot"><g class="xy" transform="translate(40,10)" clip-path="url(#clipde5244xyplot)"><g class="scatterlayer mlayer"><g class="trace scatter trace191aaf" style="stroke-miterlimit: 2; opacity: 1;"><g class="fills"/><g class="errorbars"/><g class="lines"><path class="js-line" d="M0.03,364.37L3.12,365.93L6.21,365.93L9.3,364.25L12.4,364.61L21.68,363.17L24.77,362.93L30.96,356.67L34.05,351.49L37.15,346.56L40.24,338.14L43.33,327.43L46.43,312.99L49.52,305.05L52.62,292.05L58.8,260.04L61.9,255.59L64.99,254.87L68.08,241.15L74.27,212.63L77.37,201.08L80.46,187.48L83.55,164.13L86.65,158.96L89.74,146.33L92.84,134.29L95.93,116.84L102.12,90.37L105.21,85.32L108.3,84.35L111.4,85.92L114.49,86.4L117.58,85.68L120.68,88.45L123.77,85.08L129.96,79.18L133.05,79.66L142.33,75.93L145.43,75.33L151.61,73.16L154.71,70.03L157.8,71.48L160.9,71.84L163.99,71L167.08,58.48L170.18,73.4L173.27,68.59L176.36,71.6L179.46,70.88L182.55,67.87L185.65,59.08L188.74,54.63L191.83,56.44L194.93,57.76L198.02,50.9L201.11,51.86L204.21,49.34L207.3,59.69L210.4,62.57L213.49,51.02L216.58,54.87L219.68,66.42L222.77,62.69L225.86,56.56L228.96,58.48L232.05,62.45L235.15,61.13L238.24,69.31L241.33,68.47L247.52,74.73L250.61,64.98L253.71,68.59L256.8,68.59L259.9,75.33L262.99,73.28L266.08,73.88L269.18,77.25L272.27,79.18L275.37,75.33L278.46,71.24L281.55,82.43L284.65,86.76L287.74,77.49L290.83,69.07L293.93,81.83L297.02,79.06L300.11,66.06L303.21,70.76L306.3,73.4L309.4,86.4L312.49,89.05L315.58,81.59L318.68,79.3L324.86,78.22L327.96,78.22L331.05,89.41L334.15,88.32L337.24,89.53L340.33,85.08L346.52,80.14L349.61,82.19L352.71,85.08L355.8,81.83L358.9,78.82L361.99,88.69L365.08,88.93L368.18,93.26L371.27,89.65L374.36,90.85L380.55,80.26L383.65,86.64L386.74,82.07L389.83,89.89L392.93,88.93L396.02,92.54L402.21,104.09L405.3,86.88L408.4,95.91L411.49,86.64L417.68,82.91L420.77,94.7L423.86,100.12L426.96,88.08L430.05,89.77L433.15,80.02L439.33,98.55L442.43,99.15L445.52,105.89L448.61,80.26L457.9,97.95L460.99,80.14L470.27,104.45L473.36,95.91L485.74,106.74L488.83,101.2L491.93,108.54L495.02,102.04L498.11,106.01L501.21,97.23L504.3,103.73L507.4,104.21L510.49,94.7L513.58,96.15L516.68,103.61L532.15,108.3L535.24,97.83L538.33,109.26L541.43,107.46L544.52,101.44L553.8,114.32L556.9,109.86L559.99,108.42L563.08,99.76L566.18,104.81L569.27,108.9L590.93,109.02L594.02,109.86" style="vector-effect: none; fill: none; stroke: rgb(51, 204, 51); stroke-opacity: 1; stroke-width: 1px; opacity: 1;"/></g><g class="points"/><g class="text"/></g><g class="trace scatter trace448701" style="stroke-miterlimit: 2; opacity: 1;"><g class="fills"/><g class="errorbars"/><g class="lines"><path class="js-line" d="M0.03,362.68L3.12,365.57L6.21,364.13L9.31,363.65L12.4,364.49L21.68,363.65L24.78,362.81L27.87,362.93L30.96,361.6L40.24,360.76L43.34,358.59L52.62,349.09L55.71,341.15L61.9,321.89L64.99,306.61L71.18,278.69L74.28,250.53L77.37,246.56L80.46,240.31L89.74,190.25L92.84,181.82L102.12,145.84L105.21,141.99L108.31,130.8L111.4,111.55L114.49,106.01L117.59,87.6L123.78,73.4L126.87,61.25L129.96,52.1L133.06,55.59L136.15,68.71L139.24,63.78L142.34,63.3L145.43,56.68L148.52,60.53L151.62,56.56L154.71,62.93L157.8,59.57L160.9,51.5L163.99,49.7L167.09,47.77L170.18,42.72L173.27,55.11L176.37,55.35L179.46,52.22L182.56,54.27L185.65,44.04L188.74,46.33L191.84,55.47L194.93,51.38L198.02,53.67L201.12,46.33L204.21,54.03L207.3,47.53L210.4,31.89L213.49,55.83L216.59,50.66L219.68,41.15L222.77,50.78L225.87,47.29L228.96,49.7L232.06,46.81L235.15,45L238.24,41.64L241.34,43.2L244.43,50.42L247.52,36.94L250.62,45.85L253.71,39.11L256.81,49.94L259.9,45.97L262.99,55.35L266.09,51.62L269.18,43.56L275.37,62.33L278.46,57.28L281.56,48.86L284.65,51.86L287.74,45.25L290.84,51.62L293.93,54.03L297.02,50.42L300.12,57.04L303.21,59.93L309.4,59.32L312.49,67.63L315.59,57.28L318.68,54.87L321.77,65.82L324.87,61.37L327.96,56.68L331.06,59.2L334.15,47.53L337.24,52.1L340.34,48.98L343.43,50.78L346.52,61.73L349.62,50.78L352.71,62.69L355.8,64.26L358.9,63.9L361.99,50.42L365.09,63.9L368.18,67.87L374.37,54.51L377.46,57.04L383.65,58.48L386.74,64.26L392.93,66.79L396.02,60.17L399.12,58.24L402.21,72.2L405.3,73.04L408.4,57.88L414.59,64.5L417.68,62.21L420.77,80.86L423.87,77.49L426.96,80.62L433.15,70.15L436.24,74.25L439.34,83.03L442.43,68.71L445.52,79.66L448.62,74.73L451.71,72.56L454.81,66.42L457.9,77.98L460.99,79.54L464.09,73.88L473.37,74.37L476.46,70.27L482.65,85.32L485.74,75.81L488.84,70.52L491.93,79.18L495.02,71.72L498.12,83.87L504.3,91.93L507.4,76.77L519.77,99.15L522.87,90.61L525.96,88.45L529.05,93.98L532.15,100.72L535.24,80.26L538.34,86.64L541.43,87.96L544.52,87.24L547.62,98.19L553.8,82.55L556.9,84.71L559.99,87.48L563.09,84.96L566.18,90.25L569.27,92.18L572.37,101.44L575.46,87.84L578.56,87.48L581.65,103.97L587.84,95.06" style="vector-effect: none; fill: none; stroke: rgb(51, 204, 51); stroke-opacity: 1; stroke-width: 1px; opacity: 1;"/></g><g class="points"/><g class="text"/></g><g class="trace scatter trace1ced12" style="stroke-miterlimit: 2; opacity: 1;"><g class="fills"/><g class="errorbars"/><g class="lines"><path class="js-line" d="M0.03,363.05L3.12,365.93L6.21,365.57L12.4,364.61L15.49,365.33L24.77,363.29L27.87,363.17L34.05,359.68L37.15,355.46L40.24,351.25L43.33,345.72L52.62,314.91L55.71,311.54L64.99,256.43L68.09,246.08L71.18,256.31L74.27,230.2L77.37,208.3L80.46,193.38L86.65,167.62L89.74,149.45L95.93,125.39L99.02,107.94L102.12,90.49L105.21,80.86L111.4,60.53L114.49,57.16L117.58,67.63L120.68,59.93L123.77,67.15L126.87,66.54L133.05,57.52L136.15,55.59L139.24,56.68L142.33,56.44L145.43,51.38L148.52,48.74L151.62,50.42L154.71,43.32L157.8,45.37L160.9,48.98L163.99,47.17L167.08,44.16L170.18,46.69L173.27,44.88L176.37,45.49L179.46,43.8L182.55,44.28L185.65,35.14L188.74,36.1L191.83,38.39L194.93,36.94L198.02,33.93L201.12,40.91L204.21,39.71L210.4,36.58L213.49,34.66L216.58,35.14L219.68,34.66L222.77,35.86L225.87,34.42L228.96,36.1L232.05,45.61L235.15,46.81L238.24,42.24L241.33,48.01L244.43,49.94L247.52,48.49L250.61,39.11L253.71,50.18L256.8,47.05L262.99,45.97L266.08,55.47L269.18,58.48L272.27,49.34L275.37,61.01L278.46,59.08L281.55,56.2L284.65,59.08L287.74,55.96L290.83,60.65L293.93,69.31L297.02,52.71L300.11,66.91L303.21,76.17L306.3,70.52L309.4,72.32L312.49,60.29L315.58,61.49L318.68,68.83L321.77,61.61L324.86,63.9L327.96,71.72L334.15,72.2L337.24,69.31L340.33,65.22L343.43,68.59L346.52,66.42L349.62,70.4L352.71,69.91L355.8,73.52L358.9,74.85L361.99,72.68L365.08,66.91L368.18,68.71L371.27,71L374.36,80.02L377.46,81.59L380.55,72.8L386.74,75.33L389.83,80.5L396.02,74.61L399.11,68.35L402.21,79.18L405.3,77.37L408.4,74.01L417.68,83.39L420.77,74.61L426.96,83.51L430.05,72.8L436.24,81.1L439.33,70.76L445.52,81.23L448.61,81.71L457.9,81.71L460.99,83.39L464.08,87.36L467.18,84.59L470.27,82.55L473.36,84.47L476.46,79.54L482.65,93.26L485.74,86.16L495.02,90.25L498.12,86.64L507.4,80.5L510.49,89.29L516.68,90.49L519.77,98.67L525.96,88.69L529.05,96.75L532.15,100.84L535.24,94.46L538.33,89.77L547.61,95.67L550.71,102.16L559.99,100.84L563.08,102.28L575.46,99.03L578.55,99.52L587.83,98.19L590.93,108.78L594.02,102.76" style="vector-effect: none; fill: none; stroke: rgb(51, 204, 51); stroke-opacity: 1; stroke-width: 1px; opacity: 1;"/></g><g class="points"/><g class="text"/></g><g class="trace scatter trace3c4f38" style="stroke-miterlimit: 2; opacity: 1;"><g class="fills"/><g class="errorbars"/><g class="lines"><path class="js-line" d="M0.03,359.86L15.49,357.91L18.59,357.24L27.87,354.21L30.96,352.74L37.15,348.83L40.24,346.25L46.43,339.47L49.52,335.07L55.71,323.76L58.8,316.62L64.99,298.89L68.08,288.17L74.27,262.96L77.37,248.63L89.74,184.4L92.84,168.09L102.12,123.38L105.21,110.58L111.4,88.75L114.49,79.71L120.68,65.08L123.77,59.3L129.96,50.25L133.05,46.78L139.24,41.47L142.33,39.46L151.61,35.3L154.71,34.36L167.08,32.02L170.18,31.67L188.74,30.56L191.83,30.48L241.33,30.1L244.43,30.1L594.02,30.08" style="vector-effect: none; fill: none; stroke: rgb(51, 204, 51); stroke-opacity: 1; stroke-dasharray: 9px, 9px; stroke-width: 1px; opacity: 1;"/></g><g class="points"/><g class="text"/></g></g></g></g><path class="xlines-above crisp" d="M0,0" style="fill: none;"/><path class="ylines-above crisp" d="M0,0" style="fill: none;"/><g class="overlines-above"/><g class="xaxislayer-above"><g class="xtick"><text text-anchor="middle" x="0" y="386" transform="translate(40,0)" style="font-family: 'Open Sans', verdana, arial, sans-serif; font-size: 14px; fill: rgb(0, 0, 0); fill-opacity: 1; white-space: pre; opacity: 1;">0</text></g><g class="xtick"><text text-anchor="middle" x="0" y="386" style="font-family: 'Open Sans', verdana, arial, sans-serif; font-size: 14px; fill: rgb(0, 0, 0); fill-opacity: 1; white-space: pre; opacity: 1;" transform="translate(139,0)">8</text></g><g class="xtick"><text text-anchor="middle" x="0" y="386" style="font-family: 'Open Sans', verdana, arial, sans-serif; font-size: 14px; fill: rgb(0, 0, 0); fill-opacity: 1; white-space: pre; opacity: 1;" transform="translate(238,0)">16</text></g><g class="xtick"><text text-anchor="middle" x="0" y="386" style="font-family: 'Open Sans', verdana, arial, sans-serif; font-size: 14px; fill: rgb(0, 0, 0); fill-opacity: 1; white-space: pre; opacity: 1;" transform="translate(337,0)">24</text></g></g><g class="yaxislayer-above"><g class="ytick"><text text-anchor="end" x="39" y="4.8999999999999995" transform="translate(0,371)" style="font-family: 'Open Sans', verdana, arial, sans-serif; font-size: 14px; fill: rgb(0, 0, 0); fill-opacity: 1; white-space: pre; opacity: 1;">0</text></g><g class="ytick"><text text-anchor="end" x="39" y="4.8999999999999995" style="font-family: 'Open Sans', verdana, arial, sans-serif; font-size: 14px; fill: rgb(0, 0, 0); fill-opacity: 1; white-space: pre; opacity: 1;" transform="translate(0,310.83)">0.1</text></g><g class="ytick"><text text-anchor="end" x="39" y="4.8999999999999995" style="font-family: 'Open Sans', verdana, arial, sans-serif; font-size: 14px; fill: rgb(0, 0, 0); fill-opacity: 1; white-space: pre; opacity: 1;" transform="translate(0,250.67)">0.2</text></g><g class="ytick"><text text-anchor="end" x="39" y="4.8999999999999995" style="font-family: 'Open Sans', verdana, arial, sans-serif; font-size: 14px; fill: rgb(0, 0, 0); fill-opacity: 1; white-space: pre; opacity: 1;" transform="translate(0,190.5)">0.3</text></g><g class="ytick"><text text-anchor="end" x="39" y="4.8999999999999995" style="font-family: 'Open Sans', verdana, arial, sans-serif; font-size: 14px; fill: rgb(0, 0, 0); fill-opacity: 1; white-space: pre; opacity: 1;" transform="translate(0,130.32999999999998)">0.4</text></g><g class="ytick"><text text-anchor="end" x="39" y="4.8999999999999995" style="font-family: 'Open Sans', verdana, arial, sans-serif; font-size: 14px; fill: rgb(0, 0, 0); fill-opacity: 1; white-space: pre; opacity: 1;" transform="translate(0,70.17)">0.5</text></g><g class="ytick"><text text-anchor="end" x="39" y="4.8999999999999995" style="font-family: 'Open Sans', verdana, arial, sans-serif; font-size: 14px; fill: rgb(0, 0, 0); fill-opacity: 1; white-space: pre; opacity: 0;" transform="translate(0,10)">0.6</text></g></g><g class="overaxes-above"/></g></g><g class="polarlayer"/><g class="smithlayer"/><g class="ternarylayer"/><g class="geolayer"/><g class="funnelarealayer"/><g class="pielayer"/><g class="iciclelayer"/><g class="treemaplayer"/><g class="sunburstlayer"/><g class="glimages"/><defs id="topdefs-de5244"><g class="clips"/><clipPath id="legendde5244"><rect width="157" height="71" x="0" y="0"/></clipPath></defs><g class="layer-above"><g class="imagelayer"/><g class="shapelayer"/></g><g class="infolayer"><g class="legend" pointer-events="all" transform="translate(342.94,10)"><rect class="bg" shape-rendering="crispEdges" width="157" height="71" x="0" y="0" style="stroke: rgb(68, 68, 68); stroke-opacity: 1; fill: rgb(255, 255, 255); fill-opacity: 1; stroke-width: 0px;"/><g class="scrollbox" transform="" clip-path="url(#legendde5244)"><g class="groups"><g class="traces" transform="translate(0,24.7)" style="opacity: 1;"><text class="legendtext" text-anchor="start" x="40" y="-3.64" style="font-family: 'Open Sans', verdana, arial, sans-serif; font-size: 14px; fill: rgb(0, 0, 0); fill-opacity: 1; white-space: pre;"><tspan class="line" dy="0em" x="40" y="-3.64"><tspan style="font-style:italic">Escherichia coli</tspan></tspan><tspan class="line" dy="1.3em" x="40" y="-3.64">sfGFP:pGDPI CAT</tspan></text><g class="layers" style="opacity: 1;"><g class="legendfill"/><g class="legendlines"><path class="js-line" d="M5,0h30" style="fill: none; stroke: rgb(51, 204, 51); stroke-opacity: 1; stroke-width: 1px;"/></g><g class="legendsymbols"><g class="legendpoints"/></g></g><rect class="legendtoggle" x="0" y="-19.7" width="151.640625" height="39.4" style="fill: rgb(0, 0, 0); fill-opacity: 0;"/></g><g class="traces" transform="translate(0,55)" style="opacity: 1;"><text class="legendtext" text-anchor="start" x="40" y="5.46" style="font-family: 'Open Sans', verdana, arial, sans-serif; font-size: 14px; fill: rgb(0, 0, 0); fill-opacity: 1; white-space: pre;">Logistic fit</text><g class="layers" style="opacity: 1;"><g class="legendfill"/><g class="legendlines"><path class="js-line" d="M5,0h30" style="fill: none; stroke: rgb(51, 204, 51); stroke-opacity: 1; stroke-dasharray: 9px, 9px; stroke-width: 1px;"/></g><g class="legendsymbols"><g class="legendpoints"/></g></g><rect class="legendtoggle" x="0" y="-10.6" width="151.640625" height="21.2" style="fill: rgb(0, 0, 0); fill-opacity: 0;"/></g></g></g><rect class="scrollbar" rx="20" ry="3" width="0" height="0" x="0" y="0" style="fill: rgb(128, 139, 164); fill-opacity: 1;"/></g><g class="g-gtitle"/><g class="g-xtitle" transform="translate(0,-3.3000000000000114)"><text class="xtitle" x="188.5" y="399.3" text-anchor="middle" style="opacity: 1; font-family: 'Open Sans', verdana, arial, sans-serif; font-size: 14px; fill: rgb(0, 0, 0); fill-opacity: 1; white-space: pre;">Time [h]</text></g><g class="g-ytitle" transform="translate(0.150390625,0)"><text class="ytitle" transform="rotate(-90,14.850000000000001,190.5)" x="14.850000000000001" y="190.5" text-anchor="middle" style="opacity: 1; font-family: 'Open Sans', verdana, arial, sans-serif; font-size: 14px; fill: rgb(0, 0, 0); fill-opacity: 1; white-space: pre;">OD</text></g></g></svg>