<svg class="main-svg" xmlns="http://www.w3.org/2000/svg" xmlns:xlink="http://www.w3.org/1999/xlink" width="150" height="150" style="" viewBox="0 0 150 150"><rect x="0" y="0" width="150" height="150" style="fill: rgb(255, 255, 255); fill-opacity: 1;"/><defs id="defs-5fe690"><g class="clips"><clipPath id="clip5fe690xyplot" class="plotclip"><rect width="64" height="104"/></clipPath><clipPath class="axesclip" id="clip5fe690x"><rect x="27" y="0" width="64" height="150"/></clipPath><clipPath class="axesclip" id="clip5fe690y"><rect x="0" y="10" width="150" height="104"/></clipPath><clipPath class="axesclip" id="clip5fe690xy"><rect x="27" y="10" width="64" height="104"/></clipPath></g><g class="gradients"/><g class="patterns"/></defs><g class="bglayer"/><g class="layer-below"><g class="imagelayer"/><g class="shapelayer"/></g><g class="cartesianlayer"><g class="subplot xy"><g class="layer-subplot"><g class="shapelayer"/><g class="imagelayer"/></g><g class="minor-gridlayer"><g class="x"/><g class="y"/></g><g class="gridlayer"><g class="x"><path class="xgrid crisp" transform="translate(37.67,0)" d="M0,10v104" style="stroke: rgb(128, 128, 128); stroke-opacity: 1; stroke-width: 0.2px;"/><path class="xgrid crisp" transform="translate(48.33,0)" d="M0,10v104" style="stroke: rgb(128, 128, 128); stroke-opacity: 1; stroke-width: 0.2px;"/><path class="xgrid crisp" transform="translate(59,0)" d="M0,10v104" style="stroke: rgb(128, 128, 128); stroke-opacity: 1; stroke-width: 0.2px;"/><path class="xgrid crisp" transform="translate(69.67,0)" d="M0,10v104" style="stroke: rgb(128, 128, 128); stroke-opacity: 1; stroke-width: 0.2px;"/><path class="xgrid crisp" transform="translate(80.33,0)" d="M0,10v104" style="stroke: rgb(128, 128, 128); stroke-opacity: 1; stroke-width: 0.2px;"/></g><g class="y"><path class="ygrid crisp" transform="translate(0,96.67)" d="M27,0h64" style="stroke: rgb(128, 128, 128); stroke-opacity: 1; stroke-width: 0.2px;"/><path class="ygrid crisp" transform="translate(0,79.33)" d="M27,0h64" style="stroke: rgb(128, 128, 128); stroke-opacity: 1; stroke-width: 0.2px;"/><path class="ygrid crisp" transform="translate(0,62)" d="M27,0h64" style="stroke: rgb(128, 128, 128); stroke-opacity: 1; stroke-width: 0.2px;"/><path class="ygrid crisp" transform="translate(0,44.67)" d="M27,0h64" style="stroke: rgb(128, 128, 128); stroke-opacity: 1; stroke-width: 0.2px;"/><path class="ygrid crisp" transform="translate(0,27.33)" d="M27,0h64" style="stroke: rgb(128, 128, 128); stroke-opacity: 1; stroke-width: 0.2px;"/></g></g><g class="zerolinelayer"/><g class="layer-between"><g class="shapelayer"/><g class="imagelayer"/></g><path class="xlines-below"/><path class="ylines-below"/><g class="overlines-below"/><g class="xaxislayer-below"/><g class="yaxislayer-below"/><g class="overaxes-below"/><g class="overplot"><g class="xy" transform="translate(27,10)" clip-path="url(#clip5fe690xyplot)"><g class="scatterlayer mlayer"><g class="trace scatter trace9ba3cd" style="stroke-miterlimit: 2; opacity: 1;"><g class="fills"/><g class="errorbars"/><g class="lines"><path class="js-line" d="M2.67,510.66L8,151.26L8.34,147.31L12,123.05L12.34,121.59L16,109.09L16.34,108.69L16.67,106.39L17.34,106.71L17.67,105.52L18.34,104.54L18.67,103.42L20.67,99.85L21,100.46L22.34,97.14L22.67,97.96L23,95.56L23.67,95.69L24,95.84L24.34,94.92L25,95.18L25.34,94.58L25.67,95.23L26,94.01L27.34,95.77L27.67,96.17L28,94.84L28.34,94.99L28.67,95.49L29.67,97.21L30,96.27L30.67,98.22L31,100.25L31.34,95.92L32,96.65L32.34,96.28L33.67,98.26L34,97.29L35,98.45L35.34,97.09L35.67,99.91L36.34,99.26L36.67,100.01L38.34,102.67L38.67,99.68L40,104.59L40.34,101.96L40.67,100.39L41,102.51L41.34,104.2L41.67,103.65L42,101.55L43.34,106.22L43.67,104.48L44,104.29L44.34,107.4L45,102.97L45.34,106.33L45.67,104.32L46,104.59L46.34,104L46.67,101.38L47,103.48L47.34,102.3L47.67,101.73L48,102.84L48.34,100.3L48.67,102.71L49,100.01L49.34,102.26L49.67,100.41L50.67,109.09L51,104.26L51.34,106.7L51.67,104.75L52,105.05L52.67,103.21L53,106.88L53.67,101.51L54,101.72L54.34,105.74L55,99.1L55.34,101.58L55.67,101.76L56.67,101.55L57,103.19L57.67,101.65L58,102.44L58.34,102.35L58.67,101.41L59,101.66L59.34,103.15L59.67,106.27L60,101.71L60.34,102.23L60.67,101.19L61.34,104.12L61.67,102.61L62,102.64L62.34,103.64L62.67,101.78L63,101.02L63.34,102.64L64,104.03" style="vector-effect: none; fill: none; stroke: rgb(80, 162, 80); stroke-opacity: 1; stroke-width: 1px; opacity: 1;"/></g><g class="points"/><g class="text"/></g><g class="trace scatter trace478130" style="stroke-miterlimit: 2; opacity: 1;"><g class="fills"/><g class="errorbars"/><g class="lines"><path class="js-line" d="M3,566.13L8,156.47L8.34,151.66L12.67,121.94L13,122.17L13.34,122.05L15,116.02L15.34,115.14L17,110.23L17.34,109.87L17.67,110.12L18,108.26L19.34,105.88L19.67,106.46L20,106.42L21.34,102.99L21.67,103.61L23.34,99.51L23.67,99.72L25.34,97.12L25.67,97.88L27,96.65L27.34,96.92L27.67,96.72L28,98.14L28.67,98.06L29,96.16L29.67,97.56L30,96.94L30.34,95.52L30.67,96.58L31,95.84L31.34,96.07L31.67,95.14L32,96.54L32.67,98.85L33,97.83L33.34,97.33L34.34,98.47L34.67,98.33L35,100.24L35.67,99.84L36,99.14L37.34,102.89L37.67,101.34L38,100.81L38.34,102.61L39.34,100.95L39.67,103.15L40,102.84L40.34,103.94L40.67,103.28L41,105.78L41.34,104.78L41.67,106.51L42,103.96L43,105.74L43.34,105.4L43.67,108.17L44,105.53L44.34,103.94L44.67,104.62L45,104.04L45.34,108.25L45.67,104.75L46,114.05L46.34,117.39L47.34,108.43L47.67,110.77L48,110.2L48.67,118.7L49.67,116.52L50,111.18L50.67,112.24L51.67,107.22L52,113.53L52.67,107.16L53.34,111.12L53.67,113.79L54.34,114.88L54.67,108.99L55,111.02L55.34,115.97L56.34,122.51L56.67,114.34L57,115.26L57.34,111.02L57.67,111.15L58,109.09L58.34,110.51L58.67,107.82L59,107.84L59.34,108.57L59.67,107.01L60,107.4L60.34,107.43L60.67,113.36L61,110.13L61.67,116.49L62,111.87L62.34,112.33L63,117.32L63.34,112.14" style="vector-effect: none; fill: none; stroke: rgb(80, 162, 80); stroke-opacity: 1; stroke-width: 1px; opacity: 1;"/></g><g class="points"/><g class="text"/></g><g class="trace scatter trace137d00" style="stroke-miterlimit: 2; opacity: 1;"><g class="fills"/><g class="errorbars"/><g class="lines"><path class="js-line" d="M1.34,623.26" style="vector-effect: none; fill: none; stroke: rgb(80, 162, 80); stroke-opacity: 1; stroke-width: 1px; opacity: 1;"/><path class="js-line" d="M2.34,540.45L7.34,153.45L7.67,147.17L10.34,125.37L10.67,126.93L11,123.19L11.67,122.39L12,118.78L13.34,113.76L13.67,111.23L14,112.27L14.34,110.96L14.67,108.92L15,109.3L15.34,108.35L15.67,106.86L17,101.89L17.34,102.21L17.67,102.18L20.34,96.48L20.67,97.26L21,97.64L21.34,96.36L22.67,95.31L23,95.09L24,94.04L24.34,92.37L24.67,92.01L25,93.86L25.34,93.79L25.67,92.54L26.67,94.66L27,93.86L27.34,93.84L27.67,92.68L28.67,95.54L29,95.83L29.34,94.98L29.67,95.4L30,96.33L31,96.24L31.34,96.68L31.67,97.21L32,94.98L32.67,98.01L33,97.21L33.34,97.54L34,96.66L34.34,97.71L35,97.61L35.34,98L36,99.07L36.34,98.19L37,100.61L37.34,99.11L38.34,101.28L38.67,101L39,99.47L39.34,101.41L39.67,99.66L40,99.73L40.34,102.33L40.67,100.24L41,101.02L41.34,100.12L41.67,100.56L42,101.9L42.34,99.69L43,99.83L43.34,101.07L43.67,100.03L44,100.78L44.34,100.89L44.67,102.23L45,100.74L45.34,100.68L46,102.97L46.34,100.82L46.67,101.23L47,100.49L47.34,100.81L48.34,102.02L48.67,101.68L49.34,100.71L49.67,101.76L50,102.64L50.34,101.59L50.67,101.75L51.34,100.52L51.67,102.2L52.34,100.32L52.67,102.43L53,100.93L53.34,103.02L54.67,100.46L55,101.89L55.34,101L55.67,101.33L56,101.93L56.67,100.64L57,102.47L57.34,103.5L57.67,101.87L58,101.02L58.34,101.21L58.67,101.51L59.34,101.63L59.67,101.78L60.67,102.71L61,101.87L61.34,102.64L61.67,99.92L62.67,100.8L63,100.52L64,102.51" style="vector-effect: none; fill: none; stroke: rgb(80, 162, 80); stroke-opacity: 1; stroke-width: 1px; opacity: 1;"/></g><g class="points"/><g class="text"/></g><g class="trace scatter tracef1b012" style="stroke-miterlimit: 2; opacity: 1;"><g class="fills"/><g class="errorbars"/><g class="lines"><path class="js-line" d="M0,647.04L7.67,120.33L8,114.17L9.67,99.69L10,98.61L11.67,96.31L12,96.15L15.67,95.75L16,95.75L64,95.74" style="vector-effect: none; fill: none; stroke: rgb(80, 162, 80); stroke-opacity: 1; stroke-dasharray: 9px, 9px; stroke-width: 1px; opacity: 1;"/></g><g class="points"/><g class="text"/></g></g></g></g><path class="xlines-above crisp" d="M26.5,114.25H91.5M26.5,9.75H91.5" style="fill: none; stroke-width: 0.5px; stroke: rgb(0, 0, 0); stroke-opacity: 1;"/><path class="ylines-above crisp" d="M26.75,10V114M91.25,10V114" style="fill: none; stroke-width: 0.5px; stroke: rgb(0, 0, 0); stroke-opacity: 1;"/><g class="overlines-above"/><g class="xaxislayer-above"><g class="xtick"><text text-anchor="start" x="0" y="131.3" transform="translate(27,0) rotate(90,0,124.30000000000001)" style="font-family: 'Open Sans', verdana, arial, sans-serif; font-size: 14px; fill: rgb(0, 0, 0); fill-opacity: 1; white-space: pre; opacity: 1;">0</text></g><g class="xtick"><text text-anchor="start" x="0" y="131.3" style="font-family: 'Open Sans', verdana, arial, sans-serif; font-size: 14px; fill: rgb(0, 0, 0); fill-opacity: 1; white-space: pre; opacity: 1;" transform="translate(37.67,0) rotate(90,0,124.30000000000001)">8</text></g><g class="xtick"><text text-anchor="start" x="0" y="131.3" style="font-family: 'Open Sans', verdana, arial, sans-serif; font-size: 14px; fill: rgb(0, 0, 0); fill-opacity: 1; white-space: pre; opacity: 1;" transform="translate(48.33,0) rotate(90,0,124.30000000000001)">16</text></g><g class="xtick"><text text-anchor="start" x="0" y="131.3" style="font-family: 'Open Sans', verdana, arial, sans-serif; font-size: 14px; fill: rgb(0, 0, 0); fill-opacity: 1; white-space: pre; opacity: 1;" transform="translate(59,0) rotate(90,0,124.30000000000001)">24</text></g><g class="xtick"><text text-anchor="start" x="0" y="131.3" style="font-family: 'Open Sans', verdana, arial, sans-serif; font-size: 14px; fill: rgb(0, 0, 0); fill-opacity: 1; white-space: pre; opacity: 1;" transform="translate(69.67,0) rotate(90,0,124.30000000000001)">32</text></g><g class="xtick"><text text-anchor="start" x="0" y="131.3" style="font-family: 'Open Sans', verdana, arial, sans-serif; font-size: 14px; fill: rgb(0, 0, 0); fill-opacity: 1; white-space: pre; opacity: 1;" transform="translate(80.33,0) rotate(90,0,124.30000000000001)">40</text></g><g class="xtick"><text text-anchor="start" x="0" y="131.3" style="font-family: 'Open Sans', verdana, arial, sans-serif; font-size: 14px; fill: rgb(0, 0, 0); fill-opacity: 1; white-space: pre; opacity: 1;" transform="translate(91,0) rotate(90,0,124.30000000000001)">48</text></g></g><g class="yaxislayer-above"><g class="ytick"><text text-anchor="end" x="23.7" y="4.8999999999999995" transform="translate(0,114)" style="font-family: 'Open Sans', verdana, arial, sans-serif; font-size: 14px; fill: rgb(0, 0, 0); fill-opacity: 1; white-space: pre; opacity: 1;">0</text></g><g class="ytick"><text text-anchor="end" x="23.7" y="4.8999999999999995" style="font-family: 'Open Sans', verdana, arial, sans-serif; font-size: 14px; fill: rgb(0, 0, 0); fill-opacity: 1; white-space: pre; opacity: 1;" transform="translate(0,96.67)">0.2</text></g><g class="ytick"><text text-anchor="end" x="23.7" y="4.8999999999999995" style="font-family: 'Open Sans', verdana, arial, sans-serif; font-size: 14px; fill: rgb(0, 0, 0); fill-opacity: 1; white-space: pre; opacity: 1;" transform="translate(0,79.33)">0.4</text></g><g class="ytick"><text text-anchor="end" x="23.7" y="4.8999999999999995" style="font-family: 'Open Sans', verdana, arial, sans-serif; font-size: 14px; fill: rgb(0, 0, 0); fill-opacity: 1; white-space: pre; opacity: 1;" transform="translate(0,62)">0.6</text></g><g class="ytick"><text text-anchor="end" x="23.7" y="4.8999999999999995" style="font-family: 'Open Sans', verdana, arial, sans-serif; font-size: 14px; fill: rgb(0, 0, 0); fill-opacity: 1; white-space: pre; opacity: 1;" transform="translate(0,44.67)">0.8</text></g><g class="ytick"><text text-anchor="end" x="23.7" y="4.8999999999999995" style="font-family: 'Open Sans', verdana, arial, sans-serif; font-size: 14px; fill: rgb(0, 0, 0); fill-opacity: 1; white-space: pre; opacity: 1;" transform="translate(0,27.33)">1</text></g><g class="ytick"><text text-anchor="end" x="23.7" y="4.8999999999999995" style="font-family: 'Open Sans', verdana, arial, sans-serif; font-size: 14px; fill: rgb(0, 0, 0); fill-opacity: 1; white-space: pre; opacity: 0;" transform="translate(0,10)">1.2</text></g></g><g class="overaxes-above"/></g></g><g class="polarlayer"/><g class="smithlayer"/><g class="ternarylayer"/><g class="geolayer"/><g class="funnelarealayer"/><g class="pielayer"/><g class="iciclelayer"/><g class="treemaplayer"/><g class="sunburstlayer"/><g class="glimages"/><defs id="topdefs-5fe690"><g class="clips"/><clipPath id="legend5fe690"><rect width="157" height="71" x="0" y="0"/></clipPath></defs><g class="layer-above"><g class="imagelayer"/><g class="shapelayer"/></g><g class="infolayer"><g class="legend" pointer-events="all" transform="translate(0,10)"><rect class="bg" shape-rendering="crispEdges" style="stroke: rgb(68, 68, 68); stroke-opacity: 1; fill: rgb(255, 255, 255); fill-opacity: 1; stroke-width: 0px;" width="157" height="71" x="0" y="0"/><g class="scrollbox" transform="" clip-path="url(#legend5fe690)"><g class="groups"><g class="traces" transform="translate(0,24.7)" style="opacity: 1;"><text class="legendtext" text-anchor="start" x="40" y="-3.64" style="font-family: 'Open Sans', verdana, arial, sans-serif; font-size: 14px; fill: rgb(0, 0, 0); fill-opacity: 1; white-space: pre;"><tspan class="line" dy="0em" x="40" y="-3.64"><tspan style="font-style:italic">Escherichia coli</tspan></tspan><tspan class="line" dy="1.3em" x="40" y="-3.64">sfGFP:pGDPI CAT</tspan></text><g class="layers" style="opacity: 1;"><g class="legendfill"/><g class="legendlines"><path class="js-line" d="M5,0h30" style="fill: none; stroke: rgb(80, 162, 80); stroke-opacity: 1; stroke-width: 1px;"/></g><g class="legendsymbols"><g class="legendpoints"/></g></g><rect class="legendtoggle" x="0" y="-19.7" width="151.640625" height="39.4" style="fill: rgb(0, 0, 0); fill-opacity: 0;"/></g><g class="traces" transform="translate(0,55)" style="opacity: 1;"><text class="legendtext" text-anchor="start" x="40" y="5.46" style="font-family: 'Open Sans', verdana, arial, sans-serif; font-size: 14px; fill: rgb(0, 0, 0); fill-opacity: 1; white-space: pre;">Logistic fit</text><g class="layers" style="opacity: 1;"><g class="legendfill"/><g class="legendlines"><path class="js-line" d="M5,0h30" style="fill: none; stroke: rgb(80, 162, 80); stroke-opacity: 1; stroke-dasharray: 9px, 9px; stroke-width: 1px;"/></g><g class="legendsymbols"><g class="legendpoints"/></g></g><rect class="legendtoggle" x="0" y="-10.6" width="151.640625" height="21.2" style="fill: rgb(0, 0, 0); fill-opacity: 0;"/></g></g></g><rect class="scrollbar" rx="20" ry="3" width="0" height="0" style="fill: rgb(128, 139, 164); fill-opacity: 1;" x="0" y="0"/></g><g class="g-gtitle"/><g class="g-xtitle" transform="translate(0,-3.8654296875000114)"><text class="xtitle" x="59" y="149.8654296875" text-anchor="middle" style="opacity: 1; font-family: 'Open Sans', verdana, arial, sans-serif; font-size: 14px; fill: rgb(0, 0, 0); fill-opacity: 1; white-space: pre;">Time [h]</text></g><g class="g-ytitle" transform="translate(15.697265625,0)"><text class="ytitle" transform="rotate(-90,-0.6968749999999986,62)" x="-0.6968749999999986" y="62" text-anchor="middle" style="opacity: 1; font-family: 'Open Sans', verdana, arial, sans-serif; font-size: 14px; fill: rgb(0, 0, 0); fill-opacity: 1; white-space: pre;">OD</text></g></g></svg>