<svg class="main-svg" xmlns="http://www.w3.org/2000/svg" xmlns:xlink="http://www.w3.org/1999/xlink" width="150" height="150" style="" viewBox="0 0 150 150"><rect x="0" y="0" width="150" height="150" style="fill: rgb(255, 255, 255); fill-opacity: 1;"/><defs id="defs-e5d2b1"><g class="clips"><clipPath id="clipe5d2b1xyplot" class="plotclip"><rect width="64" height="113"/></clipPath><clipPath class="axesclip" id="clipe5d2b1x"><rect x="27" y="0" width="64" height="150"/></clipPath><clipPath class="axesclip" id="clipe5d2b1y"><rect x="0" y="1" width="150" height="113"/></clipPath><clipPath class="axesclip" id="clipe5d2b1xy"><rect x="27" y="1" width="64" height="113"/></clipPath></g><g class="gradients"/><g class="patterns"/></defs><g class="bglayer"/><g class="layer-below"><g class="imagelayer"/><g class="shapelayer"/></g><g class="cartesianlayer"><g class="subplot xy"><g class="layer-subplot"><g class="shapelayer"/><g class="imagelayer"/></g><g class="minor-gridlayer"><g class="x"/><g class="y"/></g><g class="gridlayer"><g class="x"><path class="xgrid crisp" transform="translate(37.67,0)" d="M0,1v113" style="stroke: rgb(128, 128, 128); stroke-opacity: 1; stroke-width: 0.2px;"/><path class="xgrid crisp" transform="translate(48.33,0)" d="M0,1v113" style="stroke: rgb(128, 128, 128); stroke-opacity: 1; stroke-width: 0.2px;"/><path class="xgrid crisp" transform="translate(59,0)" d="M0,1v113" style="stroke: rgb(128, 128, 128); stroke-opacity: 1; stroke-width: 0.2px;"/><path class="xgrid crisp" transform="translate(69.67,0)" d="M0,1v113" style="stroke: rgb(128, 128, 128); stroke-opacity: 1; stroke-width: 0.2px;"/><path class="xgrid crisp" transform="translate(80.33,0)" d="M0,1v113" style="stroke: rgb(128, 128, 128); stroke-opacity: 1; stroke-width: 0.2px;"/></g><g class="y"><path class="ygrid crisp" transform="translate(0,95.17)" d="M27,0h64" style="stroke: rgb(128, 128, 128); stroke-opacity: 1; stroke-width: 0.2px;"/><path class="ygrid crisp" transform="translate(0,76.33)" d="M27,0h64" style="stroke: rgb(128, 128, 128); stroke-opacity: 1; stroke-width: 0.2px;"/><path class="ygrid crisp" transform="translate(0,57.5)" d="M27,0h64" style="stroke: rgb(128, 128, 128); stroke-opacity: 1; stroke-width: 0.2px;"/><path class="ygrid crisp" transform="translate(0,38.67)" d="M27,0h64" style="stroke: rgb(128, 128, 128); stroke-opacity: 1; stroke-width: 0.2px;"/><path class="ygrid crisp" transform="translate(0,19.83)" d="M27,0h64" style="stroke: rgb(128, 128, 128); stroke-opacity: 1; stroke-width: 0.2px;"/></g></g><g class="zerolinelayer"/><g class="layer-between"><g class="shapelayer"/><g class="imagelayer"/></g><path class="xlines-below"/><path class="ylines-below"/><g class="overlines-below"/><g class="xaxislayer-below"/><g class="yaxislayer-below"/><g class="overaxes-below"/><g class="overplot"><g class="xy" transform="translate(27,1)" clip-path="url(#clipe5d2b1xyplot)"><g class="scatterlayer mlayer"><g class="trace scatter tracebca6fc" style="stroke-miterlimit: 2; opacity: 1;"><g class="fills"/><g class="errorbars"/><g class="lines"><path class="js-line" d="M2.67,112.53L4,109.97L4.34,108.65L8.67,85.07L9,81.42L9.67,78.63L10,76.75L11.67,68.93L12,69.17L13.34,69.04L13.67,68.65L15,67.72L15.34,67.61L17.67,66.84L18,64.88L18.34,67.22L19,66.93L19.34,66.82L20.34,64.28L20.67,64.56L21,64.77L22,63.45L22.34,65.07L22.67,65.52L23,63.71L23.67,66.12L24,65.54L24.34,64.58L26.34,66.86" style="vector-effect: none; fill: none; stroke: rgb(80, 162, 80); stroke-opacity: 1; stroke-width: 1px; opacity: 1;"/></g><g class="points"/><g class="text"/></g><g class="trace scatter trace24a7f4" style="stroke-miterlimit: 2; opacity: 1;"><g class="fills"/><g class="errorbars"/><g class="lines"><path class="js-line" d="M2.67,112.57L4.34,112.25L4.67,111.91L6,109.18L6.34,107.65L7.67,99.4L8,95L8.67,93.39L9,90.76L12.67,69.5L13,68.23L14,63.94L14.34,64.49L14.67,66.54L15.67,64.65L16,65.26L16.34,64.64L16.67,65.63L17,65.11L17.34,63.85L18.34,62.47L18.67,64.41L19.67,64.28L20,62.68L21.34,64.18L21.67,63.04L22,64.24L22.34,63.22L22.67,60.78L23,64.52L23.34,63.71L23.67,62.23L24,63.73L24.67,63.56L25,63.11L26,62.55L26.34,63.68" style="vector-effect: none; fill: none; stroke: rgb(80, 162, 80); stroke-opacity: 1; stroke-width: 1px; opacity: 1;"/></g><g class="points"/><g class="text"/></g><g class="trace scatter trace869dbe" style="stroke-miterlimit: 2; opacity: 1;"><g class="fills"/><g class="errorbars"/><g class="lines"><path class="js-line" d="M2.67,112.59L3.67,112.02L4,111.36L5,108.25L5.34,106.71L8,91.76L8.34,88.33L12.34,64.67L12.67,66.31L13,65.11L13.34,66.24L13.67,66.14L14.67,64.43L15,64.6L15.34,64.56L16.67,62.51L17,62.83L17.34,63.39L17.67,63.11L18,62.64L19,62.85L19.34,62.58L19.67,62.66L20,61.23L21,61.51L21.34,61.04L21.67,62.13L22,61.94L22.34,61.75L23.67,61.15L24,61.34L24.67,61.38L25,62.87L25.34,63.05L25.67,62.34L26.34,63.54" style="vector-effect: none; fill: none; stroke: rgb(80, 162, 80); stroke-opacity: 1; stroke-width: 1px; opacity: 1;"/></g><g class="points"/><g class="text"/></g><g class="trace scatter trace2e1d46" style="stroke-miterlimit: 2; opacity: 1;"><g class="fills"/><g class="errorbars"/><g class="lines"><path class="js-line" d="M2.67,112.56L4,111.03L4.34,110.13L5.34,104.18L5.67,100.16L6.67,73.45L7,55.46L7.0000002787971205,-2259.9999999999995L26.34,-2260" style="vector-effect: none; fill: none; stroke: rgb(80, 162, 80); stroke-opacity: 1; stroke-dasharray: 9px, 9px; stroke-width: 1px; opacity: 1;"/></g><g class="points"/><g class="text"/></g></g></g></g><g class="zerolinelayer-above"/><path class="xlines-above crisp" d="M26.5,114.25H91.5M26.5,0.75H91.5" style="fill: none; stroke-width: 0.5px; stroke: rgb(0, 0, 0); stroke-opacity: 1;"/><path class="ylines-above crisp" d="M26.75,1V114M91.25,1V114" style="fill: none; stroke-width: 0.5px; stroke: rgb(0, 0, 0); stroke-opacity: 1;"/><g class="overlines-above"/><g class="xaxislayer-above"><g class="xtick"><text text-anchor="start" x="0" y="131.3" transform="translate(27,0) rotate(90,0,124.30000000000001)" style="font-family: 'Open Sans', verdana, arial, sans-serif; font-size: 14px; fill: rgb(0, 0, 0); fill-opacity: 1; white-space: pre;">0</text></g><g class="xtick"><text text-anchor="start" x="0" y="131.3" style="font-family: 'Open Sans', verdana, arial, sans-serif; font-size: 14px; fill: rgb(0, 0, 0); fill-opacity: 1; white-space: pre;" transform="translate(37.67,0) rotate(90,0,124.30000000000001)">8</text></g><g class="xtick"><text text-anchor="start" x="0" y="131.3" style="font-family: 'Open Sans', verdana, arial, sans-serif; font-size: 14px; fill: rgb(0, 0, 0); fill-opacity: 1; white-space: pre;" transform="translate(48.33,0) rotate(90,0,124.30000000000001)">16</text></g><g class="xtick"><text text-anchor="start" x="0" y="131.3" style="font-family: 'Open Sans', verdana, arial, sans-serif; font-size: 14px; fill: rgb(0, 0, 0); fill-opacity: 1; white-space: pre;" transform="translate(59,0) rotate(90,0,124.30000000000001)">24</text></g><g class="xtick"><text text-anchor="start" x="0" y="131.3" style="font-family: 'Open Sans', verdana, arial, sans-serif; font-size: 14px; fill: rgb(0, 0, 0); fill-opacity: 1; white-space: pre;" transform="translate(69.67,0) rotate(90,0,124.30000000000001)">32</text></g><g class="xtick"><text text-anchor="start" x="0" y="131.3" style="font-family: 'Open Sans', verdana, arial, sans-serif; font-size: 14px; fill: rgb(0, 0, 0); fill-opacity: 1; white-space: pre;" transform="translate(80.33,0) rotate(90,0,124.30000000000001)">40</text></g><g class="xtick"><text text-anchor="start" x="0" y="131.3" style="font-family: 'Open Sans', verdana, arial, sans-serif; font-size: 14px; fill: rgb(0, 0, 0); fill-opacity: 1; white-space: pre;" transform="translate(91,0) rotate(90,0,124.30000000000001)">48</text></g></g><g class="yaxislayer-above"><g class="ytick"><text text-anchor="end" x="23.7" y="4.8999999999999995" transform="translate(0,114)" style="font-family: 'Open Sans', verdana, arial, sans-serif; font-size: 14px; fill: rgb(0, 0, 0); fill-opacity: 1; white-space: pre;">0</text></g><g class="ytick"><text text-anchor="end" x="23.7" y="4.8999999999999995" style="font-family: 'Open Sans', verdana, arial, sans-serif; font-size: 14px; fill: rgb(0, 0, 0); fill-opacity: 1; white-space: pre;" transform="translate(0,95.17)">0.2</text></g><g class="ytick"><text text-anchor="end" x="23.7" y="4.8999999999999995" style="font-family: 'Open Sans', verdana, arial, sans-serif; font-size: 14px; fill: rgb(0, 0, 0); fill-opacity: 1; white-space: pre;" transform="translate(0,76.33)">0.4</text></g><g class="ytick"><text text-anchor="end" x="23.7" y="4.8999999999999995" style="font-family: 'Open Sans', verdana, arial, sans-serif; font-size: 14px; fill: rgb(0, 0, 0); fill-opacity: 1; white-space: pre;" transform="translate(0,57.5)">0.6</text></g><g class="ytick"><text text-anchor="end" x="23.7" y="4.8999999999999995" style="font-family: 'Open Sans', verdana, arial, sans-serif; font-size: 14px; fill: rgb(0, 0, 0); fill-opacity: 1; white-space: pre;" transform="translate(0,38.67)">0.8</text></g><g class="ytick"><text text-anchor="end" x="23.7" y="4.8999999999999995" style="font-family: 'Open Sans', verdana, arial, sans-serif; font-size: 14px; fill: rgb(0, 0, 0); fill-opacity: 1; white-space: pre;" transform="translate(0,19.83)">1</text></g><g class="ytick"/></g><g class="overaxes-above"/></g></g><g class="polarlayer"/><g class="smithlayer"/><g class="ternarylayer"/><g class="geolayer"/><g class="funnelarealayer"/><g class="pielayer"/><g class="iciclelayer"/><g class="treemaplayer"/><g class="sunburstlayer"/><g class="glimages"/><defs id="topdefs-e5d2b1"><g class="clips"/><clipPath id="legende5d2b1"><rect width="156" height="71" x="0" y="0"/></clipPath></defs><g class="layer-above"><g class="imagelayer"/><g class="shapelayer"/></g><g class="infolayer"><g class="legend" pointer-events="all" transform="translate(0,1)"><rect class="bg" shape-rendering="crispEdges" style="stroke: rgb(68, 68, 68); stroke-opacity: 1; fill: rgb(255, 255, 255); fill-opacity: 1; stroke-width: 0px;" width="156" height="71" x="0" y="0"/><g class="scrollbox" transform="" clip-path="url(#legende5d2b1)"><g class="groups"><g class="traces" transform="translate(0,24.7)" style="opacity: 1;"><text class="legendtext" text-anchor="start" x="40" y="-3.64" style="font-family: 'Open Sans', verdana, arial, sans-serif; font-size: 14px; fill: rgb(0, 0, 0); fill-opacity: 1; white-space: pre;"><tspan class="line" dy="0em" x="40" y="-3.64"><tspan style="font-style:italic">Escherichia coli</tspan></tspan><tspan class="line" dy="1.3em" x="40" y="-3.64">sfGFP:pGDPI CAT</tspan></text><g class="layers" style="opacity: 1;"><g class="legendfill"/><g class="legendlines"><path class="js-line" d="M5,0h30" style="fill: none; stroke: rgb(80, 162, 80); stroke-opacity: 1; stroke-width: 1px;"/></g><g class="legendsymbols"><g class="legendpoints"/></g></g><rect class="legendtoggle" x="0" y="-19.7" width="150.6552734375" height="39.4" style="fill: rgb(0, 0, 0); fill-opacity: 0;"/></g><g class="traces" transform="translate(0,55)" style="opacity: 1;"><text class="legendtext" text-anchor="start" x="40" y="5.46" style="font-family: 'Open Sans', verdana, arial, sans-serif; font-size: 14px; fill: rgb(0, 0, 0); fill-opacity: 1; white-space: pre;">Logistic fit</text><g class="layers" style="opacity: 1;"><g class="legendfill"/><g class="legendlines"><path class="js-line" d="M5,0h30" style="fill: none; stroke: rgb(80, 162, 80); stroke-opacity: 1; stroke-dasharray: 9px, 9px; stroke-width: 1px;"/></g><g class="legendsymbols"><g class="legendpoints"/></g></g><rect class="legendtoggle" x="0" y="-10.6" width="150.6552734375" height="21.2" style="fill: rgb(0, 0, 0); fill-opacity: 0;"/></g></g></g><rect class="scrollbar" rx="20" ry="3" width="0" height="0" style="fill: rgb(128, 139, 164); fill-opacity: 1;" x="0" y="0"/></g><g class="g-gtitle"/><g class="g-xtitle" transform="translate(0,-3.8654296875000114)"><text class="xtitle" x="59" y="149.8654296875" text-anchor="middle" style="opacity: 1; font-family: 'Open Sans', verdana, arial, sans-serif; font-size: 14px; fill: rgb(0, 0, 0); fill-opacity: 1; white-space: pre;">Time [h]</text></g><g class="g-ytitle" transform="translate(15.7001953125,0)"><text class="ytitle" transform="rotate(-90,-0.6998046874999986,57.5)" x="-0.6998046874999986" y="57.5" text-anchor="middle" style="opacity: 1; font-family: 'Open Sans', verdana, arial, sans-serif; font-size: 14px; fill: rgb(0, 0, 0); fill-opacity: 1; white-space: pre;">OD</text></g></g></svg>