<svg class="main-svg" xmlns="http://www.w3.org/2000/svg" xmlns:xlink="http://www.w3.org/1999/xlink" width="500" height="400" style="" viewBox="0 0 500 400"><rect x="0" y="0" width="500" height="400" style="fill: rgb(255, 255, 255); fill-opacity: 1;"/><defs id="defs-d67d10"><g class="clips"><clipPath id="clipd67d10xyplot" class="plotclip"><rect width="244" height="361"/></clipPath><clipPath class="axesclip" id="clipd67d10x"><rect x="40" y="0" width="244" height="400"/></clipPath><clipPath class="axesclip" id="clipd67d10y"><rect x="0" y="10" width="500" height="361"/></clipPath><clipPath class="axesclip" id="clipd67d10xy"><rect x="40" y="10" width="244" height="361"/></clipPath></g><g class="gradients"/><g class="patterns"/></defs><g class="bglayer"/><g class="layer-below"><g class="imagelayer"/><g class="shapelayer"/></g><g class="cartesianlayer"><g class="subplot xy"><g class="layer-subplot"><g class="shapelayer"/><g class="imagelayer"/></g><g class="minor-gridlayer"><g class="x"/><g class="y"/></g><g class="gridlayer"><g class="x"><path class="xgrid crisp" transform="translate(121.33,0)" d="M0,10v361" style="stroke: rgb(0, 0, 0); stroke-opacity: 1; stroke-width: 0.5px;"/><path class="xgrid crisp" transform="translate(202.67,0)" d="M0,10v361" style="stroke: rgb(0, 0, 0); stroke-opacity: 1; stroke-width: 0.5px;"/></g><g class="y"><path class="ygrid crisp" transform="translate(0,310.83)" d="M40,0h244" style="stroke: rgb(0, 0, 0); stroke-opacity: 1; stroke-width: 0.5px;"/><path class="ygrid crisp" transform="translate(0,250.67)" d="M40,0h244" style="stroke: rgb(0, 0, 0); stroke-opacity: 1; stroke-width: 0.5px;"/><path class="ygrid crisp" transform="translate(0,190.5)" d="M40,0h244" style="stroke: rgb(0, 0, 0); stroke-opacity: 1; stroke-width: 0.5px;"/><path class="ygrid crisp" transform="translate(0,130.32999999999998)" d="M40,0h244" style="stroke: rgb(0, 0, 0); stroke-opacity: 1; stroke-width: 0.5px;"/><path class="ygrid crisp" transform="translate(0,70.17)" d="M40,0h244" style="stroke: rgb(0, 0, 0); stroke-opacity: 1; stroke-width: 0.5px;"/></g></g><g class="zerolinelayer"><path class="xzl zl crisp" transform="translate(40,0)" d="M0,10v361" style="stroke: rgb(0, 0, 0); stroke-opacity: 1; stroke-width: 0.5px;"/><path class="yzl zl crisp" transform="translate(0,371)" d="M40,0h244" style="stroke: rgb(0, 0, 0); stroke-opacity: 1; stroke-width: 0.5px;"/></g><g class="layer-between"><g class="shapelayer"/><g class="imagelayer"/></g><path class="xlines-below"/><path class="ylines-below"/><g class="overlines-below"/><g class="xaxislayer-below"/><g class="yaxislayer-below"/><g class="overaxes-below"/><g class="overplot"><g class="xy" transform="translate(40,10)" clip-path="url(#clipd67d10xyplot)"><g class="scatterlayer mlayer"><g class="trace scatter trace5d153e" style="stroke-miterlimit: 2; opacity: 1;"><g class="fills"/><g class="errorbars"/><g class="lines"><path class="js-line" d="M0.02,364.37L2.56,365.33L5.1,365.33L10.19,364.01L12.73,362.68L17.81,362.56L20.35,361.12L22.89,360.28L25.44,356.07L27.98,353.3L30.52,346.56L33.06,337.54L35.6,325.02L38.14,311.78L40.69,306.85L48.31,279.29L50.85,262.81L58.48,207.09L61.02,193.38L63.56,180.62L66.1,161.01L73.73,119.85L76.27,110.23L81.35,79.54L83.89,67.51L88.98,47.65L91.52,44.4L94.06,41.88L96.6,48.98L99.14,52.35L101.68,53.79L106.77,55.71L109.31,59.81L114.39,60.41L116.93,65.1L119.48,65.7L122.02,65.1L124.56,62.93L127.1,62.21L129.64,63.66L132.18,68.83L134.73,71L137.27,60.29L139.81,71.6L142.35,68.59L144.89,71.6L147.43,72.08L149.98,70.27L152.52,58.48L155.06,57.64L157.6,62.45L160.14,62.57L162.68,59.32L165.23,60.29L167.77,55.35L170.31,65.7L172.85,67.39L175.39,58.84L177.93,60.29L180.48,75.45L183.02,69.31L185.56,69.19L188.1,68.11L190.64,73.28L193.18,68.95L195.73,70.52L198.27,75.69L200.81,77.13L203.35,80.14L205.89,74.01L208.43,75.21L210.98,73.4L213.52,80.14L218.6,84.11L221.14,85.08L223.68,85.8L226.23,85.56L228.77,75.45L231.31,84.23L233.85,86.16L236.39,86.52L238.93,79.3L241.48,83.63L244.02,84.47L246.56,76.29L251.64,81.83L254.18,89.41L256.73,93.26L259.27,87L261.81,88.93L264.35,87L266.89,84.84L269.43,84.84L274.52,92.54L277.06,91.93L282.14,90.49L284.68,87.96L289.77,89.29L292.31,81.23L294.85,81.83L297.39,91.09L299.93,87.12L302.48,93.86L307.56,93.26L310.1,86.64L315.18,93.86L317.73,89.89L322.81,96.15L325.35,96.75L330.43,103.49L332.98,90.49L335.52,96.51L338.06,90.85L343.14,91.33L345.68,101.32L348.23,101.92L350.77,95.3L353.31,96.39L355.85,84.84L360.93,99.76L363.48,101.56L366.02,106.5L368.56,83.87L371.1,96.99L373.64,95.18L376.18,97.35L378.73,83.75L381.27,100.84L383.81,80.98L386.35,109.86L393.98,97.71L396.52,99.76L404.14,113.96L406.68,107.46L411.77,105.05L414.31,111.55L419.39,95.91L421.93,102.76L424.48,105.41L429.56,101.44L432.1,107.46L434.64,111.31L439.73,100.24L442.27,112.87L449.89,104.09L452.43,109.14L454.98,113.11L460.06,109.02L462.6,100.96L467.68,114.32L472.77,109.14L475.31,111.67L488.02,109.26" style="vector-effect: none; fill: none; stroke: rgb(255, 28, 28); stroke-opacity: 1; stroke-width: 1px; opacity: 1;"/></g><g class="points"/><g class="text"/></g><g class="trace scatter trace683d90" style="stroke-miterlimit: 2; opacity: 1;"><g class="fills"/><g class="errorbars"/><g class="lines"><path class="js-line" d="M0.03,365.69L5.1,364.73L7.65,364.85L12.73,364.97L15.27,364.13L22.9,362.93L25.44,361L27.98,360.28L30.52,358.35L33.06,355.95L35.6,351.98L38.15,348.85L40.69,336.33L45.77,309.26L48.31,303.12L50.85,298.43L53.4,291.57L55.94,284.95L58.48,270.27L61.02,244.52L63.56,238.74L68.65,206.61L71.19,193.14L76.27,160.16L78.81,149.21L81.35,133.45L83.9,122.38L86.44,114.32L88.98,98.91L91.52,81.47L94.06,69.31L96.6,48.49L99.15,40.43L101.69,40.91L104.23,36.58L106.77,48.49L109.31,50.18L114.39,48.13L116.94,51.26L119.48,47.05L122.02,50.9L124.56,51.14L127.1,57.52L129.64,56.56L132.19,52.71L134.73,53.91L137.27,51.98L139.81,49.94L142.35,62.33L144.89,63.18L147.44,61.25L149.98,60.29L152.52,53.67L155.06,58.96L157.6,67.51L160.14,67.63L162.69,69.31L165.23,62.57L167.77,69.07L170.31,63.78L172.85,55.35L175.39,73.88L177.94,71.12L180.48,64.62L183.02,73.04L185.56,70.15L188.1,75.57L190.64,72.68L193.19,73.88L195.73,74.13L198.27,76.89L200.81,81.1L203.35,71.84L205.89,77.74L208.44,74.01L210.98,81.83L213.52,79.66L216.06,85.44L218.6,78.7L221.15,75.45L223.69,84.84L228.77,89.77L231.31,79.54L233.85,79.54L236.39,75.33L241.48,80.5L244.02,78.7L246.56,84.11L249.1,82.19L256.73,86.28L259.27,80.74L261.81,83.75L264.35,89.89L269.44,80.74L271.98,77.25L274.52,74.61L277.06,77.37L279.6,65.22L282.14,75.45L284.69,80.98L287.23,74.25L289.77,83.75L292.31,84.11L294.85,84.96L297.39,76.29L302.48,88.32L305.02,85.2L310.1,77.49L312.64,84.84L315.19,82.55L317.73,86.52L320.27,88.45L322.81,84.84L327.89,78.1L330.44,82.43L332.98,88.08L335.52,78.94L343.14,84.47L345.69,95.3L348.23,90.13L350.77,97.47L355.85,87L358.39,88.08L360.94,90.85L363.48,83.75L368.56,91.57L371.1,85.2L373.64,69.43L376.19,82.79L378.73,89.17L391.44,83.51L393.98,89.77L396.52,97.95L399.06,89.05L401.6,83.75L409.23,95.3L411.77,94.46L414.31,97.95L416.85,79.78L424.48,103.85L427.02,101.56L429.56,100.24L432.1,97.47L434.64,103.61L437.19,105.53L439.73,92.3L444.81,98.19L447.35,98.07L449.89,103.61L452.44,99.52L454.98,90.97L470.23,106.86L472.77,94.46L475.31,94.1L477.85,105.77L482.94,97.47" style="vector-effect: none; fill: none; stroke: rgb(255, 28, 28); stroke-opacity: 1; stroke-width: 1px; opacity: 1;"/></g><g class="points"/><g class="text"/></g><g class="trace scatter trace259ca0" style="stroke-miterlimit: 2; opacity: 1;"><g class="fills"/><g class="errorbars"/><g class="lines"><path class="js-line" d="M0.03,363.05L2.56,366.54L5.1,364.97L7.64,365.69L10.19,365.21L15.27,364.61L17.81,363.05L20.35,362.08L22.89,360.16L27.98,348.85L30.52,341.02L33.06,331.4L35.6,318.64L40.69,302.88L43.23,298.67L45.77,284.47L48.31,265.7L55.94,211.79L58.48,195.54L63.56,159.56L66.1,143.44L68.64,124.79L71.19,113.47L73.73,97.11L76.27,89.17L78.81,70.03L81.35,61.61L83.89,39.95L86.43,32.13L88.98,29.6L91.52,20.22L94.06,19.25L96.6,36.34L99.14,32.25L101.68,37.66L104.23,37.66L106.77,36.58L109.31,34.05L111.85,34.54L114.39,42.24L116.93,43.8L122.02,37.9L124.56,40.79L127.1,38.51L129.64,37.54L132.18,45.37L134.73,47.17L137.27,43.56L139.81,49.7L142.35,50.3L144.89,48.49L147.43,49.82L149.98,48.49L152.52,41.76L155.06,42.72L157.6,48.01L160.14,48.37L162.68,46.57L165.23,55.35L167.77,54.75L170.31,55.96L172.85,55.83L175.39,52.1L177.93,56.8L180.48,57.52L183.02,55.71L185.56,51.86L188.1,55.35L190.64,61.25L193.18,62.45L195.73,59.08L198.27,64.86L200.81,66.18L203.35,64.14L205.89,54.15L208.43,67.03L210.98,62.69L213.52,58.48L216.06,61.01L218.6,72.32L221.14,74.13L223.68,64.38L226.23,77.86L228.77,74.13L231.31,68.83L233.85,72.32L236.39,68.59L238.93,75.09L241.48,83.75L244.02,66.54L246.56,80.14L249.1,87L251.64,83.15L254.18,81.95L256.73,70.52L259.27,73.52L261.81,79.66L264.35,73.04L266.89,73.52L269.43,83.75L271.98,81.1L274.52,84.23L277.06,79.54L279.6,73.04L282.14,77.62L284.68,76.05L287.23,80.02L292.31,81.35L294.85,83.87L297.39,84.11L299.93,69.31L310.1,88.2L312.64,78.22L320.27,91.33L322.81,86.52L327.89,77.37L330.43,87L335.52,83.03L338.06,87.6L343.14,91.81L345.68,80.62L348.23,90.49L350.77,87.12L353.31,80.62L358.39,89.53L360.93,81.59L371.1,91.21L373.64,89.77L381.27,93.38L383.81,90.61L391.43,89.77L393.98,97.47L396.52,101.68L399.06,92.78L401.6,97.23L404.14,94.34L406.68,93.26L416.85,89.53L419.39,94.1L427.02,107.1L429.56,102.89L432.1,98.91L437.18,110.47L439.73,101.68L442.27,100.6L449.89,102.89L452.43,108.18L460.06,97.83L462.6,100.48L465.14,102.4L482.93,101.8L485.48,111.19L488.02,112.99" style="vector-effect: none; fill: none; stroke: rgb(255, 28, 28); stroke-opacity: 1; stroke-width: 1px; opacity: 1;"/></g><g class="points"/><g class="text"/></g><g class="trace scatter trace24170d" style="stroke-miterlimit: 2; opacity: 1;"><g class="fills"/><g class="errorbars"/><g class="lines"><path class="js-line" d="M0.02,364.37L2.56,365.93L5.1,365.93L7.64,364.25L10.19,364.61L17.81,363.17L20.35,362.93L25.44,356.67L27.98,351.49L30.52,346.56L33.06,338.14L35.6,327.43L38.14,312.99L40.69,305.05L43.23,292.05L48.31,260.04L50.85,255.59L53.39,254.87L55.93,241.15L61.02,212.63L63.56,201.08L66.1,187.48L68.64,164.13L71.18,158.96L73.73,146.33L76.27,134.29L78.81,116.84L83.89,90.37L86.43,85.32L88.98,84.35L91.52,85.92L94.06,86.4L96.6,85.68L99.14,88.45L101.68,85.08L106.77,79.18L109.31,79.66L116.93,75.93L119.48,75.33L124.56,73.16L127.1,70.03L129.64,71.48L132.18,71.84L134.73,71L137.27,58.48L139.81,73.4L142.35,68.59L144.89,71.6L147.43,70.88L149.98,67.87L152.52,59.08L155.06,54.63L157.6,56.44L160.14,57.76L162.68,50.9L165.23,51.86L167.77,49.34L170.31,59.69L172.85,62.57L175.39,51.02L177.93,54.87L180.48,66.42L183.02,62.69L185.56,56.56L188.1,58.48L190.64,62.45L193.18,61.13L195.73,69.31L198.27,68.47L203.35,74.73L205.89,64.98L208.43,68.59L210.98,68.59L213.52,75.33L216.06,73.28L218.6,73.88L221.14,77.25L223.68,79.18L226.23,75.33L228.77,71.24L231.31,82.43L233.85,86.76L236.39,77.49L238.93,69.07L241.48,81.83L244.02,79.06L246.56,66.06L251.64,73.4L254.18,86.4L256.73,89.05L259.27,81.59L264.35,77.98L266.89,78.22L269.43,78.22L271.98,89.41L274.52,88.32L277.06,89.53L284.68,80.14L287.23,82.19L289.77,85.08L292.31,81.83L294.85,78.82L297.39,88.69L299.93,88.93L302.48,93.26L305.02,89.65L307.56,90.85L312.64,80.26L315.18,86.64L317.73,82.07L320.27,89.89L322.81,88.93L325.35,92.54L330.43,104.09L332.98,86.88L335.52,95.91L338.06,86.64L343.14,82.91L345.68,94.7L348.23,100.12L350.77,88.08L353.31,89.77L355.85,80.02L360.93,98.55L363.48,99.15L366.02,105.89L368.56,80.26L376.18,97.95L378.73,80.14L386.35,104.45L388.89,95.91L399.06,106.74L401.6,101.2L404.14,108.54L409.23,106.01L411.77,97.23L416.85,104.21L419.39,94.7L437.18,108.3L439.73,97.83L442.27,109.26L447.35,101.44L449.89,104.69L454.98,114.32L460.06,108.42L462.6,99.76L475.31,112.87L477.85,109.62L482.93,101.68L485.47,109.02L488.02,109.86" style="vector-effect: none; fill: none; stroke: rgb(51, 204, 51); stroke-opacity: 1; stroke-width: 1px; opacity: 1;"/></g><g class="points"/><g class="text"/></g><g class="trace scatter tracee10240" style="stroke-miterlimit: 2; opacity: 1;"><g class="fills"/><g class="errorbars"/><g class="lines"><path class="js-line" d="M0.03,362.68L2.56,365.57L5.1,364.13L7.65,363.65L10.19,364.49L17.81,363.65L20.35,362.81L22.9,362.93L25.44,361.6L33.06,360.76L35.6,358.59L43.23,349.09L45.77,341.15L50.85,321.89L53.4,306.61L58.48,278.69L61.02,250.53L63.56,246.56L66.1,240.31L73.73,190.25L76.27,181.82L83.9,145.84L86.44,141.99L88.98,130.8L91.52,111.55L94.06,106.01L96.6,87.6L101.69,73.4L104.23,61.25L106.77,52.1L109.31,55.59L111.85,68.71L114.39,63.78L116.94,63.3L119.48,56.68L122.02,60.53L124.56,56.56L127.1,62.93L129.64,59.57L132.19,51.5L134.73,49.7L137.27,47.77L139.81,42.72L142.35,55.11L144.89,55.35L147.44,52.22L149.98,54.27L152.52,44.04L155.06,46.33L157.6,55.47L160.14,51.38L162.69,53.67L165.23,46.33L167.77,54.03L170.31,47.53L172.85,31.89L175.39,55.83L177.94,50.66L180.48,41.15L183.02,50.78L185.56,47.29L188.1,49.7L190.64,46.81L193.19,45L195.73,41.64L198.27,43.2L200.81,50.42L203.35,36.94L205.89,45.85L208.44,39.11L210.98,49.94L213.52,45.97L216.06,55.35L218.6,51.62L221.15,43.56L226.23,62.33L228.77,57.28L231.31,48.86L233.85,51.86L236.39,45.25L238.94,51.62L241.48,54.03L244.02,50.42L246.56,57.04L249.1,59.93L254.19,59.32L256.73,67.63L259.27,57.28L261.81,54.87L264.35,65.82L266.89,61.37L269.44,56.68L271.98,59.2L274.52,47.53L277.06,52.1L279.6,48.98L282.14,50.78L284.69,61.73L287.23,50.78L292.31,64.26L294.85,63.9L297.39,50.42L299.94,63.9L302.48,67.87L305.02,59.93L307.56,54.51L310.1,57.04L315.19,58.48L317.73,64.26L322.81,66.79L325.35,60.17L327.89,58.24L330.44,72.2L332.98,73.04L335.52,57.88L340.6,64.5L343.14,62.21L345.69,80.86L348.23,77.49L350.77,80.62L355.85,70.15L358.39,74.25L360.94,83.03L363.48,68.71L366.02,79.66L368.56,74.73L371.1,72.56L373.64,66.42L376.19,77.98L378.73,79.54L381.27,73.88L388.89,74.37L391.44,70.27L396.52,85.32L399.06,75.81L401.6,70.52L404.14,79.18L406.69,71.72L409.23,83.87L414.31,91.93L416.85,76.77L427.02,99.15L429.56,90.61L432.1,88.45L434.64,93.98L437.19,100.72L439.73,80.26L444.81,87.96L447.35,87.24L449.89,98.19L452.44,93.5L454.98,82.55L470.23,101.44L472.77,87.84L475.31,87.48L477.85,103.97L482.94,95.06" style="vector-effect: none; fill: none; stroke: rgb(51, 204, 51); stroke-opacity: 1; stroke-width: 1px; opacity: 1;"/></g><g class="points"/><g class="text"/></g><g class="trace scatter trace4d068f" style="stroke-miterlimit: 2; opacity: 1;"><g class="fills"/><g class="errorbars"/><g class="lines"><path class="js-line" d="M0.03,363.05L2.56,365.93L5.1,365.57L10.19,364.61L12.73,365.33L20.35,363.29L22.89,363.17L27.98,359.68L30.52,355.46L35.6,345.72L38.14,335.61L43.23,314.91L45.77,311.54L53.39,256.43L55.94,246.08L58.48,256.31L61.02,230.2L63.56,208.3L66.1,193.38L71.19,167.62L73.73,149.45L78.81,125.39L81.35,107.94L83.89,90.49L86.43,80.86L91.52,60.53L94.06,57.16L96.6,67.63L99.14,59.93L101.68,67.15L104.23,66.54L109.31,57.52L111.85,55.59L114.39,56.68L116.93,56.44L119.48,51.38L122.02,48.74L124.56,50.42L127.1,43.32L129.64,45.37L132.18,48.98L134.73,47.17L137.27,44.16L139.81,46.69L142.35,44.88L144.89,45.49L147.43,43.8L149.98,44.28L152.52,35.14L155.06,36.1L157.6,38.39L160.14,36.94L162.68,33.93L165.23,40.91L167.77,39.71L172.85,36.58L175.39,34.66L177.93,35.14L180.48,34.66L183.02,35.86L185.56,34.42L188.1,36.1L190.64,45.61L193.18,46.81L195.73,42.24L198.27,48.01L200.81,49.94L203.35,48.49L205.89,39.11L208.43,50.18L210.98,47.05L216.06,45.97L218.6,55.47L221.14,58.48L223.68,49.34L226.23,61.01L228.77,59.08L231.31,56.2L233.85,59.08L236.39,55.96L238.93,60.65L241.48,69.31L244.02,52.71L249.1,76.17L251.64,70.52L254.18,72.32L256.73,60.29L259.27,61.49L261.81,68.83L264.35,61.61L266.89,63.9L269.43,71.72L271.98,71.48L274.52,72.2L277.06,69.31L279.6,65.22L282.14,68.59L284.68,66.42L287.23,70.4L289.77,69.91L292.31,73.52L294.85,74.85L297.39,72.68L299.93,66.91L302.48,68.71L305.02,71L307.56,80.02L310.1,81.59L312.64,72.8L317.73,75.33L320.27,80.5L325.35,74.61L327.89,68.35L330.43,79.18L332.98,77.37L335.52,74.01L343.14,83.39L345.68,74.61L350.77,83.51L353.31,72.8L358.39,81.1L360.93,70.76L368.56,81.71L371.1,81.59L373.64,78.34L376.18,81.71L378.73,83.39L381.27,87.36L383.81,84.59L386.35,82.55L388.89,84.47L391.43,79.54L396.52,93.26L399.06,86.16L406.68,90.25L409.23,86.64L416.85,80.5L419.39,89.29L424.48,90.49L427.02,98.67L432.1,88.69L434.64,96.75L437.18,100.84L439.73,94.46L442.27,89.77L449.89,95.67L452.43,102.16L454.98,97.47L460.06,100.84L462.6,102.28L475.31,99.52L477.85,99.28L482.93,98.19L485.48,108.78L488.02,102.76" style="vector-effect: none; fill: none; stroke: rgb(51, 204, 51); stroke-opacity: 1; stroke-width: 1px; opacity: 1;"/></g><g class="points"/><g class="text"/></g></g></g></g><path class="xlines-above crisp" d="M0,0" style="fill: none;"/><path class="ylines-above crisp" d="M0,0" style="fill: none;"/><g class="overlines-above"/><g class="xaxislayer-above"><g class="xtick"><text text-anchor="middle" x="0" y="386" transform="translate(40,0)" style="font-family: 'Open Sans', verdana, arial, sans-serif; font-size: 14px; fill: rgb(0, 0, 0); fill-opacity: 1; white-space: pre; opacity: 1;">0</text></g><g class="xtick"><text text-anchor="middle" x="0" y="386" style="font-family: 'Open Sans', verdana, arial, sans-serif; font-size: 14px; fill: rgb(0, 0, 0); fill-opacity: 1; white-space: pre; opacity: 1;" transform="translate(121.33,0)">8</text></g><g class="xtick"><text text-anchor="middle" x="0" y="386" style="font-family: 'Open Sans', verdana, arial, sans-serif; font-size: 14px; fill: rgb(0, 0, 0); fill-opacity: 1; white-space: pre; opacity: 1;" transform="translate(202.67,0)">16</text></g><g class="xtick"><text text-anchor="middle" x="0" y="386" style="font-family: 'Open Sans', verdana, arial, sans-serif; font-size: 14px; fill: rgb(0, 0, 0); fill-opacity: 1; white-space: pre; opacity: 1;" transform="translate(284,0)">24</text></g></g><g class="yaxislayer-above"><g class="ytick"><text text-anchor="end" x="39" y="4.8999999999999995" transform="translate(0,371)" style="font-family: 'Open Sans', verdana, arial, sans-serif; font-size: 14px; fill: rgb(0, 0, 0); fill-opacity: 1; white-space: pre; opacity: 1;">0</text></g><g class="ytick"><text text-anchor="end" x="39" y="4.8999999999999995" style="font-family: 'Open Sans', verdana, arial, sans-serif; font-size: 14px; fill: rgb(0, 0, 0); fill-opacity: 1; white-space: pre; opacity: 1;" transform="translate(0,310.83)">0.1</text></g><g class="ytick"><text text-anchor="end" x="39" y="4.8999999999999995" style="font-family: 'Open Sans', verdana, arial, sans-serif; font-size: 14px; fill: rgb(0, 0, 0); fill-opacity: 1; white-space: pre; opacity: 1;" transform="translate(0,250.67)">0.2</text></g><g class="ytick"><text text-anchor="end" x="39" y="4.8999999999999995" style="font-family: 'Open Sans', verdana, arial, sans-serif; font-size: 14px; fill: rgb(0, 0, 0); fill-opacity: 1; white-space: pre; opacity: 1;" transform="translate(0,190.5)">0.3</text></g><g class="ytick"><text text-anchor="end" x="39" y="4.8999999999999995" style="font-family: 'Open Sans', verdana, arial, sans-serif; font-size: 14px; fill: rgb(0, 0, 0); fill-opacity: 1; white-space: pre; opacity: 1;" transform="translate(0,130.32999999999998)">0.4</text></g><g class="ytick"><text text-anchor="end" x="39" y="4.8999999999999995" style="font-family: 'Open Sans', verdana, arial, sans-serif; font-size: 14px; fill: rgb(0, 0, 0); fill-opacity: 1; white-space: pre; opacity: 1;" transform="translate(0,70.17)">0.5</text></g><g class="ytick"><text text-anchor="end" x="39" y="4.8999999999999995" style="font-family: 'Open Sans', verdana, arial, sans-serif; font-size: 14px; fill: rgb(0, 0, 0); fill-opacity: 1; white-space: pre; opacity: 0;" transform="translate(0,10)">0.6</text></g></g><g class="overaxes-above"/></g></g><g class="polarlayer"/><g class="smithlayer"/><g class="ternarylayer"/><g class="geolayer"/><g class="funnelarealayer"/><g class="pielayer"/><g class="iciclelayer"/><g class="treemaplayer"/><g class="sunburstlayer"/><g class="glimages"/><defs id="topdefs-d67d10"><g class="clips"/><clipPath id="legendd67d10"><rect width="211" height="89" x="0" y="0"/></clipPath></defs><g class="layer-above"><g class="imagelayer"/><g class="shapelayer"/></g><g class="infolayer"><g class="legend" pointer-events="all" transform="translate(288.88,10)"><rect class="bg" shape-rendering="crispEdges" width="211" height="89" x="0" y="0" style="stroke: rgb(68, 68, 68); stroke-opacity: 1; fill: rgb(255, 255, 255); fill-opacity: 1; stroke-width: 0px;"/><g class="scrollbox" transform="" clip-path="url(#legendd67d10)"><g class="groups"><g class="traces" transform="translate(0,24.7)" style="opacity: 1;"><text class="legendtext" text-anchor="start" x="40" y="-3.64" style="font-family: 'Open Sans', verdana, arial, sans-serif; font-size: 14px; fill: rgb(0, 0, 0); fill-opacity: 1; white-space: pre;"><tspan class="line" dy="0em" x="40" y="-3.64"><tspan style="font-style:italic">Salmonella Typhimurium</tspan> </tspan><tspan class="line" dy="1.3em" x="40" y="-3.64">mcherry:pGDPI CTX-M-15</tspan></text><g class="layers" style="opacity: 1;"><g class="legendfill"/><g class="legendlines"><path class="js-line" d="M5,0h30" style="fill: none; stroke: rgb(255, 28, 28); stroke-opacity: 1; stroke-width: 1px;"/></g><g class="legendsymbols"><g class="legendpoints"/></g></g><rect class="legendtoggle" x="0" y="-19.7" width="205.609375" height="39.4" style="fill: rgb(0, 0, 0); fill-opacity: 0;"/></g><g class="traces" transform="translate(0,64.1)" style="opacity: 1;"><text class="legendtext" text-anchor="start" x="40" y="-3.64" style="font-family: 'Open Sans', verdana, arial, sans-serif; font-size: 14px; fill: rgb(0, 0, 0); fill-opacity: 1; white-space: pre;"><tspan class="line" dy="0em" x="40" y="-3.64"><tspan style="font-style:italic">Escherichia coli</tspan></tspan><tspan class="line" dy="1.3em" x="40" y="-3.64">sfGFP:pGDPI CAT</tspan></text><g class="layers" style="opacity: 1;"><g class="legendfill"/><g class="legendlines"><path class="js-line" d="M5,0h30" style="fill: none; stroke: rgb(51, 204, 51); stroke-opacity: 1; stroke-width: 1px;"/></g><g class="legendsymbols"><g class="legendpoints"/></g></g><rect class="legendtoggle" x="0" y="-19.7" width="205.609375" height="39.4" style="fill: rgb(0, 0, 0); fill-opacity: 0;"/></g></g></g><rect class="scrollbar" rx="20" ry="3" width="0" height="0" x="0" y="0" style="fill: rgb(128, 139, 164); fill-opacity: 1;"/></g><g class="g-gtitle"/><g class="g-xtitle" transform="translate(0,-3.3000000000000114)"><text class="xtitle" x="162" y="399.3" text-anchor="middle" style="opacity: 1; font-family: 'Open Sans', verdana, arial, sans-serif; font-size: 14px; fill: rgb(0, 0, 0); fill-opacity: 1; white-space: pre;">Time [h]</text></g><g class="g-ytitle" transform="translate(0.150390625,0)"><text class="ytitle" transform="rotate(-90,14.850000000000001,190.5)" x="14.850000000000001" y="190.5" text-anchor="middle" style="opacity: 1; font-family: 'Open Sans', verdana, arial, sans-serif; font-size: 14px; fill: rgb(0, 0, 0); fill-opacity: 1; white-space: pre;">OD</text></g></g></svg>