<svg class="main-svg" xmlns="http://www.w3.org/2000/svg" xmlns:xlink="http://www.w3.org/1999/xlink" width="300" height="300" style="" viewBox="0 0 300 300"><rect x="0" y="0" width="300" height="300" style="fill: rgb(255, 255, 255); fill-opacity: 1;"/><defs id="defs-ff44c7"><g class="clips"><clipPath id="clipff44c7xyplot" class="plotclip"><rect width="208" height="227"/></clipPath><clipPath class="axesclip" id="clipff44c7x"><rect x="62" y="0" width="208" height="300"/></clipPath><clipPath class="axesclip" id="clipff44c7y"><rect x="0" y="30" width="300" height="227"/></clipPath><clipPath class="axesclip" id="clipff44c7xy"><rect x="62" y="30" width="208" height="227"/></clipPath></g><g class="gradients"/><g class="patterns"/></defs><g class="bglayer"/><g class="layer-below"><g class="imagelayer"/><g class="shapelayer"/></g><g class="cartesianlayer"><g class="subplot xy"><g class="layer-subplot"><g class="shapelayer"/><g class="imagelayer"/></g><g class="minor-gridlayer"><g class="x"/><g class="y"/></g><g class="gridlayer"><g class="x"><path class="xgrid crisp" transform="translate(97.13,0)" d="M0,30v227" style="stroke: rgb(128, 128, 128); stroke-opacity: 1; stroke-width: 0.2px;"/><path class="xgrid crisp" transform="translate(155.72,0)" d="M0,30v227" style="stroke: rgb(128, 128, 128); stroke-opacity: 1; stroke-width: 0.2px;"/><path class="xgrid crisp" transform="translate(214.32,0)" d="M0,30v227" style="stroke: rgb(128, 128, 128); stroke-opacity: 1; stroke-width: 0.2px;"/></g><g class="y"><path class="ygrid crisp" transform="translate(0,239.36)" d="M62,0h208" style="stroke: rgb(128, 128, 128); stroke-opacity: 1; stroke-width: 0.2px;"/><path class="ygrid crisp" transform="translate(0,204.1)" d="M62,0h208" style="stroke: rgb(128, 128, 128); stroke-opacity: 1; stroke-width: 0.2px;"/><path class="ygrid crisp" transform="translate(0,168.84)" d="M62,0h208" style="stroke: rgb(128, 128, 128); stroke-opacity: 1; stroke-width: 0.2px;"/><path class="ygrid crisp" transform="translate(0,133.59)" d="M62,0h208" style="stroke: rgb(128, 128, 128); stroke-opacity: 1; stroke-width: 0.2px;"/><path class="ygrid crisp" transform="translate(0,98.33)" d="M62,0h208" style="stroke: rgb(128, 128, 128); stroke-opacity: 1; stroke-width: 0.2px;"/><path class="ygrid crisp" transform="translate(0,63.07)" d="M62,0h208" style="stroke: rgb(128, 128, 128); stroke-opacity: 1; stroke-width: 0.2px;"/></g></g><g class="zerolinelayer"/><g class="layer-between"><g class="shapelayer"/><g class="imagelayer"/></g><path class="xlines-below"/><path class="ylines-below"/><g class="overlines-below"/><g class="xaxislayer-below"/><g class="yaxislayer-below"/><g class="overaxes-below"/><g class="overplot"><g class="xy" transform="translate(62,30)" clip-path="url(#clipff44c7xyplot)"><g class="scatterlayer mlayer"><g class="trace scatter tracea037a8" style="stroke-miterlimit: 2; opacity: 1;"><g class="fills"/><g class="errorbars"/><g class="lines"><path class="js-line" d="M0,215.2L208,11.35" style="vector-effect: none; fill: none; stroke: rgb(80, 162, 80); stroke-opacity: 1; stroke-dasharray: 9px, 9px; stroke-width: 1.5px; opacity: 1;"/></g><g class="points"/><g class="text"/></g><g class="trace scatter trace426e36" style="stroke-miterlimit: 2; opacity: 1;"><g class="fills"/><g class="errorbars"/><g class="lines"><path class="js-line" d="M0,214.67L5.86,206.06L8.79,202.66L17.58,195.15L20.51,192.71L26.37,190.16L29.29,188.66L32.22,187.4L35.15,187.09L38.08,187.04L41.01,186.15L49.8,184.02L52.73,183.41L58.59,182.27L61.52,181.82L79.1,179.92L82.03,179.96L131.83,179.56L134.76,179.24L140.62,179.5L143.55,179.58L205.07,179.5L208,179.57" style="vector-effect: none; fill: none; stroke: rgb(80, 162, 80); stroke-opacity: 1; stroke-width: 1.5px; opacity: 1;"/></g><g class="points"/><g class="text"/></g><g class="trace scatter trace31b267" style="stroke-miterlimit: 2; opacity: 1;"><g class="fills"/><g class="errorbars"/><g class="lines"><path class="js-line" d="M0,215.31L2.93,215.65L5.86,212.55L8.79,212.32L11.72,211.07L14.65,211.07L17.58,208.23L20.51,205.39L23.44,203.83L29.3,198.63L32.23,196.06L46.88,186.77L49.81,186.51L55.66,185.15L58.59,184.4L64.45,183.19L67.38,182.72L90.82,179.8L93.75,179.63L102.54,179.18L105.47,179.51L137.69,178.87L140.62,179.17L208,179.05" style="vector-effect: none; fill: none; stroke: rgb(80, 162, 80); stroke-opacity: 1; stroke-width: 1.5px; opacity: 1;"/></g><g class="points"/><g class="text"/></g><g class="trace scatter tracea28837" style="stroke-miterlimit: 2; opacity: 1;"><g class="fills"/><g class="errorbars"/><g class="lines"><path class="js-line" d="M0,215.65L2.93,215.31L5.86,211.67L8.79,209.06L11.72,205.12L23.44,194.82L26.37,193L29.3,192.51L32.22,190.24L41.01,186.46L43.94,187.14L49.8,184.36L52.73,183.67L73.24,180.09L76.17,179.82L87.89,179.48L90.81,179.28L99.6,179.33L102.53,179.22L178.7,178.67L181.63,178.68L208,179.03" style="vector-effect: none; fill: none; stroke: rgb(80, 162, 80); stroke-opacity: 1; stroke-width: 1.5px; opacity: 1;"/></g><g class="points"/><g class="text"/></g></g></g></g><g class="zerolinelayer-above"/><path class="xlines-above crisp" d="M61.5,257.25H270.5M61.5,29.75H270.5" style="fill: none; stroke-width: 0.5px; stroke: rgb(0, 0, 0); stroke-opacity: 1;"/><path class="ylines-above crisp" d="M61.75,30V257M270.25,30V257" style="fill: none; stroke-width: 0.5px; stroke: rgb(0, 0, 0); stroke-opacity: 1;"/><g class="overlines-above"/><g class="xaxislayer-above"><path class="xtick ticks crisp" d="M0,257v-5" transform="translate(97.13,0)" style="stroke: rgb(0, 0, 0); stroke-opacity: 1; stroke-width: 0.5px;"/><path class="xtick ticks crisp" d="M0,257v-5" transform="translate(155.72,0)" style="stroke: rgb(0, 0, 0); stroke-opacity: 1; stroke-width: 0.5px;"/><path class="xtick ticks crisp" d="M0,257v-5" transform="translate(214.32,0)" style="stroke: rgb(0, 0, 0); stroke-opacity: 1; stroke-width: 0.5px;"/><g class="xtick"><text text-anchor="middle" x="0" y="274.3" transform="translate(97.13,0)" style="font-family: 'Open Sans', verdana, arial, sans-serif; font-size: 14px; fill: rgb(0, 0, 0); fill-opacity: 1; white-space: pre;">5</text></g><g class="xtick"><text text-anchor="middle" x="0" y="274.3" style="font-family: 'Open Sans', verdana, arial, sans-serif; font-size: 14px; fill: rgb(0, 0, 0); fill-opacity: 1; white-space: pre;" transform="translate(155.72,0)">10</text></g><g class="xtick"><text text-anchor="middle" x="0" y="274.3" style="font-family: 'Open Sans', verdana, arial, sans-serif; font-size: 14px; fill: rgb(0, 0, 0); fill-opacity: 1; white-space: pre;" transform="translate(214.32,0)">15</text></g></g><g class="yaxislayer-above"><path class="ytick ticks crisp" d="M62,0h5" transform="translate(0,239.36)" style="stroke: rgb(0, 0, 0); stroke-opacity: 1; stroke-width: 0.5px;"/><path class="ytick ticks crisp" d="M62,0h5" transform="translate(0,204.1)" style="stroke: rgb(0, 0, 0); stroke-opacity: 1; stroke-width: 0.5px;"/><path class="ytick ticks crisp" d="M62,0h5" transform="translate(0,168.84)" style="stroke: rgb(0, 0, 0); stroke-opacity: 1; stroke-width: 0.5px;"/><path class="ytick ticks crisp" d="M62,0h5" transform="translate(0,133.59)" style="stroke: rgb(0, 0, 0); stroke-opacity: 1; stroke-width: 0.5px;"/><path class="ytick ticks crisp" d="M62,0h5" transform="translate(0,98.33)" style="stroke: rgb(0, 0, 0); stroke-opacity: 1; stroke-width: 0.5px;"/><path class="ytick ticks crisp" d="M62,0h5" transform="translate(0,63.07)" style="stroke: rgb(0, 0, 0); stroke-opacity: 1; stroke-width: 0.5px;"/><g class="ytick"><text text-anchor="end" x="58.7" y="4.8999999999999995" transform="translate(0,239.36)" style="font-family: 'Open Sans', verdana, arial, sans-serif; font-size: 14px; fill: rgb(0, 0, 0); fill-opacity: 1; white-space: pre;">0.01</text></g><g class="ytick"><text text-anchor="end" x="58.7" y="4.8999999999999995" style="font-family: 'Open Sans', verdana, arial, sans-serif; font-size: 14px; fill: rgb(0, 0, 0); fill-opacity: 1; white-space: pre;" transform="translate(0,204.1)">1</text></g><g class="ytick"><text text-anchor="end" x="58.7" y="4.8999999999999995" style="font-family: 'Open Sans', verdana, arial, sans-serif; font-size: 14px; fill: rgb(0, 0, 0); fill-opacity: 1; white-space: pre;" transform="translate(0,168.84)">100</text></g><g class="ytick"><text text-anchor="end" x="58.7" y="4.8999999999999995" style="font-family: 'Open Sans', verdana, arial, sans-serif; font-size: 14px; fill: rgb(0, 0, 0); fill-opacity: 1; white-space: pre;" transform="translate(0,133.59)">10k</text></g><g class="ytick"><text text-anchor="end" x="58.7" y="4.8999999999999995" style="font-family: 'Open Sans', verdana, arial, sans-serif; font-size: 14px; fill: rgb(0, 0, 0); fill-opacity: 1; white-space: pre;" transform="translate(0,98.33)">1M</text></g><g class="ytick"><text text-anchor="end" x="58.7" y="4.8999999999999995" style="font-family: 'Open Sans', verdana, arial, sans-serif; font-size: 14px; fill: rgb(0, 0, 0); fill-opacity: 1; white-space: pre;" transform="translate(0,63.07)">100M</text></g></g><g class="overaxes-above"/></g></g><g class="polarlayer"/><g class="smithlayer"/><g class="ternarylayer"/><g class="geolayer"/><g class="funnelarealayer"/><g class="pielayer"/><g class="iciclelayer"/><g class="treemaplayer"/><g class="sunburstlayer"/><g class="glimages"/><defs id="topdefs-ff44c7"><g class="clips"/></defs><g class="layer-above"><g class="imagelayer"/><g class="shapelayer"/></g><g class="infolayer"><g class="g-gtitle"/><g class="g-xtitle" transform="translate(0,5.449999999999989)"><text class="xtitle" x="166" y="287.8498046875" text-anchor="middle" style="opacity: 1; font-family: 'Open Sans', verdana, arial, sans-serif; font-size: 14px; fill: rgb(0, 0, 0); fill-opacity: 1; white-space: pre;">Time [h]</text></g><g class="g-ytitle"><text class="ytitle" transform="rotate(-90,17.3939453125,143.5)" x="17.3939453125" y="143.5" text-anchor="middle" style="opacity: 1; font-family: 'Open Sans', verdana, arial, sans-serif; font-size: 14px; fill: rgb(0, 0, 0); fill-opacity: 1; white-space: pre;">OD</text></g></g></svg>