<svg class="main-svg" xmlns="http://www.w3.org/2000/svg" xmlns:xlink="http://www.w3.org/1999/xlink" width="300" height="300" style="" viewBox="0 0 300 300"><rect x="0" y="0" width="300" height="300" style="fill: rgb(255, 255, 255); fill-opacity: 1;"/><defs id="defs-0fb4b2"><g class="clips"><clipPath id="clip0fb4b2xyplot" class="plotclip"><rect width="229" height="227"/></clipPath><clipPath class="axesclip" id="clip0fb4b2x"><rect x="41" y="0" width="229" height="300"/></clipPath><clipPath class="axesclip" id="clip0fb4b2y"><rect x="0" y="30" width="300" height="227"/></clipPath><clipPath class="axesclip" id="clip0fb4b2xy"><rect x="41" y="30" width="229" height="227"/></clipPath></g><g class="gradients"/><g class="patterns"/></defs><g class="bglayer"/><g class="layer-below"><g class="imagelayer"/><g class="shapelayer"/></g><g class="cartesianlayer"><g class="subplot xy"><g class="layer-subplot"><g class="shapelayer"/><g class="imagelayer"/></g><g class="minor-gridlayer"><g class="x"/><g class="y"/></g><g class="gridlayer"><g class="x"><path class="xgrid crisp" transform="translate(88.7,0)" d="M0,30v227" style="stroke: rgb(128, 128, 128); stroke-opacity: 1; stroke-width: 0.2px;"/><path class="xgrid crisp" transform="translate(136.41,0)" d="M0,30v227" style="stroke: rgb(128, 128, 128); stroke-opacity: 1; stroke-width: 0.2px;"/><path class="xgrid crisp" transform="translate(184.12,0)" d="M0,30v227" style="stroke: rgb(128, 128, 128); stroke-opacity: 1; stroke-width: 0.2px;"/><path class="xgrid crisp" transform="translate(231.82,0)" d="M0,30v227" style="stroke: rgb(128, 128, 128); stroke-opacity: 1; stroke-width: 0.2px;"/></g><g class="y"><path class="ygrid crisp" transform="translate(0,245.93)" d="M41,0h229" style="stroke: rgb(128, 128, 128); stroke-opacity: 1; stroke-width: 0.2px;"/><path class="ygrid crisp" transform="translate(0,179.28)" d="M41,0h229" style="stroke: rgb(128, 128, 128); stroke-opacity: 1; stroke-width: 0.2px;"/><path class="ygrid crisp" transform="translate(0,112.62)" d="M41,0h229" style="stroke: rgb(128, 128, 128); stroke-opacity: 1; stroke-width: 0.2px;"/><path class="ygrid crisp" transform="translate(0,45.96)" d="M41,0h229" style="stroke: rgb(128, 128, 128); stroke-opacity: 1; stroke-width: 0.2px;"/></g></g><g class="zerolinelayer"/><g class="layer-between"><g class="shapelayer"/><g class="imagelayer"/></g><path class="xlines-below"/><path class="ylines-below"/><g class="overlines-below"/><g class="xaxislayer-below"/><g class="yaxislayer-below"/><g class="overaxes-below"/><g class="overplot"><g class="xy" transform="translate(41,30)" clip-path="url(#clip0fb4b2xyplot)"><g class="scatterlayer mlayer"><g class="trace scatter tracebd8022" style="stroke-miterlimit: 2; opacity: 1;"><g class="fills"/><g class="errorbars"/><g class="lines"><path class="js-line" d="M13.12,168.35L15.5,106.89L16.7,89.38L19.08,75.12L20.27,70.05L23.85,57.12L25.04,55.19L27.43,49.93L28.62,47.72L33.39,38.97L34.59,36.98L39.36,31.67L40.55,31.2L42.94,28.49L44.13,27.5L45.32,25.78L46.51,25.67L51.28,23.5L52.48,23.36L57.25,20.75L58.44,21.29L59.63,19.85L60.83,20.83L62.02,19.43L63.21,19.41L64.4,18.93L65.6,19.55L70.37,17.79L71.56,17.95L75.14,17.82L76.33,17.15L81.1,16.42L82.29,14.55L85.87,14.66L87.07,13.97L91.84,14.6L93.03,13.95L95.41,13.93L96.61,13.72L98.99,14.19L100.19,13.63L102.57,13.05L103.76,13.66L106.15,13.07L107.34,13.23L108.53,12.95L109.73,13.7L112.11,12.88L113.31,13.83L118.08,13.72L119.27,14.37L126.43,14.05L127.62,15.35L130,15.03L131.2,15.39L133.58,14.77L134.77,15.18L137.16,15.74L138.35,14.49L140.74,15.69L141.93,15.5L143.12,15.92L144.32,15.44L145.51,14.67L146.7,15L147.89,15.9L149.09,15.46L151.47,15.72L152.67,15.87L153.86,15.55L155.05,16.04L156.24,15.22L157.44,15.61L176.52,15.26L177.71,14.93L186.06,15.46L187.25,15.18L190.83,15.26L192.03,15.2L195.6,15.06L196.8,14.65L197.99,15.16L199.18,14.81L208.72,15.16L209.92,15.16L219.46,14.79L220.65,15.03L229,14.73" style="vector-effect: none; fill: none; stroke: rgb(222, 89, 89); stroke-opacity: 1; stroke-width: 1.5px; opacity: 1;"/></g><g class="points"/><g class="text"/></g><g class="trace scatter trace0b3dcc" style="stroke-miterlimit: 2; opacity: 1;"><g class="fills"/><g class="errorbars"/><g class="lines"><path class="js-line" d="M11.93,170.01L14.31,114.93L15.5,94.3L17.89,75.91L19.08,73.52L20.27,66.15L21.47,63.9L23.85,54.64L25.05,52.18L33.39,36.21L34.59,35.82L36.97,32.47L38.17,31.45L42.94,27.3L44.13,25.93L45.32,25.06L46.51,25.42L47.71,25.82L48.9,24.61L50.09,24.85L51.29,24.02L52.48,23.78L53.67,22.39L58.44,20.6L59.63,21.4L62.02,20.47L63.21,20.65L65.6,19.1L66.79,19.59L69.18,17.62L70.37,18.49L72.75,18.42L73.95,17.95L75.14,16.71L76.33,16.75L78.72,17.2L79.91,16.49L81.1,15.21L82.3,15.5L90.64,13.87L91.84,14.49L95.42,14.19L96.61,14.38L102.57,15.07L103.77,13.93L106.15,14.9L107.34,14.18L108.54,13.74L109.73,14.64L113.31,13.28L114.5,14.24L116.88,15.82L118.08,15.27L121.66,15.64L122.85,14.69L125.23,16.55L126.43,16.48L130,16.53L131.2,17.09L133.58,15.93L134.78,16.09L135.97,15.22L137.16,16.7L138.35,17.04L139.55,16.6L140.74,15.77L141.93,16L143.12,16.48L144.32,16.1L145.51,16.69L146.7,16.14L149.09,16.62L150.28,16.99L151.47,16.13L152.67,16.83L156.24,17.36L157.44,16.24L161.02,16.99L162.21,17.21L169.36,17.25L170.56,16.6L180.1,17.54L181.29,17.38L184.87,17.1L186.06,17.19L197.99,16.84L199.18,17.23L205.15,16.87L206.34,16.71L209.92,16.71L211.11,16.37L213.5,16.54L214.69,16.51L226.62,16.52" style="vector-effect: none; fill: none; stroke: rgb(222, 89, 89); stroke-opacity: 1; stroke-width: 1.5px; opacity: 1;"/></g><g class="points"/><g class="text"/></g><g class="trace scatter trace0d49eb" style="stroke-miterlimit: 2; opacity: 1;"><g class="fills"/><g class="errorbars"/><g class="lines"><path class="js-line" d="M10.73,179.78L13.12,117.63L14.31,99.52L15.5,82.25L16.7,76.11L19.08,67.01L20.27,62.05L23.85,52.03L25.04,49.75L27.43,45.87L28.62,42.49L34.59,33.13L35.78,31.79L36.97,29.58L38.16,29.48L39.36,27.36L40.55,27.4L41.74,26.78L42.93,25.01L45.32,23.67L46.51,23.22L47.71,22.72L48.9,21.26L50.09,22.13L51.28,21.54L52.48,20.57L53.67,21.04L54.86,20.64L56.05,18.98L57.25,18.96L58.44,19.84L60.83,16.95L62.02,16.95L63.21,17.87L64.4,17.75L66.79,16.67L67.98,16.23L69.17,16.72L70.37,15.35L72.75,14.7L73.95,15.67L75.14,16.02L76.33,15.43L78.72,13.93L79.91,14.74L85.87,13.9L87.07,12.43L88.26,12.29L89.45,13.45L90.64,13.55L91.84,12.56L95.41,13.37L96.61,13.05L98.99,11.75L100.19,13.04L101.38,12.62L102.57,13.23L113.31,14.54L114.5,13.59L115.69,14.94L116.88,13.78L119.27,14.87L120.46,14.69L122.85,14.58L124.04,14.4L128.81,15.38L130,14.93L132.39,15.87L133.58,15.17L134.77,15.75L135.97,15.43L138.35,16.22L139.55,15.05L140.74,15.88L141.93,15L143.12,15.06L144.32,16.04L145.51,15.03L146.7,15.69L149.09,15.25L150.28,16.21L151.47,15.17L152.67,15.35L153.86,14.93L155.05,15.49L157.44,15.4L158.63,15.22L161.01,15L162.21,15.07L164.59,15.83L165.79,15.32L171.75,15.25L172.94,15.62L176.52,15.12L177.71,15.43L181.29,15.68L182.48,15.23L218.27,14.88L219.46,14.79L229,14.45" style="vector-effect: none; fill: none; stroke: rgb(222, 89, 89); stroke-opacity: 1; stroke-width: 1.5px; opacity: 1;"/></g><g class="points"/><g class="text"/></g><g class="trace scatter trace328718" style="stroke-miterlimit: 2; opacity: 1;"><g class="fills"/><g class="errorbars"/><g class="lines"><path class="js-line" d="M9.54,172.35L11.92,107.66L13.12,92.59L19.08,54.09L20.27,49.89L22.66,42.1L23.85,40.09L26.24,36.03L27.43,35.06L29.81,32.62L31.01,30.81L34.59,29.05L35.78,28.07L39.36,25.01L40.55,24.8L44.13,22.72L45.32,22.1L51.28,19.56L52.48,19.51L57.25,17.92L58.44,17.76L59.63,16.88L60.83,17.11L65.6,16.17L66.79,15.74L73.95,14.37L75.14,14.6L77.52,14.09L78.72,13.91L79.91,13.32L81.1,13.64L82.29,12.71L83.49,12.87L95.41,12.4L96.61,12.61L100.19,12.44L101.38,12.5L109.73,13.74L110.92,14.52L112.11,12.85L113.31,13.39L116.88,13.15L118.08,13.44L122.85,13.74L124.04,13.6L126.43,13.3L127.62,14.39L130,14.14L131.2,14.42L137.16,15.45L138.35,14.3L140.74,15.46L141.93,15.73L143.12,16.19L144.32,15.17L145.51,14.57L146.7,15.39L147.89,16.04L149.09,15.83L150.28,15.02L151.47,15.72L155.05,16.82L156.24,16.14L157.44,16.07L158.63,17.27L159.82,15.8L161.01,15.56L162.21,16.85L163.4,16.08L165.79,15.96L166.98,14.95L168.17,15.76L169.36,15.31L172.94,14.54L174.13,15.46L175.33,14.42L176.52,15.29L177.71,14.58L178.91,16.13L180.1,15.62L181.29,17.92L182.48,16.06L183.68,17L186.06,16.36L187.25,16.21L188.45,15.66L189.64,17.07L192.03,15L193.22,15.08L194.41,16.63L195.6,14.67L196.8,14.08L197.99,15.03L208.72,15.33L209.92,14.96L212.3,15.63L213.49,16.83L214.69,15.08L215.88,15.28L217.07,14.88L218.27,15.36L219.46,16L220.65,15.43L224.23,15.1L225.42,14.81L229,15.97" style="vector-effect: none; fill: none; stroke: rgb(80, 162, 80); stroke-opacity: 1; stroke-width: 1.5px; opacity: 1;"/></g><g class="points"/><g class="text"/></g><g class="trace scatter tracef3b18b" style="stroke-miterlimit: 2; opacity: 1;"><g class="fills"/><g class="errorbars"/><g class="lines"><path class="js-line" d="M10.73,193.68L11.93,133.02L13.12,110.95L15.5,91.61L16.7,80.78L20.27,57.7L21.47,54.01L23.85,43.15L25.05,40.47L27.43,36.6L28.62,36.14L32.2,31.94L33.39,30.39L34.59,29.06L35.78,29.23L38.17,28.31L39.36,27.34L40.55,27.12L41.74,25.66L42.94,25.65L44.13,24.3L45.32,22.86L46.51,22.95L50.09,22.14L51.29,21.49L58.44,18.74L59.63,18.94L62.02,18.22L63.21,18.31L65.6,17.31L66.79,17.47L69.18,16.68L70.37,16.91L73.95,16.12L75.14,15.57L78.72,15.45L79.91,14.94L82.3,14.5L83.49,14.23L88.26,13.87L89.45,13.61L93.03,13.42L94.22,13.5L96.61,13.13L97.8,13.24L104.96,13.15L106.15,13.48L110.92,12.82L112.11,12.91L113.31,12.55L114.5,13.09L118.08,13.59L119.27,13.39L121.66,13.66L122.85,13.83L124.04,13.78L125.23,14.51L128.81,14.09L130,14.43L133.58,15.53L134.78,14.94L135.97,14.73L137.16,15.43L140.74,14.79L141.93,15.63L145.51,15.68L146.7,16.64L147.9,16.26L149.09,16.92L150.28,15.94L151.47,16.4L155.05,16.5L156.24,17.56L158.63,15.94L159.82,16.2L161.02,15.98L162.21,17.59L163.4,16.25L164.59,19.83L165.79,21.11L166.98,18.22L169.36,17.66L170.56,18.56L171.75,18.34L172.94,20.14L174.14,21.61L175.33,21.35L177.71,20.77L178.91,18.72L180.1,18.32L181.29,19.13L184.87,17.2L186.06,19.63L188.45,17.18L189.64,18.88L190.83,18.7L192.03,19.73L193.22,18.22L194.41,20.14L195.6,17.88L196.8,18.66L199.18,21.67L200.38,21.25L201.57,23.08L202.76,19.94L203.95,20.29L205.15,18.66L206.34,18.71L207.53,17.92L208.72,18.46L209.92,17.43L215.88,17.28L217.07,19.56L218.27,18.32L219.46,20.17L220.65,20.76L221.84,18.99L224.23,19.69L225.42,21.08L226.62,19.09" style="vector-effect: none; fill: none; stroke: rgb(80, 162, 80); stroke-opacity: 1; stroke-width: 1.5px; opacity: 1;"/></g><g class="points"/><g class="text"/></g><g class="trace scatter tracead0910" style="stroke-miterlimit: 2; opacity: 1;"><g class="fills"/><g class="errorbars"/><g class="lines"><path class="js-line" d="M4.77,215.65" style="vector-effect: none; fill: none; stroke: rgb(80, 162, 80); stroke-opacity: 1; stroke-width: 1.5px; opacity: 1;"/><path class="js-line" d="M8.35,183.8L10.73,122.15L11.92,102.29L15.5,73.14L16.7,64.73L20.27,48.4L21.47,43.51L23.85,38.35L25.04,36.63L31.01,28.55L32.2,28.17L34.59,27.22L35.78,26.27L36.97,24.18L38.16,24.78L39.36,23.34L40.55,23.25L41.74,23.03L42.93,21.65L44.13,21.34L45.32,20.2L47.71,19.71L48.9,18.74L50.09,19.14L51.28,18.64L52.48,17.85L53.67,18L59.63,16L60.83,15.15L64.4,14.99L65.6,14.74L72.75,13.07L73.95,13.37L76.33,13.02L77.52,12.76L88.26,11.35L89.45,12.06L93.03,12.02L94.22,12.31L97.8,12.05L98.99,11.61L100.19,12.5L101.38,12.2L103.76,12.82L104.96,12.49L113.31,13.35L114.5,12.49L116.88,13.66L118.08,13.35L128.81,14.06L130,13.73L132.39,14.66L133.58,14.08L138.35,14.81L139.55,14.22L140.74,14.96L141.93,14.29L143.12,14.32L144.32,15.32L145.51,14.51L146.7,14.81L149.09,14.64L150.28,15.15L151.47,14.3L152.67,14.48L156.24,14.43L157.44,14.72L163.4,15.27L164.59,15.56L165.79,14.74L166.98,14.89L169.36,14.73L170.56,15.08L171.75,14.73L172.94,15.2L177.71,15.1L178.91,15.44L182.48,14.91L183.68,14.62L186.06,15.1L187.25,14.55L188.45,15.35L189.64,14.78L190.83,15.58L192.03,15.01L199.18,14.93L200.37,15.16L202.76,14.67L203.95,15.37L205.15,15.77L206.34,15.14L208.72,14.89L209.92,15L213.49,15.1L214.69,15.46L219.46,15.44L220.65,14.39L224.23,14.73L225.42,14.62L229,15.39" style="vector-effect: none; fill: none; stroke: rgb(80, 162, 80); stroke-opacity: 1; stroke-width: 1.5px; opacity: 1;"/></g><g class="points"/><g class="text"/></g></g></g></g><path class="xlines-above crisp" d="M40.5,257.25H270.5M40.5,29.75H270.5" style="fill: none; stroke-width: 0.5px; stroke: rgb(0, 0, 0); stroke-opacity: 1;"/><path class="ylines-above crisp" d="M40.75,30V257M270.25,30V257" style="fill: none; stroke-width: 0.5px; stroke: rgb(0, 0, 0); stroke-opacity: 1;"/><g class="overlines-above"/><g class="xaxislayer-above"><path class="xtick ticks crisp" d="M0,257v-5" transform="translate(88.7,0)" style="stroke: rgb(0, 0, 0); stroke-opacity: 1; stroke-width: 0.5px;"/><path class="xtick ticks crisp" d="M0,257v-5" transform="translate(136.41,0)" style="stroke: rgb(0, 0, 0); stroke-opacity: 1; stroke-width: 0.5px;"/><path class="xtick ticks crisp" d="M0,257v-5" transform="translate(184.12,0)" style="stroke: rgb(0, 0, 0); stroke-opacity: 1; stroke-width: 0.5px;"/><path class="xtick ticks crisp" d="M0,257v-5" transform="translate(231.82,0)" style="stroke: rgb(0, 0, 0); stroke-opacity: 1; stroke-width: 0.5px;"/><g class="xtick"><text text-anchor="middle" x="0" y="274.3" transform="translate(40.99,0)" style="font-family: 'Open Sans', verdana, arial, sans-serif; font-size: 14px; fill: rgb(0, 0, 0); fill-opacity: 1; white-space: pre; opacity: 1;">0</text></g><g class="xtick"><text text-anchor="middle" x="0" y="274.3" style="font-family: 'Open Sans', verdana, arial, sans-serif; font-size: 14px; fill: rgb(0, 0, 0); fill-opacity: 1; white-space: pre; opacity: 1;" transform="translate(88.7,0)">10</text></g><g class="xtick"><text text-anchor="middle" x="0" y="274.3" style="font-family: 'Open Sans', verdana, arial, sans-serif; font-size: 14px; fill: rgb(0, 0, 0); fill-opacity: 1; white-space: pre; opacity: 1;" transform="translate(136.41,0)">20</text></g><g class="xtick"><text text-anchor="middle" x="0" y="274.3" style="font-family: 'Open Sans', verdana, arial, sans-serif; font-size: 14px; fill: rgb(0, 0, 0); fill-opacity: 1; white-space: pre; opacity: 1;" transform="translate(184.12,0)">30</text></g><g class="xtick"><text text-anchor="middle" x="0" y="274.3" style="font-family: 'Open Sans', verdana, arial, sans-serif; font-size: 14px; fill: rgb(0, 0, 0); fill-opacity: 1; white-space: pre; opacity: 1;" transform="translate(231.82,0)">40</text></g></g><g class="yaxislayer-above"><path class="ytick ticks crisp" d="M41,0h5" transform="translate(0,245.93)" style="stroke: rgb(0, 0, 0); stroke-opacity: 1; stroke-width: 0.5px;"/><path class="ytick ticks crisp" d="M41,0h5" transform="translate(0,179.28)" style="stroke: rgb(0, 0, 0); stroke-opacity: 1; stroke-width: 0.5px;"/><path class="ytick ticks crisp" d="M41,0h5" transform="translate(0,112.62)" style="stroke: rgb(0, 0, 0); stroke-opacity: 1; stroke-width: 0.5px;"/><path class="ytick ticks crisp" d="M41,0h5" transform="translate(0,45.96)" style="stroke: rgb(0, 0, 0); stroke-opacity: 1; stroke-width: 0.5px;"/><g class="ytick"><text text-anchor="end" x="37.7" y="4.8999999999999995" transform="translate(0,245.93)" style="font-family: 'Open Sans', verdana, arial, sans-serif; font-size: 14px; fill: rgb(0, 0, 0); fill-opacity: 1; white-space: pre; opacity: 1;">−6</text></g><g class="ytick"><text text-anchor="end" x="37.7" y="4.8999999999999995" style="font-family: 'Open Sans', verdana, arial, sans-serif; font-size: 14px; fill: rgb(0, 0, 0); fill-opacity: 1; white-space: pre; opacity: 1;" transform="translate(0,179.28)">−4</text></g><g class="ytick"><text text-anchor="end" x="37.7" y="4.8999999999999995" style="font-family: 'Open Sans', verdana, arial, sans-serif; font-size: 14px; fill: rgb(0, 0, 0); fill-opacity: 1; white-space: pre; opacity: 1;" transform="translate(0,112.62)">−2</text></g><g class="ytick"><text text-anchor="end" x="37.7" y="4.8999999999999995" style="font-family: 'Open Sans', verdana, arial, sans-serif; font-size: 14px; fill: rgb(0, 0, 0); fill-opacity: 1; white-space: pre; opacity: 1;" transform="translate(0,45.96)">0</text></g></g><g class="overaxes-above"/></g></g><g class="polarlayer"/><g class="smithlayer"/><g class="ternarylayer"/><g class="geolayer"/><g class="funnelarealayer"/><g class="pielayer"/><g class="iciclelayer"/><g class="treemaplayer"/><g class="sunburstlayer"/><g class="glimages"/><defs id="topdefs-0fb4b2"><g class="clips"/></defs><g class="layer-above"><g class="imagelayer"/><g class="shapelayer"/></g><g class="infolayer"><g class="g-gtitle"/><g class="g-xtitle" transform="translate(0,5.449999999999989)"><text class="xtitle" x="155.5" y="287.8625" text-anchor="middle" style="opacity: 1; font-family: 'Open Sans', verdana, arial, sans-serif; font-size: 14px; fill: rgb(0, 0, 0); fill-opacity: 1; white-space: pre;">Time [h]</text></g><g class="g-ytitle"><text class="ytitle" transform="rotate(-90,17.0375,143.5)" x="17.0375" y="143.5" text-anchor="middle" style="opacity: 1; font-family: 'Open Sans', verdana, arial, sans-serif; font-size: 14px; fill: rgb(0, 0, 0); fill-opacity: 1; white-space: pre;">OD</text></g></g></svg>