<svg class="main-svg" xmlns="http://www.w3.org/2000/svg" xmlns:xlink="http://www.w3.org/1999/xlink" width="300" height="300" style="" viewBox="0 0 300 300"><rect x="0" y="0" width="300" height="300" style="fill: rgb(255, 255, 255); fill-opacity: 1;"/><defs id="defs-c36ad0"><g class="clips"><clipPath id="clipc36ad0xyplot" class="plotclip"><rect width="226" height="234"/></clipPath><clipPath class="axesclip" id="clipc36ad0x"><rect x="44" y="0" width="226" height="300"/></clipPath><clipPath class="axesclip" id="clipc36ad0y"><rect x="0" y="30" width="300" height="234"/></clipPath><clipPath class="axesclip" id="clipc36ad0xy"><rect x="44" y="30" width="226" height="234"/></clipPath></g><g class="gradients"/><g class="patterns"/></defs><g class="bglayer"/><g class="layer-below"><g class="imagelayer"/><g class="shapelayer"/></g><g class="cartesianlayer"><g class="subplot xy"><g class="layer-subplot"><g class="shapelayer"/><g class="imagelayer"/></g><g class="minor-gridlayer"><g class="x"/><g class="y"/></g><g class="gridlayer"><g class="x"><path class="xgrid crisp" transform="translate(82.17,0)" d="M0,30v234" style="stroke: rgb(128, 128, 128); stroke-opacity: 1; stroke-width: 0.2px;"/><path class="xgrid crisp" transform="translate(145.84,0)" d="M0,30v234" style="stroke: rgb(128, 128, 128); stroke-opacity: 1; stroke-width: 0.2px;"/><path class="xgrid crisp" transform="translate(209.5,0)" d="M0,30v234" style="stroke: rgb(128, 128, 128); stroke-opacity: 1; stroke-width: 0.2px;"/></g><g class="y"><path class="ygrid crisp" transform="translate(0,247.33)" d="M44,0h226" style="stroke: rgb(128, 128, 128); stroke-opacity: 1; stroke-width: 0.2px;"/><path class="ygrid crisp" transform="translate(0,217.04)" d="M44,0h226" style="stroke: rgb(128, 128, 128); stroke-opacity: 1; stroke-width: 0.2px;"/><path class="ygrid crisp" transform="translate(0,186.74)" d="M44,0h226" style="stroke: rgb(128, 128, 128); stroke-opacity: 1; stroke-width: 0.2px;"/><path class="ygrid crisp" transform="translate(0,146.69)" d="M44,0h226" style="stroke: rgb(128, 128, 128); stroke-opacity: 1; stroke-width: 0.2px;"/><path class="ygrid crisp" transform="translate(0,116.39)" d="M44,0h226" style="stroke: rgb(128, 128, 128); stroke-opacity: 1; stroke-width: 0.2px;"/><path class="ygrid crisp" transform="translate(0,86.1)" d="M44,0h226" style="stroke: rgb(128, 128, 128); stroke-opacity: 1; stroke-width: 0.2px;"/><path class="ygrid crisp" transform="translate(0,46.05)" d="M44,0h226" style="stroke: rgb(128, 128, 128); stroke-opacity: 1; stroke-width: 0.2px;"/></g></g><g class="zerolinelayer"/><g class="layer-between"><g class="shapelayer"/><g class="imagelayer"/></g><path class="xlines-below"/><path class="ylines-below"/><g class="overlines-below"/><g class="xaxislayer-below"/><g class="yaxislayer-below"/><g class="overaxes-below"/><g class="overplot"><g class="xy" transform="translate(44,30)" clip-path="url(#clipc36ad0xyplot)"><g class="scatterlayer mlayer"><g class="trace scatter trace012437" style="stroke-miterlimit: 2; opacity: 1;"><g class="fills"><g><path class="js-fill" d="M0,218.48L9.55,157.52L12.73,142.88L22.28,98.41L25.46,90.91L35.01,66.24L38.2,62.7L41.38,59.8L44.56,55.07L47.75,52.58L50.93,47.15L60.48,34.58L63.66,32.98L73.21,24.78L76.39,22.13L79.58,19.89L82.76,18.62L89.13,16.57L92.31,16.25L95.49,17.27L98.68,16.23L101.86,16.66L105.04,15.77L108.22,14.67L111.41,14.81L117.77,15.18L120.96,15.13L127.32,14.27L130.51,14.25L136.87,13.91L140.06,13.89L149.6,13.12L152.79,13.67L162.34,13.58L165.52,12.29L175.07,12.77L178.25,12.46L184.62,12.92L187.8,12.75L190.99,11.7L194.17,12.53L210.08,12.62L213.27,13.37L222.82,13.22L226,13.94L226,15.98L222.82,15.59L206.9,14.42L203.72,15.17L178.25,14.33L175.07,14.72L165.52,14.52L162.34,15.84L149.6,16.01L146.42,14.63L143.24,15.93L140.06,16.1L127.32,16.75L124.14,16.69L114.59,17.57L111.41,17.15L105.04,17.88L101.86,18.49L95.49,19.39L92.31,21.43L89.13,22.03L85.94,24.18L79.58,26.37L76.39,29.09L66.85,36.48L63.66,40.97L54.11,52.26L50.93,55.62L47.75,66.82L44.56,69.44L41.38,76.68L38.2,87.91L35.01,97.52L31.83,111.32L25.46,131.81L22.28,142.74L15.92,174.75L12.73,182.84L9.55,197.06L6.37,203.54L3.18,222.3L0,222.3Z" style="fill: rgb(211, 211, 211); fill-opacity: 1; stroke-width: 0;"/></g></g><g class="errorbars"/><g class="lines"><path class="js-line" d="M0,218.48L9.55,157.52L12.73,142.88L22.28,98.41L25.46,90.91L35.01,66.24L38.2,62.7L41.38,59.8L44.56,55.07L47.75,52.58L50.93,47.15L60.48,34.58L63.66,32.98L73.21,24.78L76.39,22.13L79.58,19.89L82.76,18.62L89.13,16.57L92.31,16.25L95.49,17.27L98.68,16.23L101.86,16.66L105.04,15.77L108.22,14.67L111.41,14.81L117.77,15.18L120.96,15.13L127.32,14.27L130.51,14.25L136.87,13.91L140.06,13.89L149.6,13.12L152.79,13.67L162.34,13.58L165.52,12.29L175.07,12.77L178.25,12.46L184.62,12.92L187.8,12.75L190.99,11.7L194.17,12.53L210.08,12.62L213.27,13.37L222.82,13.22L226,13.94L226,15.98L222.82,15.59L206.9,14.42L203.72,15.17L178.25,14.33L175.07,14.72L165.52,14.52L162.34,15.84L149.6,16.01L146.42,14.63L143.24,15.93L140.06,16.1L127.32,16.75L124.14,16.69L114.59,17.57L111.41,17.15L105.04,17.88L101.86,18.49L95.49,19.39L92.31,21.43L89.13,22.03L85.94,24.18L79.58,26.37L76.39,29.09L66.85,36.48L63.66,40.97L54.11,52.26L50.93,55.62L47.75,66.82L44.56,69.44L41.38,76.68L38.2,87.91L35.01,97.52L31.83,111.32L25.46,131.81L22.28,142.74L15.92,174.75L12.73,182.84L9.55,197.06L6.37,203.54L3.18,222.3L0,222.3" style="vector-effect: none; fill: none; stroke: rgb(211, 211, 211); stroke-opacity: 1; stroke-width: 1px; opacity: 1;"/></g><g class="points"/><g class="text"/></g><g class="trace scatter trace411f8b" style="stroke-miterlimit: 2; opacity: 1;"><g class="fills"/><g class="errorbars"/><g class="lines"><path class="js-line" d="M0,220.36L3.18,208.41L6.37,187.92L22.28,115.2L25.46,106.68L35.01,79.11L38.2,73.43L44.56,61.55L47.75,59.14L50.93,51.17L54.11,47.3L57.3,43.99L60.48,39.29L63.66,36.75L66.85,33.07L73.21,28.1L76.39,25.42L79.58,22.95L82.76,21.91L92.31,18.78L95.49,18.33L108.22,15.96L111.41,15.94L117.77,16.15L120.96,16.08L127.32,15.49L130.51,15.34L146.42,13.94L149.6,14.52L159.15,14.71L162.34,14.69L165.52,13.39L168.7,13.33L171.89,13.94L175.07,13.74L181.44,13.42L184.62,13.61L187.8,13.73L190.99,13.06L197.35,13.5L200.53,13.57L203.72,13.89L206.9,13.39L226,14.93" style="vector-effect: none; fill: none; stroke: rgb(79, 79, 79); stroke-opacity: 1; stroke-width: 1px; opacity: 1;"/></g><g class="points"/><g class="text"/></g><g class="trace scatter trace5bac9d" style="stroke-miterlimit: 2; opacity: 1;"><g class="fills"/><g class="errorbars"/><g class="lines"><path class="js-line" d="M0,220.36L44.56,21.49" style="vector-effect: none; fill: none; stroke: rgb(79, 79, 79); stroke-opacity: 1; stroke-dasharray: 3px, 3px; stroke-width: 1px; opacity: 1;"/></g><g class="points"/><g class="text"/></g></g></g></g><g class="zerolinelayer-above"/><path class="xlines-above crisp" d="M43.5,264.25H270.5M43.5,29.75H270.5" style="fill: none; stroke-width: 0.5px; stroke: rgb(0, 0, 0); stroke-opacity: 1;"/><path class="ylines-above crisp" d="M43.75,30V264M270.25,30V264" style="fill: none; stroke-width: 0.5px; stroke: rgb(0, 0, 0); stroke-opacity: 1;"/><g class="overlines-above"/><g class="xaxislayer-above"><path class="xtick ticks crisp" d="M0,264v-5" transform="translate(82.17,0)" style="stroke: rgb(0, 0, 0); stroke-opacity: 1; stroke-width: 0.5px;"/><path class="xtick ticks crisp" d="M0,264v-5" transform="translate(145.84,0)" style="stroke: rgb(0, 0, 0); stroke-opacity: 1; stroke-width: 0.5px;"/><path class="xtick ticks crisp" d="M0,264v-5" transform="translate(209.5,0)" style="stroke: rgb(0, 0, 0); stroke-opacity: 1; stroke-width: 0.5px;"/><g class="xtick"><text text-anchor="middle" x="0" y="277.7" transform="translate(82.17,0)" style="font-family: 'Open Sans', verdana, arial, sans-serif; font-size: 11px; fill: rgb(0, 0, 0); fill-opacity: 1; white-space: pre;">5</text></g><g class="xtick"><text text-anchor="middle" x="0" y="277.7" style="font-family: 'Open Sans', verdana, arial, sans-serif; font-size: 11px; fill: rgb(0, 0, 0); fill-opacity: 1; white-space: pre;" transform="translate(145.84,0)">10</text></g><g class="xtick"><text text-anchor="middle" x="0" y="277.7" style="font-family: 'Open Sans', verdana, arial, sans-serif; font-size: 11px; fill: rgb(0, 0, 0); fill-opacity: 1; white-space: pre;" transform="translate(209.5,0)">15</text></g></g><g class="yaxislayer-above"><path class="ytick ticks crisp" d="M44,0h5" transform="translate(0,247.33)" style="stroke: rgb(0, 0, 0); stroke-opacity: 1; stroke-width: 0.5px;"/><path class="ytick ticks crisp" d="M44,0h5" transform="translate(0,217.04)" style="stroke: rgb(0, 0, 0); stroke-opacity: 1; stroke-width: 0.5px;"/><path class="ytick ticks crisp" d="M44,0h5" transform="translate(0,186.74)" style="stroke: rgb(0, 0, 0); stroke-opacity: 1; stroke-width: 0.5px;"/><path class="ytick ticks crisp" d="M44,0h5" transform="translate(0,146.69)" style="stroke: rgb(0, 0, 0); stroke-opacity: 1; stroke-width: 0.5px;"/><path class="ytick ticks crisp" d="M44,0h5" transform="translate(0,116.39)" style="stroke: rgb(0, 0, 0); stroke-opacity: 1; stroke-width: 0.5px;"/><path class="ytick ticks crisp" d="M44,0h5" transform="translate(0,86.1)" style="stroke: rgb(0, 0, 0); stroke-opacity: 1; stroke-width: 0.5px;"/><path class="ytick ticks crisp" d="M44,0h5" transform="translate(0,46.05)" style="stroke: rgb(0, 0, 0); stroke-opacity: 1; stroke-width: 0.5px;"/><g class="ytick"><text text-anchor="end" x="41.3" y="2.8874999999999997" transform="translate(0,247.33)" style="font-family: 'Open Sans', verdana, arial, sans-serif; font-size: 8.25px; fill: rgb(0, 0, 0); fill-opacity: 1; white-space: pre;">5</text></g><g class="ytick"><text text-anchor="end" x="41.3" y="3.8499999999999996" style="font-family: 'Open Sans', verdana, arial, sans-serif; font-size: 11px; fill: rgb(0, 0, 0); fill-opacity: 1; white-space: pre;" transform="translate(0,217.04)">0.01</text></g><g class="ytick"><text text-anchor="end" x="41.3" y="2.8874999999999997" style="font-family: 'Open Sans', verdana, arial, sans-serif; font-size: 8.25px; fill: rgb(0, 0, 0); fill-opacity: 1; white-space: pre;" transform="translate(0,186.74)">2</text></g><g class="ytick"><text text-anchor="end" x="41.3" y="2.8874999999999997" style="font-family: 'Open Sans', verdana, arial, sans-serif; font-size: 8.25px; fill: rgb(0, 0, 0); fill-opacity: 1; white-space: pre;" transform="translate(0,146.69)">5</text></g><g class="ytick"><text text-anchor="end" x="41.3" y="3.8499999999999996" style="font-family: 'Open Sans', verdana, arial, sans-serif; font-size: 11px; fill: rgb(0, 0, 0); fill-opacity: 1; white-space: pre;" transform="translate(0,116.39)">0.1</text></g><g class="ytick"><text text-anchor="end" x="41.3" y="2.8874999999999997" style="font-family: 'Open Sans', verdana, arial, sans-serif; font-size: 8.25px; fill: rgb(0, 0, 0); fill-opacity: 1; white-space: pre;" transform="translate(0,86.1)">2</text></g><g class="ytick"><text text-anchor="end" x="41.3" y="2.8874999999999997" style="font-family: 'Open Sans', verdana, arial, sans-serif; font-size: 8.25px; fill: rgb(0, 0, 0); fill-opacity: 1; white-space: pre;" transform="translate(0,46.05)">5</text></g></g><g class="overaxes-above"/></g></g><g class="polarlayer"/><g class="smithlayer"/><g class="ternarylayer"/><g class="geolayer"/><g class="funnelarealayer"/><g class="pielayer"/><g class="iciclelayer"/><g class="treemaplayer"/><g class="sunburstlayer"/><g class="glimages"/><defs id="topdefs-c36ad0"><g class="clips"/></defs><g class="layer-above"><g class="imagelayer"/><g class="shapelayer"/></g><g class="infolayer"><g class="g-gtitle"><text class="gtitle" x="15" y="15" text-anchor="start" dy="0em" style="opacity: 1; font-family: 'Open Sans', verdana, arial, sans-serif; font-size: 11px; fill: rgb(0, 0, 0); fill-opacity: 1; white-space: pre;">EcN 25% CFA medium</text></g><g class="g-xtitle" transform="translate(0,4.550000000000011)"><text class="xtitle" x="157" y="288.1501953125" text-anchor="middle" style="opacity: 1; font-family: 'Open Sans', verdana, arial, sans-serif; font-size: 11px; fill: rgb(0, 0, 0); fill-opacity: 1; white-space: pre;">Time [h]</text></g><g class="g-ytitle"><text class="ytitle" transform="rotate(-90,15.902929687499999,147)" x="15.902929687499999" y="147" text-anchor="middle" style="opacity: 1; font-family: 'Open Sans', verdana, arial, sans-serif; font-size: 11px; fill: rgb(0, 0, 0); fill-opacity: 1; white-space: pre;">OD</text></g><g class="annotation" data-index="0" style="opacity: 1;"><g class="annotation-text-g" transform="rotate(0,145.84,176.22)"><g class="cursor-pointer" transform="translate(117,167)"><rect class="bg" x="0.5" y="0.5" width="57" height="18" style="stroke-width: 1px; stroke: rgb(0, 0, 0); stroke-opacity: 0; fill: rgb(0, 0, 0); fill-opacity: 0;"/><text class="annotation-text" text-anchor="middle" x="29.171875" y="14" style="font-family: 'Open Sans', verdana, arial, sans-serif; font-size: 11px; fill: rgb(0, 0, 0); fill-opacity: 1; white-space: pre;">µ: 1.30 1/h</text></g></g></g></g></svg>