<svg class="main-svg" xmlns="http://www.w3.org/2000/svg" xmlns:xlink="http://www.w3.org/1999/xlink" width="180" height="180" style="" viewBox="0 0 180 180"><rect x="0" y="0" width="180" height="180" style="fill: rgb(255, 255, 255); fill-opacity: 1;"/><defs id="defs-79ad6b"><g class="clips"><clipPath id="clip79ad6bxyplot" class="plotclip"><rect width="112" height="114"/></clipPath><clipPath class="axesclip" id="clip79ad6bx"><rect x="38" y="0" width="112" height="180"/></clipPath><clipPath class="axesclip" id="clip79ad6by"><rect x="0" y="30" width="180" height="114"/></clipPath><clipPath class="axesclip" id="clip79ad6bxy"><rect x="38" y="30" width="112" height="114"/></clipPath></g><g class="gradients"/><g class="patterns"/></defs><g class="bglayer"/><g class="layer-below"><g class="imagelayer"/><g class="shapelayer"/></g><g class="cartesianlayer"><g class="subplot xy"><g class="layer-subplot"><g class="shapelayer"/><g class="imagelayer"/></g><g class="minor-gridlayer"><g class="x"/><g class="y"/></g><g class="gridlayer"><g class="x"><path class="xgrid crisp" transform="translate(56.92,0)" d="M0,30v114" style="stroke: rgb(128, 128, 128); stroke-opacity: 1; stroke-width: 0.2px;"/><path class="xgrid crisp" transform="translate(88.47,0)" d="M0,30v114" style="stroke: rgb(128, 128, 128); stroke-opacity: 1; stroke-width: 0.2px;"/><path class="xgrid crisp" transform="translate(120.02,0)" d="M0,30v114" style="stroke: rgb(128, 128, 128); stroke-opacity: 1; stroke-width: 0.2px;"/></g><g class="y"><path class="ygrid crisp" transform="translate(0,136.38)" d="M38,0h112" style="stroke: rgb(128, 128, 128); stroke-opacity: 1; stroke-width: 0.2px;"/><path class="ygrid crisp" transform="translate(0,113.62)" d="M38,0h112" style="stroke: rgb(128, 128, 128); stroke-opacity: 1; stroke-width: 0.2px;"/><path class="ygrid crisp" transform="translate(0,96.4)" d="M38,0h112" style="stroke: rgb(128, 128, 128); stroke-opacity: 1; stroke-width: 0.2px;"/><path class="ygrid crisp" transform="translate(0,79.18)" d="M38,0h112" style="stroke: rgb(128, 128, 128); stroke-opacity: 1; stroke-width: 0.2px;"/><path class="ygrid crisp" transform="translate(0,56.42)" d="M38,0h112" style="stroke: rgb(128, 128, 128); stroke-opacity: 1; stroke-width: 0.2px;"/><path class="ygrid crisp" transform="translate(0,39.2)" d="M38,0h112" style="stroke: rgb(128, 128, 128); stroke-opacity: 1; stroke-width: 0.2px;"/></g></g><g class="zerolinelayer"/><g class="layer-between"><g class="shapelayer"/><g class="imagelayer"/></g><path class="xlines-below"/><path class="ylines-below"/><g class="overlines-below"/><g class="xaxislayer-below"/><g class="yaxislayer-below"/><g class="overaxes-below"/><g class="overplot"><g class="xy" transform="translate(38,30)" clip-path="url(#clip79ad6bxyplot)"><g class="scatterlayer mlayer"><g class="trace scatter trace2f7581" style="stroke-miterlimit: 2; opacity: 1;"><g class="fills"><g><path class="js-fill" d="M0,93.78L4.73,61.61L6.31,56.14L11.04,39.51L12.62,35.67L17.35,26.76L18.93,25.48L23.66,21.47L25.24,20.97L28.39,18.5L29.97,18.2L34.7,16.74L36.28,15.38L37.86,15.5L39.44,14.57L42.59,14.14L44.17,13.33L70.99,8.57L72.56,8.42L85.18,7.12L86.76,7.25L91.49,6.65L93.07,6.63L110.42,5.89L112,6.15L112,6.68L110.42,6.57L99.38,7.13L97.8,7.12L83.61,8.73L82.03,8.88L72.56,9.63L70.99,10L61.52,10.91L59.94,11.47L47.32,13.55L45.75,14.41L41.01,16.27L39.44,16.43L34.7,18.08L33.13,18.23L22.08,24.3L20.51,25.79L17.35,30.46L15.77,33.86L12.62,40.72L11.04,45.1L4.73,68.78L3.15,78.72L0,104.54Z" style="fill: rgb(211, 211, 211); fill-opacity: 1; stroke-width: 0;"/></g></g><g class="errorbars"/><g class="lines"><path class="js-line" d="M0,93.78L4.73,61.61L6.31,56.14L11.04,39.51L12.62,35.67L17.35,26.76L18.93,25.48L23.66,21.47L25.24,20.97L28.39,18.5L29.97,18.2L34.7,16.74L36.28,15.38L37.86,15.5L39.44,14.57L42.59,14.14L44.17,13.33L70.99,8.57L72.56,8.42L85.18,7.12L86.76,7.25L91.49,6.65L93.07,6.63L110.42,5.89L112,6.15L112,6.68L110.42,6.57L99.38,7.13L97.8,7.12L83.61,8.73L82.03,8.88L72.56,9.63L70.99,10L61.52,10.91L59.94,11.47L47.32,13.55L45.75,14.41L41.01,16.27L39.44,16.43L34.7,18.08L33.13,18.23L22.08,24.3L20.51,25.79L17.35,30.46L15.77,33.86L12.62,40.72L11.04,45.1L4.73,68.78L3.15,78.72L0,104.54" style="vector-effect: none; fill: none; stroke: rgb(211, 211, 211); stroke-opacity: 1; stroke-width: 1.7px; opacity: 1;"/></g><g class="points"/><g class="text"/></g><g class="trace scatter tracefc7f78" style="stroke-miterlimit: 2; opacity: 1;"><g class="fills"/><g class="errorbars"/><g class="lines"><path class="js-line" d="M0,98.52L4.73,64.87L6.31,58.86L12.62,38.03L14.2,34.57L18.93,26.53L20.51,24.91L23.66,22.37L25.24,21.9L28.39,19.5L29.97,19.05L47.32,12.94L48.9,12.8L80.45,8.05L82.03,8.02L110.42,6.22L112,6.41" style="vector-effect: none; fill: none; stroke: rgb(79, 79, 79); stroke-opacity: 1; stroke-width: 1.7px; opacity: 1;"/></g><g class="points"/><g class="text"/></g><g class="trace scatter tracebd6672" style="stroke-miterlimit: 2; opacity: 1;"><g class="fills"/><g class="errorbars"/><g class="lines"><path class="js-line" d="M0,98.52L12.62,9.09" style="vector-effect: none; fill: none; stroke: rgb(0, 0, 0); stroke-opacity: 1; stroke-dasharray: 3px, 3px; stroke-width: 1.7px; opacity: 1;"/></g><g class="points"/><g class="text"/></g></g></g></g><g class="zerolinelayer-above"/><path class="xlines-above crisp" d="M37.5,144.25H150.5M37.5,29.75H150.5" style="fill: none; stroke-width: 0.5px; stroke: rgb(0, 0, 0); stroke-opacity: 1;"/><path class="ylines-above crisp" d="M37.75,30V144M150.25,30V144" style="fill: none; stroke-width: 0.5px; stroke: rgb(0, 0, 0); stroke-opacity: 1;"/><g class="overlines-above"/><g class="xaxislayer-above"><path class="xtick ticks crisp" d="M0,144v-5" transform="translate(56.92,0)" style="stroke: rgb(0, 0, 0); stroke-opacity: 1; stroke-width: 0.5px;"/><path class="xtick ticks crisp" d="M0,144v-5" transform="translate(88.47,0)" style="stroke: rgb(0, 0, 0); stroke-opacity: 1; stroke-width: 0.5px;"/><path class="xtick ticks crisp" d="M0,144v-5" transform="translate(120.02,0)" style="stroke: rgb(0, 0, 0); stroke-opacity: 1; stroke-width: 0.5px;"/><g class="xtick"><text text-anchor="middle" x="0" y="157.7" transform="translate(56.92,0)" style="font-family: 'Open Sans', verdana, arial, sans-serif; font-size: 11px; fill: rgb(0, 0, 0); fill-opacity: 1; white-space: pre;">5</text></g><g class="xtick"><text text-anchor="middle" x="0" y="157.7" style="font-family: 'Open Sans', verdana, arial, sans-serif; font-size: 11px; fill: rgb(0, 0, 0); fill-opacity: 1; white-space: pre;" transform="translate(88.47,0)">10</text></g><g class="xtick"><text text-anchor="middle" x="0" y="157.7" style="font-family: 'Open Sans', verdana, arial, sans-serif; font-size: 11px; fill: rgb(0, 0, 0); fill-opacity: 1; white-space: pre;" transform="translate(120.02,0)">15</text></g></g><g class="yaxislayer-above"><path class="ytick ticks crisp" d="M38,0h5" transform="translate(0,136.38)" style="stroke: rgb(0, 0, 0); stroke-opacity: 1; stroke-width: 0.5px;"/><path class="ytick ticks crisp" d="M38,0h5" transform="translate(0,113.62)" style="stroke: rgb(0, 0, 0); stroke-opacity: 1; stroke-width: 0.5px;"/><path class="ytick ticks crisp" d="M38,0h5" transform="translate(0,96.4)" style="stroke: rgb(0, 0, 0); stroke-opacity: 1; stroke-width: 0.5px;"/><path class="ytick ticks crisp" d="M38,0h5" transform="translate(0,79.18)" style="stroke: rgb(0, 0, 0); stroke-opacity: 1; stroke-width: 0.5px;"/><path class="ytick ticks crisp" d="M38,0h5" transform="translate(0,56.42)" style="stroke: rgb(0, 0, 0); stroke-opacity: 1; stroke-width: 0.5px;"/><path class="ytick ticks crisp" d="M38,0h5" transform="translate(0,39.2)" style="stroke: rgb(0, 0, 0); stroke-opacity: 1; stroke-width: 0.5px;"/><g class="ytick"><text text-anchor="end" x="35.3" y="2.8874999999999997" transform="translate(0,136.38)" style="font-family: 'Open Sans', verdana, arial, sans-serif; font-size: 8.25px; fill: rgb(0, 0, 0); fill-opacity: 1; white-space: pre;">2</text></g><g class="ytick"><text text-anchor="end" x="35.3" y="2.8874999999999997" style="font-family: 'Open Sans', verdana, arial, sans-serif; font-size: 8.25px; fill: rgb(0, 0, 0); fill-opacity: 1; white-space: pre;" transform="translate(0,113.62)">5</text></g><g class="ytick"><text text-anchor="end" x="35.3" y="3.8499999999999996" style="font-family: 'Open Sans', verdana, arial, sans-serif; font-size: 11px; fill: rgb(0, 0, 0); fill-opacity: 1; white-space: pre;" transform="translate(0,96.4)">0.1</text></g><g class="ytick"><text text-anchor="end" x="35.3" y="2.8874999999999997" style="font-family: 'Open Sans', verdana, arial, sans-serif; font-size: 8.25px; fill: rgb(0, 0, 0); fill-opacity: 1; white-space: pre;" transform="translate(0,79.18)">2</text></g><g class="ytick"><text text-anchor="end" x="35.3" y="2.8874999999999997" style="font-family: 'Open Sans', verdana, arial, sans-serif; font-size: 8.25px; fill: rgb(0, 0, 0); fill-opacity: 1; white-space: pre;" transform="translate(0,56.42)">5</text></g><g class="ytick"><text text-anchor="end" x="35.3" y="3.8499999999999996" style="font-family: 'Open Sans', verdana, arial, sans-serif; font-size: 11px; fill: rgb(0, 0, 0); fill-opacity: 1; white-space: pre;" transform="translate(0,39.2)">1</text></g></g><g class="overaxes-above"/></g></g><g class="polarlayer"/><g class="smithlayer"/><g class="ternarylayer"/><g class="geolayer"/><g class="funnelarealayer"/><g class="pielayer"/><g class="iciclelayer"/><g class="treemaplayer"/><g class="sunburstlayer"/><g class="glimages"/><defs id="topdefs-79ad6b"><g class="clips"/></defs><g class="layer-above"><g class="imagelayer"/><g class="shapelayer"/></g><g class="infolayer"><g class="g-gtitle"><text class="gtitle" x="9" y="15" text-anchor="start" dy="0em" style="opacity: 1; font-family: 'Open Sans', verdana, arial, sans-serif; font-size: 11px; fill: rgb(0, 0, 0); fill-opacity: 1; white-space: pre;">EcN 100% CFA medium</text></g><g class="g-xtitle" transform="translate(0,4.550000000000011)"><text class="xtitle" x="94" y="168.1501953125" text-anchor="middle" style="opacity: 1; font-family: 'Open Sans', verdana, arial, sans-serif; font-size: 11px; fill: rgb(0, 0, 0); fill-opacity: 1; white-space: pre;">Time [h]</text></g><g class="g-ytitle"><text class="ytitle" transform="rotate(-90,16.1841796875,87)" x="16.1841796875" y="87" text-anchor="middle" style="opacity: 1; font-family: 'Open Sans', verdana, arial, sans-serif; font-size: 11px; fill: rgb(0, 0, 0); fill-opacity: 1; white-space: pre;">OD</text></g><g class="annotation" data-index="0" style="opacity: 1;"><g class="annotation-text-g" transform="rotate(0,88.47,134.5)"><g class="cursor-pointer" transform="translate(59,125)"><rect class="bg" x="0.5" y="0.5" width="57" height="18" style="stroke-width: 1px; stroke: rgb(0, 0, 0); stroke-opacity: 0; fill: rgb(0, 0, 0); fill-opacity: 0;"/><text class="annotation-text" text-anchor="middle" x="29.171875" y="14" style="font-family: 'Open Sans', verdana, arial, sans-serif; font-size: 11px; fill: rgb(0, 0, 0); fill-opacity: 1; white-space: pre;">µ: 1.80 1/h</text></g></g></g></g></svg>