<svg class="main-svg" xmlns="http://www.w3.org/2000/svg" xmlns:xlink="http://www.w3.org/1999/xlink" width="150" height="150" style="" viewBox="0 0 150 150"><rect x="0" y="0" width="150" height="150" style="fill: rgb(255, 255, 255); fill-opacity: 1;"/><defs id="defs-16cbb1"><g class="clips"><clipPath id="clip16cbb1xyplot" class="plotclip"><rect width="96" height="98"/></clipPath><clipPath class="axesclip" id="clip16cbb1x"><rect x="43" y="0" width="96" height="150"/></clipPath><clipPath class="axesclip" id="clip16cbb1y"><rect x="0" y="11" width="150" height="98"/></clipPath><clipPath class="axesclip" id="clip16cbb1xy"><rect x="43" y="11" width="96" height="98"/></clipPath></g><g class="gradients"/><g class="patterns"/></defs><g class="bglayer"/><g class="layer-below"><g class="imagelayer"/><g class="shapelayer"/></g><g class="cartesianlayer"><g class="subplot xy"><g class="layer-subplot"><g class="shapelayer"/><g class="imagelayer"/></g><g class="minor-gridlayer"><g class="x"/><g class="y"/></g><g class="gridlayer"><g class="x"><path class="xgrid crisp" transform="translate(50.92,0)" d="M0,11v98" style="stroke: rgb(128, 128, 128); stroke-opacity: 1; stroke-width: 0.2px;"/><path class="xgrid crisp" transform="translate(87.28999999999999,0)" d="M0,11v98" style="stroke: rgb(128, 128, 128); stroke-opacity: 1; stroke-width: 0.2px;"/><path class="xgrid crisp" transform="translate(123.65,0)" d="M0,11v98" style="stroke: rgb(128, 128, 128); stroke-opacity: 1; stroke-width: 0.2px;"/></g><g class="y"><path class="ygrid crisp" transform="translate(0,65.68)" d="M43,0h96" style="stroke: rgb(128, 128, 128); stroke-opacity: 1; stroke-width: 0.2px;"/><path class="ygrid crisp" transform="translate(0,18.64)" d="M43,0h96" style="stroke: rgb(128, 128, 128); stroke-opacity: 1; stroke-width: 0.2px;"/></g></g><g class="zerolinelayer"/><g class="layer-between"><g class="shapelayer"/><g class="imagelayer"/></g><path class="xlines-below"/><path class="ylines-below"/><g class="overlines-below"/><g class="xaxislayer-below"/><g class="yaxislayer-below"/><g class="overaxes-below"/><g class="overplot"><g class="xy" transform="translate(43,11)" clip-path="url(#clip16cbb1xyplot)"><g class="scatterlayer mlayer"><g class="trace scatter trace5a2331" style="stroke-miterlimit: 2; opacity: 1;"><g class="fills"/><g class="errorbars"/><g class="lines"/><g class="points"><path class="point" transform="translate(7.93,89.98)" d="M2.5,0A2.5,2.5 0 1,1 0,-2.5A2.5,2.5 0 0,1 2.5,0Z" style="opacity: 1; stroke-width: 0px; fill: rgb(222, 89, 89); fill-opacity: 1;"/><path class="point" transform="translate(18.87,69.34)" d="M2.5,0A2.5,2.5 0 1,1 0,-2.5A2.5,2.5 0 0,1 2.5,0Z" style="opacity: 1; stroke-width: 0px; fill: rgb(222, 89, 89); fill-opacity: 1;"/><path class="point" transform="translate(25.27,54.36)" d="M2.5,0A2.5,2.5 0 1,1 0,-2.5A2.5,2.5 0 0,1 2.5,0Z" style="opacity: 1; stroke-width: 0px; fill: rgb(222, 89, 89); fill-opacity: 1;"/><path class="point" transform="translate(29.82,56.14)" d="M2.5,0A2.5,2.5 0 1,1 0,-2.5A2.5,2.5 0 0,1 2.5,0Z" style="opacity: 1; stroke-width: 0px; fill: rgb(222, 89, 89); fill-opacity: 1;"/><path class="point" transform="translate(44.29,41.48)" d="M2.5,0A2.5,2.5 0 1,1 0,-2.5A2.5,2.5 0 0,1 2.5,0Z" style="opacity: 1; stroke-width: 0px; fill: rgb(222, 89, 89); fill-opacity: 1;"/><path class="point" transform="translate(55.24,40.74)" d="M2.5,0A2.5,2.5 0 1,1 0,-2.5A2.5,2.5 0 0,1 2.5,0Z" style="opacity: 1; stroke-width: 0px; fill: rgb(222, 89, 89); fill-opacity: 1;"/><path class="point" transform="translate(61.64,17.91)" d="M2.5,0A2.5,2.5 0 1,1 0,-2.5A2.5,2.5 0 0,1 2.5,0Z" style="opacity: 1; stroke-width: 0px; fill: rgb(222, 89, 89); fill-opacity: 1;"/><path class="point" transform="translate(66.18,17.7)" d="M2.5,0A2.5,2.5 0 1,1 0,-2.5A2.5,2.5 0 0,1 2.5,0Z" style="opacity: 1; stroke-width: 0px; fill: rgb(222, 89, 89); fill-opacity: 1;"/><path class="point" transform="translate(77.13,12.67)" d="M2.5,0A2.5,2.5 0 1,1 0,-2.5A2.5,2.5 0 0,1 2.5,0Z" style="opacity: 1; stroke-width: 0px; fill: rgb(222, 89, 89); fill-opacity: 1;"/><path class="point" transform="translate(88.08,9.11)" d="M2.5,0A2.5,2.5 0 1,1 0,-2.5A2.5,2.5 0 0,1 2.5,0Z" style="opacity: 1; stroke-width: 0px; fill: rgb(222, 89, 89); fill-opacity: 1;"/></g><g class="text"/></g><g class="trace scatter trace7dc7a6" style="stroke-miterlimit: 2; opacity: 1;"><g class="fills"/><g class="errorbars"/><g class="lines"/><g class="points"><path class="point" transform="translate(7.93,83.71)" d="M2.5,0A2.5,2.5 0 1,1 0,-2.5A2.5,2.5 0 0,1 2.5,0Z" style="opacity: 1; stroke-width: 0px; fill: rgb(222, 89, 89); fill-opacity: 1;"/><path class="point" transform="translate(18.87,71.54)" d="M2.5,0A2.5,2.5 0 1,1 0,-2.5A2.5,2.5 0 0,1 2.5,0Z" style="opacity: 1; stroke-width: 0px; fill: rgb(222, 89, 89); fill-opacity: 1;"/><path class="point" transform="translate(25.27,73.94)" d="M2.5,0A2.5,2.5 0 1,1 0,-2.5A2.5,2.5 0 0,1 2.5,0Z" style="opacity: 1; stroke-width: 0px; fill: rgb(222, 89, 89); fill-opacity: 1;"/><path class="point" transform="translate(29.82,61.14)" d="M2.5,0A2.5,2.5 0 1,1 0,-2.5A2.5,2.5 0 0,1 2.5,0Z" style="opacity: 1; stroke-width: 0px; fill: rgb(222, 89, 89); fill-opacity: 1;"/><path class="point" transform="translate(44.29,46.56)" d="M2.5,0A2.5,2.5 0 1,1 0,-2.5A2.5,2.5 0 0,1 2.5,0Z" style="opacity: 1; stroke-width: 0px; fill: rgb(222, 89, 89); fill-opacity: 1;"/><path class="point" transform="translate(55.24,34.52)" d="M2.5,0A2.5,2.5 0 1,1 0,-2.5A2.5,2.5 0 0,1 2.5,0Z" style="opacity: 1; stroke-width: 0px; fill: rgb(222, 89, 89); fill-opacity: 1;"/><path class="point" transform="translate(61.64,16.65)" d="M2.5,0A2.5,2.5 0 1,1 0,-2.5A2.5,2.5 0 0,1 2.5,0Z" style="opacity: 1; stroke-width: 0px; fill: rgb(222, 89, 89); fill-opacity: 1;"/><path class="point" transform="translate(66.18,18.17)" d="M2.5,0A2.5,2.5 0 1,1 0,-2.5A2.5,2.5 0 0,1 2.5,0Z" style="opacity: 1; stroke-width: 0px; fill: rgb(222, 89, 89); fill-opacity: 1;"/><path class="point" transform="translate(77.13,10.18)" d="M2.5,0A2.5,2.5 0 1,1 0,-2.5A2.5,2.5 0 0,1 2.5,0Z" style="opacity: 1; stroke-width: 0px; fill: rgb(222, 89, 89); fill-opacity: 1;"/><path class="point" transform="translate(88.08,8.03)" d="M2.5,0A2.5,2.5 0 1,1 0,-2.5A2.5,2.5 0 0,1 2.5,0Z" style="opacity: 1; stroke-width: 0px; fill: rgb(222, 89, 89); fill-opacity: 1;"/></g><g class="text"/></g><g class="trace scatter tracef3b6dc" style="stroke-miterlimit: 2; opacity: 1;"><g class="fills"/><g class="errorbars"/><g class="lines"/><g class="points"><path class="point" transform="translate(7.93,83.67)" d="M2.5,0A2.5,2.5 0 1,1 0,-2.5A2.5,2.5 0 0,1 2.5,0Z" style="opacity: 1; stroke-width: 0px; fill: rgb(222, 89, 89); fill-opacity: 1;"/><path class="point" transform="translate(18.87,72.49)" d="M2.5,0A2.5,2.5 0 1,1 0,-2.5A2.5,2.5 0 0,1 2.5,0Z" style="opacity: 1; stroke-width: 0px; fill: rgb(222, 89, 89); fill-opacity: 1;"/><path class="point" transform="translate(25.27,57)" d="M2.5,0A2.5,2.5 0 1,1 0,-2.5A2.5,2.5 0 0,1 2.5,0Z" style="opacity: 1; stroke-width: 0px; fill: rgb(222, 89, 89); fill-opacity: 1;"/><path class="point" transform="translate(29.82,52.91)" d="M2.5,0A2.5,2.5 0 1,1 0,-2.5A2.5,2.5 0 0,1 2.5,0Z" style="opacity: 1; stroke-width: 0px; fill: rgb(222, 89, 89); fill-opacity: 1;"/><path class="point" transform="translate(44.29,40.51)" d="M2.5,0A2.5,2.5 0 1,1 0,-2.5A2.5,2.5 0 0,1 2.5,0Z" style="opacity: 1; stroke-width: 0px; fill: rgb(222, 89, 89); fill-opacity: 1;"/><path class="point" transform="translate(55.24,24.58)" d="M2.5,0A2.5,2.5 0 1,1 0,-2.5A2.5,2.5 0 0,1 2.5,0Z" style="opacity: 1; stroke-width: 0px; fill: rgb(222, 89, 89); fill-opacity: 1;"/><path class="point" transform="translate(61.64,16.61)" d="M2.5,0A2.5,2.5 0 1,1 0,-2.5A2.5,2.5 0 0,1 2.5,0Z" style="opacity: 1; stroke-width: 0px; fill: rgb(222, 89, 89); fill-opacity: 1;"/><path class="point" transform="translate(66.18,15.94)" d="M2.5,0A2.5,2.5 0 1,1 0,-2.5A2.5,2.5 0 0,1 2.5,0Z" style="opacity: 1; stroke-width: 0px; fill: rgb(222, 89, 89); fill-opacity: 1;"/><path class="point" transform="translate(77.13,9.64)" d="M2.5,0A2.5,2.5 0 1,1 0,-2.5A2.5,2.5 0 0,1 2.5,0Z" style="opacity: 1; stroke-width: 0px; fill: rgb(222, 89, 89); fill-opacity: 1;"/><path class="point" transform="translate(88.08,8.31)" d="M2.5,0A2.5,2.5 0 1,1 0,-2.5A2.5,2.5 0 0,1 2.5,0Z" style="opacity: 1; stroke-width: 0px; fill: rgb(222, 89, 89); fill-opacity: 1;"/></g><g class="text"/></g><g class="trace scatter trace2c7322" style="stroke-miterlimit: 2; opacity: 1;"><g class="fills"/><g class="errorbars"/><g class="lines"><path class="js-line" d="M7.93,84.86L24.12,64.93L24.93,63.88L46.79,37L47.6,36.11L58.12,25.56L58.93,24.83L69.45,16.52L70.26,15.96L80.79,9.78L81.6,9.38L88.08,6.5" style="vector-effect: none; fill: none; stroke: rgb(222, 89, 89); stroke-opacity: 1; stroke-dasharray: 9px, 9px; stroke-width: 2px; opacity: 1;"/></g><g class="points"/><g class="text"/></g></g></g></g><path class="xlines-above crisp" d="M42.5,109.25H139.5M42.5,10.75H139.5" style="fill: none; stroke-width: 0.5px; stroke: rgb(0, 0, 0); stroke-opacity: 1;"/><path class="ylines-above crisp" d="M42.75,11V109M139.25,11V109" style="fill: none; stroke-width: 0.5px; stroke: rgb(0, 0, 0); stroke-opacity: 1;"/><g class="overlines-above"/><g class="xaxislayer-above"><path class="xtick ticks crisp" d="M0,109v-5" transform="translate(50.92,0)" style="stroke: rgb(0, 0, 0); stroke-opacity: 1; stroke-width: 0.5px;"/><path class="xtick ticks crisp" d="M0,109v-5" transform="translate(87.28999999999999,0)" style="stroke: rgb(0, 0, 0); stroke-opacity: 1; stroke-width: 0.5px;"/><path class="xtick ticks crisp" d="M0,109v-5" transform="translate(123.65,0)" style="stroke: rgb(0, 0, 0); stroke-opacity: 1; stroke-width: 0.5px;"/><g class="xtick"><text text-anchor="middle" x="0" y="126.3" transform="translate(50.92,0)" style="font-family: 'Open Sans', verdana, arial, sans-serif; font-size: 14px; fill: rgb(0, 0, 0); fill-opacity: 1; white-space: pre; opacity: 1;">0.1</text></g><g class="xtick"><text text-anchor="middle" x="0" y="126.3" style="font-family: 'Open Sans', verdana, arial, sans-serif; font-size: 14px; fill: rgb(0, 0, 0); fill-opacity: 1; white-space: pre; opacity: 1;" transform="translate(87.28999999999999,0)">1</text></g><g class="xtick"><text text-anchor="middle" x="0" y="126.3" style="font-family: 'Open Sans', verdana, arial, sans-serif; font-size: 14px; fill: rgb(0, 0, 0); fill-opacity: 1; white-space: pre; opacity: 1;" transform="translate(123.65,0)">10</text></g></g><g class="yaxislayer-above"><path class="ytick ticks crisp" d="M43,0h5" transform="translate(0,65.68)" style="stroke: rgb(0, 0, 0); stroke-opacity: 1; stroke-width: 0.5px;"/><path class="ytick ticks crisp" d="M43,0h5" transform="translate(0,18.64)" style="stroke: rgb(0, 0, 0); stroke-opacity: 1; stroke-width: 0.5px;"/><g class="ytick"><text text-anchor="end" x="39.7" y="4.8999999999999995" transform="translate(0,65.68)" style="font-family: 'Open Sans', verdana, arial, sans-serif; font-size: 14px; fill: rgb(0, 0, 0); fill-opacity: 1; white-space: pre; opacity: 1;">0.5</text></g><g class="ytick"><text text-anchor="end" x="39.7" y="4.8999999999999995" style="font-family: 'Open Sans', verdana, arial, sans-serif; font-size: 14px; fill: rgb(0, 0, 0); fill-opacity: 1; white-space: pre; opacity: 1;" transform="translate(0,18.64)">1</text></g></g><g class="overaxes-above"/></g></g><g class="polarlayer"/><g class="smithlayer"/><g class="ternarylayer"/><g class="geolayer"/><g class="funnelarealayer"/><g class="pielayer"/><g class="iciclelayer"/><g class="treemaplayer"/><g class="sunburstlayer"/><g class="glimages"/><defs id="topdefs-16cbb1"><g class="clips"/></defs><g class="layer-above"><g class="imagelayer"/><g class="shapelayer"><g class="shape-group" data-index="0" clip-path="url(#clip16cbb1x)"><path data-index="0" fill-rule="evenodd" d="M69.3,109L69.3,11" style="opacity: 1; stroke: rgb(0, 0, 0); stroke-opacity: 1; fill: rgb(0, 0, 0); fill-opacity: 0; stroke-dasharray: 9px, 9px; stroke-width: 1px;"/></g></g></g><g class="infolayer"><g class="g-gtitle"/><g class="g-xtitle" transform="translate(0,5.449999999999989)"><text class="xtitle" x="91" y="139.8625" text-anchor="middle" style="opacity: 1; font-family: 'Open Sans', verdana, arial, sans-serif; font-size: 14px; fill: rgb(0, 0, 0); fill-opacity: 1; white-space: pre;">Cefotaxime [µL/mL]</text></g><g class="g-ytitle"><text class="ytitle" transform="rotate(-90,15.303125000000001,60)" x="15.303125000000001" y="60" text-anchor="middle" style="opacity: 1; font-family: 'Open Sans', verdana, arial, sans-serif; font-size: 14px; fill: rgb(0, 0, 0); fill-opacity: 1; white-space: pre;">Response in %</text></g></g></svg>