<svg class="main-svg" xmlns="http://www.w3.org/2000/svg" xmlns:xlink="http://www.w3.org/1999/xlink" width="500" height="400" style="" viewBox="0 0 500 400"><rect x="0" y="0" width="500" height="400" style="fill: rgb(255, 255, 255); fill-opacity: 1;"/><defs id="defs-7605ab"><g class="clips"><clipPath id="clip7605abxyplot" class="plotclip"><rect width="244" height="361"/></clipPath><clipPath class="axesclip" id="clip7605abx"><rect x="40" y="0" width="244" height="400"/></clipPath><clipPath class="axesclip" id="clip7605aby"><rect x="0" y="10" width="500" height="361"/></clipPath><clipPath class="axesclip" id="clip7605abxy"><rect x="40" y="10" width="244" height="361"/></clipPath></g><g class="gradients"/><g class="patterns"/></defs><g class="bglayer"/><g class="layer-below"><g class="imagelayer"/><g class="shapelayer"/></g><g class="cartesianlayer"><g class="subplot xy"><g class="layer-subplot"><g class="shapelayer"/><g class="imagelayer"/></g><g class="minor-gridlayer"><g class="x"/><g class="y"/></g><g class="gridlayer"><g class="x"><path class="xgrid crisp" transform="translate(121.33,0)" d="M0,10v361" style="stroke: rgb(0, 0, 0); stroke-opacity: 1; stroke-width: 0.5px;"/><path class="xgrid crisp" transform="translate(202.67,0)" d="M0,10v361" style="stroke: rgb(0, 0, 0); stroke-opacity: 1; stroke-width: 0.5px;"/></g><g class="y"><path class="ygrid crisp" transform="translate(0,310.83)" d="M40,0h244" style="stroke: rgb(0, 0, 0); stroke-opacity: 1; stroke-width: 0.5px;"/><path class="ygrid crisp" transform="translate(0,250.67)" d="M40,0h244" style="stroke: rgb(0, 0, 0); stroke-opacity: 1; stroke-width: 0.5px;"/><path class="ygrid crisp" transform="translate(0,190.5)" d="M40,0h244" style="stroke: rgb(0, 0, 0); stroke-opacity: 1; stroke-width: 0.5px;"/><path class="ygrid crisp" transform="translate(0,130.32999999999998)" d="M40,0h244" style="stroke: rgb(0, 0, 0); stroke-opacity: 1; stroke-width: 0.5px;"/><path class="ygrid crisp" transform="translate(0,70.17)" d="M40,0h244" style="stroke: rgb(0, 0, 0); stroke-opacity: 1; stroke-width: 0.5px;"/></g></g><g class="zerolinelayer"><path class="xzl zl crisp" transform="translate(40,0)" d="M0,10v361" style="stroke: rgb(0, 0, 0); stroke-opacity: 1; stroke-width: 0.5px;"/><path class="yzl zl crisp" transform="translate(0,371)" d="M40,0h244" style="stroke: rgb(0, 0, 0); stroke-opacity: 1; stroke-width: 0.5px;"/></g><g class="layer-between"><g class="shapelayer"/><g class="imagelayer"/></g><path class="xlines-below"/><path class="ylines-below"/><g class="overlines-below"/><g class="xaxislayer-below"/><g class="yaxislayer-below"/><g class="overaxes-below"/><g class="overplot"><g class="xy" transform="translate(40,10)" clip-path="url(#clip7605abxyplot)"><g class="scatterlayer mlayer"><g class="trace scatter trace931af4" style="stroke-miterlimit: 2; opacity: 1;"><g class="fills"/><g class="errorbars"/><g class="lines"><path class="js-line" d="M0.02,364.37L2.56,365.33L5.1,365.33L10.19,364.01L12.73,362.68L17.81,362.56L20.35,361.12L22.89,360.28L25.44,356.07L27.98,353.3L30.52,346.56L33.06,337.54L35.6,325.02L38.14,311.78L40.69,306.85L48.31,279.29L50.85,262.81L58.48,207.09L61.02,193.38L63.56,180.62L66.1,161.01L73.73,119.85L76.27,110.23L81.35,79.54L83.89,67.51L88.98,47.65L91.52,44.4L94.06,41.88L96.6,48.98L99.14,52.35L101.68,53.79L106.77,55.71L109.31,59.81L114.39,60.41L116.93,65.1L119.48,65.7L122.02,65.1L124.56,62.93L127.1,62.21L129.64,63.66L132.18,68.83L134.73,71L137.27,60.29L139.81,71.6L142.35,68.59L144.89,71.6L147.43,72.08L149.98,70.27L152.52,58.48L155.06,57.64L157.6,62.45L160.14,62.57L162.68,59.32L165.23,60.29L167.77,55.35L170.31,65.7L172.85,67.39L175.39,58.84L177.93,60.29L180.48,75.45L183.02,69.31L185.56,69.19L188.1,68.11L190.64,73.28L193.18,68.95L195.73,70.52L198.27,75.69L200.81,77.13L203.35,80.14L205.89,74.01L208.43,75.21L210.98,73.4L213.52,80.14L218.6,84.11L221.14,85.08L223.68,85.8L226.23,85.56L228.77,75.45L231.31,84.23L233.85,86.16L236.39,86.52L238.93,79.3L241.48,83.63L244.02,84.47L246.56,76.29L251.64,81.83L254.18,89.41L256.73,93.26L259.27,87L261.81,88.93L264.35,87L266.89,84.84L269.43,84.84L274.52,92.54L277.06,91.93L282.14,90.49L284.68,87.96L289.77,89.29L292.31,81.23L294.85,81.83L297.39,91.09L299.93,87.12L302.48,93.86L307.56,93.26L310.1,86.64L315.18,93.86L317.73,89.89L322.81,96.15L325.35,96.75L330.43,103.49L332.98,90.49L335.52,96.51L338.06,90.85L343.14,91.33L345.68,101.32L348.23,101.92L350.77,95.3L353.31,96.39L355.85,84.84L360.93,99.76L363.48,101.56L366.02,106.5L368.56,83.87L371.1,96.99L373.64,95.18L376.18,97.35L378.73,83.75L381.27,100.84L383.81,80.98L386.35,109.86L393.98,97.71L396.52,99.76L404.14,113.96L406.68,107.46L411.77,105.05L414.31,111.55L419.39,95.91L421.93,102.76L424.48,105.41L429.56,101.44L432.1,107.46L434.64,111.31L439.73,100.24L442.27,112.87L449.89,104.09L452.43,109.14L454.98,113.11L460.06,109.02L462.6,100.96L467.68,114.32L472.77,109.14L475.31,111.67L488.02,109.26" style="vector-effect: none; fill: none; stroke: rgb(255, 28, 28); stroke-opacity: 1; stroke-width: 1px; opacity: 1;"/></g><g class="points"/><g class="text"/></g><g class="trace scatter trace091029" style="stroke-miterlimit: 2; opacity: 1;"><g class="fills"/><g class="errorbars"/><g class="lines"><path class="js-line" d="M0.03,365.69L5.1,364.73L7.65,364.85L12.73,364.97L15.27,364.13L22.9,362.93L25.44,361L27.98,360.28L30.52,358.35L33.06,355.95L35.6,351.98L38.15,348.85L40.69,336.33L45.77,309.26L48.31,303.12L50.85,298.43L53.4,291.57L55.94,284.95L58.48,270.27L61.02,244.52L63.56,238.74L68.65,206.61L71.19,193.14L76.27,160.16L78.81,149.21L81.35,133.45L83.9,122.38L86.44,114.32L88.98,98.91L91.52,81.47L94.06,69.31L96.6,48.49L99.15,40.43L101.69,40.91L104.23,36.58L106.77,48.49L109.31,50.18L114.39,48.13L116.94,51.26L119.48,47.05L122.02,50.9L124.56,51.14L127.1,57.52L129.64,56.56L132.19,52.71L134.73,53.91L137.27,51.98L139.81,49.94L142.35,62.33L144.89,63.18L147.44,61.25L149.98,60.29L152.52,53.67L155.06,58.96L157.6,67.51L160.14,67.63L162.69,69.31L165.23,62.57L167.77,69.07L170.31,63.78L172.85,55.35L175.39,73.88L177.94,71.12L180.48,64.62L183.02,73.04L185.56,70.15L188.1,75.57L190.64,72.68L193.19,73.88L195.73,74.13L198.27,76.89L200.81,81.1L203.35,71.84L205.89,77.74L208.44,74.01L210.98,81.83L213.52,79.66L216.06,85.44L218.6,78.7L221.15,75.45L223.69,84.84L228.77,89.77L231.31,79.54L233.85,79.54L236.39,75.33L241.48,80.5L244.02,78.7L246.56,84.11L249.1,82.19L256.73,86.28L259.27,80.74L261.81,83.75L264.35,89.89L269.44,80.74L271.98,77.25L274.52,74.61L277.06,77.37L279.6,65.22L282.14,75.45L284.69,80.98L287.23,74.25L289.77,83.75L292.31,84.11L294.85,84.96L297.39,76.29L302.48,88.32L305.02,85.2L310.1,77.49L312.64,84.84L315.19,82.55L317.73,86.52L320.27,88.45L322.81,84.84L327.89,78.1L330.44,82.43L332.98,88.08L335.52,78.94L343.14,84.47L345.69,95.3L348.23,90.13L350.77,97.47L355.85,87L358.39,88.08L360.94,90.85L363.48,83.75L368.56,91.57L371.1,85.2L373.64,69.43L376.19,82.79L378.73,89.17L391.44,83.51L393.98,89.77L396.52,97.95L399.06,89.05L401.6,83.75L409.23,95.3L411.77,94.46L414.31,97.95L416.85,79.78L424.48,103.85L427.02,101.56L429.56,100.24L432.1,97.47L434.64,103.61L437.19,105.53L439.73,92.3L444.81,98.19L447.35,98.07L449.89,103.61L452.44,99.52L454.98,90.97L470.23,106.86L472.77,94.46L475.31,94.1L477.85,105.77L482.94,97.47" style="vector-effect: none; fill: none; stroke: rgb(255, 28, 28); stroke-opacity: 1; stroke-width: 1px; opacity: 1;"/></g><g class="points"/><g class="text"/></g><g class="trace scatter trace6fbfce" style="stroke-miterlimit: 2; opacity: 1;"><g class="fills"/><g class="errorbars"/><g class="lines"><path class="js-line" d="M0.03,363.05L2.56,366.54L5.1,364.97L7.64,365.69L10.19,365.21L15.27,364.61L17.81,363.05L20.35,362.08L22.89,360.16L27.98,348.85L30.52,341.02L33.06,331.4L35.6,318.64L40.69,302.88L43.23,298.67L45.77,284.47L48.31,265.7L55.94,211.79L58.48,195.54L63.56,159.56L66.1,143.44L68.64,124.79L71.19,113.47L73.73,97.11L76.27,89.17L78.81,70.03L81.35,61.61L83.89,39.95L86.43,32.13L88.98,29.6L91.52,20.22L94.06,19.25L96.6,36.34L99.14,32.25L101.68,37.66L104.23,37.66L106.77,36.58L109.31,34.05L111.85,34.54L114.39,42.24L116.93,43.8L122.02,37.9L124.56,40.79L127.1,38.51L129.64,37.54L132.18,45.37L134.73,47.17L137.27,43.56L139.81,49.7L142.35,50.3L144.89,48.49L147.43,49.82L149.98,48.49L152.52,41.76L155.06,42.72L157.6,48.01L160.14,48.37L162.68,46.57L165.23,55.35L167.77,54.75L170.31,55.96L172.85,55.83L175.39,52.1L177.93,56.8L180.48,57.52L183.02,55.71L185.56,51.86L188.1,55.35L190.64,61.25L193.18,62.45L195.73,59.08L198.27,64.86L200.81,66.18L203.35,64.14L205.89,54.15L208.43,67.03L210.98,62.69L213.52,58.48L216.06,61.01L218.6,72.32L221.14,74.13L223.68,64.38L226.23,77.86L228.77,74.13L231.31,68.83L233.85,72.32L236.39,68.59L238.93,75.09L241.48,83.75L244.02,66.54L246.56,80.14L249.1,87L251.64,83.15L254.18,81.95L256.73,70.52L259.27,73.52L261.81,79.66L264.35,73.04L266.89,73.52L269.43,83.75L271.98,81.1L274.52,84.23L277.06,79.54L279.6,73.04L282.14,77.62L284.68,76.05L287.23,80.02L292.31,81.35L294.85,83.87L297.39,84.11L299.93,69.31L310.1,88.2L312.64,78.22L320.27,91.33L322.81,86.52L327.89,77.37L330.43,87L335.52,83.03L338.06,87.6L343.14,91.81L345.68,80.62L348.23,90.49L350.77,87.12L353.31,80.62L358.39,89.53L360.93,81.59L371.1,91.21L373.64,89.77L381.27,93.38L383.81,90.61L391.43,89.77L393.98,97.47L396.52,101.68L399.06,92.78L401.6,97.23L404.14,94.34L406.68,93.26L416.85,89.53L419.39,94.1L427.02,107.1L429.56,102.89L432.1,98.91L437.18,110.47L439.73,101.68L442.27,100.6L449.89,102.89L452.43,108.18L460.06,97.83L462.6,100.48L465.14,102.4L482.93,101.8L485.48,111.19L488.02,112.99" style="vector-effect: none; fill: none; stroke: rgb(255, 28, 28); stroke-opacity: 1; stroke-width: 1px; opacity: 1;"/></g><g class="points"/><g class="text"/></g><g class="trace scatter trace0c3674" style="stroke-miterlimit: 2; opacity: 1;"><g class="fills"/><g class="errorbars"/><g class="lines"><path class="js-line" d="M0.02,360.4L12.73,358.91L15.27,358.32L22.89,355.38L25.44,353.82L30.52,349.33L33.06,346.16L38.14,337.22L40.69,331.08L45.77,314.41L48.31,303.48L53.39,275.77L55.93,259.02L63.56,200.4L66.1,179.77L73.73,122.95L76.27,107.19L81.35,81.57L83.89,71.62L88.98,56.58L91.52,51.09L96.6,43.15L99.14,40.35L104.23,36.39L106.77,35.02L114.39,32.43L116.93,31.91L129.64,30.61L132.18,30.49L162.68,30.1L165.23,30.1L488.02,30.08" style="vector-effect: none; fill: none; stroke: rgb(255, 28, 28); stroke-opacity: 1; stroke-dasharray: 9px, 9px; stroke-width: 1px; opacity: 1;"/></g><g class="points"/><g class="text"/></g></g></g></g><path class="xlines-above crisp" d="M0,0" style="fill: none;"/><path class="ylines-above crisp" d="M0,0" style="fill: none;"/><g class="overlines-above"/><g class="xaxislayer-above"><g class="xtick"><text text-anchor="middle" x="0" y="386" transform="translate(40,0)" style="font-family: 'Open Sans', verdana, arial, sans-serif; font-size: 14px; fill: rgb(0, 0, 0); fill-opacity: 1; white-space: pre; opacity: 1;">0</text></g><g class="xtick"><text text-anchor="middle" x="0" y="386" style="font-family: 'Open Sans', verdana, arial, sans-serif; font-size: 14px; fill: rgb(0, 0, 0); fill-opacity: 1; white-space: pre; opacity: 1;" transform="translate(121.33,0)">8</text></g><g class="xtick"><text text-anchor="middle" x="0" y="386" style="font-family: 'Open Sans', verdana, arial, sans-serif; font-size: 14px; fill: rgb(0, 0, 0); fill-opacity: 1; white-space: pre; opacity: 1;" transform="translate(202.67,0)">16</text></g><g class="xtick"><text text-anchor="middle" x="0" y="386" style="font-family: 'Open Sans', verdana, arial, sans-serif; font-size: 14px; fill: rgb(0, 0, 0); fill-opacity: 1; white-space: pre; opacity: 1;" transform="translate(284,0)">24</text></g></g><g class="yaxislayer-above"><g class="ytick"><text text-anchor="end" x="39" y="4.8999999999999995" transform="translate(0,371)" style="font-family: 'Open Sans', verdana, arial, sans-serif; font-size: 14px; fill: rgb(0, 0, 0); fill-opacity: 1; white-space: pre; opacity: 1;">0</text></g><g class="ytick"><text text-anchor="end" x="39" y="4.8999999999999995" style="font-family: 'Open Sans', verdana, arial, sans-serif; font-size: 14px; fill: rgb(0, 0, 0); fill-opacity: 1; white-space: pre; opacity: 1;" transform="translate(0,310.83)">0.1</text></g><g class="ytick"><text text-anchor="end" x="39" y="4.8999999999999995" style="font-family: 'Open Sans', verdana, arial, sans-serif; font-size: 14px; fill: rgb(0, 0, 0); fill-opacity: 1; white-space: pre; opacity: 1;" transform="translate(0,250.67)">0.2</text></g><g class="ytick"><text text-anchor="end" x="39" y="4.8999999999999995" style="font-family: 'Open Sans', verdana, arial, sans-serif; font-size: 14px; fill: rgb(0, 0, 0); fill-opacity: 1; white-space: pre; opacity: 1;" transform="translate(0,190.5)">0.3</text></g><g class="ytick"><text text-anchor="end" x="39" y="4.8999999999999995" style="font-family: 'Open Sans', verdana, arial, sans-serif; font-size: 14px; fill: rgb(0, 0, 0); fill-opacity: 1; white-space: pre; opacity: 1;" transform="translate(0,130.32999999999998)">0.4</text></g><g class="ytick"><text text-anchor="end" x="39" y="4.8999999999999995" style="font-family: 'Open Sans', verdana, arial, sans-serif; font-size: 14px; fill: rgb(0, 0, 0); fill-opacity: 1; white-space: pre; opacity: 1;" transform="translate(0,70.17)">0.5</text></g><g class="ytick"><text text-anchor="end" x="39" y="4.8999999999999995" style="font-family: 'Open Sans', verdana, arial, sans-serif; font-size: 14px; fill: rgb(0, 0, 0); fill-opacity: 1; white-space: pre; opacity: 0;" transform="translate(0,10)">0.6</text></g></g><g class="overaxes-above"/></g></g><g class="polarlayer"/><g class="smithlayer"/><g class="ternarylayer"/><g class="geolayer"/><g class="funnelarealayer"/><g class="pielayer"/><g class="iciclelayer"/><g class="treemaplayer"/><g class="sunburstlayer"/><g class="glimages"/><defs id="topdefs-7605ab"><g class="clips"/><clipPath id="legend7605ab"><rect width="211" height="71" x="0" y="0"/></clipPath></defs><g class="layer-above"><g class="imagelayer"/><g class="shapelayer"/></g><g class="infolayer"><g class="legend" pointer-events="all" transform="translate(288.88,10)"><rect class="bg" shape-rendering="crispEdges" width="211" height="71" x="0" y="0" style="stroke: rgb(68, 68, 68); stroke-opacity: 1; fill: rgb(255, 255, 255); fill-opacity: 1; stroke-width: 0px;"/><g class="scrollbox" transform="" clip-path="url(#legend7605ab)"><g class="groups"><g class="traces" transform="translate(0,24.7)" style="opacity: 1;"><text class="legendtext" text-anchor="start" x="40" y="-3.64" style="font-family: 'Open Sans', verdana, arial, sans-serif; font-size: 14px; fill: rgb(0, 0, 0); fill-opacity: 1; white-space: pre;"><tspan class="line" dy="0em" x="40" y="-3.64"><tspan style="font-style:italic">Salmonella Typhimurium</tspan> </tspan><tspan class="line" dy="1.3em" x="40" y="-3.64">mcherry:pGDPI CTX-M-15</tspan></text><g class="layers" style="opacity: 1;"><g class="legendfill"/><g class="legendlines"><path class="js-line" d="M5,0h30" style="fill: none; stroke: rgb(255, 28, 28); stroke-opacity: 1; stroke-width: 1px;"/></g><g class="legendsymbols"><g class="legendpoints"/></g></g><rect class="legendtoggle" x="0" y="-19.7" width="205.609375" height="39.4" style="fill: rgb(0, 0, 0); fill-opacity: 0;"/></g><g class="traces" transform="translate(0,55)" style="opacity: 1;"><text class="legendtext" text-anchor="start" x="40" y="5.46" style="font-family: 'Open Sans', verdana, arial, sans-serif; font-size: 14px; fill: rgb(0, 0, 0); fill-opacity: 1; white-space: pre;">Logistic fit</text><g class="layers" style="opacity: 1;"><g class="legendfill"/><g class="legendlines"><path class="js-line" d="M5,0h30" style="fill: none; stroke: rgb(255, 28, 28); stroke-opacity: 1; stroke-dasharray: 9px, 9px; stroke-width: 1px;"/></g><g class="legendsymbols"><g class="legendpoints"/></g></g><rect class="legendtoggle" x="0" y="-10.6" width="205.609375" height="21.2" style="fill: rgb(0, 0, 0); fill-opacity: 0;"/></g></g></g><rect class="scrollbar" rx="20" ry="3" width="0" height="0" x="0" y="0" style="fill: rgb(128, 139, 164); fill-opacity: 1;"/></g><g class="g-gtitle"/><g class="g-xtitle" transform="translate(0,-3.3000000000000114)"><text class="xtitle" x="162" y="399.3" text-anchor="middle" style="opacity: 1; font-family: 'Open Sans', verdana, arial, sans-serif; font-size: 14px; fill: rgb(0, 0, 0); fill-opacity: 1; white-space: pre;">Time [h]</text></g><g class="g-ytitle" transform="translate(0.150390625,0)"><text class="ytitle" transform="rotate(-90,14.850000000000001,190.5)" x="14.850000000000001" y="190.5" text-anchor="middle" style="opacity: 1; font-family: 'Open Sans', verdana, arial, sans-serif; font-size: 14px; fill: rgb(0, 0, 0); fill-opacity: 1; white-space: pre;">OD</text></g></g></svg>