<svg class="main-svg" xmlns="http://www.w3.org/2000/svg" xmlns:xlink="http://www.w3.org/1999/xlink" width="500" height="320" style="" viewBox="0 0 500 320"><rect x="0" y="0" width="500" height="320" style="fill: rgb(255, 255, 255); fill-opacity: 1;"/><defs id="defs-affced"><g class="clips"><clipPath id="clipaffcedxyplot" class="plotclip"><rect width="234" height="250"/></clipPath><clipPath class="axesclip" id="clipaffcedx"><rect x="48" y="0" width="234" height="320"/></clipPath><clipPath class="axesclip" id="clipaffcedy"><rect x="0" y="20" width="500" height="250"/></clipPath><clipPath class="axesclip" id="clipaffcedxy"><rect x="48" y="20" width="234" height="250"/></clipPath></g><g class="gradients"/><g class="patterns"/></defs><g class="bglayer"/><g class="layer-below"><g class="imagelayer"/><g class="shapelayer"/></g><g class="cartesianlayer"><g class="subplot xy"><g class="layer-subplot"><g class="shapelayer"/><g class="imagelayer"/></g><g class="minor-gridlayer"><g class="x"/><g class="y"/></g><g class="gridlayer"><g class="x"><path class="xgrid crisp" transform="translate(96.75,0)" d="M0,20v250" style="stroke: rgb(0, 0, 0); stroke-opacity: 1; stroke-width: 1px;"/><path class="xgrid crisp" transform="translate(145.5,0)" d="M0,20v250" style="stroke: rgb(0, 0, 0); stroke-opacity: 1; stroke-width: 1px;"/><path class="xgrid crisp" transform="translate(194.24,0)" d="M0,20v250" style="stroke: rgb(0, 0, 0); stroke-opacity: 1; stroke-width: 1px;"/><path class="xgrid crisp" transform="translate(242.99,0)" d="M0,20v250" style="stroke: rgb(0, 0, 0); stroke-opacity: 1; stroke-width: 1px;"/></g><g class="y"><path class="ygrid crisp" transform="translate(0,213.58)" d="M48,0h234" style="stroke: rgb(0, 0, 0); stroke-opacity: 1; stroke-width: 1px;"/><path class="ygrid crisp" transform="translate(0,174.82)" d="M48,0h234" style="stroke: rgb(0, 0, 0); stroke-opacity: 1; stroke-width: 1px;"/><path class="ygrid crisp" transform="translate(0,136.07)" d="M48,0h234" style="stroke: rgb(0, 0, 0); stroke-opacity: 1; stroke-width: 1px;"/><path class="ygrid crisp" transform="translate(0,97.32)" d="M48,0h234" style="stroke: rgb(0, 0, 0); stroke-opacity: 1; stroke-width: 1px;"/><path class="ygrid crisp" transform="translate(0,58.56)" d="M48,0h234" style="stroke: rgb(0, 0, 0); stroke-opacity: 1; stroke-width: 1px;"/></g></g><g class="zerolinelayer"><path class="xzl zl crisp" transform="translate(48,0)" d="M0,20v250" style="stroke: rgb(0, 0, 0); stroke-opacity: 1; stroke-width: 1px;"/><path class="yzl zl crisp" transform="translate(0,252.33)" d="M48,0h234" style="stroke: rgb(0, 0, 0); stroke-opacity: 1; stroke-width: 1px;"/></g><g class="layer-between"><g class="shapelayer"/><g class="imagelayer"/></g><path class="xlines-below"/><path class="ylines-below"/><g class="overlines-below"/><g class="xaxislayer-below"/><g class="yaxislayer-below"/><g class="overaxes-below"/><g class="overplot"><g class="xy" transform="translate(48,20)" clip-path="url(#clipaffcedxyplot)"><g class="scatterlayer mlayer"><g class="trace scatter trace8e5e2e" style="stroke-miterlimit: 2; opacity: 1;"><g class="fills"/><g class="errorbars"/><g class="lines"><path class="js-line" d="M0.01,236.08L2.45,237.5L3.66,237.4L4.88,236.5L6.1,236.89L8.54,236.56L9.76,235.4L10.98,234.88L12.2,232.75L14.63,226.52L15.85,219.67L18.29,204.69L19.51,199.49L31.69,145.04L32.91,141.87L37.79,119.3L39.01,115.33L41.44,109.68L42.66,103.18L45.1,95.27L46.32,88.01L47.54,87.52L48.76,84.61L49.98,83.16L51.19,77.48L52.41,77.8L53.63,77.12L54.85,74.09L56.07,67.43L57.29,68.05L58.51,64.53L59.72,67.18L60.94,59.91L62.16,64.88L63.38,57.71L64.6,57.62L65.82,55.06L67.04,58.36L68.26,55.68L69.47,53.45L70.69,52.8L71.91,48.9L73.13,49.8L74.35,49.77L75.57,46.12L76.79,49.09L78.01,45.34L80.44,43.54L81.66,40.63L82.88,41.24L84.1,30.17L87.76,30.88L88.97,26.65L90.19,28.39L91.41,28.65L92.63,28.13L93.85,30.52L95.07,26.52L96.29,27.65L98.72,25.06L99.94,26.81L101.16,28L102.38,24.51L104.82,20.9L106.04,24.71L107.25,20.61L108.47,21.03L109.69,22.03L110.91,20.22L112.13,25L113.35,22.25L114.57,19.83L115.79,25.77L117,25.87L118.22,23.03L119.44,25.19L120.66,25.06L121.88,29.07L123.1,28.97L124.32,28L125.53,30.23L126.75,28.39L127.97,30.97L129.19,27.13L130.41,35.01L131.63,33.07L132.85,33.1L134.07,35.24L135.28,31.65L136.5,31.52L137.72,33.98L140.16,37.3L141.38,29.81L142.6,35.07L143.82,37.01L145.03,35.88L146.25,38.34L148.69,30.91L149.91,32.88L151.13,38.24L152.35,35.66L153.57,34.17L154.78,37.17L156,38.05L157.22,36.17L158.44,39.01L159.66,34.2L160.88,36.5L162.1,36.53L163.31,36.46L164.53,35.27L165.75,37.3L166.97,36.75L169.41,36.43L170.63,33.01L173.06,36.66L174.28,34.98L175.5,36.92L176.72,32.81L177.94,35.07L179.16,33.88L180.38,34.43L181.6,32.49L185.25,35.66L186.47,35.27L188.91,36.17L190.13,35.66L191.35,33.98L192.56,35.43L193.78,35.98L195,34.43L196.22,34.07L197.44,34.95L198.66,34.85L199.88,33.23L201.09,30.78L202.31,33.85L203.53,31.75L204.75,32.39L205.97,31.81L207.19,32.43L208.41,35.2L209.63,32.72L210.84,33.04L212.06,34.65L215.72,33.07L216.94,34.14L218.16,34.27L219.38,33.17L220.59,33.98L221.81,31.59L223.03,31.17L224.25,31.65L225.47,33.1L226.69,32.59L227.91,33.3L229.13,33.14L231.56,30.26L232.78,31.55L234,31.26" style="vector-effect: none; fill: none; stroke: rgb(255, 28, 28); stroke-opacity: 1; stroke-width: 3px; opacity: 1;"/></g><g class="points"/><g class="text"/></g><g class="trace scatter traceaf158f" style="stroke-miterlimit: 2; opacity: 1;"><g class="fills"/><g class="errorbars"/><g class="lines"><path class="js-line" d="M0.01,235.53L2.45,236.63L3.67,236.72L6.1,237.47L7.32,236.11L8.54,234.53L9.76,234.72L10.98,233.92L12.2,230.43L14.63,222.39L15.85,213.86L18.29,200.26L19.51,197.87L20.73,189.35L21.95,186.34L24.38,171.62L25.6,166.97L30.48,147.07L31.7,138.71L32.92,134.45L34.13,126.79L35.35,125.57L36.57,117.72L41.45,105.51L42.66,99.12L46.32,84.87L47.54,86.46L48.76,88.17L49.98,82.87L51.2,83.94L52.41,80.19L53.63,79.09L54.85,72.57L56.07,70.28L57.29,66.08L59.73,63.75L60.94,67.76L63.38,63.07L64.6,63.98L67.04,55.97L68.26,58.55L70.69,47.96L71.91,52.71L73.13,54.35L74.35,52.35L75.57,49.77L76.79,42.86L78.01,43.08L79.23,45.44L80.44,45.63L81.66,41.63L82.88,34.17L84.1,35.88L85.32,34.65L86.54,35.53L88.97,34.04L90.19,29.33L91.41,29.81L92.63,26.03L93.85,29.81L95.07,28.07L96.29,30.52L97.51,27.97L98.72,29.16L99.94,29.23L101.16,29.13L102.38,32.75L103.6,32.36L104.82,33.33L106.04,26.42L107.26,30.46L108.47,32.33L109.69,27.94L110.91,25.22L112.13,30.75L113.35,27.19L114.57,26.77L115.79,22.35L117.01,28.32L119.44,37.75L120.66,34.53L121.88,34.69L123.1,38.27L124.32,36.72L125.54,31.04L127.97,41.99L129.19,41.57L130.41,42.02L131.63,38.82L134.07,45.02L135.29,38.85L136.5,38.4L137.72,39.3L138.94,34.2L140.16,42.79L141.38,44.73L142.6,42.28L143.82,37.43L145.04,38.79L146.25,41.57L147.47,39.4L148.69,42.76L149.91,39.6L151.13,39.14L152.35,42.34L153.57,44.47L154.79,39.56L156,43.57L157.22,43.96L158.44,47.28L159.66,46.51L160.88,40.21L162.1,42.11L163.32,46.35L164.53,44.47L165.75,45.7L166.97,45.67L168.19,46.99L169.41,42.86L171.85,45.63L173.07,45.89L174.28,42.28L175.5,43.02L176.72,44.38L177.94,44.57L181.6,48.74L182.82,47.18L184.03,47.54L185.25,46.64L187.69,42.99L188.91,45.05L190.13,45.57L191.35,45.12L192.56,43.37L193.78,44.96L195,43.76L196.22,45.31L197.44,45.47L198.66,42.44L199.88,42.44L201.1,44.15L202.31,43.6L203.53,45.8L204.75,46.05L205.97,44.83L208.41,45.31L209.63,43.76L210.85,42.86L212.06,43.79L213.28,42.5L214.5,42.86L215.72,40.95L216.94,42.89L219.38,41.76L220.6,41.82L221.81,40.95L223.03,41.53L224.25,41.21L225.47,38.21L226.69,41.24L227.91,41.6L230.34,40.6L231.56,41.79" style="vector-effect: none; fill: none; stroke: rgb(255, 28, 28); stroke-opacity: 1; stroke-width: 3px; opacity: 1;"/></g><g class="points"/><g class="text"/></g><g class="trace scatter trace387eae" style="stroke-miterlimit: 2; opacity: 1;"><g class="fills"/><g class="errorbars"/><g class="lines"><path class="js-line" d="M0.01,234.34L1.23,235.89L2.45,235.05L3.67,235.89L4.88,233.2L6.1,235.43L7.32,234.98L9.76,232.91L10.98,230.91L12.2,228.26L13.41,223.16L18.29,193.93L19.51,190.45L24.38,166.68L25.6,162.03L28.04,153.34L29.26,144.91L36.57,111.84L37.79,103.57L39.01,103.18L40.23,94.69L41.44,94.85L42.66,92.27L45.1,80.42L46.32,78.58L48.76,74.12L49.98,67.05L51.19,71.31L52.41,68.44L53.63,63.59L54.85,65.95L56.07,63.95L57.29,55.32L58.51,55.26L59.73,59.88L62.16,44.25L63.38,44.21L64.6,49.38L65.82,48.7L67.04,43.73L68.26,42.66L69.47,40.11L70.69,42.92L71.91,35.01L73.13,33.1L74.35,31.07L75.57,36.85L76.79,38.92L78.01,35.43L80.44,26.39L81.66,31.36L84.1,28.03L85.32,28.23L86.54,25.58L87.76,26.19L88.97,16.92L90.19,16.02L91.41,23.42L92.63,24.03L93.85,17.76L95.07,21.06L96.29,23.32L97.51,22.9L99.94,19.12L101.16,12.5L102.38,20.83L103.6,18.15L104.82,21.99L106.04,23.29L107.25,21.77L108.47,22.8L109.69,26.45L110.91,26.42L113.35,27.39L114.57,28.65L115.79,30.13L117,24.29L118.22,32.56L119.44,25.48L120.66,31.3L121.88,32.1L123.1,31.04L124.32,28.42L125.54,30.36L126.75,29.29L127.97,31.68L129.19,30.68L131.63,35.17L132.85,32.49L134.07,36.69L135.28,38.01L136.5,33.91L137.72,37.33L138.94,35.43L140.16,38.98L141.38,40.08L142.6,33.2L143.82,38.11L145.03,32.88L146.25,33.23L147.47,39.05L148.69,33.07L149.91,37.01L151.13,34.91L152.35,34.4L153.57,40.02L154.78,33.91L156,35.01L157.22,32.49L158.44,35.78L159.66,33.75L160.88,35.3L162.1,34.2L163.31,35.53L164.53,32.88L165.75,33.33L166.97,35.49L168.19,37.79L169.41,34.82L170.63,34.78L171.85,33.65L173.06,32.07L174.28,35.53L175.5,34.4L176.72,36.59L177.94,34.46L179.16,34.43L180.38,33.59L181.6,35.43L182.81,37.24L184.03,36.2L185.25,36.95L186.47,34.3L187.69,34.3L188.91,35.85L190.13,36.2L191.35,33.27L192.56,35.2L193.78,34.3L195,35.78L196.22,35.46L197.44,34.82L198.66,35.36L199.88,33.98L201.1,34.56L202.31,33.88L203.53,34.23L204.75,35.62L205.97,34.2L208.41,33.17L209.63,34.72L212.06,32.75L213.28,33.2L215.72,32.04L216.94,32.23L218.16,32.75L219.38,32.17L225.47,31.36L226.69,30.62L229.12,30.29L230.34,28.49L231.56,30.59L232.78,29.1L234,29.58" style="vector-effect: none; fill: none; stroke: rgb(255, 28, 28); stroke-opacity: 1; stroke-width: 3px; opacity: 1;"/></g><g class="points"/><g class="text"/></g><g class="trace scatter trace2cd02e" style="stroke-miterlimit: 2; opacity: 1;"><g class="fills"/><g class="errorbars"/><g class="lines"><path class="js-line" d="M0,232.14L12.66,231.14L13.13,231.06L19.7,229.1L20.16,228.88L24.38,226.09L24.85,225.67L28.61,221.17L29.07,220.44L32.36,213.9L32.83,212.74L36.58,200.86L37.05,199.02L40.8,181.06L41.27,178.41L46.42,144.16L46.89,140.71L56.74,72.85L57.21,70.34L61.9,50.18L62.37,48.63L66.12,38.78L66.59,37.83L70.34,31.94L70.81,31.38L75.03,27.68L75.5,27.39L80.66,25.15L81.13,25.01L89.1,23.69L89.57,23.65L104.1,23.13L104.57,23.13L143.03,23.06L143.49,23.06L234,23.06" style="vector-effect: none; fill: none; stroke: rgb(0, 0, 0); stroke-opacity: 1; stroke-dasharray: 9px, 9px; stroke-width: 3px; opacity: 1;"/></g><g class="points"/><g class="text"/></g></g></g></g><path class="xlines-above crisp" d="M0,0" style="fill: none;"/><path class="ylines-above crisp" d="M0,0" style="fill: none;"/><g class="overlines-above"/><g class="xaxislayer-above"><g class="xtick"><text text-anchor="middle" x="0" y="285" transform="translate(48,0)" style="font-family: 'Open Sans', verdana, arial, sans-serif; font-size: 14px; fill: rgb(0, 0, 0); fill-opacity: 1; white-space: pre; opacity: 1;">0</text></g><g class="xtick"><text text-anchor="middle" x="0" y="285" style="font-family: 'Open Sans', verdana, arial, sans-serif; font-size: 14px; fill: rgb(0, 0, 0); fill-opacity: 1; white-space: pre; opacity: 1;" transform="translate(96.75,0)">10</text></g><g class="xtick"><text text-anchor="middle" x="0" y="285" style="font-family: 'Open Sans', verdana, arial, sans-serif; font-size: 14px; fill: rgb(0, 0, 0); fill-opacity: 1; white-space: pre; opacity: 1;" transform="translate(145.5,0)">20</text></g><g class="xtick"><text text-anchor="middle" x="0" y="285" style="font-family: 'Open Sans', verdana, arial, sans-serif; font-size: 14px; fill: rgb(0, 0, 0); fill-opacity: 1; white-space: pre; opacity: 1;" transform="translate(194.24,0)">30</text></g><g class="xtick"><text text-anchor="middle" x="0" y="285" style="font-family: 'Open Sans', verdana, arial, sans-serif; font-size: 14px; fill: rgb(0, 0, 0); fill-opacity: 1; white-space: pre; opacity: 1;" transform="translate(242.99,0)">40</text></g></g><g class="yaxislayer-above"><g class="ytick"><text text-anchor="end" x="47" y="4.8999999999999995" transform="translate(0,252.33)" style="font-family: 'Open Sans', verdana, arial, sans-serif; font-size: 14px; fill: rgb(0, 0, 0); fill-opacity: 1; white-space: pre; opacity: 1;">0</text></g><g class="ytick"><text text-anchor="end" x="47" y="4.8999999999999995" style="font-family: 'Open Sans', verdana, arial, sans-serif; font-size: 14px; fill: rgb(0, 0, 0); fill-opacity: 1; white-space: pre; opacity: 1;" transform="translate(0,213.58)">0.2</text></g><g class="ytick"><text text-anchor="end" x="47" y="4.8999999999999995" style="font-family: 'Open Sans', verdana, arial, sans-serif; font-size: 14px; fill: rgb(0, 0, 0); fill-opacity: 1; white-space: pre; opacity: 1;" transform="translate(0,174.82)">0.4</text></g><g class="ytick"><text text-anchor="end" x="47" y="4.8999999999999995" style="font-family: 'Open Sans', verdana, arial, sans-serif; font-size: 14px; fill: rgb(0, 0, 0); fill-opacity: 1; white-space: pre; opacity: 1;" transform="translate(0,136.07)">0.6</text></g><g class="ytick"><text text-anchor="end" x="47" y="4.8999999999999995" style="font-family: 'Open Sans', verdana, arial, sans-serif; font-size: 14px; fill: rgb(0, 0, 0); fill-opacity: 1; white-space: pre; opacity: 1;" transform="translate(0,97.32)">0.8</text></g><g class="ytick"><text text-anchor="end" x="47" y="4.8999999999999995" style="font-family: 'Open Sans', verdana, arial, sans-serif; font-size: 14px; fill: rgb(0, 0, 0); fill-opacity: 1; white-space: pre; opacity: 1;" transform="translate(0,58.56)">1</text></g></g><g class="overaxes-above"/></g></g><g class="polarlayer"/><g class="smithlayer"/><g class="ternarylayer"/><g class="geolayer"/><g class="funnelarealayer"/><g class="pielayer"/><g class="iciclelayer"/><g class="treemaplayer"/><g class="sunburstlayer"/><g class="glimages"/><defs id="topdefs-affced"><g class="clips"/><clipPath id="legendaffced"><rect width="213" height="71" x="0" y="0"/></clipPath></defs><g class="layer-above"><g class="imagelayer"/><g class="shapelayer"/></g><g class="infolayer"><g class="legend" pointer-events="all" transform="translate(286.68,20)"><rect class="bg" shape-rendering="crispEdges" style="stroke: rgb(68, 68, 68); stroke-opacity: 1; fill: rgb(255, 255, 255); fill-opacity: 1; stroke-width: 0px;" width="213" height="71" x="0" y="0"/><g class="scrollbox" transform="" clip-path="url(#legendaffced)"><g class="groups"><g class="traces" transform="translate(0,24.7)" style="opacity: 1;"><text class="legendtext" text-anchor="start" x="40" y="-3.64" style="font-family: 'Open Sans', verdana, arial, sans-serif; font-size: 14px; fill: rgb(0, 0, 0); fill-opacity: 1; white-space: pre;"><tspan class="line" dy="0em" x="40" y="-3.64">Salmonella Typhimurium </tspan><tspan class="line" dy="1.3em" x="40" y="-3.64">mcherry:pGDPI CTX-M-15</tspan></text><g class="layers" style="opacity: 1;"><g class="legendfill"/><g class="legendlines"><path class="js-line" d="M5,0h30" style="fill: none; stroke: rgb(255, 28, 28); stroke-opacity: 1; stroke-width: 3px;"/></g><g class="legendsymbols"><g class="legendpoints"/></g></g><rect class="legendtoggle" x="0" y="-19.7" width="207.078125" height="39.4" style="fill: rgb(0, 0, 0); fill-opacity: 0;"/></g><g class="traces" transform="translate(0,55)" style="opacity: 1;"><text class="legendtext" text-anchor="start" x="40" y="5.46" style="font-family: 'Open Sans', verdana, arial, sans-serif; font-size: 14px; fill: rgb(0, 0, 0); fill-opacity: 1; white-space: pre;">Model</text><g class="layers" style="opacity: 1;"><g class="legendfill"/><g class="legendlines"><path class="js-line" d="M5,0h30" style="fill: none; stroke: rgb(0, 0, 0); stroke-opacity: 1; stroke-dasharray: 9px, 9px; stroke-width: 3px;"/></g><g class="legendsymbols"><g class="legendpoints"/></g></g><rect class="legendtoggle" x="0" y="-10.6" width="207.078125" height="21.2" style="fill: rgb(0, 0, 0); fill-opacity: 0;"/></g></g></g><rect class="scrollbar" rx="20" ry="3" width="0" height="0" style="fill: rgb(128, 139, 164); fill-opacity: 1;" x="0" y="0"/></g><g class="g-gtitle"/><g class="g-xtitle" transform="translate(0,-0.39999999999997726)"><text class="xtitle" x="165" y="315.4" text-anchor="middle" style="opacity: 1; font-family: 'Open Sans', verdana, arial, sans-serif; font-size: 17px; fill: rgb(0, 0, 0); fill-opacity: 1; white-space: pre;">Time [h]</text></g><g class="g-ytitle" transform="translate(11.2001953125,0)"><text class="ytitle" transform="rotate(-90,6.799999999999997,145)" x="6.799999999999997" y="145" text-anchor="middle" style="opacity: 1; font-family: 'Open Sans', verdana, arial, sans-serif; font-size: 17px; fill: rgb(0, 0, 0); fill-opacity: 1; white-space: pre;">Abundance [OD]</text></g></g></svg>