<svg class="main-svg" xmlns="http://www.w3.org/2000/svg" xmlns:xlink="http://www.w3.org/1999/xlink" width="180" height="180" style="" viewBox="0 0 180 180"><rect x="0" y="0" width="180" height="180" style="fill: rgb(255, 255, 255); fill-opacity: 1;"/><defs id="defs-c5222e"><g class="clips"><clipPath id="clipc5222exyplot" class="plotclip"><rect width="106" height="114"/></clipPath><clipPath class="axesclip" id="clipc5222ex"><rect x="44" y="0" width="106" height="180"/></clipPath><clipPath class="axesclip" id="clipc5222ey"><rect x="0" y="30" width="180" height="114"/></clipPath><clipPath class="axesclip" id="clipc5222exy"><rect x="44" y="30" width="106" height="114"/></clipPath></g><g class="gradients"/><g class="patterns"/></defs><g class="bglayer"/><g class="layer-below"><g class="imagelayer"/><g class="shapelayer"/></g><g class="cartesianlayer"><g class="subplot xy"><g class="layer-subplot"><g class="shapelayer"/><g class="imagelayer"/></g><g class="minor-gridlayer"><g class="x"/><g class="y"/></g><g class="gridlayer"><g class="x"><path class="xgrid crisp" transform="translate(61.9,0)" d="M0,30v114" style="stroke: rgb(128, 128, 128); stroke-opacity: 1; stroke-width: 0.2px;"/><path class="xgrid crisp" transform="translate(91.75999999999999,0)" d="M0,30v114" style="stroke: rgb(128, 128, 128); stroke-opacity: 1; stroke-width: 0.2px;"/><path class="xgrid crisp" transform="translate(121.62,0)" d="M0,30v114" style="stroke: rgb(128, 128, 128); stroke-opacity: 1; stroke-width: 0.2px;"/></g><g class="y"><path class="ygrid crisp" transform="translate(0,142.23000000000002)" d="M44,0h106" style="stroke: rgb(128, 128, 128); stroke-opacity: 1; stroke-width: 0.2px;"/><path class="ygrid crisp" transform="translate(0,126.57)" d="M44,0h106" style="stroke: rgb(128, 128, 128); stroke-opacity: 1; stroke-width: 0.2px;"/><path class="ygrid crisp" transform="translate(0,105.87)" d="M44,0h106" style="stroke: rgb(128, 128, 128); stroke-opacity: 1; stroke-width: 0.2px;"/><path class="ygrid crisp" transform="translate(0,90.21000000000001)" d="M44,0h106" style="stroke: rgb(128, 128, 128); stroke-opacity: 1; stroke-width: 0.2px;"/><path class="ygrid crisp" transform="translate(0,74.55)" d="M44,0h106" style="stroke: rgb(128, 128, 128); stroke-opacity: 1; stroke-width: 0.2px;"/><path class="ygrid crisp" transform="translate(0,53.86)" d="M44,0h106" style="stroke: rgb(128, 128, 128); stroke-opacity: 1; stroke-width: 0.2px;"/><path class="ygrid crisp" transform="translate(0,38.2)" d="M44,0h106" style="stroke: rgb(128, 128, 128); stroke-opacity: 1; stroke-width: 0.2px;"/></g></g><g class="zerolinelayer"/><g class="layer-between"><g class="shapelayer"/><g class="imagelayer"/></g><path class="xlines-below"/><path class="ylines-below"/><g class="overlines-below"/><g class="xaxislayer-below"/><g class="yaxislayer-below"/><g class="overaxes-below"/><g class="overplot"><g class="xy" transform="translate(44,30)" clip-path="url(#clipc5222exyplot)"><g class="scatterlayer mlayer"><g class="trace scatter trace6b18f8" style="stroke-miterlimit: 2; opacity: 1;"><g class="fills"><g><path class="js-fill" d="M0,103.13L7.46,51.9L8.96,47.61L10.45,43.6L11.94,41.91L14.93,36.35L16.42,33.77L19.41,30.32L20.9,29.16L29.86,20.34L31.35,19.61L37.32,15.9L38.82,15.84L46.28,12.99L47.77,12.68L49.27,11.93L50.76,12.09L59.72,10.09L61.21,10.46L65.69,8.9L67.18,9.32L94.06,6.48L95.55,6.52L98.53,5.7L100.03,6.24L106,6.2L106,6.61L101.52,6.38L100.03,6.59L91.07,7.1L89.58,7.65L77.63,9.3L76.14,9.12L73.15,9.36L71.66,9.88L65.69,10.36L64.2,10.82L56.73,11.41L55.24,11.98L52.25,12.8L50.76,13.15L44.79,13.91L43.3,14.85L29.86,22.04L28.37,23.6L26.87,24.42L25.38,26.2L17.92,33.61L16.42,36.03L10.45,47.37L8.96,52.03L5.97,70.49L4.48,79.69L2.99,88.74L1.49,103L0,108.3Z" style="fill: rgb(211, 211, 211); fill-opacity: 1; stroke-width: 0;"/></g></g><g class="errorbars"/><g class="lines"><path class="js-line" d="M0,103.13L7.46,51.9L8.96,47.61L10.45,43.6L11.94,41.91L14.93,36.35L16.42,33.77L19.41,30.32L20.9,29.16L29.86,20.34L31.35,19.61L37.32,15.9L38.82,15.84L46.28,12.99L47.77,12.68L49.27,11.93L50.76,12.09L59.72,10.09L61.21,10.46L65.69,8.9L67.18,9.32L94.06,6.48L95.55,6.52L98.53,5.7L100.03,6.24L106,6.2L106,6.61L101.52,6.38L100.03,6.59L91.07,7.1L89.58,7.65L77.63,9.3L76.14,9.12L73.15,9.36L71.66,9.88L65.69,10.36L64.2,10.82L56.73,11.41L55.24,11.98L52.25,12.8L50.76,13.15L44.79,13.91L43.3,14.85L29.86,22.04L28.37,23.6L26.87,24.42L25.38,26.2L17.92,33.61L16.42,36.03L10.45,47.37L8.96,52.03L5.97,70.49L4.48,79.69L2.99,88.74L1.49,103L0,108.3" style="vector-effect: none; fill: none; stroke: rgb(211, 211, 211); stroke-opacity: 1; stroke-width: 1.7px; opacity: 1;"/></g><g class="points"/><g class="text"/></g><g class="trace scatter trace45daa9" style="stroke-miterlimit: 2; opacity: 1;"><g class="fills"/><g class="errorbars"/><g class="lines"><path class="js-line" d="M0,105.54L1.49,97.53L2.99,84.99L8.96,49.71L10.45,45.41L11.94,43.27L13.44,39.77L19.41,31.28L20.9,29.77L29.86,21.17L31.35,20.35L37.32,16.76L38.82,16.6L44.79,13.51L46.28,13.47L55.24,11.68L56.73,11.19L59.72,10.44L61.21,10.71L67.18,9.87L68.68,9.55L83.61,7.98L85.1,7.89L98.53,6.13L100.03,6.42L106,6.4" style="vector-effect: none; fill: none; stroke: rgb(79, 79, 79); stroke-opacity: 1; stroke-width: 1.7px; opacity: 1;"/></g><g class="points"/><g class="text"/></g><g class="trace scatter traceb0bd08" style="stroke-miterlimit: 2; opacity: 1;"><g class="fills"/><g class="errorbars"/><g class="lines"><path class="js-line" d="M0,105.54L14.93,9.54" style="vector-effect: none; fill: none; stroke: rgb(0, 0, 0); stroke-opacity: 1; stroke-dasharray: 3px, 3px; stroke-width: 1.7px; opacity: 1;"/></g><g class="points"/><g class="text"/></g></g></g></g><g class="zerolinelayer-above"/><path class="xlines-above crisp" d="M43.5,144.25H150.5M43.5,29.75H150.5" style="fill: none; stroke-width: 0.5px; stroke: rgb(0, 0, 0); stroke-opacity: 1;"/><path class="ylines-above crisp" d="M43.75,30V144M150.25,30V144" style="fill: none; stroke-width: 0.5px; stroke: rgb(0, 0, 0); stroke-opacity: 1;"/><g class="overlines-above"/><g class="xaxislayer-above"><path class="xtick ticks crisp" d="M0,144v-5" transform="translate(61.9,0)" style="stroke: rgb(0, 0, 0); stroke-opacity: 1; stroke-width: 0.5px;"/><path class="xtick ticks crisp" d="M0,144v-5" transform="translate(91.75999999999999,0)" style="stroke: rgb(0, 0, 0); stroke-opacity: 1; stroke-width: 0.5px;"/><path class="xtick ticks crisp" d="M0,144v-5" transform="translate(121.62,0)" style="stroke: rgb(0, 0, 0); stroke-opacity: 1; stroke-width: 0.5px;"/><g class="xtick"><text text-anchor="middle" x="0" y="157.7" transform="translate(61.9,0)" style="font-family: 'Open Sans', verdana, arial, sans-serif; font-size: 11px; fill: rgb(0, 0, 0); fill-opacity: 1; white-space: pre;">5</text></g><g class="xtick"><text text-anchor="middle" x="0" y="157.7" style="font-family: 'Open Sans', verdana, arial, sans-serif; font-size: 11px; fill: rgb(0, 0, 0); fill-opacity: 1; white-space: pre;" transform="translate(91.75999999999999,0)">10</text></g><g class="xtick"><text text-anchor="middle" x="0" y="157.7" style="font-family: 'Open Sans', verdana, arial, sans-serif; font-size: 11px; fill: rgb(0, 0, 0); fill-opacity: 1; white-space: pre;" transform="translate(121.62,0)">15</text></g></g><g class="yaxislayer-above"><path class="ytick ticks crisp" d="M44,0h5" transform="translate(0,142.23000000000002)" style="stroke: rgb(0, 0, 0); stroke-opacity: 1; stroke-width: 0.5px;"/><path class="ytick ticks crisp" d="M44,0h5" transform="translate(0,126.57)" style="stroke: rgb(0, 0, 0); stroke-opacity: 1; stroke-width: 0.5px;"/><path class="ytick ticks crisp" d="M44,0h5" transform="translate(0,105.87)" style="stroke: rgb(0, 0, 0); stroke-opacity: 1; stroke-width: 0.5px;"/><path class="ytick ticks crisp" d="M44,0h5" transform="translate(0,90.21000000000001)" style="stroke: rgb(0, 0, 0); stroke-opacity: 1; stroke-width: 0.5px;"/><path class="ytick ticks crisp" d="M44,0h5" transform="translate(0,74.55)" style="stroke: rgb(0, 0, 0); stroke-opacity: 1; stroke-width: 0.5px;"/><path class="ytick ticks crisp" d="M44,0h5" transform="translate(0,53.86)" style="stroke: rgb(0, 0, 0); stroke-opacity: 1; stroke-width: 0.5px;"/><path class="ytick ticks crisp" d="M44,0h5" transform="translate(0,38.2)" style="stroke: rgb(0, 0, 0); stroke-opacity: 1; stroke-width: 0.5px;"/><g class="ytick"><text text-anchor="end" x="41.3" y="3.8499999999999996" transform="translate(0,142.23000000000002)" style="font-family: 'Open Sans', verdana, arial, sans-serif; font-size: 11px; fill: rgb(0, 0, 0); fill-opacity: 1; white-space: pre;">0.01</text></g><g class="ytick"><text text-anchor="end" x="41.3" y="2.8874999999999997" style="font-family: 'Open Sans', verdana, arial, sans-serif; font-size: 8.25px; fill: rgb(0, 0, 0); fill-opacity: 1; white-space: pre;" transform="translate(0,126.57)">2</text></g><g class="ytick"><text text-anchor="end" x="41.3" y="2.8874999999999997" style="font-family: 'Open Sans', verdana, arial, sans-serif; font-size: 8.25px; fill: rgb(0, 0, 0); fill-opacity: 1; white-space: pre;" transform="translate(0,105.87)">5</text></g><g class="ytick"><text text-anchor="end" x="41.3" y="3.8499999999999996" style="font-family: 'Open Sans', verdana, arial, sans-serif; font-size: 11px; fill: rgb(0, 0, 0); fill-opacity: 1; white-space: pre;" transform="translate(0,90.21000000000001)">0.1</text></g><g class="ytick"><text text-anchor="end" x="41.3" y="2.8874999999999997" style="font-family: 'Open Sans', verdana, arial, sans-serif; font-size: 8.25px; fill: rgb(0, 0, 0); fill-opacity: 1; white-space: pre;" transform="translate(0,74.55)">2</text></g><g class="ytick"><text text-anchor="end" x="41.3" y="2.8874999999999997" style="font-family: 'Open Sans', verdana, arial, sans-serif; font-size: 8.25px; fill: rgb(0, 0, 0); fill-opacity: 1; white-space: pre;" transform="translate(0,53.86)">5</text></g><g class="ytick"><text text-anchor="end" x="41.3" y="3.8499999999999996" style="font-family: 'Open Sans', verdana, arial, sans-serif; font-size: 11px; fill: rgb(0, 0, 0); fill-opacity: 1; white-space: pre;" transform="translate(0,38.2)">1</text></g></g><g class="overaxes-above"/></g></g><g class="polarlayer"/><g class="smithlayer"/><g class="ternarylayer"/><g class="geolayer"/><g class="funnelarealayer"/><g class="pielayer"/><g class="iciclelayer"/><g class="treemaplayer"/><g class="sunburstlayer"/><g class="glimages"/><defs id="topdefs-c5222e"><g class="clips"/></defs><g class="layer-above"><g class="imagelayer"/><g class="shapelayer"/></g><g class="infolayer"><g class="g-gtitle"><text class="gtitle" x="9" y="15" text-anchor="start" dy="0em" style="opacity: 1; font-family: 'Open Sans', verdana, arial, sans-serif; font-size: 11px; fill: rgb(0, 0, 0); fill-opacity: 1; white-space: pre;">ST 100% CFA medium</text></g><g class="g-xtitle" transform="translate(0,4.550000000000011)"><text class="xtitle" x="97" y="168.1501953125" text-anchor="middle" style="opacity: 1; font-family: 'Open Sans', verdana, arial, sans-serif; font-size: 11px; fill: rgb(0, 0, 0); fill-opacity: 1; white-space: pre;">Time [h]</text></g><g class="g-ytitle"><text class="ytitle" transform="rotate(-90,15.902929687499999,87)" x="15.902929687499999" y="87" text-anchor="middle" style="opacity: 1; font-family: 'Open Sans', verdana, arial, sans-serif; font-size: 11px; fill: rgb(0, 0, 0); fill-opacity: 1; white-space: pre;">OD</text></g><g class="annotation" data-index="0" style="opacity: 1;"><g class="annotation-text-g" transform="rotate(0,91.75999999999999,125.72)"><g class="cursor-pointer" transform="translate(63,116)"><rect class="bg" x="0.5" y="0.5" width="57" height="18" style="stroke-width: 1px; stroke: rgb(0, 0, 0); stroke-opacity: 0; fill: rgb(0, 0, 0); fill-opacity: 0;"/><text class="annotation-text" text-anchor="middle" x="29.171875" y="14" style="font-family: 'Open Sans', verdana, arial, sans-serif; font-size: 11px; fill: rgb(0, 0, 0); fill-opacity: 1; white-space: pre;">µ: 1.70 1/h</text></g></g></g></g></svg>