<svg class="main-svg" xmlns="http://www.w3.org/2000/svg" xmlns:xlink="http://www.w3.org/1999/xlink" width="300" height="300" style="" viewBox="0 0 300 300"><rect x="0" y="0" width="300" height="300" style="fill: rgb(255, 255, 255); fill-opacity: 1;"/><defs id="defs-cbb8b9"><g class="clips"><clipPath id="clipcbb8b9xyplot" class="plotclip"><rect width="226" height="234"/></clipPath><clipPath class="axesclip" id="clipcbb8b9x"><rect x="44" y="0" width="226" height="300"/></clipPath><clipPath class="axesclip" id="clipcbb8b9y"><rect x="0" y="30" width="300" height="234"/></clipPath><clipPath class="axesclip" id="clipcbb8b9xy"><rect x="44" y="30" width="226" height="234"/></clipPath></g><g class="gradients"/><g class="patterns"/></defs><g class="bglayer"/><g class="layer-below"><g class="imagelayer"/><g class="shapelayer"/></g><g class="cartesianlayer"><g class="subplot xy"><g class="layer-subplot"><g class="shapelayer"/><g class="imagelayer"/></g><g class="minor-gridlayer"><g class="x"/><g class="y"/></g><g class="gridlayer"><g class="x"><path class="xgrid crisp" transform="translate(82.17,0)" d="M0,30v234" style="stroke: rgb(128, 128, 128); stroke-opacity: 1; stroke-width: 0.2px;"/><path class="xgrid crisp" transform="translate(145.84,0)" d="M0,30v234" style="stroke: rgb(128, 128, 128); stroke-opacity: 1; stroke-width: 0.2px;"/><path class="xgrid crisp" transform="translate(209.5,0)" d="M0,30v234" style="stroke: rgb(128, 128, 128); stroke-opacity: 1; stroke-width: 0.2px;"/></g><g class="y"><path class="ygrid crisp" transform="translate(0,250.71)" d="M44,0h226" style="stroke: rgb(128, 128, 128); stroke-opacity: 1; stroke-width: 0.2px;"/><path class="ygrid crisp" transform="translate(0,220.06)" d="M44,0h226" style="stroke: rgb(128, 128, 128); stroke-opacity: 1; stroke-width: 0.2px;"/><path class="ygrid crisp" transform="translate(0,189.4)" d="M44,0h226" style="stroke: rgb(128, 128, 128); stroke-opacity: 1; stroke-width: 0.2px;"/><path class="ygrid crisp" transform="translate(0,148.89)" d="M44,0h226" style="stroke: rgb(128, 128, 128); stroke-opacity: 1; stroke-width: 0.2px;"/><path class="ygrid crisp" transform="translate(0,118.24)" d="M44,0h226" style="stroke: rgb(128, 128, 128); stroke-opacity: 1; stroke-width: 0.2px;"/><path class="ygrid crisp" transform="translate(0,87.59)" d="M44,0h226" style="stroke: rgb(128, 128, 128); stroke-opacity: 1; stroke-width: 0.2px;"/><path class="ygrid crisp" transform="translate(0,47.07)" d="M44,0h226" style="stroke: rgb(128, 128, 128); stroke-opacity: 1; stroke-width: 0.2px;"/></g></g><g class="zerolinelayer"/><g class="layer-between"><g class="shapelayer"/><g class="imagelayer"/></g><path class="xlines-below"/><path class="ylines-below"/><g class="overlines-below"/><g class="xaxislayer-below"/><g class="yaxislayer-below"/><g class="overaxes-below"/><g class="overplot"><g class="xy" transform="translate(44,30)" clip-path="url(#clipcbb8b9xyplot)"><g class="scatterlayer mlayer"><g class="trace scatter trace14efff" style="stroke-miterlimit: 2; opacity: 1;"><g class="fills"><g><path class="js-fill" d="M0,204.15L3.18,190.52L6.37,163.77L19.1,100.62L22.28,91.6L28.65,82.91L31.83,75.56L41.38,52.79L44.56,47.62L54.11,35.15L57.3,31.49L63.66,25.82L66.85,23.22L70.03,21.81L73.21,18.93L76.39,17.37L79.58,14.7L89.13,11.89L92.31,11.7L95.49,13.51L98.68,12.79L105.04,13.11L108.22,13.53L114.59,13.39L117.77,14.04L120.96,14.33L124.14,13.84L136.87,13.97L140.06,14.54L159.15,15.34L162.34,15.17L165.52,14.24L168.7,14.52L175.07,15.28L178.25,14.96L181.44,15.85L184.62,15.57L187.8,16.05L190.99,15.66L197.35,15.99L200.53,16.25L210.08,16.21L213.27,16.99L219.63,16.69L222.82,17.51L226,17.71L226,19.34L216.45,18.19L213.27,18.33L200.53,18.16L197.35,17.5L194.17,17.71L190.99,16.91L184.62,17.06L181.44,16.64L175.07,17.25L171.89,17.24L168.7,16.16L165.52,15.95L162.34,17.43L159.15,17.66L149.6,17.08L146.42,16.05L143.24,17.2L140.06,16.93L130.51,16.27L127.32,16.48L108.22,15.45L105.04,14.84L95.49,14.8L92.31,16.45L85.94,19.76L82.76,22.01L76.39,25.36L73.21,28.17L66.85,33.63L63.66,36.92L57.3,43.97L54.11,49.21L50.93,51.71L47.75,59.39L38.2,76.45L35.01,81.49L31.83,86.4L28.65,96.25L19.1,132.27L15.92,148.15L9.55,180.12L6.37,189.05L3.18,214.03L0,222.3Z" style="fill: rgb(211, 211, 211); fill-opacity: 1; stroke-width: 0;"/></g></g><g class="errorbars"/><g class="lines"><path class="js-line" d="M0,204.15L3.18,190.52L6.37,163.77L19.1,100.62L22.28,91.6L28.65,82.91L31.83,75.56L41.38,52.79L44.56,47.62L54.11,35.15L57.3,31.49L63.66,25.82L66.85,23.22L70.03,21.81L73.21,18.93L76.39,17.37L79.58,14.7L89.13,11.89L92.31,11.7L95.49,13.51L98.68,12.79L105.04,13.11L108.22,13.53L114.59,13.39L117.77,14.04L120.96,14.33L124.14,13.84L136.87,13.97L140.06,14.54L159.15,15.34L162.34,15.17L165.52,14.24L168.7,14.52L175.07,15.28L178.25,14.96L181.44,15.85L184.62,15.57L187.8,16.05L190.99,15.66L197.35,15.99L200.53,16.25L210.08,16.21L213.27,16.99L219.63,16.69L222.82,17.51L226,17.71L226,19.34L216.45,18.19L213.27,18.33L200.53,18.16L197.35,17.5L194.17,17.71L190.99,16.91L184.62,17.06L181.44,16.64L175.07,17.25L171.89,17.24L168.7,16.16L165.52,15.95L162.34,17.43L159.15,17.66L149.6,17.08L146.42,16.05L143.24,17.2L140.06,16.93L130.51,16.27L127.32,16.48L108.22,15.45L105.04,14.84L95.49,14.8L92.31,16.45L85.94,19.76L82.76,22.01L76.39,25.36L73.21,28.17L66.85,33.63L63.66,36.92L57.3,43.97L54.11,49.21L50.93,51.71L47.75,59.39L38.2,76.45L35.01,81.49L31.83,86.4L28.65,96.25L19.1,132.27L15.92,148.15L9.55,180.12L6.37,189.05L3.18,214.03L0,222.3" style="vector-effect: none; fill: none; stroke: rgb(211, 211, 211); stroke-opacity: 1; stroke-width: 1px; opacity: 1;"/></g><g class="points"/><g class="text"/></g><g class="trace scatter trace1dc8c1" style="stroke-miterlimit: 2; opacity: 1;"><g class="fills"/><g class="errorbars"/><g class="lines"><path class="js-line" d="M0,212.16L3.18,200.67L6.37,174.55L12.73,143.59L15.92,128.46L19.1,113.51L22.28,103.71L35.01,73.93L38.2,67.29L44.56,55.58L47.75,50.4L50.93,44.65L54.11,41.56L60.48,33.79L63.66,30.97L73.21,23.27L76.39,21.15L79.58,18.81L82.76,17.57L92.31,14.01L95.49,14.16L101.86,14.1L105.04,13.95L111.41,14.64L114.59,14.65L124.14,15.07L127.32,15.1L143.24,15.96L146.42,15.19L152.79,16.39L155.97,16.49L162.34,16.29L165.52,15.1L181.44,16.25L184.62,16.3L194.17,16.57L197.35,16.73L203.72,17.22L206.9,16.88L216.45,17.57L219.63,17.49L226,18.53" style="vector-effect: none; fill: none; stroke: rgb(79, 79, 79); stroke-opacity: 1; stroke-width: 1px; opacity: 1;"/></g><g class="points"/><g class="text"/></g><g class="trace scatter trace52782c" style="stroke-miterlimit: 2; opacity: 1;"><g class="fills"/><g class="errorbars"/><g class="lines"><path class="js-line" d="M0,212.16L38.2,26.44" style="vector-effect: none; fill: none; stroke: rgb(79, 79, 79); stroke-opacity: 1; stroke-dasharray: 3px, 3px; stroke-width: 1px; opacity: 1;"/></g><g class="points"/><g class="text"/></g></g></g></g><g class="zerolinelayer-above"/><path class="xlines-above crisp" d="M43.5,264.25H270.5M43.5,29.75H270.5" style="fill: none; stroke-width: 0.5px; stroke: rgb(0, 0, 0); stroke-opacity: 1;"/><path class="ylines-above crisp" d="M43.75,30V264M270.25,30V264" style="fill: none; stroke-width: 0.5px; stroke: rgb(0, 0, 0); stroke-opacity: 1;"/><g class="overlines-above"/><g class="xaxislayer-above"><path class="xtick ticks crisp" d="M0,264v-5" transform="translate(82.17,0)" style="stroke: rgb(0, 0, 0); stroke-opacity: 1; stroke-width: 0.5px;"/><path class="xtick ticks crisp" d="M0,264v-5" transform="translate(145.84,0)" style="stroke: rgb(0, 0, 0); stroke-opacity: 1; stroke-width: 0.5px;"/><path class="xtick ticks crisp" d="M0,264v-5" transform="translate(209.5,0)" style="stroke: rgb(0, 0, 0); stroke-opacity: 1; stroke-width: 0.5px;"/><g class="xtick"><text text-anchor="middle" x="0" y="277.7" transform="translate(82.17,0)" style="font-family: 'Open Sans', verdana, arial, sans-serif; font-size: 11px; fill: rgb(0, 0, 0); fill-opacity: 1; white-space: pre;">5</text></g><g class="xtick"><text text-anchor="middle" x="0" y="277.7" style="font-family: 'Open Sans', verdana, arial, sans-serif; font-size: 11px; fill: rgb(0, 0, 0); fill-opacity: 1; white-space: pre;" transform="translate(145.84,0)">10</text></g><g class="xtick"><text text-anchor="middle" x="0" y="277.7" style="font-family: 'Open Sans', verdana, arial, sans-serif; font-size: 11px; fill: rgb(0, 0, 0); fill-opacity: 1; white-space: pre;" transform="translate(209.5,0)">15</text></g></g><g class="yaxislayer-above"><path class="ytick ticks crisp" d="M44,0h5" transform="translate(0,250.71)" style="stroke: rgb(0, 0, 0); stroke-opacity: 1; stroke-width: 0.5px;"/><path class="ytick ticks crisp" d="M44,0h5" transform="translate(0,220.06)" style="stroke: rgb(0, 0, 0); stroke-opacity: 1; stroke-width: 0.5px;"/><path class="ytick ticks crisp" d="M44,0h5" transform="translate(0,189.4)" style="stroke: rgb(0, 0, 0); stroke-opacity: 1; stroke-width: 0.5px;"/><path class="ytick ticks crisp" d="M44,0h5" transform="translate(0,148.89)" style="stroke: rgb(0, 0, 0); stroke-opacity: 1; stroke-width: 0.5px;"/><path class="ytick ticks crisp" d="M44,0h5" transform="translate(0,118.24)" style="stroke: rgb(0, 0, 0); stroke-opacity: 1; stroke-width: 0.5px;"/><path class="ytick ticks crisp" d="M44,0h5" transform="translate(0,87.59)" style="stroke: rgb(0, 0, 0); stroke-opacity: 1; stroke-width: 0.5px;"/><path class="ytick ticks crisp" d="M44,0h5" transform="translate(0,47.07)" style="stroke: rgb(0, 0, 0); stroke-opacity: 1; stroke-width: 0.5px;"/><g class="ytick"><text text-anchor="end" x="41.3" y="2.8874999999999997" transform="translate(0,250.71)" style="font-family: 'Open Sans', verdana, arial, sans-serif; font-size: 8.25px; fill: rgb(0, 0, 0); fill-opacity: 1; white-space: pre;">5</text></g><g class="ytick"><text text-anchor="end" x="41.3" y="3.8499999999999996" style="font-family: 'Open Sans', verdana, arial, sans-serif; font-size: 11px; fill: rgb(0, 0, 0); fill-opacity: 1; white-space: pre;" transform="translate(0,220.06)">0.01</text></g><g class="ytick"><text text-anchor="end" x="41.3" y="2.8874999999999997" style="font-family: 'Open Sans', verdana, arial, sans-serif; font-size: 8.25px; fill: rgb(0, 0, 0); fill-opacity: 1; white-space: pre;" transform="translate(0,189.4)">2</text></g><g class="ytick"><text text-anchor="end" x="41.3" y="2.8874999999999997" style="font-family: 'Open Sans', verdana, arial, sans-serif; font-size: 8.25px; fill: rgb(0, 0, 0); fill-opacity: 1; white-space: pre;" transform="translate(0,148.89)">5</text></g><g class="ytick"><text text-anchor="end" x="41.3" y="3.8499999999999996" style="font-family: 'Open Sans', verdana, arial, sans-serif; font-size: 11px; fill: rgb(0, 0, 0); fill-opacity: 1; white-space: pre;" transform="translate(0,118.24)">0.1</text></g><g class="ytick"><text text-anchor="end" x="41.3" y="2.8874999999999997" style="font-family: 'Open Sans', verdana, arial, sans-serif; font-size: 8.25px; fill: rgb(0, 0, 0); fill-opacity: 1; white-space: pre;" transform="translate(0,87.59)">2</text></g><g class="ytick"><text text-anchor="end" x="41.3" y="2.8874999999999997" style="font-family: 'Open Sans', verdana, arial, sans-serif; font-size: 8.25px; fill: rgb(0, 0, 0); fill-opacity: 1; white-space: pre;" transform="translate(0,47.07)">5</text></g></g><g class="overaxes-above"/></g></g><g class="polarlayer"/><g class="smithlayer"/><g class="ternarylayer"/><g class="geolayer"/><g class="funnelarealayer"/><g class="pielayer"/><g class="iciclelayer"/><g class="treemaplayer"/><g class="sunburstlayer"/><g class="glimages"/><defs id="topdefs-cbb8b9"><g class="clips"/></defs><g class="layer-above"><g class="imagelayer"/><g class="shapelayer"/></g><g class="infolayer"><g class="g-gtitle"><text class="gtitle" x="15" y="15" text-anchor="start" dy="0em" style="opacity: 1; font-family: 'Open Sans', verdana, arial, sans-serif; font-size: 11px; fill: rgb(0, 0, 0); fill-opacity: 1; white-space: pre;">ST 25% CFA medium</text></g><g class="g-xtitle" transform="translate(0,4.550000000000011)"><text class="xtitle" x="157" y="288.1501953125" text-anchor="middle" style="opacity: 1; font-family: 'Open Sans', verdana, arial, sans-serif; font-size: 11px; fill: rgb(0, 0, 0); fill-opacity: 1; white-space: pre;">Time [h]</text></g><g class="g-ytitle"><text class="ytitle" transform="rotate(-90,15.902929687499999,147)" x="15.902929687499999" y="147" text-anchor="middle" style="opacity: 1; font-family: 'Open Sans', verdana, arial, sans-serif; font-size: 11px; fill: rgb(0, 0, 0); fill-opacity: 1; white-space: pre;">OD</text></g><g class="annotation" data-index="0" style="opacity: 1;"><g class="annotation-text-g" transform="rotate(0,145.84,178.65)"><g class="cursor-pointer" transform="translate(117,169)"><rect class="bg" x="0.5" y="0.5" width="57" height="18" style="stroke-width: 1px; stroke: rgb(0, 0, 0); stroke-opacity: 0; fill: rgb(0, 0, 0); fill-opacity: 0;"/><text class="annotation-text" text-anchor="middle" x="29.171875" y="14" style="font-family: 'Open Sans', verdana, arial, sans-serif; font-size: 11px; fill: rgb(0, 0, 0); fill-opacity: 1; white-space: pre;">µ: 1.40 1/h</text></g></g></g></g></svg>