<svg class="main-svg" xmlns="http://www.w3.org/2000/svg" xmlns:xlink="http://www.w3.org/1999/xlink" width="150" height="150" style="" viewBox="0 0 150 150"><rect x="0" y="0" width="150" height="150" style="fill: rgb(255, 255, 255); fill-opacity: 1;"/><defs id="defs-4e82ac"><g class="clips"><clipPath id="clip4e82acxyplot" class="plotclip"><rect width="109" height="118"/></clipPath><clipPath class="axesclip" id="clip4e82acx"><rect x="40" y="0" width="109" height="150"/></clipPath><clipPath class="axesclip" id="clip4e82acy"><rect x="0" y="1" width="150" height="118"/></clipPath><clipPath class="axesclip" id="clip4e82acxy"><rect x="40" y="1" width="109" height="118"/></clipPath></g><g class="gradients"/><g class="patterns"/></defs><g class="bglayer"/><g class="layer-below"><g class="imagelayer"/><g class="shapelayer"/></g><g class="cartesianlayer"><g class="subplot xy"><g class="layer-subplot"><g class="shapelayer"/><g class="imagelayer"/></g><g class="minor-gridlayer"><g class="x"/><g class="y"/></g><g class="gridlayer"><g class="x"><path class="xgrid crisp" transform="translate(58.41,0)" d="M0,1v118" style="stroke: rgb(128, 128, 128); stroke-opacity: 1; stroke-width: 0.2px;"/><path class="xgrid crisp" transform="translate(89.12,0)" d="M0,1v118" style="stroke: rgb(128, 128, 128); stroke-opacity: 1; stroke-width: 0.2px;"/><path class="xgrid crisp" transform="translate(119.82,0)" d="M0,1v118" style="stroke: rgb(128, 128, 128); stroke-opacity: 1; stroke-width: 0.2px;"/></g><g class="y"><path class="ygrid crisp" transform="translate(0,117.17)" d="M40,0h109" style="stroke: rgb(128, 128, 128); stroke-opacity: 1; stroke-width: 0.2px;"/><path class="ygrid crisp" transform="translate(0,100.96)" d="M40,0h109" style="stroke: rgb(128, 128, 128); stroke-opacity: 1; stroke-width: 0.2px;"/><path class="ygrid crisp" transform="translate(0,79.53)" d="M40,0h109" style="stroke: rgb(128, 128, 128); stroke-opacity: 1; stroke-width: 0.2px;"/><path class="ygrid crisp" transform="translate(0,63.33)" d="M40,0h109" style="stroke: rgb(128, 128, 128); stroke-opacity: 1; stroke-width: 0.2px;"/><path class="ygrid crisp" transform="translate(0,47.12)" d="M40,0h109" style="stroke: rgb(128, 128, 128); stroke-opacity: 1; stroke-width: 0.2px;"/><path class="ygrid crisp" transform="translate(0,25.69)" d="M40,0h109" style="stroke: rgb(128, 128, 128); stroke-opacity: 1; stroke-width: 0.2px;"/><path class="ygrid crisp" transform="translate(0,9.49)" d="M40,0h109" style="stroke: rgb(128, 128, 128); stroke-opacity: 1; stroke-width: 0.2px;"/></g></g><g class="zerolinelayer"/><g class="layer-between"><g class="shapelayer"/><g class="imagelayer"/></g><path class="xlines-below"/><path class="ylines-below"/><g class="overlines-below"/><g class="xaxislayer-below"/><g class="yaxislayer-below"/><g class="overaxes-below"/><g class="overplot"><g class="xy" transform="translate(40,1)" clip-path="url(#clip4e82acxyplot)"><g class="scatterlayer mlayer"><g class="trace scatter trace1c075e" style="stroke-miterlimit: 2; opacity: 1;"><g class="fills"><g><path class="js-fill" d="M0,106.75L7.68,53.72L9.21,49.28L10.75,45.13L12.28,43.38L15.35,37.62L16.89,34.96L19.96,31.38L21.49,30.18L30.7,21.06L32.24,20.3L38.38,16.45L39.92,16.4L47.59,13.45L49.13,13.12L50.66,12.35L52.2,12.51L61.41,10.45L62.94,10.83L67.55,9.21L69.08,9.65L82.9,8.15L84.44,8.19L95.18,6.89L96.72,6.71L98.25,6.75L99.79,5.91L109,6.42L109,6.84L104.39,6.6L102.86,6.82L95.18,7.27L93.65,7.35L89.04,8.64L87.51,8.66L82.9,9.08L81.37,9.45L58.34,11.81L56.8,12.4L53.73,13.25L52.2,13.61L46.06,14.4L44.52,15.37L30.7,22.81L29.17,24.43L27.63,25.28L26.1,27.12L18.42,34.79L16.89,37.3L10.75,49.03L9.21,53.85L6.14,72.97L4.61,82.48L3.07,91.85L1.54,106.61L0,112.1Z" style="fill: rgb(241, 162, 162); fill-opacity: 1; stroke-width: 0;"/></g></g><g class="errorbars"/><g class="lines"><path class="js-line" d="M0,106.75L7.68,53.72L9.21,49.28L10.75,45.13L12.28,43.38L15.35,37.62L16.89,34.96L19.96,31.38L21.49,30.18L30.7,21.06L32.24,20.3L38.38,16.45L39.92,16.4L47.59,13.45L49.13,13.12L50.66,12.35L52.2,12.51L61.41,10.45L62.94,10.83L67.55,9.21L69.08,9.65L82.9,8.15L84.44,8.19L95.18,6.89L96.72,6.71L98.25,6.75L99.79,5.91L109,6.42L109,6.84L104.39,6.6L102.86,6.82L95.18,7.27L93.65,7.35L89.04,8.64L87.51,8.66L82.9,9.08L81.37,9.45L58.34,11.81L56.8,12.4L53.73,13.25L52.2,13.61L46.06,14.4L44.52,15.37L30.7,22.81L29.17,24.43L27.63,25.28L26.1,27.12L18.42,34.79L16.89,37.3L10.75,49.03L9.21,53.85L6.14,72.97L4.61,82.48L3.07,91.85L1.54,106.61L0,112.1" style="vector-effect: none; fill: none; stroke: rgb(241, 162, 162); stroke-opacity: 1; stroke-width: 1px; opacity: 1;"/></g><g class="points"/><g class="text"/></g><g class="trace scatter trace1a4448" style="stroke-miterlimit: 2; opacity: 1;"><g class="fills"/><g class="errorbars"/><g class="lines"><path class="js-line" d="M0,109.25L1.54,100.95L3.07,87.98L9.21,51.46L10.75,47L12.28,44.79L13.82,41.17L19.96,32.38L21.49,30.81L30.7,21.91L32.24,21.06L36.85,18.32L38.38,17.35L41.45,16.29L42.99,15.4L47.59,13.94L49.13,13.76L52.2,13.05L53.73,12.75L67.55,9.96L69.08,10.21L78.3,8.77L79.83,8.8L104.39,6.51L105.93,6.5L109,6.63" style="vector-effect: none; fill: none; stroke: rgb(222, 89, 89); stroke-opacity: 1; stroke-width: 1px; opacity: 1;"/></g><g class="points"/><g class="text"/></g><g class="trace scatter trace710ee0" style="stroke-miterlimit: 2; opacity: 1;"><g class="fills"/><g class="errorbars"/><g class="lines"><path class="js-line" d="M0,109.25L15.35,9.87" style="vector-effect: none; fill: none; stroke: rgb(222, 89, 89); stroke-opacity: 1; stroke-dasharray: 3px, 3px; stroke-width: 1px; opacity: 1;"/></g><g class="points"/><g class="text"/></g></g></g></g><g class="zerolinelayer-above"/><path class="xlines-above crisp" d="M39.5,119.25H149.5M39.5,0.75H149.5" style="fill: none; stroke-width: 0.5px; stroke: rgb(0, 0, 0); stroke-opacity: 1;"/><path class="ylines-above crisp" d="M39.75,1V119M149.25,1V119" style="fill: none; stroke-width: 0.5px; stroke: rgb(0, 0, 0); stroke-opacity: 1;"/><g class="overlines-above"/><g class="xaxislayer-above"><g class="xtick"><text text-anchor="middle" x="0" y="136.3" transform="translate(58.41,0)" style="font-family: 'Open Sans', verdana, arial, sans-serif; font-size: 14px; fill: rgb(0, 0, 0); fill-opacity: 1; white-space: pre;">5</text></g><g class="xtick"><text text-anchor="middle" x="0" y="136.3" style="font-family: 'Open Sans', verdana, arial, sans-serif; font-size: 14px; fill: rgb(0, 0, 0); fill-opacity: 1; white-space: pre;" transform="translate(89.12,0)">10</text></g><g class="xtick"><text text-anchor="middle" x="0" y="136.3" style="font-family: 'Open Sans', verdana, arial, sans-serif; font-size: 14px; fill: rgb(0, 0, 0); fill-opacity: 1; white-space: pre;" transform="translate(119.82,0)">15</text></g></g><g class="yaxislayer-above"><g class="ytick"><text text-anchor="end" x="36.7" y="4.8999999999999995" transform="translate(0,117.17)" style="font-family: 'Open Sans', verdana, arial, sans-serif; font-size: 14px; fill: rgb(0, 0, 0); fill-opacity: 1; white-space: pre;">0.01</text></g><g class="ytick"><text text-anchor="end" x="36.7" y="3.675" style="font-family: 'Open Sans', verdana, arial, sans-serif; font-size: 10.5px; fill: rgb(0, 0, 0); fill-opacity: 1; white-space: pre;" transform="translate(0,100.96)">2</text></g><g class="ytick"><text text-anchor="end" x="36.7" y="3.675" style="font-family: 'Open Sans', verdana, arial, sans-serif; font-size: 10.5px; fill: rgb(0, 0, 0); fill-opacity: 1; white-space: pre;" transform="translate(0,79.53)">5</text></g><g class="ytick"><text text-anchor="end" x="36.7" y="4.8999999999999995" style="font-family: 'Open Sans', verdana, arial, sans-serif; font-size: 14px; fill: rgb(0, 0, 0); fill-opacity: 1; white-space: pre;" transform="translate(0,63.33)">0.1</text></g><g class="ytick"><text text-anchor="end" x="36.7" y="3.675" style="font-family: 'Open Sans', verdana, arial, sans-serif; font-size: 10.5px; fill: rgb(0, 0, 0); fill-opacity: 1; white-space: pre;" transform="translate(0,47.12)">2</text></g><g class="ytick"><text text-anchor="end" x="36.7" y="3.675" style="font-family: 'Open Sans', verdana, arial, sans-serif; font-size: 10.5px; fill: rgb(0, 0, 0); fill-opacity: 1; white-space: pre;" transform="translate(0,25.69)">5</text></g><g class="ytick"/></g><g class="overaxes-above"/></g></g><g class="polarlayer"/><g class="smithlayer"/><g class="ternarylayer"/><g class="geolayer"/><g class="funnelarealayer"/><g class="pielayer"/><g class="iciclelayer"/><g class="treemaplayer"/><g class="sunburstlayer"/><g class="glimages"/><defs id="topdefs-4e82ac"><g class="clips"/></defs><g class="layer-above"><g class="imagelayer"/><g class="shapelayer"/></g><g class="infolayer"><g class="g-gtitle"/><g class="g-xtitle" transform="translate(0,-3.8498046875000114)"><text class="xtitle" x="94.5" y="149.8498046875" text-anchor="middle" style="opacity: 1; font-family: 'Open Sans', verdana, arial, sans-serif; font-size: 14px; fill: rgb(0, 0, 0); fill-opacity: 1; white-space: pre;">Time [h]</text></g><g class="g-ytitle" transform="translate(10.7001953125,0)"><text class="ytitle" transform="rotate(-90,4.300195312500001,60)" x="4.300195312500001" y="60" text-anchor="middle" style="opacity: 1; font-family: 'Open Sans', verdana, arial, sans-serif; font-size: 14px; fill: rgb(0, 0, 0); fill-opacity: 1; white-space: pre;">OD</text></g><g class="annotation" data-index="0" style="opacity: 1;"><g class="annotation-text-g" transform="rotate(0,89.12,101.75)"><g class="cursor-pointer" transform="translate(53,90)"><rect class="bg" x="0.5" y="0.5" width="72" height="22" style="stroke-width: 1px; stroke: rgb(0, 0, 0); stroke-opacity: 0; fill: rgb(0, 0, 0); fill-opacity: 0;"/><text class="annotation-text" text-anchor="middle" x="36.578125" y="17" style="font-family: 'Open Sans', verdana, arial, sans-serif; font-size: 14px; fill: rgb(0, 0, 0); fill-opacity: 1; white-space: pre;">µ: 1.70 1/h</text></g></g></g></g></svg>