<svg class="main-svg" xmlns="http://www.w3.org/2000/svg" xmlns:xlink="http://www.w3.org/1999/xlink" width="150" height="150" style="" viewBox="0 0 150 150"><rect x="0" y="0" width="150" height="150" style="fill: rgb(255, 255, 255); fill-opacity: 1;"/><defs id="defs-6d214c"><g class="clips"><clipPath id="clip6d214cxyplot" class="plotclip"><rect width="64" height="104"/></clipPath><clipPath class="axesclip" id="clip6d214cx"><rect x="27" y="0" width="64" height="150"/></clipPath><clipPath class="axesclip" id="clip6d214cy"><rect x="0" y="10" width="150" height="104"/></clipPath><clipPath class="axesclip" id="clip6d214cxy"><rect x="27" y="10" width="64" height="104"/></clipPath></g><g class="gradients"/><g class="patterns"/></defs><g class="bglayer"/><g class="layer-below"><g class="imagelayer"/><g class="shapelayer"/></g><g class="cartesianlayer"><g class="subplot xy"><g class="layer-subplot"><g class="shapelayer"/><g class="imagelayer"/></g><g class="minor-gridlayer"><g class="x"/><g class="y"/></g><g class="gridlayer"><g class="x"><path class="xgrid crisp" transform="translate(37.67,0)" d="M0,10v104" style="stroke: rgb(128, 128, 128); stroke-opacity: 1; stroke-width: 0.2px;"/><path class="xgrid crisp" transform="translate(48.33,0)" d="M0,10v104" style="stroke: rgb(128, 128, 128); stroke-opacity: 1; stroke-width: 0.2px;"/><path class="xgrid crisp" transform="translate(59,0)" d="M0,10v104" style="stroke: rgb(128, 128, 128); stroke-opacity: 1; stroke-width: 0.2px;"/><path class="xgrid crisp" transform="translate(69.67,0)" d="M0,10v104" style="stroke: rgb(128, 128, 128); stroke-opacity: 1; stroke-width: 0.2px;"/><path class="xgrid crisp" transform="translate(80.33,0)" d="M0,10v104" style="stroke: rgb(128, 128, 128); stroke-opacity: 1; stroke-width: 0.2px;"/></g><g class="y"><path class="ygrid crisp" transform="translate(0,96.67)" d="M27,0h64" style="stroke: rgb(128, 128, 128); stroke-opacity: 1; stroke-width: 0.2px;"/><path class="ygrid crisp" transform="translate(0,79.33)" d="M27,0h64" style="stroke: rgb(128, 128, 128); stroke-opacity: 1; stroke-width: 0.2px;"/><path class="ygrid crisp" transform="translate(0,62)" d="M27,0h64" style="stroke: rgb(128, 128, 128); stroke-opacity: 1; stroke-width: 0.2px;"/><path class="ygrid crisp" transform="translate(0,44.67)" d="M27,0h64" style="stroke: rgb(128, 128, 128); stroke-opacity: 1; stroke-width: 0.2px;"/><path class="ygrid crisp" transform="translate(0,27.33)" d="M27,0h64" style="stroke: rgb(128, 128, 128); stroke-opacity: 1; stroke-width: 0.2px;"/></g></g><g class="zerolinelayer"/><g class="layer-between"><g class="shapelayer"/><g class="imagelayer"/></g><path class="xlines-below"/><path class="ylines-below"/><g class="overlines-below"/><g class="xaxislayer-below"/><g class="yaxislayer-below"/><g class="overaxes-below"/><g class="overplot"><g class="xy" transform="translate(27,10)" clip-path="url(#clip6d214cxyplot)"><g class="scatterlayer mlayer"><g class="trace scatter tracecf914e" style="stroke-miterlimit: 2; opacity: 1;"><g class="fills"/><g class="errorbars"/><g class="lines"><path class="js-line" d="M3.67,500.27L9.34,163.84L9.67,158.67L14.67,123.23L15,121.55L16.67,114.12L17,116.65L17.34,113.02L18,111.71L18.34,113.34L20.67,107.45L21,108.84L22.34,104.93L22.67,105.21L23,100.32L23.67,100.71L24,100.63L24.34,98.83L24.67,99.57L25,99.68L25.34,99.46L25.67,100.48L26.67,98.72L27,98.16L27.67,99.4L28,97.93L28.67,96.44L29,98.01L29.34,96.32L29.67,96.49L30,96.9L30.34,96.16L30.67,98.14L31.34,96L31.67,98.46L32,98.5L32.34,97.32L33.67,99.81L34,99.4L35,100.67L35.34,99.03L35.67,102.43L36.34,101.59L36.67,102.52L37.34,100.91L37.67,101.97L38.34,103.44L38.67,100.17L39.34,103.31L39.67,102.81L40,103.9L40.67,100.64L41,101.49L41.34,103.86L42,102.06L42.34,103.38L42.67,103.77L43,102.94L43.34,104.2L43.67,102.07L44.67,103.07L45,102.54L45.34,103.44L46,103.12L46.34,103.05L46.67,101.55L47,102.62L47.34,103.15L48.34,101.47L48.67,102.45L49.67,101.33L50,101.69L50.34,102.02L51.34,102.94L51.67,102.94L52.34,101.97L52.67,102.61L53,102.85L53.67,102.02L54,102.4L54.34,102.35L55,100.59L55.34,101.92L56.34,101.03L56.67,101.3L57,102.51L57.34,101.42L57.67,101.56L58,102.27L58.34,101.93L58.67,101.92L59,101.58L59.34,102.04L59.67,102.1L61.34,100.96L61.67,101.59L64,100.8" style="vector-effect: none; fill: none; stroke: rgb(222, 89, 89); stroke-opacity: 1; stroke-width: 1px; opacity: 1;"/></g><g class="points"/><g class="text"/></g><g class="trace scatter trace1f3dba" style="stroke-miterlimit: 2; opacity: 1;"><g class="fills"/><g class="errorbars"/><g class="lines"><path class="js-line" d="M3.34,504.57L9,163.18L9.34,156.66L11.34,140.74L11.67,136.47L15.34,119.49L15.67,117.27L16.67,118.15L18.34,112.16L18.67,113.44L19,110.87L19.34,108.31L20,111.37L20.34,110.4L21,105.94L21.67,107.13L22,107.22L22.67,102.06L23.34,102.27L23.67,102.65L24.34,102L24.67,99.96L25,100.17L25.34,98.57L26.34,100.48L26.67,99.39L28.67,101.69L29,98.73L29.67,101.26L30,99.37L30.34,98.23L30.67,100.57L31.67,97.04L32,99.54L32.67,103.64L33,102.21L33.34,102.28L33.67,103.87L34,103.18L34.34,100.7L35.67,105.56L36,104.12L36.67,106.94L37,104.13L37.67,104.33L38,102.07L38.67,106.8L39,105.68L39.34,103.5L40.67,105.9L41,104.46L41.34,104.26L41.67,105.71L42,106.68L42.34,104.45L43.34,107.99L43.67,107.63L44,104.74L44.67,107.55L45.34,107.25L45.67,107.24L46,107.85L46.34,105.94L47.34,107.34L47.67,105.68L50.34,108.11L50.67,107.69L51.34,106L51.67,106.95L52,107.19L53.34,106.36L53.67,107.07L54,107.15L54.34,105.75L55.34,106.28L55.67,107.3L57,107.07L57.34,106.36L59,105.08L59.34,105.96L60.67,105.08L61,105.34L61.34,105.19L61.67,103.84L62.34,105.37L62.67,104.96L63,104.91L63.34,105.46" style="vector-effect: none; fill: none; stroke: rgb(222, 89, 89); stroke-opacity: 1; stroke-width: 1px; opacity: 1;"/></g><g class="points"/><g class="text"/></g><g class="trace scatter trace57d319" style="stroke-miterlimit: 2; opacity: 1;"><g class="fills"/><g class="errorbars"/><g class="lines"><path class="js-line" d="M3,529.99L8.67,161.62L9,156.42L13.67,117.78L14,120.04L16.67,111.07L17,106.58L17.34,106.57L17.67,108.98L18,108.66L18.34,106.34L19,104.7L19.34,105.97L20.34,100.71L20.67,103.24L21,104.16L21.34,102.61L22,98.72L22.34,100.84L22.67,100.06L23.67,98.38L24,98.64L24.34,94.83L24.67,94.46L25,97.48L25.34,97.73L25.67,95.16L26.34,97.44L26.67,97.26L27,96.44L27.34,95.71L27.67,93.06L28.67,96.89L29,97.42L29.34,96.8L29.67,97.22L30,98.75L31,99.14L31.34,99.68L31.67,100.31L32,97.84L32.34,101.35L33,100.81L33.34,101.16L34,99.58L34.34,100.41L34.67,99.95L35,100.98L35.34,100.55L35.67,101.78L36,102.5L36.34,101.33L37,103.75L37.34,101.94L38.67,104.68L39,101.63L39.34,103.8L39.67,101.49L40,101.65L40.34,104.22L40.67,101.58L41,103.31L41.67,102.16L42,104.65L43,101.33L43.34,102.77L44.34,102.07L44.67,102.65L45,101.49L45.34,101.69L45.67,102.64L46,103.65L46.34,102.34L46.67,102.33L47.34,101.14L47.67,102.65L48,102.16L48.34,103.12L49.34,101.8L49.67,102.61L50.67,103.28L51,102.11L51.67,102.8L52,102.95L52.34,101.66L52.67,102.51L53,102.11L53.67,102.62L54,102.34L55,102.23L55.34,101.93L56.34,102.07L56.67,101.65L57.67,101.71L58,101.44L58.67,101.26L59,101.13L61,101.2L61.34,100.95L63,99.61L63.34,100.5L63.67,99.87L64,100.07" style="vector-effect: none; fill: none; stroke: rgb(222, 89, 89); stroke-opacity: 1; stroke-width: 1px; opacity: 1;"/></g><g class="points"/><g class="text"/></g><g class="trace scatter trace7cde21" style="stroke-miterlimit: 2; opacity: 1;"><g class="fills"/><g class="errorbars"/><g class="lines"><path class="js-line" d="M0,702.67L9,120.7L9.34,114.89L11,100.4L11.34,99.21L13,96.53L13.34,96.32L16.34,95.78L16.67,95.77L42.34,95.74L42.67,95.74L64,95.74" style="vector-effect: none; fill: none; stroke: rgb(222, 89, 89); stroke-opacity: 1; stroke-dasharray: 9px, 9px; stroke-width: 1px; opacity: 1;"/></g><g class="points"/><g class="text"/></g></g></g></g><path class="xlines-above crisp" d="M26.5,114.25H91.5M26.5,9.75H91.5" style="fill: none; stroke-width: 0.5px; stroke: rgb(0, 0, 0); stroke-opacity: 1;"/><path class="ylines-above crisp" d="M26.75,10V114M91.25,10V114" style="fill: none; stroke-width: 0.5px; stroke: rgb(0, 0, 0); stroke-opacity: 1;"/><g class="overlines-above"/><g class="xaxislayer-above"><g class="xtick"><text text-anchor="start" x="0" y="131.3" transform="translate(27,0) rotate(90,0,124.30000000000001)" style="font-family: 'Open Sans', verdana, arial, sans-serif; font-size: 14px; fill: rgb(0, 0, 0); fill-opacity: 1; white-space: pre; opacity: 1;">0</text></g><g class="xtick"><text text-anchor="start" x="0" y="131.3" style="font-family: 'Open Sans', verdana, arial, sans-serif; font-size: 14px; fill: rgb(0, 0, 0); fill-opacity: 1; white-space: pre; opacity: 1;" transform="translate(37.67,0) rotate(90,0,124.30000000000001)">8</text></g><g class="xtick"><text text-anchor="start" x="0" y="131.3" style="font-family: 'Open Sans', verdana, arial, sans-serif; font-size: 14px; fill: rgb(0, 0, 0); fill-opacity: 1; white-space: pre; opacity: 1;" transform="translate(48.33,0) rotate(90,0,124.30000000000001)">16</text></g><g class="xtick"><text text-anchor="start" x="0" y="131.3" style="font-family: 'Open Sans', verdana, arial, sans-serif; font-size: 14px; fill: rgb(0, 0, 0); fill-opacity: 1; white-space: pre; opacity: 1;" transform="translate(59,0) rotate(90,0,124.30000000000001)">24</text></g><g class="xtick"><text text-anchor="start" x="0" y="131.3" style="font-family: 'Open Sans', verdana, arial, sans-serif; font-size: 14px; fill: rgb(0, 0, 0); fill-opacity: 1; white-space: pre; opacity: 1;" transform="translate(69.67,0) rotate(90,0,124.30000000000001)">32</text></g><g class="xtick"><text text-anchor="start" x="0" y="131.3" style="font-family: 'Open Sans', verdana, arial, sans-serif; font-size: 14px; fill: rgb(0, 0, 0); fill-opacity: 1; white-space: pre; opacity: 1;" transform="translate(80.33,0) rotate(90,0,124.30000000000001)">40</text></g><g class="xtick"><text text-anchor="start" x="0" y="131.3" style="font-family: 'Open Sans', verdana, arial, sans-serif; font-size: 14px; fill: rgb(0, 0, 0); fill-opacity: 1; white-space: pre; opacity: 1;" transform="translate(91,0) rotate(90,0,124.30000000000001)">48</text></g></g><g class="yaxislayer-above"><g class="ytick"><text text-anchor="end" x="23.7" y="4.8999999999999995" transform="translate(0,114)" style="font-family: 'Open Sans', verdana, arial, sans-serif; font-size: 14px; fill: rgb(0, 0, 0); fill-opacity: 1; white-space: pre; opacity: 1;">0</text></g><g class="ytick"><text text-anchor="end" x="23.7" y="4.8999999999999995" style="font-family: 'Open Sans', verdana, arial, sans-serif; font-size: 14px; fill: rgb(0, 0, 0); fill-opacity: 1; white-space: pre; opacity: 1;" transform="translate(0,96.67)">0.2</text></g><g class="ytick"><text text-anchor="end" x="23.7" y="4.8999999999999995" style="font-family: 'Open Sans', verdana, arial, sans-serif; font-size: 14px; fill: rgb(0, 0, 0); fill-opacity: 1; white-space: pre; opacity: 1;" transform="translate(0,79.33)">0.4</text></g><g class="ytick"><text text-anchor="end" x="23.7" y="4.8999999999999995" style="font-family: 'Open Sans', verdana, arial, sans-serif; font-size: 14px; fill: rgb(0, 0, 0); fill-opacity: 1; white-space: pre; opacity: 1;" transform="translate(0,62)">0.6</text></g><g class="ytick"><text text-anchor="end" x="23.7" y="4.8999999999999995" style="font-family: 'Open Sans', verdana, arial, sans-serif; font-size: 14px; fill: rgb(0, 0, 0); fill-opacity: 1; white-space: pre; opacity: 1;" transform="translate(0,44.67)">0.8</text></g><g class="ytick"><text text-anchor="end" x="23.7" y="4.8999999999999995" style="font-family: 'Open Sans', verdana, arial, sans-serif; font-size: 14px; fill: rgb(0, 0, 0); fill-opacity: 1; white-space: pre; opacity: 1;" transform="translate(0,27.33)">1</text></g><g class="ytick"><text text-anchor="end" x="23.7" y="4.8999999999999995" style="font-family: 'Open Sans', verdana, arial, sans-serif; font-size: 14px; fill: rgb(0, 0, 0); fill-opacity: 1; white-space: pre; opacity: 0;" transform="translate(0,10)">1.2</text></g></g><g class="overaxes-above"/></g></g><g class="polarlayer"/><g class="smithlayer"/><g class="ternarylayer"/><g class="geolayer"/><g class="funnelarealayer"/><g class="pielayer"/><g class="iciclelayer"/><g class="treemaplayer"/><g class="sunburstlayer"/><g class="glimages"/><defs id="topdefs-6d214c"><g class="clips"/><clipPath id="legend6d214c"><rect width="211" height="71" x="0" y="0"/></clipPath></defs><g class="layer-above"><g class="imagelayer"/><g class="shapelayer"/></g><g class="infolayer"><g class="legend" pointer-events="all" transform="translate(0,10)"><rect class="bg" shape-rendering="crispEdges" style="stroke: rgb(68, 68, 68); stroke-opacity: 1; fill: rgb(255, 255, 255); fill-opacity: 1; stroke-width: 0px;" width="211" height="71" x="0" y="0"/><g class="scrollbox" transform="" clip-path="url(#legend6d214c)"><g class="groups"><g class="traces" transform="translate(0,24.7)" style="opacity: 1;"><text class="legendtext" text-anchor="start" x="40" y="-3.64" style="font-family: 'Open Sans', verdana, arial, sans-serif; font-size: 14px; fill: rgb(0, 0, 0); fill-opacity: 1; white-space: pre;"><tspan class="line" dy="0em" x="40" y="-3.64"><tspan style="font-style:italic">Salmonella Typhimurium</tspan> </tspan><tspan class="line" dy="1.3em" x="40" y="-3.64">mcherry:pGDPI CTX-M-15</tspan></text><g class="layers" style="opacity: 1;"><g class="legendfill"/><g class="legendlines"><path class="js-line" d="M5,0h30" style="fill: none; stroke: rgb(222, 89, 89); stroke-opacity: 1; stroke-width: 1px;"/></g><g class="legendsymbols"><g class="legendpoints"/></g></g><rect class="legendtoggle" x="0" y="-19.7" width="205.609375" height="39.4" style="fill: rgb(0, 0, 0); fill-opacity: 0;"/></g><g class="traces" transform="translate(0,55)" style="opacity: 1;"><text class="legendtext" text-anchor="start" x="40" y="5.46" style="font-family: 'Open Sans', verdana, arial, sans-serif; font-size: 14px; fill: rgb(0, 0, 0); fill-opacity: 1; white-space: pre;">Logistic fit</text><g class="layers" style="opacity: 1;"><g class="legendfill"/><g class="legendlines"><path class="js-line" d="M5,0h30" style="fill: none; stroke: rgb(222, 89, 89); stroke-opacity: 1; stroke-dasharray: 9px, 9px; stroke-width: 1px;"/></g><g class="legendsymbols"><g class="legendpoints"/></g></g><rect class="legendtoggle" x="0" y="-10.6" width="205.609375" height="21.2" style="fill: rgb(0, 0, 0); fill-opacity: 0;"/></g></g></g><rect class="scrollbar" rx="20" ry="3" width="0" height="0" style="fill: rgb(128, 139, 164); fill-opacity: 1;" x="0" y="0"/></g><g class="g-gtitle"/><g class="g-xtitle" transform="translate(0,-3.8654296875000114)"><text class="xtitle" x="59" y="149.8654296875" text-anchor="middle" style="opacity: 1; font-family: 'Open Sans', verdana, arial, sans-serif; font-size: 14px; fill: rgb(0, 0, 0); fill-opacity: 1; white-space: pre;">Time [h]</text></g><g class="g-ytitle" transform="translate(15.697265625,0)"><text class="ytitle" transform="rotate(-90,-0.6968749999999986,62)" x="-0.6968749999999986" y="62" text-anchor="middle" style="opacity: 1; font-family: 'Open Sans', verdana, arial, sans-serif; font-size: 14px; fill: rgb(0, 0, 0); fill-opacity: 1; white-space: pre;">OD</text></g></g></svg>