<svg class="main-svg" xmlns="http://www.w3.org/2000/svg" xmlns:xlink="http://www.w3.org/1999/xlink" width="500" height="400" style="" viewBox="0 0 500 400"><rect x="0" y="0" width="500" height="400" style="fill: rgb(255, 255, 255); fill-opacity: 1;"/><defs id="defs-dd9d21"><g class="clips"><clipPath id="clipdd9d21xyplot" class="plotclip"><rect width="336" height="330"/></clipPath><clipPath class="axesclip" id="clipdd9d21x"><rect x="40" y="0" width="336" height="400"/></clipPath><clipPath class="axesclip" id="clipdd9d21y"><rect x="0" y="20" width="500" height="330"/></clipPath><clipPath class="axesclip" id="clipdd9d21xy"><rect x="40" y="20" width="336" height="330"/></clipPath></g><g class="gradients"/><g class="patterns"/></defs><g class="bglayer"/><g class="layer-below"><g class="imagelayer"/><g class="shapelayer"/></g><g class="cartesianlayer"><g class="subplot xy"><g class="layer-subplot"><g class="shapelayer"/><g class="imagelayer"/></g><g class="minor-gridlayer"><g class="x"/><g class="y"/></g><g class="gridlayer"><g class="x"><path class="xgrid crisp" transform="translate(82,0)" d="M0,20v330" style="stroke: rgb(0, 0, 0); stroke-opacity: 1; stroke-width: 0.5px;"/><path class="xgrid crisp" transform="translate(124,0)" d="M0,20v330" style="stroke: rgb(0, 0, 0); stroke-opacity: 1; stroke-width: 0.5px;"/><path class="xgrid crisp" transform="translate(166,0)" d="M0,20v330" style="stroke: rgb(0, 0, 0); stroke-opacity: 1; stroke-width: 0.5px;"/><path class="xgrid crisp" transform="translate(208,0)" d="M0,20v330" style="stroke: rgb(0, 0, 0); stroke-opacity: 1; stroke-width: 0.5px;"/><path class="xgrid crisp" transform="translate(250,0)" d="M0,20v330" style="stroke: rgb(0, 0, 0); stroke-opacity: 1; stroke-width: 0.5px;"/><path class="xgrid crisp" transform="translate(292,0)" d="M0,20v330" style="stroke: rgb(0, 0, 0); stroke-opacity: 1; stroke-width: 0.5px;"/><path class="xgrid crisp" transform="translate(334,0)" d="M0,20v330" style="stroke: rgb(0, 0, 0); stroke-opacity: 1; stroke-width: 0.5px;"/></g><g class="y"><path class="ygrid crisp" transform="translate(0,295)" d="M40,0h336" style="stroke: rgb(0, 0, 0); stroke-opacity: 1; stroke-width: 0.5px;"/><path class="ygrid crisp" transform="translate(0,240)" d="M40,0h336" style="stroke: rgb(0, 0, 0); stroke-opacity: 1; stroke-width: 0.5px;"/><path class="ygrid crisp" transform="translate(0,185)" d="M40,0h336" style="stroke: rgb(0, 0, 0); stroke-opacity: 1; stroke-width: 0.5px;"/><path class="ygrid crisp" transform="translate(0,130)" d="M40,0h336" style="stroke: rgb(0, 0, 0); stroke-opacity: 1; stroke-width: 0.5px;"/><path class="ygrid crisp" transform="translate(0,75)" d="M40,0h336" style="stroke: rgb(0, 0, 0); stroke-opacity: 1; stroke-width: 0.5px;"/></g></g><g class="zerolinelayer"><path class="xzl zl crisp" transform="translate(40,0)" d="M0,20v330" style="stroke: rgb(0, 0, 0); stroke-opacity: 1; stroke-width: 0.5px;"/><path class="yzl zl crisp" transform="translate(0,350)" d="M40,0h336" style="stroke: rgb(0, 0, 0); stroke-opacity: 1; stroke-width: 0.5px;"/></g><g class="layer-between"><g class="shapelayer"/><g class="imagelayer"/></g><path class="xlines-below"/><path class="ylines-below"/><g class="overlines-below"/><g class="xaxislayer-below"/><g class="yaxislayer-below"/><g class="overaxes-below"/><g class="overplot"><g class="xy" transform="translate(40,20)" clip-path="url(#clipdd9d21xyplot)"><g class="scatterlayer mlayer"><g class="trace scatter trace29f313" style="stroke-miterlimit: 2; opacity: 1;"><g class="fills"/><g class="errorbars"/><g class="lines"><path class="js-line" d="M0,302.5L8.66,314.37L8.74,314.49L16.73,324.82L16.82,324.89L20.52,327.53L20.6,327.57L25.06,329.1L25.14,329.12L33.72,329.89L33.8,329.89L48.43,330L48.52,330L336,330" style="vector-effect: none; fill: none; stroke: rgb(51, 204, 51); stroke-opacity: 1; stroke-width: 1.7px; opacity: 1;"/></g><g class="points"/><g class="text"/></g><g class="trace scatter tracea9cba0" style="stroke-miterlimit: 2; opacity: 1;"><g class="fills"/><g class="errorbars"/><g class="lines"><path class="js-line" d="M0,302.5L3.36,283.04L3.45,282.43L7.32,246.93L7.4,245.99L13.37,167.27L13.45,166.08L20.35,83.96L20.43,83.23L24.55,55.6L24.64,55.19L27.75,43.32L27.83,43.08L31.53,35.29L31.62,35.17L34.47,31.93L34.56,31.86L38.59,29.49L38.68,29.46L43.56,28.25L43.64,28.24L51.12,27.67L51.21,27.67L66.68,27.51L66.76,27.51L83.92,27.5L84,326.98L87.7,323.73L87.78,323.62L90.56,319.07L90.64,318.89L93,312.59L93.08,312.31L95.44,302.64L95.52,302.21L98.63,282.04L98.71,281.35L101.49,254.3L101.57,253.34L104.94,209.16L105.02,207.94L114.69,80.77L114.77,80.04L118.73,53.83L118.81,53.43L121.75,42.47L121.84,42.23L124.7,35.99L124.78,35.86L127.72,32.2L127.81,32.12L131.76,29.61L131.84,29.58L137.06,28.24L137.14,28.22L148.91,27.57L149,27.57L167.92,27.5L168,326.98L171.7,323.73L171.78,323.62L174.56,319.07L174.64,318.89L177,312.59L177.08,312.31L179.44,302.64L179.52,302.21L182.63,282.04L182.71,281.35L185.49,254.3L185.57,253.34L188.94,209.16L189.02,207.94L198.69,80.77L198.77,80.04L202.73,53.83L202.81,53.43L205.75,42.47L205.84,42.23L208.7,35.99L208.78,35.86L211.72,32.2L211.81,32.12L215.76,29.61L215.84,29.58L221.06,28.24L221.14,28.22L232.91,27.57L233,27.57L251.92,27.5L252,326.98L255.7,323.73L255.78,323.62L258.56,319.07L258.64,318.89L261,312.59L261.08,312.31L263.44,302.64L263.52,302.21L266.63,282.04L266.71,281.35L269.49,254.3L269.57,253.34L272.94,209.16L273.02,207.94L282.69,80.77L282.77,80.04L286.73,53.83L286.81,53.43L289.75,42.47L289.84,42.23L292.7,35.99L292.78,35.86L295.72,32.2L295.81,32.12L299.76,29.61L299.84,29.58L305.06,28.24L305.14,28.22L316.91,27.57L317,27.57L335.92,27.5L336,326.98" style="vector-effect: none; fill: none; stroke: rgb(255, 28, 28); stroke-opacity: 1; stroke-width: 1.7px; opacity: 1;"/></g><g class="points"/><g class="text"/></g></g></g></g><path class="xlines-above crisp" d="M0,0" style="fill: none;"/><path class="ylines-above crisp" d="M0,0" style="fill: none;"/><g class="overlines-above"/><g class="xaxislayer-above"><g class="xtick"><text text-anchor="middle" x="0" y="365" transform="translate(40,0)" style="font-family: 'Open Sans', verdana, arial, sans-serif; font-size: 14px; fill: rgb(0, 0, 0); fill-opacity: 1; white-space: pre; opacity: 1;">0</text></g><g class="xtick"><text text-anchor="middle" x="0" y="365" style="font-family: 'Open Sans', verdana, arial, sans-serif; font-size: 14px; fill: rgb(0, 0, 0); fill-opacity: 1; white-space: pre; opacity: 1;" transform="translate(82,0)">12</text></g><g class="xtick"><text text-anchor="middle" x="0" y="365" style="font-family: 'Open Sans', verdana, arial, sans-serif; font-size: 14px; fill: rgb(0, 0, 0); fill-opacity: 1; white-space: pre; opacity: 1;" transform="translate(124,0)">24</text></g><g class="xtick"><text text-anchor="middle" x="0" y="365" style="font-family: 'Open Sans', verdana, arial, sans-serif; font-size: 14px; fill: rgb(0, 0, 0); fill-opacity: 1; white-space: pre; opacity: 1;" transform="translate(166,0)">36</text></g><g class="xtick"><text text-anchor="middle" x="0" y="365" style="font-family: 'Open Sans', verdana, arial, sans-serif; font-size: 14px; fill: rgb(0, 0, 0); fill-opacity: 1; white-space: pre; opacity: 1;" transform="translate(208,0)">48</text></g><g class="xtick"><text text-anchor="middle" x="0" y="365" style="font-family: 'Open Sans', verdana, arial, sans-serif; font-size: 14px; fill: rgb(0, 0, 0); fill-opacity: 1; white-space: pre; opacity: 1;" transform="translate(250,0)">60</text></g><g class="xtick"><text text-anchor="middle" x="0" y="365" style="font-family: 'Open Sans', verdana, arial, sans-serif; font-size: 14px; fill: rgb(0, 0, 0); fill-opacity: 1; white-space: pre; opacity: 1;" transform="translate(292,0)">72</text></g><g class="xtick"><text text-anchor="middle" x="0" y="365" style="font-family: 'Open Sans', verdana, arial, sans-serif; font-size: 14px; fill: rgb(0, 0, 0); fill-opacity: 1; white-space: pre; opacity: 1;" transform="translate(334,0)">84</text></g><g class="xtick"><text text-anchor="middle" x="0" y="365" style="font-family: 'Open Sans', verdana, arial, sans-serif; font-size: 14px; fill: rgb(0, 0, 0); fill-opacity: 1; white-space: pre; opacity: 1;" transform="translate(376,0)">96</text></g></g><g class="yaxislayer-above"><g class="ytick"><text text-anchor="end" x="39" y="4.8999999999999995" transform="translate(0,350)" style="font-family: 'Open Sans', verdana, arial, sans-serif; font-size: 14px; fill: rgb(0, 0, 0); fill-opacity: 1; white-space: pre; opacity: 1;">0</text></g><g class="ytick"><text text-anchor="end" x="39" y="4.8999999999999995" style="font-family: 'Open Sans', verdana, arial, sans-serif; font-size: 14px; fill: rgb(0, 0, 0); fill-opacity: 1; white-space: pre; opacity: 1;" transform="translate(0,295)">0.2</text></g><g class="ytick"><text text-anchor="end" x="39" y="4.8999999999999995" style="font-family: 'Open Sans', verdana, arial, sans-serif; font-size: 14px; fill: rgb(0, 0, 0); fill-opacity: 1; white-space: pre; opacity: 1;" transform="translate(0,240)">0.4</text></g><g class="ytick"><text text-anchor="end" x="39" y="4.8999999999999995" style="font-family: 'Open Sans', verdana, arial, sans-serif; font-size: 14px; fill: rgb(0, 0, 0); fill-opacity: 1; white-space: pre; opacity: 1;" transform="translate(0,185)">0.6</text></g><g class="ytick"><text text-anchor="end" x="39" y="4.8999999999999995" style="font-family: 'Open Sans', verdana, arial, sans-serif; font-size: 14px; fill: rgb(0, 0, 0); fill-opacity: 1; white-space: pre; opacity: 1;" transform="translate(0,130)">0.8</text></g><g class="ytick"><text text-anchor="end" x="39" y="4.8999999999999995" style="font-family: 'Open Sans', verdana, arial, sans-serif; font-size: 14px; fill: rgb(0, 0, 0); fill-opacity: 1; white-space: pre; opacity: 1;" transform="translate(0,75)">1</text></g><g class="ytick"><text text-anchor="end" x="39" y="4.8999999999999995" style="font-family: 'Open Sans', verdana, arial, sans-serif; font-size: 14px; fill: rgb(0, 0, 0); fill-opacity: 1; white-space: pre; opacity: 1;" transform="translate(0,20)">1.2</text></g></g><g class="overaxes-above"/></g></g><g class="polarlayer"/><g class="smithlayer"/><g class="ternarylayer"/><g class="geolayer"/><g class="funnelarealayer"/><g class="pielayer"/><g class="iciclelayer"/><g class="treemaplayer"/><g class="sunburstlayer"/><g class="glimages"/><defs id="topdefs-dd9d21"><g class="clips"/><clipPath id="legenddd9d21"><rect width="117" height="53" x="0" y="0"/></clipPath></defs><g class="layer-above"><g class="imagelayer"/><g class="shapelayer"/></g><g class="infolayer"><g class="legend" pointer-events="all" transform="translate(382.72,20)"><rect class="bg" shape-rendering="crispEdges" width="117" height="53" x="0" y="0" style="stroke: rgb(68, 68, 68); stroke-opacity: 1; fill: rgb(255, 255, 255); fill-opacity: 1; stroke-width: 0px;"/><g class="scrollbox" transform="" clip-path="url(#legenddd9d21)"><g class="groups"><g class="traces" transform="translate(0,15.6)" style="opacity: 1;"><text class="legendtext" text-anchor="start" x="40" y="5.46" style="font-family: 'Open Sans', verdana, arial, sans-serif; font-size: 14px; fill: rgb(0, 0, 0); fill-opacity: 1; white-space: pre;">E_coli</text><g class="layers" style="opacity: 1;"><g class="legendfill"/><g class="legendlines"><path class="js-line" d="M5,0h30" style="fill: none; stroke: rgb(51, 204, 51); stroke-opacity: 1; stroke-width: 1.7px;"/></g><g class="legendsymbols"><g class="legendpoints"/></g></g><rect class="legendtoggle" x="0" y="-10.6" width="111.8125" height="21.2" style="fill: rgb(0, 0, 0); fill-opacity: 0;"/></g><g class="traces" transform="translate(0,36.8)" style="opacity: 1;"><text class="legendtext" text-anchor="start" x="40" y="5.46" style="font-family: 'Open Sans', verdana, arial, sans-serif; font-size: 14px; fill: rgb(0, 0, 0); fill-opacity: 1; white-space: pre;">Salmonella</text><g class="layers" style="opacity: 1;"><g class="legendfill"/><g class="legendlines"><path class="js-line" d="M5,0h30" style="fill: none; stroke: rgb(255, 28, 28); stroke-opacity: 1; stroke-width: 1.7px;"/></g><g class="legendsymbols"><g class="legendpoints"/></g></g><rect class="legendtoggle" x="0" y="-10.6" width="111.8125" height="21.2" style="fill: rgb(0, 0, 0); fill-opacity: 0;"/></g></g></g><rect class="scrollbar" rx="20" ry="3" width="0" height="0" x="0" y="0" style="fill: rgb(128, 139, 164); fill-opacity: 1;"/></g><g class="g-gtitle"/><g class="g-xtitle" transform="translate(0,5.699999999999989)"><text class="xtitle" x="208" y="378.3" text-anchor="middle" style="opacity: 1; font-family: 'Open Sans', verdana, arial, sans-serif; font-size: 14px; fill: rgb(0, 0, 0); fill-opacity: 1; white-space: pre;">Time [1/h]</text></g><g class="g-ytitle" transform="translate(0.150390625,0)"><text class="ytitle" transform="rotate(-90,14.850000000000001,185)" x="14.850000000000001" y="185" text-anchor="middle" style="opacity: 1; font-family: 'Open Sans', verdana, arial, sans-serif; font-size: 14px; fill: rgb(0, 0, 0); fill-opacity: 1; white-space: pre;">Abundance</text></g></g></svg>