<svg class="main-svg" xmlns="http://www.w3.org/2000/svg" xmlns:xlink="http://www.w3.org/1999/xlink" width="1000" height="400" style="" viewBox="0 0 1000 400"><rect x="0" y="0" width="1000" height="400" style="fill: rgb(255, 255, 255); fill-opacity: 1;"/><defs id="defs-2dbb60"><g class="clips"><clipPath id="clip2dbb60xyplot" class="plotclip"><rect width="775" height="330"/></clipPath><clipPath class="axesclip" id="clip2dbb60x"><rect x="47" y="0" width="775" height="400"/></clipPath><clipPath class="axesclip" id="clip2dbb60y"><rect x="0" y="20" width="1000" height="330"/></clipPath><clipPath class="axesclip" id="clip2dbb60xy"><rect x="47" y="20" width="775" height="330"/></clipPath></g><g class="gradients"/><g class="patterns"/></defs><g class="bglayer"/><g class="layer-below"><g class="imagelayer"/><g class="shapelayer"/></g><g class="cartesianlayer"><g class="subplot xy"><g class="layer-subplot"><g class="shapelayer"/><g class="imagelayer"/></g><g class="minor-gridlayer"><g class="x"/><g class="y"/></g><g class="gridlayer"><g class="x"><path class="xgrid crisp" transform="translate(127.73,0)" d="M0,20v330" style="stroke: rgb(0, 0, 0); stroke-opacity: 1; stroke-width: 1px;"/><path class="xgrid crisp" transform="translate(208.45,0)" d="M0,20v330" style="stroke: rgb(0, 0, 0); stroke-opacity: 1; stroke-width: 1px;"/><path class="xgrid crisp" transform="translate(289.18,0)" d="M0,20v330" style="stroke: rgb(0, 0, 0); stroke-opacity: 1; stroke-width: 1px;"/><path class="xgrid crisp" transform="translate(369.91,0)" d="M0,20v330" style="stroke: rgb(0, 0, 0); stroke-opacity: 1; stroke-width: 1px;"/><path class="xgrid crisp" transform="translate(450.63,0)" d="M0,20v330" style="stroke: rgb(0, 0, 0); stroke-opacity: 1; stroke-width: 1px;"/><path class="xgrid crisp" transform="translate(531.36,0)" d="M0,20v330" style="stroke: rgb(0, 0, 0); stroke-opacity: 1; stroke-width: 1px;"/><path class="xgrid crisp" transform="translate(612.08,0)" d="M0,20v330" style="stroke: rgb(0, 0, 0); stroke-opacity: 1; stroke-width: 1px;"/><path class="xgrid crisp" transform="translate(692.81,0)" d="M0,20v330" style="stroke: rgb(0, 0, 0); stroke-opacity: 1; stroke-width: 1px;"/><path class="xgrid crisp" transform="translate(773.54,0)" d="M0,20v330" style="stroke: rgb(0, 0, 0); stroke-opacity: 1; stroke-width: 1px;"/></g><g class="y"><path class="ygrid crisp" transform="translate(0,277.23)" d="M47,0h775" style="stroke: rgb(0, 0, 0); stroke-opacity: 1; stroke-width: 1px;"/><path class="ygrid crisp" transform="translate(0,226.46)" d="M47,0h775" style="stroke: rgb(0, 0, 0); stroke-opacity: 1; stroke-width: 1px;"/><path class="ygrid crisp" transform="translate(0,175.69)" d="M47,0h775" style="stroke: rgb(0, 0, 0); stroke-opacity: 1; stroke-width: 1px;"/><path class="ygrid crisp" transform="translate(0,124.92)" d="M47,0h775" style="stroke: rgb(0, 0, 0); stroke-opacity: 1; stroke-width: 1px;"/><path class="ygrid crisp" transform="translate(0,74.15)" d="M47,0h775" style="stroke: rgb(0, 0, 0); stroke-opacity: 1; stroke-width: 1px;"/><path class="ygrid crisp" transform="translate(0,23.38)" d="M47,0h775" style="stroke: rgb(0, 0, 0); stroke-opacity: 1; stroke-width: 1px;"/></g></g><g class="zerolinelayer"><path class="xzl zl crisp" transform="translate(47,0)" d="M0,20v330" style="stroke: rgb(0, 0, 0); stroke-opacity: 1; stroke-width: 1px;"/><path class="yzl zl crisp" transform="translate(0,328)" d="M47,0h775" style="stroke: rgb(0, 0, 0); stroke-opacity: 1; stroke-width: 1px;"/></g><g class="layer-between"><g class="shapelayer"/><g class="imagelayer"/></g><path class="xlines-below"/><path class="ylines-below"/><g class="overlines-below"/><g class="xaxislayer-below"/><g class="yaxislayer-below"/><g class="overaxes-below"/><g class="overplot"><g class="xy" transform="translate(47,20)" clip-path="url(#clip2dbb60xyplot)"><g class="scatterlayer mlayer"><g class="trace scatter trace1be95d" style="stroke-miterlimit: 2; opacity: 1;"><g class="fills"/><g class="errorbars"/><g class="lines"><path class="js-line" d="M0.04,311.13L4.07,312.99L8.1,313.5L12.14,313.37L16.17,311.68L20.21,311.93L24.25,310.71L28.28,309.48L32.32,305.67L36.36,300.93L40.39,291.8L44.43,282.53L48.47,275.51L56.54,254.31L60.57,240.31L72.68,202.32L76.72,192.12L80.76,184.93L84.79,175.7L88.83,168.98L92.86,164.87L96.9,160.85L100.94,154L104.97,145.41L109.01,143.04L117.08,136.61L121.12,131.49L125.16,124.13L129.19,119.69L133.23,114.53L137.26,113.3L141.3,107.33L145.34,104.25L161.48,89.86L165.52,87.45L169.55,80.51L173.59,80.17L177.62,79.79L181.66,75.82L185.7,74.46L189.73,71.2L193.77,68.62L197.81,67.52L201.84,61.05L205.88,62.74L209.92,61.98L213.95,58.55L217.99,58L222.02,55.72L226.06,52.46L230.1,50.3L234.13,48.7L238.17,45.86L242.21,45.02L246.24,45.23L250.28,41.72L254.32,43.58L258.35,39.43L262.39,39.47L266.42,38.08L270.46,33.25L274.5,35.83L278.53,28.18L282.57,29.53L286.61,28.6L290.64,29.11L294.68,26.1L298.71,27.37L302.75,26.95L306.79,25L310.82,27.12L314.86,23.14L318.9,26.4L322.93,25.51L326.97,27.33L335.04,30.17L339.08,25.85L343.11,26.36L347.15,27.97L351.19,31.18L355.22,29.11L359.26,33.47L363.3,30.46L367.33,32.41L371.37,36.64L375.4,42.94L379.44,29.36L383.48,33.85L387.51,31.69L391.55,30.5L395.59,31.82L403.66,36.13L407.7,36.77L411.73,33.72L415.77,36.64L419.8,35.5L423.84,37.36L427.88,33.08L431.91,41.88L435.95,37.82L439.99,39.9L448.06,44.08L452.09,41.63L456.13,46.12L460.17,47.72L464.2,50.22L468.24,41.17L472.28,47.81L476.31,50.35L480.35,52.42L484.38,55.89L488.42,48.1L492.46,43.37L500.53,54.75L504.57,53.14L508.6,46.88L512.64,52.33L516.68,55.51L520.71,60.67L524.75,60.58L528.79,55.55L532.82,55L536.86,63.93L540.89,52.93L544.93,51.11L548.97,60.88L553,55.08L557.04,55.89L561.07,54.15L565.11,46.37L569.15,52.63L573.18,49.12L577.22,47.43L581.26,50.73L585.29,43.07L589.33,50.35L593.37,42.18L597.4,48.99L601.44,43.41L605.47,55.42L609.51,51.57L613.55,68.62L617.58,54.92L621.62,61.94L625.66,56.35L629.69,57.2L633.73,56.02L637.77,51.83L641.8,62.45L645.84,53.31L649.87,46.75L653.91,47.38L657.95,59.19L661.98,44.13L666.02,39.39L670.06,46.96L674.09,47.51L678.13,46.07L682.16,47.09L686.2,46.88L690.24,51.78L698.31,47.17L702.35,49.54L706.38,49.29L710.42,46.45L714.45,47.22L718.49,51.66L722.53,60.71L726.56,47.34L730.6,48.91L734.64,45.78L738.67,49.54L742.71,54.49L746.75,50.05L750.78,50.13L754.82,53.1L758.85,47.55L762.89,45.27L766.93,50.13L770.96,53.35L775,54.24" style="vector-effect: none; fill: none; stroke: rgb(51, 204, 51); stroke-opacity: 1; stroke-width: 3px; opacity: 1;"/></g><g class="points"/><g class="text"/></g><g class="trace scatter trace50936c" style="stroke-miterlimit: 2; opacity: 1;"><g class="fills"/><g class="errorbars"/><g class="lines"><path class="js-line" d="M0.04,311.68L8.11,312.61L12.14,312.74L20.22,312.95L24.25,311.43L28.29,309.1L32.32,308.59L36.36,306.77L40.4,300.43L48.47,286.34L52.51,281.77L56.54,271.7L60.58,259.39L64.61,248.64L68.65,235.44L72.69,226.94L76.72,211.45L80.76,195.72L84.8,186.32L88.83,177.69L92.87,171.35L96.9,169.44L100.94,161.53L109.01,150.83L113.05,143.34L117.09,136.65L121.12,137.54L125.16,137.08L129.2,132.76L133.23,127.6L137.27,126.37L141.3,118.25L145.34,118.21L153.41,101.62L157.45,102.17L161.49,101.88L165.52,100.52L181.66,87.03L185.7,84.78L189.74,78.52L193.77,75.01L197.81,74.46L201.85,75.9L205.88,71.75L209.92,70.78L213.96,71.46L217.99,66.34L222.03,64.27L226.06,65.37L230.1,61.56L234.14,59.61L238.17,61.26L242.21,61.13L246.25,58.77L250.28,55.38L254.32,51.15L258.35,51.19L262.39,53.01L266.43,50.22L274.5,41.8L278.54,42.77L282.57,40.66L286.61,41.29L290.65,39.35L294.68,38.33L298.72,37.74L302.75,35.58L306.79,33.17L310.83,35.58L314.86,34.06L318.9,34.73L322.94,31.14L326.97,31.69L331.01,32.53L335.05,31.9L339.08,36.38L343.12,35.37L347.15,36.13L351.19,30.12L355.23,31.86L359.26,34.57L363.3,32.62L367.34,28.05L371.37,31.48L375.41,29.11L379.44,29.83L383.48,26.82L387.52,31.35L391.55,34.35L395.59,38.63L399.63,35.41L403.66,33.85L407.7,37.53L411.73,36L415.77,37.44L419.81,36.98L423.84,42.9L427.88,41.08L431.92,41.67L435.95,39.52L439.99,42.22L444.03,45.1L448.06,49.2L452.1,50.9L456.13,46.24L460.17,44.63L464.21,50.05L468.24,46.75L472.28,47.6L476.32,45.06L480.35,51.66L484.39,50.73L488.42,53.98L492.46,52.04L496.5,59.32L500.53,56.44L504.57,61.39L508.61,54.03L512.64,57.5L516.68,56.4L520.72,59.19L524.75,58.22L528.79,66.08L532.82,58.6L536.86,53.98L540.9,55.97L544.93,54.28L548.97,66.3L553.01,56.35L557.04,81.95L561.08,90.5L565.11,70.78L569.15,70.02L573.19,66.8L577.22,73.23L581.26,71.67L585.3,84.11L589.33,93.75L593.37,92.06L597.41,92.27L601.44,88.3L605.48,74.33L609.51,71.5L613.55,77.17L617.59,73.07L621.62,64.27L625.66,63.42L629.7,80.6L633.73,74.67L637.77,63.25L641.8,75.48L645.84,74.17L649.88,81.27L653.91,70.82L657.95,84.11L661.99,68.37L666.02,73.91L670.06,86.9L674.09,94.09L678.13,91.38L682.17,102.98L686.2,82.71L690.24,85.08L694.28,73.91L698.31,74.25L702.35,68.62L706.39,72.52L710.42,65.11L714.46,65.15L718.49,67.18L722.53,62.83L726.57,63.93L730.6,64.01L734.64,80.13L738.68,71.5L742.71,84.28L746.75,88.21L750.78,76.2L754.82,77.42L758.86,81.06L762.89,90.33L766.93,76.92" style="vector-effect: none; fill: none; stroke: rgb(51, 204, 51); stroke-opacity: 1; stroke-width: 3px; opacity: 1;"/></g><g class="points"/><g class="text"/></g><g class="trace scatter trace588d6b" style="stroke-miterlimit: 2; opacity: 1;"><g class="fills"/><g class="errorbars"/><g class="lines"><path class="js-line" d="M0.04,309.35L4.07,311.64L8.1,310.28L12.14,311.13L16.17,307.37L20.21,310.03L24.25,308.93L32.32,302.92L36.36,297.51L48.47,273.1L52.5,262.35L76.72,184.63L80.76,178.33L88.83,164.53L92.86,153.75L96.9,151.08L100.94,140.12L104.97,134.03L109.01,132.04L113.05,130.6L117.08,126.92L121.12,121.72L125.16,109.62L129.19,113.17L133.23,104.58L137.26,104.03L141.3,102.68L145.33,93.97L149.37,91.98L153.41,84.49L157.44,84.02L161.48,81.19L165.52,74.46L169.55,77.25L173.59,73.74L177.63,68.16L181.66,69.22L185.7,66.59L189.73,62.4L193.77,57.75L197.81,60.25L205.88,47.89L209.92,48.87L213.95,48.78L217.99,46.62L226.06,42.27L230.1,42.73L234.13,40.83L238.17,33.25L242.21,33.3L246.24,31.14L250.28,33.63L254.32,34.82L258.35,30.76L262.39,28.6L266.42,27.54L270.46,29.49L274.5,27.37L278.53,26.65L290.64,23.23L294.68,17.68L298.72,16.5L302.75,22.63L306.79,22.42L310.82,18.28L314.86,22.34L318.9,24.79L322.93,25.26L326.97,22.63L331,22.59L335.04,18.74L339.08,26.36L343.11,23.86L347.15,28.13L351.19,29.07L355.22,26.32L359.26,27.67L363.3,30.67L367.33,29.87L375.4,30.38L379.44,31.77L383.48,33.47L387.51,26.32L391.55,32.83L395.59,36L399.62,33.47L403.66,34.52L407.7,32.11L411.73,31.73L415.77,35.03L419.8,33.89L427.88,35.96L431.91,38.42L435.95,39.3L439.99,36.55L448.06,44.04L452.1,39.43L456.13,41.88L460.17,42.94L464.2,46.07L468.24,45.23L472.28,40.53L476.31,46.45L480.35,41.12L484.39,41.33L488.42,49.2L492.46,42.9L496.49,45.27L500.53,42.52L504.57,43.87L508.6,47.93L512.64,41.21L516.68,42.65L520.71,41.63L524.75,45.44L528.79,42.27L532.82,44.55L536.86,44.89L540.89,48.91L544.93,44.42L548.97,44.25L553,48.87L557.04,51.11L561.08,44.68L565.11,45.9L569.15,43.66L573.19,44.63L577.22,47.38L581.26,44.63L585.29,48.27L589.33,47.26L593.37,44.17L597.4,44.34L605.47,50.13L609.51,47L613.55,47.47L617.58,46.03L621.62,43.75L625.66,48.82L629.69,47.51L633.73,43.15L637.77,49.5L641.8,45.02L645.84,51.28L649.87,46.79L653.91,46.2L657.95,46.41L661.98,43.58L666.02,47.89L670.06,45.23L674.09,46.2L678.13,48.02L682.16,45.9L686.2,44.13L690.24,49.63L694.27,52.67L698.31,47.85L702.35,45.27L706.38,45.86L710.42,46.75L714.45,46.12L722.53,47.55L726.56,50.35L734.64,50.35L738.67,47.85L742.71,50.13L746.75,41.93L750.78,44.51L754.82,44.42L758.85,44.59L762.89,43.75L766.93,47.77L770.96,47.09L775,49.75" style="vector-effect: none; fill: none; stroke: rgb(51, 204, 51); stroke-opacity: 1; stroke-width: 3px; opacity: 1;"/></g><g class="points"/><g class="text"/></g><g class="trace scatter tracef21038" style="stroke-miterlimit: 2; opacity: 1;"><g class="fills"/><g class="errorbars"/><g class="lines"><path class="js-line" d="M0,305.46L12.42,302.97L13.98,302.53L23.3,298.92L24.85,298.13L32.62,293.08L34.17,291.81L40.38,285.65L41.93,283.81L48.15,275L49.7,272.4L55.91,260.24L57.46,256.73L63.68,240.72L65.23,236.23L73,211.09L74.55,205.6L100.95,110.05L102.5,105.38L110.27,84.93L111.82,81.43L118.04,69.3L119.59,66.71L125.8,57.94L127.35,56.1L133.57,49.97L135.12,48.71L142.89,43.67L144.44,42.88L153.76,39.29L155.31,38.85L166.18,36.6L167.74,36.37L184.82,34.83L186.37,34.75L214.33,34.04L215.88,34.02L355.66,33.85L357.21,33.85L775,33.85" style="vector-effect: none; fill: none; stroke: rgb(0, 0, 0); stroke-opacity: 1; stroke-dasharray: 9px, 9px; stroke-width: 3px; opacity: 1;"/></g><g class="points"/><g class="text"/></g></g></g></g><path class="xlines-above crisp" d="M0,0" style="fill: none;"/><path class="ylines-above crisp" d="M0,0" style="fill: none;"/><g class="overlines-above"/><g class="xaxislayer-above"><g class="xtick"><text text-anchor="middle" x="0" y="365" transform="translate(47,0)" style="font-family: 'Open Sans', verdana, arial, sans-serif; font-size: 14px; fill: rgb(0, 0, 0); fill-opacity: 1; white-space: pre; opacity: 1;">0</text></g><g class="xtick"><text text-anchor="middle" x="0" y="365" style="font-family: 'Open Sans', verdana, arial, sans-serif; font-size: 14px; fill: rgb(0, 0, 0); fill-opacity: 1; white-space: pre; opacity: 1;" transform="translate(127.73,0)">5</text></g><g class="xtick"><text text-anchor="middle" x="0" y="365" style="font-family: 'Open Sans', verdana, arial, sans-serif; font-size: 14px; fill: rgb(0, 0, 0); fill-opacity: 1; white-space: pre; opacity: 1;" transform="translate(208.45,0)">10</text></g><g class="xtick"><text text-anchor="middle" x="0" y="365" style="font-family: 'Open Sans', verdana, arial, sans-serif; font-size: 14px; fill: rgb(0, 0, 0); fill-opacity: 1; white-space: pre; opacity: 1;" transform="translate(289.18,0)">15</text></g><g class="xtick"><text text-anchor="middle" x="0" y="365" style="font-family: 'Open Sans', verdana, arial, sans-serif; font-size: 14px; fill: rgb(0, 0, 0); fill-opacity: 1; white-space: pre; opacity: 1;" transform="translate(369.91,0)">20</text></g><g class="xtick"><text text-anchor="middle" x="0" y="365" style="font-family: 'Open Sans', verdana, arial, sans-serif; font-size: 14px; fill: rgb(0, 0, 0); fill-opacity: 1; white-space: pre; opacity: 1;" transform="translate(450.63,0)">25</text></g><g class="xtick"><text text-anchor="middle" x="0" y="365" style="font-family: 'Open Sans', verdana, arial, sans-serif; font-size: 14px; fill: rgb(0, 0, 0); fill-opacity: 1; white-space: pre; opacity: 1;" transform="translate(531.36,0)">30</text></g><g class="xtick"><text text-anchor="middle" x="0" y="365" style="font-family: 'Open Sans', verdana, arial, sans-serif; font-size: 14px; fill: rgb(0, 0, 0); fill-opacity: 1; white-space: pre; opacity: 1;" transform="translate(612.08,0)">35</text></g><g class="xtick"><text text-anchor="middle" x="0" y="365" style="font-family: 'Open Sans', verdana, arial, sans-serif; font-size: 14px; fill: rgb(0, 0, 0); fill-opacity: 1; white-space: pre; opacity: 1;" transform="translate(692.81,0)">40</text></g><g class="xtick"><text text-anchor="middle" x="0" y="365" style="font-family: 'Open Sans', verdana, arial, sans-serif; font-size: 14px; fill: rgb(0, 0, 0); fill-opacity: 1; white-space: pre; opacity: 1;" transform="translate(773.54,0)">45</text></g></g><g class="yaxislayer-above"><g class="ytick"><text text-anchor="end" x="46" y="4.8999999999999995" transform="translate(0,328)" style="font-family: 'Open Sans', verdana, arial, sans-serif; font-size: 14px; fill: rgb(0, 0, 0); fill-opacity: 1; white-space: pre; opacity: 1;">0</text></g><g class="ytick"><text text-anchor="end" x="46" y="4.8999999999999995" style="font-family: 'Open Sans', verdana, arial, sans-serif; font-size: 14px; fill: rgb(0, 0, 0); fill-opacity: 1; white-space: pre; opacity: 1;" transform="translate(0,277.23)">0.2</text></g><g class="ytick"><text text-anchor="end" x="46" y="4.8999999999999995" style="font-family: 'Open Sans', verdana, arial, sans-serif; font-size: 14px; fill: rgb(0, 0, 0); fill-opacity: 1; white-space: pre; opacity: 1;" transform="translate(0,226.46)">0.4</text></g><g class="ytick"><text text-anchor="end" x="46" y="4.8999999999999995" style="font-family: 'Open Sans', verdana, arial, sans-serif; font-size: 14px; fill: rgb(0, 0, 0); fill-opacity: 1; white-space: pre; opacity: 1;" transform="translate(0,175.69)">0.6</text></g><g class="ytick"><text text-anchor="end" x="46" y="4.8999999999999995" style="font-family: 'Open Sans', verdana, arial, sans-serif; font-size: 14px; fill: rgb(0, 0, 0); fill-opacity: 1; white-space: pre; opacity: 1;" transform="translate(0,124.92)">0.8</text></g><g class="ytick"><text text-anchor="end" x="46" y="4.8999999999999995" style="font-family: 'Open Sans', verdana, arial, sans-serif; font-size: 14px; fill: rgb(0, 0, 0); fill-opacity: 1; white-space: pre; opacity: 1;" transform="translate(0,74.15)">1</text></g><g class="ytick"><text text-anchor="end" x="46" y="4.8999999999999995" style="font-family: 'Open Sans', verdana, arial, sans-serif; font-size: 14px; fill: rgb(0, 0, 0); fill-opacity: 1; white-space: pre; opacity: 1;" transform="translate(0,23.38)">1.2</text></g></g><g class="overaxes-above"/></g></g><g class="polarlayer"/><g class="smithlayer"/><g class="ternarylayer"/><g class="geolayer"/><g class="funnelarealayer"/><g class="pielayer"/><g class="iciclelayer"/><g class="treemaplayer"/><g class="sunburstlayer"/><g class="glimages"/><defs id="topdefs-2dbb60"><g class="clips"/><clipPath id="legend2dbb60"><rect width="162" height="71" x="0" y="0"/></clipPath></defs><g class="layer-above"><g class="imagelayer"/><g class="shapelayer"/></g><g class="infolayer"><g class="legend" pointer-events="all" transform="translate(837.5,20)"><rect class="bg" shape-rendering="crispEdges" style="stroke: rgb(68, 68, 68); stroke-opacity: 1; fill: rgb(255, 255, 255); fill-opacity: 1; stroke-width: 0px;" width="162" height="71" x="0" y="0"/><g class="scrollbox" transform="" clip-path="url(#legend2dbb60)"><g class="groups"><g class="traces" transform="translate(0,24.7)" style="opacity: 1;"><text class="legendtext" text-anchor="start" x="40" y="-3.64" style="font-family: 'Open Sans', verdana, arial, sans-serif; font-size: 14px; fill: rgb(0, 0, 0); fill-opacity: 1; white-space: pre;"><tspan class="line" dy="0em" x="40" y="-3.64">Escherichia coli  </tspan><tspan class="line" dy="1.3em" x="40" y="-3.64">sfGFP:pGDPI CAT</tspan></text><g class="layers" style="opacity: 1;"><g class="legendfill"/><g class="legendlines"><path class="js-line" d="M5,0h30" style="fill: none; stroke: rgb(51, 204, 51); stroke-opacity: 1; stroke-width: 3px;"/></g><g class="legendsymbols"><g class="legendpoints"/></g></g><rect class="legendtoggle" x="0" y="-19.7" width="156.875" height="39.4" style="fill: rgb(0, 0, 0); fill-opacity: 0;"/></g><g class="traces" transform="translate(0,55)" style="opacity: 1;"><text class="legendtext" text-anchor="start" x="40" y="5.46" style="font-family: 'Open Sans', verdana, arial, sans-serif; font-size: 14px; fill: rgb(0, 0, 0); fill-opacity: 1; white-space: pre;">Model</text><g class="layers" style="opacity: 1;"><g class="legendfill"/><g class="legendlines"><path class="js-line" d="M5,0h30" style="fill: none; stroke: rgb(0, 0, 0); stroke-opacity: 1; stroke-dasharray: 9px, 9px; stroke-width: 3px;"/></g><g class="legendsymbols"><g class="legendpoints"/></g></g><rect class="legendtoggle" x="0" y="-10.6" width="156.875" height="21.2" style="fill: rgb(0, 0, 0); fill-opacity: 0;"/></g></g></g><rect class="scrollbar" rx="20" ry="3" width="0" height="0" style="fill: rgb(128, 139, 164); fill-opacity: 1;" x="0" y="0"/></g><g class="g-gtitle"/><g class="g-xtitle"><text class="xtitle" x="434.5" y="394.4" text-anchor="middle" style="opacity: 1; font-family: 'Open Sans', verdana, arial, sans-serif; font-size: 17px; fill: rgb(0, 0, 0); fill-opacity: 1; white-space: pre;">Time [h]</text></g><g class="g-ytitle" transform="translate(8.9189453125,0)"><text class="ytitle" transform="rotate(-90,6.081249999999997,185)" x="6.081249999999997" y="185" text-anchor="middle" style="opacity: 1; font-family: 'Open Sans', verdana, arial, sans-serif; font-size: 17px; fill: rgb(0, 0, 0); fill-opacity: 1; white-space: pre;">Abundance [OD]</text></g></g></svg>