<svg class="main-svg" xmlns="http://www.w3.org/2000/svg" xmlns:xlink="http://www.w3.org/1999/xlink" width="500" height="320" style="" viewBox="0 0 500 320"><rect x="0" y="0" width="500" height="320" style="fill: rgb(255, 255, 255); fill-opacity: 1;"/><defs id="defs-7e551f"><g class="clips"><clipPath id="clip7e551fxyplot" class="plotclip"><rect width="237" height="250"/></clipPath><clipPath class="axesclip" id="clip7e551fx"><rect x="47" y="0" width="237" height="320"/></clipPath><clipPath class="axesclip" id="clip7e551fy"><rect x="0" y="20" width="500" height="250"/></clipPath><clipPath class="axesclip" id="clip7e551fxy"><rect x="47" y="20" width="237" height="250"/></clipPath></g><g class="gradients"/><g class="patterns"/></defs><g class="bglayer"/><g class="layer-below"><g class="imagelayer"/><g class="shapelayer"/></g><g class="cartesianlayer"><g class="subplot xy"><g class="layer-subplot"><g class="shapelayer"/><g class="imagelayer"/></g><g class="minor-gridlayer"><g class="x"/><g class="y"/></g><g class="gridlayer"><g class="x"><path class="xgrid crisp" transform="translate(96.37,0)" d="M0,20v250" style="stroke: rgb(0, 0, 0); stroke-opacity: 1; stroke-width: 1px;"/><path class="xgrid crisp" transform="translate(145.75,0)" d="M0,20v250" style="stroke: rgb(0, 0, 0); stroke-opacity: 1; stroke-width: 1px;"/><path class="xgrid crisp" transform="translate(195.12,0)" d="M0,20v250" style="stroke: rgb(0, 0, 0); stroke-opacity: 1; stroke-width: 1px;"/><path class="xgrid crisp" transform="translate(244.49,0)" d="M0,20v250" style="stroke: rgb(0, 0, 0); stroke-opacity: 1; stroke-width: 1px;"/></g><g class="y"><path class="ygrid crisp" transform="translate(0,213.58)" d="M47,0h237" style="stroke: rgb(0, 0, 0); stroke-opacity: 1; stroke-width: 1px;"/><path class="ygrid crisp" transform="translate(0,174.82)" d="M47,0h237" style="stroke: rgb(0, 0, 0); stroke-opacity: 1; stroke-width: 1px;"/><path class="ygrid crisp" transform="translate(0,136.07)" d="M47,0h237" style="stroke: rgb(0, 0, 0); stroke-opacity: 1; stroke-width: 1px;"/><path class="ygrid crisp" transform="translate(0,97.32)" d="M47,0h237" style="stroke: rgb(0, 0, 0); stroke-opacity: 1; stroke-width: 1px;"/><path class="ygrid crisp" transform="translate(0,58.56)" d="M47,0h237" style="stroke: rgb(0, 0, 0); stroke-opacity: 1; stroke-width: 1px;"/></g></g><g class="zerolinelayer"><path class="xzl zl crisp" transform="translate(47,0)" d="M0,20v250" style="stroke: rgb(0, 0, 0); stroke-opacity: 1; stroke-width: 1px;"/><path class="yzl zl crisp" transform="translate(0,252.33)" d="M47,0h237" style="stroke: rgb(0, 0, 0); stroke-opacity: 1; stroke-width: 1px;"/></g><g class="layer-between"><g class="shapelayer"/><g class="imagelayer"/></g><path class="xlines-below"/><path class="ylines-below"/><g class="overlines-below"/><g class="xaxislayer-below"/><g class="yaxislayer-below"/><g class="overaxes-below"/><g class="overplot"><g class="xy" transform="translate(47,20)" clip-path="url(#clip7e551fxyplot)"><g class="scatterlayer mlayer"><g class="trace scatter traced3008d" style="stroke-miterlimit: 2; opacity: 1;"><g class="fills"/><g class="errorbars"/><g class="lines"><path class="js-line" d="M0.01,236.08L2.48,237.5L3.71,237.4L4.95,236.5L6.18,236.89L8.65,236.56L9.88,235.4L11.12,234.88L12.35,232.75L14.82,226.52L16.06,219.67L18.52,204.69L19.76,199.49L32.1,145.04L33.34,141.87L37.04,124.53L38.27,119.3L41.98,109.68L43.21,103.18L45.68,95.27L46.91,88.01L48.15,87.52L49.38,84.61L50.62,83.16L51.85,77.48L53.08,77.8L54.32,77.12L55.55,74.09L56.79,67.43L58.02,68.05L59.26,64.53L60.49,67.18L61.73,59.91L62.96,64.88L64.19,57.71L65.43,57.62L66.66,55.06L67.9,58.36L69.13,55.68L70.37,53.45L71.6,52.8L72.83,48.9L74.07,49.8L75.3,49.77L76.54,46.12L77.77,49.09L79.01,45.34L81.47,43.54L82.71,40.63L83.94,41.24L85.18,30.17L88.88,30.88L90.11,26.65L91.35,28.39L92.58,28.65L93.82,28.13L95.05,30.52L96.29,26.52L97.52,27.65L99.99,25.06L101.22,26.81L102.46,28L103.69,24.51L106.16,20.9L107.39,24.71L108.63,20.61L109.86,21.03L111.1,22.03L112.33,20.22L113.57,25L114.8,22.25L116.04,19.83L117.27,25.77L118.5,25.87L119.74,23.03L120.97,25.19L122.21,25.06L123.44,29.07L124.68,28.97L125.91,28L127.14,30.23L128.38,28.39L129.61,30.97L130.85,27.13L132.08,35.01L133.32,33.07L134.55,33.1L135.78,35.24L137.02,31.65L138.25,31.52L139.49,33.98L141.96,37.3L143.19,29.81L144.43,35.07L145.66,37.01L146.89,35.88L148.13,38.34L150.6,30.91L151.83,32.88L153.07,38.24L154.3,35.66L155.53,34.17L156.77,37.17L158,38.05L159.24,36.17L160.47,39.01L161.71,34.2L162.94,36.5L164.17,36.53L165.41,36.46L166.64,35.27L167.88,37.3L169.11,36.75L171.58,36.43L172.81,33.01L175.28,36.66L176.52,34.98L177.75,36.92L178.99,32.81L180.22,35.07L181.45,33.88L182.69,34.43L183.92,32.49L187.63,35.66L188.86,35.27L191.33,36.17L192.56,35.66L193.8,33.98L195.03,35.43L196.27,35.98L197.5,34.43L198.74,34.07L199.97,34.95L201.2,34.85L202.44,33.23L203.67,30.78L204.91,33.85L206.14,31.75L207.38,32.39L208.61,31.81L209.84,32.43L211.08,35.2L212.31,32.72L213.55,33.04L214.78,34.65L218.48,33.07L219.72,34.14L220.95,34.27L222.19,33.17L223.42,33.98L224.66,31.59L225.89,31.17L227.13,31.65L228.36,33.1L229.59,32.59L230.83,33.3L232.06,33.14L234.53,30.26L235.77,31.55L237,31.26" style="vector-effect: none; fill: none; stroke: rgb(255, 28, 28); stroke-opacity: 1; stroke-width: 3px; opacity: 1;"/></g><g class="points"/><g class="text"/></g><g class="trace scatter tracef307c1" style="stroke-miterlimit: 2; opacity: 1;"><g class="fills"/><g class="errorbars"/><g class="lines"><path class="js-line" d="M0.01,235.53L2.48,236.63L3.71,236.72L6.18,237.47L7.42,236.11L8.65,234.53L9.88,234.72L11.12,233.92L12.35,230.43L14.82,222.39L16.06,213.86L18.52,200.26L19.76,197.87L20.99,189.35L22.23,186.34L24.7,171.62L25.93,166.97L30.87,147.07L32.1,138.71L33.34,134.45L34.57,126.79L35.81,125.57L37.04,117.72L41.98,105.51L43.21,99.12L46.91,84.87L48.15,86.46L49.38,88.17L50.62,82.87L51.85,83.94L53.09,80.19L54.32,79.09L55.55,72.57L56.79,70.28L58.02,66.08L60.49,63.75L61.73,67.76L64.19,63.07L65.43,63.98L67.9,55.97L69.13,58.55L71.6,47.96L72.84,52.71L74.07,54.35L75.3,52.35L76.54,49.77L77.77,42.86L79.01,43.08L80.24,45.44L81.48,45.63L82.71,41.63L83.94,34.17L85.18,35.88L86.41,34.65L87.65,35.53L90.12,34.04L91.35,29.33L92.58,29.81L93.82,26.03L95.05,29.81L96.29,28.07L97.52,30.52L98.76,27.97L99.99,29.16L101.22,29.23L102.46,29.13L103.69,32.75L104.93,32.36L106.16,33.33L107.4,26.42L108.63,30.46L109.86,32.33L111.1,27.94L112.33,25.22L113.57,30.75L114.8,27.19L116.04,26.77L117.27,22.35L118.51,28.32L120.97,37.75L122.21,34.53L123.44,34.69L124.68,38.27L125.91,36.72L127.15,31.04L129.61,41.99L130.85,41.57L132.08,42.02L133.32,38.82L135.79,45.02L137.02,38.85L138.25,38.4L139.49,39.3L140.72,34.2L141.96,42.79L143.19,44.73L144.43,42.28L145.66,37.43L146.89,38.79L148.13,41.57L149.36,39.4L150.6,42.76L151.83,39.6L153.07,39.14L154.3,42.34L155.54,44.47L156.77,39.56L158,43.57L159.24,43.96L160.47,47.28L161.71,46.51L162.94,40.21L164.18,42.11L165.41,46.35L166.64,44.47L167.88,45.7L169.11,45.67L170.35,46.99L171.58,42.86L174.05,45.63L175.28,45.89L176.52,42.28L177.75,43.02L178.99,44.38L180.22,44.57L183.92,48.74L185.16,47.18L186.39,47.54L187.63,46.64L190.1,42.99L191.33,45.05L192.57,45.57L193.8,45.12L195.03,43.37L196.27,44.96L197.5,43.76L198.74,45.31L199.97,45.47L201.21,42.44L202.44,42.44L203.67,44.15L204.91,43.6L206.14,45.8L207.38,46.05L208.61,44.83L211.08,45.31L212.31,43.76L213.55,42.86L214.78,43.79L216.02,42.5L217.25,42.86L218.49,40.95L219.72,42.89L222.19,41.76L223.42,41.82L224.66,40.95L225.89,41.53L227.13,41.21L228.36,38.21L229.59,41.24L230.83,41.6L233.3,40.6L234.53,41.79" style="vector-effect: none; fill: none; stroke: rgb(255, 28, 28); stroke-opacity: 1; stroke-width: 3px; opacity: 1;"/></g><g class="points"/><g class="text"/></g><g class="trace scatter tracecb776f" style="stroke-miterlimit: 2; opacity: 1;"><g class="fills"/><g class="errorbars"/><g class="lines"><path class="js-line" d="M0.01,234.34L1.24,235.89L2.48,235.05L3.71,235.89L4.95,233.2L6.18,235.43L7.42,234.98L9.88,232.91L11.12,230.91L12.35,228.26L13.59,223.16L18.52,193.93L19.76,190.45L24.7,166.68L25.93,162.03L28.4,153.34L29.63,144.91L37.04,111.84L38.27,103.57L39.51,103.18L40.74,94.69L41.98,94.85L43.21,92.27L45.68,80.42L46.91,78.58L49.38,74.12L50.62,67.05L51.85,71.31L53.08,68.44L54.32,63.59L55.55,65.95L56.79,63.95L58.02,55.32L59.26,55.26L60.49,59.88L62.96,44.25L64.19,44.21L65.43,49.38L66.66,48.7L67.9,43.73L69.13,42.66L70.37,40.11L71.6,42.92L72.83,35.01L74.07,33.1L75.3,31.07L76.54,36.85L77.77,38.92L79.01,35.43L81.47,26.39L82.71,31.36L85.18,28.03L86.41,28.23L87.65,25.58L88.88,26.19L90.11,16.92L91.35,16.02L92.58,23.42L93.82,24.03L95.05,17.76L96.29,21.06L97.52,23.32L98.76,22.9L101.22,19.12L102.46,12.5L103.69,20.83L104.93,18.15L106.16,21.99L107.4,23.29L108.63,21.77L109.86,22.8L111.1,26.45L112.33,26.42L114.8,27.39L116.04,28.65L117.27,30.13L118.5,24.29L119.74,32.56L120.97,25.48L122.21,31.3L123.44,32.1L124.68,31.04L125.91,28.42L127.14,30.36L128.38,29.29L129.61,31.68L130.85,30.68L133.32,35.17L134.55,32.49L135.79,36.69L137.02,38.01L138.25,33.91L139.49,37.33L140.72,35.43L141.96,38.98L143.19,40.08L144.43,33.2L145.66,38.11L146.89,32.88L148.13,33.23L149.36,39.05L150.6,33.07L151.83,37.01L153.07,34.91L154.3,34.4L155.53,40.02L156.77,33.91L158,35.01L159.24,32.49L160.47,35.78L161.71,33.75L162.94,35.3L164.17,34.2L165.41,35.53L166.64,32.88L167.88,33.33L169.11,35.49L170.35,37.79L171.58,34.82L172.82,34.78L174.05,33.65L175.28,32.07L176.52,35.53L177.75,34.4L178.99,36.59L180.22,34.46L181.46,34.43L182.69,33.59L183.92,35.43L185.16,37.24L186.39,36.2L187.63,36.95L188.86,34.3L190.1,34.3L191.33,35.85L192.56,36.2L193.8,33.27L195.03,35.2L196.27,34.3L197.5,35.78L198.74,35.46L199.97,34.82L201.2,35.36L202.44,33.98L203.67,34.56L204.91,33.88L206.14,34.23L207.38,35.62L208.61,34.2L211.08,33.17L212.31,34.72L214.78,32.75L216.02,33.2L218.48,32.04L219.72,32.23L220.95,32.75L222.19,32.17L228.36,31.36L229.59,30.62L232.06,30.29L233.3,28.49L234.53,30.59L235.77,29.1L237,29.58" style="vector-effect: none; fill: none; stroke: rgb(255, 28, 28); stroke-opacity: 1; stroke-width: 3px; opacity: 1;"/></g><g class="points"/><g class="text"/></g><g class="trace scatter trace118b8d" style="stroke-miterlimit: 2; opacity: 1;"><g class="fills"/><g class="errorbars"/><g class="lines"><path class="js-line" d="M0,230.4L5.7,228.03L6.17,227.74L9.97,224.59L10.45,224.07L14.25,218.56L14.72,217.67L18.05,209.79L18.52,208.39L21.85,196.45L22.32,194.4L26.12,174.78L26.6,171.93L32.77,129.09L33.25,125.56L40.37,77.28L40.85,74.62L45.12,54.73L45.6,52.96L49.39,41.61L49.87,40.51L53.67,33.61L54.14,32.95L58.42,28.57L58.89,28.22L64.12,25.55L64.59,25.39L71.72,23.92L72.19,23.86L85.97,23.17L86.44,23.17L127.29,23.06L127.76,23.06L237,23.06" style="vector-effect: none; fill: none; stroke: rgb(0, 0, 0); stroke-opacity: 1; stroke-dasharray: 9px, 9px; stroke-width: 3px; opacity: 1;"/></g><g class="points"/><g class="text"/></g></g></g></g><path class="xlines-above crisp" d="M0,0" style="fill: none;"/><path class="ylines-above crisp" d="M0,0" style="fill: none;"/><g class="overlines-above"/><g class="xaxislayer-above"><g class="xtick"><text text-anchor="middle" x="0" y="285" transform="translate(47,0)" style="font-family: 'Open Sans', verdana, arial, sans-serif; font-size: 14px; fill: rgb(0, 0, 0); fill-opacity: 1; white-space: pre; opacity: 1;">0</text></g><g class="xtick"><text text-anchor="middle" x="0" y="285" style="font-family: 'Open Sans', verdana, arial, sans-serif; font-size: 14px; fill: rgb(0, 0, 0); fill-opacity: 1; white-space: pre; opacity: 1;" transform="translate(96.37,0)">10</text></g><g class="xtick"><text text-anchor="middle" x="0" y="285" style="font-family: 'Open Sans', verdana, arial, sans-serif; font-size: 14px; fill: rgb(0, 0, 0); fill-opacity: 1; white-space: pre; opacity: 1;" transform="translate(145.75,0)">20</text></g><g class="xtick"><text text-anchor="middle" x="0" y="285" style="font-family: 'Open Sans', verdana, arial, sans-serif; font-size: 14px; fill: rgb(0, 0, 0); fill-opacity: 1; white-space: pre; opacity: 1;" transform="translate(195.12,0)">30</text></g><g class="xtick"><text text-anchor="middle" x="0" y="285" style="font-family: 'Open Sans', verdana, arial, sans-serif; font-size: 14px; fill: rgb(0, 0, 0); fill-opacity: 1; white-space: pre; opacity: 1;" transform="translate(244.49,0)">40</text></g></g><g class="yaxislayer-above"><g class="ytick"><text text-anchor="end" x="46" y="4.8999999999999995" transform="translate(0,252.33)" style="font-family: 'Open Sans', verdana, arial, sans-serif; font-size: 14px; fill: rgb(0, 0, 0); fill-opacity: 1; white-space: pre; opacity: 1;">0</text></g><g class="ytick"><text text-anchor="end" x="46" y="4.8999999999999995" style="font-family: 'Open Sans', verdana, arial, sans-serif; font-size: 14px; fill: rgb(0, 0, 0); fill-opacity: 1; white-space: pre; opacity: 1;" transform="translate(0,213.58)">0.2</text></g><g class="ytick"><text text-anchor="end" x="46" y="4.8999999999999995" style="font-family: 'Open Sans', verdana, arial, sans-serif; font-size: 14px; fill: rgb(0, 0, 0); fill-opacity: 1; white-space: pre; opacity: 1;" transform="translate(0,174.82)">0.4</text></g><g class="ytick"><text text-anchor="end" x="46" y="4.8999999999999995" style="font-family: 'Open Sans', verdana, arial, sans-serif; font-size: 14px; fill: rgb(0, 0, 0); fill-opacity: 1; white-space: pre; opacity: 1;" transform="translate(0,136.07)">0.6</text></g><g class="ytick"><text text-anchor="end" x="46" y="4.8999999999999995" style="font-family: 'Open Sans', verdana, arial, sans-serif; font-size: 14px; fill: rgb(0, 0, 0); fill-opacity: 1; white-space: pre; opacity: 1;" transform="translate(0,97.32)">0.8</text></g><g class="ytick"><text text-anchor="end" x="46" y="4.8999999999999995" style="font-family: 'Open Sans', verdana, arial, sans-serif; font-size: 14px; fill: rgb(0, 0, 0); fill-opacity: 1; white-space: pre; opacity: 1;" transform="translate(0,58.56)">1</text></g></g><g class="overaxes-above"/></g></g><g class="polarlayer"/><g class="smithlayer"/><g class="ternarylayer"/><g class="geolayer"/><g class="funnelarealayer"/><g class="pielayer"/><g class="iciclelayer"/><g class="treemaplayer"/><g class="sunburstlayer"/><g class="glimages"/><defs id="topdefs-7e551f"><g class="clips"/><clipPath id="legend7e551f"><rect width="211" height="71" x="0" y="0"/></clipPath></defs><g class="layer-above"><g class="imagelayer"/><g class="shapelayer"/></g><g class="infolayer"><g class="legend" pointer-events="all" transform="translate(288.74,20)"><rect class="bg" shape-rendering="crispEdges" style="stroke: rgb(68, 68, 68); stroke-opacity: 1; fill: rgb(255, 255, 255); fill-opacity: 1; stroke-width: 0px;" width="211" height="71" x="0" y="0"/><g class="scrollbox" transform="" clip-path="url(#legend7e551f)"><g class="groups"><g class="traces" transform="translate(0,24.7)" style="opacity: 1;"><text class="legendtext" text-anchor="start" x="40" y="-3.64" style="font-family: 'Open Sans', verdana, arial, sans-serif; font-size: 14px; fill: rgb(0, 0, 0); fill-opacity: 1; white-space: pre;"><tspan class="line" dy="0em" x="40" y="-3.64">Salmonella Typhimurium </tspan><tspan class="line" dy="1.3em" x="40" y="-3.64">mcherry:pGDPI CTX-M-15</tspan></text><g class="layers" style="opacity: 1;"><g class="legendfill"/><g class="legendlines"><path class="js-line" d="M5,0h30" style="fill: none; stroke: rgb(255, 28, 28); stroke-opacity: 1; stroke-width: 3px;"/></g><g class="legendsymbols"><g class="legendpoints"/></g></g><rect class="legendtoggle" x="0" y="-19.7" width="205.125" height="39.4" style="fill: rgb(0, 0, 0); fill-opacity: 0;"/></g><g class="traces" transform="translate(0,55)" style="opacity: 1;"><text class="legendtext" text-anchor="start" x="40" y="5.46" style="font-family: 'Open Sans', verdana, arial, sans-serif; font-size: 14px; fill: rgb(0, 0, 0); fill-opacity: 1; white-space: pre;">Model</text><g class="layers" style="opacity: 1;"><g class="legendfill"/><g class="legendlines"><path class="js-line" d="M5,0h30" style="fill: none; stroke: rgb(0, 0, 0); stroke-opacity: 1; stroke-dasharray: 9px, 9px; stroke-width: 3px;"/></g><g class="legendsymbols"><g class="legendpoints"/></g></g><rect class="legendtoggle" x="0" y="-10.6" width="205.125" height="21.2" style="fill: rgb(0, 0, 0); fill-opacity: 0;"/></g></g></g><rect class="scrollbar" rx="20" ry="3" width="0" height="0" style="fill: rgb(128, 139, 164); fill-opacity: 1;" x="0" y="0"/></g><g class="g-gtitle"/><g class="g-xtitle"><text class="xtitle" x="165.5" y="314.4" text-anchor="middle" style="opacity: 1; font-family: 'Open Sans', verdana, arial, sans-serif; font-size: 17px; fill: rgb(0, 0, 0); fill-opacity: 1; white-space: pre;">Time [h]</text></g><g class="g-ytitle" transform="translate(8.9189453125,0)"><text class="ytitle" transform="rotate(-90,6.081249999999997,145)" x="6.081249999999997" y="145" text-anchor="middle" style="opacity: 1; font-family: 'Open Sans', verdana, arial, sans-serif; font-size: 17px; fill: rgb(0, 0, 0); fill-opacity: 1; white-space: pre;">Abundance [OD]</text></g></g></svg>