<svg class="main-svg" xmlns="http://www.w3.org/2000/svg" xmlns:xlink="http://www.w3.org/1999/xlink" width="1000" height="400" style="" viewBox="0 0 1000 400"><rect x="0" y="0" width="1000" height="400" style="fill: rgb(255, 255, 255); fill-opacity: 1;"/><defs id="defs-1f9f47"><g class="clips"><clipPath id="clip1f9f47xyplot" class="plotclip"><rect width="574" height="330"/></clipPath><clipPath class="axesclip" id="clip1f9f47x"><rect x="47" y="0" width="574" height="400"/></clipPath><clipPath class="axesclip" id="clip1f9f47y"><rect x="0" y="20" width="1000" height="330"/></clipPath><clipPath class="axesclip" id="clip1f9f47xy"><rect x="47" y="20" width="574" height="330"/></clipPath></g><g class="gradients"/><g class="patterns"/></defs><g class="bglayer"/><g class="layer-below"><g class="imagelayer"/><g class="shapelayer"/></g><g class="cartesianlayer"><g class="subplot xy"><g class="layer-subplot"><g class="shapelayer"/><g class="imagelayer"/></g><g class="minor-gridlayer"><g class="x"/><g class="y"/></g><g class="gridlayer"><g class="x"><path class="xgrid crisp" transform="translate(166.56,0)" d="M0,20v330" style="stroke: rgb(0, 0, 0); stroke-opacity: 1; stroke-width: 1px;"/><path class="xgrid crisp" transform="translate(286.14,0)" d="M0,20v330" style="stroke: rgb(0, 0, 0); stroke-opacity: 1; stroke-width: 1px;"/><path class="xgrid crisp" transform="translate(405.73,0)" d="M0,20v330" style="stroke: rgb(0, 0, 0); stroke-opacity: 1; stroke-width: 1px;"/><path class="xgrid crisp" transform="translate(525.31,0)" d="M0,20v330" style="stroke: rgb(0, 0, 0); stroke-opacity: 1; stroke-width: 1px;"/></g><g class="y"><path class="ygrid crisp" transform="translate(0,277.31)" d="M47,0h574" style="stroke: rgb(0, 0, 0); stroke-opacity: 1; stroke-width: 1px;"/><path class="ygrid crisp" transform="translate(0,225.86)" d="M47,0h574" style="stroke: rgb(0, 0, 0); stroke-opacity: 1; stroke-width: 1px;"/><path class="ygrid crisp" transform="translate(0,174.4)" d="M47,0h574" style="stroke: rgb(0, 0, 0); stroke-opacity: 1; stroke-width: 1px;"/><path class="ygrid crisp" transform="translate(0,122.94)" d="M47,0h574" style="stroke: rgb(0, 0, 0); stroke-opacity: 1; stroke-width: 1px;"/><path class="ygrid crisp" transform="translate(0,71.49000000000001)" d="M47,0h574" style="stroke: rgb(0, 0, 0); stroke-opacity: 1; stroke-width: 1px;"/></g></g><g class="zerolinelayer"><path class="yzl zl crisp" transform="translate(0,328.77)" d="M47,0h574" style="stroke: rgb(0, 0, 0); stroke-opacity: 1; stroke-width: 1px;"/></g><g class="layer-between"><g class="shapelayer"/><g class="imagelayer"/></g><path class="xlines-below"/><path class="ylines-below"/><g class="overlines-below"/><g class="xaxislayer-below"/><g class="yaxislayer-below"/><g class="overaxes-below"/><g class="overplot"><g class="xy" transform="translate(47,20)" clip-path="url(#clip1f9f47xyplot)"><g class="scatterlayer mlayer"><g class="trace scatter trace0e0289" style="stroke-miterlimit: 2; opacity: 1;"><g class="fills"/><g class="errorbars"/><g class="lines"><path class="js-line" d="M0,311.65L2.98,312.47L5.97,312.47L11.95,311.34L14.94,310.21L20.92,310.1L23.91,308.87L26.9,308.15L29.89,304.55L32.88,302.18L35.87,296.42L38.86,288.7L41.85,278L44.84,266.68L47.83,262.46L56.8,238.89L59.79,224.79L68.75,177.14L71.74,165.41L74.73,154.5L77.72,137.73L86.69,102.53L89.68,94.3L95.66,68.06L98.65,57.77L101.64,50.36L104.63,40.79L110.61,35.85L113.6,41.92L116.59,44.8L119.58,46.04L125.56,47.68L128.55,51.18L134.52,51.7L137.51,55.71L140.5,56.22L143.49,55.71L146.48,53.86L149.47,53.24L152.46,54.47L155.45,58.9L158.44,60.75L161.43,51.59L164.42,61.27L167.41,58.69L170.4,61.27L173.39,61.68L176.38,60.13L179.37,50.05L182.36,49.33L185.35,53.44L188.34,53.55L191.33,50.77L194.32,51.59L197.31,47.37L200.3,56.22L203.29,57.66L206.28,50.36L209.26,51.59L212.25,64.56L215.24,59.31L218.23,59.21L221.22,58.28L224.21,62.71L227.2,59L230.19,60.34L233.18,64.77L236.17,66L239.16,68.57L242.15,63.32L245.14,64.35L248.13,62.81L251.12,68.57L257.1,71.97L260.09,72.79L263.08,73.41L266.07,73.2L269.06,64.56L272.05,72.07L275.04,73.72L278.03,74.03L281.02,67.85L284.01,71.56L287,72.28L289.99,65.28L295.96,70.01L298.95,76.5L301.94,79.79L304.93,74.44L307.92,76.09L310.91,74.44L313.9,72.59L316.89,72.59L322.87,79.17L325.86,78.66L328.85,78.45L331.84,77.42L334.83,75.26L337.82,74.95L340.81,76.39L343.8,69.5L346.79,70.01L349.78,77.94L352.77,74.54L355.76,80.3L361.74,79.79L364.73,74.13L367.72,76.39L370.71,80.3L373.69,76.91L376.68,81.54L382.66,82.77L385.65,89.26L388.64,88.54L391.63,77.42L394.62,82.57L397.61,77.73L400.6,79.48L403.59,78.14L406.58,86.69L409.57,87.2L412.56,81.54L415.55,82.47L418.54,72.59L421.53,85.14L424.52,85.35L427.51,86.89L430.5,91.11L433.49,71.76L436.48,82.98L439.47,81.44L442.46,83.29L445.45,71.66L448.44,86.27L451.42,69.29L454.41,93.99L457.4,84.63L460.39,87.82L463.38,83.6L466.37,85.35L469.36,92.35L472.35,92.24L475.34,97.49L478.33,91.93L481.32,92.24L484.31,89.88L487.3,95.43L490.29,91.73L493.28,82.05L496.27,87.92L499.26,90.18L502.25,88.95L505.24,86.79L508.23,91.93L511.22,95.23L514.21,85.96L517.2,85.76L520.19,96.56L523.18,95.02L526.17,87.3L529.15,89.05L535.13,96.77L538.12,92.96L541.11,93.27L544.1,86.38L550.08,97.8L553.07,94.2L556.06,93.37L559.05,95.54L568.02,89.57L571.01,95.33L574,93.48" style="vector-effect: none; fill: none; stroke: rgb(255, 28, 28); stroke-opacity: 1; stroke-width: 3px; opacity: 1;"/></g><g class="points"/><g class="text"/></g><g class="trace scatter traceb79c16" style="stroke-miterlimit: 2; opacity: 1;"><g class="fills"/><g class="errorbars"/><g class="lines"><path class="js-line" d="M0,312.78L5.98,311.96L8.96,312.06L14.94,312.16L17.93,311.44L26.9,310.41L29.89,308.77L32.88,308.15L35.87,306.5L38.86,304.44L41.85,301.05L44.84,298.37L47.83,287.67L53.81,264.51L56.8,259.27L59.79,255.25L62.78,249.39L65.77,243.73L68.76,231.17L71.75,209.15L74.74,204.21L80.72,176.73L83.7,165.21L89.68,137.01L92.67,127.64L95.66,114.16L98.65,104.69L101.64,97.8L104.63,84.63L107.62,69.7L110.61,59.31L113.6,41.51L116.59,34.61L119.58,35.02L122.57,31.32L125.56,41.51L128.55,42.95L134.53,41.2L137.52,43.87L140.51,40.27L143.5,43.57L146.49,43.77L149.48,49.23L152.46,48.4L155.46,45.11L158.44,46.14L161.43,44.49L164.42,42.74L167.41,53.34L170.4,54.06L173.39,52.42L176.38,51.59L179.37,45.93L182.36,50.46L185.35,57.77L188.34,57.87L191.33,59.31L194.32,53.55L197.31,59.1L200.3,54.58L203.29,47.37L206.28,63.22L209.27,60.85L212.26,55.3L215.25,62.5L218.24,60.03L221.23,64.66L224.22,62.19L227.21,63.22L230.2,63.43L233.19,65.79L236.17,69.4L239.16,61.47L242.15,66.51L245.14,63.32L248.13,70.01L251.12,68.16L254.11,73.1L257.1,67.34L260.09,64.56L263.08,72.59L269.06,76.81L272.05,68.06L275.04,68.06L278.03,64.46L284.01,68.88L287,67.34L289.99,71.97L292.98,70.32L298.96,73.41L301.95,73.82L304.94,69.09L307.93,71.66L310.92,76.91L313.9,72.07L322.87,63.84L325.86,66.21L328.85,55.81L331.84,64.56L334.83,69.29L337.82,63.53L340.81,71.66L343.8,71.97L346.79,72.69L349.78,65.28L352.77,73.2L355.76,75.57L358.75,72.9L361.74,67.75L364.73,66.31L367.72,72.59L370.71,70.63L373.7,74.03L376.69,75.67L379.68,72.59L382.67,68.47L385.66,66.82L391.64,75.36L394.62,67.54L397.61,68.47L400.6,71.66L403.59,72.28L406.58,81.54L409.57,77.11L412.56,83.39L415.55,76.7L418.54,74.44L421.53,75.36L424.52,77.73L427.51,71.66L430.5,75.88L433.49,78.35L436.48,72.9L439.47,59.41L442.46,70.84L445.45,76.29L448.44,74.54L451.43,74.85L454.42,70.53L457.41,71.87L460.4,71.45L463.39,76.81L466.38,83.8L469.37,76.19L472.35,71.66L475.34,79.58L478.33,73.2L481.32,81.54L484.31,80.82L487.3,83.8L490.29,68.26L493.28,76.39L496.27,81.75L499.26,88.85L502.25,86.89L505.24,85.76L508.23,83.39L511.22,88.64L514.21,90.29L517.2,78.97L520.19,83.39L526.17,83.91L529.16,88.64L532.15,85.14L535.14,77.83L541.12,83.6L544.11,80.41L550.09,85.55L553.08,91.42L556.06,80.82L559.05,80.51L562.04,90.49L565.03,87.1L568.02,83.39" style="vector-effect: none; fill: none; stroke: rgb(255, 28, 28); stroke-opacity: 1; stroke-width: 3px; opacity: 1;"/></g><g class="points"/><g class="text"/></g><g class="trace scatter tracedb15bc" style="stroke-miterlimit: 2; opacity: 1;"><g class="fills"/><g class="errorbars"/><g class="lines"><path class="js-line" d="M0,310.52L2.98,313.5L5.97,312.16L8.96,312.78L11.95,312.37L17.93,311.85L20.92,310.52L23.91,309.69L26.9,308.05L32.88,298.37L35.87,291.68L38.86,283.45L41.85,272.54L47.83,259.06L50.82,255.46L53.81,243.31L56.8,227.26L65.76,181.16L68.75,167.26L74.73,136.49L77.72,122.7L80.71,106.75L83.7,97.08L86.69,83.08L89.68,76.29L92.67,59.93L95.66,52.72L98.65,34.2L101.64,27.51L104.63,25.35L107.62,17.32L110.61,16.5L113.6,31.11L116.59,27.61L119.58,32.25L122.57,32.25L125.56,31.32L128.55,29.16L131.54,29.57L134.52,36.16L137.51,37.49L143.49,32.45L146.48,34.92L149.47,32.97L152.46,32.14L155.45,38.83L158.44,40.38L161.43,37.29L164.42,42.54L167.41,43.05L170.4,41.51L173.39,42.64L176.38,41.51L179.37,35.74L182.36,36.57L185.35,41.1L188.34,41.4L191.33,39.86L194.32,47.37L197.31,46.86L200.3,47.89L203.29,47.78L206.28,44.59L209.27,48.61L212.26,49.23L215.24,47.68L218.23,44.39L221.22,47.37L224.21,52.42L227.2,53.44L230.19,50.56L233.18,55.5L236.17,56.64L239.16,54.89L242.15,46.34L245.14,57.36L248.13,53.65L251.12,50.05L254.11,52.21L257.1,61.88L260.09,63.43L263.08,55.09L266.07,66.62L269.06,63.43L272.05,58.9L275.04,61.88L278.03,58.69L281.02,64.25L284.01,71.66L287,56.94L289.99,68.57L292.98,74.44L295.96,71.15L298.95,70.12L301.94,60.34L304.93,62.91L307.92,68.16L310.91,62.5L313.9,62.91L316.89,71.66L319.88,69.4L322.87,72.07L325.86,68.06L328.85,62.5L331.84,66.41L334.83,65.07L337.82,68.47L340.81,68.57L343.8,69.6L346.79,71.76L349.78,71.97L352.77,59.31L355.76,64.46L364.73,75.47L367.72,66.93L376.68,78.14L379.67,74.03L382.66,71.04L385.65,66.21L388.64,74.44L391.63,73.92L394.62,71.04L397.61,74.95L400.6,77.94L403.59,78.56L406.58,68.98L409.57,77.42L412.56,74.54L415.55,68.98L418.54,73.51L421.53,76.6L424.52,69.81L427.51,73.31L430.5,76.7L433.49,75.57L436.48,78.04L439.47,76.81L442.46,78.66L445.45,79.07L448.44,79.89L451.43,77.53L454.42,76.81L457.4,77.94L460.39,76.81L463.38,83.39L466.37,86.99L469.36,79.38L472.35,83.19L475.34,80.72L481.32,79.28L484.31,74.64L487.3,77.42L490.29,76.6L496.27,83.7L499.26,86.17L502.25,91.62L505.24,88.02L508.23,84.63L511.22,89.98L514.21,94.51L517.2,86.99L520.19,86.07L523.18,86.07L526.17,86.17L529.16,88.02L532.14,92.55L535.13,88.54L538.12,87.51L541.11,83.7L547.09,87.61L550.08,86.48L553.07,84.94L556.06,87.82L559.05,86.69L562.04,87.51L565.03,85.86L568.02,87.1L571.01,95.12L574,96.67" style="vector-effect: none; fill: none; stroke: rgb(255, 28, 28); stroke-opacity: 1; stroke-width: 3px; opacity: 1;"/></g><g class="points"/><g class="text"/></g><g class="trace scatter trace68e318" style="stroke-miterlimit: 2; opacity: 1;"><g class="fills"/><g class="errorbars"/><g class="lines"><path class="js-line" d="M0,311.65L2.98,312.99L5.97,312.99L8.96,311.54L11.95,311.85L20.92,310.62L23.91,310.41L29.89,305.06L32.88,300.64L35.87,296.42L38.86,289.21L41.85,280.05L44.84,267.7L47.83,260.91L50.82,249.8L56.8,222.42L59.79,218.62L62.77,218L65.76,206.27L71.74,181.88L74.73,172L77.72,160.37L80.71,140.4L83.7,135.98L86.69,125.17L89.68,114.88L92.67,99.96L98.65,77.32L101.64,73L104.63,72.17L107.62,73.51L110.61,73.92L113.6,73.31L116.59,75.67L119.58,72.79L125.56,67.75L128.55,68.16L137.51,64.97L140.5,64.46L146.48,62.6L149.47,59.93L152.46,61.16L155.45,61.47L158.44,60.75L161.43,50.05L164.42,62.81L167.41,58.69L170.4,61.27L173.39,60.65L176.38,58.08L179.37,50.56L182.36,46.76L185.35,48.3L188.34,49.43L191.33,43.57L194.32,44.39L197.31,42.23L200.3,51.08L203.29,53.55L206.28,43.67L209.26,46.96L212.25,56.84L215.24,53.65L218.23,48.4L221.22,50.05L224.21,53.44L227.2,52.31L230.19,59.31L233.18,58.59L239.16,63.94L242.15,55.61L245.14,58.69L248.13,58.69L251.12,64.46L254.11,62.71L257.1,63.22L260.09,66.1L263.08,67.75L266.07,64.46L269.06,60.96L272.05,70.53L275.04,74.23L278.03,66.31L281.02,59.1L284.01,70.01L287,67.65L289.99,56.53L292.97,60.55L295.96,62.81L298.95,73.92L301.94,76.19L304.93,69.81L307.92,67.85L310.91,66.72L313.9,66.93L316.89,66.93L319.88,76.5L322.87,75.57L325.86,76.6L328.85,72.79L331.84,70.73L334.83,68.57L337.82,70.32L340.81,72.79L343.8,70.01L346.79,67.44L349.78,75.88L352.77,76.09L355.76,79.79L358.75,76.7L361.74,77.73L364.73,68.98L367.72,68.68L370.71,74.13L373.69,70.22L376.68,76.91L379.67,76.09L382.66,79.17L385.65,85.14L388.64,89.05L391.63,74.34L394.62,82.05L397.61,74.13L400.6,73.82L403.59,70.94L406.58,81.02L409.57,85.66L412.56,75.36L415.55,76.81L418.54,68.47L421.53,83.6L427.51,84.83L430.5,90.6L433.49,68.68L436.48,77.32L439.47,73.2L442.46,83.8L445.45,68.57L448.44,80.61L451.42,74.44L454.41,89.36L457.4,82.05L460.39,85.76L463.38,84.11L466.37,91.01L469.36,91.32L472.35,86.58L475.34,92.86L478.33,87.3L481.32,90.7L484.31,83.19L487.3,88.74L490.29,89.15L493.28,81.02L496.27,82.26L499.26,88.64L502.25,88.95L505.24,87.82L508.23,90.9L511.22,91.11L514.21,92.65L517.2,83.7L520.19,93.48L523.18,91.93L526.17,86.79L532.14,93.37L535.13,97.8L538.12,93.99L541.11,92.76L544.1,85.35L547.09,89.67L550.08,93.17L553.07,92.14L556.06,93.37L559.05,96.56L565.03,91.32L568.02,86.99L571.01,93.27L574,93.99" style="vector-effect: none; fill: none; stroke: rgb(51, 204, 51); stroke-opacity: 1; stroke-width: 3px; opacity: 1;"/></g><g class="points"/><g class="text"/></g><g class="trace scatter trace41aeed" style="stroke-miterlimit: 2; opacity: 1;"><g class="fills"/><g class="errorbars"/><g class="lines"><path class="js-line" d="M0,310.21L2.98,312.68L5.98,311.44L8.96,311.03L11.95,311.75L20.92,311.03L23.91,310.31L26.9,310.41L29.89,309.28L38.86,308.56L41.85,306.71L50.82,298.58L53.81,291.79L59.79,275.32L62.78,262.25L68.76,238.38L71.75,214.29L74.74,210.9L77.73,205.55L86.7,162.74L89.68,155.53L98.65,124.76L101.64,121.47L104.63,111.9L107.62,95.43L110.61,90.7L113.6,74.95L119.58,62.81L122.57,52.42L125.56,44.59L128.55,47.58L131.54,58.8L134.53,54.58L137.52,54.17L140.51,48.51L143.5,51.8L146.49,48.4L149.48,53.86L152.46,50.98L155.46,44.08L158.44,42.54L161.43,40.89L164.42,36.57L167.41,47.17L170.4,47.37L173.39,44.7L176.38,46.45L179.37,37.7L182.36,39.65L185.35,47.48L188.34,43.98L191.33,45.93L194.32,39.65L197.31,46.24L200.3,40.68L203.29,27.31L206.28,47.78L209.27,43.36L212.26,35.23L215.25,43.46L218.24,40.48L221.23,42.54L224.22,40.07L227.21,38.52L230.2,35.64L233.19,36.98L236.17,43.15L239.16,31.63L242.15,39.24L245.14,33.48L248.13,42.74L251.12,39.35L254.11,47.37L257.1,44.18L260.09,37.29L266.07,53.34L269.06,49.02L272.05,41.82L275.04,44.39L278.03,38.73L281.02,44.18L284.01,46.24L287,43.15L289.99,48.81L292.98,51.28L298.96,50.77L301.95,57.87L304.94,49.02L307.93,46.96L310.92,56.33L313.9,52.52L316.89,48.51L319.88,50.67L322.87,40.68L325.86,44.59L328.85,41.92L331.84,43.46L334.83,52.83L337.82,43.46L340.81,53.65L343.8,54.99L346.79,54.68L349.78,43.15L352.77,54.68L355.76,58.08L358.75,51.28L361.74,46.65L364.73,48.81L367.72,49.95L370.71,50.05L373.7,54.99L376.69,56.64L379.68,57.15L382.67,51.49L385.66,49.84L388.65,61.78L391.64,62.5L394.62,49.53L397.61,55.61L400.6,55.19L403.59,53.24L406.58,69.19L409.57,66.31L412.56,68.98L415.55,63.84L418.54,60.03L421.53,63.53L424.52,71.04L427.51,58.8L430.5,68.16L433.49,63.94L436.48,62.09L439.47,56.84L442.46,66.72L445.45,68.06L448.44,63.22L451.43,64.04L454.42,65.9L457.41,63.63L460.4,60.13L463.39,65.49L466.38,73L469.37,64.87L472.35,60.34L475.34,67.75L478.33,61.37L481.32,71.76L484.31,73.62L487.3,78.66L490.29,65.69L493.28,70.73L496.27,75.57L499.26,84.22L502.25,84.83L505.24,77.53L508.23,75.67L511.22,80.41L514.21,86.17L517.2,68.68L520.19,74.13L523.18,75.26L526.17,74.64L529.16,84.01L532.15,80L535.14,70.63L541.12,74.85L544.11,72.69L547.1,77.22L550.09,78.86L553.08,86.79L556.06,75.16L559.05,74.85L562.04,88.95L568.02,81.33" style="vector-effect: none; fill: none; stroke: rgb(51, 204, 51); stroke-opacity: 1; stroke-width: 3px; opacity: 1;"/></g><g class="points"/><g class="text"/></g><g class="trace scatter trace3a2260" style="stroke-miterlimit: 2; opacity: 1;"><g class="fills"/><g class="errorbars"/><g class="lines"><path class="js-line" d="M0,310.52L2.98,312.99L5.97,312.68L11.95,311.85L14.94,312.47L23.91,310.72L26.9,310.62L32.88,307.63L35.87,304.03L41.85,295.7L44.84,287.05L50.82,269.35L53.81,266.47L62.78,219.34L65.76,210.49L68.75,219.23L71.74,196.9L74.73,178.17L77.72,165.41L83.7,143.39L86.69,127.85L92.67,107.27L95.66,92.35L98.65,77.42L101.64,69.19L107.62,51.8L110.61,48.92L113.6,57.87L116.59,51.28L119.58,57.46L122.57,56.94L128.55,49.23L131.54,47.58L134.52,48.51L137.51,48.3L140.5,43.98L143.49,41.71L146.48,43.15L149.47,37.08L152.46,38.83L155.45,41.92L158.44,40.38L161.43,37.8L164.42,39.96L167.41,38.42L170.4,38.93L173.39,37.49L176.38,37.91L179.37,30.08L182.36,30.91L185.35,32.86L188.34,31.63L191.33,29.06L194.32,35.02L197.31,33.99L203.29,31.32L206.28,29.67L209.27,30.08L212.26,29.67L215.24,30.7L218.23,29.47L221.22,30.91L224.21,39.04L227.2,40.07L230.19,36.16L233.18,41.1L236.17,42.74L239.16,41.51L242.15,33.48L245.14,42.95L248.13,40.27L254.11,39.35L257.1,47.48L260.09,50.05L263.08,42.23L266.07,52.21L269.06,50.56L272.05,48.09L275.04,50.56L278.03,47.89L281.02,51.9L284.01,59.31L287,45.11L289.99,57.25L292.98,65.18L295.96,60.34L298.95,61.88L301.94,51.59L304.93,52.62L307.92,58.9L310.91,52.72L313.9,54.68L316.89,61.37L319.88,61.16L322.87,61.78L325.86,59.31L328.85,55.81L331.84,58.69L334.83,56.84L337.82,60.24L340.81,59.83L343.8,62.91L346.79,64.04L349.78,62.19L352.77,57.25L358.75,60.75L361.74,68.47L364.73,69.81L367.72,62.3L370.7,62.6L373.69,64.46L376.68,68.88L379.67,65.28L382.66,63.84L385.65,58.49L388.64,67.75L391.63,66.21L394.62,63.32L397.61,66.72L400.6,70.73L403.59,71.35L406.58,63.84L409.57,71.25L412.56,71.45L415.55,62.3L418.54,67.34L421.53,69.4L424.52,60.55L427.51,68.68L433.49,69.91L436.48,69.81L439.47,67.03L442.46,69.91L445.45,71.35L448.44,74.75L454.42,70.63L457.4,72.28L460.39,68.06L463.38,77.22L466.37,79.79L469.36,73.72L472.35,75.98L475.34,74.54L478.33,77.22L481.32,74.13L484.31,69.5L487.3,72.28L490.29,68.88L493.28,76.39L496.27,76.5L499.26,77.42L502.25,84.42L505.24,77.22L508.23,75.88L511.22,82.77L514.21,86.27L517.2,80.82L520.19,76.81L523.18,76.81L526.17,80L529.16,81.85L532.14,87.41L535.13,83.39L538.12,88.02L541.11,86.27L544.1,87.51L547.09,86.58L550.08,86.48L553.07,79.79L556.06,84.73L559.05,85.14L562.04,84.94L565.03,83.8L568.02,84.01L571.01,93.07L574,87.92" style="vector-effect: none; fill: none; stroke: rgb(51, 204, 51); stroke-opacity: 1; stroke-width: 3px; opacity: 1;"/></g><g class="points"/><g class="text"/></g></g></g></g><path class="xlines-above crisp" d="M0,0" style="fill: none;"/><path class="ylines-above crisp" d="M0,0" style="fill: none;"/><g class="overlines-above"/><g class="xaxislayer-above"><g class="xtick"><text text-anchor="middle" x="0" y="365" transform="translate(46.97,0)" style="font-family: 'Open Sans', verdana, arial, sans-serif; font-size: 14px; fill: rgb(0, 0, 0); fill-opacity: 1; white-space: pre; opacity: 1;">0</text></g><g class="xtick"><text text-anchor="middle" x="0" y="365" style="font-family: 'Open Sans', verdana, arial, sans-serif; font-size: 14px; fill: rgb(0, 0, 0); fill-opacity: 1; white-space: pre; opacity: 1;" transform="translate(166.56,0)">10</text></g><g class="xtick"><text text-anchor="middle" x="0" y="365" style="font-family: 'Open Sans', verdana, arial, sans-serif; font-size: 14px; fill: rgb(0, 0, 0); fill-opacity: 1; white-space: pre; opacity: 1;" transform="translate(286.14,0)">20</text></g><g class="xtick"><text text-anchor="middle" x="0" y="365" style="font-family: 'Open Sans', verdana, arial, sans-serif; font-size: 14px; fill: rgb(0, 0, 0); fill-opacity: 1; white-space: pre; opacity: 1;" transform="translate(405.73,0)">30</text></g><g class="xtick"><text text-anchor="middle" x="0" y="365" style="font-family: 'Open Sans', verdana, arial, sans-serif; font-size: 14px; fill: rgb(0, 0, 0); fill-opacity: 1; white-space: pre; opacity: 1;" transform="translate(525.31,0)">40</text></g></g><g class="yaxislayer-above"><g class="ytick"><text text-anchor="end" x="46" y="4.8999999999999995" transform="translate(0,328.77)" style="font-family: 'Open Sans', verdana, arial, sans-serif; font-size: 14px; fill: rgb(0, 0, 0); fill-opacity: 1; white-space: pre; opacity: 1;">0</text></g><g class="ytick"><text text-anchor="end" x="46" y="4.8999999999999995" style="font-family: 'Open Sans', verdana, arial, sans-serif; font-size: 14px; fill: rgb(0, 0, 0); fill-opacity: 1; white-space: pre; opacity: 1;" transform="translate(0,277.31)">0.1</text></g><g class="ytick"><text text-anchor="end" x="46" y="4.8999999999999995" style="font-family: 'Open Sans', verdana, arial, sans-serif; font-size: 14px; fill: rgb(0, 0, 0); fill-opacity: 1; white-space: pre; opacity: 1;" transform="translate(0,225.86)">0.2</text></g><g class="ytick"><text text-anchor="end" x="46" y="4.8999999999999995" style="font-family: 'Open Sans', verdana, arial, sans-serif; font-size: 14px; fill: rgb(0, 0, 0); fill-opacity: 1; white-space: pre; opacity: 1;" transform="translate(0,174.4)">0.3</text></g><g class="ytick"><text text-anchor="end" x="46" y="4.8999999999999995" style="font-family: 'Open Sans', verdana, arial, sans-serif; font-size: 14px; fill: rgb(0, 0, 0); fill-opacity: 1; white-space: pre; opacity: 1;" transform="translate(0,122.94)">0.4</text></g><g class="ytick"><text text-anchor="end" x="46" y="4.8999999999999995" style="font-family: 'Open Sans', verdana, arial, sans-serif; font-size: 14px; fill: rgb(0, 0, 0); fill-opacity: 1; white-space: pre; opacity: 1;" transform="translate(0,71.49000000000001)">0.5</text></g><g class="ytick"><text text-anchor="end" x="46" y="4.8999999999999995" style="font-family: 'Open Sans', verdana, arial, sans-serif; font-size: 14px; fill: rgb(0, 0, 0); fill-opacity: 1; white-space: pre; opacity: 1;" transform="translate(0,20.03)">0.6</text></g></g><g class="overaxes-above"/></g></g><g class="polarlayer"/><g class="smithlayer"/><g class="ternarylayer"/><g class="geolayer"/><g class="funnelarealayer"/><g class="pielayer"/><g class="iciclelayer"/><g class="treemaplayer"/><g class="sunburstlayer"/><g class="glimages"/><defs id="topdefs-1f9f47"><g class="clips"/><clipPath id="legend1f9f47"><rect width="368" height="53" x="0" y="0"/></clipPath></defs><g class="layer-above"><g class="imagelayer"/><g class="shapelayer"/></g><g class="infolayer"><g class="legend" pointer-events="all" transform="translate(632,20)"><rect class="bg" shape-rendering="crispEdges" width="368" height="53" x="0" y="0" style="stroke: rgb(68, 68, 68); stroke-opacity: 1; fill: rgb(255, 255, 255); fill-opacity: 1; stroke-width: 0px;"/><g class="scrollbox" transform="" clip-path="url(#legend1f9f47)"><g class="groups"><g class="traces" transform="translate(0,15.6)" style="opacity: 1;"><text class="legendtext" text-anchor="start" x="40" y="5.46" style="font-family: 'Open Sans', verdana, arial, sans-serif; font-size: 14px; fill: rgb(0, 0, 0); fill-opacity: 1; white-space: pre;">Salmonella Typhimurium mcherry:pGDPI CTX-M-15</text><g class="layers" style="opacity: 1;"><g class="legendfill"/><g class="legendlines"><path class="js-line" d="M5,0h30" style="fill: none; stroke: rgb(255, 28, 28); stroke-opacity: 1; stroke-width: 3px;"/></g><g class="legendsymbols"><g class="legendpoints"/></g></g><rect class="legendtoggle" x="0" y="-10.6" width="362.296875" height="21.2" style="fill: rgb(0, 0, 0); fill-opacity: 0;"/></g><g class="traces" transform="translate(0,36.8)" style="opacity: 1;"><text class="legendtext" text-anchor="start" x="40" y="5.46" style="font-family: 'Open Sans', verdana, arial, sans-serif; font-size: 14px; fill: rgb(0, 0, 0); fill-opacity: 1; white-space: pre;">Escherichia coli  sfGFP:pGDPI CAT</text><g class="layers" style="opacity: 1;"><g class="legendfill"/><g class="legendlines"><path class="js-line" d="M5,0h30" style="fill: none; stroke: rgb(51, 204, 51); stroke-opacity: 1; stroke-width: 3px;"/></g><g class="legendsymbols"><g class="legendpoints"/></g></g><rect class="legendtoggle" x="0" y="-10.6" width="362.296875" height="21.2" style="fill: rgb(0, 0, 0); fill-opacity: 0;"/></g></g></g><rect class="scrollbar" rx="20" ry="3" width="0" height="0" x="0" y="0" style="fill: rgb(128, 139, 164); fill-opacity: 1;"/></g><g class="g-gtitle"/><g class="g-xtitle"><text class="xtitle" x="334" y="394.4" text-anchor="middle" style="opacity: 1; font-family: 'Open Sans', verdana, arial, sans-serif; font-size: 17px; fill: rgb(0, 0, 0); fill-opacity: 1; white-space: pre;">Time [h]</text></g><g class="g-ytitle" transform="translate(8.9189453125,0)"><text class="ytitle" transform="rotate(-90,6.081249999999997,185)" x="6.081249999999997" y="185" text-anchor="middle" style="opacity: 1; font-family: 'Open Sans', verdana, arial, sans-serif; font-size: 17px; fill: rgb(0, 0, 0); fill-opacity: 1; white-space: pre;">Abundance [OD]</text></g></g></svg>