<svg class="main-svg" xmlns="http://www.w3.org/2000/svg" xmlns:xlink="http://www.w3.org/1999/xlink" width="500" height="400" style="" viewBox="0 0 500 400"><rect x="0" y="0" width="500" height="400" style="fill: rgb(255, 255, 255); fill-opacity: 1;"/><defs id="defs-51cf6f"><g class="clips"><clipPath id="clip51cf6fxyplot" class="plotclip"><rect width="266" height="140.25000000000003"/></clipPath><clipPath id="clip51cf6fx2y2plot" class="plotclip"><rect width="266" height="140.25"/></clipPath><clipPath class="axesclip" id="clip51cf6fx"><rect x="40" y="0" width="266" height="400"/></clipPath><clipPath class="axesclip" id="clip51cf6fy"><rect x="0" y="20" width="500" height="140.25000000000003"/></clipPath><clipPath class="axesclip" id="clip51cf6fxy"><rect x="40" y="20" width="266" height="140.25000000000003"/></clipPath><clipPath class="axesclip" id="clip51cf6fy2"><rect x="0" y="209.74999999999997" width="500" height="140.25"/></clipPath><clipPath class="axesclip" id="clip51cf6fxy2"><rect x="40" y="209.74999999999997" width="266" height="140.25"/></clipPath><clipPath class="axesclip" id="clip51cf6fx2"><rect x="40" y="0" width="266" height="400"/></clipPath><clipPath class="axesclip" id="clip51cf6fx2y"><rect x="40" y="20" width="266" height="140.25000000000003"/></clipPath><clipPath class="axesclip" id="clip51cf6fx2y2"><rect x="40" y="209.74999999999997" width="266" height="140.25"/></clipPath></g><g class="gradients"/><g class="patterns"/></defs><g class="bglayer"/><g class="layer-below"><g class="imagelayer"/><g class="shapelayer"/></g><g class="cartesianlayer"><g class="subplot xy"><g class="layer-subplot"><g class="shapelayer"/><g class="imagelayer"/></g><g class="minor-gridlayer"><g class="x"/><g class="y"/></g><g class="gridlayer"><g class="x"><path class="xgrid crisp" transform="translate(95.41,0)" d="M0,20v140.25000000000003" style="stroke: rgb(0, 0, 0); stroke-opacity: 1; stroke-width: 1px;"/><path class="xgrid crisp" transform="translate(150.82999999999998,0)" d="M0,20v140.25000000000003" style="stroke: rgb(0, 0, 0); stroke-opacity: 1; stroke-width: 1px;"/><path class="xgrid crisp" transform="translate(206.24,0)" d="M0,20v140.25000000000003" style="stroke: rgb(0, 0, 0); stroke-opacity: 1; stroke-width: 1px;"/><path class="xgrid crisp" transform="translate(261.65999999999997,0)" d="M0,20v140.25000000000003" style="stroke: rgb(0, 0, 0); stroke-opacity: 1; stroke-width: 1px;"/></g><g class="y"><path class="ygrid crisp" transform="translate(0,96.96)" d="M40,0h266" style="stroke: rgb(0, 0, 0); stroke-opacity: 1; stroke-width: 1px;"/><path class="ygrid crisp" transform="translate(0,43.019999999999996)" d="M40,0h266" style="stroke: rgb(0, 0, 0); stroke-opacity: 1; stroke-width: 1px;"/></g></g><g class="zerolinelayer"><path class="xzl zl crisp" transform="translate(40,0)" d="M0,20v140.25000000000003" style="stroke: rgb(0, 0, 0); stroke-opacity: 1; stroke-width: 1px;"/><path class="yzl zl crisp" transform="translate(0,150.9)" d="M40,0h266" style="stroke: rgb(0, 0, 0); stroke-opacity: 1; stroke-width: 1px;"/></g><g class="layer-between"><g class="shapelayer"/><g class="imagelayer"/></g><path class="xlines-below"/><path class="ylines-below"/><g class="overlines-below"/><g class="xaxislayer-below"/><g class="yaxislayer-below"/><g class="overaxes-below"/><g class="overplot"><g class="xy" transform="translate(40,20)" clip-path="url(#clip51cf6fxyplot)"><g class="scatterlayer mlayer"><g class="trace scatter trace2d2e0a" style="stroke-miterlimit: 2; opacity: 1;"><g class="fills"/><g class="errorbars"/><g class="lines"><path class="js-line" d="M0.01,132.23L2.78,133.24L4.17,133.18L6.94,132.57L8.32,132.05L9.71,131.53L11.09,129.91L12.48,127.9L13.86,124.01L19.4,108.08L20.79,102.13L26.33,81.65L27.72,78.59L30.49,71.82L31.87,70.07L33.26,68.36L34.64,65.45L36.03,61.8L37.42,60.79L41.57,55.88L42.96,52.76L45.73,48.67L47.11,48.15L49.88,44.3L51.27,42.83L56.81,37.17L58.19,34.22L60.97,33.91L62.35,32.22L63.74,31.65L65.12,30.26L67.89,28.7L69.28,25.95L70.66,26.67L72.05,26.34L73.43,24.89L74.82,24.65L83.13,19.13L84.52,19.22L85.9,17.73L87.29,18.52L88.67,16.76L90.06,16.78L91.44,16.18L92.83,14.13L94.21,15.23L95.6,11.98L96.98,12.55L98.37,12.15L99.76,12.37L101.14,11.09L103.91,11.45L105.3,10.63L106.68,11.53L108.07,9.84L109.45,11.22L110.84,10.84L114.99,12.82L116.38,10.99L119.15,11.89L120.54,13.25L121.92,12.37L123.31,14.22L124.69,12.95L126.08,13.77L128.85,18.25L130.23,12.48L131.62,14.38L133,13.47L134.39,12.96L135.78,13.52L139.93,15.63L141.32,14.33L142.7,15.57L144.09,15.09L145.47,15.88L146.86,14.06L148.24,17.8L149.63,16.07L153.79,18.74L155.17,17.69L157.94,20.28L159.33,21.34L160.71,17.5L162.1,20.32L166.25,23.75L167.64,20.44L169.02,18.43L170.41,21.15L171.79,23.27L173.18,22.58L174.57,19.92L175.95,22.24L178.72,25.78L180.11,25.75L181.49,23.61L182.88,23.37L184.26,27.17L185.65,22.49L187.03,21.72L188.42,25.87L189.8,23.41L191.19,23.75L192.58,23.02L193.96,19.71L195.35,22.37L196.73,20.88L198.12,20.16L199.5,21.56L200.89,18.3L202.27,21.4L203.66,17.93L205.04,20.82L206.43,18.45L207.81,23.55L209.2,21.92L210.59,29.16L211.97,23.34L213.36,26.32L214.74,23.95L216.13,24.31L217.51,23.81L218.9,22.03L220.28,26.54L221.67,22.66L223.05,19.87L224.44,20.14L225.82,25.16L227.21,18.75L228.59,16.74L229.98,19.96L231.37,20.19L232.75,19.58L235.52,19.92L236.91,22.01L239.68,20.05L241.06,21.06L242.45,20.95L243.83,19.74L245.22,20.07L246.6,21.95L247.99,25.8L249.38,20.12L250.76,20.79L252.15,19.46L254.92,23.16L256.3,21.27L257.69,21.31L259.07,22.57L261.84,19.24L263.23,21.31L266,23.05" style="vector-effect: none; fill: none; stroke: rgb(51, 204, 51); stroke-opacity: 1; stroke-width: 2px; opacity: 1;"/></g><g class="points"/><g class="text"/></g><g class="trace scatter tracea1f3fb" style="stroke-miterlimit: 2; opacity: 1;"><g class="fills"/><g class="errorbars"/><g class="lines"><path class="js-line" d="M0.01,132.46L4.17,132.91L5.55,132.95L8.32,132.36L9.71,131.37L12.48,130.38L13.87,127.68L19.41,115.47L20.79,110.24L26.33,89.87L27.72,83.18L31.87,72.82L33.26,72.01L36.03,66.15L37.42,64.1L40.19,58.08L41.57,58.46L42.96,58.26L44.34,56.42L45.73,54.23L47.11,53.71L48.5,50.26L49.88,50.24L52.66,43.19L54.04,43.42L56.81,42.72L58.2,41.27L62.35,36.99L63.74,36.03L66.51,31.88L67.89,31.65L69.28,32.26L70.66,30.5L73.44,30.37L74.82,28.19L76.21,27.31L77.59,27.78L80.36,25.33L81.75,26.04L83.13,25.98L84.52,24.98L87.29,21.74L88.67,21.76L90.06,22.53L91.45,21.34L94.22,17.76L95.6,18.18L96.99,17.28L98.37,17.55L101.14,16.29L102.53,16.04L105.3,14.1L106.68,15.12L108.07,14.47L109.45,14.76L110.84,13.23L112.23,13.47L115,13.56L116.38,15.46L119.15,15.36L120.54,12.8L123.31,14.69L124.69,13.86L126.08,11.92L127.46,13.38L128.85,12.37L130.23,12.68L131.62,11.4L133.01,13.32L135.78,16.42L137.16,15.05L138.55,14.38L139.93,15.95L141.32,15.3L142.7,15.91L144.09,15.72L145.47,18.23L146.86,17.46L148.24,17.71L149.63,16.79L151.02,17.94L155.17,21.63L156.56,19.65L157.94,18.97L159.33,21.27L160.71,19.87L162.1,20.23L163.48,19.15L164.87,21.95L166.25,21.56L167.64,22.94L169.03,22.12L170.41,25.21L171.8,23.99L173.18,26.09L174.57,22.96L175.95,24.44L177.34,23.97L178.72,25.16L180.11,24.74L181.49,28.09L184.26,22.94L185.65,23.79L187.04,23.07L188.42,28.18L189.81,23.95L191.19,34.83L192.58,38.46L193.96,30.08L195.35,29.76L196.73,28.39L198.12,31.12L199.5,30.46L202.27,39.85L203.66,39.13L205.05,39.22L206.43,37.53L207.82,31.59L209.2,30.39L210.59,32.8L211.97,31.05L213.36,27.31L214.74,26.95L216.13,34.25L217.51,31.74L218.9,26.88L220.28,32.08L221.67,31.52L223.05,34.54L224.44,30.1L225.83,35.75L227.21,29.06L228.6,31.41L231.37,39.99L232.75,38.84L234.14,43.77L235.52,35.15L236.91,36.16L238.29,31.41L239.68,31.56L241.06,29.16L242.45,30.82L243.84,27.67L245.22,27.69L246.61,28.55L247.99,26.7L249.38,27.17L250.76,27.2L252.15,34.06L253.53,30.39L254.92,35.82L256.3,37.49L257.69,32.38L259.07,32.9L260.46,34.45L261.84,38.39L263.23,32.69" style="vector-effect: none; fill: none; stroke: rgb(51, 204, 51); stroke-opacity: 1; stroke-width: 2px; opacity: 1;"/></g><g class="points"/><g class="text"/></g><g class="trace scatter trace938c89" style="stroke-miterlimit: 2; opacity: 1;"><g class="fills"/><g class="errorbars"/><g class="lines"><path class="js-line" d="M0.01,131.48L1.4,132.45L2.78,131.87L4.17,132.23L5.55,130.63L6.94,131.76L8.32,131.3L11.09,128.74L12.48,126.44L18.02,111.5L19.41,105.92L26.33,78.47L27.72,75.79L31.87,65.34L33.26,64.21L36.03,56.96L37.42,56.12L38.8,55.51L40.19,53.94L41.57,51.73L42.96,46.59L44.34,48.1L45.73,44.45L48.5,43.64L49.88,39.94L51.27,39.09L52.65,35.91L54.04,35.71L55.42,34.51L56.81,31.65L58.2,32.83L60.97,28.97L62.35,29.42L65.12,26.52L66.51,24.54L67.89,25.6L69.28,23.16L70.66,20.35L72.05,20.77L73.43,20.73L74.82,19.81L77.59,17.96L78.98,18.16L80.36,17.35L81.75,14.13L83.13,14.15L84.52,13.23L87.29,14.8L88.67,13.07L91.44,11.71L92.83,12.53L95.6,11.33L96.99,10.9L99.76,9.87L101.14,7.52L102.53,7.01L103.91,9.62L105.3,9.53L106.68,7.77L109.45,10.54L110.84,10.73L112.22,9.62L113.61,9.6L115,7.97L116.38,11.2L117.77,10.14L119.15,11.96L120.54,12.35L121.92,11.18L124.69,13.04L126.08,12.69L130.23,13.5L131.62,14.22L133,11.18L134.39,13.95L135.78,15.3L137.16,14.22L138.55,14.67L139.93,13.65L141.32,13.49L142.7,14.89L144.09,14.4L145.47,14.76L149.63,16.7L151.01,15.54L153.79,18.72L155.17,16.76L159.33,19.58L160.71,19.22L162.1,17.23L163.48,19.74L164.87,17.48L166.25,17.57L167.64,20.91L169.02,18.23L170.41,19.24L171.79,18.07L173.18,18.65L174.57,20.37L175.95,17.51L177.34,18.12L178.72,17.69L180.11,19.31L181.49,17.96L182.88,18.93L184.26,19.08L185.65,20.79L187.03,18.88L188.42,18.81L191.19,21.72L192.58,18.99L193.96,19.51L195.35,18.56L198.12,20.14L199.5,18.97L200.89,20.52L202.27,20.08L203.66,18.77L205.04,18.84L207.81,21.31L209.2,19.98L210.59,20.17L211.97,19.56L213.36,18.59L214.74,20.75L216.13,20.19L217.51,18.34L218.9,21.04L220.28,19.13L221.67,21.79L223.05,19.89L225.82,19.72L227.21,18.52L228.6,20.35L229.98,19.22L232.75,20.41L234.14,19.51L235.52,18.75L236.91,21.09L238.29,22.39L239.68,20.34L241.06,19.24L242.45,19.49L246.6,20.03L247.99,20.21L249.38,21.4L250.76,21.5L252.15,21.4L253.53,20.34L254.92,21.31L256.3,17.82L257.69,18.92L259.07,18.88L261.84,18.59L263.23,20.3L264.61,20.01L266,21.15" style="vector-effect: none; fill: none; stroke: rgb(51, 204, 51); stroke-opacity: 1; stroke-width: 2px; opacity: 1;"/></g><g class="points"/><g class="text"/></g><g class="trace scatter traceed9be7" style="stroke-miterlimit: 2; opacity: 1;"><g class="fills"/><g class="errorbars"/><g class="lines"><path class="js-line" d="M0,130.79L14.39,129.79L14.93,129.69L20.26,128.07L20.79,127.82L25.05,124.91L25.59,124.4L29.32,119.51L29.85,118.59L33.58,110.15L34.12,108.63L38.38,93.53L38.91,91.3L51.71,37.17L52.24,35.63L56.5,26.08L57.04,25.2L60.77,20.54L61.3,20.06L65.57,17.29L66.1,17.06L71.96,15.43L72.5,15.34L84.22,14.53L84.76,14.52L131.67,14.38L132.2,14.38L266,14.38" style="vector-effect: none; fill: none; stroke: rgb(0, 0, 0); stroke-opacity: 1; stroke-dasharray: 9px, 9px; stroke-width: 2px; opacity: 1;"/></g><g class="points"/><g class="text"/></g></g></g></g><path class="xlines-above crisp" d="M0,0" style="fill: none;"/><path class="ylines-above crisp" d="M0,0" style="fill: none;"/><g class="overlines-above"/><g class="xaxislayer-above"/><g class="yaxislayer-above"><g class="ytick"><text text-anchor="end" x="39" y="4.199999999999999" transform="translate(0,150.9)" style="font-family: 'Open Sans', verdana, arial, sans-serif; font-size: 12px; fill: rgb(0, 0, 0); fill-opacity: 1; white-space: pre; opacity: 1;">0</text></g><g class="ytick"><text text-anchor="end" x="39" y="4.199999999999999" style="font-family: 'Open Sans', verdana, arial, sans-serif; font-size: 12px; fill: rgb(0, 0, 0); fill-opacity: 1; white-space: pre; opacity: 1;" transform="translate(0,96.96)">0.5</text></g><g class="ytick"><text text-anchor="end" x="39" y="4.199999999999999" style="font-family: 'Open Sans', verdana, arial, sans-serif; font-size: 12px; fill: rgb(0, 0, 0); fill-opacity: 1; white-space: pre; opacity: 1;" transform="translate(0,43.019999999999996)">1</text></g></g><g class="overaxes-above"/></g><g class="subplot x2y2"><g class="layer-subplot"><g class="shapelayer"/><g class="imagelayer"/></g><g class="minor-gridlayer"><g class="x2"/><g class="y2"/></g><g class="gridlayer"><g class="x2"><path class="x2grid crisp" transform="translate(95.41,0)" d="M0,209.74999999999997v140.25" style="stroke: rgb(0, 0, 0); stroke-opacity: 1; stroke-width: 1px;"/><path class="x2grid crisp" transform="translate(150.82999999999998,0)" d="M0,209.74999999999997v140.25" style="stroke: rgb(0, 0, 0); stroke-opacity: 1; stroke-width: 1px;"/><path class="x2grid crisp" transform="translate(206.24,0)" d="M0,209.74999999999997v140.25" style="stroke: rgb(0, 0, 0); stroke-opacity: 1; stroke-width: 1px;"/><path class="x2grid crisp" transform="translate(261.65999999999997,0)" d="M0,209.74999999999997v140.25" style="stroke: rgb(0, 0, 0); stroke-opacity: 1; stroke-width: 1px;"/></g><g class="y2"><path class="y2grid crisp" transform="translate(0,285.73999999999995)" d="M40,0h266" style="stroke: rgb(0, 0, 0); stroke-opacity: 1; stroke-width: 1px;"/><path class="y2grid crisp" transform="translate(0,231.37999999999997)" d="M40,0h266" style="stroke: rgb(0, 0, 0); stroke-opacity: 1; stroke-width: 1px;"/></g></g><g class="zerolinelayer"><path class="x2zl zl crisp" transform="translate(40,0)" d="M0,209.74999999999997v140.25" style="stroke: rgb(0, 0, 0); stroke-opacity: 1; stroke-width: 1px;"/><path class="y2zl zl crisp" transform="translate(0,340.09)" d="M40,0h266" style="stroke: rgb(0, 0, 0); stroke-opacity: 1; stroke-width: 1px;"/></g><g class="layer-between"><g class="shapelayer"/><g class="imagelayer"/></g><path class="xlines-below"/><path class="ylines-below"/><g class="overlines-below"/><g class="xaxislayer-below"/><g class="yaxislayer-below"/><g class="overaxes-below"/><g class="overplot"><g class="x2y2" transform="translate(40,209.74999999999997)" clip-path="url(#clip51cf6fx2y2plot)"><g class="scatterlayer mlayer"><g class="trace scatter traceef834d" style="stroke-miterlimit: 2; opacity: 1;"><g class="fills"/><g class="errorbars"/><g class="lines"><path class="js-line" d="M0.01,132.44L4.17,133.18L5.55,132.68L9.71,132.71L11.09,132.06L12.48,131.77L13.86,130.57L16.63,127.08L18.02,123.24L20.79,114.83L22.18,111.91L31.87,91.11L33.26,88.41L40.19,72.49L41.57,69.86L45.73,62.49L47.11,61.53L49.88,55.69L51.27,53.45L52.65,49.37L54.04,49.1L56.81,46.65L58.19,43.47L60.97,43.27L62.35,41.56L63.74,37.83L65.12,38.17L66.51,36.2L67.89,37.69L69.28,33.61L70.66,36.4L72.05,32.38L73.43,32.32L74.82,30.89L76.2,32.74L78.98,29.99L80.36,29.62L81.75,27.43L83.13,27.94L84.52,27.92L85.9,25.87L87.29,27.54L88.67,25.44L91.44,24.42L92.83,22.79L94.21,23.14L95.6,16.92L99.76,17.32L101.14,14.95L103.91,16.07L105.3,15.78L106.68,17.12L108.07,14.88L109.45,15.51L110.84,14.8L112.22,14.06L113.61,15.04L114.99,15.71L116.38,13.75L119.15,11.72L120.54,13.86L121.92,11.56L123.31,11.8L124.69,12.36L126.08,11.34L127.46,14.02L128.85,12.48L130.23,11.13L131.62,14.46L133,14.51L134.39,12.92L135.78,14.13L137.16,14.06L138.55,16.31L139.93,16.25L141.32,15.71L142.7,16.96L144.09,15.93L145.47,17.38L146.86,15.22L148.24,19.64L149.63,18.55L151.01,18.57L152.4,19.77L153.79,17.76L155.17,17.68L156.56,19.06L159.33,20.93L160.71,16.72L162.1,19.68L163.48,20.76L164.87,20.13L166.25,21.51L169.02,17.34L170.41,18.44L171.79,21.45L173.18,20L174.57,19.17L175.95,20.85L177.34,21.34L178.72,20.29L180.11,21.89L181.49,19.19L182.88,20.47L184.26,20.49L187.03,19.79L188.42,20.93L192.58,20.44L193.96,18.52L196.73,20.56L198.12,19.62L199.5,20.71L200.89,18.41L202.27,19.68L203.66,19.01L205.04,19.31L206.43,18.23L213.36,20.29L214.74,20.29L217.51,19.06L218.9,19.88L220.28,20.18L221.67,19.31L224.44,19.6L225.82,19.55L228.59,17.27L229.98,18.99L231.37,17.81L232.75,18.17L235.52,18.19L236.91,19.75L238.29,18.35L239.68,18.54L241.06,19.44L242.45,19.01L250.76,19.06L252.15,17.72L254.92,17.76L256.3,18.57L259.07,18.68L260.46,18.59L263.23,16.98L264.61,17.7L266,17.54" style="vector-effect: none; fill: none; stroke: rgb(255, 28, 28); stroke-opacity: 1; stroke-width: 2px; opacity: 1;"/></g><g class="points"/><g class="text"/></g><g class="trace scatter trace8df2f4" style="stroke-miterlimit: 2; opacity: 1;"><g class="fills"/><g class="errorbars"/><g class="lines"><path class="js-line" d="M0.01,132.13L4.17,132.8L5.55,132.95L6.94,133.22L8.32,132.46L9.71,131.57L11.09,131.68L12.48,131.23L13.87,129.27L16.64,124.76L18.02,119.98L20.79,112.35L22.18,111.01L23.56,106.22L24.95,104.54L27.72,96.28L29.1,93.67L34.65,82.51L36.03,77.82L37.42,75.42L38.8,71.13L40.19,70.44L41.57,66.04L47.11,59.19L48.5,55.6L52.66,47.61L54.04,48.5L55.43,49.46L56.81,46.49L58.2,47.09L59.58,44.99L60.97,44.37L62.35,40.71L63.74,39.42L65.12,37.07L67.89,35.77L69.28,38.01L72.05,35.38L73.44,35.89L76.21,31.4L77.59,32.85L80.36,26.91L81.75,29.57L83.13,30.49L84.52,29.37L85.9,27.92L87.29,24.04L88.67,24.17L90.06,25.49L91.45,25.6L92.83,23.35L94.22,19.17L95.6,20.13L96.99,19.44L98.37,19.93L101.14,19.1L102.53,16.45L103.91,16.72L105.3,14.6L106.68,16.72L108.07,15.75L109.45,17.12L110.84,15.69L113.61,16.4L115,16.34L116.38,18.37L117.77,18.15L119.15,18.7L120.54,14.82L123.31,18.14L124.69,15.67L126.08,14.15L127.46,17.25L128.85,15.26L130.23,15.02L131.62,12.54L133.01,15.89L135.78,21.18L137.16,19.37L138.55,19.46L139.93,21.47L141.32,20.6L142.7,17.41L145.47,23.55L146.86,23.32L148.24,23.57L149.63,21.78L152.4,25.26L153.79,21.8L155.17,21.54L156.56,22.05L157.94,19.19L159.33,24.01L160.71,25.09L162.1,23.72L163.48,21L164.87,21.76L166.25,23.32L167.64,22.1L169.03,23.99L170.41,22.21L171.8,21.96L173.18,23.75L174.57,24.95L175.95,22.2L177.34,24.44L178.72,24.66L180.11,26.53L181.49,26.09L182.88,22.56L184.26,23.63L185.65,26L187.04,24.95L191.19,26.36L192.58,24.04L195.35,25.6L196.73,25.75L198.12,23.72L199.5,24.13L206.43,27.34L207.82,26.47L210.59,26.16L211.97,25.27L213.36,24.12L214.74,25.27L217.51,25.31L218.9,24.33L220.28,25.22L221.67,24.55L224.44,25.51L225.83,23.81L227.21,23.81L228.6,24.77L229.98,24.46L231.37,25.69L232.75,25.84L234.14,25.15L236.91,25.42L238.29,24.55L239.68,24.04L241.06,24.57L242.45,23.84L243.84,24.04L245.22,22.97L246.61,24.06L249.38,23.43L250.76,23.46L252.15,22.97L253.53,23.3L254.92,23.12L256.3,21.43L257.69,23.14L259.07,23.34L261.84,22.77L263.23,23.45" style="vector-effect: none; fill: none; stroke: rgb(255, 28, 28); stroke-opacity: 1; stroke-width: 2px; opacity: 1;"/></g><g class="points"/><g class="text"/></g><g class="trace scatter trace0911f6" style="stroke-miterlimit: 2; opacity: 1;"><g class="fills"/><g class="errorbars"/><g class="lines"><path class="js-line" d="M0.01,131.46L1.4,132.33L2.78,131.86L4.17,132.33L5.55,130.83L6.94,132.08L8.32,131.82L12.48,129.54L13.86,128.06L16.63,121.48L18.02,115.46L34.64,78.34L36.03,74.43L40.19,65.41L41.57,62.74L42.96,58.1L44.34,57.89L45.73,53.12L47.11,53.21L48.5,51.76L49.88,47.49L52.65,44.08L54.04,42.9L55.42,41.58L56.81,37.61L58.2,40L59.58,38.39L60.97,35.67L62.35,37L63.74,35.87L65.12,31.04L66.51,31L67.89,33.59L70.66,24.82L72.05,24.8L73.43,27.7L74.82,27.32L76.2,24.53L77.59,23.93L78.98,22.5L80.36,24.08L81.75,19.64L83.13,18.57L84.52,17.43L85.9,20.67L87.29,21.83L88.67,19.88L91.44,14.8L92.83,17.59L95.6,15.73L96.99,15.84L98.37,14.35L99.76,14.69L101.14,9.49L102.53,8.99L103.91,13.14L105.3,13.48L106.68,9.97L108.07,11.81L109.45,13.08L110.84,12.85L113.61,10.73L115,7.01L116.38,11.69L117.77,10.18L119.15,12.34L120.54,13.06L121.92,12.21L123.31,12.79L124.69,14.84L126.08,14.82L130.23,16.07L131.62,16.9L133,13.63L134.39,18.26L135.78,14.3L137.16,17.56L138.55,18.01L139.93,17.41L141.32,15.94L142.7,17.03L144.09,16.43L145.47,17.77L146.86,17.21L148.24,18.81L149.63,19.73L151.01,18.23L152.4,20.58L153.79,21.33L155.17,19.02L156.56,20.94L157.94,19.88L159.33,21.87L160.71,22.48L162.1,18.63L163.48,21.38L164.87,18.44L166.25,18.64L167.64,21.91L169.02,18.55L170.41,20.76L173.18,19.3L174.57,22.45L175.95,19.02L177.34,19.64L178.72,18.23L180.11,20.08L181.49,18.93L182.88,19.8L184.26,19.19L185.65,19.93L187.03,18.44L188.42,18.7L191.19,21.2L192.58,19.53L195.35,18.88L196.73,17.99L198.12,19.93L199.5,19.3L200.89,20.53L202.27,19.33L205.04,18.84L206.43,19.88L207.81,20.89L209.2,20.31L210.59,20.73L211.97,19.24L213.36,19.24L214.74,20.11L216.13,20.31L217.51,18.66L218.9,19.75L220.28,19.24L221.67,20.08L223.05,19.89L227.21,19.06L228.6,19.39L231.37,19.21L232.75,19.98L235.52,18.64L236.91,18.61L238.29,19.48L239.68,18.72L245.22,17.97L246.6,18.08L249.38,18.05L250.76,17.94L256.3,17.59L257.69,17.18L261.84,15.98L263.23,17.16L264.61,16.32L266,16.6" style="vector-effect: none; fill: none; stroke: rgb(255, 28, 28); stroke-opacity: 1; stroke-width: 2px; opacity: 1;"/></g><g class="points"/><g class="text"/></g><g class="trace scatter trace4eff68" style="stroke-miterlimit: 2; opacity: 1;"><g class="fills"/><g class="errorbars"/><g class="lines"><path class="js-line" d="M0,130.23L18.66,129.2L19.19,129.12L26.65,127.27L27.19,127.06L32.52,124.08L33.05,123.66L37.31,119.35L37.85,118.66L42.11,111.65L42.65,110.56L46.91,100.09L47.44,98.55L52.77,80.88L53.31,78.94L63.97,42.33L64.5,40.87L69.3,30.02L69.83,29.06L74.1,22.92L74.63,22.32L79.43,18.25L79.96,17.92L85.29,15.53L85.82,15.37L93.29,13.9L93.82,13.83L109.81,13.06L110.34,13.05L156.72,12.94L157.25,12.94L266,12.94" style="vector-effect: none; fill: none; stroke: rgb(0, 0, 0); stroke-opacity: 1; stroke-dasharray: 9px, 9px; stroke-width: 2px; opacity: 1;"/></g><g class="points"/><g class="text"/></g></g></g></g><path class="xlines-above crisp" d="M0,0" style="fill: none;"/><path class="ylines-above crisp" d="M0,0" style="fill: none;"/><g class="overlines-above"/><g class="xaxislayer-above"><g class="x2tick"><text text-anchor="middle" x="0" y="363" transform="translate(40,0)" style="font-family: 'Open Sans', verdana, arial, sans-serif; font-size: 12px; fill: rgb(0, 0, 0); fill-opacity: 1; white-space: pre; opacity: 1;">0</text></g><g class="x2tick"><text text-anchor="middle" x="0" y="363" style="font-family: 'Open Sans', verdana, arial, sans-serif; font-size: 12px; fill: rgb(0, 0, 0); fill-opacity: 1; white-space: pre; opacity: 1;" transform="translate(95.41,0)">10</text></g><g class="x2tick"><text text-anchor="middle" x="0" y="363" style="font-family: 'Open Sans', verdana, arial, sans-serif; font-size: 12px; fill: rgb(0, 0, 0); fill-opacity: 1; white-space: pre; opacity: 1;" transform="translate(150.82999999999998,0)">20</text></g><g class="x2tick"><text text-anchor="middle" x="0" y="363" style="font-family: 'Open Sans', verdana, arial, sans-serif; font-size: 12px; fill: rgb(0, 0, 0); fill-opacity: 1; white-space: pre; opacity: 1;" transform="translate(206.24,0)">30</text></g><g class="x2tick"><text text-anchor="middle" x="0" y="363" style="font-family: 'Open Sans', verdana, arial, sans-serif; font-size: 12px; fill: rgb(0, 0, 0); fill-opacity: 1; white-space: pre; opacity: 1;" transform="translate(261.65999999999997,0)">40</text></g></g><g class="yaxislayer-above"><g class="y2tick"><text text-anchor="end" x="39" y="4.199999999999999" transform="translate(0,340.09)" style="font-family: 'Open Sans', verdana, arial, sans-serif; font-size: 12px; fill: rgb(0, 0, 0); fill-opacity: 1; white-space: pre; opacity: 1;">0</text></g><g class="y2tick"><text text-anchor="end" x="39" y="4.199999999999999" style="font-family: 'Open Sans', verdana, arial, sans-serif; font-size: 12px; fill: rgb(0, 0, 0); fill-opacity: 1; white-space: pre; opacity: 1;" transform="translate(0,285.73999999999995)">0.5</text></g><g class="y2tick"><text text-anchor="end" x="39" y="4.199999999999999" style="font-family: 'Open Sans', verdana, arial, sans-serif; font-size: 12px; fill: rgb(0, 0, 0); fill-opacity: 1; white-space: pre; opacity: 1;" transform="translate(0,231.37999999999997)">1</text></g></g><g class="overaxes-above"/></g></g><g class="polarlayer"/><g class="smithlayer"/><g class="ternarylayer"/><g class="geolayer"/><g class="funnelarealayer"/><g class="pielayer"/><g class="iciclelayer"/><g class="treemaplayer"/><g class="sunburstlayer"/><g class="glimages"/><defs id="topdefs-51cf6f"><g class="clips"/><clipPath id="legend51cf6f"><rect width="189" height="117" x="0" y="0"/></clipPath></defs><g class="layer-above"><g class="imagelayer"/><g class="shapelayer"/></g><g class="infolayer"><g class="legend" pointer-events="all" transform="translate(311,20)"><rect class="bg" shape-rendering="crispEdges" style="stroke: rgb(68, 68, 68); stroke-opacity: 1; fill: rgb(255, 255, 255); fill-opacity: 1; stroke-width: 0px;" width="189" height="117" x="0" y="0"/><g class="scrollbox" transform="" clip-path="url(#legend51cf6f)"><g class="groups"><g class="traces" transform="translate(0,22.1)" style="opacity: 1;"><text class="legendtext" text-anchor="start" x="40" y="-3.1200000000000006" style="font-family: 'Open Sans', verdana, arial, sans-serif; font-size: 12px; fill: rgb(0, 0, 0); fill-opacity: 1; white-space: pre;"><tspan class="line" dy="0em" x="40" y="-3.1200000000000006">Escherichia coli  </tspan><tspan class="line" dy="1.3em" x="40" y="-3.1200000000000006">sfGFP:pGDPI CAT</tspan></text><g class="layers" style="opacity: 1;"><g class="legendfill"/><g class="legendlines"><path class="js-line" d="M5,0h30" style="fill: none; stroke: rgb(51, 204, 51); stroke-opacity: 1; stroke-width: 2px;"/></g><g class="legendsymbols"><g class="legendpoints"/></g></g><rect class="legendtoggle" x="0" y="-17.1" width="183.21875" height="34.2" style="fill: rgb(0, 0, 0); fill-opacity: 0;"/></g><g class="traces" transform="translate(0,48.7)" style="opacity: 1;"><text class="legendtext" text-anchor="start" x="40" y="4.680000000000001" style="font-family: 'Open Sans', verdana, arial, sans-serif; font-size: 12px; fill: rgb(0, 0, 0); fill-opacity: 1; white-space: pre;">Model</text><g class="layers" style="opacity: 1;"><g class="legendfill"/><g class="legendlines"><path class="js-line" d="M5,0h30" style="fill: none; stroke: rgb(0, 0, 0); stroke-opacity: 1; stroke-dasharray: 9px, 9px; stroke-width: 2px;"/></g><g class="legendsymbols"><g class="legendpoints"/></g></g><rect class="legendtoggle" x="0" y="-9.5" width="183.21875" height="19" style="fill: rgb(0, 0, 0); fill-opacity: 0;"/></g><g class="traces" transform="translate(0,75.30000000000001)" style="opacity: 1;"><text class="legendtext" text-anchor="start" x="40" y="-3.1200000000000006" style="font-family: 'Open Sans', verdana, arial, sans-serif; font-size: 12px; fill: rgb(0, 0, 0); fill-opacity: 1; white-space: pre;"><tspan class="line" dy="0em" x="40" y="-3.1200000000000006">Salmonella Typhimurium </tspan><tspan class="line" dy="1.3em" x="40" y="-3.1200000000000006">mcherry:pGDPI CTX-M-15</tspan></text><g class="layers" style="opacity: 1;"><g class="legendfill"/><g class="legendlines"><path class="js-line" d="M5,0h30" style="fill: none; stroke: rgb(255, 28, 28); stroke-opacity: 1; stroke-width: 2px;"/></g><g class="legendsymbols"><g class="legendpoints"/></g></g><rect class="legendtoggle" x="0" y="-17.1" width="183.21875" height="34.2" style="fill: rgb(0, 0, 0); fill-opacity: 0;"/></g><g class="traces" transform="translate(0,101.9)" style="opacity: 1;"><text class="legendtext" text-anchor="start" x="40" y="4.680000000000001" style="font-family: 'Open Sans', verdana, arial, sans-serif; font-size: 12px; fill: rgb(0, 0, 0); fill-opacity: 1; white-space: pre;">Model</text><g class="layers" style="opacity: 1;"><g class="legendfill"/><g class="legendlines"><path class="js-line" d="M5,0h30" style="fill: none; stroke: rgb(0, 0, 0); stroke-opacity: 1; stroke-dasharray: 9px, 9px; stroke-width: 2px;"/></g><g class="legendsymbols"><g class="legendpoints"/></g></g><rect class="legendtoggle" x="0" y="-9.5" width="183.21875" height="19" style="fill: rgb(0, 0, 0); fill-opacity: 0;"/></g></g></g><rect class="scrollbar" rx="20" ry="3" width="0" height="0" style="fill: rgb(128, 139, 164); fill-opacity: 1;" x="0" y="0"/></g><g class="g-gtitle"/><g class="g-xtitle"><text class="xtitle" x="173" y="169.15000000000003" text-anchor="middle" style="opacity: 1; font-family: 'Open Sans', verdana, arial, sans-serif; font-size: 12px; fill: rgb(0, 0, 0); fill-opacity: 1; white-space: pre;">Time [h]</text></g><g class="g-x2title" transform="translate(0,5.100000000000023)"><text class="x2title" x="173" y="374.9" text-anchor="middle" style="opacity: 1; font-family: 'Open Sans', verdana, arial, sans-serif; font-size: 12px; fill: rgb(0, 0, 0); fill-opacity: 1; white-space: pre;">Time [h]</text></g><g class="g-ytitle" transform="translate(-0.2998046875,0)"><text class="ytitle" transform="rotate(-90,18.378125,90.12500000000001)" x="18.378125" y="90.12500000000001" text-anchor="middle" style="opacity: 1; font-family: 'Open Sans', verdana, arial, sans-serif; font-size: 12px; fill: rgb(0, 0, 0); fill-opacity: 1; white-space: pre;">Abundance [OD]</text></g><g class="g-y2title" transform="translate(-0.2998046875,0)"><text class="y2title" transform="rotate(-90,18.378125,279.875)" x="18.378125" y="279.875" text-anchor="middle" style="opacity: 1; font-family: 'Open Sans', verdana, arial, sans-serif; font-size: 12px; fill: rgb(0, 0, 0); fill-opacity: 1; white-space: pre;">Abundance [OD]</text></g></g></svg>