<svg class="main-svg" xmlns="http://www.w3.org/2000/svg" xmlns:xlink="http://www.w3.org/1999/xlink" width="500" height="280" style="" viewBox="0 0 500 280"><rect x="0" y="0" width="500" height="280" style="fill: rgb(255, 255, 255); fill-opacity: 1;"/><defs id="defs-5ceca9"><g class="clips"><clipPath id="clip5ceca9xyplot" class="plotclip"><rect width="237" height="210"/></clipPath><clipPath class="axesclip" id="clip5ceca9x"><rect x="47" y="0" width="237" height="280"/></clipPath><clipPath class="axesclip" id="clip5ceca9y"><rect x="0" y="20" width="500" height="210"/></clipPath><clipPath class="axesclip" id="clip5ceca9xy"><rect x="47" y="20" width="237" height="210"/></clipPath></g><g class="gradients"/><g class="patterns"/></defs><g class="bglayer"/><g class="layer-below"><g class="imagelayer"/><g class="shapelayer"/></g><g class="cartesianlayer"><g class="subplot xy"><g class="layer-subplot"><g class="shapelayer"/><g class="imagelayer"/></g><g class="minor-gridlayer"><g class="x"/><g class="y"/></g><g class="gridlayer"><g class="x"><path class="xgrid crisp" transform="translate(96.36,0)" d="M0,20v210" style="stroke: rgb(0, 0, 0); stroke-opacity: 1; stroke-width: 1px;"/><path class="xgrid crisp" transform="translate(145.74,0)" d="M0,20v210" style="stroke: rgb(0, 0, 0); stroke-opacity: 1; stroke-width: 1px;"/><path class="xgrid crisp" transform="translate(195.12,0)" d="M0,20v210" style="stroke: rgb(0, 0, 0); stroke-opacity: 1; stroke-width: 1px;"/><path class="xgrid crisp" transform="translate(244.49,0)" d="M0,20v210" style="stroke: rgb(0, 0, 0); stroke-opacity: 1; stroke-width: 1px;"/></g><g class="y"><path class="ygrid crisp" transform="translate(0,134.79000000000002)" d="M47,0h237" style="stroke: rgb(0, 0, 0); stroke-opacity: 1; stroke-width: 1px;"/><path class="ygrid crisp" transform="translate(0,54.36)" d="M47,0h237" style="stroke: rgb(0, 0, 0); stroke-opacity: 1; stroke-width: 1px;"/></g></g><g class="zerolinelayer"><path class="yzl zl crisp" transform="translate(0,215.21)" d="M47,0h237" style="stroke: rgb(0, 0, 0); stroke-opacity: 1; stroke-width: 1px;"/></g><g class="layer-between"><g class="shapelayer"/><g class="imagelayer"/></g><path class="xlines-below"/><path class="ylines-below"/><g class="overlines-below"/><g class="xaxislayer-below"/><g class="yaxislayer-below"/><g class="overaxes-below"/><g class="overplot"><g class="xy" transform="translate(47,20)" clip-path="url(#clip5ceca9xyplot)"><g class="scatterlayer mlayer"><g class="trace scatter tracefeb8fc" style="stroke-miterlimit: 2; opacity: 1;"><g class="fills"/><g class="errorbars"/><g class="lines"><path class="js-line" d="M0,198.32L2.47,199.5L3.7,199.42L4.93,198.67L6.17,198.99L9.87,197.76L11.11,197.33L13.58,193.55L14.81,190.39L20.98,163.47L22.22,158.64L28.39,137.17L29.62,133.18L37.03,105.72L38.26,101.38L45.67,81.44L46.9,75.4L48.14,75L49.37,72.59L50.61,71.38L51.84,66.66L53.08,66.93L54.31,66.37L55.54,63.85L56.78,58.33L58.01,58.84L59.25,55.91L60.48,58.11L61.72,52.08L62.95,56.21L64.18,50.26L65.42,50.18L66.65,48.06L67.89,50.79L69.12,48.57L71.59,46.18L72.83,42.94L75.29,43.66L76.53,40.63L77.76,43.1L79,39.99L81.47,38.49L82.7,36.08L83.94,36.58L85.17,27.39L88.87,27.98L90.11,24.47L91.34,25.91L92.58,26.13L93.81,25.7L95.04,27.68L96.28,24.36L97.51,25.3L99.98,23.15L101.22,24.6L102.45,25.59L103.69,22.7L106.15,19.7L107.39,22.86L108.62,19.45L109.86,19.8L111.09,20.63L112.33,19.13L113.56,23.1L114.79,20.82L116.03,18.81L117.26,23.74L118.5,23.82L119.73,21.46L120.97,23.26L122.2,23.15L123.44,26.48L124.67,26.4L125.9,25.59L127.14,27.44L128.37,25.91L129.61,28.06L130.84,24.87L132.08,31.41L133.31,29.8L134.55,29.83L135.78,31.6L137.01,28.62L138.25,28.52L139.48,30.55L141.95,33.31L143.19,27.09L145.65,33.07L146.89,32.13L148.12,34.17L149.36,31.81L150.59,28.01L151.83,29.64L153.06,34.09L154.3,31.95L155.53,30.71L156.76,33.21L158,33.93L159.23,32.38L160.47,34.73L161.7,30.74L162.94,32.64L164.17,32.67L165.41,32.62L166.64,31.63L167.87,33.31L169.11,32.86L171.58,32.59L172.81,29.75L175.28,32.78L176.51,31.38L177.75,32.99L178.98,29.59L180.22,31.46L181.45,30.47L182.69,30.93L183.92,29.32L187.62,31.95L188.86,31.63L191.33,32.38L192.56,31.95L193.8,30.55L195.03,31.76L196.26,32.21L197.5,30.93L198.73,30.63L199.97,31.36L201.2,31.28L202.44,29.94L203.67,27.9L204.91,30.45L206.14,28.7L207.37,29.24L208.61,28.76L209.84,29.27L211.08,31.57L212.31,29.51L213.55,29.78L214.78,31.12L218.48,29.8L219.72,30.69L220.95,30.79L222.19,29.88L223.42,30.55L224.66,28.57L227.12,28.62L228.36,29.83L229.59,29.4L230.83,29.99L232.06,29.86L233.3,28.57L234.53,27.47L235.77,28.54L237,28.3" style="vector-effect: none; fill: none; stroke: rgb(255, 28, 28); stroke-opacity: 1; stroke-width: 2px; opacity: 1;"/></g><g class="points"/><g class="text"/></g><g class="trace scatter tracecfd119" style="stroke-miterlimit: 2; opacity: 1;"><g class="fills"/><g class="errorbars"/><g class="lines"><path class="js-line" d="M0,197.86L2.47,198.78L3.7,198.86L6.17,199.47L7.4,198.35L8.64,197.03L9.87,197.19L11.11,196.52L12.34,193.63L14.81,186.95L16.05,179.88L18.51,168.59L19.75,166.61L20.98,159.53L22.22,157.04L24.69,144.81L25.92,140.95L30.86,124.44L32.09,117.49L33.33,113.95L34.56,107.6L35.8,106.58L37.03,100.07L41.97,89.93L43.2,84.63L46.9,72.8L48.14,74.12L49.37,75.54L50.61,71.14L51.84,72.03L53.08,68.92L54.31,68L55.54,62.59L56.78,60.69L58.01,57.2L60.48,55.27L61.72,58.59L64.19,54.71L65.42,55.46L67.89,48.81L69.12,50.95L71.59,42.16L72.83,46.1L74.06,47.47L75.3,45.81L76.53,43.66L77.76,37.93L79,38.11L80.23,40.07L81.47,40.23L82.7,36.91L83.94,30.71L85.17,32.13L86.4,31.12L87.64,31.84L90.11,30.61L91.34,26.69L92.58,27.09L93.81,23.96L95.05,27.09L96.28,25.65L97.51,27.68L98.75,25.57L101.22,26.61L102.45,26.53L103.69,29.53L104.92,29.21L106.16,30.02L107.39,24.28L109.86,29.19L111.09,25.54L112.33,23.29L113.56,27.87L114.8,24.92L116.03,24.57L117.26,20.9L118.5,25.86L120.97,33.69L122.2,31.01L123.44,31.14L124.67,34.12L125.91,32.83L127.14,28.11L129.61,37.2L130.84,36.85L132.08,37.23L133.31,34.57L135.78,39.72L137.02,34.6L138.25,34.23L139.48,34.98L140.72,30.74L141.95,37.87L143.19,39.48L144.42,37.44L145.66,33.42L146.89,34.55L148.12,36.85L149.36,35.06L150.59,37.84L151.83,35.22L153.06,34.84L154.3,37.5L155.53,39.27L156.77,35.19L158,38.51L159.23,38.84L160.47,41.6L161.7,40.95L162.94,35.73L164.17,37.31L165.41,40.82L166.64,39.27L167.88,40.28L169.11,40.26L170.34,41.36L171.58,37.93L174.05,40.23L175.28,40.45L176.52,37.44L177.75,38.06L183.92,42.8L185.16,41.52L186.39,41.81L187.63,41.06L190.09,38.03L191.33,39.75L192.56,40.18L193.8,39.8L195.03,38.35L196.27,39.67L197.5,38.68L198.73,39.96L199.97,40.1L201.2,37.58L202.44,37.58L203.67,39L204.91,38.54L206.14,40.36L207.38,40.58L208.61,39.56L211.08,39.96L212.31,38.68L213.55,37.93L214.78,38.7L216.02,37.63L217.25,37.93L218.49,36.34L219.72,37.95L222.19,37.01L223.42,37.07L224.66,36.34L225.89,36.83L227.13,36.56L228.36,34.06L229.59,36.58L230.83,36.88L233.3,36.05L234.53,37.04" style="vector-effect: none; fill: none; stroke: rgb(255, 28, 28); stroke-opacity: 1; stroke-width: 2px; opacity: 1;"/></g><g class="points"/><g class="text"/></g><g class="trace scatter traced24c93" style="stroke-miterlimit: 2; opacity: 1;"><g class="fills"/><g class="errorbars"/><g class="lines"><path class="js-line" d="M0,196.87L1.23,198.16L2.47,197.46L3.7,198.16L4.93,195.93L6.17,197.78L7.4,197.41L11.11,194.03L12.34,191.83L14.81,182.1L16.04,173.2L30.86,118.27L32.09,112.48L38.26,88.33L39.5,88L40.73,80.95L41.97,81.09L43.2,78.94L44.43,72.62L46.9,67.58L48.14,65.83L49.37,63.88L50.61,58L51.84,61.54L53.08,59.16L54.31,55.14L55.54,57.09L56.78,55.43L58.01,48.27L59.25,48.22L60.48,52.05L62.95,39.08L64.18,39.05L65.42,43.34L66.65,42.78L67.89,38.65L69.12,37.76L70.36,35.65L71.59,37.98L72.83,31.41L74.06,29.83L75.29,28.14L76.53,32.94L77.76,34.65L79,31.76L81.47,24.25L82.7,28.38L85.17,25.62L86.4,25.78L87.64,23.58L88.87,24.09L90.11,16.4L91.34,15.65L92.58,21.79L93.81,22.3L95.04,17.09L96.28,19.83L97.51,21.71L98.75,21.36L101.22,18.22L102.45,12.73L103.69,19.64L104.92,17.42L106.15,20.61L107.39,21.68L108.62,20.42L109.86,21.28L111.09,24.31L112.33,24.28L114.79,25.08L116.03,26.13L117.26,27.36L118.5,22.51L119.73,29.37L120.97,23.5L122.2,28.33L123.44,29L124.67,28.11L125.9,25.94L127.14,27.55L128.37,26.67L129.61,28.65L130.84,27.82L133.31,31.54L134.55,29.32L135.78,32.8L137.01,33.9L138.25,30.5L139.48,33.34L140.72,31.76L141.95,34.71L143.19,35.62L144.42,29.91L145.66,33.98L146.89,29.64L148.12,29.94L149.36,34.76L150.59,29.8L151.83,33.07L153.06,31.33L154.3,30.9L155.53,35.57L156.76,30.5L158,31.41L159.23,29.32L160.47,32.05L161.7,30.37L162.94,31.65L164.17,30.74L165.4,31.84L166.64,29.64L167.87,30.02L169.11,31.81L170.34,33.72L171.58,31.25L172.81,31.22L174.05,30.28L175.28,28.97L176.51,31.84L177.75,30.9L178.98,32.72L180.22,30.95L181.45,30.93L182.69,30.23L183.92,31.76L185.16,33.26L186.39,32.4L187.62,33.02L188.86,30.82L190.09,30.82L191.33,32.11L192.56,32.4L193.8,29.96L195.03,31.57L196.27,30.82L197.5,32.05L198.73,31.79L199.97,31.25L201.2,31.71L202.44,30.55L203.67,31.04L204.91,30.47L206.14,30.77L207.37,31.92L208.61,30.74L211.08,29.88L212.31,31.17L214.78,29.53L216.02,29.91L218.48,28.94L219.72,29.11L220.95,29.53L222.19,29.05L228.36,28.38L229.59,27.76L232.06,27.5L233.3,26L234.53,27.74L235.77,26.5L237,26.91" style="vector-effect: none; fill: none; stroke: rgb(255, 28, 28); stroke-opacity: 1; stroke-width: 2px; opacity: 1;"/></g><g class="points"/><g class="text"/></g><g class="trace scatter trace031200" style="stroke-miterlimit: 2; opacity: 1;"><g class="fills"/><g class="errorbars"/><g class="lines"><path class="js-line" d="M0,197.19L2.47,198.7L3.7,198.62L4.93,197.54L6.17,197.7L8.64,196.15L9.87,193.74L11.11,190.73L12.34,184.94L17.28,161.19L18.51,152.32L23.45,121.78L24.69,117.22L27.15,107.12L28.39,104.52L29.62,101.97L30.86,97.63L32.09,92.19L33.33,90.68L37.03,83.37L38.26,78.7L40.73,72.62L41.97,71.84L44.44,66.1L45.67,63.9L50.61,55.46L51.84,51.06L54.31,50.61L55.54,48.09L56.78,47.23L58.01,45.16L60.48,42.83L61.72,38.73L62.95,39.8L64.18,39.32L65.42,37.15L66.65,36.8L74.06,28.57L75.29,28.7L76.53,26.48L77.76,27.66L79,25.03L80.23,25.06L81.47,24.17L82.7,21.12L83.94,22.75L85.17,17.9L86.4,18.76L87.64,18.17L88.87,18.49L90.11,16.59L91.34,17.39L92.58,17.12L93.81,15.89L95.04,17.23L96.28,14.71L97.51,16.77L98.75,16.21L99.98,17.36L102.45,19.16L103.69,16.42L106.15,17.77L107.39,19.8L108.62,18.49L109.86,21.25L111.09,19.35L112.33,20.58L114.79,27.26L116.03,18.65L117.26,21.49L118.5,20.12L119.73,19.37L120.97,20.2L123.44,22.94L124.67,23.34L125.9,21.41L127.14,23.26L128.37,22.54L129.61,23.72L130.84,21.01L132.08,26.59L133.31,24.01L134.55,25.33L137.01,27.98L138.25,26.42L140.72,30.28L141.95,31.87L143.19,26.13L144.42,30.34L148.12,35.46L149.36,30.53L150.59,27.52L151.83,31.57L153.06,34.73L154.3,33.72L155.53,29.75L156.76,33.21L159.23,38.49L160.47,38.43L161.7,35.24L162.94,34.9L164.17,40.55L165.41,33.58L166.64,32.43L167.87,38.62L169.11,34.95L170.34,35.46L171.58,34.36L172.81,29.43L174.05,33.39L175.28,31.17L176.51,30.1L177.75,32.19L178.98,27.34L180.22,31.95L181.45,26.77L182.69,31.09L183.92,27.55L185.16,35.16L186.39,32.72L187.62,43.53L188.86,34.84L190.09,39.29L191.33,35.75L192.56,36.29L193.8,35.54L195.03,32.89L196.26,39.61L197.5,33.82L198.73,29.67L199.97,30.07L201.2,37.55L202.44,28.01L203.67,25L204.91,29.8L206.14,30.15L207.37,29.24L209.84,29.75L211.08,32.86L213.55,29.94L214.78,31.44L216.02,31.28L217.25,29.48L218.48,29.96L219.72,32.78L220.95,38.51L222.19,30.04L223.42,31.04L224.66,29.05L227.12,34.57L228.36,31.76L229.59,31.81L230.83,33.69L233.3,28.73L234.53,31.81L235.77,33.85L237,34.41" style="vector-effect: none; fill: none; stroke: rgb(51, 204, 51); stroke-opacity: 1; stroke-width: 2px; opacity: 1;"/></g><g class="points"/><g class="text"/></g><g class="trace scatter trace41772d" style="stroke-miterlimit: 2; opacity: 1;"><g class="fills"/><g class="errorbars"/><g class="lines"><path class="js-line" d="M0,197.54L3.7,198.21L4.94,198.27L6.17,198.35L7.4,197.38L9.87,195.59L11.11,194.43L17.28,172.21L18.51,164.41L23.45,134.03L24.69,124.06L28.39,108.62L29.62,107.41L32.09,98.67L33.33,95.62L35.8,86.64L37.03,87.2L38.26,86.9L39.5,84.17L40.73,80.9L41.97,80.12L43.2,74.97L44.44,74.95L46.9,64.44L48.14,64.79L50.61,63.74L51.84,61.57L55.54,55.19L56.78,53.77L59.25,47.58L60.48,47.23L61.72,48.14L62.95,45.51L64.19,44.9L65.42,45.32L67.89,40.77L69.12,41.46L71.59,37.82L72.83,38.86L74.06,38.78L75.3,37.28L77.76,32.46L79,32.48L80.23,33.64L81.47,31.87L83.94,26.53L85.17,27.15L86.4,25.81L87.64,26.21L90.11,24.33L91.34,23.96L93.81,21.06L95.05,22.59L96.28,21.63L97.51,22.05L98.75,19.78L99.98,20.12L101.22,20.66L102.45,20.26L103.69,23.1L104.92,22.46L106.16,22.94L107.39,19.13L109.86,21.95L111.09,20.71L112.33,17.82L113.56,19.99L114.8,18.49L116.03,18.94L117.26,17.04L118.5,19.91L120.97,24.52L122.2,22.48L123.44,21.49L124.67,23.82L125.91,22.86L127.14,23.77L128.37,23.48L129.61,27.23L130.84,26.08L132.08,26.45L133.31,25.08L134.55,26.8L138.25,32.3L139.48,29.35L140.72,28.33L141.95,31.76L143.19,29.67L144.42,30.2L145.66,28.6L146.89,32.78L148.12,32.19L149.36,34.25L150.59,33.02L151.83,37.63L153.06,35.81L154.3,38.94L155.53,34.28L156.77,36.48L158,35.78L159.23,37.55L160.47,36.93L161.7,41.92L164.17,34.25L165.41,35.51L166.64,34.44L167.88,42.05L169.11,35.75L170.34,51.97L171.58,57.39L172.81,44.9L174.05,44.41L175.28,42.38L176.52,46.45L177.75,45.46L180.22,59.45L181.45,58.38L182.69,58.51L183.92,55.99L185.16,47.15L186.39,45.35L187.63,48.94L188.86,46.34L190.09,40.77L191.33,40.23L192.56,51.11L193.8,47.36L195.03,40.12L196.27,47.87L197.5,47.04L198.73,51.54L199.97,44.92L201.2,53.34L202.44,43.37L203.67,46.88L206.14,59.67L207.38,57.95L208.61,65.3L209.84,52.46L211.08,53.96L212.31,46.88L213.55,47.09L214.78,43.53L216.02,45.99L217.25,41.3L218.49,41.33L219.72,42.62L220.95,39.86L222.19,40.55L223.42,40.61L224.66,50.82L225.89,45.35L227.13,53.45L228.36,55.94L229.59,48.33L230.83,49.1L232.06,51.41L233.3,57.28L234.53,48.78" style="vector-effect: none; fill: none; stroke: rgb(51, 204, 51); stroke-opacity: 1; stroke-width: 2px; opacity: 1;"/></g><g class="points"/><g class="text"/></g><g class="trace scatter trace7d3abf" style="stroke-miterlimit: 2; opacity: 1;"><g class="fills"/><g class="errorbars"/><g class="lines"><path class="js-line" d="M0,196.07L1.23,197.52L2.47,196.66L3.7,197.19L4.93,194.81L6.17,196.5L7.4,195.8L9.87,191.99L11.11,188.56L16.04,166.28L17.28,157.97L23.45,117.04L24.69,113.04L32.09,84.97L33.33,83.71L34.56,82.8L35.79,80.47L37.03,77.17L38.26,69.51L39.5,71.76L40.73,66.32L43.2,65.11L44.43,59.59L45.67,58.33L46.9,53.58L48.14,53.29L49.37,51.49L50.61,47.23L51.84,49L54.31,43.23L55.54,43.9L58.01,39.59L59.25,36.64L60.48,38.22L61.72,34.57L62.95,30.39L64.18,31.01L65.42,30.95L66.65,29.59L69.12,26.83L70.36,27.12L71.59,25.91L72.83,21.12L74.06,21.14L75.29,19.78L77.76,22.11L79,19.53L81.47,17.5L82.7,18.73L85.17,16.93L86.4,16.29L88.87,14.76L90.11,11.25L91.34,10.5L92.58,14.39L93.81,14.25L95.04,11.63L97.51,15.75L98.75,16.05L99.98,14.39L101.22,14.36L102.45,11.92L103.69,16.75L104.92,15.16L106.15,17.87L107.39,18.46L108.62,16.72L109.86,17.58L111.09,19.48L113.56,19.13L114.79,19.29L117.26,21.25L118.5,16.72L120.97,22.86L122.2,21.25L123.44,21.92L124.67,20.39L125.9,20.15L127.14,22.24L128.37,21.52L129.61,22.05L133.31,24.95L134.55,23.21L137.01,27.95L138.25,25.03L141.95,29.24L143.19,28.7L144.42,25.73L145.66,29.48L146.89,26.1L148.12,26.24L149.36,31.22L150.59,27.23L151.83,28.73L153.06,26.99L154.3,27.85L155.53,30.42L156.76,26.16L158,27.07L159.23,26.42L160.47,28.84L161.7,26.83L162.94,28.27L164.17,28.49L165.4,31.04L166.64,28.19L167.87,28.09L170.34,32.43L171.58,28.35L172.81,29.13L174.05,27.71L175.28,28.33L176.51,30.07L177.75,28.33L178.98,30.63L180.22,29.99L181.45,28.03L182.69,28.14L183.92,30.15L185.16,31.81L186.39,29.83L187.62,30.12L188.86,29.21L190.09,27.76L191.33,30.98L192.56,30.15L193.8,27.39L195.03,31.41L196.27,28.57L197.5,32.54L198.73,29.69L201.2,29.45L202.44,27.66L203.67,30.39L204.91,28.7L207.37,30.47L208.61,29.13L209.84,28.01L211.08,31.49L212.31,33.42L213.55,30.37L214.78,28.73L216.02,29.11L217.25,29.67L218.48,29.27L220.95,30.18L222.19,31.95L224.66,31.95L225.89,30.37L227.12,31.81L228.36,26.61L229.59,28.25L230.83,28.19L233.3,27.76L234.53,30.31L235.77,29.88L237,31.57" style="vector-effect: none; fill: none; stroke: rgb(51, 204, 51); stroke-opacity: 1; stroke-width: 2px; opacity: 1;"/></g><g class="points"/><g class="text"/></g></g></g></g><path class="xlines-above crisp" d="M0,0" style="fill: none;"/><path class="ylines-above crisp" d="M0,0" style="fill: none;"/><g class="overlines-above"/><g class="xaxislayer-above"><g class="xtick"><text text-anchor="middle" x="0" y="245" transform="translate(46.99,0)" style="font-family: 'Open Sans', verdana, arial, sans-serif; font-size: 14px; fill: rgb(0, 0, 0); fill-opacity: 1; white-space: pre; opacity: 1;">0</text></g><g class="xtick"><text text-anchor="middle" x="0" y="245" style="font-family: 'Open Sans', verdana, arial, sans-serif; font-size: 14px; fill: rgb(0, 0, 0); fill-opacity: 1; white-space: pre; opacity: 1;" transform="translate(96.36,0)">10</text></g><g class="xtick"><text text-anchor="middle" x="0" y="245" style="font-family: 'Open Sans', verdana, arial, sans-serif; font-size: 14px; fill: rgb(0, 0, 0); fill-opacity: 1; white-space: pre; opacity: 1;" transform="translate(145.74,0)">20</text></g><g class="xtick"><text text-anchor="middle" x="0" y="245" style="font-family: 'Open Sans', verdana, arial, sans-serif; font-size: 14px; fill: rgb(0, 0, 0); fill-opacity: 1; white-space: pre; opacity: 1;" transform="translate(195.12,0)">30</text></g><g class="xtick"><text text-anchor="middle" x="0" y="245" style="font-family: 'Open Sans', verdana, arial, sans-serif; font-size: 14px; fill: rgb(0, 0, 0); fill-opacity: 1; white-space: pre; opacity: 1;" transform="translate(244.49,0)">40</text></g></g><g class="yaxislayer-above"><g class="ytick"><text text-anchor="end" x="46" y="4.8999999999999995" transform="translate(0,215.21)" style="font-family: 'Open Sans', verdana, arial, sans-serif; font-size: 14px; fill: rgb(0, 0, 0); fill-opacity: 1; white-space: pre; opacity: 1;">0</text></g><g class="ytick"><text text-anchor="end" x="46" y="4.8999999999999995" style="font-family: 'Open Sans', verdana, arial, sans-serif; font-size: 14px; fill: rgb(0, 0, 0); fill-opacity: 1; white-space: pre; opacity: 1;" transform="translate(0,134.79000000000002)">0.5</text></g><g class="ytick"><text text-anchor="end" x="46" y="4.8999999999999995" style="font-family: 'Open Sans', verdana, arial, sans-serif; font-size: 14px; fill: rgb(0, 0, 0); fill-opacity: 1; white-space: pre; opacity: 1;" transform="translate(0,54.36)">1</text></g></g><g class="overaxes-above"/></g></g><g class="polarlayer"/><g class="smithlayer"/><g class="ternarylayer"/><g class="geolayer"/><g class="funnelarealayer"/><g class="pielayer"/><g class="iciclelayer"/><g class="treemaplayer"/><g class="sunburstlayer"/><g class="glimages"/><defs id="topdefs-5ceca9"><g class="clips"/><clipPath id="legend5ceca9"><rect width="211" height="89" x="0" y="0"/></clipPath></defs><g class="layer-above"><g class="imagelayer"/><g class="shapelayer"/></g><g class="infolayer"><g class="legend" pointer-events="all" transform="translate(288.74,20)"><rect class="bg" shape-rendering="crispEdges" width="211" height="89" x="0" y="0" style="stroke: rgb(68, 68, 68); stroke-opacity: 1; fill: rgb(255, 255, 255); fill-opacity: 1; stroke-width: 0px;"/><g class="scrollbox" transform="" clip-path="url(#legend5ceca9)"><g class="groups"><g class="traces" transform="translate(0,24.7)" style="opacity: 1;"><text class="legendtext" text-anchor="start" x="40" y="-3.64" style="font-family: 'Open Sans', verdana, arial, sans-serif; font-size: 14px; fill: rgb(0, 0, 0); fill-opacity: 1; white-space: pre;"><tspan class="line" dy="0em" x="40" y="-3.64">Salmonella Typhimurium </tspan><tspan class="line" dy="1.3em" x="40" y="-3.64">mcherry:pGDPI CTX-M-15</tspan></text><g class="layers" style="opacity: 1;"><g class="legendfill"/><g class="legendlines"><path class="js-line" d="M5,0h30" style="fill: none; stroke: rgb(255, 28, 28); stroke-opacity: 1; stroke-width: 2px;"/></g><g class="legendsymbols"><g class="legendpoints"/></g></g><rect class="legendtoggle" x="0" y="-19.7" width="205.125" height="39.4" style="fill: rgb(0, 0, 0); fill-opacity: 0;"/></g><g class="traces" transform="translate(0,64.1)" style="opacity: 1;"><text class="legendtext" text-anchor="start" x="40" y="-3.64" style="font-family: 'Open Sans', verdana, arial, sans-serif; font-size: 14px; fill: rgb(0, 0, 0); fill-opacity: 1; white-space: pre;"><tspan class="line" dy="0em" x="40" y="-3.64">Escherichia coli  </tspan><tspan class="line" dy="1.3em" x="40" y="-3.64">sfGFP:pGDPI CAT</tspan></text><g class="layers" style="opacity: 1;"><g class="legendfill"/><g class="legendlines"><path class="js-line" d="M5,0h30" style="fill: none; stroke: rgb(51, 204, 51); stroke-opacity: 1; stroke-width: 2px;"/></g><g class="legendsymbols"><g class="legendpoints"/></g></g><rect class="legendtoggle" x="0" y="-19.7" width="205.125" height="39.4" style="fill: rgb(0, 0, 0); fill-opacity: 0;"/></g></g></g><rect class="scrollbar" rx="20" ry="3" width="0" height="0" x="0" y="0" style="fill: rgb(128, 139, 164); fill-opacity: 1;"/></g><g class="g-gtitle"><text class="gtitle" x="25" y="10" text-anchor="start" dy="0em" style="opacity: 1; font-family: 'Open Sans', verdana, arial, sans-serif; font-size: 14px; fill: rgb(0, 0, 0); fill-opacity: 1; white-space: pre;">Mono-culture growth curves 100% CFA</text></g><g class="g-xtitle"><text class="xtitle" x="165.5" y="274.4" text-anchor="middle" style="opacity: 1; font-family: 'Open Sans', verdana, arial, sans-serif; font-size: 17px; fill: rgb(0, 0, 0); fill-opacity: 1; white-space: pre;">Time [h]</text></g><g class="g-ytitle" transform="translate(8.9189453125,0)"><text class="ytitle" transform="rotate(-90,6.081249999999997,125)" x="6.081249999999997" y="125" text-anchor="middle" style="opacity: 1; font-family: 'Open Sans', verdana, arial, sans-serif; font-size: 17px; fill: rgb(0, 0, 0); fill-opacity: 1; white-space: pre;">Abundance [OD]</text></g></g></svg>