<svg class="main-svg" xmlns="http://www.w3.org/2000/svg" xmlns:xlink="http://www.w3.org/1999/xlink" width="1000" height="400" style="" viewBox="0 0 1000 400"><rect x="0" y="0" width="1000" height="400" style="fill: rgb(255, 255, 255); fill-opacity: 1;"/><defs id="defs-93b44b"><g class="clips"><clipPath id="clip93b44bxyplot" class="plotclip"><rect width="673" height="330"/></clipPath><clipPath class="axesclip" id="clip93b44bx"><rect x="47" y="0" width="673" height="400"/></clipPath><clipPath class="axesclip" id="clip93b44by"><rect x="0" y="20" width="1000" height="330"/></clipPath><clipPath class="axesclip" id="clip93b44bxy"><rect x="47" y="20" width="673" height="330"/></clipPath></g><g class="gradients"/><g class="patterns"/></defs><g class="bglayer"/><g class="layer-below"><g class="imagelayer"/><g class="shapelayer"/></g><g class="cartesianlayer"><g class="subplot xy"><g class="layer-subplot"><g class="shapelayer"/><g class="imagelayer"/></g><g class="minor-gridlayer"><g class="x"/><g class="y"/></g><g class="gridlayer"><g class="x"><path class="xgrid crisp" transform="translate(187.18,0)" d="M0,20v330" style="stroke: rgb(0, 0, 0); stroke-opacity: 1; stroke-width: 1px;"/><path class="xgrid crisp" transform="translate(327.39,0)" d="M0,20v330" style="stroke: rgb(0, 0, 0); stroke-opacity: 1; stroke-width: 1px;"/><path class="xgrid crisp" transform="translate(467.6,0)" d="M0,20v330" style="stroke: rgb(0, 0, 0); stroke-opacity: 1; stroke-width: 1px;"/><path class="xgrid crisp" transform="translate(607.81,0)" d="M0,20v330" style="stroke: rgb(0, 0, 0); stroke-opacity: 1; stroke-width: 1px;"/></g><g class="y"><path class="ygrid crisp" transform="translate(0,275.62)" d="M47,0h673" style="stroke: rgb(0, 0, 0); stroke-opacity: 1; stroke-width: 1px;"/><path class="ygrid crisp" transform="translate(0,222.13)" d="M47,0h673" style="stroke: rgb(0, 0, 0); stroke-opacity: 1; stroke-width: 1px;"/><path class="ygrid crisp" transform="translate(0,168.63)" d="M47,0h673" style="stroke: rgb(0, 0, 0); stroke-opacity: 1; stroke-width: 1px;"/><path class="ygrid crisp" transform="translate(0,115.14)" d="M47,0h673" style="stroke: rgb(0, 0, 0); stroke-opacity: 1; stroke-width: 1px;"/><path class="ygrid crisp" transform="translate(0,61.64)" d="M47,0h673" style="stroke: rgb(0, 0, 0); stroke-opacity: 1; stroke-width: 1px;"/></g></g><g class="zerolinelayer"><path class="yzl zl crisp" transform="translate(0,329.11)" d="M47,0h673" style="stroke: rgb(0, 0, 0); stroke-opacity: 1; stroke-width: 1px;"/></g><g class="layer-between"><g class="shapelayer"/><g class="imagelayer"/></g><path class="xlines-below"/><path class="ylines-below"/><g class="overlines-below"/><g class="xaxislayer-below"/><g class="yaxislayer-below"/><g class="overaxes-below"/><g class="overplot"><g class="xy" transform="translate(47,20)" clip-path="url(#clip93b44bxyplot)"><g class="scatterlayer mlayer"><g class="trace scatter tracee6d4eb" style="stroke-miterlimit: 2; opacity: 1;"><g class="fills"/><g class="errorbars"/><g class="lines"><path class="js-line" d="M0,312.11L3.5,313.5L7,313.5L10.51,312L14.01,312.32L24.53,311.04L28.03,310.83L35.04,305.26L38.55,300.66L42.06,296.27L45.56,288.79L49.06,279.26L52.57,266.43L56.08,259.36L59.58,247.81L66.59,219.35L70.1,215.39L73.6,214.75L77.11,202.55L84.12,177.2L87.62,166.93L91.13,154.84L94.63,134.08L98.14,129.48L101.64,118.25L105.15,107.55L108.65,92.03L115.66,68.5L119.17,64L122.68,63.15L126.18,64.54L129.69,64.97L133.19,64.32L136.7,66.78L140.2,63.79L147.21,58.55L150.72,58.97L161.23,55.66L164.74,55.12L171.75,53.2L175.25,50.42L178.76,51.7L182.26,52.02L185.77,51.27L189.27,40.14L192.78,53.41L196.28,49.13L199.79,51.81L203.29,51.16L206.8,48.49L210.31,40.68L213.81,36.72L217.32,38.33L220.82,39.5L224.33,33.4L227.83,34.26L231.34,32.01L234.84,41.21L238.35,43.78L241.85,33.51L245.36,36.93L248.86,47.21L252.37,43.89L255.87,38.43L259.38,40.14L262.88,43.68L266.39,42.5L269.89,49.77L273.4,49.02L280.41,54.59L283.92,45.92L287.42,49.13L290.93,49.13L294.43,55.12L297.94,53.3L301.44,53.84L304.95,56.83L308.45,58.55L311.96,55.12L315.46,51.49L318.97,61.44L322.47,65.29L325.98,57.05L329.48,49.56L332.99,60.9L336.49,58.44L340,46.88L343.51,51.06L347.01,53.41L350.52,64.97L354.02,67.32L357.53,60.69L361.03,58.65L364.54,57.48L368.04,57.69L371.55,57.69L375.05,67.64L378.56,66.68L382.06,67.75L385.57,63.79L389.07,61.65L392.58,59.4L396.08,61.22L399.59,63.79L403.09,60.9L406.6,58.23L410.11,67L413.61,67.21L417.12,71.06L420.62,67.85L424.13,68.92L427.63,59.83L431.14,59.51L434.64,65.18L438.15,61.11L441.65,68.07L445.16,67.21L448.66,70.42L452.17,76.63L455.67,80.69L459.18,65.39L462.68,73.42L466.19,65.18L469.69,64.86L473.2,61.86L476.71,72.35L480.21,77.16L483.72,66.46L487.22,67.96L490.73,59.3L494.23,75.02L501.24,76.31L504.75,82.3L508.25,59.51L511.76,68.5L515.26,64.22L518.77,75.24L522.27,59.4L525.78,71.92L529.28,65.5L532.79,81.01L536.29,73.42L539.8,77.27L543.31,75.56L546.81,82.73L550.32,83.05L553.82,78.13L557.33,84.65L560.83,78.87L564.34,82.4L567.84,74.59L571.35,80.37L574.85,80.8L578.36,72.35L581.86,73.63L585.37,80.27L588.87,80.59L592.38,79.41L595.88,82.62L599.39,82.83L602.89,84.44L606.4,75.13L609.9,85.29L613.41,83.69L616.91,78.34L620.42,81.23L623.93,85.19L627.43,89.79L630.94,85.83L634.44,84.54L637.95,76.84L644.96,84.97L648.46,83.9L651.97,85.19L655.47,88.5L662.48,83.05L665.99,78.55L669.49,85.08L673,85.83" style="vector-effect: none; fill: none; stroke: rgb(51, 204, 51); stroke-opacity: 1; stroke-width: 3px; opacity: 1;"/></g><g class="points"/><g class="text"/></g><g class="trace scatter trace0c0a06" style="stroke-miterlimit: 2; opacity: 1;"><g class="fills"/><g class="errorbars"/><g class="lines"><path class="js-line" d="M0,310.61L3.5,313.18L7.01,311.9L10.51,311.47L14.02,312.22L24.53,311.47L28.04,310.72L31.54,310.83L35.05,309.65L45.56,308.9L49.07,306.97L59.58,298.52L63.09,291.46L70.1,274.34L73.6,260.75L80.62,235.93L84.12,210.9L87.63,207.37L91.13,201.8L101.65,157.3L105.15,149.81L115.67,117.82L119.17,114.39L122.68,104.44L126.18,87.33L129.69,82.4L133.19,66.04L136.7,58.87L140.21,53.41L143.71,42.61L147.22,34.47L150.72,37.58L154.23,49.24L157.73,44.85L161.23,44.42L164.74,38.54L168.24,41.96L171.75,38.43L175.26,44.1L178.76,41.11L182.27,33.94L189.28,30.62L192.78,26.13L196.29,37.15L199.79,37.36L203.3,34.58L206.8,36.4L210.31,27.31L213.81,29.34L217.32,37.47L220.82,33.83L224.33,35.86L227.83,29.34L231.34,36.19L234.85,30.41L238.35,16.5L241.86,37.79L245.36,33.19L248.87,24.74L252.37,33.3L255.88,30.19L259.38,32.33L262.89,29.77L266.39,28.16L269.9,25.17L273.4,26.56L276.91,32.98L280.41,20.99L283.92,28.91L287.42,22.92L290.93,32.55L294.44,29.02L297.94,37.36L301.44,34.05L304.95,26.88L311.96,43.57L315.47,39.07L318.97,31.59L322.48,34.26L325.98,28.38L329.49,34.05L332.99,36.19L336.5,32.98L340,38.86L343.51,41.43L350.52,40.89L354.02,48.28L357.53,39.07L361.04,36.93L364.54,46.67L368.05,42.71L371.55,38.54L375.06,40.79L378.56,30.41L382.07,34.47L385.57,31.69L389.08,33.3L392.58,43.03L396.09,33.3L399.59,43.89L403.1,45.28L406.6,44.96L410.11,32.98L413.61,44.96L417.12,48.49L420.62,41.43L424.13,36.61L427.64,38.86L431.14,40.04L434.64,40.14L438.15,45.28L441.66,46.99L445.16,47.53L448.67,41.64L452.17,39.93L455.68,52.34L459.18,53.09L462.69,39.61L466.19,45.92L469.7,45.49L473.2,43.46L476.71,60.04L480.21,57.05L483.72,59.83L487.22,54.48L490.73,50.52L494.23,54.16L497.74,61.97L501.25,49.24L504.75,58.97L508.26,54.59L511.76,52.66L515.27,47.21L518.77,57.48L522.28,58.87L525.78,53.84L529.29,54.69L532.79,56.62L536.3,54.27L539.8,50.63L543.31,56.19L546.81,64L550.32,55.55L553.82,50.84L557.33,58.55L560.83,51.91L564.34,62.72L567.85,64.64L571.35,69.89L574.86,56.41L578.36,61.65L581.87,66.68L585.37,75.66L588.88,76.31L592.38,68.71L595.89,66.78L599.39,71.71L602.9,77.7L606.4,59.51L609.91,65.18L613.41,66.36L616.92,65.71L620.42,75.45L623.93,71.28L627.43,61.54L634.45,65.93L637.95,63.68L641.46,68.39L644.96,70.1L648.47,78.34L651.97,66.25L655.48,65.93L658.98,80.59L665.99,72.67" style="vector-effect: none; fill: none; stroke: rgb(51, 204, 51); stroke-opacity: 1; stroke-width: 3px; opacity: 1;"/></g><g class="points"/><g class="text"/></g><g class="trace scatter traceebd04d" style="stroke-miterlimit: 2; opacity: 1;"><g class="fills"/><g class="errorbars"/><g class="lines"><path class="js-line" d="M0,310.93L3.5,313.5L7,313.18L14.01,312.32L17.52,312.97L28.03,311.15L31.54,311.04L38.55,307.94L42.05,304.19L45.56,300.45L49.07,295.53L59.58,268.14L63.09,265.14L73.6,216.14L77.11,206.94L80.61,216.03L84.12,192.82L87.62,173.35L91.13,160.08L98.14,137.18L101.64,121.03L108.66,99.63L112.16,84.12L115.67,68.6L119.17,60.04L126.18,41.96L129.68,38.97L133.19,48.28L136.7,41.43L140.2,47.85L143.71,47.31L150.72,39.29L154.22,37.58L157.73,38.54L161.23,38.33L164.74,33.83L168.24,31.48L171.75,32.98L175.25,26.66L178.76,28.48L182.26,31.69L185.77,30.09L189.27,27.41L192.78,29.66L196.29,28.05L199.79,28.59L203.3,27.09L206.8,27.52L210.31,19.39L213.81,20.24L217.32,22.28L220.82,20.99L224.33,18.32L227.83,24.52L231.34,23.45L238.35,20.67L241.85,18.96L245.36,19.39L248.86,18.96L252.37,20.03L255.87,18.75L259.38,20.24L262.88,28.7L266.39,29.77L269.89,25.7L273.4,30.84L276.91,32.55L280.41,31.26L283.92,22.92L287.42,32.76L290.93,29.98L297.94,29.02L301.44,37.47L304.95,40.14L308.45,32.01L311.96,42.39L315.46,40.68L318.97,38.11L322.47,40.68L325.98,37.9L329.48,42.07L332.99,49.77L336.49,35.01L340,47.63L343.51,55.87L347.01,50.84L350.52,52.45L354.02,41.75L357.53,42.82L361.03,49.35L364.54,42.93L368.04,44.96L371.55,51.91L375.05,51.7L378.56,52.34L382.06,49.77L385.57,46.14L389.07,49.13L392.58,47.21L396.08,50.74L399.59,50.31L403.09,53.52L406.6,54.69L410.11,52.77L413.61,47.63L420.62,51.27L424.13,59.3L427.63,60.69L431.14,52.88L434.64,53.2L438.15,55.12L441.65,59.72L445.16,55.98L448.66,54.48L452.17,48.92L455.67,58.55L459.18,56.94L462.68,53.95L466.19,57.48L469.69,61.65L473.2,62.29L476.71,54.48L480.21,62.18L483.72,62.4L487.22,52.88L490.73,58.12L494.23,60.26L497.74,51.06L501.24,59.51L508.25,60.79L511.76,60.69L515.26,57.8L518.77,60.79L522.27,62.29L525.78,65.82L532.79,61.54L536.29,63.25L539.8,58.87L543.31,68.39L546.81,71.06L550.32,64.75L553.82,67.11L557.33,65.61L560.83,68.39L564.34,65.18L567.84,60.37L571.35,63.25L574.85,59.72L578.36,67.53L581.86,67.64L585.37,68.6L588.87,75.88L592.38,68.39L595.88,67L599.39,74.17L602.9,77.8L606.4,72.13L609.91,67.96L613.41,67.96L616.92,71.28L620.42,73.2L623.93,78.98L627.43,74.81L630.94,79.62L634.44,77.8L637.95,79.09L641.45,78.13L644.96,78.02L648.46,71.06L651.97,76.2L655.47,76.63L658.98,76.41L662.48,75.24L665.99,75.45L669.49,84.87L673,79.52" style="vector-effect: none; fill: none; stroke: rgb(51, 204, 51); stroke-opacity: 1; stroke-width: 3px; opacity: 1;"/></g><g class="points"/><g class="text"/></g><g class="trace scatter traced624d0" style="stroke-miterlimit: 2; opacity: 1;"><g class="fills"/><g class="errorbars"/><g class="lines"><path class="js-line" d="M0,303.76L14.01,300.18L17.52,298.96L28.03,294.23L31.54,292.22L38.55,287.37L42.05,284.46L49.07,277.5L52.57,273.34L59.58,263.46L63.09,257.62L70.1,243.88L73.6,235.88L80.61,217.41L84.12,206.89L94.63,170.41L98.14,156.88L115.67,88.19L119.17,76.4L126.18,56.99L129.68,49.55L136.7,38.89L140.2,35.32L147.21,30.66L150.72,29.22L157.73,27.43L161.23,26.9L175.25,25.92L178.76,25.82L206.8,25.61" style="vector-effect: none; fill: none; stroke: rgb(51, 204, 51); stroke-opacity: 1; stroke-dasharray: 9px, 9px; stroke-width: 3px; opacity: 1;"/></g><g class="points"/><g class="text"/></g></g></g></g><path class="xlines-above crisp" d="M0,0" style="fill: none;"/><path class="ylines-above crisp" d="M0,0" style="fill: none;"/><g class="overlines-above"/><g class="xaxislayer-above"><g class="xtick"><text text-anchor="middle" x="0" y="365" transform="translate(46.97,0)" style="font-family: 'Open Sans', verdana, arial, sans-serif; font-size: 14px; fill: rgb(0, 0, 0); fill-opacity: 1; white-space: pre; opacity: 1;">0</text></g><g class="xtick"><text text-anchor="middle" x="0" y="365" style="font-family: 'Open Sans', verdana, arial, sans-serif; font-size: 14px; fill: rgb(0, 0, 0); fill-opacity: 1; white-space: pre; opacity: 1;" transform="translate(187.18,0)">10</text></g><g class="xtick"><text text-anchor="middle" x="0" y="365" style="font-family: 'Open Sans', verdana, arial, sans-serif; font-size: 14px; fill: rgb(0, 0, 0); fill-opacity: 1; white-space: pre; opacity: 1;" transform="translate(327.39,0)">20</text></g><g class="xtick"><text text-anchor="middle" x="0" y="365" style="font-family: 'Open Sans', verdana, arial, sans-serif; font-size: 14px; fill: rgb(0, 0, 0); fill-opacity: 1; white-space: pre; opacity: 1;" transform="translate(467.6,0)">30</text></g><g class="xtick"><text text-anchor="middle" x="0" y="365" style="font-family: 'Open Sans', verdana, arial, sans-serif; font-size: 14px; fill: rgb(0, 0, 0); fill-opacity: 1; white-space: pre; opacity: 1;" transform="translate(607.81,0)">40</text></g></g><g class="yaxislayer-above"><g class="ytick"><text text-anchor="end" x="46" y="4.8999999999999995" transform="translate(0,329.11)" style="font-family: 'Open Sans', verdana, arial, sans-serif; font-size: 14px; fill: rgb(0, 0, 0); fill-opacity: 1; white-space: pre; opacity: 1;">0</text></g><g class="ytick"><text text-anchor="end" x="46" y="4.8999999999999995" style="font-family: 'Open Sans', verdana, arial, sans-serif; font-size: 14px; fill: rgb(0, 0, 0); fill-opacity: 1; white-space: pre; opacity: 1;" transform="translate(0,275.62)">0.1</text></g><g class="ytick"><text text-anchor="end" x="46" y="4.8999999999999995" style="font-family: 'Open Sans', verdana, arial, sans-serif; font-size: 14px; fill: rgb(0, 0, 0); fill-opacity: 1; white-space: pre; opacity: 1;" transform="translate(0,222.13)">0.2</text></g><g class="ytick"><text text-anchor="end" x="46" y="4.8999999999999995" style="font-family: 'Open Sans', verdana, arial, sans-serif; font-size: 14px; fill: rgb(0, 0, 0); fill-opacity: 1; white-space: pre; opacity: 1;" transform="translate(0,168.63)">0.3</text></g><g class="ytick"><text text-anchor="end" x="46" y="4.8999999999999995" style="font-family: 'Open Sans', verdana, arial, sans-serif; font-size: 14px; fill: rgb(0, 0, 0); fill-opacity: 1; white-space: pre; opacity: 1;" transform="translate(0,115.14)">0.4</text></g><g class="ytick"><text text-anchor="end" x="46" y="4.8999999999999995" style="font-family: 'Open Sans', verdana, arial, sans-serif; font-size: 14px; fill: rgb(0, 0, 0); fill-opacity: 1; white-space: pre; opacity: 1;" transform="translate(0,61.64)">0.5</text></g></g><g class="overaxes-above"/></g></g><g class="polarlayer"/><g class="smithlayer"/><g class="ternarylayer"/><g class="geolayer"/><g class="funnelarealayer"/><g class="pielayer"/><g class="iciclelayer"/><g class="treemaplayer"/><g class="sunburstlayer"/><g class="glimages"/><defs id="topdefs-93b44b"><g class="clips"/><clipPath id="legend93b44b"><rect width="267" height="53" x="0" y="0"/></clipPath></defs><g class="layer-above"><g class="imagelayer"/><g class="shapelayer"/></g><g class="infolayer"><g class="legend" pointer-events="all" transform="translate(733,20)"><rect class="bg" shape-rendering="crispEdges" width="267" height="53" x="0" y="0" style="stroke: rgb(68, 68, 68); stroke-opacity: 1; fill: rgb(255, 255, 255); fill-opacity: 1; stroke-width: 0px;"/><g class="scrollbox" transform="" clip-path="url(#legend93b44b)"><g class="groups"><g class="traces" transform="translate(0,15.6)" style="opacity: 1;"><text class="legendtext" text-anchor="start" x="40" y="5.46" style="font-family: 'Open Sans', verdana, arial, sans-serif; font-size: 14px; fill: rgb(0, 0, 0); fill-opacity: 1; white-space: pre;">Escherichia coli  sfGFP:pGDPI CAT</text><g class="layers" style="opacity: 1;"><g class="legendfill"/><g class="legendlines"><path class="js-line" d="M5,0h30" style="fill: none; stroke: rgb(51, 204, 51); stroke-opacity: 1; stroke-width: 3px;"/></g><g class="legendsymbols"><g class="legendpoints"/></g></g><rect class="legendtoggle" x="0" y="-10.6" width="261.921875" height="21.2" style="fill: rgb(0, 0, 0); fill-opacity: 0;"/></g><g class="traces" transform="translate(0,36.8)" style="opacity: 1;"><text class="legendtext" text-anchor="start" x="40" y="5.46" style="font-family: 'Open Sans', verdana, arial, sans-serif; font-size: 14px; fill: rgb(0, 0, 0); fill-opacity: 1; white-space: pre;">Model</text><g class="layers" style="opacity: 1;"><g class="legendfill"/><g class="legendlines"><path class="js-line" d="M5,0h30" style="fill: none; stroke: rgb(51, 204, 51); stroke-opacity: 1; stroke-dasharray: 9px, 9px; stroke-width: 3px;"/></g><g class="legendsymbols"><g class="legendpoints"/></g></g><rect class="legendtoggle" x="0" y="-10.6" width="261.921875" height="21.2" style="fill: rgb(0, 0, 0); fill-opacity: 0;"/></g></g></g><rect class="scrollbar" rx="20" ry="3" width="0" height="0" x="0" y="0" style="fill: rgb(128, 139, 164); fill-opacity: 1;"/></g><g class="g-gtitle"/><g class="g-xtitle"><text class="xtitle" x="383.5" y="394.4" text-anchor="middle" style="opacity: 1; font-family: 'Open Sans', verdana, arial, sans-serif; font-size: 17px; fill: rgb(0, 0, 0); fill-opacity: 1; white-space: pre;">Time [h]</text></g><g class="g-ytitle" transform="translate(8.9189453125,0)"><text class="ytitle" transform="rotate(-90,6.081249999999997,185)" x="6.081249999999997" y="185" text-anchor="middle" style="opacity: 1; font-family: 'Open Sans', verdana, arial, sans-serif; font-size: 17px; fill: rgb(0, 0, 0); fill-opacity: 1; white-space: pre;">Abundance [OD]</text></g></g></svg>