<svg class="main-svg" xmlns="http://www.w3.org/2000/svg" xmlns:xlink="http://www.w3.org/1999/xlink" width="500" height="400" style="" viewBox="0 0 500 400"><rect x="0" y="0" width="500" height="400" style="fill: rgb(255, 255, 255); fill-opacity: 1;"/><defs id="defs-fbb8bd"><g class="clips"><clipPath id="clipfbb8bdxyplot" class="plotclip"><rect width="268" height="140.25000000000003"/></clipPath><clipPath id="clipfbb8bdx2y2plot" class="plotclip"><rect width="268" height="140.25"/></clipPath><clipPath class="axesclip" id="clipfbb8bdx"><rect x="40" y="0" width="268" height="400"/></clipPath><clipPath class="axesclip" id="clipfbb8bdy"><rect x="0" y="20" width="500" height="140.25000000000003"/></clipPath><clipPath class="axesclip" id="clipfbb8bdxy"><rect x="40" y="20" width="268" height="140.25000000000003"/></clipPath><clipPath class="axesclip" id="clipfbb8bdy2"><rect x="0" y="209.74999999999997" width="500" height="140.25"/></clipPath><clipPath class="axesclip" id="clipfbb8bdxy2"><rect x="40" y="209.74999999999997" width="268" height="140.25"/></clipPath><clipPath class="axesclip" id="clipfbb8bdx2"><rect x="40" y="0" width="268" height="400"/></clipPath><clipPath class="axesclip" id="clipfbb8bdx2y"><rect x="40" y="20" width="268" height="140.25000000000003"/></clipPath><clipPath class="axesclip" id="clipfbb8bdx2y2"><rect x="40" y="209.74999999999997" width="268" height="140.25"/></clipPath></g><g class="gradients"/><g class="patterns"/></defs><g class="bglayer"/><g class="layer-below"><g class="imagelayer"/><g class="shapelayer"/></g><g class="cartesianlayer"><g class="subplot xy"><g class="layer-subplot"><g class="shapelayer"/><g class="imagelayer"/></g><g class="minor-gridlayer"><g class="x"/><g class="y"/></g><g class="gridlayer"><g class="x"><path class="xgrid crisp" transform="translate(95.83,0)" d="M0,20v140.25000000000003" style="stroke: rgb(0, 0, 0); stroke-opacity: 1; stroke-width: 1px;"/><path class="xgrid crisp" transform="translate(151.66,0)" d="M0,20v140.25000000000003" style="stroke: rgb(0, 0, 0); stroke-opacity: 1; stroke-width: 1px;"/><path class="xgrid crisp" transform="translate(207.49,0)" d="M0,20v140.25000000000003" style="stroke: rgb(0, 0, 0); stroke-opacity: 1; stroke-width: 1px;"/><path class="xgrid crisp" transform="translate(263.33000000000004,0)" d="M0,20v140.25000000000003" style="stroke: rgb(0, 0, 0); stroke-opacity: 1; stroke-width: 1px;"/></g><g class="y"><path class="ygrid crisp" transform="translate(0,96.96)" d="M40,0h268" style="stroke: rgb(0, 0, 0); stroke-opacity: 1; stroke-width: 1px;"/><path class="ygrid crisp" transform="translate(0,43.019999999999996)" d="M40,0h268" style="stroke: rgb(0, 0, 0); stroke-opacity: 1; stroke-width: 1px;"/></g></g><g class="zerolinelayer"><path class="xzl zl crisp" transform="translate(40,0)" d="M0,20v140.25000000000003" style="stroke: rgb(0, 0, 0); stroke-opacity: 1; stroke-width: 1px;"/><path class="yzl zl crisp" transform="translate(0,150.9)" d="M40,0h268" style="stroke: rgb(0, 0, 0); stroke-opacity: 1; stroke-width: 1px;"/></g><g class="layer-between"><g class="shapelayer"/><g class="imagelayer"/></g><path class="xlines-below"/><path class="ylines-below"/><g class="overlines-below"/><g class="xaxislayer-below"/><g class="yaxislayer-below"/><g class="overaxes-below"/><g class="overplot"><g class="xy" transform="translate(40,20)" clip-path="url(#clipfbb8bdxyplot)"><g class="scatterlayer mlayer"><g class="trace scatter tracec61dc7" style="stroke-miterlimit: 2; opacity: 1;"><g class="fills"/><g class="errorbars"/><g class="lines"><path class="js-line" d="M0.01,132.23L2.8,133.24L4.2,133.18L6.99,132.57L8.38,132.05L9.78,131.53L11.18,129.91L12.57,127.9L13.97,124.01L19.55,108.08L20.95,102.13L26.53,81.65L27.93,78.59L30.72,71.82L32.11,70.07L33.51,68.36L34.9,65.45L36.3,61.8L37.7,60.79L41.88,55.88L43.28,52.76L46.07,48.67L47.47,48.15L50.26,44.3L51.65,42.83L57.24,37.17L58.63,34.22L61.42,33.91L62.82,32.22L64.22,31.65L65.61,30.26L68.4,28.7L69.8,25.95L71.19,26.67L72.59,26.34L73.99,24.89L75.38,24.65L83.76,19.13L85.15,19.22L86.55,17.73L87.94,18.52L89.34,16.76L90.74,16.78L92.13,16.18L93.53,14.13L94.92,15.23L96.32,11.98L97.71,12.55L99.11,12.15L100.51,12.37L101.9,11.09L104.69,11.45L106.09,10.63L107.48,11.53L108.88,9.84L110.28,11.22L111.67,10.84L115.86,12.82L117.26,10.99L120.05,11.89L121.44,13.25L122.84,12.37L124.23,14.22L125.63,12.95L127.03,13.77L129.82,18.25L131.21,12.48L132.61,14.38L134,13.47L135.4,12.96L136.8,13.52L139.59,15.36L140.98,15.63L142.38,14.33L143.77,15.57L145.17,15.09L146.57,15.88L147.96,14.06L149.36,17.8L150.75,16.07L152.15,16.96L154.94,18.74L156.34,17.69L159.13,20.28L160.52,21.34L161.92,17.5L163.32,20.32L167.5,23.75L168.9,20.44L170.3,18.43L171.69,21.15L173.09,23.27L174.48,22.58L175.88,19.92L177.27,22.24L180.07,25.78L181.46,25.75L182.86,23.61L184.25,23.37L185.65,27.17L187.04,22.49L188.44,21.72L189.84,25.87L191.23,23.41L192.63,23.75L194.02,23.02L195.42,19.71L196.81,22.37L198.21,20.88L199.61,20.16L201,21.56L202.4,18.3L203.79,21.4L205.19,17.93L206.59,20.82L207.98,18.45L209.38,23.55L210.77,21.92L212.17,29.16L213.56,23.34L214.96,26.32L216.36,23.95L217.75,24.31L219.15,23.81L220.54,22.03L221.94,26.54L223.33,22.66L224.73,19.87L226.13,20.14L227.52,25.16L228.92,18.75L230.31,16.74L231.71,19.96L233.11,20.19L234.5,19.58L237.29,19.92L238.69,22.01L241.48,20.05L242.88,21.06L244.27,20.95L245.67,19.74L247.06,20.07L248.46,21.95L249.85,25.8L251.25,20.12L252.65,20.79L254.04,19.46L256.83,23.16L258.23,21.27L259.63,21.31L261.02,22.57L263.81,19.24L265.21,21.31L268,23.05" style="vector-effect: none; fill: none; stroke: rgb(51, 204, 51); stroke-opacity: 1; stroke-width: 2px; opacity: 1;"/></g><g class="points"/><g class="text"/></g><g class="trace scatter tracec6a339" style="stroke-miterlimit: 2; opacity: 1;"><g class="fills"/><g class="errorbars"/><g class="lines"><path class="js-line" d="M0.01,132.46L4.2,132.91L5.59,132.95L8.39,132.36L9.78,131.37L12.57,130.38L13.97,127.68L19.55,115.47L20.95,110.24L26.53,89.87L27.93,83.18L32.11,72.82L33.51,72.01L36.3,66.15L37.7,64.1L40.49,58.08L41.88,58.46L43.28,58.26L44.68,56.42L46.07,54.23L47.47,53.71L48.86,50.26L50.26,50.24L53.05,43.19L54.45,43.42L57.24,42.72L58.63,41.27L62.82,36.99L64.22,36.03L67.01,31.88L68.4,31.65L69.8,32.26L71.2,30.5L73.99,30.37L75.38,28.19L76.78,27.31L78.17,27.78L80.97,25.33L82.36,26.04L83.76,25.98L85.15,24.98L87.94,21.74L89.34,21.76L90.74,22.53L92.13,21.34L94.92,17.76L96.32,18.18L97.72,17.28L99.11,17.55L101.9,16.29L103.3,16.04L106.09,14.1L107.49,15.12L108.88,14.47L110.28,14.76L111.67,13.23L113.07,13.47L115.86,13.56L117.26,15.46L120.05,15.36L121.44,12.8L124.24,14.69L125.63,13.86L127.03,11.92L128.42,13.38L129.82,12.37L131.21,12.68L132.61,11.4L134.01,13.32L136.8,16.42L138.19,15.05L139.59,14.38L140.98,15.95L142.38,15.3L143.78,15.91L145.17,15.72L146.57,18.23L147.96,17.46L149.36,17.71L150.76,16.79L152.15,17.94L156.34,21.63L157.73,19.65L159.13,18.97L160.53,21.27L161.92,19.87L163.32,20.23L164.71,19.15L166.11,21.95L167.5,21.56L168.9,22.94L170.3,22.12L171.69,25.21L173.09,23.99L174.48,26.09L175.88,22.96L177.28,24.44L178.67,23.97L180.07,25.16L181.46,24.74L182.86,28.09L185.65,22.94L187.05,23.79L188.44,23.07L189.84,28.18L191.23,23.95L192.63,34.83L194.02,38.46L195.42,30.08L196.82,29.76L198.21,28.39L199.61,31.12L201,30.46L203.8,39.85L205.19,39.13L206.59,39.22L207.98,37.53L209.38,31.59L210.77,30.39L212.17,32.8L213.57,31.05L214.96,27.31L216.36,26.95L217.75,34.25L219.15,31.74L220.54,26.88L221.94,32.08L223.34,31.52L224.73,34.54L226.13,30.1L227.52,35.75L228.92,29.06L230.32,31.41L233.11,39.99L234.5,38.84L235.9,43.77L237.29,35.15L238.69,36.16L240.09,31.41L241.48,31.56L242.88,29.16L244.27,30.82L245.67,27.67L247.06,27.69L248.46,28.55L249.86,26.7L251.25,27.17L252.65,27.2L254.04,34.06L255.44,30.39L256.84,35.82L258.23,37.49L259.63,32.38L261.02,32.9L262.42,34.45L263.81,38.39L265.21,32.69" style="vector-effect: none; fill: none; stroke: rgb(51, 204, 51); stroke-opacity: 1; stroke-width: 2px; opacity: 1;"/></g><g class="points"/><g class="text"/></g><g class="trace scatter trace982175" style="stroke-miterlimit: 2; opacity: 1;"><g class="fills"/><g class="errorbars"/><g class="lines"><path class="js-line" d="M0.01,131.48L1.41,132.45L2.8,131.87L4.2,132.23L5.59,130.63L6.99,131.76L8.39,131.3L11.18,128.74L12.57,126.44L18.16,111.5L19.55,105.92L26.53,78.47L27.93,75.79L32.11,65.34L33.51,64.21L36.3,56.96L37.7,56.12L39.09,55.51L40.49,53.94L41.88,51.73L43.28,46.59L44.68,48.1L46.07,44.45L48.86,43.64L50.26,39.94L51.65,39.09L53.05,35.91L54.45,35.71L55.84,34.51L57.24,31.65L58.63,32.83L61.42,28.97L62.82,29.42L65.61,26.52L67.01,24.54L68.4,25.6L69.8,23.16L71.19,20.35L72.59,20.77L73.99,20.73L75.38,19.81L78.17,17.96L79.57,18.16L80.97,17.35L82.36,14.13L83.76,14.15L85.15,13.23L87.94,14.8L89.34,13.07L92.13,11.71L93.53,12.53L96.32,11.33L97.71,10.9L100.51,9.87L101.9,7.52L103.3,7.01L104.69,9.62L106.09,9.53L107.48,7.77L110.28,10.54L111.67,10.73L113.07,9.62L114.46,9.6L115.86,7.97L117.26,11.2L118.65,10.14L120.05,11.96L121.44,12.35L122.84,11.18L125.63,13.04L127.03,12.69L131.21,13.5L132.61,14.22L134,11.18L135.4,13.95L136.8,15.3L138.19,14.22L139.59,14.67L140.98,13.65L142.38,13.49L143.78,14.89L145.17,14.4L146.57,14.76L150.75,16.7L152.15,15.54L154.94,18.72L156.34,16.76L160.52,19.58L161.92,19.22L163.32,17.23L164.71,19.74L166.11,17.48L167.5,17.57L168.9,20.91L170.3,18.23L171.69,19.24L173.09,18.07L174.48,18.65L175.88,20.37L177.27,17.51L178.67,18.12L180.07,17.69L181.46,19.31L182.86,17.96L184.25,18.93L185.65,19.08L187.04,20.79L188.44,18.88L189.84,18.81L192.63,21.72L194.02,18.99L195.42,19.51L196.82,18.56L199.61,20.14L201,18.97L202.4,20.52L203.79,20.08L205.19,18.77L206.59,18.84L209.38,21.31L210.77,19.98L212.17,20.17L213.56,19.56L214.96,18.59L216.36,20.75L217.75,20.19L219.15,18.34L220.54,21.04L221.94,19.13L223.34,21.79L224.73,19.89L227.52,19.72L228.92,18.52L230.31,20.35L231.71,19.22L234.5,20.41L235.9,19.51L237.29,18.75L238.69,21.09L240.08,22.39L241.48,20.34L242.88,19.24L244.27,19.49L248.46,20.03L249.85,20.21L251.25,21.4L252.65,21.5L254.04,21.4L255.44,20.34L256.83,21.31L258.23,17.82L259.63,18.92L261.02,18.88L263.81,18.59L265.21,20.3L266.6,20.01L268,21.15" style="vector-effect: none; fill: none; stroke: rgb(51, 204, 51); stroke-opacity: 1; stroke-width: 2px; opacity: 1;"/></g><g class="points"/><g class="text"/></g><g class="trace scatter trace9ae4df" style="stroke-miterlimit: 2; opacity: 1;"><g class="fills"/><g class="errorbars"/><g class="lines"><path class="js-line" d="M0,129.82L6.44,127.9L6.98,127.64L11.28,124.56L11.82,124.02L15.58,118.88L16.11,117.91L19.33,110.6L19.87,109.11L23.63,96.34L24.17,94.2L31.15,62.59L31.69,60.16L37.06,39.32L37.6,37.67L41.35,28.35L41.89,27.32L45.65,21.82L46.19,21.24L50.48,17.92L51.02,17.63L56.39,15.77L56.93,15.66L64.99,14.74L65.52,14.71L84.32,14.4L84.86,14.4L268,14.38" style="vector-effect: none; fill: none; stroke: rgb(0, 0, 0); stroke-opacity: 1; stroke-dasharray: 9px, 9px; stroke-width: 2px; opacity: 1;"/></g><g class="points"/><g class="text"/></g></g></g></g><path class="xlines-above crisp" d="M0,0" style="fill: none;"/><path class="ylines-above crisp" d="M0,0" style="fill: none;"/><g class="overlines-above"/><g class="xaxislayer-above"/><g class="yaxislayer-above"><g class="ytick"><text text-anchor="end" x="39" y="4.199999999999999" transform="translate(0,150.9)" style="font-family: 'Open Sans', verdana, arial, sans-serif; font-size: 12px; fill: rgb(0, 0, 0); fill-opacity: 1; white-space: pre; opacity: 1;">0</text></g><g class="ytick"><text text-anchor="end" x="39" y="4.199999999999999" style="font-family: 'Open Sans', verdana, arial, sans-serif; font-size: 12px; fill: rgb(0, 0, 0); fill-opacity: 1; white-space: pre; opacity: 1;" transform="translate(0,96.96)">0.5</text></g><g class="ytick"><text text-anchor="end" x="39" y="4.199999999999999" style="font-family: 'Open Sans', verdana, arial, sans-serif; font-size: 12px; fill: rgb(0, 0, 0); fill-opacity: 1; white-space: pre; opacity: 1;" transform="translate(0,43.019999999999996)">1</text></g></g><g class="overaxes-above"/></g><g class="subplot x2y2"><g class="layer-subplot"><g class="shapelayer"/><g class="imagelayer"/></g><g class="minor-gridlayer"><g class="x2"/><g class="y2"/></g><g class="gridlayer"><g class="x2"><path class="x2grid crisp" transform="translate(95.83,0)" d="M0,209.74999999999997v140.25" style="stroke: rgb(0, 0, 0); stroke-opacity: 1; stroke-width: 1px;"/><path class="x2grid crisp" transform="translate(151.66,0)" d="M0,209.74999999999997v140.25" style="stroke: rgb(0, 0, 0); stroke-opacity: 1; stroke-width: 1px;"/><path class="x2grid crisp" transform="translate(207.49,0)" d="M0,209.74999999999997v140.25" style="stroke: rgb(0, 0, 0); stroke-opacity: 1; stroke-width: 1px;"/><path class="x2grid crisp" transform="translate(263.33000000000004,0)" d="M0,209.74999999999997v140.25" style="stroke: rgb(0, 0, 0); stroke-opacity: 1; stroke-width: 1px;"/></g><g class="y2"><path class="y2grid crisp" transform="translate(0,285.73999999999995)" d="M40,0h268" style="stroke: rgb(0, 0, 0); stroke-opacity: 1; stroke-width: 1px;"/><path class="y2grid crisp" transform="translate(0,231.37999999999997)" d="M40,0h268" style="stroke: rgb(0, 0, 0); stroke-opacity: 1; stroke-width: 1px;"/></g></g><g class="zerolinelayer"><path class="x2zl zl crisp" transform="translate(40,0)" d="M0,209.74999999999997v140.25" style="stroke: rgb(0, 0, 0); stroke-opacity: 1; stroke-width: 1px;"/><path class="y2zl zl crisp" transform="translate(0,340.09)" d="M40,0h268" style="stroke: rgb(0, 0, 0); stroke-opacity: 1; stroke-width: 1px;"/></g><g class="layer-between"><g class="shapelayer"/><g class="imagelayer"/></g><path class="xlines-below"/><path class="ylines-below"/><g class="overlines-below"/><g class="xaxislayer-below"/><g class="yaxislayer-below"/><g class="overaxes-below"/><g class="overplot"><g class="x2y2" transform="translate(40,209.74999999999997)" clip-path="url(#clipfbb8bdx2y2plot)"><g class="scatterlayer mlayer"><g class="trace scatter tracebb2f7a" style="stroke-miterlimit: 2; opacity: 1;"><g class="fills"/><g class="errorbars"/><g class="lines"><path class="js-line" d="M0.01,132.44L4.2,133.18L5.59,132.68L9.78,132.71L11.18,132.06L12.57,131.77L13.97,130.57L16.76,127.08L18.16,123.24L20.95,114.83L22.34,111.91L36.3,81.37L37.7,79.59L41.88,69.86L43.28,66.93L47.47,61.53L48.86,57.89L51.65,53.45L53.05,49.37L54.45,49.1L55.84,47.47L57.24,46.65L58.63,43.47L61.42,43.27L62.82,41.56L64.22,37.83L65.61,38.17L67.01,36.2L68.4,37.69L69.8,33.61L71.19,36.4L72.59,32.38L73.99,32.32L75.38,30.89L76.78,32.74L79.57,29.99L80.96,29.62L82.36,27.43L83.76,27.94L85.15,27.92L86.55,25.87L87.94,27.54L89.34,25.44L92.13,24.42L93.53,22.79L94.92,23.14L96.32,16.92L100.51,17.32L101.9,14.95L104.69,16.07L106.09,15.78L107.48,17.12L108.88,14.88L110.28,15.51L111.67,14.8L113.07,14.06L114.46,15.04L115.86,15.71L117.26,13.75L120.05,11.72L121.44,13.86L122.84,11.56L124.23,11.8L125.63,12.36L127.03,11.34L128.42,14.02L129.82,12.48L131.21,11.13L132.61,14.46L134,14.51L135.4,12.92L136.8,14.13L138.19,14.06L139.59,16.31L140.98,16.25L142.38,15.71L143.77,16.96L145.17,15.93L146.57,17.38L147.96,15.22L149.36,19.64L150.75,18.55L152.15,18.57L153.55,19.77L154.94,17.76L156.34,17.68L157.73,19.06L160.52,20.93L161.92,16.72L163.32,19.68L164.71,20.76L166.11,20.13L167.5,21.51L170.3,17.34L171.69,18.44L173.09,21.45L174.48,20L175.88,19.17L177.27,20.85L178.67,21.34L180.07,20.29L181.46,21.89L182.86,19.19L184.25,20.47L185.65,20.49L188.44,19.79L189.84,20.93L194.02,20.44L195.42,18.52L198.21,20.56L199.61,19.62L201,20.71L202.4,18.41L203.79,19.68L205.19,19.01L206.59,19.31L207.98,18.23L214.96,20.29L216.36,20.29L219.15,19.06L220.54,19.88L221.94,20.18L223.33,19.31L226.13,19.6L227.52,19.55L230.31,17.27L231.71,18.99L233.11,17.81L234.5,18.17L237.29,18.19L238.69,19.75L240.08,18.35L241.48,18.54L242.88,19.44L244.27,19.01L252.65,19.06L254.04,17.72L256.83,17.76L258.23,18.57L261.02,18.68L262.42,18.59L265.21,16.98L266.6,17.7L268,17.54" style="vector-effect: none; fill: none; stroke: rgb(255, 28, 28); stroke-opacity: 1; stroke-width: 2px; opacity: 1;"/></g><g class="points"/><g class="text"/></g><g class="trace scatter traced2951c" style="stroke-miterlimit: 2; opacity: 1;"><g class="fills"/><g class="errorbars"/><g class="lines"><path class="js-line" d="M0.01,132.13L4.2,132.8L5.59,132.95L6.99,133.22L8.39,132.46L9.78,131.57L11.18,131.68L12.57,131.23L13.97,129.27L16.76,124.76L18.16,119.98L20.95,112.35L22.34,111.01L23.74,106.22L25.14,104.54L27.93,96.28L29.32,93.67L34.91,82.51L36.3,77.82L37.7,75.42L39.09,71.13L40.49,70.44L41.88,66.04L47.47,59.19L48.86,55.6L53.05,47.61L54.45,48.5L55.84,49.46L57.24,46.49L58.63,47.09L60.03,44.99L61.43,44.37L62.82,40.71L64.22,39.42L65.61,37.07L68.4,35.77L69.8,38.01L72.59,35.38L73.99,35.89L76.78,31.4L78.17,32.85L80.97,26.91L82.36,29.57L83.76,30.49L85.15,29.37L86.55,27.92L87.94,24.04L89.34,24.17L90.74,25.49L92.13,25.6L93.53,23.35L94.92,19.17L96.32,20.13L97.72,19.44L99.11,19.93L101.9,19.1L103.3,16.45L104.69,16.72L106.09,14.6L107.49,16.72L108.88,15.75L110.28,17.12L111.67,15.69L114.46,16.4L115.86,16.34L117.26,18.37L118.65,18.15L120.05,18.7L121.44,14.82L124.24,18.14L125.63,15.67L127.03,14.15L128.42,17.25L129.82,15.26L131.21,15.02L132.61,12.54L134.01,15.89L136.8,21.18L138.19,19.37L139.59,19.46L140.98,21.47L142.38,20.6L143.78,17.41L146.57,23.55L147.96,23.32L149.36,23.57L150.76,21.78L153.55,25.26L154.94,21.8L156.34,21.54L157.73,22.05L159.13,19.19L160.53,24.01L161.92,25.09L163.32,23.72L164.71,21L166.11,21.76L167.5,23.32L168.9,22.1L170.3,23.99L171.69,22.21L173.09,21.96L174.48,23.75L175.88,24.95L177.28,22.2L178.67,24.44L180.07,24.66L181.46,26.53L182.86,26.09L184.25,22.56L185.65,23.63L187.05,26L188.44,24.95L192.63,26.36L194.02,24.04L196.82,25.6L198.21,25.75L199.61,23.72L201,24.13L207.98,27.34L209.38,26.47L212.17,26.16L213.57,25.27L214.96,24.12L216.36,25.27L219.15,25.31L220.54,24.33L221.94,25.22L223.34,24.55L226.13,25.51L227.52,23.81L228.92,23.81L230.32,24.77L231.71,24.46L233.11,25.69L234.5,25.84L235.9,25.15L238.69,25.42L240.09,24.55L241.48,24.04L242.88,24.57L244.27,23.84L245.67,24.04L247.06,22.97L248.46,24.06L251.25,23.43L252.65,23.46L254.04,22.97L255.44,23.3L256.84,23.12L258.23,21.43L259.63,23.14L261.02,23.34L263.81,22.77L265.21,23.45" style="vector-effect: none; fill: none; stroke: rgb(255, 28, 28); stroke-opacity: 1; stroke-width: 2px; opacity: 1;"/></g><g class="points"/><g class="text"/></g><g class="trace scatter trace48e0af" style="stroke-miterlimit: 2; opacity: 1;"><g class="fills"/><g class="errorbars"/><g class="lines"><path class="js-line" d="M0.01,131.46L1.41,132.33L2.8,131.86L4.2,132.33L5.59,130.83L6.99,132.08L8.39,131.82L12.57,129.54L13.97,128.06L16.76,121.48L18.16,115.46L34.9,78.34L36.3,74.43L40.49,65.41L41.88,62.74L43.28,58.1L44.68,57.89L46.07,53.12L47.47,53.21L48.86,51.76L50.26,47.49L53.05,44.08L54.45,42.9L55.84,41.58L57.24,37.61L58.63,40L60.03,38.39L61.42,35.67L62.82,37L64.22,35.87L65.61,31.04L67.01,31L68.4,33.59L71.19,24.82L72.59,24.8L73.99,27.7L75.38,27.32L76.78,24.53L78.17,23.93L79.57,22.5L80.97,24.08L82.36,19.64L83.76,18.57L85.15,17.43L86.55,20.67L87.94,21.83L89.34,19.88L92.13,14.8L93.53,17.59L96.32,15.73L97.71,15.84L99.11,14.35L100.51,14.69L101.9,9.49L103.3,8.99L104.69,13.14L106.09,13.48L107.48,9.97L108.88,11.81L110.28,13.08L111.67,12.85L114.46,10.73L115.86,7.01L117.26,11.69L118.65,10.18L120.05,12.34L121.44,13.06L122.84,12.21L124.23,12.79L125.63,14.84L127.03,14.82L131.21,16.07L132.61,16.9L134,13.63L135.4,18.26L136.8,14.3L138.19,17.56L139.59,18.01L140.98,17.41L142.38,15.94L143.78,17.03L145.17,16.43L146.57,17.77L147.96,17.21L149.36,18.81L150.75,19.73L152.15,18.23L153.55,20.58L154.94,21.33L156.34,19.02L157.73,20.94L159.13,19.88L160.52,21.87L161.92,22.48L163.32,18.63L164.71,21.38L166.11,18.44L167.5,18.64L168.9,21.91L170.3,18.55L171.69,20.76L174.48,19.3L175.88,22.45L177.27,19.02L178.67,19.64L180.07,18.23L181.46,20.08L182.86,18.93L184.25,19.8L185.65,19.19L187.04,19.93L188.44,18.44L189.84,18.7L192.63,21.2L194.02,19.53L196.82,18.88L198.21,17.99L199.61,19.93L201,19.3L202.4,20.53L203.79,19.33L206.59,18.84L207.98,19.88L209.38,20.89L210.77,20.31L212.17,20.73L213.56,19.24L214.96,19.24L216.36,20.11L217.75,20.31L219.15,18.66L220.54,19.75L221.94,19.24L223.34,20.08L224.73,19.89L228.92,19.06L230.31,19.39L233.11,19.21L234.5,19.98L237.29,18.64L238.69,18.61L240.08,19.48L241.48,18.72L247.06,17.97L248.46,18.08L251.25,18.05L252.65,17.94L258.23,17.59L259.63,17.18L263.81,15.98L265.21,17.16L266.6,16.32L268,16.6" style="vector-effect: none; fill: none; stroke: rgb(255, 28, 28); stroke-opacity: 1; stroke-width: 2px; opacity: 1;"/></g><g class="points"/><g class="text"/></g><g class="trace scatter trace645069" style="stroke-miterlimit: 2; opacity: 1;"><g class="fills"/><g class="errorbars"/><g class="lines"><path class="js-line" d="M0,129.25L7.52,127.59L8.06,127.4L13.43,124.71L13.96,124.34L18.26,120.42L18.8,119.8L23.09,113.36L23.63,112.36L27.93,102.56L28.46,101.11L33.84,84.08L34.37,82.18L46.73,40.42L47.26,39.02L52.1,28.77L52.63,27.87L56.93,22.14L57.47,21.58L62.3,17.82L62.84,17.51L68.21,15.31L68.75,15.16L76.8,13.76L77.34,13.7L92.38,13.05L92.91,13.05L139.1,12.94L139.64,12.94L268,12.94" style="vector-effect: none; fill: none; stroke: rgb(0, 0, 0); stroke-opacity: 1; stroke-dasharray: 9px, 9px; stroke-width: 2px; opacity: 1;"/></g><g class="points"/><g class="text"/></g></g></g></g><path class="xlines-above crisp" d="M0,0" style="fill: none;"/><path class="ylines-above crisp" d="M0,0" style="fill: none;"/><g class="overlines-above"/><g class="xaxislayer-above"><g class="x2tick"><text text-anchor="middle" x="0" y="363" transform="translate(40,0)" style="font-family: 'Open Sans', verdana, arial, sans-serif; font-size: 12px; fill: rgb(0, 0, 0); fill-opacity: 1; white-space: pre; opacity: 1;">0</text></g><g class="x2tick"><text text-anchor="middle" x="0" y="363" style="font-family: 'Open Sans', verdana, arial, sans-serif; font-size: 12px; fill: rgb(0, 0, 0); fill-opacity: 1; white-space: pre; opacity: 1;" transform="translate(95.83,0)">10</text></g><g class="x2tick"><text text-anchor="middle" x="0" y="363" style="font-family: 'Open Sans', verdana, arial, sans-serif; font-size: 12px; fill: rgb(0, 0, 0); fill-opacity: 1; white-space: pre; opacity: 1;" transform="translate(151.66,0)">20</text></g><g class="x2tick"><text text-anchor="middle" x="0" y="363" style="font-family: 'Open Sans', verdana, arial, sans-serif; font-size: 12px; fill: rgb(0, 0, 0); fill-opacity: 1; white-space: pre; opacity: 1;" transform="translate(207.49,0)">30</text></g><g class="x2tick"><text text-anchor="middle" x="0" y="363" style="font-family: 'Open Sans', verdana, arial, sans-serif; font-size: 12px; fill: rgb(0, 0, 0); fill-opacity: 1; white-space: pre; opacity: 1;" transform="translate(263.33000000000004,0)">40</text></g></g><g class="yaxislayer-above"><g class="y2tick"><text text-anchor="end" x="39" y="4.199999999999999" transform="translate(0,340.09)" style="font-family: 'Open Sans', verdana, arial, sans-serif; font-size: 12px; fill: rgb(0, 0, 0); fill-opacity: 1; white-space: pre; opacity: 1;">0</text></g><g class="y2tick"><text text-anchor="end" x="39" y="4.199999999999999" style="font-family: 'Open Sans', verdana, arial, sans-serif; font-size: 12px; fill: rgb(0, 0, 0); fill-opacity: 1; white-space: pre; opacity: 1;" transform="translate(0,285.73999999999995)">0.5</text></g><g class="y2tick"><text text-anchor="end" x="39" y="4.199999999999999" style="font-family: 'Open Sans', verdana, arial, sans-serif; font-size: 12px; fill: rgb(0, 0, 0); fill-opacity: 1; white-space: pre; opacity: 1;" transform="translate(0,231.37999999999997)">1</text></g></g><g class="overaxes-above"/></g></g><g class="polarlayer"/><g class="smithlayer"/><g class="ternarylayer"/><g class="geolayer"/><g class="funnelarealayer"/><g class="pielayer"/><g class="iciclelayer"/><g class="treemaplayer"/><g class="sunburstlayer"/><g class="glimages"/><defs id="topdefs-fbb8bd"><g class="clips"/><clipPath id="legendfbb8bd"><rect width="187" height="117" x="0" y="0"/></clipPath></defs><g class="layer-above"><g class="imagelayer"/><g class="shapelayer"/></g><g class="infolayer"><g class="legend" pointer-events="all" transform="translate(313,20)"><rect class="bg" shape-rendering="crispEdges" style="stroke: rgb(68, 68, 68); stroke-opacity: 1; fill: rgb(255, 255, 255); fill-opacity: 1; stroke-width: 0px;" width="187" height="117" x="0" y="0"/><g class="scrollbox" transform="" clip-path="url(#legendfbb8bd)"><g class="groups"><g class="traces" transform="translate(0,22.1)" style="opacity: 1;"><text class="legendtext" text-anchor="start" x="40" y="-3.1200000000000006" style="font-family: 'Open Sans', verdana, arial, sans-serif; font-size: 12px; fill: rgb(0, 0, 0); fill-opacity: 1; white-space: pre;"><tspan class="line" dy="0em" x="40" y="-3.1200000000000006">Escherichia coli  </tspan><tspan class="line" dy="1.3em" x="40" y="-3.1200000000000006">sfGFP:pGDPI CAT</tspan></text><g class="layers" style="opacity: 1;"><g class="legendfill"/><g class="legendlines"><path class="js-line" d="M5,0h30" style="fill: none; stroke: rgb(51, 204, 51); stroke-opacity: 1; stroke-width: 2px;"/></g><g class="legendsymbols"><g class="legendpoints"/></g></g><rect class="legendtoggle" x="0" y="-17.1" width="181.6875" height="34.2" style="fill: rgb(0, 0, 0); fill-opacity: 0;"/></g><g class="traces" transform="translate(0,48.7)" style="opacity: 1;"><text class="legendtext" text-anchor="start" x="40" y="4.680000000000001" style="font-family: 'Open Sans', verdana, arial, sans-serif; font-size: 12px; fill: rgb(0, 0, 0); fill-opacity: 1; white-space: pre;">Model</text><g class="layers" style="opacity: 1;"><g class="legendfill"/><g class="legendlines"><path class="js-line" d="M5,0h30" style="fill: none; stroke: rgb(0, 0, 0); stroke-opacity: 1; stroke-dasharray: 9px, 9px; stroke-width: 2px;"/></g><g class="legendsymbols"><g class="legendpoints"/></g></g><rect class="legendtoggle" x="0" y="-9.5" width="181.6875" height="19" style="fill: rgb(0, 0, 0); fill-opacity: 0;"/></g><g class="traces" transform="translate(0,75.30000000000001)" style="opacity: 1;"><text class="legendtext" text-anchor="start" x="40" y="-3.1200000000000006" style="font-family: 'Open Sans', verdana, arial, sans-serif; font-size: 12px; fill: rgb(0, 0, 0); fill-opacity: 1; white-space: pre;"><tspan class="line" dy="0em" x="40" y="-3.1200000000000006">Salmonella Typhimurium </tspan><tspan class="line" dy="1.3em" x="40" y="-3.1200000000000006">mcherry:pGDPI CTX-M-15</tspan></text><g class="layers" style="opacity: 1;"><g class="legendfill"/><g class="legendlines"><path class="js-line" d="M5,0h30" style="fill: none; stroke: rgb(255, 28, 28); stroke-opacity: 1; stroke-width: 2px;"/></g><g class="legendsymbols"><g class="legendpoints"/></g></g><rect class="legendtoggle" x="0" y="-17.1" width="181.6875" height="34.2" style="fill: rgb(0, 0, 0); fill-opacity: 0;"/></g><g class="traces" transform="translate(0,101.9)" style="opacity: 1;"><text class="legendtext" text-anchor="start" x="40" y="4.680000000000001" style="font-family: 'Open Sans', verdana, arial, sans-serif; font-size: 12px; fill: rgb(0, 0, 0); fill-opacity: 1; white-space: pre;">Model</text><g class="layers" style="opacity: 1;"><g class="legendfill"/><g class="legendlines"><path class="js-line" d="M5,0h30" style="fill: none; stroke: rgb(0, 0, 0); stroke-opacity: 1; stroke-dasharray: 9px, 9px; stroke-width: 2px;"/></g><g class="legendsymbols"><g class="legendpoints"/></g></g><rect class="legendtoggle" x="0" y="-9.5" width="181.6875" height="19" style="fill: rgb(0, 0, 0); fill-opacity: 0;"/></g></g></g><rect class="scrollbar" rx="20" ry="3" width="0" height="0" style="fill: rgb(128, 139, 164); fill-opacity: 1;" x="0" y="0"/></g><g class="g-gtitle"/><g class="g-xtitle"><text class="xtitle" x="174" y="169.15000000000003" text-anchor="middle" style="opacity: 1; font-family: 'Open Sans', verdana, arial, sans-serif; font-size: 12px; fill: rgb(0, 0, 0); fill-opacity: 1; white-space: pre;">Time [h]</text></g><g class="g-x2title" transform="translate(0,3.1000000000000227)"><text class="x2title" x="174" y="373.9" text-anchor="middle" style="opacity: 1; font-family: 'Open Sans', verdana, arial, sans-serif; font-size: 12px; fill: rgb(0, 0, 0); fill-opacity: 1; white-space: pre;">Time [h]</text></g><g class="g-ytitle"><text class="ytitle" transform="rotate(-90,18.6125,90.12500000000001)" x="18.6125" y="90.12500000000001" text-anchor="middle" style="opacity: 1; font-family: 'Open Sans', verdana, arial, sans-serif; font-size: 12px; fill: rgb(0, 0, 0); fill-opacity: 1; white-space: pre;">Abundance [OD]</text></g><g class="g-y2title"><text class="y2title" transform="rotate(-90,18.6125,279.875)" x="18.6125" y="279.875" text-anchor="middle" style="opacity: 1; font-family: 'Open Sans', verdana, arial, sans-serif; font-size: 12px; fill: rgb(0, 0, 0); fill-opacity: 1; white-space: pre;">Abundance [OD]</text></g></g></svg>