<svg class="main-svg" xmlns="http://www.w3.org/2000/svg" xmlns:xlink="http://www.w3.org/1999/xlink" width="384.6153846153846" height="307.6923076923077" style="" viewBox="0 0 384.6153846153846 307.6923076923077"><rect x="0" y="0" width="384.6153846153846" height="307.6923076923077" style="fill: rgb(255, 255, 255); fill-opacity: 1;"/><defs id="defs-85ca53"><g class="clips"><clipPath id="clip85ca53xyplot" class="plotclip"><rect width="236" height="238"/></clipPath><clipPath class="axesclip" id="clip85ca53x"><rect x="60" y="0" width="236" height="307.6923076923077"/></clipPath><clipPath class="axesclip" id="clip85ca53y"><rect x="0" y="20" width="384.6153846153846" height="238"/></clipPath><clipPath class="axesclip" id="clip85ca53xy"><rect x="60" y="20" width="236" height="238"/></clipPath></g><g class="gradients"/><g class="patterns"/></defs><g class="bglayer"/><g class="layer-below"><g class="imagelayer"/><g class="shapelayer"/></g><g class="cartesianlayer"><g class="subplot xy"><g class="layer-subplot"><g class="shapelayer"/><g class="imagelayer"/></g><g class="minor-gridlayer"><g class="x"/><g class="y"/></g><g class="gridlayer"><g class="x"><path class="xgrid crisp" transform="translate(62.14,0)" d="M0,20v238" style="stroke: rgb(0, 0, 0); stroke-opacity: 1; stroke-width: 1px;"/><path class="xgrid crisp" transform="translate(128.11,0)" d="M0,20v238" style="stroke: rgb(0, 0, 0); stroke-opacity: 1; stroke-width: 1px;"/><path class="xgrid crisp" transform="translate(194.07,0)" d="M0,20v238" style="stroke: rgb(0, 0, 0); stroke-opacity: 1; stroke-width: 1px;"/><path class="xgrid crisp" transform="translate(260.03999999999996,0)" d="M0,20v238" style="stroke: rgb(0, 0, 0); stroke-opacity: 1; stroke-width: 1px;"/></g><g class="y"><path class="ygrid crisp" transform="translate(0,116.62)" d="M60,0h236" style="stroke: rgb(0, 0, 0); stroke-opacity: 1; stroke-width: 1px;"/><path class="ygrid crisp" transform="translate(0,35.03)" d="M60,0h236" style="stroke: rgb(0, 0, 0); stroke-opacity: 1; stroke-width: 1px;"/></g></g><g class="zerolinelayer"><path class="yzl zl crisp" transform="translate(0,198.22)" d="M60,0h236" style="stroke: rgb(0, 0, 0); stroke-opacity: 1; stroke-width: 1px;"/></g><g class="layer-between"><g class="shapelayer"/><g class="imagelayer"/></g><path class="xlines-below"/><path class="ylines-below"/><g class="overlines-below"/><g class="xaxislayer-below"/><g class="yaxislayer-below"/><g class="overaxes-below"/><g class="overplot"><g class="xy" transform="translate(60,20)" clip-path="url(#clip85ca53xyplot)"><g class="scatterlayer mlayer"><g class="trace scatter trace9aa560" style="stroke-miterlimit: 2; opacity: 1;"><g class="fills"/><g class="errorbars"/><g class="lines"/><g class="points"><path class="point" transform="translate(14.93,165.31)" d="M2.5,0A2.5,2.5 0 1,1 0,-2.5A2.5,2.5 0 0,1 2.5,0Z" style="opacity: 1; stroke-width: 0px; fill: rgb(51, 204, 51); fill-opacity: 1;"/><path class="point" transform="translate(34.78,171.77)" d="M2.5,0A2.5,2.5 0 1,1 0,-2.5A2.5,2.5 0 0,1 2.5,0Z" style="opacity: 1; stroke-width: 0px; fill: rgb(51, 204, 51); fill-opacity: 1;"/><path class="point" transform="translate(45.78,175.74)" d="M2.5,0A2.5,2.5 0 1,1 0,-2.5A2.5,2.5 0 0,1 2.5,0Z" style="opacity: 1; stroke-width: 0px; fill: rgb(51, 204, 51); fill-opacity: 1;"/><path class="point" transform="translate(54.64,193.62)" d="M2.5,0A2.5,2.5 0 1,1 0,-2.5A2.5,2.5 0 0,1 2.5,0Z" style="opacity: 1; stroke-width: 0px; fill: rgb(51, 204, 51); fill-opacity: 1;"/><path class="point" transform="translate(80.89,140.47)" d="M2.5,0A2.5,2.5 0 1,1 0,-2.5A2.5,2.5 0 0,1 2.5,0Z" style="opacity: 1; stroke-width: 0px; fill: rgb(51, 204, 51); fill-opacity: 1;"/><path class="point" transform="translate(100.75,117.61)" d="M2.5,0A2.5,2.5 0 1,1 0,-2.5A2.5,2.5 0 0,1 2.5,0Z" style="opacity: 1; stroke-width: 0px; fill: rgb(51, 204, 51); fill-opacity: 1;"/><path class="point" transform="translate(111.75,46.57)" d="M2.5,0A2.5,2.5 0 1,1 0,-2.5A2.5,2.5 0 0,1 2.5,0Z" style="opacity: 1; stroke-width: 0px; fill: rgb(51, 204, 51); fill-opacity: 1;"/><path class="point" transform="translate(120.61,70.17)" d="M2.5,0A2.5,2.5 0 1,1 0,-2.5A2.5,2.5 0 0,1 2.5,0Z" style="opacity: 1; stroke-width: 0px; fill: rgb(51, 204, 51); fill-opacity: 1;"/><path class="point" transform="translate(140.46,15.77)" d="M2.5,0A2.5,2.5 0 1,1 0,-2.5A2.5,2.5 0 0,1 2.5,0Z" style="opacity: 1; stroke-width: 0px; fill: rgb(51, 204, 51); fill-opacity: 1;"/><path class="point" transform="translate(160.32,15.77)" d="M2.5,0A2.5,2.5 0 1,1 0,-2.5A2.5,2.5 0 0,1 2.5,0Z" style="opacity: 1; stroke-width: 0px; fill: rgb(51, 204, 51); fill-opacity: 1;"/></g><g class="text"/></g><g class="trace scatter trace9117ef" style="stroke-miterlimit: 2; opacity: 1;"><g class="fills"/><g class="errorbars"/><g class="lines"/><g class="points"><path class="point" transform="translate(14.93,184.23)" d="M2.5,0A2.5,2.5 0 1,1 0,-2.5A2.5,2.5 0 0,1 2.5,0Z" style="opacity: 1; stroke-width: 0px; fill: rgb(51, 204, 51); fill-opacity: 1;"/><path class="point" transform="translate(34.78,175.55)" d="M2.5,0A2.5,2.5 0 1,1 0,-2.5A2.5,2.5 0 0,1 2.5,0Z" style="opacity: 1; stroke-width: 0px; fill: rgb(51, 204, 51); fill-opacity: 1;"/><path class="point" transform="translate(45.78,167.31)" d="M2.5,0A2.5,2.5 0 1,1 0,-2.5A2.5,2.5 0 0,1 2.5,0Z" style="opacity: 1; stroke-width: 0px; fill: rgb(51, 204, 51); fill-opacity: 1;"/><path class="point" transform="translate(54.64,222.97)" d="M2.5,0A2.5,2.5 0 1,1 0,-2.5A2.5,2.5 0 0,1 2.5,0Z" style="opacity: 1; stroke-width: 0px; fill: rgb(51, 204, 51); fill-opacity: 1;"/><path class="point" transform="translate(80.89,115.66)" d="M2.5,0A2.5,2.5 0 1,1 0,-2.5A2.5,2.5 0 0,1 2.5,0Z" style="opacity: 1; stroke-width: 0px; fill: rgb(51, 204, 51); fill-opacity: 1;"/><path class="point" transform="translate(100.75,112.54)" d="M2.5,0A2.5,2.5 0 1,1 0,-2.5A2.5,2.5 0 0,1 2.5,0Z" style="opacity: 1; stroke-width: 0px; fill: rgb(51, 204, 51); fill-opacity: 1;"/><path class="point" transform="translate(111.75,45.3)" d="M2.5,0A2.5,2.5 0 1,1 0,-2.5A2.5,2.5 0 0,1 2.5,0Z" style="opacity: 1; stroke-width: 0px; fill: rgb(51, 204, 51); fill-opacity: 1;"/><path class="point" transform="translate(120.61,16.36)" d="M2.5,0A2.5,2.5 0 1,1 0,-2.5A2.5,2.5 0 0,1 2.5,0Z" style="opacity: 1; stroke-width: 0px; fill: rgb(51, 204, 51); fill-opacity: 1;"/><path class="point" transform="translate(140.46,16.36)" d="M2.5,0A2.5,2.5 0 1,1 0,-2.5A2.5,2.5 0 0,1 2.5,0Z" style="opacity: 1; stroke-width: 0px; fill: rgb(51, 204, 51); fill-opacity: 1;"/><path class="point" transform="translate(160.32,16.81)" d="M2.5,0A2.5,2.5 0 1,1 0,-2.5A2.5,2.5 0 0,1 2.5,0Z" style="opacity: 1; stroke-width: 0px; fill: rgb(51, 204, 51); fill-opacity: 1;"/></g><g class="text"/></g><g class="trace scatter tracefdc5d3" style="stroke-miterlimit: 2; opacity: 1;"><g class="fills"/><g class="errorbars"/><g class="lines"/><g class="points"><path class="point" transform="translate(14.93,172.98)" d="M2.5,0A2.5,2.5 0 1,1 0,-2.5A2.5,2.5 0 0,1 2.5,0Z" style="opacity: 1; stroke-width: 0px; fill: rgb(51, 204, 51); fill-opacity: 1;"/><path class="point" transform="translate(34.78,193.95)" d="M2.5,0A2.5,2.5 0 1,1 0,-2.5A2.5,2.5 0 0,1 2.5,0Z" style="opacity: 1; stroke-width: 0px; fill: rgb(51, 204, 51); fill-opacity: 1;"/><path class="point" transform="translate(45.78,217.06)" d="M2.5,0A2.5,2.5 0 1,1 0,-2.5A2.5,2.5 0 0,1 2.5,0Z" style="opacity: 1; stroke-width: 0px; fill: rgb(51, 204, 51); fill-opacity: 1;"/><path class="point" transform="translate(54.64,213.48)" d="M2.5,0A2.5,2.5 0 1,1 0,-2.5A2.5,2.5 0 0,1 2.5,0Z" style="opacity: 1; stroke-width: 0px; fill: rgb(51, 204, 51); fill-opacity: 1;"/><path class="point" transform="translate(80.89,142.25)" d="M2.5,0A2.5,2.5 0 1,1 0,-2.5A2.5,2.5 0 0,1 2.5,0Z" style="opacity: 1; stroke-width: 0px; fill: rgb(51, 204, 51); fill-opacity: 1;"/><path class="point" transform="translate(100.75,96.27)" d="M2.5,0A2.5,2.5 0 1,1 0,-2.5A2.5,2.5 0 0,1 2.5,0Z" style="opacity: 1; stroke-width: 0px; fill: rgb(51, 204, 51); fill-opacity: 1;"/><path class="point" transform="translate(111.75,76.02)" d="M2.5,0A2.5,2.5 0 1,1 0,-2.5A2.5,2.5 0 0,1 2.5,0Z" style="opacity: 1; stroke-width: 0px; fill: rgb(51, 204, 51); fill-opacity: 1;"/><path class="point" transform="translate(120.61,42.42)" d="M2.5,0A2.5,2.5 0 1,1 0,-2.5A2.5,2.5 0 0,1 2.5,0Z" style="opacity: 1; stroke-width: 0px; fill: rgb(51, 204, 51); fill-opacity: 1;"/><path class="point" transform="translate(140.46,15.03)" d="M2.5,0A2.5,2.5 0 1,1 0,-2.5A2.5,2.5 0 0,1 2.5,0Z" style="opacity: 1; stroke-width: 0px; fill: rgb(51, 204, 51); fill-opacity: 1;"/><path class="point" transform="translate(160.32,17.65)" d="M2.5,0A2.5,2.5 0 1,1 0,-2.5A2.5,2.5 0 0,1 2.5,0Z" style="opacity: 1; stroke-width: 0px; fill: rgb(51, 204, 51); fill-opacity: 1;"/></g><g class="text"/></g><g class="trace scatter trace56ead7" style="stroke-miterlimit: 2; opacity: 1;"><g class="fills"/><g class="errorbars"/><g class="lines"><path class="js-line" d="M14.93,187.7L35.49,186.39L36.95,186.2L47.24,184.16L48.7,183.73L56.05,180.79L57.52,180.01L63.39,176L64.86,174.74L70.73,168.42L72.2,166.48L78.08,157L79.55,154.16L85.42,140.92L86.89,137.13L94.23,115.87L95.7,111.27L111.86,61.99L113.33,58.21L120.67,42.19L122.14,39.56L128.01,30.81L129.48,29.03L135.36,23.27L136.82,22.13L144.17,17.79L145.64,17.15L154.45,14.41L155.92,14.1L160.32,13.33" style="vector-effect: none; fill: none; stroke: rgb(51, 204, 51); stroke-opacity: 1; stroke-dasharray: 9px, 9px; stroke-width: 2px; opacity: 1;"/></g><g class="points"/><g class="text"/></g></g></g></g><path class="xlines-above crisp" d="M0,0" style="fill: none;"/><path class="ylines-above crisp" d="M0,0" style="fill: none;"/><g class="overlines-above"/><g class="xaxislayer-above"><g class="xtick"><text text-anchor="middle" x="0" y="273" transform="translate(62.14,0)" style="font-family: 'Open Sans', verdana, arial, sans-serif; font-size: 14px; fill: rgb(0, 0, 0); fill-opacity: 1; white-space: pre; opacity: 1;">0.001</text></g><g class="xtick"><text text-anchor="middle" x="0" y="273" style="font-family: 'Open Sans', verdana, arial, sans-serif; font-size: 14px; fill: rgb(0, 0, 0); fill-opacity: 1; white-space: pre; opacity: 1;" transform="translate(128.11,0)">0.01</text></g><g class="xtick"><text text-anchor="middle" x="0" y="273" style="font-family: 'Open Sans', verdana, arial, sans-serif; font-size: 14px; fill: rgb(0, 0, 0); fill-opacity: 1; white-space: pre; opacity: 1;" transform="translate(194.07,0)">0.1</text></g><g class="xtick"><text text-anchor="middle" x="0" y="273" style="font-family: 'Open Sans', verdana, arial, sans-serif; font-size: 14px; fill: rgb(0, 0, 0); fill-opacity: 1; white-space: pre; opacity: 1;" transform="translate(260.03999999999996,0)">1</text></g></g><g class="yaxislayer-above"><g class="ytick"><text text-anchor="end" x="59" y="4.8999999999999995" transform="translate(0,198.22)" style="font-family: 'Open Sans', verdana, arial, sans-serif; font-size: 14px; fill: rgb(0, 0, 0); fill-opacity: 1; white-space: pre; opacity: 1;">0</text></g><g class="ytick"><text text-anchor="end" x="59" y="4.8999999999999995" style="font-family: 'Open Sans', verdana, arial, sans-serif; font-size: 14px; fill: rgb(0, 0, 0); fill-opacity: 1; white-space: pre; opacity: 1;" transform="translate(0,116.62)">0.5</text></g><g class="ytick"><text text-anchor="end" x="59" y="4.8999999999999995" style="font-family: 'Open Sans', verdana, arial, sans-serif; font-size: 14px; fill: rgb(0, 0, 0); fill-opacity: 1; white-space: pre; opacity: 1;" transform="translate(0,35.03)">1</text></g></g><g class="overaxes-above"/></g></g><g class="polarlayer"/><g class="smithlayer"/><g class="ternarylayer"/><g class="geolayer"/><g class="funnelarealayer"/><g class="pielayer"/><g class="iciclelayer"/><g class="treemaplayer"/><g class="sunburstlayer"/><g class="glimages"/><defs id="topdefs-85ca53"><g class="clips"/><clipPath id="legend85ca53"><rect width="84" height="53" x="0" y="0"/></clipPath></defs><g class="layer-above"><g class="imagelayer"/><g class="shapelayer"><g class="shape-group" data-index="0" clip-path="url(#clip85ca53x)"><path data-index="0" fill-rule="evenodd" d="M159.32999999999998,258L159.32999999999998,20" style="opacity: 1; stroke: rgb(0, 0, 0); stroke-opacity: 1; fill: rgb(0, 0, 0); fill-opacity: 0; stroke-dasharray: 9px, 9px; stroke-width: 2px;"/></g></g></g><g class="infolayer"><g class="legend" pointer-events="all" transform="translate(300.6153846153846,20)"><rect class="bg" shape-rendering="crispEdges" width="84" height="53" x="0" y="0" style="stroke: rgb(68, 68, 68); stroke-opacity: 1; fill: rgb(255, 255, 255); fill-opacity: 1; stroke-width: 0px;"/><g class="scrollbox" transform="" clip-path="url(#legend85ca53)"><g class="groups"><g class="traces" transform="translate(0,15.6)" style="opacity: 1;"><text class="legendtext" text-anchor="start" x="40" y="5.46" style="font-family: 'Open Sans', verdana, arial, sans-serif; font-size: 14px; fill: rgb(0, 0, 0); fill-opacity: 1; white-space: pre;">Data</text><g class="layers" style="opacity: 1;"><g class="legendfill"/><g class="legendlines"/><g class="legendsymbols"><g class="legendpoints"><path class="scatterpts" transform="translate(20,0)" d="M2.5,0A2.5,2.5 0 1,1 0,-2.5A2.5,2.5 0 0,1 2.5,0Z" style="opacity: 1; stroke-width: 0px; fill: rgb(51, 204, 51); fill-opacity: 1;"/></g></g></g><rect class="legendtoggle" x="0" y="-10.6" width="78.140625" height="21.2" style="fill: rgb(0, 0, 0); fill-opacity: 0;"/></g><g class="traces" transform="translate(0,36.8)" style="opacity: 1;"><text class="legendtext" text-anchor="start" x="40" y="5.46" style="font-family: 'Open Sans', verdana, arial, sans-serif; font-size: 14px; fill: rgb(0, 0, 0); fill-opacity: 1; white-space: pre;">Model</text><g class="layers" style="opacity: 1;"><g class="legendfill"/><g class="legendlines"><path class="js-line" d="M5,0h30" style="fill: none; stroke: rgb(51, 204, 51); stroke-opacity: 1; stroke-dasharray: 9px, 9px; stroke-width: 2px;"/></g><g class="legendsymbols"><g class="legendpoints"/></g></g><rect class="legendtoggle" x="0" y="-10.6" width="78.140625" height="21.2" style="fill: rgb(0, 0, 0); fill-opacity: 0;"/></g></g></g><rect class="scrollbar" rx="20" ry="3" width="0" height="0" x="0" y="0" style="fill: rgb(128, 139, 164); fill-opacity: 1;"/></g><g class="g-gtitle"><text class="gtitle" x="19.23076923076923" y="10" text-anchor="start" dy="0em" style="opacity: 1; font-family: 'Open Sans', verdana, arial, sans-serif; font-size: 14px; fill: rgb(0, 0, 0); fill-opacity: 1; white-space: pre;">EcN sfGFP CAT Response curve</text></g><g class="g-xtitle" transform="translate(0,3.6999999999999886)"><text class="xtitle" x="178" y="285.3" text-anchor="middle" style="opacity: 1; font-family: 'Open Sans', verdana, arial, sans-serif; font-size: 14px; fill: rgb(0, 0, 0); fill-opacity: 1; white-space: pre;">Cefotaxime [µL/mL]</text></g><g class="g-ytitle"><text class="ytitle" transform="rotate(-90,35.13125,139)" x="35.13125" y="139" text-anchor="middle" style="opacity: 1; font-family: 'Open Sans', verdana, arial, sans-serif; font-size: 14px; fill: rgb(0, 0, 0); fill-opacity: 1; white-space: pre;">Response in %</text></g><g class="annotation" data-index="0" style="opacity: 1;"><g class="annotation-text-g" transform="rotate(0,279,30)"><g class="cursor-pointer" transform="translate(262,20)"><rect class="bg" x="0.5" y="0.5" width="33" height="19" style="stroke-width: 1px; stroke: rgb(0, 0, 0); stroke-opacity: 0; fill: rgb(0, 0, 0); fill-opacity: 0;"/><text class="annotation-text" text-anchor="middle" x="16.796875" y="15" style="font-family: 'Open Sans', verdana, arial, sans-serif; font-size: 14px; fill: rgb(0, 0, 0); fill-opacity: 1; white-space: pre;">IC50</text></g></g></g></g></svg>