<svg class="main-svg" xmlns="http://www.w3.org/2000/svg" xmlns:xlink="http://www.w3.org/1999/xlink" width="384.6153846153846" height="307.6923076923077" style="" viewBox="0 0 384.6153846153846 307.6923076923077"><rect x="0" y="0" width="384.6153846153846" height="307.6923076923077" style="fill: rgb(255, 255, 255); fill-opacity: 1;"/><defs id="defs-fab6f3"><g class="clips"><clipPath id="clipfab6f3xyplot" class="plotclip"><rect width="236" height="238"/></clipPath><clipPath class="axesclip" id="clipfab6f3x"><rect x="60" y="0" width="236" height="307.6923076923077"/></clipPath><clipPath class="axesclip" id="clipfab6f3y"><rect x="0" y="20" width="384.6153846153846" height="238"/></clipPath><clipPath class="axesclip" id="clipfab6f3xy"><rect x="60" y="20" width="236" height="238"/></clipPath></g><g class="gradients"/><g class="patterns"/></defs><g class="bglayer"/><g class="layer-below"><g class="imagelayer"/><g class="shapelayer"/></g><g class="cartesianlayer"><g class="subplot xy"><g class="layer-subplot"><g class="shapelayer"/><g class="imagelayer"/></g><g class="minor-gridlayer"><g class="x"/><g class="y"/></g><g class="gridlayer"><g class="x"><path class="xgrid crisp" transform="translate(84.95,0)" d="M0,20v238" style="stroke: rgb(0, 0, 0); stroke-opacity: 1; stroke-width: 1px;"/><path class="xgrid crisp" transform="translate(122.17,0)" d="M0,20v238" style="stroke: rgb(0, 0, 0); stroke-opacity: 1; stroke-width: 1px;"/><path class="xgrid crisp" transform="translate(150.32999999999998,0)" d="M0,20v238" style="stroke: rgb(0, 0, 0); stroke-opacity: 1; stroke-width: 1px;"/><path class="xgrid crisp" transform="translate(178.48000000000002,0)" d="M0,20v238" style="stroke: rgb(0, 0, 0); stroke-opacity: 1; stroke-width: 1px;"/><path class="xgrid crisp" transform="translate(215.7,0)" d="M0,20v238" style="stroke: rgb(0, 0, 0); stroke-opacity: 1; stroke-width: 1px;"/><path class="xgrid crisp" transform="translate(243.86,0)" d="M0,20v238" style="stroke: rgb(0, 0, 0); stroke-opacity: 1; stroke-width: 1px;"/><path class="xgrid crisp" transform="translate(272.01,0)" d="M0,20v238" style="stroke: rgb(0, 0, 0); stroke-opacity: 1; stroke-width: 1px;"/></g><g class="y"><path class="ygrid crisp" transform="translate(0,116.62)" d="M60,0h236" style="stroke: rgb(0, 0, 0); stroke-opacity: 1; stroke-width: 1px;"/><path class="ygrid crisp" transform="translate(0,35.03)" d="M60,0h236" style="stroke: rgb(0, 0, 0); stroke-opacity: 1; stroke-width: 1px;"/></g></g><g class="zerolinelayer"><path class="yzl zl crisp" transform="translate(0,198.22)" d="M60,0h236" style="stroke: rgb(0, 0, 0); stroke-opacity: 1; stroke-width: 1px;"/></g><g class="layer-between"><g class="shapelayer"/><g class="imagelayer"/></g><path class="xlines-below"/><path class="ylines-below"/><g class="overlines-below"/><g class="xaxislayer-below"/><g class="yaxislayer-below"/><g class="overaxes-below"/><g class="overplot"><g class="xy" transform="translate(60,20)" clip-path="url(#clipfab6f3xyplot)"><g class="scatterlayer mlayer"><g class="trace scatter traceb9f69b" style="stroke-miterlimit: 2; opacity: 1;"><g class="fills"/><g class="errorbars"/><g class="lines"/><g class="points"><path class="point" transform="translate(14.93,165.31)" d="M2.5,0A2.5,2.5 0 1,1 0,-2.5A2.5,2.5 0 0,1 2.5,0Z" style="opacity: 1; stroke-width: 0px; fill: rgb(51, 204, 51); fill-opacity: 1;"/><path class="point" transform="translate(43.08,171.77)" d="M2.5,0A2.5,2.5 0 1,1 0,-2.5A2.5,2.5 0 0,1 2.5,0Z" style="opacity: 1; stroke-width: 0px; fill: rgb(51, 204, 51); fill-opacity: 1;"/><path class="point" transform="translate(58.67,175.74)" d="M2.5,0A2.5,2.5 0 1,1 0,-2.5A2.5,2.5 0 0,1 2.5,0Z" style="opacity: 1; stroke-width: 0px; fill: rgb(51, 204, 51); fill-opacity: 1;"/><path class="point" transform="translate(71.24,193.62)" d="M2.5,0A2.5,2.5 0 1,1 0,-2.5A2.5,2.5 0 0,1 2.5,0Z" style="opacity: 1; stroke-width: 0px; fill: rgb(51, 204, 51); fill-opacity: 1;"/><path class="point" transform="translate(108.45,140.47)" d="M2.5,0A2.5,2.5 0 1,1 0,-2.5A2.5,2.5 0 0,1 2.5,0Z" style="opacity: 1; stroke-width: 0px; fill: rgb(51, 204, 51); fill-opacity: 1;"/><path class="point" transform="translate(136.61,117.61)" d="M2.5,0A2.5,2.5 0 1,1 0,-2.5A2.5,2.5 0 0,1 2.5,0Z" style="opacity: 1; stroke-width: 0px; fill: rgb(51, 204, 51); fill-opacity: 1;"/><path class="point" transform="translate(152.2,46.57)" d="M2.5,0A2.5,2.5 0 1,1 0,-2.5A2.5,2.5 0 0,1 2.5,0Z" style="opacity: 1; stroke-width: 0px; fill: rgb(51, 204, 51); fill-opacity: 1;"/><path class="point" transform="translate(164.76,70.17)" d="M2.5,0A2.5,2.5 0 1,1 0,-2.5A2.5,2.5 0 0,1 2.5,0Z" style="opacity: 1; stroke-width: 0px; fill: rgb(51, 204, 51); fill-opacity: 1;"/><path class="point" transform="translate(192.92,15.77)" d="M2.5,0A2.5,2.5 0 1,1 0,-2.5A2.5,2.5 0 0,1 2.5,0Z" style="opacity: 1; stroke-width: 0px; fill: rgb(51, 204, 51); fill-opacity: 1;"/><path class="point" transform="translate(221.08,15.77)" d="M2.5,0A2.5,2.5 0 1,1 0,-2.5A2.5,2.5 0 0,1 2.5,0Z" style="opacity: 1; stroke-width: 0px; fill: rgb(51, 204, 51); fill-opacity: 1;"/></g><g class="text"/></g><g class="trace scatter trace907e83" style="stroke-miterlimit: 2; opacity: 1;"><g class="fills"/><g class="errorbars"/><g class="lines"/><g class="points"><path class="point" transform="translate(14.93,184.23)" d="M2.5,0A2.5,2.5 0 1,1 0,-2.5A2.5,2.5 0 0,1 2.5,0Z" style="opacity: 1; stroke-width: 0px; fill: rgb(51, 204, 51); fill-opacity: 1;"/><path class="point" transform="translate(43.08,175.55)" d="M2.5,0A2.5,2.5 0 1,1 0,-2.5A2.5,2.5 0 0,1 2.5,0Z" style="opacity: 1; stroke-width: 0px; fill: rgb(51, 204, 51); fill-opacity: 1;"/><path class="point" transform="translate(58.67,167.31)" d="M2.5,0A2.5,2.5 0 1,1 0,-2.5A2.5,2.5 0 0,1 2.5,0Z" style="opacity: 1; stroke-width: 0px; fill: rgb(51, 204, 51); fill-opacity: 1;"/><path class="point" transform="translate(71.24,222.97)" d="M2.5,0A2.5,2.5 0 1,1 0,-2.5A2.5,2.5 0 0,1 2.5,0Z" style="opacity: 1; stroke-width: 0px; fill: rgb(51, 204, 51); fill-opacity: 1;"/><path class="point" transform="translate(108.45,115.66)" d="M2.5,0A2.5,2.5 0 1,1 0,-2.5A2.5,2.5 0 0,1 2.5,0Z" style="opacity: 1; stroke-width: 0px; fill: rgb(51, 204, 51); fill-opacity: 1;"/><path class="point" transform="translate(136.61,112.54)" d="M2.5,0A2.5,2.5 0 1,1 0,-2.5A2.5,2.5 0 0,1 2.5,0Z" style="opacity: 1; stroke-width: 0px; fill: rgb(51, 204, 51); fill-opacity: 1;"/><path class="point" transform="translate(152.2,45.3)" d="M2.5,0A2.5,2.5 0 1,1 0,-2.5A2.5,2.5 0 0,1 2.5,0Z" style="opacity: 1; stroke-width: 0px; fill: rgb(51, 204, 51); fill-opacity: 1;"/><path class="point" transform="translate(164.76,16.36)" d="M2.5,0A2.5,2.5 0 1,1 0,-2.5A2.5,2.5 0 0,1 2.5,0Z" style="opacity: 1; stroke-width: 0px; fill: rgb(51, 204, 51); fill-opacity: 1;"/><path class="point" transform="translate(192.92,16.36)" d="M2.5,0A2.5,2.5 0 1,1 0,-2.5A2.5,2.5 0 0,1 2.5,0Z" style="opacity: 1; stroke-width: 0px; fill: rgb(51, 204, 51); fill-opacity: 1;"/><path class="point" transform="translate(221.08,16.81)" d="M2.5,0A2.5,2.5 0 1,1 0,-2.5A2.5,2.5 0 0,1 2.5,0Z" style="opacity: 1; stroke-width: 0px; fill: rgb(51, 204, 51); fill-opacity: 1;"/></g><g class="text"/></g><g class="trace scatter trace715e9c" style="stroke-miterlimit: 2; opacity: 1;"><g class="fills"/><g class="errorbars"/><g class="lines"/><g class="points"><path class="point" transform="translate(14.93,172.98)" d="M2.5,0A2.5,2.5 0 1,1 0,-2.5A2.5,2.5 0 0,1 2.5,0Z" style="opacity: 1; stroke-width: 0px; fill: rgb(51, 204, 51); fill-opacity: 1;"/><path class="point" transform="translate(43.08,193.95)" d="M2.5,0A2.5,2.5 0 1,1 0,-2.5A2.5,2.5 0 0,1 2.5,0Z" style="opacity: 1; stroke-width: 0px; fill: rgb(51, 204, 51); fill-opacity: 1;"/><path class="point" transform="translate(58.67,217.06)" d="M2.5,0A2.5,2.5 0 1,1 0,-2.5A2.5,2.5 0 0,1 2.5,0Z" style="opacity: 1; stroke-width: 0px; fill: rgb(51, 204, 51); fill-opacity: 1;"/><path class="point" transform="translate(71.24,213.48)" d="M2.5,0A2.5,2.5 0 1,1 0,-2.5A2.5,2.5 0 0,1 2.5,0Z" style="opacity: 1; stroke-width: 0px; fill: rgb(51, 204, 51); fill-opacity: 1;"/><path class="point" transform="translate(108.45,142.25)" d="M2.5,0A2.5,2.5 0 1,1 0,-2.5A2.5,2.5 0 0,1 2.5,0Z" style="opacity: 1; stroke-width: 0px; fill: rgb(51, 204, 51); fill-opacity: 1;"/><path class="point" transform="translate(136.61,96.27)" d="M2.5,0A2.5,2.5 0 1,1 0,-2.5A2.5,2.5 0 0,1 2.5,0Z" style="opacity: 1; stroke-width: 0px; fill: rgb(51, 204, 51); fill-opacity: 1;"/><path class="point" transform="translate(152.2,76.02)" d="M2.5,0A2.5,2.5 0 1,1 0,-2.5A2.5,2.5 0 0,1 2.5,0Z" style="opacity: 1; stroke-width: 0px; fill: rgb(51, 204, 51); fill-opacity: 1;"/><path class="point" transform="translate(164.76,42.42)" d="M2.5,0A2.5,2.5 0 1,1 0,-2.5A2.5,2.5 0 0,1 2.5,0Z" style="opacity: 1; stroke-width: 0px; fill: rgb(51, 204, 51); fill-opacity: 1;"/><path class="point" transform="translate(192.92,15.03)" d="M2.5,0A2.5,2.5 0 1,1 0,-2.5A2.5,2.5 0 0,1 2.5,0Z" style="opacity: 1; stroke-width: 0px; fill: rgb(51, 204, 51); fill-opacity: 1;"/><path class="point" transform="translate(221.08,17.65)" d="M2.5,0A2.5,2.5 0 1,1 0,-2.5A2.5,2.5 0 0,1 2.5,0Z" style="opacity: 1; stroke-width: 0px; fill: rgb(51, 204, 51); fill-opacity: 1;"/></g><g class="text"/></g><g class="trace scatter trace9a04da" style="stroke-miterlimit: 2; opacity: 1;"><g class="fills"/><g class="errorbars"/><g class="lines"><path class="js-line" d="M14.93,187.7L44.08,186.39L46.16,186.2L60.74,184.16L62.82,183.73L73.23,180.79L75.31,180.01L83.64,176L85.72,174.74L94.05,168.42L96.14,166.48L104.46,157L106.55,154.16L114.88,140.92L116.96,137.13L127.37,115.87L129.45,111.27L150.28,65.94L152.36,61.99L160.69,48.02L162.77,45.01L171.1,34.84L173.18,32.74L181.51,25.89L183.59,24.52L191.92,20.14L194,19.28L204.42,16.05L206.5,15.58L221.08,13.33" style="vector-effect: none; fill: none; stroke: rgb(51, 204, 51); stroke-opacity: 1; stroke-dasharray: 9px, 9px; stroke-width: 2px; opacity: 1;"/></g><g class="points"/><g class="text"/></g></g></g></g><path class="xlines-above crisp" d="M0,0" style="fill: none;"/><path class="ylines-above crisp" d="M0,0" style="fill: none;"/><g class="overlines-above"/><g class="xaxislayer-above"><g class="xtick"><text text-anchor="middle" x="0" y="269.5" transform="translate(84.95,0)" style="font-family: 'Open Sans', verdana, arial, sans-serif; font-size: 10.5px; fill: rgb(0, 0, 0); fill-opacity: 1; white-space: pre; opacity: 1;">2</text></g><g class="xtick"><text text-anchor="middle" x="0" y="269.5" style="font-family: 'Open Sans', verdana, arial, sans-serif; font-size: 10.5px; fill: rgb(0, 0, 0); fill-opacity: 1; white-space: pre; opacity: 1;" transform="translate(122.17,0)">5</text></g><g class="xtick"><text text-anchor="middle" x="0" y="273" style="font-family: 'Open Sans', verdana, arial, sans-serif; font-size: 14px; fill: rgb(0, 0, 0); fill-opacity: 1; white-space: pre; opacity: 1;" transform="translate(150.32999999999998,0)">0.01</text></g><g class="xtick"><text text-anchor="middle" x="0" y="269.5" style="font-family: 'Open Sans', verdana, arial, sans-serif; font-size: 10.5px; fill: rgb(0, 0, 0); fill-opacity: 1; white-space: pre; opacity: 1;" transform="translate(178.48000000000002,0)">2</text></g><g class="xtick"><text text-anchor="middle" x="0" y="269.5" style="font-family: 'Open Sans', verdana, arial, sans-serif; font-size: 10.5px; fill: rgb(0, 0, 0); fill-opacity: 1; white-space: pre; opacity: 1;" transform="translate(215.7,0)">5</text></g><g class="xtick"><text text-anchor="middle" x="0" y="273" style="font-family: 'Open Sans', verdana, arial, sans-serif; font-size: 14px; fill: rgb(0, 0, 0); fill-opacity: 1; white-space: pre; opacity: 1;" transform="translate(243.86,0)">0.1</text></g><g class="xtick"><text text-anchor="middle" x="0" y="269.5" style="font-family: 'Open Sans', verdana, arial, sans-serif; font-size: 10.5px; fill: rgb(0, 0, 0); fill-opacity: 1; white-space: pre; opacity: 1;" transform="translate(272.01,0)">2</text></g></g><g class="yaxislayer-above"><g class="ytick"><text text-anchor="end" x="59" y="4.8999999999999995" transform="translate(0,198.22)" style="font-family: 'Open Sans', verdana, arial, sans-serif; font-size: 14px; fill: rgb(0, 0, 0); fill-opacity: 1; white-space: pre; opacity: 1;">0</text></g><g class="ytick"><text text-anchor="end" x="59" y="4.8999999999999995" style="font-family: 'Open Sans', verdana, arial, sans-serif; font-size: 14px; fill: rgb(0, 0, 0); fill-opacity: 1; white-space: pre; opacity: 1;" transform="translate(0,116.62)">0.5</text></g><g class="ytick"><text text-anchor="end" x="59" y="4.8999999999999995" style="font-family: 'Open Sans', verdana, arial, sans-serif; font-size: 14px; fill: rgb(0, 0, 0); fill-opacity: 1; white-space: pre; opacity: 1;" transform="translate(0,35.03)">1</text></g></g><g class="overaxes-above"/></g></g><g class="polarlayer"/><g class="smithlayer"/><g class="ternarylayer"/><g class="geolayer"/><g class="funnelarealayer"/><g class="pielayer"/><g class="iciclelayer"/><g class="treemaplayer"/><g class="sunburstlayer"/><g class="glimages"/><defs id="topdefs-fab6f3"><g class="clips"/><clipPath id="legendfab6f3"><rect width="84" height="53" x="0" y="0"/></clipPath></defs><g class="layer-above"><g class="imagelayer"/><g class="shapelayer"/></g><g class="infolayer"><g class="legend" pointer-events="all" transform="translate(300.6153846153846,20)"><rect class="bg" shape-rendering="crispEdges" width="84" height="53" x="0" y="0" style="stroke: rgb(68, 68, 68); stroke-opacity: 1; fill: rgb(255, 255, 255); fill-opacity: 1; stroke-width: 0px;"/><g class="scrollbox" transform="" clip-path="url(#legendfab6f3)"><g class="groups"><g class="traces" transform="translate(0,15.6)" style="opacity: 1;"><text class="legendtext" text-anchor="start" x="40" y="5.46" style="font-family: 'Open Sans', verdana, arial, sans-serif; font-size: 14px; fill: rgb(0, 0, 0); fill-opacity: 1; white-space: pre;">Data</text><g class="layers" style="opacity: 1;"><g class="legendfill"/><g class="legendlines"/><g class="legendsymbols"><g class="legendpoints"><path class="scatterpts" transform="translate(20,0)" d="M2.5,0A2.5,2.5 0 1,1 0,-2.5A2.5,2.5 0 0,1 2.5,0Z" style="opacity: 1; stroke-width: 0px; fill: rgb(51, 204, 51); fill-opacity: 1;"/></g></g></g><rect class="legendtoggle" x="0" y="-10.6" width="78.140625" height="21.2" style="fill: rgb(0, 0, 0); fill-opacity: 0;"/></g><g class="traces" transform="translate(0,36.8)" style="opacity: 1;"><text class="legendtext" text-anchor="start" x="40" y="5.46" style="font-family: 'Open Sans', verdana, arial, sans-serif; font-size: 14px; fill: rgb(0, 0, 0); fill-opacity: 1; white-space: pre;">Model</text><g class="layers" style="opacity: 1;"><g class="legendfill"/><g class="legendlines"><path class="js-line" d="M5,0h30" style="fill: none; stroke: rgb(51, 204, 51); stroke-opacity: 1; stroke-dasharray: 9px, 9px; stroke-width: 2px;"/></g><g class="legendsymbols"><g class="legendpoints"/></g></g><rect class="legendtoggle" x="0" y="-10.6" width="78.140625" height="21.2" style="fill: rgb(0, 0, 0); fill-opacity: 0;"/></g></g></g><rect class="scrollbar" rx="20" ry="3" width="0" height="0" x="0" y="0" style="fill: rgb(128, 139, 164); fill-opacity: 1;"/></g><g class="g-gtitle"><text class="gtitle" x="19.23076923076923" y="10" text-anchor="start" dy="0em" style="opacity: 1; font-family: 'Open Sans', verdana, arial, sans-serif; font-size: 14px; fill: rgb(0, 0, 0); fill-opacity: 1; white-space: pre;">EcN sfGFP CAT Response curve</text></g><g class="g-xtitle" transform="translate(0,3.6999999999999886)"><text class="xtitle" x="178" y="285.3" text-anchor="middle" style="opacity: 1; font-family: 'Open Sans', verdana, arial, sans-serif; font-size: 14px; fill: rgb(0, 0, 0); fill-opacity: 1; white-space: pre;">Cefotaxime [µL/mL]</text></g><g class="g-ytitle"><text class="ytitle" transform="rotate(-90,35.13125,139)" x="35.13125" y="139" text-anchor="middle" style="opacity: 1; font-family: 'Open Sans', verdana, arial, sans-serif; font-size: 14px; fill: rgb(0, 0, 0); fill-opacity: 1; white-space: pre;">Response in %</text></g></g></svg>