<?xml version="1.0" encoding="utf-8" standalone="no"?>
<!DOCTYPE svg PUBLIC "-//W3C//DTD SVG 1.1//EN"
  "http://www.w3.org/Graphics/SVG/1.1/DTD/svg11.dtd">
<svg xmlns:xlink="http://www.w3.org/1999/xlink" width="460.8pt" height="345.6pt" viewBox="0 0 460.8 345.6" xmlns="http://www.w3.org/2000/svg" version="1.1">
 <metadata>
  <rdf:RDF xmlns:dc="http://purl.org/dc/elements/1.1/" xmlns:cc="http://creativecommons.org/ns#" xmlns:rdf="http://www.w3.org/1999/02/22-rdf-syntax-ns#">
   <cc:Work>
    <dc:type rdf:resource="http://purl.org/dc/dcmitype/StillImage"/>
    <dc:date>2024-12-03T18:53:01.947518</dc:date>
    <dc:format>image/svg+xml</dc:format>
    <dc:creator>
     <cc:Agent>
      <dc:title>Matplotlib v3.8.4, https://matplotlib.org/</dc:title>
     </cc:Agent>
    </dc:creator>
   </cc:Work>
  </rdf:RDF>
 </metadata>
 <defs>
  <style type="text/css">*{stroke-linejoin: round; stroke-linecap: butt}</style>
 </defs>
 <g id="figure_1">
  <g id="patch_1">
   <path d="M 0 345.6 
L 460.8 345.6 
L 460.8 0 
L 0 0 
z
" style="fill: #ffffff"/>
  </g>
  <g id="axes_1">
   <g id="patch_2">
    <path d="M 44.66 303.64 
L 366.42192 303.64 
L 366.42192 14.76 
L 44.66 14.76 
z
" style="fill: #ffffff"/>
   </g>
   <g id="QuadContourSet_1">
    <path d="M 47.91012 303.64 
L 51.160241 303.64 
L 54.410361 303.64 
L 57.660482 303.64 
L 60.910602 303.64 
L 63.046395 303.64 
L 64.160722 303.14311 
L 67.410843 301.971868 
L 70.660963 301.093437 
L 72.332454 300.72202 
L 73.911084 300.095257 
L 77.161204 298.996577 
L 80.411324 298.097657 
L 81.618512 297.80404 
L 83.661445 297.042865 
L 86.911565 295.983606 
L 90.161686 295.07567 
L 90.90457 294.886061 
L 93.411806 293.988657 
L 96.661926 292.95415 
L 99.912047 292.041349 
L 100.190629 291.968081 
L 103.162167 290.933541 
L 106.412288 289.916017 
L 109.476687 289.050101 
L 109.662408 288.983571 
L 112.912528 287.877907 
L 116.162649 286.872758 
L 118.762745 286.132121 
L 119.412769 285.904265 
L 122.66289 284.821948 
L 125.91301 283.826217 
L 128.048804 283.214141 
L 129.163131 282.830122 
L 132.413251 281.765774 
L 135.663371 280.77745 
L 137.334862 280.296162 
L 138.913492 279.759541 
L 142.163612 278.709448 
L 145.413733 277.727102 
L 146.62092 277.378182 
L 148.663853 276.691519 
L 151.913973 275.653012 
L 155.164094 274.675593 
L 155.906978 274.460202 
L 158.414214 273.625398 
L 161.664335 272.596493 
L 164.914455 271.623205 
L 165.193037 271.542222 
L 168.164575 270.560728 
L 171.414696 269.539911 
L 174.479095 268.624242 
L 174.664816 268.561798 
L 177.914937 267.497191 
L 181.165057 266.483279 
L 183.765153 265.706263 
L 184.415177 265.489382 
L 187.665298 264.434554 
L 190.915418 263.426607 
L 193.051212 262.788283 
L 194.165539 262.418986 
L 197.415659 261.372646 
L 200.665779 260.369903 
L 202.33727 259.870303 
L 203.9159 259.350239 
L 207.16602 258.311335 
L 210.416141 257.313172 
L 211.623328 256.952323 
L 213.666261 256.282855 
L 216.916381 255.25052 
L 220.166502 254.256419 
L 220.909386 254.034343 
L 223.416622 253.216612 
L 226.666743 252.190121 
L 229.916863 251.199647 
L 230.195445 251.116364 
L 233.166983 250.151332 
L 236.417104 249.130074 
L 239.481503 248.198384 
L 239.667224 248.137301 
L 242.917345 247.086873 
L 246.167465 246.070329 
L 248.767561 245.280404 
L 249.417585 245.06753 
L 252.667706 244.023119 
L 255.917826 243.010844 
L 258.05362 242.362424 
L 259.167947 241.998927 
L 262.418067 240.959977 
L 265.668187 239.951584 
L 267.339678 239.444444 
L 268.918308 238.931339 
L 272.168428 237.897367 
L 275.418549 236.892521 
L 276.625736 236.526465 
L 278.668669 235.864639 
L 281.918789 234.835224 
L 285.16891 233.833631 
L 285.911795 233.608485 
L 288.41903 232.79872 
L 291.669151 231.773492 
L 294.919271 230.774894 
L 295.197853 230.690505 
L 298.169392 229.733493 
L 301.419512 228.712125 
L 304.483911 227.772525 
L 304.669632 227.712123 
L 307.919753 226.66888 
L 311.169873 225.651083 
L 313.769969 224.854545 
L 314.419994 224.643748 
L 317.670114 223.604816 
L 320.920234 222.59033 
L 323.056028 221.936566 
L 324.170355 221.576171 
L 327.420475 220.541244 
L 330.670596 219.529839 
L 332.342086 219.018586 
L 333.920716 218.509312 
L 337.170836 217.478115 
L 340.420957 216.469582 
L 341.628144 216.100606 
L 343.671077 215.4431 
L 346.921198 214.415385 
L 350.171318 213.409537 
L 350.914203 213.182626 
L 353.421438 212.377474 
L 356.671559 211.353018 
L 359.921679 210.349685 
L 360.200261 210.264646 
L 363.1718 209.312381 
L 366.42192 208.290981 
L 366.42192 207.346667 
L 366.42192 204.428687 
L 366.42192 201.510707 
L 366.42192 198.592727 
L 366.42192 195.674747 
L 366.42192 192.756768 
L 366.42192 189.838788 
L 366.42192 186.920808 
L 366.42192 184.002828 
L 366.42192 181.084848 
L 366.42192 178.166869 
L 366.42192 175.248889 
L 366.42192 172.330909 
L 366.42192 169.412929 
L 366.42192 166.494949 
L 366.42192 163.57697 
L 366.42192 160.65899 
L 366.42192 157.74101 
L 366.42192 154.82303 
L 366.42192 151.905051 
L 366.42192 148.987071 
L 366.42192 146.069091 
L 366.42192 143.151111 
L 366.42192 140.233131 
L 366.42192 137.315152 
L 366.42192 134.397172 
L 366.42192 131.479192 
L 366.42192 128.561212 
L 366.42192 125.643232 
L 366.42192 122.725253 
L 366.42192 119.807273 
L 366.42192 116.889293 
L 366.42192 113.971313 
L 366.42192 111.053333 
L 366.42192 108.135354 
L 366.42192 105.217374 
L 366.42192 102.299394 
L 366.42192 99.381414 
L 366.42192 96.463434 
L 366.42192 93.545455 
L 366.42192 90.627475 
L 366.42192 87.709495 
L 366.42192 84.791515 
L 366.42192 81.873535 
L 366.42192 78.955556 
L 366.42192 76.037576 
L 366.42192 73.119596 
L 366.42192 70.201616 
L 366.42192 67.283636 
L 366.42192 64.365657 
L 366.42192 61.447677 
L 366.42192 58.529697 
L 366.42192 55.611717 
L 366.42192 52.693737 
L 366.42192 49.775758 
L 366.42192 46.857778 
L 366.42192 43.939798 
L 366.42192 41.021818 
L 366.42192 38.103838 
L 366.42192 35.185859 
L 366.42192 32.267879 
L 366.42192 29.349899 
L 366.42192 26.431919 
L 366.42192 23.513939 
L 366.42192 20.59596 
L 366.42192 17.67798 
L 366.42192 14.76 
L 363.1718 14.76 
L 359.921679 14.76 
L 356.671559 14.76 
L 353.421438 14.76 
L 350.171318 14.76 
L 346.921198 14.76 
L 343.671077 14.76 
L 340.420957 14.76 
L 337.170836 14.76 
L 333.920716 14.76 
L 330.670596 14.76 
L 327.420475 14.76 
L 324.170355 14.76 
L 320.920234 14.76 
L 317.670114 14.76 
L 314.419994 14.76 
L 311.169873 14.76 
L 307.919753 14.76 
L 304.669632 14.76 
L 301.419512 14.76 
L 298.169392 14.76 
L 294.919271 14.76 
L 291.669151 14.76 
L 288.41903 14.76 
L 285.16891 14.76 
L 281.918789 14.76 
L 278.668669 14.76 
L 275.418549 14.76 
L 272.168428 14.76 
L 268.918308 14.76 
L 265.668187 14.76 
L 262.418067 14.76 
L 259.167947 14.76 
L 255.917826 14.76 
L 252.667706 14.76 
L 249.417585 14.76 
L 246.167465 14.76 
L 242.917345 14.76 
L 239.667224 14.76 
L 236.417104 14.76 
L 233.166983 14.76 
L 229.916863 14.76 
L 226.666743 14.76 
L 223.416622 14.76 
L 220.166502 14.76 
L 216.916381 14.76 
L 213.666261 14.76 
L 210.416141 14.76 
L 207.16602 14.76 
L 203.9159 14.76 
L 200.665779 14.76 
L 197.415659 14.76 
L 194.165539 14.76 
L 190.915418 14.76 
L 187.665298 14.76 
L 184.415177 14.76 
L 181.165057 14.76 
L 177.914937 14.76 
L 174.664816 14.76 
L 171.414696 14.76 
L 168.164575 14.76 
L 164.914455 14.76 
L 161.664335 14.76 
L 158.414214 14.76 
L 155.164094 14.76 
L 151.913973 14.76 
L 148.663853 14.76 
L 145.413733 14.76 
L 142.163612 14.76 
L 138.913492 14.76 
L 135.663371 14.76 
L 132.413251 14.76 
L 129.163131 14.76 
L 125.91301 14.76 
L 122.66289 14.76 
L 119.412769 14.76 
L 116.162649 14.76 
L 112.912528 14.76 
L 109.662408 14.76 
L 106.412288 14.76 
L 103.162167 14.76 
L 99.912047 14.76 
L 96.661926 14.76 
L 93.411806 14.76 
L 90.161686 14.76 
L 86.911565 14.76 
L 83.661445 14.76 
L 80.411324 14.76 
L 77.161204 14.76 
L 73.911084 14.76 
L 70.660963 14.76 
L 67.410843 14.76 
L 64.160722 14.76 
L 60.910602 14.76 
L 57.660482 14.76 
L 54.410361 14.76 
L 51.160241 14.76 
L 47.91012 14.76 
L 44.66 14.76 
L 44.66 17.67798 
L 44.66 20.59596 
L 44.66 23.513939 
L 44.66 26.431919 
L 44.66 29.349899 
L 44.66 32.267879 
L 44.66 35.185859 
L 44.66 38.103838 
L 44.66 41.021818 
L 44.66 43.939798 
L 44.66 46.857778 
L 44.66 49.775758 
L 44.66 52.693737 
L 44.66 55.611717 
L 44.66 58.529697 
L 44.66 61.447677 
L 44.66 64.365657 
L 44.66 67.283636 
L 44.66 70.201616 
L 44.66 73.119596 
L 44.66 76.037576 
L 44.66 78.955556 
L 44.66 81.873535 
L 44.66 84.791515 
L 44.66 87.709495 
L 44.66 90.627475 
L 44.66 93.545455 
L 44.66 96.463434 
L 44.66 99.381414 
L 44.66 102.299394 
L 44.66 105.217374 
L 44.66 108.135354 
L 44.66 111.053333 
L 44.66 113.971313 
L 44.66 116.889293 
L 44.66 119.807273 
L 44.66 122.725253 
L 44.66 125.643232 
L 44.66 128.561212 
L 44.66 131.479192 
L 44.66 134.397172 
L 44.66 137.315152 
L 44.66 140.233131 
L 44.66 143.151111 
L 44.66 146.069091 
L 44.66 148.987071 
L 44.66 151.905051 
L 44.66 154.82303 
L 44.66 157.74101 
L 44.66 160.65899 
L 44.66 163.57697 
L 44.66 166.494949 
L 44.66 169.412929 
L 44.66 172.330909 
L 44.66 175.248889 
L 44.66 178.166869 
L 44.66 181.084848 
L 44.66 184.002828 
L 44.66 186.920808 
L 44.66 189.838788 
L 44.66 192.756768 
L 44.66 195.674747 
L 44.66 198.592727 
L 44.66 201.510707 
L 44.66 204.428687 
L 44.66 207.346667 
L 44.66 210.264646 
L 44.66 213.182626 
L 44.66 216.100606 
L 44.66 219.018586 
L 44.66 221.936566 
L 44.66 224.854545 
L 44.66 227.772525 
L 44.66 230.690505 
L 44.66 233.608485 
L 44.66 236.526465 
L 44.66 239.444444 
L 44.66 242.362424 
L 44.66 245.280404 
L 44.66 248.198384 
L 44.66 251.116364 
L 44.66 254.034343 
L 44.66 256.952323 
L 44.66 259.870303 
L 44.66 262.788283 
L 44.66 265.706263 
L 44.66 268.624242 
L 44.66 271.542222 
L 44.66 274.460202 
L 44.66 277.378182 
L 44.66 280.296162 
L 44.66 283.214141 
L 44.66 286.132121 
L 44.66 289.050101 
L 44.66 291.968081 
L 44.66 294.886061 
L 44.66 297.80404 
L 44.66 300.72202 
L 44.66 303.64 
z
" clip-path="url(#pcafaeeb968)" style="fill: #4358cb"/>
    <path d="M 64.160722 303.64 
L 67.410843 303.64 
L 70.660963 303.64 
L 73.911084 303.64 
L 77.161204 303.64 
L 80.411324 303.64 
L 81.432791 303.64 
L 83.661445 303.14311 
L 86.911565 302.512441 
L 90.161686 301.971868 
L 93.411806 301.503372 
L 96.661926 301.093437 
L 99.912047 300.73173 
L 100.004907 300.72202 
L 103.162167 300.095257 
L 106.412288 299.517004 
L 109.662408 298.996577 
L 112.912528 298.525714 
L 116.162649 298.097657 
L 118.577024 297.80404 
L 119.412769 297.641576 
L 122.66289 297.042865 
L 125.91301 296.49205 
L 129.163131 295.983606 
L 132.413251 295.512824 
L 135.663371 295.07567 
L 137.149141 294.886061 
L 138.913492 294.559419 
L 142.163612 293.988657 
L 145.413733 293.454718 
L 148.663853 292.95415 
L 151.913973 292.483919 
L 155.164094 292.041349 
L 155.721257 291.968081 
L 158.414214 291.485911 
L 161.664335 290.933541 
L 164.914455 290.411029 
L 168.164575 289.916017 
L 171.414696 289.44639 
L 174.293374 289.050101 
L 174.664816 288.983571 
L 177.914937 288.417255 
L 181.165057 287.877907 
L 184.415177 287.363644 
L 187.665298 286.872758 
L 190.915418 286.403688 
L 192.86549 286.132121 
L 194.165539 285.904265 
L 197.415659 285.351593 
L 200.665779 284.821948 
L 203.9159 284.313922 
L 207.16602 283.826217 
L 210.416141 283.357637 
L 211.437607 283.214141 
L 213.666261 282.830122 
L 216.916381 282.287907 
L 220.166502 281.765774 
L 223.416622 281.262627 
L 226.666743 280.77745 
L 229.916863 280.309296 
L 230.009724 280.296162 
L 233.166983 279.759541 
L 236.417104 279.225595 
L 239.667224 278.709448 
L 242.917345 278.210223 
L 246.167465 277.727102 
L 248.58184 277.378182 
L 249.417585 277.235499 
L 252.667706 276.691519 
L 255.917826 276.164277 
L 259.167947 275.653012 
L 262.418067 275.157008 
L 265.668187 274.675593 
L 267.153957 274.460202 
L 268.918308 274.162218 
L 272.168428 273.625398 
L 275.418549 273.1037 
L 278.668669 272.596493 
L 281.918789 272.103182 
L 285.16891 271.623205 
L 285.726073 271.542222 
L 288.41903 271.091553 
L 291.669151 270.560728 
L 294.919271 270.043691 
L 298.169392 269.539911 
L 301.419512 269.048885 
L 304.29819 268.624242 
L 304.669632 268.561798 
L 307.919753 268.022922 
L 311.169873 267.497191 
L 314.419994 266.984127 
L 317.670114 266.483279 
L 320.920234 265.994216 
L 322.870307 265.706263 
L 324.170355 265.489382 
L 327.420475 264.955906 
L 330.670596 264.434554 
L 333.920716 263.924918 
L 337.170836 263.426607 
L 340.420957 262.939248 
L 341.442423 262.788283 
L 343.671077 262.418986 
L 346.921198 261.890191 
L 350.171318 261.372646 
L 353.421438 260.865997 
L 356.671559 260.369903 
L 359.921679 259.884038 
L 360.01454 259.870303 
L 363.1718 259.350239 
L 366.42192 258.82554 
L 366.42192 256.952323 
L 366.42192 254.034343 
L 366.42192 251.116364 
L 366.42192 248.198384 
L 366.42192 245.280404 
L 366.42192 242.362424 
L 366.42192 239.444444 
L 366.42192 236.526465 
L 366.42192 233.608485 
L 366.42192 230.690505 
L 366.42192 227.772525 
L 366.42192 224.854545 
L 366.42192 221.936566 
L 366.42192 219.018586 
L 366.42192 216.100606 
L 366.42192 213.182626 
L 366.42192 210.264646 
L 366.42192 208.290981 
L 363.1718 209.312381 
L 360.200261 210.264646 
L 359.921679 210.349685 
L 356.671559 211.353018 
L 353.421438 212.377474 
L 350.914203 213.182626 
L 350.171318 213.409537 
L 346.921198 214.415385 
L 343.671077 215.4431 
L 341.628144 216.100606 
L 340.420957 216.469582 
L 337.170836 217.478115 
L 333.920716 218.509312 
L 332.342086 219.018586 
L 330.670596 219.529839 
L 327.420475 220.541244 
L 324.170355 221.576171 
L 323.056028 221.936566 
L 320.920234 222.59033 
L 317.670114 223.604816 
L 314.419994 224.643748 
L 313.769969 224.854545 
L 311.169873 225.651083 
L 307.919753 226.66888 
L 304.669632 227.712123 
L 304.483911 227.772525 
L 301.419512 228.712125 
L 298.169392 229.733493 
L 295.197853 230.690505 
L 294.919271 230.774894 
L 291.669151 231.773492 
L 288.41903 232.79872 
L 285.911795 233.608485 
L 285.16891 233.833631 
L 281.918789 234.835224 
L 278.668669 235.864639 
L 276.625736 236.526465 
L 275.418549 236.892521 
L 272.168428 237.897367 
L 268.918308 238.931339 
L 267.339678 239.444444 
L 265.668187 239.951584 
L 262.418067 240.959977 
L 259.167947 241.998927 
L 258.05362 242.362424 
L 255.917826 243.010844 
L 252.667706 244.023119 
L 249.417585 245.06753 
L 248.767561 245.280404 
L 246.167465 246.070329 
L 242.917345 247.086873 
L 239.667224 248.137301 
L 239.481503 248.198384 
L 236.417104 249.130074 
L 233.166983 250.151332 
L 230.195445 251.116364 
L 229.916863 251.199647 
L 226.666743 252.190121 
L 223.416622 253.216612 
L 220.909386 254.034343 
L 220.166502 254.256419 
L 216.916381 255.25052 
L 213.666261 256.282855 
L 211.623328 256.952323 
L 210.416141 257.313172 
L 207.16602 258.311335 
L 203.9159 259.350239 
L 202.33727 259.870303 
L 200.665779 260.369903 
L 197.415659 261.372646 
L 194.165539 262.418986 
L 193.051212 262.788283 
L 190.915418 263.426607 
L 187.665298 264.434554 
L 184.415177 265.489382 
L 183.765153 265.706263 
L 181.165057 266.483279 
L 177.914937 267.497191 
L 174.664816 268.561798 
L 174.479095 268.624242 
L 171.414696 269.539911 
L 168.164575 270.560728 
L 165.193037 271.542222 
L 164.914455 271.623205 
L 161.664335 272.596493 
L 158.414214 273.625398 
L 155.906978 274.460202 
L 155.164094 274.675593 
L 151.913973 275.653012 
L 148.663853 276.691519 
L 146.62092 277.378182 
L 145.413733 277.727102 
L 142.163612 278.709448 
L 138.913492 279.759541 
L 137.334862 280.296162 
L 135.663371 280.77745 
L 132.413251 281.765774 
L 129.163131 282.830122 
L 128.048804 283.214141 
L 125.91301 283.826217 
L 122.66289 284.821948 
L 119.412769 285.904265 
L 118.762745 286.132121 
L 116.162649 286.872758 
L 112.912528 287.877907 
L 109.662408 288.983571 
L 109.476687 289.050101 
L 106.412288 289.916017 
L 103.162167 290.933541 
L 100.190629 291.968081 
L 99.912047 292.041349 
L 96.661926 292.95415 
L 93.411806 293.988657 
L 90.90457 294.886061 
L 90.161686 295.07567 
L 86.911565 295.983606 
L 83.661445 297.042865 
L 81.618512 297.80404 
L 80.411324 298.097657 
L 77.161204 298.996577 
L 73.911084 300.095257 
L 72.332454 300.72202 
L 70.660963 301.093437 
L 67.410843 301.971868 
L 64.160722 303.14311 
L 63.046395 303.64 
z
" clip-path="url(#pcafaeeb968)" style="fill: #5470de"/>
    <path d="M 83.661445 303.64 
L 86.911565 303.64 
L 90.161686 303.64 
L 93.411806 303.64 
L 96.661926 303.64 
L 99.819186 303.64 
L 99.912047 303.625386 
L 103.162167 303.14311 
L 106.412288 302.7116 
L 109.662408 302.323241 
L 112.912528 301.971868 
L 116.162649 301.652439 
L 119.412769 301.360786 
L 122.66289 301.093437 
L 125.91301 300.847477 
L 127.677361 300.72202 
L 129.163131 300.517826 
L 132.413251 300.095257 
L 135.663371 299.702871 
L 138.913492 299.337547 
L 142.163612 298.996577 
L 145.413733 298.677606 
L 148.663853 298.37857 
L 151.913973 298.097657 
L 155.164094 297.833269 
L 155.535536 297.80404 
L 158.414214 297.436303 
L 161.664335 297.042865 
L 164.914455 296.670693 
L 168.164575 296.318109 
L 171.414696 295.983606 
L 174.664816 295.665828 
L 177.914937 295.363552 
L 181.165057 295.07567 
L 183.393711 294.886061 
L 184.415177 294.758523 
L 187.665298 294.364841 
L 190.915418 293.988657 
L 194.165539 293.628828 
L 197.415659 293.284311 
L 200.665779 292.95415 
L 203.9159 292.637464 
L 207.16602 292.333445 
L 210.416141 292.041349 
L 211.251886 291.968081 
L 213.666261 291.677117 
L 216.916381 291.298314 
L 220.166502 290.933541 
L 223.416622 290.582033 
L 226.666743 290.243078 
L 229.916863 289.916017 
L 233.166983 289.600234 
L 236.417104 289.295155 
L 239.110061 289.050101 
L 239.667224 288.983571 
L 242.917345 288.602933 
L 246.167465 288.234573 
L 249.417585 287.877907 
L 252.667706 287.532387 
L 255.917826 287.197498 
L 259.167947 286.872758 
L 262.418067 286.557711 
L 265.668187 286.25193 
L 266.968236 286.132121 
L 268.918308 285.904265 
L 272.168428 285.533185 
L 275.418549 285.172558 
L 278.668669 284.821948 
L 281.918789 284.480944 
L 285.16891 284.149157 
L 288.41903 283.826217 
L 291.669151 283.511775 
L 294.826411 283.214141 
L 294.919271 283.203336 
L 298.169392 282.830122 
L 301.419512 282.466358 
L 304.669632 282.111687 
L 307.919753 281.765774 
L 311.169873 281.428297 
L 314.419994 281.098953 
L 317.670114 280.77745 
L 320.920234 280.463511 
L 322.684585 280.296162 
L 324.170355 280.125852 
L 327.420475 279.759541 
L 330.670596 279.401554 
L 333.920716 279.051613 
L 337.170836 278.709448 
L 340.420957 278.374802 
L 343.671077 278.047432 
L 346.921198 277.727102 
L 350.171318 277.413588 
L 350.54276 277.378182 
L 353.421438 277.052263 
L 356.671559 276.691519 
L 359.921679 276.338212 
L 363.1718 275.992116 
L 366.42192 275.653012 
L 366.42192 274.460202 
L 366.42192 271.542222 
L 366.42192 268.624242 
L 366.42192 265.706263 
L 366.42192 262.788283 
L 366.42192 259.870303 
L 366.42192 258.82554 
L 363.1718 259.350239 
L 360.01454 259.870303 
L 359.921679 259.884038 
L 356.671559 260.369903 
L 353.421438 260.865997 
L 350.171318 261.372646 
L 346.921198 261.890191 
L 343.671077 262.418986 
L 341.442423 262.788283 
L 340.420957 262.939248 
L 337.170836 263.426607 
L 333.920716 263.924918 
L 330.670596 264.434554 
L 327.420475 264.955906 
L 324.170355 265.489382 
L 322.870307 265.706263 
L 320.920234 265.994216 
L 317.670114 266.483279 
L 314.419994 266.984127 
L 311.169873 267.497191 
L 307.919753 268.022922 
L 304.669632 268.561798 
L 304.29819 268.624242 
L 301.419512 269.048885 
L 298.169392 269.539911 
L 294.919271 270.043691 
L 291.669151 270.560728 
L 288.41903 271.091553 
L 285.726073 271.542222 
L 285.16891 271.623205 
L 281.918789 272.103182 
L 278.668669 272.596493 
L 275.418549 273.1037 
L 272.168428 273.625398 
L 268.918308 274.162218 
L 267.153957 274.460202 
L 265.668187 274.675593 
L 262.418067 275.157008 
L 259.167947 275.653012 
L 255.917826 276.164277 
L 252.667706 276.691519 
L 249.417585 277.235499 
L 248.58184 277.378182 
L 246.167465 277.727102 
L 242.917345 278.210223 
L 239.667224 278.709448 
L 236.417104 279.225595 
L 233.166983 279.759541 
L 230.009724 280.296162 
L 229.916863 280.309296 
L 226.666743 280.77745 
L 223.416622 281.262627 
L 220.166502 281.765774 
L 216.916381 282.287907 
L 213.666261 282.830122 
L 211.437607 283.214141 
L 210.416141 283.357637 
L 207.16602 283.826217 
L 203.9159 284.313922 
L 200.665779 284.821948 
L 197.415659 285.351593 
L 194.165539 285.904265 
L 192.86549 286.132121 
L 190.915418 286.403688 
L 187.665298 286.872758 
L 184.415177 287.363644 
L 181.165057 287.877907 
L 177.914937 288.417255 
L 174.664816 288.983571 
L 174.293374 289.050101 
L 171.414696 289.44639 
L 168.164575 289.916017 
L 164.914455 290.411029 
L 161.664335 290.933541 
L 158.414214 291.485911 
L 155.721257 291.968081 
L 155.164094 292.041349 
L 151.913973 292.483919 
L 148.663853 292.95415 
L 145.413733 293.454718 
L 142.163612 293.988657 
L 138.913492 294.559419 
L 137.149141 294.886061 
L 135.663371 295.07567 
L 132.413251 295.512824 
L 129.163131 295.983606 
L 125.91301 296.49205 
L 122.66289 297.042865 
L 119.412769 297.641576 
L 118.577024 297.80404 
L 116.162649 298.097657 
L 112.912528 298.525714 
L 109.662408 298.996577 
L 106.412288 299.517004 
L 103.162167 300.095257 
L 100.004907 300.72202 
L 99.912047 300.73173 
L 96.661926 301.093437 
L 93.411806 301.503372 
L 90.161686 301.971868 
L 86.911565 302.512441 
L 83.661445 303.14311 
L 81.432791 303.64 
z
" clip-path="url(#pcafaeeb968)" style="fill: #6687ed"/>
    <path d="M 99.912047 303.64 
L 103.162167 303.64 
L 106.412288 303.64 
L 109.662408 303.64 
L 112.912528 303.64 
L 116.162649 303.64 
L 118.205582 303.64 
L 119.412769 303.499574 
L 122.66289 303.14311 
L 125.91301 302.815162 
L 129.163131 302.512441 
L 132.413251 302.232144 
L 135.663371 301.971868 
L 138.913492 301.729543 
L 142.163612 301.503372 
L 145.413733 301.291793 
L 148.663853 301.093437 
L 151.913973 300.907103 
L 155.164094 300.73173 
L 155.349815 300.72202 
L 158.414214 300.409165 
L 161.664335 300.095257 
L 164.914455 299.798316 
L 168.164575 299.517004 
L 171.414696 299.250119 
L 174.664816 298.996577 
L 177.914937 298.755403 
L 181.165057 298.525714 
L 184.415177 298.306708 
L 187.665298 298.097657 
L 190.915418 297.897897 
L 192.494048 297.80404 
L 194.165539 297.641576 
L 197.415659 297.335851 
L 200.665779 297.042865 
L 203.9159 296.761837 
L 207.16602 296.49205 
L 210.416141 296.232843 
L 213.666261 295.983606 
L 216.916381 295.743774 
L 220.166502 295.512824 
L 223.416622 295.290273 
L 226.666743 295.07567 
L 229.638281 294.886061 
L 229.916863 294.859821 
L 233.166983 294.559419 
L 236.417104 294.269201 
L 239.667224 293.988657 
L 242.917345 293.717311 
L 246.167465 293.454718 
L 249.417585 293.200461 
L 252.667706 292.95415 
L 255.917826 292.715417 
L 259.167947 292.483919 
L 262.418067 292.259331 
L 265.668187 292.041349 
L 266.782514 291.968081 
L 268.918308 291.774105 
L 272.168428 291.485911 
L 275.418549 291.205836 
L 278.668669 290.933541 
L 281.918789 290.668706 
L 285.16891 290.411029 
L 288.41903 290.160223 
L 291.669151 289.916017 
L 294.919271 289.678154 
L 298.169392 289.44639 
L 301.419512 289.220494 
L 303.926748 289.050101 
L 304.669632 288.983571 
L 307.919753 288.696917 
L 311.169873 288.417255 
L 314.419994 288.144332 
L 317.670114 287.877907 
L 320.920234 287.617751 
L 324.170355 287.363644 
L 327.420475 287.11538 
L 330.670596 286.872758 
L 333.920716 286.635587 
L 337.170836 286.403688 
L 340.420957 286.176885 
L 341.070981 286.132121 
L 343.671077 285.904265 
L 346.921198 285.624957 
L 350.171318 285.351593 
L 353.421438 285.083983 
L 356.671559 284.821948 
L 359.921679 284.565316 
L 363.1718 284.313922 
L 366.42192 284.067606 
L 366.42192 283.214141 
L 366.42192 280.296162 
L 366.42192 277.378182 
L 366.42192 275.653012 
L 363.1718 275.992116 
L 359.921679 276.338212 
L 356.671559 276.691519 
L 353.421438 277.052263 
L 350.54276 277.378182 
L 350.171318 277.413588 
L 346.921198 277.727102 
L 343.671077 278.047432 
L 340.420957 278.374802 
L 337.170836 278.709448 
L 333.920716 279.051613 
L 330.670596 279.401554 
L 327.420475 279.759541 
L 324.170355 280.125852 
L 322.684585 280.296162 
L 320.920234 280.463511 
L 317.670114 280.77745 
L 314.419994 281.098953 
L 311.169873 281.428297 
L 307.919753 281.765774 
L 304.669632 282.111687 
L 301.419512 282.466358 
L 298.169392 282.830122 
L 294.919271 283.203336 
L 294.826411 283.214141 
L 291.669151 283.511775 
L 288.41903 283.826217 
L 285.16891 284.149157 
L 281.918789 284.480944 
L 278.668669 284.821948 
L 275.418549 285.172558 
L 272.168428 285.533185 
L 268.918308 285.904265 
L 266.968236 286.132121 
L 265.668187 286.25193 
L 262.418067 286.557711 
L 259.167947 286.872758 
L 255.917826 287.197498 
L 252.667706 287.532387 
L 249.417585 287.877907 
L 246.167465 288.234573 
L 242.917345 288.602933 
L 239.667224 288.983571 
L 239.110061 289.050101 
L 236.417104 289.295155 
L 233.166983 289.600234 
L 229.916863 289.916017 
L 226.666743 290.243078 
L 223.416622 290.582033 
L 220.166502 290.933541 
L 216.916381 291.298314 
L 213.666261 291.677117 
L 211.251886 291.968081 
L 210.416141 292.041349 
L 207.16602 292.333445 
L 203.9159 292.637464 
L 200.665779 292.95415 
L 197.415659 293.284311 
L 194.165539 293.628828 
L 190.915418 293.988657 
L 187.665298 294.364841 
L 184.415177 294.758523 
L 183.393711 294.886061 
L 181.165057 295.07567 
L 177.914937 295.363552 
L 174.664816 295.665828 
L 171.414696 295.983606 
L 168.164575 296.318109 
L 164.914455 296.670693 
L 161.664335 297.042865 
L 158.414214 297.436303 
L 155.535536 297.80404 
L 155.164094 297.833269 
L 151.913973 298.097657 
L 148.663853 298.37857 
L 145.413733 298.677606 
L 142.163612 298.996577 
L 138.913492 299.337547 
L 135.663371 299.702871 
L 132.413251 300.095257 
L 129.163131 300.517826 
L 127.677361 300.72202 
L 125.91301 300.847477 
L 122.66289 301.093437 
L 119.412769 301.360786 
L 116.162649 301.652439 
L 112.912528 301.971868 
L 109.662408 302.323241 
L 106.412288 302.7116 
L 103.162167 303.14311 
L 99.912047 303.625386 
L 99.819186 303.64 
z
" clip-path="url(#pcafaeeb968)" style="fill: #799cf8"/>
    <path d="M 119.412769 303.64 
L 122.66289 303.64 
L 125.91301 303.64 
L 129.163131 303.64 
L 132.413251 303.64 
L 135.663371 303.64 
L 136.591977 303.64 
L 138.913492 303.425823 
L 142.163612 303.14311 
L 145.413733 302.878636 
L 148.663853 302.630692 
L 151.913973 302.397774 
L 155.164094 302.178558 
L 158.414214 301.971868 
L 161.664335 301.776661 
L 164.914455 301.592006 
L 168.164575 301.41707 
L 171.414696 301.251104 
L 174.664816 301.093437 
L 177.914937 300.943461 
L 181.165057 300.800627 
L 183.022269 300.72202 
L 184.415177 300.60627 
L 187.665298 300.344957 
L 190.915418 300.095257 
L 194.165539 299.856413 
L 197.415659 299.627733 
L 200.665779 299.408582 
L 203.9159 299.198375 
L 207.16602 298.996577 
L 210.416141 298.802692 
L 213.666261 298.616265 
L 216.916381 298.436872 
L 220.166502 298.264124 
L 223.416622 298.097657 
L 226.666743 297.937136 
L 229.45256 297.80404 
L 229.916863 297.767621 
L 233.166983 297.517705 
L 236.417104 297.276261 
L 239.667224 297.042865 
L 242.917345 296.817121 
L 246.167465 296.598659 
L 249.417585 296.387133 
L 252.667706 296.182217 
L 255.917826 295.983606 
L 259.167947 295.791013 
L 262.418067 295.60417 
L 265.668187 295.422822 
L 268.918308 295.24673 
L 272.168428 295.07567 
L 275.418549 294.909428 
L 275.882852 294.886061 
L 278.668669 294.678328 
L 281.918789 294.442139 
L 285.16891 294.212334 
L 288.41903 293.988657 
L 291.669151 293.770866 
L 294.919271 293.558732 
L 298.169392 293.352037 
L 301.419512 293.150575 
L 304.669632 292.95415 
L 307.919753 292.762574 
L 311.169873 292.575671 
L 314.419994 292.393272 
L 317.670114 292.215216 
L 320.920234 292.041349 
L 322.313143 291.968081 
L 324.170355 291.832749 
L 327.420475 291.600195 
L 330.670596 291.372927 
L 333.920716 291.150765 
L 337.170836 290.933541 
L 340.420957 290.721091 
L 343.671077 290.513259 
L 346.921198 290.309897 
L 350.171318 290.110862 
L 353.421438 289.916017 
L 356.671559 289.725231 
L 359.921679 289.538379 
L 363.1718 289.35534 
L 366.42192 289.175999 
L 366.42192 289.050101 
L 366.42192 286.132121 
L 366.42192 284.067606 
L 363.1718 284.313922 
L 359.921679 284.565316 
L 356.671559 284.821948 
L 353.421438 285.083983 
L 350.171318 285.351593 
L 346.921198 285.624957 
L 343.671077 285.904265 
L 341.070981 286.132121 
L 340.420957 286.176885 
L 337.170836 286.403688 
L 333.920716 286.635587 
L 330.670596 286.872758 
L 327.420475 287.11538 
L 324.170355 287.363644 
L 320.920234 287.617751 
L 317.670114 287.877907 
L 314.419994 288.144332 
L 311.169873 288.417255 
L 307.919753 288.696917 
L 304.669632 288.983571 
L 303.926748 289.050101 
L 301.419512 289.220494 
L 298.169392 289.44639 
L 294.919271 289.678154 
L 291.669151 289.916017 
L 288.41903 290.160223 
L 285.16891 290.411029 
L 281.918789 290.668706 
L 278.668669 290.933541 
L 275.418549 291.205836 
L 272.168428 291.485911 
L 268.918308 291.774105 
L 266.782514 291.968081 
L 265.668187 292.041349 
L 262.418067 292.259331 
L 259.167947 292.483919 
L 255.917826 292.715417 
L 252.667706 292.95415 
L 249.417585 293.200461 
L 246.167465 293.454718 
L 242.917345 293.717311 
L 239.667224 293.988657 
L 236.417104 294.269201 
L 233.166983 294.559419 
L 229.916863 294.859821 
L 229.638281 294.886061 
L 226.666743 295.07567 
L 223.416622 295.290273 
L 220.166502 295.512824 
L 216.916381 295.743774 
L 213.666261 295.983606 
L 210.416141 296.232843 
L 207.16602 296.49205 
L 203.9159 296.761837 
L 200.665779 297.042865 
L 197.415659 297.335851 
L 194.165539 297.641576 
L 192.494048 297.80404 
L 190.915418 297.897897 
L 187.665298 298.097657 
L 184.415177 298.306708 
L 181.165057 298.525714 
L 177.914937 298.755403 
L 174.664816 298.996577 
L 171.414696 299.250119 
L 168.164575 299.517004 
L 164.914455 299.798316 
L 161.664335 300.095257 
L 158.414214 300.409165 
L 155.349815 300.72202 
L 155.164094 300.73173 
L 151.913973 300.907103 
L 148.663853 301.093437 
L 145.413733 301.291793 
L 142.163612 301.503372 
L 138.913492 301.729543 
L 135.663371 301.971868 
L 132.413251 302.232144 
L 129.163131 302.512441 
L 125.91301 302.815162 
L 122.66289 303.14311 
L 119.412769 303.499574 
L 118.205582 303.64 
z
" clip-path="url(#pcafaeeb968)" style="fill: #8db0fe"/>
    <path d="M 138.913492 303.64 
L 142.163612 303.64 
L 145.413733 303.64 
L 148.663853 303.64 
L 151.913973 303.64 
L 154.978373 303.64 
L 155.164094 303.625386 
L 158.414214 303.377358 
L 161.664335 303.14311 
L 164.914455 302.921524 
L 168.164575 302.7116 
L 171.414696 302.512441 
L 174.664816 302.323241 
L 177.914937 302.14327 
L 181.165057 301.971868 
L 184.415177 301.808439 
L 187.665298 301.652439 
L 190.915418 301.503372 
L 194.165539 301.360786 
L 197.415659 301.224267 
L 200.665779 301.093437 
L 203.9159 300.967947 
L 207.16602 300.847477 
L 210.416141 300.73173 
L 210.694722 300.72202 
L 213.666261 300.517826 
L 216.916381 300.302555 
L 220.166502 300.095257 
L 223.416622 299.895497 
L 226.666743 299.702871 
L 229.916863 299.517004 
L 233.166983 299.337547 
L 236.417104 299.164172 
L 239.667224 298.996577 
L 242.917345 298.834477 
L 246.167465 298.677606 
L 249.417585 298.525714 
L 252.667706 298.37857 
L 255.917826 298.235953 
L 259.167947 298.097657 
L 262.418067 297.96349 
L 265.668187 297.833269 
L 266.411072 297.80404 
L 268.918308 297.641576 
L 272.168428 297.436303 
L 275.418549 297.236813 
L 278.668669 297.042865 
L 281.918789 296.854229 
L 285.16891 296.670693 
L 288.41903 296.49205 
L 291.669151 296.318109 
L 294.919271 296.148685 
L 298.169392 295.983606 
L 301.419512 295.822706 
L 304.669632 295.665828 
L 307.919753 295.512824 
L 311.169873 295.363552 
L 314.419994 295.217877 
L 317.670114 295.07567 
L 320.920234 294.936809 
L 322.127422 294.886061 
L 324.170355 294.758523 
L 327.420475 294.559419 
L 330.670596 294.364841 
L 333.920716 294.174636 
L 337.170836 293.988657 
L 340.420957 293.806765 
L 343.671077 293.628828 
L 346.921198 293.454718 
L 350.171318 293.284311 
L 353.421438 293.117493 
L 356.671559 292.95415 
L 359.921679 292.794174 
L 363.1718 292.637464 
L 366.42192 292.483919 
L 366.42192 291.968081 
L 366.42192 289.175999 
L 363.1718 289.35534 
L 359.921679 289.538379 
L 356.671559 289.725231 
L 353.421438 289.916017 
L 350.171318 290.110862 
L 346.921198 290.309897 
L 343.671077 290.513259 
L 340.420957 290.721091 
L 337.170836 290.933541 
L 333.920716 291.150765 
L 330.670596 291.372927 
L 327.420475 291.600195 
L 324.170355 291.832749 
L 322.313143 291.968081 
L 320.920234 292.041349 
L 317.670114 292.215216 
L 314.419994 292.393272 
L 311.169873 292.575671 
L 307.919753 292.762574 
L 304.669632 292.95415 
L 301.419512 293.150575 
L 298.169392 293.352037 
L 294.919271 293.558732 
L 291.669151 293.770866 
L 288.41903 293.988657 
L 285.16891 294.212334 
L 281.918789 294.442139 
L 278.668669 294.678328 
L 275.882852 294.886061 
L 275.418549 294.909428 
L 272.168428 295.07567 
L 268.918308 295.24673 
L 265.668187 295.422822 
L 262.418067 295.60417 
L 259.167947 295.791013 
L 255.917826 295.983606 
L 252.667706 296.182217 
L 249.417585 296.387133 
L 246.167465 296.598659 
L 242.917345 296.817121 
L 239.667224 297.042865 
L 236.417104 297.276261 
L 233.166983 297.517705 
L 229.916863 297.767621 
L 229.45256 297.80404 
L 226.666743 297.937136 
L 223.416622 298.097657 
L 220.166502 298.264124 
L 216.916381 298.436872 
L 213.666261 298.616265 
L 210.416141 298.802692 
L 207.16602 298.996577 
L 203.9159 299.198375 
L 200.665779 299.408582 
L 197.415659 299.627733 
L 194.165539 299.856413 
L 190.915418 300.095257 
L 187.665298 300.344957 
L 184.415177 300.60627 
L 183.022269 300.72202 
L 181.165057 300.800627 
L 177.914937 300.943461 
L 174.664816 301.093437 
L 171.414696 301.251104 
L 168.164575 301.41707 
L 164.914455 301.592006 
L 161.664335 301.776661 
L 158.414214 301.971868 
L 155.164094 302.178558 
L 151.913973 302.397774 
L 148.663853 302.630692 
L 145.413733 302.878636 
L 142.163612 303.14311 
L 138.913492 303.425823 
L 136.591977 303.64 
z
" clip-path="url(#pcafaeeb968)" style="fill: #a1c0ff"/>
    <path d="M 155.164094 303.64 
L 158.414214 303.64 
L 161.664335 303.64 
L 164.914455 303.64 
L 168.164575 303.64 
L 171.414696 303.64 
L 173.364768 303.64 
L 174.664816 303.553044 
L 177.914937 303.343078 
L 181.165057 303.14311 
L 184.415177 302.952443 
L 187.665298 302.770442 
L 190.915418 302.59653 
L 194.165539 302.43018 
L 197.415659 302.270909 
L 200.665779 302.118274 
L 203.9159 301.971868 
L 207.16602 301.831319 
L 210.416141 301.696282 
L 213.666261 301.566439 
L 216.916381 301.441495 
L 220.166502 301.321179 
L 223.416622 301.205238 
L 226.666743 301.093437 
L 229.916863 300.98556 
L 233.166983 300.881402 
L 236.417104 300.780775 
L 238.367176 300.72202 
L 239.667224 300.644596 
L 242.917345 300.455479 
L 246.167465 300.272463 
L 249.417585 300.095257 
L 252.667706 299.923588 
L 255.917826 299.757201 
L 259.167947 299.595857 
L 262.418067 299.439329 
L 265.668187 299.287404 
L 268.918308 299.139883 
L 272.168428 298.996577 
L 275.418549 298.857308 
L 278.668669 298.721907 
L 281.918789 298.590216 
L 285.16891 298.462084 
L 288.41903 298.337369 
L 291.669151 298.215936 
L 294.919271 298.097657 
L 298.169392 297.982411 
L 301.419512 297.870083 
L 303.369584 297.80404 
L 304.669632 297.731383 
L 307.919753 297.552878 
L 311.169873 297.378727 
L 314.419994 297.208773 
L 317.670114 297.042865 
L 320.920234 296.88086 
L 324.170355 296.722624 
L 327.420475 296.568024 
L 330.670596 296.416939 
L 333.920716 296.269249 
L 337.170836 296.12484 
L 340.420957 295.983606 
L 343.671077 295.845442 
L 346.921198 295.710249 
L 350.171318 295.577932 
L 353.421438 295.448401 
L 356.671559 295.321569 
L 359.921679 295.197352 
L 363.1718 295.07567 
L 366.42192 294.956446 
L 366.42192 294.886061 
L 366.42192 292.483919 
L 363.1718 292.637464 
L 359.921679 292.794174 
L 356.671559 292.95415 
L 353.421438 293.117493 
L 350.171318 293.284311 
L 346.921198 293.454718 
L 343.671077 293.628828 
L 340.420957 293.806765 
L 337.170836 293.988657 
L 333.920716 294.174636 
L 330.670596 294.364841 
L 327.420475 294.559419 
L 324.170355 294.758523 
L 322.127422 294.886061 
L 320.920234 294.936809 
L 317.670114 295.07567 
L 314.419994 295.217877 
L 311.169873 295.363552 
L 307.919753 295.512824 
L 304.669632 295.665828 
L 301.419512 295.822706 
L 298.169392 295.983606 
L 294.919271 296.148685 
L 291.669151 296.318109 
L 288.41903 296.49205 
L 285.16891 296.670693 
L 281.918789 296.854229 
L 278.668669 297.042865 
L 275.418549 297.236813 
L 272.168428 297.436303 
L 268.918308 297.641576 
L 266.411072 297.80404 
L 265.668187 297.833269 
L 262.418067 297.96349 
L 259.167947 298.097657 
L 255.917826 298.235953 
L 252.667706 298.37857 
L 249.417585 298.525714 
L 246.167465 298.677606 
L 242.917345 298.834477 
L 239.667224 298.996577 
L 236.417104 299.164172 
L 233.166983 299.337547 
L 229.916863 299.517004 
L 226.666743 299.702871 
L 223.416622 299.895497 
L 220.166502 300.095257 
L 216.916381 300.302555 
L 213.666261 300.517826 
L 210.694722 300.72202 
L 210.416141 300.73173 
L 207.16602 300.847477 
L 203.9159 300.967947 
L 200.665779 301.093437 
L 197.415659 301.224267 
L 194.165539 301.360786 
L 190.915418 301.503372 
L 187.665298 301.652439 
L 184.415177 301.808439 
L 181.165057 301.971868 
L 177.914937 302.14327 
L 174.664816 302.323241 
L 171.414696 302.512441 
L 168.164575 302.7116 
L 164.914455 302.921524 
L 161.664335 303.14311 
L 158.414214 303.377358 
L 155.164094 303.625386 
L 154.978373 303.64 
z
" clip-path="url(#pcafaeeb968)" style="fill: #b3cdfb"/>
    <path d="M 174.664816 303.64 
L 177.914937 303.64 
L 181.165057 303.64 
L 184.415177 303.64 
L 187.665298 303.64 
L 190.915418 303.64 
L 191.751163 303.64 
L 194.165539 303.499574 
L 197.415659 303.31755 
L 200.665779 303.14311 
L 203.9159 302.97579 
L 207.16602 302.815162 
L 210.416141 302.660834 
L 213.666261 302.512441 
L 216.916381 302.369648 
L 220.166502 302.232144 
L 223.416622 302.09964 
L 226.666743 301.971868 
L 229.916863 301.84858 
L 233.166983 301.729543 
L 236.417104 301.61454 
L 239.667224 301.503372 
L 242.917345 301.395848 
L 246.167465 301.291793 
L 249.417585 301.191041 
L 252.667706 301.093437 
L 255.917826 300.998837 
L 259.167947 300.907103 
L 262.418067 300.818108 
L 265.668187 300.73173 
L 266.03963 300.72202 
L 268.918308 300.572943 
L 272.168428 300.409165 
L 275.418549 300.25 
L 278.668669 300.095257 
L 281.918789 299.944753 
L 285.16891 299.798316 
L 288.41903 299.655785 
L 291.669151 299.517004 
L 294.919271 299.381828 
L 298.169392 299.250119 
L 301.419512 299.121743 
L 304.669632 298.996577 
L 307.919753 298.874502 
L 311.169873 298.755403 
L 314.419994 298.639175 
L 317.670114 298.525714 
L 320.920234 298.414923 
L 324.170355 298.306708 
L 327.420475 298.200981 
L 330.670596 298.097657 
L 333.920716 297.996655 
L 337.170836 297.897897 
L 340.328096 297.80404 
L 340.420957 297.799478 
L 343.671077 297.641576 
L 346.921198 297.48707 
L 350.171318 297.335851 
L 353.421438 297.187816 
L 356.671559 297.042865 
L 359.921679 296.900902 
L 363.1718 296.761837 
L 366.42192 296.625581 
L 366.42192 294.956446 
L 363.1718 295.07567 
L 359.921679 295.197352 
L 356.671559 295.321569 
L 353.421438 295.448401 
L 350.171318 295.577932 
L 346.921198 295.710249 
L 343.671077 295.845442 
L 340.420957 295.983606 
L 337.170836 296.12484 
L 333.920716 296.269249 
L 330.670596 296.416939 
L 327.420475 296.568024 
L 324.170355 296.722624 
L 320.920234 296.88086 
L 317.670114 297.042865 
L 314.419994 297.208773 
L 311.169873 297.378727 
L 307.919753 297.552878 
L 304.669632 297.731383 
L 303.369584 297.80404 
L 301.419512 297.870083 
L 298.169392 297.982411 
L 294.919271 298.097657 
L 291.669151 298.215936 
L 288.41903 298.337369 
L 285.16891 298.462084 
L 281.918789 298.590216 
L 278.668669 298.721907 
L 275.418549 298.857308 
L 272.168428 298.996577 
L 268.918308 299.139883 
L 265.668187 299.287404 
L 262.418067 299.439329 
L 259.167947 299.595857 
L 255.917826 299.757201 
L 252.667706 299.923588 
L 249.417585 300.095257 
L 246.167465 300.272463 
L 242.917345 300.455479 
L 239.667224 300.644596 
L 238.367176 300.72202 
L 236.417104 300.780775 
L 233.166983 300.881402 
L 229.916863 300.98556 
L 226.666743 301.093437 
L 223.416622 301.205238 
L 220.166502 301.321179 
L 216.916381 301.441495 
L 213.666261 301.566439 
L 210.416141 301.696282 
L 207.16602 301.831319 
L 203.9159 301.971868 
L 200.665779 302.118274 
L 197.415659 302.270909 
L 194.165539 302.43018 
L 190.915418 302.59653 
L 187.665298 302.770442 
L 184.415177 302.952443 
L 181.165057 303.14311 
L 177.914937 303.343078 
L 174.664816 303.553044 
L 173.364768 303.64 
z
" clip-path="url(#pcafaeeb968)" style="fill: #c5d6f2"/>
    <path d="M 194.165539 303.64 
L 197.415659 303.64 
L 200.665779 303.64 
L 203.9159 303.64 
L 207.16602 303.64 
L 210.137559 303.64 
L 210.416141 303.625386 
L 213.666261 303.458444 
L 216.916381 303.297802 
L 220.166502 303.14311 
L 223.416622 302.994043 
L 226.666743 302.850299 
L 229.916863 302.7116 
L 233.166983 302.577683 
L 236.417104 302.448306 
L 239.667224 302.323241 
L 242.917345 302.202277 
L 246.167465 302.085214 
L 249.417585 301.971868 
L 252.667706 301.862064 
L 255.917826 301.755639 
L 259.167947 301.652439 
L 262.418067 301.552319 
L 265.668187 301.455144 
L 268.918308 301.360786 
L 272.168428 301.269124 
L 275.418549 301.180043 
L 278.668669 301.093437 
L 281.918789 301.009204 
L 285.16891 300.927248 
L 288.41903 300.847477 
L 291.669151 300.769805 
L 293.712084 300.72202 
L 294.919271 300.665999 
L 298.169392 300.517826 
L 301.419512 300.373403 
L 304.669632 300.232592 
L 307.919753 300.095257 
L 311.169873 299.961271 
L 314.419994 299.830515 
L 317.670114 299.702871 
L 320.920234 299.578231 
L 324.170355 299.456489 
L 327.420475 299.337547 
L 330.670596 299.221307 
L 333.920716 299.107679 
L 337.170836 298.996577 
L 340.420957 298.887916 
L 343.671077 298.781618 
L 346.921198 298.677606 
L 350.171318 298.575806 
L 353.421438 298.47615 
L 356.671559 298.37857 
L 359.921679 298.283002 
L 363.1718 298.189384 
L 366.42192 298.097657 
L 366.42192 297.80404 
L 366.42192 296.625581 
L 363.1718 296.761837 
L 359.921679 296.900902 
L 356.671559 297.042865 
L 353.421438 297.187816 
L 350.171318 297.335851 
L 346.921198 297.48707 
L 343.671077 297.641576 
L 340.420957 297.799478 
L 340.328096 297.80404 
L 337.170836 297.897897 
L 333.920716 297.996655 
L 330.670596 298.097657 
L 327.420475 298.200981 
L 324.170355 298.306708 
L 320.920234 298.414923 
L 317.670114 298.525714 
L 314.419994 298.639175 
L 311.169873 298.755403 
L 307.919753 298.874502 
L 304.669632 298.996577 
L 301.419512 299.121743 
L 298.169392 299.250119 
L 294.919271 299.381828 
L 291.669151 299.517004 
L 288.41903 299.655785 
L 285.16891 299.798316 
L 281.918789 299.944753 
L 278.668669 300.095257 
L 275.418549 300.25 
L 272.168428 300.409165 
L 268.918308 300.572943 
L 266.03963 300.72202 
L 265.668187 300.73173 
L 262.418067 300.818108 
L 259.167947 300.907103 
L 255.917826 300.998837 
L 252.667706 301.093437 
L 249.417585 301.191041 
L 246.167465 301.291793 
L 242.917345 301.395848 
L 239.667224 301.503372 
L 236.417104 301.61454 
L 233.166983 301.729543 
L 229.916863 301.84858 
L 226.666743 301.971868 
L 223.416622 302.09964 
L 220.166502 302.232144 
L 216.916381 302.369648 
L 213.666261 302.512441 
L 210.416141 302.660834 
L 207.16602 302.815162 
L 203.9159 302.97579 
L 200.665779 303.14311 
L 197.415659 303.31755 
L 194.165539 303.499574 
L 191.751163 303.64 
z
" clip-path="url(#pcafaeeb968)" style="fill: #d5dbe5"/>
    <path d="M 210.416141 303.64 
L 213.666261 303.64 
L 216.916381 303.64 
L 220.166502 303.64 
L 223.416622 303.64 
L 226.666743 303.64 
L 228.523954 303.64 
L 229.916863 303.57462 
L 233.166983 303.425823 
L 236.417104 303.282071 
L 239.667224 303.14311 
L 242.917345 303.008705 
L 246.167465 302.878636 
L 249.417585 302.752696 
L 252.667706 302.630692 
L 255.917826 302.512441 
L 259.167947 302.397774 
L 262.418067 302.28653 
L 265.668187 302.178558 
L 268.918308 302.073715 
L 272.168428 301.971868 
L 275.418549 301.87289 
L 278.668669 301.776661 
L 281.918789 301.683069 
L 285.16891 301.592006 
L 288.41903 301.503372 
L 291.669151 301.41707 
L 294.919271 301.333009 
L 298.169392 301.251104 
L 301.419512 301.171273 
L 304.669632 301.093437 
L 307.919753 301.017524 
L 311.169873 300.943461 
L 314.419994 300.871184 
L 317.670114 300.800627 
L 320.920234 300.73173 
L 321.384537 300.72202 
L 324.170355 300.60627 
L 327.420475 300.474112 
L 330.670596 300.344957 
L 333.920716 300.218704 
L 337.170836 300.095257 
L 340.420957 299.974523 
L 343.671077 299.856413 
L 346.921198 299.740844 
L 350.171318 299.627733 
L 353.421438 299.517004 
L 356.671559 299.408582 
L 359.921679 299.302395 
L 363.1718 299.198375 
L 366.42192 299.096457 
L 366.42192 298.097657 
L 363.1718 298.189384 
L 359.921679 298.283002 
L 356.671559 298.37857 
L 353.421438 298.47615 
L 350.171318 298.575806 
L 346.921198 298.677606 
L 343.671077 298.781618 
L 340.420957 298.887916 
L 337.170836 298.996577 
L 333.920716 299.107679 
L 330.670596 299.221307 
L 327.420475 299.337547 
L 324.170355 299.456489 
L 320.920234 299.578231 
L 317.670114 299.702871 
L 314.419994 299.830515 
L 311.169873 299.961271 
L 307.919753 300.095257 
L 304.669632 300.232592 
L 301.419512 300.373403 
L 298.169392 300.517826 
L 294.919271 300.665999 
L 293.712084 300.72202 
L 291.669151 300.769805 
L 288.41903 300.847477 
L 285.16891 300.927248 
L 281.918789 301.009204 
L 278.668669 301.093437 
L 275.418549 301.180043 
L 272.168428 301.269124 
L 268.918308 301.360786 
L 265.668187 301.455144 
L 262.418067 301.552319 
L 259.167947 301.652439 
L 255.917826 301.755639 
L 252.667706 301.862064 
L 249.417585 301.971868 
L 246.167465 302.085214 
L 242.917345 302.202277 
L 239.667224 302.323241 
L 236.417104 302.448306 
L 233.166983 302.577683 
L 229.916863 302.7116 
L 226.666743 302.850299 
L 223.416622 302.994043 
L 220.166502 303.14311 
L 216.916381 303.297802 
L 213.666261 303.458444 
L 210.416141 303.625386 
L 210.137559 303.64 
z
" clip-path="url(#pcafaeeb968)" style="fill: #e4d9d2"/>
    <path d="M 229.916863 303.64 
L 233.166983 303.64 
L 236.417104 303.64 
L 239.667224 303.64 
L 242.917345 303.64 
L 246.167465 303.64 
L 246.91035 303.64 
L 249.417585 303.533524 
L 252.667706 303.399319 
L 255.917826 303.269243 
L 259.167947 303.14311 
L 262.418067 303.020741 
L 265.668187 302.901972 
L 268.918308 302.786645 
L 272.168428 302.674613 
L 275.418549 302.565737 
L 278.668669 302.459886 
L 281.918789 302.356934 
L 285.16891 302.256765 
L 288.41903 302.159267 
L 291.669151 302.064335 
L 294.919271 301.971868 
L 298.169392 301.881773 
L 301.419512 301.793958 
L 304.669632 301.708339 
L 307.919753 301.624834 
L 311.169873 301.543365 
L 314.419994 301.46386 
L 317.670114 301.386248 
L 320.920234 301.310461 
L 324.170355 301.236438 
L 327.420475 301.164116 
L 330.670596 301.093437 
L 333.920716 301.024347 
L 337.170836 300.956793 
L 340.420957 300.890722 
L 343.671077 300.826089 
L 346.921198 300.762845 
L 349.056991 300.72202 
L 350.171318 300.679661 
L 353.421438 300.557859 
L 356.671559 300.438594 
L 359.921679 300.321789 
L 363.1718 300.207367 
L 366.42192 300.095257 
L 366.42192 299.096457 
L 363.1718 299.198375 
L 359.921679 299.302395 
L 356.671559 299.408582 
L 353.421438 299.517004 
L 350.171318 299.627733 
L 346.921198 299.740844 
L 343.671077 299.856413 
L 340.420957 299.974523 
L 337.170836 300.095257 
L 333.920716 300.218704 
L 330.670596 300.344957 
L 327.420475 300.474112 
L 324.170355 300.60627 
L 321.384537 300.72202 
L 320.920234 300.73173 
L 317.670114 300.800627 
L 314.419994 300.871184 
L 311.169873 300.943461 
L 307.919753 301.017524 
L 304.669632 301.093437 
L 301.419512 301.171273 
L 298.169392 301.251104 
L 294.919271 301.333009 
L 291.669151 301.41707 
L 288.41903 301.503372 
L 285.16891 301.592006 
L 281.918789 301.683069 
L 278.668669 301.776661 
L 275.418549 301.87289 
L 272.168428 301.971868 
L 268.918308 302.073715 
L 265.668187 302.178558 
L 262.418067 302.28653 
L 259.167947 302.397774 
L 255.917826 302.512441 
L 252.667706 302.630692 
L 249.417585 302.752696 
L 246.167465 302.878636 
L 242.917345 303.008705 
L 239.667224 303.14311 
L 236.417104 303.282071 
L 233.166983 303.425823 
L 229.916863 303.57462 
L 228.523954 303.64 
z
" clip-path="url(#pcafaeeb968)" style="fill: #efcebd"/>
    <path d="M 249.417585 303.64 
L 252.667706 303.64 
L 255.917826 303.64 
L 259.167947 303.64 
L 262.418067 303.64 
L 265.296745 303.64 
L 265.668187 303.625386 
L 268.918308 303.499574 
L 272.168428 303.377358 
L 275.418549 303.258584 
L 278.668669 303.14311 
L 281.918789 303.030799 
L 285.16891 302.921524 
L 288.41903 302.815162 
L 291.669151 302.7116 
L 294.919271 302.610727 
L 298.169392 302.512441 
L 301.419512 302.416644 
L 304.669632 302.323241 
L 307.919753 302.232144 
L 311.169873 302.14327 
L 314.419994 302.056536 
L 317.670114 301.971868 
L 320.920234 301.889193 
L 324.170355 301.808439 
L 327.420475 301.729543 
L 330.670596 301.652439 
L 333.920716 301.577068 
L 337.170836 301.503372 
L 340.420957 301.431295 
L 343.671077 301.360786 
L 346.921198 301.291793 
L 350.171318 301.224267 
L 353.421438 301.158164 
L 356.671559 301.093437 
L 359.921679 301.030045 
L 363.1718 300.967947 
L 366.42192 300.907103 
L 366.42192 300.72202 
L 366.42192 300.095257 
L 363.1718 300.207367 
L 359.921679 300.321789 
L 356.671559 300.438594 
L 353.421438 300.557859 
L 350.171318 300.679661 
L 349.056991 300.72202 
L 346.921198 300.762845 
L 343.671077 300.826089 
L 340.420957 300.890722 
L 337.170836 300.956793 
L 333.920716 301.024347 
L 330.670596 301.093437 
L 327.420475 301.164116 
L 324.170355 301.236438 
L 320.920234 301.310461 
L 317.670114 301.386248 
L 314.419994 301.46386 
L 311.169873 301.543365 
L 307.919753 301.624834 
L 304.669632 301.708339 
L 301.419512 301.793958 
L 298.169392 301.881773 
L 294.919271 301.971868 
L 291.669151 302.064335 
L 288.41903 302.159267 
L 285.16891 302.256765 
L 281.918789 302.356934 
L 278.668669 302.459886 
L 275.418549 302.565737 
L 272.168428 302.674613 
L 268.918308 302.786645 
L 265.668187 302.901972 
L 262.418067 303.020741 
L 259.167947 303.14311 
L 255.917826 303.269243 
L 252.667706 303.399319 
L 249.417585 303.533524 
L 246.91035 303.64 
z
" clip-path="url(#pcafaeeb968)" style="fill: #f5c0a7"/>
    <path d="M 265.668187 303.64 
L 268.918308 303.64 
L 272.168428 303.64 
L 275.418549 303.64 
L 278.668669 303.64 
L 281.918789 303.64 
L 283.683141 303.64 
L 285.16891 303.586282 
L 288.41903 303.471057 
L 291.669151 303.358865 
L 294.919271 303.249586 
L 298.169392 303.14311 
L 301.419512 303.039329 
L 304.669632 302.938142 
L 307.919753 302.839455 
L 311.169873 302.743174 
L 314.419994 302.649213 
L 317.670114 302.557489 
L 320.920234 302.467924 
L 324.170355 302.380441 
L 327.420475 302.294969 
L 330.670596 302.21144 
L 333.920716 302.129789 
L 337.170836 302.049951 
L 340.420957 301.971868 
L 343.671077 301.895483 
L 346.921198 301.82074 
L 350.171318 301.747588 
L 353.421438 301.675976 
L 356.671559 301.605855 
L 359.921679 301.537181 
L 363.1718 301.469908 
L 366.42192 301.403994 
L 366.42192 300.907103 
L 363.1718 300.967947 
L 359.921679 301.030045 
L 356.671559 301.093437 
L 353.421438 301.158164 
L 350.171318 301.224267 
L 346.921198 301.291793 
L 343.671077 301.360786 
L 340.420957 301.431295 
L 337.170836 301.503372 
L 333.920716 301.577068 
L 330.670596 301.652439 
L 327.420475 301.729543 
L 324.170355 301.808439 
L 320.920234 301.889193 
L 317.670114 301.971868 
L 314.419994 302.056536 
L 311.169873 302.14327 
L 307.919753 302.232144 
L 304.669632 302.323241 
L 301.419512 302.416644 
L 298.169392 302.512441 
L 294.919271 302.610727 
L 291.669151 302.7116 
L 288.41903 302.815162 
L 285.16891 302.921524 
L 281.918789 303.030799 
L 278.668669 303.14311 
L 275.418549 303.258584 
L 272.168428 303.377358 
L 268.918308 303.499574 
L 265.668187 303.625386 
L 265.296745 303.64 
z
" clip-path="url(#pcafaeeb968)" style="fill: #f7af91"/>
    <path d="M 285.16891 303.64 
L 288.41903 303.64 
L 291.669151 303.64 
L 294.919271 303.64 
L 298.169392 303.64 
L 301.419512 303.64 
L 302.069536 303.64 
L 304.669632 303.553044 
L 307.919753 303.446765 
L 311.169873 303.343078 
L 314.419994 303.241889 
L 317.670114 303.14311 
L 320.920234 303.046655 
L 324.170355 302.952443 
L 327.420475 302.860396 
L 330.670596 302.770442 
L 333.920716 302.682509 
L 337.170836 302.59653 
L 340.420957 302.512441 
L 343.671077 302.43018 
L 346.921198 302.349688 
L 350.171318 302.270909 
L 353.421438 302.193788 
L 356.671559 302.118274 
L 359.921679 302.044316 
L 363.1718 301.971868 
L 366.42192 301.900884 
L 366.42192 301.403994 
L 363.1718 301.469908 
L 359.921679 301.537181 
L 356.671559 301.605855 
L 353.421438 301.675976 
L 350.171318 301.747588 
L 346.921198 301.82074 
L 343.671077 301.895483 
L 340.420957 301.971868 
L 337.170836 302.049951 
L 333.920716 302.129789 
L 330.670596 302.21144 
L 327.420475 302.294969 
L 324.170355 302.380441 
L 320.920234 302.467924 
L 317.670114 302.557489 
L 314.419994 302.649213 
L 311.169873 302.743174 
L 307.919753 302.839455 
L 304.669632 302.938142 
L 301.419512 303.039329 
L 298.169392 303.14311 
L 294.919271 303.249586 
L 291.669151 303.358865 
L 288.41903 303.471057 
L 285.16891 303.586282 
L 283.683141 303.64 
z
" clip-path="url(#pcafaeeb968)" style="fill: #f4987a"/>
    <path d="M 304.669632 303.64 
L 307.919753 303.64 
L 311.169873 303.64 
L 314.419994 303.64 
L 317.670114 303.64 
L 320.455931 303.64 
L 320.920234 303.625386 
L 324.170355 303.524444 
L 327.420475 303.425823 
L 330.670596 303.329444 
L 333.920716 303.23523 
L 337.170836 303.14311 
L 340.420957 303.053014 
L 343.671077 302.964877 
L 346.921198 302.878636 
L 350.171318 302.794229 
L 353.421438 302.7116 
L 356.671559 302.630692 
L 359.921679 302.551452 
L 363.1718 302.473829 
L 366.42192 302.397774 
L 366.42192 301.900884 
L 363.1718 301.971868 
L 359.921679 302.044316 
L 356.671559 302.118274 
L 353.421438 302.193788 
L 350.171318 302.270909 
L 346.921198 302.349688 
L 343.671077 302.43018 
L 340.420957 302.512441 
L 337.170836 302.59653 
L 333.920716 302.682509 
L 330.670596 302.770442 
L 327.420475 302.860396 
L 324.170355 302.952443 
L 320.920234 303.046655 
L 317.670114 303.14311 
L 314.419994 303.241889 
L 311.169873 303.343078 
L 307.919753 303.446765 
L 304.669632 303.553044 
L 302.069536 303.64 
z
" clip-path="url(#pcafaeeb968)" style="fill: #ec8165"/>
    <path d="M 320.920234 303.64 
L 324.170355 303.64 
L 327.420475 303.64 
L 330.670596 303.64 
L 333.920716 303.64 
L 337.170836 303.64 
L 338.842327 303.64 
L 340.420957 303.593587 
L 343.671077 303.499574 
L 346.921198 303.407584 
L 350.171318 303.31755 
L 353.421438 303.229412 
L 356.671559 303.14311 
L 359.921679 303.058587 
L 363.1718 302.97579 
L 366.42192 302.894665 
L 366.42192 302.397774 
L 363.1718 302.473829 
L 359.921679 302.551452 
L 356.671559 302.630692 
L 353.421438 302.7116 
L 350.171318 302.794229 
L 346.921198 302.878636 
L 343.671077 302.964877 
L 340.420957 303.053014 
L 337.170836 303.14311 
L 333.920716 303.23523 
L 330.670596 303.329444 
L 327.420475 303.425823 
L 324.170355 303.524444 
L 320.920234 303.625386 
L 320.455931 303.64 
z
" clip-path="url(#pcafaeeb968)" style="fill: #e16751"/>
    <path d="M 340.420957 303.64 
L 343.671077 303.64 
L 346.921198 303.64 
L 350.171318 303.64 
L 353.421438 303.64 
L 356.671559 303.64 
L 357.228722 303.64 
L 359.921679 303.565723 
L 363.1718 303.47775 
L 366.42192 303.391555 
L 366.42192 302.894665 
L 363.1718 302.97579 
L 359.921679 303.058587 
L 356.671559 303.14311 
L 353.421438 303.229412 
L 350.171318 303.31755 
L 346.921198 303.407584 
L 343.671077 303.499574 
L 340.420957 303.593587 
L 338.842327 303.64 
z
" clip-path="url(#pcafaeeb968)" style="fill: #d1493f"/>
    <path d="M 359.921679 303.64 
L 363.1718 303.64 
L 366.42192 303.64 
L 366.42192 303.391555 
L 363.1718 303.47775 
L 359.921679 303.565723 
L 357.228722 303.64 
z
" clip-path="url(#pcafaeeb968)" style="fill: #be242e"/>
   </g>
   <g id="matplotlib.axis_1">
    <g id="xtick_1">
     <g id="line2d_1">
      <defs>
       <path id="m0a7e880c13" d="M 0 0 
L 0 3.5 
" style="stroke: #000000; stroke-width: 0.8"/>
      </defs>
      <g>
       <use xlink:href="#m0a7e880c13" x="44.66" y="303.64" style="stroke: #000000; stroke-width: 0.8"/>
      </g>
     </g>
     <g id="text_1">
      <!-- 0.0 -->
      <g transform="translate(36.708438 318.238437) scale(0.1 -0.1)">
       <defs>
        <path id="DejaVuSans-30" d="M 2034 4250 
Q 1547 4250 1301 3770 
Q 1056 3291 1056 2328 
Q 1056 1369 1301 889 
Q 1547 409 2034 409 
Q 2525 409 2770 889 
Q 3016 1369 3016 2328 
Q 3016 3291 2770 3770 
Q 2525 4250 2034 4250 
z
M 2034 4750 
Q 2819 4750 3233 4129 
Q 3647 3509 3647 2328 
Q 3647 1150 3233 529 
Q 2819 -91 2034 -91 
Q 1250 -91 836 529 
Q 422 1150 422 2328 
Q 422 3509 836 4129 
Q 1250 4750 2034 4750 
z
" transform="scale(0.015625)"/>
        <path id="DejaVuSans-2e" d="M 684 794 
L 1344 794 
L 1344 0 
L 684 0 
L 684 794 
z
" transform="scale(0.015625)"/>
       </defs>
       <use xlink:href="#DejaVuSans-30"/>
       <use xlink:href="#DejaVuSans-2e" x="63.623047"/>
       <use xlink:href="#DejaVuSans-30" x="95.410156"/>
      </g>
     </g>
    </g>
    <g id="xtick_2">
     <g id="line2d_2">
      <g>
       <use xlink:href="#m0a7e880c13" x="90.625989" y="303.64" style="stroke: #000000; stroke-width: 0.8"/>
      </g>
     </g>
     <g id="text_2">
      <!-- 0.1 -->
      <g transform="translate(82.674426 318.238437) scale(0.1 -0.1)">
       <defs>
        <path id="DejaVuSans-31" d="M 794 531 
L 1825 531 
L 1825 4091 
L 703 3866 
L 703 4441 
L 1819 4666 
L 2450 4666 
L 2450 531 
L 3481 531 
L 3481 0 
L 794 0 
L 794 531 
z
" transform="scale(0.015625)"/>
       </defs>
       <use xlink:href="#DejaVuSans-30"/>
       <use xlink:href="#DejaVuSans-2e" x="63.623047"/>
       <use xlink:href="#DejaVuSans-31" x="95.410156"/>
      </g>
     </g>
    </g>
    <g id="xtick_3">
     <g id="line2d_3">
      <g>
       <use xlink:href="#m0a7e880c13" x="136.591977" y="303.64" style="stroke: #000000; stroke-width: 0.8"/>
      </g>
     </g>
     <g id="text_3">
      <!-- 0.2 -->
      <g transform="translate(128.640415 318.238437) scale(0.1 -0.1)">
       <defs>
        <path id="DejaVuSans-32" d="M 1228 531 
L 3431 531 
L 3431 0 
L 469 0 
L 469 531 
Q 828 903 1448 1529 
Q 2069 2156 2228 2338 
Q 2531 2678 2651 2914 
Q 2772 3150 2772 3378 
Q 2772 3750 2511 3984 
Q 2250 4219 1831 4219 
Q 1534 4219 1204 4116 
Q 875 4013 500 3803 
L 500 4441 
Q 881 4594 1212 4672 
Q 1544 4750 1819 4750 
Q 2544 4750 2975 4387 
Q 3406 4025 3406 3419 
Q 3406 3131 3298 2873 
Q 3191 2616 2906 2266 
Q 2828 2175 2409 1742 
Q 1991 1309 1228 531 
z
" transform="scale(0.015625)"/>
       </defs>
       <use xlink:href="#DejaVuSans-30"/>
       <use xlink:href="#DejaVuSans-2e" x="63.623047"/>
       <use xlink:href="#DejaVuSans-32" x="95.410156"/>
      </g>
     </g>
    </g>
    <g id="xtick_4">
     <g id="line2d_4">
      <g>
       <use xlink:href="#m0a7e880c13" x="182.557966" y="303.64" style="stroke: #000000; stroke-width: 0.8"/>
      </g>
     </g>
     <g id="text_4">
      <!-- 0.3 -->
      <g transform="translate(174.606403 318.238437) scale(0.1 -0.1)">
       <defs>
        <path id="DejaVuSans-33" d="M 2597 2516 
Q 3050 2419 3304 2112 
Q 3559 1806 3559 1356 
Q 3559 666 3084 287 
Q 2609 -91 1734 -91 
Q 1441 -91 1130 -33 
Q 819 25 488 141 
L 488 750 
Q 750 597 1062 519 
Q 1375 441 1716 441 
Q 2309 441 2620 675 
Q 2931 909 2931 1356 
Q 2931 1769 2642 2001 
Q 2353 2234 1838 2234 
L 1294 2234 
L 1294 2753 
L 1863 2753 
Q 2328 2753 2575 2939 
Q 2822 3125 2822 3475 
Q 2822 3834 2567 4026 
Q 2313 4219 1838 4219 
Q 1578 4219 1281 4162 
Q 984 4106 628 3988 
L 628 4550 
Q 988 4650 1302 4700 
Q 1616 4750 1894 4750 
Q 2613 4750 3031 4423 
Q 3450 4097 3450 3541 
Q 3450 3153 3228 2886 
Q 3006 2619 2597 2516 
z
" transform="scale(0.015625)"/>
       </defs>
       <use xlink:href="#DejaVuSans-30"/>
       <use xlink:href="#DejaVuSans-2e" x="63.623047"/>
       <use xlink:href="#DejaVuSans-33" x="95.410156"/>
      </g>
     </g>
    </g>
    <g id="xtick_5">
     <g id="line2d_5">
      <g>
       <use xlink:href="#m0a7e880c13" x="228.523954" y="303.64" style="stroke: #000000; stroke-width: 0.8"/>
      </g>
     </g>
     <g id="text_5">
      <!-- 0.4 -->
      <g transform="translate(220.572392 318.238437) scale(0.1 -0.1)">
       <defs>
        <path id="DejaVuSans-34" d="M 2419 4116 
L 825 1625 
L 2419 1625 
L 2419 4116 
z
M 2253 4666 
L 3047 4666 
L 3047 1625 
L 3713 1625 
L 3713 1100 
L 3047 1100 
L 3047 0 
L 2419 0 
L 2419 1100 
L 313 1100 
L 313 1709 
L 2253 4666 
z
" transform="scale(0.015625)"/>
       </defs>
       <use xlink:href="#DejaVuSans-30"/>
       <use xlink:href="#DejaVuSans-2e" x="63.623047"/>
       <use xlink:href="#DejaVuSans-34" x="95.410156"/>
      </g>
     </g>
    </g>
    <g id="xtick_6">
     <g id="line2d_6">
      <g>
       <use xlink:href="#m0a7e880c13" x="274.489943" y="303.64" style="stroke: #000000; stroke-width: 0.8"/>
      </g>
     </g>
     <g id="text_6">
      <!-- 0.5 -->
      <g transform="translate(266.53838 318.238437) scale(0.1 -0.1)">
       <defs>
        <path id="DejaVuSans-35" d="M 691 4666 
L 3169 4666 
L 3169 4134 
L 1269 4134 
L 1269 2991 
Q 1406 3038 1543 3061 
Q 1681 3084 1819 3084 
Q 2600 3084 3056 2656 
Q 3513 2228 3513 1497 
Q 3513 744 3044 326 
Q 2575 -91 1722 -91 
Q 1428 -91 1123 -41 
Q 819 9 494 109 
L 494 744 
Q 775 591 1075 516 
Q 1375 441 1709 441 
Q 2250 441 2565 725 
Q 2881 1009 2881 1497 
Q 2881 1984 2565 2268 
Q 2250 2553 1709 2553 
Q 1456 2553 1204 2497 
Q 953 2441 691 2322 
L 691 4666 
z
" transform="scale(0.015625)"/>
       </defs>
       <use xlink:href="#DejaVuSans-30"/>
       <use xlink:href="#DejaVuSans-2e" x="63.623047"/>
       <use xlink:href="#DejaVuSans-35" x="95.410156"/>
      </g>
     </g>
    </g>
    <g id="xtick_7">
     <g id="line2d_7">
      <g>
       <use xlink:href="#m0a7e880c13" x="320.455931" y="303.64" style="stroke: #000000; stroke-width: 0.8"/>
      </g>
     </g>
     <g id="text_7">
      <!-- 0.6 -->
      <g transform="translate(312.504369 318.238437) scale(0.1 -0.1)">
       <defs>
        <path id="DejaVuSans-36" d="M 2113 2584 
Q 1688 2584 1439 2293 
Q 1191 2003 1191 1497 
Q 1191 994 1439 701 
Q 1688 409 2113 409 
Q 2538 409 2786 701 
Q 3034 994 3034 1497 
Q 3034 2003 2786 2293 
Q 2538 2584 2113 2584 
z
M 3366 4563 
L 3366 3988 
Q 3128 4100 2886 4159 
Q 2644 4219 2406 4219 
Q 1781 4219 1451 3797 
Q 1122 3375 1075 2522 
Q 1259 2794 1537 2939 
Q 1816 3084 2150 3084 
Q 2853 3084 3261 2657 
Q 3669 2231 3669 1497 
Q 3669 778 3244 343 
Q 2819 -91 2113 -91 
Q 1303 -91 875 529 
Q 447 1150 447 2328 
Q 447 3434 972 4092 
Q 1497 4750 2381 4750 
Q 2619 4750 2861 4703 
Q 3103 4656 3366 4563 
z
" transform="scale(0.015625)"/>
       </defs>
       <use xlink:href="#DejaVuSans-30"/>
       <use xlink:href="#DejaVuSans-2e" x="63.623047"/>
       <use xlink:href="#DejaVuSans-36" x="95.410156"/>
      </g>
     </g>
    </g>
    <g id="xtick_8">
     <g id="line2d_8">
      <g>
       <use xlink:href="#m0a7e880c13" x="366.42192" y="303.64" style="stroke: #000000; stroke-width: 0.8"/>
      </g>
     </g>
     <g id="text_8">
      <!-- 0.7 -->
      <g transform="translate(358.470357 318.238437) scale(0.1 -0.1)">
       <defs>
        <path id="DejaVuSans-37" d="M 525 4666 
L 3525 4666 
L 3525 4397 
L 1831 0 
L 1172 0 
L 2766 4134 
L 525 4134 
L 525 4666 
z
" transform="scale(0.015625)"/>
       </defs>
       <use xlink:href="#DejaVuSans-30"/>
       <use xlink:href="#DejaVuSans-2e" x="63.623047"/>
       <use xlink:href="#DejaVuSans-37" x="95.410156"/>
      </g>
     </g>
    </g>
    <g id="text_9">
     <!-- Per capita growth rate  [1/h] -->
     <g transform="translate(131.561272 331.916562) scale(0.1 -0.1)">
      <defs>
       <path id="DejaVuSans-50" d="M 1259 4147 
L 1259 2394 
L 2053 2394 
Q 2494 2394 2734 2622 
Q 2975 2850 2975 3272 
Q 2975 3691 2734 3919 
Q 2494 4147 2053 4147 
L 1259 4147 
z
M 628 4666 
L 2053 4666 
Q 2838 4666 3239 4311 
Q 3641 3956 3641 3272 
Q 3641 2581 3239 2228 
Q 2838 1875 2053 1875 
L 1259 1875 
L 1259 0 
L 628 0 
L 628 4666 
z
" transform="scale(0.015625)"/>
       <path id="DejaVuSans-65" d="M 3597 1894 
L 3597 1613 
L 953 1613 
Q 991 1019 1311 708 
Q 1631 397 2203 397 
Q 2534 397 2845 478 
Q 3156 559 3463 722 
L 3463 178 
Q 3153 47 2828 -22 
Q 2503 -91 2169 -91 
Q 1331 -91 842 396 
Q 353 884 353 1716 
Q 353 2575 817 3079 
Q 1281 3584 2069 3584 
Q 2775 3584 3186 3129 
Q 3597 2675 3597 1894 
z
M 3022 2063 
Q 3016 2534 2758 2815 
Q 2500 3097 2075 3097 
Q 1594 3097 1305 2825 
Q 1016 2553 972 2059 
L 3022 2063 
z
" transform="scale(0.015625)"/>
       <path id="DejaVuSans-72" d="M 2631 2963 
Q 2534 3019 2420 3045 
Q 2306 3072 2169 3072 
Q 1681 3072 1420 2755 
Q 1159 2438 1159 1844 
L 1159 0 
L 581 0 
L 581 3500 
L 1159 3500 
L 1159 2956 
Q 1341 3275 1631 3429 
Q 1922 3584 2338 3584 
Q 2397 3584 2469 3576 
Q 2541 3569 2628 3553 
L 2631 2963 
z
" transform="scale(0.015625)"/>
       <path id="DejaVuSans-20" transform="scale(0.015625)"/>
       <path id="DejaVuSans-63" d="M 3122 3366 
L 3122 2828 
Q 2878 2963 2633 3030 
Q 2388 3097 2138 3097 
Q 1578 3097 1268 2742 
Q 959 2388 959 1747 
Q 959 1106 1268 751 
Q 1578 397 2138 397 
Q 2388 397 2633 464 
Q 2878 531 3122 666 
L 3122 134 
Q 2881 22 2623 -34 
Q 2366 -91 2075 -91 
Q 1284 -91 818 406 
Q 353 903 353 1747 
Q 353 2603 823 3093 
Q 1294 3584 2113 3584 
Q 2378 3584 2631 3529 
Q 2884 3475 3122 3366 
z
" transform="scale(0.015625)"/>
       <path id="DejaVuSans-61" d="M 2194 1759 
Q 1497 1759 1228 1600 
Q 959 1441 959 1056 
Q 959 750 1161 570 
Q 1363 391 1709 391 
Q 2188 391 2477 730 
Q 2766 1069 2766 1631 
L 2766 1759 
L 2194 1759 
z
M 3341 1997 
L 3341 0 
L 2766 0 
L 2766 531 
Q 2569 213 2275 61 
Q 1981 -91 1556 -91 
Q 1019 -91 701 211 
Q 384 513 384 1019 
Q 384 1609 779 1909 
Q 1175 2209 1959 2209 
L 2766 2209 
L 2766 2266 
Q 2766 2663 2505 2880 
Q 2244 3097 1772 3097 
Q 1472 3097 1187 3025 
Q 903 2953 641 2809 
L 641 3341 
Q 956 3463 1253 3523 
Q 1550 3584 1831 3584 
Q 2591 3584 2966 3190 
Q 3341 2797 3341 1997 
z
" transform="scale(0.015625)"/>
       <path id="DejaVuSans-70" d="M 1159 525 
L 1159 -1331 
L 581 -1331 
L 581 3500 
L 1159 3500 
L 1159 2969 
Q 1341 3281 1617 3432 
Q 1894 3584 2278 3584 
Q 2916 3584 3314 3078 
Q 3713 2572 3713 1747 
Q 3713 922 3314 415 
Q 2916 -91 2278 -91 
Q 1894 -91 1617 61 
Q 1341 213 1159 525 
z
M 3116 1747 
Q 3116 2381 2855 2742 
Q 2594 3103 2138 3103 
Q 1681 3103 1420 2742 
Q 1159 2381 1159 1747 
Q 1159 1113 1420 752 
Q 1681 391 2138 391 
Q 2594 391 2855 752 
Q 3116 1113 3116 1747 
z
" transform="scale(0.015625)"/>
       <path id="DejaVuSans-69" d="M 603 3500 
L 1178 3500 
L 1178 0 
L 603 0 
L 603 3500 
z
M 603 4863 
L 1178 4863 
L 1178 4134 
L 603 4134 
L 603 4863 
z
" transform="scale(0.015625)"/>
       <path id="DejaVuSans-74" d="M 1172 4494 
L 1172 3500 
L 2356 3500 
L 2356 3053 
L 1172 3053 
L 1172 1153 
Q 1172 725 1289 603 
Q 1406 481 1766 481 
L 2356 481 
L 2356 0 
L 1766 0 
Q 1100 0 847 248 
Q 594 497 594 1153 
L 594 3053 
L 172 3053 
L 172 3500 
L 594 3500 
L 594 4494 
L 1172 4494 
z
" transform="scale(0.015625)"/>
       <path id="DejaVuSans-67" d="M 2906 1791 
Q 2906 2416 2648 2759 
Q 2391 3103 1925 3103 
Q 1463 3103 1205 2759 
Q 947 2416 947 1791 
Q 947 1169 1205 825 
Q 1463 481 1925 481 
Q 2391 481 2648 825 
Q 2906 1169 2906 1791 
z
M 3481 434 
Q 3481 -459 3084 -895 
Q 2688 -1331 1869 -1331 
Q 1566 -1331 1297 -1286 
Q 1028 -1241 775 -1147 
L 775 -588 
Q 1028 -725 1275 -790 
Q 1522 -856 1778 -856 
Q 2344 -856 2625 -561 
Q 2906 -266 2906 331 
L 2906 616 
Q 2728 306 2450 153 
Q 2172 0 1784 0 
Q 1141 0 747 490 
Q 353 981 353 1791 
Q 353 2603 747 3093 
Q 1141 3584 1784 3584 
Q 2172 3584 2450 3431 
Q 2728 3278 2906 2969 
L 2906 3500 
L 3481 3500 
L 3481 434 
z
" transform="scale(0.015625)"/>
       <path id="DejaVuSans-6f" d="M 1959 3097 
Q 1497 3097 1228 2736 
Q 959 2375 959 1747 
Q 959 1119 1226 758 
Q 1494 397 1959 397 
Q 2419 397 2687 759 
Q 2956 1122 2956 1747 
Q 2956 2369 2687 2733 
Q 2419 3097 1959 3097 
z
M 1959 3584 
Q 2709 3584 3137 3096 
Q 3566 2609 3566 1747 
Q 3566 888 3137 398 
Q 2709 -91 1959 -91 
Q 1206 -91 779 398 
Q 353 888 353 1747 
Q 353 2609 779 3096 
Q 1206 3584 1959 3584 
z
" transform="scale(0.015625)"/>
       <path id="DejaVuSans-77" d="M 269 3500 
L 844 3500 
L 1563 769 
L 2278 3500 
L 2956 3500 
L 3675 769 
L 4391 3500 
L 4966 3500 
L 4050 0 
L 3372 0 
L 2619 2869 
L 1863 0 
L 1184 0 
L 269 3500 
z
" transform="scale(0.015625)"/>
       <path id="DejaVuSans-68" d="M 3513 2113 
L 3513 0 
L 2938 0 
L 2938 2094 
Q 2938 2591 2744 2837 
Q 2550 3084 2163 3084 
Q 1697 3084 1428 2787 
Q 1159 2491 1159 1978 
L 1159 0 
L 581 0 
L 581 4863 
L 1159 4863 
L 1159 2956 
Q 1366 3272 1645 3428 
Q 1925 3584 2291 3584 
Q 2894 3584 3203 3211 
Q 3513 2838 3513 2113 
z
" transform="scale(0.015625)"/>
       <path id="DejaVuSans-b5" d="M 544 -1331 
L 544 3500 
L 1119 3500 
L 1119 1325 
Q 1119 872 1334 640 
Q 1550 409 1972 409 
Q 2434 409 2667 671 
Q 2900 934 2900 1459 
L 2900 3500 
L 3475 3500 
L 3475 806 
Q 3475 619 3529 530 
Q 3584 441 3700 441 
Q 3728 441 3778 458 
Q 3828 475 3916 513 
L 3916 50 
Q 3788 -22 3673 -56 
Q 3559 -91 3450 -91 
Q 3234 -91 3106 31 
Q 2978 153 2931 403 
Q 2775 156 2548 32 
Q 2322 -91 2016 -91 
Q 1697 -91 1473 31 
Q 1250 153 1119 397 
L 1119 -1331 
L 544 -1331 
z
" transform="scale(0.015625)"/>
       <path id="DejaVuSans-5b" d="M 550 4863 
L 1875 4863 
L 1875 4416 
L 1125 4416 
L 1125 -397 
L 1875 -397 
L 1875 -844 
L 550 -844 
L 550 4863 
z
" transform="scale(0.015625)"/>
       <path id="DejaVuSans-2f" d="M 1625 4666 
L 2156 4666 
L 531 -594 
L 0 -594 
L 1625 4666 
z
" transform="scale(0.015625)"/>
       <path id="DejaVuSans-5d" d="M 1947 4863 
L 1947 -844 
L 622 -844 
L 622 -397 
L 1369 -397 
L 1369 4416 
L 622 4416 
L 622 4863 
L 1947 4863 
z
" transform="scale(0.015625)"/>
      </defs>
      <use xlink:href="#DejaVuSans-50"/>
      <use xlink:href="#DejaVuSans-65" x="56.677734"/>
      <use xlink:href="#DejaVuSans-72" x="118.201172"/>
      <use xlink:href="#DejaVuSans-20" x="159.314453"/>
      <use xlink:href="#DejaVuSans-63" x="191.101562"/>
      <use xlink:href="#DejaVuSans-61" x="246.082031"/>
      <use xlink:href="#DejaVuSans-70" x="307.361328"/>
      <use xlink:href="#DejaVuSans-69" x="370.837891"/>
      <use xlink:href="#DejaVuSans-74" x="398.621094"/>
      <use xlink:href="#DejaVuSans-61" x="437.830078"/>
      <use xlink:href="#DejaVuSans-20" x="499.109375"/>
      <use xlink:href="#DejaVuSans-67" x="530.896484"/>
      <use xlink:href="#DejaVuSans-72" x="594.373047"/>
      <use xlink:href="#DejaVuSans-6f" x="633.236328"/>
      <use xlink:href="#DejaVuSans-77" x="694.417969"/>
      <use xlink:href="#DejaVuSans-74" x="776.205078"/>
      <use xlink:href="#DejaVuSans-68" x="815.414062"/>
      <use xlink:href="#DejaVuSans-20" x="878.792969"/>
      <use xlink:href="#DejaVuSans-72" x="910.580078"/>
      <use xlink:href="#DejaVuSans-61" x="951.693359"/>
      <use xlink:href="#DejaVuSans-74" x="1012.972656"/>
      <use xlink:href="#DejaVuSans-65" x="1052.181641"/>
      <use xlink:href="#DejaVuSans-20" x="1113.705078"/>
      <use xlink:href="#DejaVuSans-b5" x="1145.492188"/>
      <use xlink:href="#DejaVuSans-20" x="1209.115234"/>
      <use xlink:href="#DejaVuSans-5b" x="1240.902344"/>
      <use xlink:href="#DejaVuSans-31" x="1279.916016"/>
      <use xlink:href="#DejaVuSans-2f" x="1343.539062"/>
      <use xlink:href="#DejaVuSans-68" x="1377.230469"/>
      <use xlink:href="#DejaVuSans-5d" x="1440.609375"/>
     </g>
    </g>
   </g>
   <g id="matplotlib.axis_2">
    <g id="ytick_1">
     <g id="line2d_9">
      <defs>
       <path id="m5523a6d510" d="M 0 0 
L -3.5 0 
" style="stroke: #000000; stroke-width: 0.8"/>
      </defs>
      <g>
       <use xlink:href="#m5523a6d510" x="44.66" y="303.64" style="stroke: #000000; stroke-width: 0.8"/>
      </g>
     </g>
     <g id="text_10">
      <!-- 0 -->
      <g transform="translate(31.2975 307.439219) scale(0.1 -0.1)">
       <use xlink:href="#DejaVuSans-30"/>
      </g>
     </g>
    </g>
    <g id="ytick_2">
     <g id="line2d_10">
      <g>
       <use xlink:href="#m5523a6d510" x="44.66" y="267.53" style="stroke: #000000; stroke-width: 0.8"/>
      </g>
     </g>
     <g id="text_11">
      <!-- 2 -->
      <g transform="translate(31.2975 271.329219) scale(0.1 -0.1)">
       <use xlink:href="#DejaVuSans-32"/>
      </g>
     </g>
    </g>
    <g id="ytick_3">
     <g id="line2d_11">
      <g>
       <use xlink:href="#m5523a6d510" x="44.66" y="231.42" style="stroke: #000000; stroke-width: 0.8"/>
      </g>
     </g>
     <g id="text_12">
      <!-- 4 -->
      <g transform="translate(31.2975 235.219219) scale(0.1 -0.1)">
       <use xlink:href="#DejaVuSans-34"/>
      </g>
     </g>
    </g>
    <g id="ytick_4">
     <g id="line2d_12">
      <g>
       <use xlink:href="#m5523a6d510" x="44.66" y="195.31" style="stroke: #000000; stroke-width: 0.8"/>
      </g>
     </g>
     <g id="text_13">
      <!-- 6 -->
      <g transform="translate(31.2975 199.109219) scale(0.1 -0.1)">
       <use xlink:href="#DejaVuSans-36"/>
      </g>
     </g>
    </g>
    <g id="ytick_5">
     <g id="line2d_13">
      <g>
       <use xlink:href="#m5523a6d510" x="44.66" y="159.2" style="stroke: #000000; stroke-width: 0.8"/>
      </g>
     </g>
     <g id="text_14">
      <!-- 8 -->
      <g transform="translate(31.2975 162.999219) scale(0.1 -0.1)">
       <defs>
        <path id="DejaVuSans-38" d="M 2034 2216 
Q 1584 2216 1326 1975 
Q 1069 1734 1069 1313 
Q 1069 891 1326 650 
Q 1584 409 2034 409 
Q 2484 409 2743 651 
Q 3003 894 3003 1313 
Q 3003 1734 2745 1975 
Q 2488 2216 2034 2216 
z
M 1403 2484 
Q 997 2584 770 2862 
Q 544 3141 544 3541 
Q 544 4100 942 4425 
Q 1341 4750 2034 4750 
Q 2731 4750 3128 4425 
Q 3525 4100 3525 3541 
Q 3525 3141 3298 2862 
Q 3072 2584 2669 2484 
Q 3125 2378 3379 2068 
Q 3634 1759 3634 1313 
Q 3634 634 3220 271 
Q 2806 -91 2034 -91 
Q 1263 -91 848 271 
Q 434 634 434 1313 
Q 434 1759 690 2068 
Q 947 2378 1403 2484 
z
M 1172 3481 
Q 1172 3119 1398 2916 
Q 1625 2713 2034 2713 
Q 2441 2713 2670 2916 
Q 2900 3119 2900 3481 
Q 2900 3844 2670 4047 
Q 2441 4250 2034 4250 
Q 1625 4250 1398 4047 
Q 1172 3844 1172 3481 
z
" transform="scale(0.015625)"/>
       </defs>
       <use xlink:href="#DejaVuSans-38"/>
      </g>
     </g>
    </g>
    <g id="ytick_6">
     <g id="line2d_14">
      <g>
       <use xlink:href="#m5523a6d510" x="44.66" y="123.09" style="stroke: #000000; stroke-width: 0.8"/>
      </g>
     </g>
     <g id="text_15">
      <!-- 10 -->
      <g transform="translate(24.935 126.889219) scale(0.1 -0.1)">
       <use xlink:href="#DejaVuSans-31"/>
       <use xlink:href="#DejaVuSans-30" x="63.623047"/>
      </g>
     </g>
    </g>
    <g id="ytick_7">
     <g id="line2d_15">
      <g>
       <use xlink:href="#m5523a6d510" x="44.66" y="86.98" style="stroke: #000000; stroke-width: 0.8"/>
      </g>
     </g>
     <g id="text_16">
      <!-- 12 -->
      <g transform="translate(24.935 90.779219) scale(0.1 -0.1)">
       <use xlink:href="#DejaVuSans-31"/>
       <use xlink:href="#DejaVuSans-32" x="63.623047"/>
      </g>
     </g>
    </g>
    <g id="ytick_8">
     <g id="line2d_16">
      <g>
       <use xlink:href="#m5523a6d510" x="44.66" y="50.87" style="stroke: #000000; stroke-width: 0.8"/>
      </g>
     </g>
     <g id="text_17">
      <!-- 14 -->
      <g transform="translate(24.935 54.669219) scale(0.1 -0.1)">
       <use xlink:href="#DejaVuSans-31"/>
       <use xlink:href="#DejaVuSans-34" x="63.623047"/>
      </g>
     </g>
    </g>
    <g id="ytick_9">
     <g id="line2d_17">
      <g>
       <use xlink:href="#m5523a6d510" x="44.66" y="14.76" style="stroke: #000000; stroke-width: 0.8"/>
      </g>
     </g>
     <g id="text_18">
      <!-- 16 -->
      <g transform="translate(24.935 18.559219) scale(0.1 -0.1)">
       <use xlink:href="#DejaVuSans-31"/>
       <use xlink:href="#DejaVuSans-36" x="63.623047"/>
      </g>
     </g>
    </g>
    <g id="text_19">
     <!-- Chloramphenicol concentration g/mL -->
     <g transform="translate(18.855313 254.976562) rotate(-90) scale(0.1 -0.1)">
      <defs>
       <path id="DejaVuSans-43" d="M 4122 4306 
L 4122 3641 
Q 3803 3938 3442 4084 
Q 3081 4231 2675 4231 
Q 1875 4231 1450 3742 
Q 1025 3253 1025 2328 
Q 1025 1406 1450 917 
Q 1875 428 2675 428 
Q 3081 428 3442 575 
Q 3803 722 4122 1019 
L 4122 359 
Q 3791 134 3420 21 
Q 3050 -91 2638 -91 
Q 1578 -91 968 557 
Q 359 1206 359 2328 
Q 359 3453 968 4101 
Q 1578 4750 2638 4750 
Q 3056 4750 3426 4639 
Q 3797 4528 4122 4306 
z
" transform="scale(0.015625)"/>
       <path id="DejaVuSans-6c" d="M 603 4863 
L 1178 4863 
L 1178 0 
L 603 0 
L 603 4863 
z
" transform="scale(0.015625)"/>
       <path id="DejaVuSans-6d" d="M 3328 2828 
Q 3544 3216 3844 3400 
Q 4144 3584 4550 3584 
Q 5097 3584 5394 3201 
Q 5691 2819 5691 2113 
L 5691 0 
L 5113 0 
L 5113 2094 
Q 5113 2597 4934 2840 
Q 4756 3084 4391 3084 
Q 3944 3084 3684 2787 
Q 3425 2491 3425 1978 
L 3425 0 
L 2847 0 
L 2847 2094 
Q 2847 2600 2669 2842 
Q 2491 3084 2119 3084 
Q 1678 3084 1418 2786 
Q 1159 2488 1159 1978 
L 1159 0 
L 581 0 
L 581 3500 
L 1159 3500 
L 1159 2956 
Q 1356 3278 1631 3431 
Q 1906 3584 2284 3584 
Q 2666 3584 2933 3390 
Q 3200 3197 3328 2828 
z
" transform="scale(0.015625)"/>
       <path id="DejaVuSans-6e" d="M 3513 2113 
L 3513 0 
L 2938 0 
L 2938 2094 
Q 2938 2591 2744 2837 
Q 2550 3084 2163 3084 
Q 1697 3084 1428 2787 
Q 1159 2491 1159 1978 
L 1159 0 
L 581 0 
L 581 3500 
L 1159 3500 
L 1159 2956 
Q 1366 3272 1645 3428 
Q 1925 3584 2291 3584 
Q 2894 3584 3203 3211 
Q 3513 2838 3513 2113 
z
" transform="scale(0.015625)"/>
       <path id="DejaVuSans-3bc" d="M 544 -1331 
L 544 3500 
L 1119 3500 
L 1119 1325 
Q 1119 872 1334 640 
Q 1550 409 1972 409 
Q 2434 409 2667 671 
Q 2900 934 2900 1459 
L 2900 3500 
L 3475 3500 
L 3475 806 
Q 3475 619 3529 530 
Q 3584 441 3700 441 
Q 3728 441 3778 458 
Q 3828 475 3916 513 
L 3916 50 
Q 3788 -22 3673 -56 
Q 3559 -91 3450 -91 
Q 3234 -91 3106 31 
Q 2978 153 2931 403 
Q 2775 156 2548 32 
Q 2322 -91 2016 -91 
Q 1697 -91 1473 31 
Q 1250 153 1119 397 
L 1119 -1331 
L 544 -1331 
z
" transform="scale(0.015625)"/>
       <path id="DejaVuSans-4c" d="M 628 4666 
L 1259 4666 
L 1259 531 
L 3531 531 
L 3531 0 
L 628 0 
L 628 4666 
z
" transform="scale(0.015625)"/>
      </defs>
      <use xlink:href="#DejaVuSans-43"/>
      <use xlink:href="#DejaVuSans-68" x="69.824219"/>
      <use xlink:href="#DejaVuSans-6c" x="133.203125"/>
      <use xlink:href="#DejaVuSans-6f" x="160.986328"/>
      <use xlink:href="#DejaVuSans-72" x="222.167969"/>
      <use xlink:href="#DejaVuSans-61" x="263.28125"/>
      <use xlink:href="#DejaVuSans-6d" x="324.560547"/>
      <use xlink:href="#DejaVuSans-70" x="421.972656"/>
      <use xlink:href="#DejaVuSans-68" x="485.449219"/>
      <use xlink:href="#DejaVuSans-65" x="548.828125"/>
      <use xlink:href="#DejaVuSans-6e" x="610.351562"/>
      <use xlink:href="#DejaVuSans-69" x="673.730469"/>
      <use xlink:href="#DejaVuSans-63" x="701.513672"/>
      <use xlink:href="#DejaVuSans-6f" x="756.494141"/>
      <use xlink:href="#DejaVuSans-6c" x="817.675781"/>
      <use xlink:href="#DejaVuSans-20" x="845.458984"/>
      <use xlink:href="#DejaVuSans-63" x="877.246094"/>
      <use xlink:href="#DejaVuSans-6f" x="932.226562"/>
      <use xlink:href="#DejaVuSans-6e" x="993.408203"/>
      <use xlink:href="#DejaVuSans-63" x="1056.787109"/>
      <use xlink:href="#DejaVuSans-65" x="1111.767578"/>
      <use xlink:href="#DejaVuSans-6e" x="1173.291016"/>
      <use xlink:href="#DejaVuSans-74" x="1236.669922"/>
      <use xlink:href="#DejaVuSans-72" x="1275.878906"/>
      <use xlink:href="#DejaVuSans-61" x="1316.992188"/>
      <use xlink:href="#DejaVuSans-74" x="1378.271484"/>
      <use xlink:href="#DejaVuSans-69" x="1417.480469"/>
      <use xlink:href="#DejaVuSans-6f" x="1445.263672"/>
      <use xlink:href="#DejaVuSans-6e" x="1506.445312"/>
      <use xlink:href="#DejaVuSans-20" x="1569.824219"/>
      <use xlink:href="#DejaVuSans-3bc" x="1601.611328"/>
      <use xlink:href="#DejaVuSans-67" x="1665.234375"/>
      <use xlink:href="#DejaVuSans-2f" x="1728.710938"/>
      <use xlink:href="#DejaVuSans-6d" x="1762.402344"/>
      <use xlink:href="#DejaVuSans-4c" x="1859.814453"/>
     </g>
    </g>
   </g>
   <g id="patch_3">
    <path d="M 44.66 303.64 
L 44.66 14.76 
" style="fill: none; stroke: #000000; stroke-width: 0.8; stroke-linejoin: miter; stroke-linecap: square"/>
   </g>
   <g id="patch_4">
    <path d="M 366.42192 303.64 
L 366.42192 14.76 
" style="fill: none; stroke: #000000; stroke-width: 0.8; stroke-linejoin: miter; stroke-linecap: square"/>
   </g>
   <g id="patch_5">
    <path d="M 44.66 303.64 
L 366.42192 303.64 
" style="fill: none; stroke: #000000; stroke-width: 0.8; stroke-linejoin: miter; stroke-linecap: square"/>
   </g>
   <g id="patch_6">
    <path d="M 44.66 14.76 
L 366.42192 14.76 
" style="fill: none; stroke: #000000; stroke-width: 0.8; stroke-linejoin: miter; stroke-linecap: square"/>
   </g>
  </g>
  <g id="axes_2">
   <g id="patch_7">
    <path d="M 386.53204 303.64 
L 400.97604 303.64 
L 400.97604 14.76 
L 386.53204 14.76 
z
" style="fill: #ffffff"/>
   </g>
   <g id="QuadMesh_1">
    <path d="M 386.53204 303.64 
L 400.97604 303.64 
L 400.97604 287.591111 
L 386.53204 287.591111 
L 386.53204 303.64 
" clip-path="url(#pf4c727bb3e)" style="fill: #4358cb"/>
    <path d="M 386.53204 287.591111 
L 400.97604 287.591111 
L 400.97604 271.542222 
L 386.53204 271.542222 
L 386.53204 287.591111 
" clip-path="url(#pf4c727bb3e)" style="fill: #5470de"/>
    <path d="M 386.53204 271.542222 
L 400.97604 271.542222 
L 400.97604 255.493333 
L 386.53204 255.493333 
L 386.53204 271.542222 
" clip-path="url(#pf4c727bb3e)" style="fill: #6687ed"/>
    <path d="M 386.53204 255.493333 
L 400.97604 255.493333 
L 400.97604 239.444444 
L 386.53204 239.444444 
L 386.53204 255.493333 
" clip-path="url(#pf4c727bb3e)" style="fill: #799cf8"/>
    <path d="M 386.53204 239.444444 
L 400.97604 239.444444 
L 400.97604 223.395556 
L 386.53204 223.395556 
L 386.53204 239.444444 
" clip-path="url(#pf4c727bb3e)" style="fill: #8db0fe"/>
    <path d="M 386.53204 223.395556 
L 400.97604 223.395556 
L 400.97604 207.346667 
L 386.53204 207.346667 
L 386.53204 223.395556 
" clip-path="url(#pf4c727bb3e)" style="fill: #a1c0ff"/>
    <path d="M 386.53204 207.346667 
L 400.97604 207.346667 
L 400.97604 191.297778 
L 386.53204 191.297778 
L 386.53204 207.346667 
" clip-path="url(#pf4c727bb3e)" style="fill: #b3cdfb"/>
    <path d="M 386.53204 191.297778 
L 400.97604 191.297778 
L 400.97604 175.248889 
L 386.53204 175.248889 
L 386.53204 191.297778 
" clip-path="url(#pf4c727bb3e)" style="fill: #c5d6f2"/>
    <path d="M 386.53204 175.248889 
L 400.97604 175.248889 
L 400.97604 159.2 
L 386.53204 159.2 
L 386.53204 175.248889 
" clip-path="url(#pf4c727bb3e)" style="fill: #d5dbe5"/>
    <path d="M 386.53204 159.2 
L 400.97604 159.2 
L 400.97604 143.151111 
L 386.53204 143.151111 
L 386.53204 159.2 
" clip-path="url(#pf4c727bb3e)" style="fill: #e4d9d2"/>
    <path d="M 386.53204 143.151111 
L 400.97604 143.151111 
L 400.97604 127.102222 
L 386.53204 127.102222 
L 386.53204 143.151111 
" clip-path="url(#pf4c727bb3e)" style="fill: #efcebd"/>
    <path d="M 386.53204 127.102222 
L 400.97604 127.102222 
L 400.97604 111.053333 
L 386.53204 111.053333 
L 386.53204 127.102222 
" clip-path="url(#pf4c727bb3e)" style="fill: #f5c0a7"/>
    <path d="M 386.53204 111.053333 
L 400.97604 111.053333 
L 400.97604 95.004444 
L 386.53204 95.004444 
L 386.53204 111.053333 
" clip-path="url(#pf4c727bb3e)" style="fill: #f7af91"/>
    <path d="M 386.53204 95.004444 
L 400.97604 95.004444 
L 400.97604 78.955556 
L 386.53204 78.955556 
L 386.53204 95.004444 
" clip-path="url(#pf4c727bb3e)" style="fill: #f4987a"/>
    <path d="M 386.53204 78.955556 
L 400.97604 78.955556 
L 400.97604 62.906667 
L 386.53204 62.906667 
L 386.53204 78.955556 
" clip-path="url(#pf4c727bb3e)" style="fill: #ec8165"/>
    <path d="M 386.53204 62.906667 
L 400.97604 62.906667 
L 400.97604 46.857778 
L 386.53204 46.857778 
L 386.53204 62.906667 
" clip-path="url(#pf4c727bb3e)" style="fill: #e16751"/>
    <path d="M 386.53204 46.857778 
L 400.97604 46.857778 
L 400.97604 30.808889 
L 386.53204 30.808889 
L 386.53204 46.857778 
" clip-path="url(#pf4c727bb3e)" style="fill: #d1493f"/>
    <path d="M 386.53204 30.808889 
L 400.97604 30.808889 
L 400.97604 14.76 
L 386.53204 14.76 
L 386.53204 30.808889 
" clip-path="url(#pf4c727bb3e)" style="fill: #be242e"/>
   </g>
   <g id="matplotlib.axis_3"/>
   <g id="matplotlib.axis_4">
    <g id="ytick_10">
     <g id="line2d_18">
      <defs>
       <path id="mff8a3c205e" d="M 0 0 
L 3.5 0 
" style="stroke: #000000; stroke-width: 0.8"/>
      </defs>
      <g>
       <use xlink:href="#mff8a3c205e" x="400.97604" y="303.64" style="stroke: #000000; stroke-width: 0.8"/>
      </g>
     </g>
     <g id="text_20">
      <!-- 0.00 -->
      <g transform="translate(407.97604 307.439219) scale(0.1 -0.1)">
       <use xlink:href="#DejaVuSans-30"/>
       <use xlink:href="#DejaVuSans-2e" x="63.623047"/>
       <use xlink:href="#DejaVuSans-30" x="95.410156"/>
       <use xlink:href="#DejaVuSans-30" x="159.033203"/>
      </g>
     </g>
    </g>
    <g id="ytick_11">
     <g id="line2d_19">
      <g>
       <use xlink:href="#mff8a3c205e" x="400.97604" y="271.542222" style="stroke: #000000; stroke-width: 0.8"/>
      </g>
     </g>
     <g id="text_21">
      <!-- 0.08 -->
      <g transform="translate(407.97604 275.341441) scale(0.1 -0.1)">
       <use xlink:href="#DejaVuSans-30"/>
       <use xlink:href="#DejaVuSans-2e" x="63.623047"/>
       <use xlink:href="#DejaVuSans-30" x="95.410156"/>
       <use xlink:href="#DejaVuSans-38" x="159.033203"/>
      </g>
     </g>
    </g>
    <g id="ytick_12">
     <g id="line2d_20">
      <g>
       <use xlink:href="#mff8a3c205e" x="400.97604" y="239.444444" style="stroke: #000000; stroke-width: 0.8"/>
      </g>
     </g>
     <g id="text_22">
      <!-- 0.16 -->
      <g transform="translate(407.97604 243.243663) scale(0.1 -0.1)">
       <use xlink:href="#DejaVuSans-30"/>
       <use xlink:href="#DejaVuSans-2e" x="63.623047"/>
       <use xlink:href="#DejaVuSans-31" x="95.410156"/>
       <use xlink:href="#DejaVuSans-36" x="159.033203"/>
      </g>
     </g>
    </g>
    <g id="ytick_13">
     <g id="line2d_21">
      <g>
       <use xlink:href="#mff8a3c205e" x="400.97604" y="207.346667" style="stroke: #000000; stroke-width: 0.8"/>
      </g>
     </g>
     <g id="text_23">
      <!-- 0.24 -->
      <g transform="translate(407.97604 211.145885) scale(0.1 -0.1)">
       <use xlink:href="#DejaVuSans-30"/>
       <use xlink:href="#DejaVuSans-2e" x="63.623047"/>
       <use xlink:href="#DejaVuSans-32" x="95.410156"/>
       <use xlink:href="#DejaVuSans-34" x="159.033203"/>
      </g>
     </g>
    </g>
    <g id="ytick_14">
     <g id="line2d_22">
      <g>
       <use xlink:href="#mff8a3c205e" x="400.97604" y="175.248889" style="stroke: #000000; stroke-width: 0.8"/>
      </g>
     </g>
     <g id="text_24">
      <!-- 0.32 -->
      <g transform="translate(407.97604 179.048108) scale(0.1 -0.1)">
       <use xlink:href="#DejaVuSans-30"/>
       <use xlink:href="#DejaVuSans-2e" x="63.623047"/>
       <use xlink:href="#DejaVuSans-33" x="95.410156"/>
       <use xlink:href="#DejaVuSans-32" x="159.033203"/>
      </g>
     </g>
    </g>
    <g id="ytick_15">
     <g id="line2d_23">
      <g>
       <use xlink:href="#mff8a3c205e" x="400.97604" y="143.151111" style="stroke: #000000; stroke-width: 0.8"/>
      </g>
     </g>
     <g id="text_25">
      <!-- 0.40 -->
      <g transform="translate(407.97604 146.95033) scale(0.1 -0.1)">
       <use xlink:href="#DejaVuSans-30"/>
       <use xlink:href="#DejaVuSans-2e" x="63.623047"/>
       <use xlink:href="#DejaVuSans-34" x="95.410156"/>
       <use xlink:href="#DejaVuSans-30" x="159.033203"/>
      </g>
     </g>
    </g>
    <g id="ytick_16">
     <g id="line2d_24">
      <g>
       <use xlink:href="#mff8a3c205e" x="400.97604" y="111.053333" style="stroke: #000000; stroke-width: 0.8"/>
      </g>
     </g>
     <g id="text_26">
      <!-- 0.48 -->
      <g transform="translate(407.97604 114.852552) scale(0.1 -0.1)">
       <use xlink:href="#DejaVuSans-30"/>
       <use xlink:href="#DejaVuSans-2e" x="63.623047"/>
       <use xlink:href="#DejaVuSans-34" x="95.410156"/>
       <use xlink:href="#DejaVuSans-38" x="159.033203"/>
      </g>
     </g>
    </g>
    <g id="ytick_17">
     <g id="line2d_25">
      <g>
       <use xlink:href="#mff8a3c205e" x="400.97604" y="78.955556" style="stroke: #000000; stroke-width: 0.8"/>
      </g>
     </g>
     <g id="text_27">
      <!-- 0.56 -->
      <g transform="translate(407.97604 82.754774) scale(0.1 -0.1)">
       <use xlink:href="#DejaVuSans-30"/>
       <use xlink:href="#DejaVuSans-2e" x="63.623047"/>
       <use xlink:href="#DejaVuSans-35" x="95.410156"/>
       <use xlink:href="#DejaVuSans-36" x="159.033203"/>
      </g>
     </g>
    </g>
    <g id="ytick_18">
     <g id="line2d_26">
      <g>
       <use xlink:href="#mff8a3c205e" x="400.97604" y="46.857778" style="stroke: #000000; stroke-width: 0.8"/>
      </g>
     </g>
     <g id="text_28">
      <!-- 0.64 -->
      <g transform="translate(407.97604 50.656997) scale(0.1 -0.1)">
       <use xlink:href="#DejaVuSans-30"/>
       <use xlink:href="#DejaVuSans-2e" x="63.623047"/>
       <use xlink:href="#DejaVuSans-36" x="95.410156"/>
       <use xlink:href="#DejaVuSans-34" x="159.033203"/>
      </g>
     </g>
    </g>
    <g id="ytick_19">
     <g id="line2d_27">
      <g>
       <use xlink:href="#mff8a3c205e" x="400.97604" y="14.76" style="stroke: #000000; stroke-width: 0.8"/>
      </g>
     </g>
     <g id="text_29">
      <!-- 0.72 -->
      <g transform="translate(407.97604 18.559219) scale(0.1 -0.1)">
       <use xlink:href="#DejaVuSans-30"/>
       <use xlink:href="#DejaVuSans-2e" x="63.623047"/>
       <use xlink:href="#DejaVuSans-37" x="95.410156"/>
       <use xlink:href="#DejaVuSans-32" x="159.033203"/>
      </g>
     </g>
    </g>
    <g id="text_30">
     <!-- Netto growth rate [1/h] -->
     <g transform="translate(441.840102 217.250781) rotate(-90) scale(0.1 -0.1)">
      <defs>
       <path id="DejaVuSans-4e" d="M 628 4666 
L 1478 4666 
L 3547 763 
L 3547 4666 
L 4159 4666 
L 4159 0 
L 3309 0 
L 1241 3903 
L 1241 0 
L 628 0 
L 628 4666 
z
" transform="scale(0.015625)"/>
      </defs>
      <use xlink:href="#DejaVuSans-4e"/>
      <use xlink:href="#DejaVuSans-65" x="74.804688"/>
      <use xlink:href="#DejaVuSans-74" x="136.328125"/>
      <use xlink:href="#DejaVuSans-74" x="175.537109"/>
      <use xlink:href="#DejaVuSans-6f" x="214.746094"/>
      <use xlink:href="#DejaVuSans-20" x="275.927734"/>
      <use xlink:href="#DejaVuSans-67" x="307.714844"/>
      <use xlink:href="#DejaVuSans-72" x="371.191406"/>
      <use xlink:href="#DejaVuSans-6f" x="410.054688"/>
      <use xlink:href="#DejaVuSans-77" x="471.236328"/>
      <use xlink:href="#DejaVuSans-74" x="553.023438"/>
      <use xlink:href="#DejaVuSans-68" x="592.232422"/>
      <use xlink:href="#DejaVuSans-20" x="655.611328"/>
      <use xlink:href="#DejaVuSans-72" x="687.398438"/>
      <use xlink:href="#DejaVuSans-61" x="728.511719"/>
      <use xlink:href="#DejaVuSans-74" x="789.791016"/>
      <use xlink:href="#DejaVuSans-65" x="829"/>
      <use xlink:href="#DejaVuSans-20" x="890.523438"/>
      <use xlink:href="#DejaVuSans-5b" x="922.310547"/>
      <use xlink:href="#DejaVuSans-31" x="961.324219"/>
      <use xlink:href="#DejaVuSans-2f" x="1024.947266"/>
      <use xlink:href="#DejaVuSans-68" x="1058.638672"/>
      <use xlink:href="#DejaVuSans-5d" x="1122.017578"/>
     </g>
    </g>
   </g>
   <g id="LineCollection_1"/>
   <g id="patch_8">
    <path d="M 386.53204 303.64 
L 393.75404 303.64 
L 400.97604 303.64 
L 400.97604 14.76 
L 393.75404 14.76 
L 386.53204 14.76 
L 386.53204 303.64 
z
" style="fill: none; stroke: #000000; stroke-width: 0.8; stroke-linejoin: miter; stroke-linecap: square"/>
   </g>
  </g>
 </g>
 <defs>
  <clipPath id="pcafaeeb968">
   <rect x="44.66" y="14.76" width="321.76192" height="288.88"/>
  </clipPath>
  <clipPath id="pf4c727bb3e">
   <rect x="386.53204" y="14.76" width="14.444" height="288.88"/>
  </clipPath>
 </defs>
</svg>
