<?xml version="1.0" encoding="UTF-8" standalone="no"?>
<!-- Created with Inkscape (http://www.inkscape.org/) -->

<svg
   width="111.88999mm"
   height="59.356972mm"
   viewBox="0 0 111.88999 59.356972"
   version="1.1"
   id="svg1"
   inkscape:version="1.4 (1:1.4+202410161351+e7c3feb100)"
   sodipodi:docname="bugs_and_network.svg"
   xmlns:inkscape="http://www.inkscape.org/namespaces/inkscape"
   xmlns:sodipodi="http://sodipodi.sourceforge.net/DTD/sodipodi-0.dtd"
   xmlns="http://www.w3.org/2000/svg"
   xmlns:svg="http://www.w3.org/2000/svg">
  <sodipodi:namedview
     id="namedview1"
     pagecolor="#919191"
     bordercolor="#000000"
     borderopacity="1"
     inkscape:showpageshadow="0"
     inkscape:pageopacity="0"
     inkscape:pagecheckerboard="0"
     inkscape:deskcolor="#818181"
     inkscape:document-units="mm"
     showgrid="true"
     guidecolor="#73469f"
     guideopacity="0.6"
     showguides="true"
     inkscape:zoom="1.0217435"
     inkscape:cx="718.37991"
     inkscape:cy="2523.1382"
     inkscape:window-width="1920"
     inkscape:window-height="1011"
     inkscape:window-x="0"
     inkscape:window-y="0"
     inkscape:window-maximized="1"
     inkscape:current-layer="layer1">
    <inkscape:grid
       id="grid1"
       units="px"
       originx="-150.6571"
       originy="-575.66602"
       spacingx="1.3229167"
       spacingy="1.3229167"
       empcolor="#31231f"
       empopacity="0.30196078"
       color="#373b3d"
       opacity="0.18431373"
       empspacing="2"
       dotted="false"
       gridanglex="30"
       gridanglez="30"
       visible="true" />
    <sodipodi:guide
       position="34.551247,550.35631"
       orientation="0,-1"
       id="guide1"
       inkscape:locked="false" />
    <sodipodi:guide
       position="-43.500843,560.93965"
       orientation="0,-1"
       id="guide2"
       inkscape:locked="false" />
    <sodipodi:guide
       position="-142.71961,494.79381"
       orientation="1,0"
       id="guide3"
       inkscape:locked="false" />
    <sodipodi:guide
       position="-235.32378,444.52297"
       orientation="1,0"
       id="guide4"
       inkscape:locked="false" />
    <sodipodi:guide
       position="-65.99043,489.50214"
       orientation="1,0"
       id="guide5"
       inkscape:locked="false" />
    <sodipodi:guide
       position="34.551247,508.02298"
       orientation="0,-1"
       id="guide7"
       inkscape:locked="false" />
    <sodipodi:guide
       position="-198.28211,444.52297"
       orientation="1,0"
       id="guide9"
       inkscape:locked="false" />
    <sodipodi:guide
       position="-203.57378,455.10631"
       orientation="1,0"
       id="guide10"
       inkscape:locked="false" />
    <sodipodi:guide
       position="-14.396673,583.42924"
       orientation="1,0"
       id="guide6"
       inkscape:locked="false" />
    <sodipodi:guide
       position="-50.115423,481.56464"
       orientation="0,-1"
       id="guide12"
       inkscape:locked="false" />
    <sodipodi:guide
       position="39.842917,412.77297"
       orientation="0,-1"
       id="guide13"
       inkscape:locked="false" />
    <sodipodi:guide
       position="119.21791,423.35631"
       orientation="1,0"
       id="guide14"
       inkscape:locked="false" />
    <sodipodi:guide
       position="166.84293,460.39797"
       orientation="1,0"
       id="guide15"
       inkscape:locked="false" />
    <inkscape:page
       x="0"
       y="0"
       width="111.88999"
       height="59.356972"
       id="page2"
       margin="0"
       bleed="0" />
  </sodipodi:namedview>
  <defs
     id="defs1">
    <inkscape:path-effect
       effect="bspline"
       id="path-effect5-8-1-0"
       is_visible="true"
       lpeversion="1.3"
       weight="33.333333"
       steps="2"
       helper_size="0"
       apply_no_weight="true"
       apply_with_weight="true"
       only_selected="false"
       uniform="false" />
    <inkscape:path-effect
       effect="bspline"
       id="path-effect5-7-6-7-4"
       is_visible="true"
       lpeversion="1.3"
       weight="33.333333"
       steps="2"
       helper_size="0"
       apply_no_weight="true"
       apply_with_weight="true"
       only_selected="false"
       uniform="false" />
    <marker
       style="overflow:visible"
       id="Triangle-67"
       refX="0"
       refY="0"
       orient="auto-start-reverse"
       inkscape:stockid="Triangle arrow"
       markerWidth="1"
       markerHeight="1"
       viewBox="0 0 1 1"
       inkscape:isstock="true"
       inkscape:collect="always"
       preserveAspectRatio="xMidYMid">
      <path
         transform="scale(0.5)"
         style="fill:context-stroke;fill-rule:evenodd;stroke:context-stroke;stroke-width:1pt"
         d="M 5.77,0 -2.88,5 V -5 Z"
         id="path135-6" />
    </marker>
    <inkscape:path-effect
       effect="bspline"
       id="path-effect12-09"
       is_visible="true"
       lpeversion="1.3"
       weight="33.333333"
       steps="2"
       helper_size="0"
       apply_no_weight="true"
       apply_with_weight="true"
       only_selected="false"
       uniform="false" />
    <marker
       style="overflow:visible"
       id="Triangle-1-7"
       refX="0"
       refY="0"
       orient="auto-start-reverse"
       inkscape:stockid="Triangle arrow"
       markerWidth="1"
       markerHeight="1"
       viewBox="0 0 1 1"
       inkscape:isstock="true"
       inkscape:collect="always"
       preserveAspectRatio="xMidYMid">
      <path
         transform="scale(0.5)"
         style="fill:context-stroke;fill-rule:evenodd;stroke:context-stroke;stroke-width:1pt"
         d="M 5.77,0 -2.88,5 V -5 Z"
         id="path135-9-59" />
    </marker>
    <inkscape:path-effect
       effect="bspline"
       id="path-effect14-0-7"
       is_visible="true"
       lpeversion="1.3"
       weight="33.333333"
       steps="2"
       helper_size="0"
       apply_no_weight="true"
       apply_with_weight="true"
       only_selected="false"
       uniform="false" />
    <inkscape:path-effect
       effect="bspline"
       id="path-effect14-9-7-8"
       is_visible="true"
       lpeversion="1.3"
       weight="33.333333"
       steps="2"
       helper_size="0"
       apply_no_weight="true"
       apply_with_weight="true"
       only_selected="false"
       uniform="false" />
  </defs>
  <g
     inkscape:label="Layer 1"
     inkscape:groupmode="layer"
     id="layer1"
     transform="translate(-150.6571,-575.66601)">
    <g
       id="g12-9-1"
       transform="translate(32.281388,449.1339)"
       inkscape:transform-center-x="-104.55426"
       inkscape:transform-center-y="-0.74783141"
       inkscape:export-filename="coexistence_interaction.svg"
       inkscape:export-xdpi="999.936"
       inkscape:export-ydpi="999.936">
      <path
         style="fill:#00a4f6;fill-opacity:1;stroke:#000000;stroke-width:0.3;stroke-linecap:butt;stroke-linejoin:miter;stroke-dasharray:none;stroke-opacity:1"
         d="m 169.02906,137.45086 5.29167,-10.58333 5.29167,10.58333 z"
         id="path11-9-9-9"
         inkscape:export-filename="positive_interaction.svg"
         inkscape:export-xdpi="999.936"
         inkscape:export-ydpi="999.936" />
      <text
         xml:space="preserve"
         style="font-style:normal;font-variant:normal;font-weight:normal;font-stretch:normal;font-size:4.93889px;line-height:1.25;font-family:Sans;-inkscape-font-specification:'Sans, Normal';font-variant-ligatures:normal;font-variant-position:normal;font-variant-caps:normal;font-variant-numeric:normal;font-variant-east-asian:normal;stroke-width:0.264583"
         x="161.0771"
         y="142.5941"
         id="text21-2-4-0"><tspan
           sodipodi:role="line"
           id="tspan21-8-5-9"
           style="font-style:normal;font-variant:normal;font-weight:normal;font-stretch:normal;font-size:4.93889px;font-family:Sans;-inkscape-font-specification:'Sans, Normal';font-variant-ligatures:normal;font-variant-position:normal;font-variant-caps:normal;font-variant-numeric:normal;font-variant-east-asian:normal;stroke-width:0.264583"
           x="161.0771"
           y="142.5941">Cefotaxime</tspan></text>
    </g>
    <g
       id="g6-4-3-8"
       transform="translate(116.64378,542.29727)"
       inkscape:export-filename="positive_interaction.svg"
       inkscape:export-xdpi="999.936"
       inkscape:export-ydpi="999.936">
      <path
         style="fill:#de5959;fill-opacity:1;stroke:#000000;stroke-width:0.765;stroke-linecap:butt;stroke-linejoin:miter;stroke-dasharray:none;stroke-opacity:1"
         d="m 46.302086,89.958337 c -6.614584,0 -9.260417,10e-7 -10.583333,-1.322942 -1.322917,-1.322944 -1.322917,-3.968724 -1.322917,-6.614584 0,-2.64586 0,-5.29164 1.322943,-6.614555 1.322943,-1.322916 3.968723,-1.322916 10.583414,-1.322917 6.61469,-10e-7 17.197811,-2e-6 23.812421,-2e-6 6.61461,0 9.26039,10e-7 10.583307,1.322944 1.322917,1.322943 1.322917,3.968723 1.322917,6.614583 0,2.64586 0,5.29164 -1.322944,6.614558 -1.322943,1.322918 -3.968723,1.322918 -10.583412,1.322917 -6.614689,-10e-7 -17.197811,-2e-6 -23.812396,-2e-6 z"
         id="path5-0-1-43"
         transform="translate(-2.152117e-7,-19.579194)"
         inkscape:export-filename="strain_overview.svg"
         inkscape:export-xdpi="999.936"
         inkscape:export-ydpi="999.936"
         inkscape:original-d="m 42.333335,89.958335 c -2.645833,2e-6 -5.291666,2e-6 -7.937499,5e-6 0,-2.645889 0,-5.291669 0,-7.937505 0,-2.645884 0,-5.291664 0,-7.937495 2.645886,0 5.291666,0 7.937499,0 10.583548,-2e-6 21.166669,-2e-6 31.750003,-5e-6 2.645886,3e-6 5.291666,3e-6 7.9375,5e-6 0,2.645884 0,5.291664 0,7.937495 0,2.645889 0,5.291669 0,7.937505 -2.645887,0 -5.291667,0 -7.9375,0 -10.583545,-3e-6 -21.166667,-3e-6 -31.750003,-5e-6 z"
         inkscape:path-effect="#path-effect5-8-1-0" />
      <path
         style="fill:#00a4f6;fill-opacity:1;stroke:#000000;stroke-width:0.3;stroke-linecap:round;stroke-linejoin:round;stroke-miterlimit:2;stroke-dasharray:none;stroke-opacity:1;paint-order:fill markers stroke"
         d="m 58.175658,57.839309 c -1.694704,0.007 -3.362743,0.93946 -4.214398,2.41266 -1.031718,1.68185 -0.897561,3.98928 0.329642,5.53626 1.068075,1.4066 2.927305,2.16791 4.674066,1.86659 1.615911,-0.23322 3.048717,-1.35188 3.728572,-2.82643 0.290914,-0.65405 0.457559,-1.36488 0.430961,-2.08308 0.03496,-1.53155 -0.764487,-3.0174 -1.981814,-3.92586 -0.843558,-0.64831 -1.907672,-0.97763 -2.967029,-0.98014 z m 0.03268,1.9565 c 1.107037,-0.0262 2.176092,0.65143 2.666658,1.63976 0.542758,1.04935 0.377145,2.40865 -0.407964,3.29425 -0.557426,0.64331 -1.401561,1.06366 -2.259882,1.02049 -0.971447,0.0578 -1.920979,-0.49356 -2.475238,-1.27629 -0.325962,-0.49758 -0.536295,-1.07757 -0.509143,-1.67497 -0.06204,-1.19891 0.752596,-2.35305 1.857771,-2.79322 0.356892,-0.14826 0.742858,-0.22252 1.127798,-0.21002 z"
         id="path15-9-9-4-71" />
    </g>
    <g
       id="g7-5-6-3"
       transform="translate(180.14376,513.72229)">
      <path
         style="fill:#50a250;fill-opacity:1;stroke:#000000;stroke-width:0.765;stroke-linecap:butt;stroke-linejoin:miter;stroke-dasharray:none;stroke-opacity:1"
         d="m 46.302086,89.958337 c -6.614584,0 -9.260417,10e-7 -10.583333,-1.322942 -1.322917,-1.322944 -1.322917,-3.968724 -1.322917,-6.614584 0,-2.64586 0,-5.29164 1.322943,-6.614555 1.322943,-1.322916 3.968723,-1.322916 10.583414,-1.322917 6.61469,-10e-7 17.197811,-2e-6 23.812421,-2e-6 6.61461,0 9.26039,10e-7 10.583307,1.322944 1.322917,1.322943 1.322917,3.968723 1.322917,6.614583 0,2.64586 0,5.29164 -1.322944,6.614558 -1.322943,1.322918 -3.968723,1.322918 -10.583412,1.322917 -6.614689,-10e-7 -17.197811,-2e-6 -23.812396,-2e-6 z"
         id="path5-3-4-9-8"
         transform="translate(2.1478922e-6,8.9958099)"
         inkscape:original-d="m 42.333335,89.958335 c -2.645833,2e-6 -5.291666,2e-6 -7.937499,5e-6 0,-2.645889 0,-5.291669 0,-7.937505 0,-2.645884 0,-5.291664 0,-7.937495 2.645886,0 5.291666,0 7.937499,0 10.583548,-2e-6 21.166669,-2e-6 31.750003,-5e-6 2.645886,3e-6 5.291666,3e-6 7.9375,5e-6 0,2.645884 0,5.291664 0,7.937495 0,2.645889 0,5.291669 0,7.937505 -2.645887,0 -5.291667,0 -7.9375,0 -10.583545,-3e-6 -21.166667,-3e-6 -31.750003,-5e-6 z"
         inkscape:path-effect="#path-effect5-7-6-7-4" />
      <path
         style="fill:#7e39eb;fill-opacity:1;stroke:#000000;stroke-width:0.3;stroke-linecap:round;stroke-linejoin:round;stroke-miterlimit:2;stroke-dasharray:none;stroke-opacity:1;paint-order:fill markers stroke"
         d="m 59.498557,86.414288 c -1.69471,0.007 -3.36275,0.93946 -4.2144,2.41266 -1.03172,1.68185 -0.89756,3.98928 0.32964,5.53626 1.06808,1.4066 2.92731,2.167909 4.67407,1.866589 1.61591,-0.233219 3.04871,-1.351879 3.72857,-2.826429 0.29091,-0.65405 0.45756,-1.36488 0.43096,-2.08308 0.035,-1.53155 -0.76449,-3.0174 -1.98181,-3.92586 -0.84356,-0.64831 -1.90768,-0.97763 -2.96703,-0.98014 z m 0.0327,1.9565 c 1.10703,-0.0262 2.17609,0.65143 2.66666,1.63976 0.54275,1.04935 0.37714,2.40865 -0.40797,3.29425 -0.55742,0.64331 -1.40156,1.06366 -2.25988,1.02049 -0.97145,0.0578 -1.92098,-0.49356 -2.47524,-1.27629 -0.32596,-0.49758 -0.53629,-1.07757 -0.50914,-1.67497 -0.062,-1.19891 0.75259,-2.35305 1.85777,-2.79322 0.35689,-0.14826 0.74286,-0.22252 1.1278,-0.21002 z"
         id="path15-4-4-09" />
    </g>
    <g
       id="g8-2-7"
       transform="translate(116.64378,481.70769)">
      <path
         style="fill:none;stroke:#000000;stroke-width:0.264583px;stroke-linecap:butt;stroke-linejoin:miter;stroke-opacity:1"
         d="M 84.666671,119.0625 H 95.250004"
         id="path7-2-99" />
      <path
         style="fill:none;stroke:#000000;stroke-width:0.264583px;stroke-linecap:butt;stroke-linejoin:miter;stroke-opacity:1"
         d="m 95.250004,116.41667 v 5.29166"
         id="path8-6-32" />
    </g>
    <path
       style="fill:none;stroke:#000000;stroke-width:0.965;stroke-linecap:butt;stroke-linejoin:miter;stroke-dasharray:none;stroke-opacity:1"
       d="m 201.31046,611.35353 v -5.29168"
       id="path9-4-4" />
    <path
       style="fill:none;stroke:#000000;stroke-width:0.965;stroke-linecap:butt;stroke-linejoin:miter;stroke-dasharray:none;stroke-opacity:1"
       d="m 201.31046,608.70769 h 10.58333"
       id="path10-1-3" />
    <path
       style="fill:none;stroke:#007600;stroke-width:0.565;stroke-linecap:butt;stroke-linejoin:miter;stroke-dasharray:none;stroke-opacity:1;marker-end:url(#Triangle-67)"
       d="m 58.197834,171.84618 c 0.0035,1.80822 0.007,3.61644 5.300522,4.96153 5.293523,1.34509 15.876644,2.22702 26.680579,2.22701 10.803935,-1e-5 21.828015,-0.88194 27.340175,-2.20487 5.51215,-1.32294 5.51215,-3.08679 5.51215,-4.85068"
       id="path12-71"
       inkscape:path-effect="#path-effect12-09"
       inkscape:original-d="m 58.197834,171.84618 c 0.0035,1.80822 0.007,3.61644 0.0105,5.42466 10.583545,0.88196 21.166666,1.76389 31.750002,2.64583 11.024534,-0.88196 22.048614,-1.76389 33.072924,-2.64583 0,-1.76393 0,-3.52778 0,-5.29167"
       transform="translate(116.64375,443.34308)" />
    <path
       style="fill:none;stroke:#c50200;stroke-width:0.665;stroke-linecap:butt;stroke-linejoin:miter;stroke-dasharray:none;stroke-opacity:1;marker-end:url(#Triangle-1-7)"
       d="m 317.50002,211.66667 c -15.875,0 -31.75,0 -47.625,0"
       id="path13-0-2"
       inkscape:path-effect="#path-effect14-0-7"
       inkscape:original-d="m 317.50002,211.66667 c -15.875,0 -31.75,0 -47.625,0"
       transform="translate(-90.009602,416.01799)" />
    <path
       style="fill:none;stroke:#007600;stroke-width:0.665;stroke-linecap:butt;stroke-linejoin:miter;stroke-dasharray:none;stroke-opacity:1;marker-start:url(#Triangle-67)"
       d="m 317.50002,211.66667 c -15.875,0 -31.75,0 -47.625,0"
       id="path13-2-6-2"
       transform="translate(-90.009592,421.30966)"
       inkscape:original-d="m 317.50002,211.66667 c -15.875,0 -31.75,0 -47.625,0"
       inkscape:path-effect="#path-effect14-9-7-8" />
  </g>
</svg>
