<svg class="main-svg" xmlns="http://www.w3.org/2000/svg" xmlns:xlink="http://www.w3.org/1999/xlink" width="500" height="400" style="" viewBox="0 0 500 400"><rect x="0" y="0" width="500" height="400" style="fill: rgb(255, 255, 255); fill-opacity: 1;"/><defs id="defs-a52e0e"><g class="clips"><clipPath id="clipa52e0exyplot" class="plotclip"><rect width="336" height="330"/></clipPath><clipPath class="axesclip" id="clipa52e0ex"><rect x="40" y="0" width="336" height="400"/></clipPath><clipPath class="axesclip" id="clipa52e0ey"><rect x="0" y="20" width="500" height="330"/></clipPath><clipPath class="axesclip" id="clipa52e0exy"><rect x="40" y="20" width="336" height="330"/></clipPath></g><g class="gradients"/><g class="patterns"/></defs><g class="bglayer"/><g class="layer-below"><g class="imagelayer"/><g class="shapelayer"/></g><g class="cartesianlayer"><g class="subplot xy"><g class="layer-subplot"><g class="shapelayer"/><g class="imagelayer"/></g><g class="minor-gridlayer"><g class="x"/><g class="y"/></g><g class="gridlayer"><g class="x"><path class="xgrid crisp" transform="translate(56.8,0)" d="M0,20v330" style="stroke: rgb(0, 0, 0); stroke-opacity: 1; stroke-width: 0.5px;"/><path class="xgrid crisp" transform="translate(73.6,0)" d="M0,20v330" style="stroke: rgb(0, 0, 0); stroke-opacity: 1; stroke-width: 0.5px;"/><path class="xgrid crisp" transform="translate(90.4,0)" d="M0,20v330" style="stroke: rgb(0, 0, 0); stroke-opacity: 1; stroke-width: 0.5px;"/><path class="xgrid crisp" transform="translate(107.2,0)" d="M0,20v330" style="stroke: rgb(0, 0, 0); stroke-opacity: 1; stroke-width: 0.5px;"/><path class="xgrid crisp" transform="translate(124,0)" d="M0,20v330" style="stroke: rgb(0, 0, 0); stroke-opacity: 1; stroke-width: 0.5px;"/><path class="xgrid crisp" transform="translate(140.8,0)" d="M0,20v330" style="stroke: rgb(0, 0, 0); stroke-opacity: 1; stroke-width: 0.5px;"/><path class="xgrid crisp" transform="translate(157.6,0)" d="M0,20v330" style="stroke: rgb(0, 0, 0); stroke-opacity: 1; stroke-width: 0.5px;"/><path class="xgrid crisp" transform="translate(174.4,0)" d="M0,20v330" style="stroke: rgb(0, 0, 0); stroke-opacity: 1; stroke-width: 0.5px;"/><path class="xgrid crisp" transform="translate(191.2,0)" d="M0,20v330" style="stroke: rgb(0, 0, 0); stroke-opacity: 1; stroke-width: 0.5px;"/><path class="xgrid crisp" transform="translate(208,0)" d="M0,20v330" style="stroke: rgb(0, 0, 0); stroke-opacity: 1; stroke-width: 0.5px;"/><path class="xgrid crisp" transform="translate(224.8,0)" d="M0,20v330" style="stroke: rgb(0, 0, 0); stroke-opacity: 1; stroke-width: 0.5px;"/><path class="xgrid crisp" transform="translate(241.6,0)" d="M0,20v330" style="stroke: rgb(0, 0, 0); stroke-opacity: 1; stroke-width: 0.5px;"/><path class="xgrid crisp" transform="translate(258.4,0)" d="M0,20v330" style="stroke: rgb(0, 0, 0); stroke-opacity: 1; stroke-width: 0.5px;"/><path class="xgrid crisp" transform="translate(275.2,0)" d="M0,20v330" style="stroke: rgb(0, 0, 0); stroke-opacity: 1; stroke-width: 0.5px;"/><path class="xgrid crisp" transform="translate(292,0)" d="M0,20v330" style="stroke: rgb(0, 0, 0); stroke-opacity: 1; stroke-width: 0.5px;"/><path class="xgrid crisp" transform="translate(308.8,0)" d="M0,20v330" style="stroke: rgb(0, 0, 0); stroke-opacity: 1; stroke-width: 0.5px;"/><path class="xgrid crisp" transform="translate(325.6,0)" d="M0,20v330" style="stroke: rgb(0, 0, 0); stroke-opacity: 1; stroke-width: 0.5px;"/><path class="xgrid crisp" transform="translate(342.4,0)" d="M0,20v330" style="stroke: rgb(0, 0, 0); stroke-opacity: 1; stroke-width: 0.5px;"/><path class="xgrid crisp" transform="translate(359.2,0)" d="M0,20v330" style="stroke: rgb(0, 0, 0); stroke-opacity: 1; stroke-width: 0.5px;"/></g><g class="y"><path class="ygrid crisp" transform="translate(0,295)" d="M40,0h336" style="stroke: rgb(0, 0, 0); stroke-opacity: 1; stroke-width: 0.5px;"/><path class="ygrid crisp" transform="translate(0,240)" d="M40,0h336" style="stroke: rgb(0, 0, 0); stroke-opacity: 1; stroke-width: 0.5px;"/><path class="ygrid crisp" transform="translate(0,185)" d="M40,0h336" style="stroke: rgb(0, 0, 0); stroke-opacity: 1; stroke-width: 0.5px;"/><path class="ygrid crisp" transform="translate(0,130)" d="M40,0h336" style="stroke: rgb(0, 0, 0); stroke-opacity: 1; stroke-width: 0.5px;"/><path class="ygrid crisp" transform="translate(0,75)" d="M40,0h336" style="stroke: rgb(0, 0, 0); stroke-opacity: 1; stroke-width: 0.5px;"/></g></g><g class="zerolinelayer"><path class="xzl zl crisp" transform="translate(40,0)" d="M0,20v330" style="stroke: rgb(0, 0, 0); stroke-opacity: 1; stroke-width: 0.5px;"/><path class="yzl zl crisp" transform="translate(0,350)" d="M40,0h336" style="stroke: rgb(0, 0, 0); stroke-opacity: 1; stroke-width: 0.5px;"/></g><g class="layer-between"><g class="shapelayer"/><g class="imagelayer"/></g><path class="xlines-below"/><path class="ylines-below"/><g class="overlines-below"/><g class="xaxislayer-below"/><g class="yaxislayer-below"/><g class="overaxes-below"/><g class="overplot"><g class="xy" transform="translate(40,20)" clip-path="url(#clipa52e0exyplot)"><g class="scatterlayer mlayer"><g class="trace scatter trace321850" style="stroke-miterlimit: 2; opacity: 1;"><g class="fills"/><g class="errorbars"/><g class="lines"><path class="js-line" d="M0,302.5L1.93,259.88L1.93,259.79L2.71,233.85L2.71,233.75L2.8,230.62L3.11,238.32L3.14,239.02L4.99,264.89L5.02,265.1L5.98,268.19L6.19,267.96L6.22,267.9L6.93,264.49L6.96,264.25L8.35,247.14L8.38,246.65L13.07,179.12L13.1,178.89L15.22,168.25L15.26,168.15L17.44,164.19L17.48,164.16L19.73,162.96L19.76,162.96L23.12,162.84L23.15,162.84L33.6,164.15L33.6,328.34L35.06,325.82L35.06,325.81L36.36,320.55L36.36,320.53L37.11,320.43L37.14,320.44L45.74,320.85L45.77,320.84L50.18,319.82L50.21,319.8L52.52,317.83L52.56,317.79L54.31,313.71L54.34,313.6L55.61,306.92L55.64,306.69L57.27,288.44L57.3,287.96L59.8,236.21L59.83,235.5L62.98,177.59L63.01,177.24L65.13,160.66L65.17,160.51L67.2,154.4L67.2,328.24L68.79,325.18L68.79,325.17L69.9,320.39L69.9,320.37L70,319.75L70.71,319.89L70.74,319.89L77.74,320.53L77.77,320.53L83.32,319.78L83.35,319.77L85.91,317.97L85.94,317.93L87.57,314.73L87.6,314.64L88.87,309.09L88.9,308.91L90.53,293.2L90.56,292.78L92.78,250.54L92.81,249.83L97.66,168.51L97.69,168.28L99.75,158.27L99.78,158.18L100.8,155.9L100.8,328.26L102.41,325.18L102.41,325.17L104.34,319.98L104.37,319.98L111.22,320.59L111.25,320.59L116.89,319.84L116.92,319.83L119.54,317.98L119.57,317.94L121.3,314.42L121.33,314.32L122.84,306.72L122.87,306.49L124.47,288.53L124.5,288.05L127.06,235.24L127.09,234.53L130.21,178.36L130.24,178.01L132.37,161.83L132.4,161.69L134.4,155.77L134.4,328.26L136.01,325.17L136.01,325.16L137.91,319.96L137.94,319.97L137.97,319.97L144.82,320.58L144.85,320.58L150.52,319.83L150.55,319.82L153.32,317.74L153.36,317.69L155.02,314.01L155.05,313.91L156.59,305.53L156.62,305.29L158.35,284.07L158.38,283.55L161.93,207.77L161.96,207.16L164.49,171.53L164.52,171.26L166.58,159.36L166.61,159.25L168,155.79L168,328.26L169.61,325.17L169.61,325.16L171.51,319.96L171.54,319.97L171.57,319.98L180.82,320.49L180.85,320.49L185.38,319.2L185.41,319.18L187.33,317.13L187.36,317.08L188.96,312.75L188.99,312.62L190.5,302.87L190.53,302.58L192.35,276.94L192.38,276.35L198.18,170.73L198.21,170.47L200.27,159.04L200.31,158.94L201.6,155.78L201.6,328.26L203.21,325.17L203.21,325.16L205.11,319.96L205.14,319.97L205.17,319.97L212.02,320.58L212.05,320.58L217.72,319.83L217.75,319.82L220.34,317.98L220.37,317.94L222.1,314.41L222.13,314.32L223.64,306.72L223.67,306.49L225.27,288.52L225.3,288.05L227.86,235.24L227.89,234.53L231.01,178.37L231.04,178.02L233.17,161.84L233.2,161.7L235.2,155.78L235.2,328.26L236.81,325.17L236.81,325.16L238.71,319.96L238.74,319.97L238.77,319.97L245.62,320.58L245.65,320.58L251.32,319.83L251.35,319.82L253.94,317.98L253.97,317.94L255.7,314.41L255.73,314.32L257.24,306.72L257.27,306.49L258.87,288.52L258.9,288.05L261.46,235.24L261.49,234.53L264.61,178.37L264.64,178.02L266.77,161.84L266.8,161.7L268.8,155.78L268.8,328.26L270.41,325.17L270.41,325.16L272.31,319.96L272.34,319.97L272.37,319.97L279.22,320.58L279.25,320.58L284.92,319.83L284.95,319.82L287.54,317.98L287.57,317.94L289.3,314.41L289.33,314.32L290.84,306.72L290.87,306.49L292.47,288.52L292.5,288.05L295.06,235.24L295.09,234.53L298.21,178.37L298.24,178.02L300.37,161.84L300.4,161.7L302.4,155.78L302.4,328.26L304.01,325.17L304.01,325.16L305.91,319.96L305.94,319.97L305.97,319.97L312.82,320.58L312.85,320.58L318.52,319.83L318.55,319.82L321.14,317.98L321.17,317.94L322.9,314.41L322.93,314.32L324.44,306.72L324.47,306.49L326.07,288.52L326.1,288.05L328.66,235.24L328.69,234.53L331.81,178.37L331.84,178.02L333.97,161.84L334,161.7L336,155.78" style="vector-effect: none; fill: none; stroke: rgb(51, 204, 51); stroke-opacity: 1; stroke-width: 1.7px; opacity: 1;"/></g><g class="points"/><g class="text"/></g><g class="trace scatter trace87f77f" style="stroke-miterlimit: 2; opacity: 1;"><g class="fills"/><g class="errorbars"/><g class="lines"><path class="js-line" d="M0,302.5L1.8,301.51L1.8,301.51L1.8,301.5L2.79,298.47L2.79,298.46L4.22,289.15L4.25,288.9L6.99,259.9L7.02,259.52L11.4,213.41L11.43,213.21L13.65,203.35L13.68,203.27L15.9,199.18L15.93,199.15L18.77,197.17L18.8,197.16L24.75,195.71L24.78,195.71L33.6,194.35L33.6,328.64L43.89,327.89L43.92,327.88L47.13,326.11L47.16,326.08L49.47,322.95L49.5,322.89L51.38,318L51.41,317.9L53.23,309.76L53.26,309.59L54.68,299.85L54.71,299.6L57.49,270.25L57.52,269.87L61.9,222.54L61.93,222.33L64.15,212.53L64.18,212.45L66.21,208.92L66.24,208.89L67.2,208.11L67.2,328.78L77.43,328.03L77.46,328.02L80.64,326.25L80.67,326.22L82.95,323.12L82.98,323.06L85.2,316.99L85.23,316.88L87.6,304.35L87.64,304.13L90.23,279.63L90.26,279.27L95.93,218.35L95.96,218.17L98.15,209.99L98.18,209.92L100.37,206.87L100.4,206.84L100.8,206.56L100.8,328.77L112.33,327.53L112.36,327.52L115.28,325.13L115.32,325.09L117.75,320.41L117.78,320.32L119.97,311.95L120,311.79L122.35,295.34L122.38,295.06L125.49,259.02L125.52,258.62L129.04,221.67L129.07,221.46L131.22,211.52L131.26,211.44L133.29,207.68L133.32,207.65L134.4,206.73L134.4,328.77L144.63,328.02L144.66,328.01L147.87,326.23L147.9,326.2L150.4,322.67L150.43,322.6L152.62,316.25L152.65,316.12L154.84,304.29L154.87,304.07L157.46,279.53L157.49,279.17L163.16,218.39L163.19,218.22L165.38,210.1L165.41,210.03L167.48,207.1L167.51,207.07L168,206.71L168,328.77L178.23,328.02L178.26,328.01L181.47,326.23L181.5,326.2L184,322.67L184.03,322.6L186.22,316.25L186.25,316.12L188.44,304.29L188.47,304.07L191.06,279.54L191.09,279.18L196.64,219.11L196.67,218.93L198.83,210.46L198.86,210.38L201.08,207.1L201.11,207.07L201.6,206.71L201.6,328.77L211.83,328.02L211.86,328.01L215.07,326.23L215.1,326.2L217.6,322.67L217.63,322.6L219.82,316.25L219.85,316.12L222.04,304.29L222.07,304.07L224.66,279.54L224.69,279.18L230.24,219.11L230.27,218.93L232.43,210.46L232.46,210.38L234.68,207.1L234.71,207.07L235.2,206.71L235.2,328.77L245.43,328.02L245.46,328.01L248.67,326.23L248.7,326.2L251.2,322.67L251.23,322.6L253.42,316.25L253.45,316.12L255.64,304.29L255.67,304.07L258.26,279.54L258.29,279.18L263.84,219.11L263.87,218.93L266.03,210.46L266.06,210.38L268.28,207.1L268.31,207.07L268.8,206.71L268.8,328.77L279.03,328.02L279.06,328.01L282.27,326.23L282.3,326.2L284.8,322.67L284.83,322.6L287.02,316.25L287.05,316.12L289.24,304.29L289.27,304.07L291.86,279.54L291.89,279.18L297.44,219.11L297.47,218.93L299.63,210.46L299.66,210.38L301.88,207.1L301.91,207.07L302.4,206.71L302.4,328.77L312.63,328.02L312.66,328.01L315.87,326.23L315.9,326.2L318.4,322.67L318.43,322.6L320.62,316.25L320.65,316.12L322.84,304.29L322.87,304.07L325.46,279.54L325.49,279.18L331.04,219.11L331.07,218.93L333.23,210.46L333.26,210.38L335.48,207.1L335.51,207.07L336,206.71" style="vector-effect: none; fill: none; stroke: rgb(255, 28, 28); stroke-opacity: 1; stroke-width: 1.7px; opacity: 1;"/></g><g class="points"/><g class="text"/></g></g></g></g><path class="xlines-above crisp" d="M0,0" style="fill: none;"/><path class="ylines-above crisp" d="M0,0" style="fill: none;"/><g class="overlines-above"/><g class="xaxislayer-above"><g class="xtick"><text text-anchor="start" x="0" y="365" transform="translate(40,0) rotate(90,0,358)" style="font-family: 'Open Sans', verdana, arial, sans-serif; font-size: 14px; fill: rgb(0, 0, 0); fill-opacity: 1; white-space: pre; opacity: 1;">0</text></g><g class="xtick"><text text-anchor="start" x="0" y="365" style="font-family: 'Open Sans', verdana, arial, sans-serif; font-size: 14px; fill: rgb(0, 0, 0); fill-opacity: 1; white-space: pre; opacity: 1;" transform="translate(56.8,0) rotate(90,0,358)">12</text></g><g class="xtick"><text text-anchor="start" x="0" y="365" style="font-family: 'Open Sans', verdana, arial, sans-serif; font-size: 14px; fill: rgb(0, 0, 0); fill-opacity: 1; white-space: pre; opacity: 1;" transform="translate(73.6,0) rotate(90,0,358)">24</text></g><g class="xtick"><text text-anchor="start" x="0" y="365" style="font-family: 'Open Sans', verdana, arial, sans-serif; font-size: 14px; fill: rgb(0, 0, 0); fill-opacity: 1; white-space: pre; opacity: 1;" transform="translate(90.4,0) rotate(90,0,358)">36</text></g><g class="xtick"><text text-anchor="start" x="0" y="365" style="font-family: 'Open Sans', verdana, arial, sans-serif; font-size: 14px; fill: rgb(0, 0, 0); fill-opacity: 1; white-space: pre; opacity: 1;" transform="translate(107.2,0) rotate(90,0,358)">48</text></g><g class="xtick"><text text-anchor="start" x="0" y="365" style="font-family: 'Open Sans', verdana, arial, sans-serif; font-size: 14px; fill: rgb(0, 0, 0); fill-opacity: 1; white-space: pre; opacity: 1;" transform="translate(124,0) rotate(90,0,358)">60</text></g><g class="xtick"><text text-anchor="start" x="0" y="365" style="font-family: 'Open Sans', verdana, arial, sans-serif; font-size: 14px; fill: rgb(0, 0, 0); fill-opacity: 1; white-space: pre; opacity: 1;" transform="translate(140.8,0) rotate(90,0,358)">72</text></g><g class="xtick"><text text-anchor="start" x="0" y="365" style="font-family: 'Open Sans', verdana, arial, sans-serif; font-size: 14px; fill: rgb(0, 0, 0); fill-opacity: 1; white-space: pre; opacity: 1;" transform="translate(157.6,0) rotate(90,0,358)">84</text></g><g class="xtick"><text text-anchor="start" x="0" y="365" style="font-family: 'Open Sans', verdana, arial, sans-serif; font-size: 14px; fill: rgb(0, 0, 0); fill-opacity: 1; white-space: pre; opacity: 1;" transform="translate(174.4,0) rotate(90,0,358)">96</text></g><g class="xtick"><text text-anchor="start" x="0" y="365" style="font-family: 'Open Sans', verdana, arial, sans-serif; font-size: 14px; fill: rgb(0, 0, 0); fill-opacity: 1; white-space: pre; opacity: 1;" transform="translate(191.2,0) rotate(90,0,358)">108</text></g><g class="xtick"><text text-anchor="start" x="0" y="365" style="font-family: 'Open Sans', verdana, arial, sans-serif; font-size: 14px; fill: rgb(0, 0, 0); fill-opacity: 1; white-space: pre; opacity: 1;" transform="translate(208,0) rotate(90,0,358)">120</text></g><g class="xtick"><text text-anchor="start" x="0" y="365" style="font-family: 'Open Sans', verdana, arial, sans-serif; font-size: 14px; fill: rgb(0, 0, 0); fill-opacity: 1; white-space: pre; opacity: 1;" transform="translate(224.8,0) rotate(90,0,358)">132</text></g><g class="xtick"><text text-anchor="start" x="0" y="365" style="font-family: 'Open Sans', verdana, arial, sans-serif; font-size: 14px; fill: rgb(0, 0, 0); fill-opacity: 1; white-space: pre; opacity: 1;" transform="translate(241.6,0) rotate(90,0,358)">144</text></g><g class="xtick"><text text-anchor="start" x="0" y="365" style="font-family: 'Open Sans', verdana, arial, sans-serif; font-size: 14px; fill: rgb(0, 0, 0); fill-opacity: 1; white-space: pre; opacity: 1;" transform="translate(258.4,0) rotate(90,0,358)">156</text></g><g class="xtick"><text text-anchor="start" x="0" y="365" style="font-family: 'Open Sans', verdana, arial, sans-serif; font-size: 14px; fill: rgb(0, 0, 0); fill-opacity: 1; white-space: pre; opacity: 1;" transform="translate(275.2,0) rotate(90,0,358)">168</text></g><g class="xtick"><text text-anchor="start" x="0" y="365" style="font-family: 'Open Sans', verdana, arial, sans-serif; font-size: 14px; fill: rgb(0, 0, 0); fill-opacity: 1; white-space: pre; opacity: 1;" transform="translate(292,0) rotate(90,0,358)">180</text></g><g class="xtick"><text text-anchor="start" x="0" y="365" style="font-family: 'Open Sans', verdana, arial, sans-serif; font-size: 14px; fill: rgb(0, 0, 0); fill-opacity: 1; white-space: pre; opacity: 1;" transform="translate(308.8,0) rotate(90,0,358)">192</text></g><g class="xtick"><text text-anchor="start" x="0" y="365" style="font-family: 'Open Sans', verdana, arial, sans-serif; font-size: 14px; fill: rgb(0, 0, 0); fill-opacity: 1; white-space: pre; opacity: 1;" transform="translate(325.6,0) rotate(90,0,358)">204</text></g><g class="xtick"><text text-anchor="start" x="0" y="365" style="font-family: 'Open Sans', verdana, arial, sans-serif; font-size: 14px; fill: rgb(0, 0, 0); fill-opacity: 1; white-space: pre; opacity: 1;" transform="translate(342.4,0) rotate(90,0,358)">216</text></g><g class="xtick"><text text-anchor="start" x="0" y="365" style="font-family: 'Open Sans', verdana, arial, sans-serif; font-size: 14px; fill: rgb(0, 0, 0); fill-opacity: 1; white-space: pre; opacity: 1;" transform="translate(359.2,0) rotate(90,0,358)">228</text></g><g class="xtick"><text text-anchor="start" x="0" y="365" style="font-family: 'Open Sans', verdana, arial, sans-serif; font-size: 14px; fill: rgb(0, 0, 0); fill-opacity: 1; white-space: pre; opacity: 1;" transform="translate(376,0) rotate(90,0,358)">240</text></g></g><g class="yaxislayer-above"><g class="ytick"><text text-anchor="end" x="39" y="4.8999999999999995" transform="translate(0,350)" style="font-family: 'Open Sans', verdana, arial, sans-serif; font-size: 14px; fill: rgb(0, 0, 0); fill-opacity: 1; white-space: pre; opacity: 1;">0</text></g><g class="ytick"><text text-anchor="end" x="39" y="4.8999999999999995" style="font-family: 'Open Sans', verdana, arial, sans-serif; font-size: 14px; fill: rgb(0, 0, 0); fill-opacity: 1; white-space: pre; opacity: 1;" transform="translate(0,295)">0.2</text></g><g class="ytick"><text text-anchor="end" x="39" y="4.8999999999999995" style="font-family: 'Open Sans', verdana, arial, sans-serif; font-size: 14px; fill: rgb(0, 0, 0); fill-opacity: 1; white-space: pre; opacity: 1;" transform="translate(0,240)">0.4</text></g><g class="ytick"><text text-anchor="end" x="39" y="4.8999999999999995" style="font-family: 'Open Sans', verdana, arial, sans-serif; font-size: 14px; fill: rgb(0, 0, 0); fill-opacity: 1; white-space: pre; opacity: 1;" transform="translate(0,185)">0.6</text></g><g class="ytick"><text text-anchor="end" x="39" y="4.8999999999999995" style="font-family: 'Open Sans', verdana, arial, sans-serif; font-size: 14px; fill: rgb(0, 0, 0); fill-opacity: 1; white-space: pre; opacity: 1;" transform="translate(0,130)">0.8</text></g><g class="ytick"><text text-anchor="end" x="39" y="4.8999999999999995" style="font-family: 'Open Sans', verdana, arial, sans-serif; font-size: 14px; fill: rgb(0, 0, 0); fill-opacity: 1; white-space: pre; opacity: 1;" transform="translate(0,75)">1</text></g><g class="ytick"><text text-anchor="end" x="39" y="4.8999999999999995" style="font-family: 'Open Sans', verdana, arial, sans-serif; font-size: 14px; fill: rgb(0, 0, 0); fill-opacity: 1; white-space: pre; opacity: 1;" transform="translate(0,20)">1.2</text></g></g><g class="overaxes-above"/></g></g><g class="polarlayer"/><g class="smithlayer"/><g class="ternarylayer"/><g class="geolayer"/><g class="funnelarealayer"/><g class="pielayer"/><g class="iciclelayer"/><g class="treemaplayer"/><g class="sunburstlayer"/><g class="glimages"/><defs id="topdefs-a52e0e"><g class="clips"/><clipPath id="legenda52e0e"><rect width="117" height="53" x="0" y="0"/></clipPath></defs><g class="layer-above"><g class="imagelayer"/><g class="shapelayer"/></g><g class="infolayer"><g class="legend" pointer-events="all" transform="translate(382.72,20)"><rect class="bg" shape-rendering="crispEdges" width="117" height="53" x="0" y="0" style="stroke: rgb(68, 68, 68); stroke-opacity: 1; fill: rgb(255, 255, 255); fill-opacity: 1; stroke-width: 0px;"/><g class="scrollbox" transform="" clip-path="url(#legenda52e0e)"><g class="groups"><g class="traces" transform="translate(0,15.6)" style="opacity: 1;"><text class="legendtext" text-anchor="start" x="40" y="5.46" style="font-family: 'Open Sans', verdana, arial, sans-serif; font-size: 14px; fill: rgb(0, 0, 0); fill-opacity: 1; white-space: pre;">E_coli</text><g class="layers" style="opacity: 1;"><g class="legendfill"/><g class="legendlines"><path class="js-line" d="M5,0h30" style="fill: none; stroke: rgb(51, 204, 51); stroke-opacity: 1; stroke-width: 1.7px;"/></g><g class="legendsymbols"><g class="legendpoints"/></g></g><rect class="legendtoggle" x="0" y="-10.6" width="111.8125" height="21.2" style="fill: rgb(0, 0, 0); fill-opacity: 0;"/></g><g class="traces" transform="translate(0,36.8)" style="opacity: 1;"><text class="legendtext" text-anchor="start" x="40" y="5.46" style="font-family: 'Open Sans', verdana, arial, sans-serif; font-size: 14px; fill: rgb(0, 0, 0); fill-opacity: 1; white-space: pre;">Salmonella</text><g class="layers" style="opacity: 1;"><g class="legendfill"/><g class="legendlines"><path class="js-line" d="M5,0h30" style="fill: none; stroke: rgb(255, 28, 28); stroke-opacity: 1; stroke-width: 1.7px;"/></g><g class="legendsymbols"><g class="legendpoints"/></g></g><rect class="legendtoggle" x="0" y="-10.6" width="111.8125" height="21.2" style="fill: rgb(0, 0, 0); fill-opacity: 0;"/></g></g></g><rect class="scrollbar" rx="20" ry="3" width="0" height="0" x="0" y="0" style="fill: rgb(128, 139, 164); fill-opacity: 1;"/></g><g class="g-gtitle"/><g class="g-xtitle" transform="translate(0,4.684374999999989)"><text class="xtitle" x="208" y="391.315625" text-anchor="middle" style="opacity: 1; font-family: 'Open Sans', verdana, arial, sans-serif; font-size: 14px; fill: rgb(0, 0, 0); fill-opacity: 1; white-space: pre;">Time [1/h]</text></g><g class="g-ytitle" transform="translate(0.150390625,0)"><text class="ytitle" transform="rotate(-90,14.850000000000001,185)" x="14.850000000000001" y="185" text-anchor="middle" style="opacity: 1; font-family: 'Open Sans', verdana, arial, sans-serif; font-size: 14px; fill: rgb(0, 0, 0); fill-opacity: 1; white-space: pre;">Abundance</text></g></g></svg>