<svg class="main-svg" xmlns="http://www.w3.org/2000/svg" xmlns:xlink="http://www.w3.org/1999/xlink" width="200" height="200" style="" viewBox="0 0 200 200"><rect x="0" y="0" width="200" height="200" style="fill: rgb(255, 255, 255); fill-opacity: 1;"/><defs id="defs-e4da1d"><g class="clips"><clipPath id="clipe4da1dxyplot" class="plotclip"><rect width="124" height="134"/></clipPath><clipPath class="axesclip" id="clipe4da1dx"><rect x="46" y="0" width="124" height="200"/></clipPath><clipPath class="axesclip" id="clipe4da1dy"><rect x="0" y="30" width="200" height="134"/></clipPath><clipPath class="axesclip" id="clipe4da1dxy"><rect x="46" y="30" width="124" height="134"/></clipPath></g><g class="gradients"/><g class="patterns"/></defs><g class="bglayer"/><g class="layer-below"><g class="imagelayer"/><g class="shapelayer"/></g><g class="cartesianlayer"><g class="subplot xy"><g class="layer-subplot"><g class="shapelayer"/><g class="imagelayer"/></g><g class="minor-gridlayer"><g class="x"/><g class="y"/></g><g class="gridlayer"><g class="x"><path class="xgrid crisp" transform="translate(77,0)" d="M0,30v134" style="stroke: rgb(128, 128, 128); stroke-opacity: 1; stroke-width: 0.2px;"/><path class="xgrid crisp" transform="translate(108,0)" d="M0,30v134" style="stroke: rgb(128, 128, 128); stroke-opacity: 1; stroke-width: 0.2px;"/><path class="xgrid crisp" transform="translate(139,0)" d="M0,30v134" style="stroke: rgb(128, 128, 128); stroke-opacity: 1; stroke-width: 0.2px;"/></g><g class="y"><path class="ygrid crisp" transform="translate(0,130.5)" d="M46,0h124" style="stroke: rgb(128, 128, 128); stroke-opacity: 1; stroke-width: 0.2px;"/><path class="ygrid crisp" transform="translate(0,97)" d="M46,0h124" style="stroke: rgb(128, 128, 128); stroke-opacity: 1; stroke-width: 0.2px;"/><path class="ygrid crisp" transform="translate(0,63.5)" d="M46,0h124" style="stroke: rgb(128, 128, 128); stroke-opacity: 1; stroke-width: 0.2px;"/></g></g><g class="zerolinelayer"/><g class="layer-between"><g class="shapelayer"/><g class="imagelayer"/></g><path class="xlines-below"/><path class="ylines-below"/><g class="overlines-below"/><g class="xaxislayer-below"/><g class="yaxislayer-below"/><g class="overaxes-below"/><g class="overplot"><g class="xy" transform="translate(46,30)" clip-path="url(#clipe4da1dxyplot)"><g class="scatterlayer mlayer"><g class="trace scatter trace0b97d1" style="stroke-miterlimit: 2; opacity: 1;"><g class="fills"/><g class="errorbars"/><g class="lines"><path class="js-line" d="M0,53.6L3.35,32.45L3.38,32.44L12.11,29.51L12.14,29.51L20.16,27.47L20.19,27.47L22.67,27.93L22.69,27.95L24.86,30.28L24.88,30.32L28.55,36.45L28.58,36.5L31,40.9L31,67.7L34.35,46.68L34.38,46.66L40.3,43.78L40.32,43.76L45.42,40.2L45.44,40.17L50.2,35.67L50.22,35.64L55.91,28.38L55.94,28.34L62,19.12L62,45.92L65.32,25.21L65.35,25.21L73.86,24.96L73.88,24.98L75.62,26.48L75.65,26.52L79.18,32.57L79.2,32.62L93,60.28L93,87.08L96.35,66.05L96.38,66.04L104.06,61.95L104.09,61.93L110.77,56.25L110.8,56.22L115.72,50.24L115.75,50.2L120.25,42.97L120.27,42.92L124,35.38" style="vector-effect: none; fill: none; stroke: rgb(152, 202, 170); stroke-opacity: 1; stroke-width: 1.7px; opacity: 1;"/></g><g class="points"/><g class="text"/></g><g class="trace scatter trace1b0787" style="stroke-miterlimit: 2; opacity: 1;"><g class="fills"/><g class="errorbars"/><g class="lines"><path class="js-line" d="M0,53.6L8.41,51.73L8.44,51.71L11.63,49.63L11.66,49.61L14.62,45.6L14.64,45.55L16.92,39.99L16.95,39.9L19.71,29.27L19.74,29.14L24.17,10.04L24.2,9.97L26.14,7.58L26.16,7.56L29.38,7.06L29.41,7.06L31,7.03L31,33.83L52.02,30.29L52.04,30.28L56.34,28.36L56.37,28.34L58.73,25.55L58.76,25.5L60.89,19.26L60.92,19.15L62,14.87L62,41.67L67.11,40.24L67.14,40.22L68.96,37.93L68.99,37.87L70.7,33.32L70.73,33.22L77.1,8.33L77.13,8.3L79.09,7.26L79.12,7.25L84.72,7.02L84.75,7.02L93,7.01L93,33.81L124,29.58" style="vector-effect: none; fill: none; stroke: rgb(49, 97, 66); stroke-opacity: 1; stroke-width: 1.7px; opacity: 1;"/></g><g class="points"/><g class="text"/></g></g></g></g><g class="zerolinelayer-above"/><path class="xlines-above crisp" d="M45.5,164.25H170.5M45.5,29.75H170.5" style="fill: none; stroke-width: 0.5px; stroke: rgb(0, 0, 0); stroke-opacity: 1;"/><path class="ylines-above crisp" d="M45.75,30V164M170.25,30V164" style="fill: none; stroke-width: 0.5px; stroke: rgb(0, 0, 0); stroke-opacity: 1;"/><g class="overlines-above"/><g class="xaxislayer-above"><path class="xtick ticks crisp" d="M0,164v-5" transform="translate(77,0)" style="stroke: rgb(0, 0, 0); stroke-opacity: 1; stroke-width: 0.5px;"/><path class="xtick ticks crisp" d="M0,164v-5" transform="translate(108,0)" style="stroke: rgb(0, 0, 0); stroke-opacity: 1; stroke-width: 0.5px;"/><path class="xtick ticks crisp" d="M0,164v-5" transform="translate(139,0)" style="stroke: rgb(0, 0, 0); stroke-opacity: 1; stroke-width: 0.5px;"/><g class="xtick"><text text-anchor="middle" x="0" y="177.7" transform="translate(46,0)" style="font-family: 'Open Sans', verdana, arial, sans-serif; font-size: 11px; fill: rgb(0, 0, 0); fill-opacity: 1; white-space: pre;">0</text></g><g class="xtick"><text text-anchor="middle" x="0" y="177.7" style="font-family: 'Open Sans', verdana, arial, sans-serif; font-size: 11px; fill: rgb(0, 0, 0); fill-opacity: 1; white-space: pre;" transform="translate(77,0)">1</text></g><g class="xtick"><text text-anchor="middle" x="0" y="177.7" style="font-family: 'Open Sans', verdana, arial, sans-serif; font-size: 11px; fill: rgb(0, 0, 0); fill-opacity: 1; white-space: pre;" transform="translate(108,0)">2</text></g><g class="xtick"><text text-anchor="middle" x="0" y="177.7" style="font-family: 'Open Sans', verdana, arial, sans-serif; font-size: 11px; fill: rgb(0, 0, 0); fill-opacity: 1; white-space: pre;" transform="translate(139,0)">3</text></g><g class="xtick"><text text-anchor="middle" x="0" y="177.7" style="font-family: 'Open Sans', verdana, arial, sans-serif; font-size: 11px; fill: rgb(0, 0, 0); fill-opacity: 1; white-space: pre;" transform="translate(170,0)">4</text></g></g><g class="yaxislayer-above"><path class="ytick ticks crisp" d="M46,0h5" transform="translate(0,130.5)" style="stroke: rgb(0, 0, 0); stroke-opacity: 1; stroke-width: 0.5px;"/><path class="ytick ticks crisp" d="M46,0h5" transform="translate(0,97)" style="stroke: rgb(0, 0, 0); stroke-opacity: 1; stroke-width: 0.5px;"/><path class="ytick ticks crisp" d="M46,0h5" transform="translate(0,63.5)" style="stroke: rgb(0, 0, 0); stroke-opacity: 1; stroke-width: 0.5px;"/><g class="ytick"><text text-anchor="end" x="43.3" y="3.8499999999999996" transform="translate(0,164)" style="font-family: 'Open Sans', verdana, arial, sans-serif; font-size: 11px; fill: rgb(0, 0, 0); fill-opacity: 1; white-space: pre;">10⁰</text></g><g class="ytick"><text text-anchor="end" x="43.3" y="3.8499999999999996" style="font-family: 'Open Sans', verdana, arial, sans-serif; font-size: 11px; fill: rgb(0, 0, 0); fill-opacity: 1; white-space: pre;" transform="translate(0,130.5)">10²·⁵</text></g><g class="ytick"><text text-anchor="end" x="43.3" y="3.8499999999999996" style="font-family: 'Open Sans', verdana, arial, sans-serif; font-size: 11px; fill: rgb(0, 0, 0); fill-opacity: 1; white-space: pre;" transform="translate(0,97)">10⁵</text></g><g class="ytick"><text text-anchor="end" x="43.3" y="3.8499999999999996" style="font-family: 'Open Sans', verdana, arial, sans-serif; font-size: 11px; fill: rgb(0, 0, 0); fill-opacity: 1; white-space: pre;" transform="translate(0,63.5)">10⁷·⁵</text></g><g class="ytick"><text text-anchor="end" x="43.3" y="3.8499999999999996" style="font-family: 'Open Sans', verdana, arial, sans-serif; font-size: 11px; fill: rgb(0, 0, 0); fill-opacity: 1; white-space: pre;" transform="translate(0,30)">10¹⁰</text></g></g><g class="overaxes-above"/></g></g><g class="polarlayer"/><g class="smithlayer"/><g class="ternarylayer"/><g class="geolayer"/><g class="funnelarealayer"/><g class="pielayer"/><g class="iciclelayer"/><g class="treemaplayer"/><g class="sunburstlayer"/><g class="glimages"/><defs id="topdefs-e4da1d"><g class="clips"/></defs><g class="layer-above"><g class="imagelayer"/><g class="shapelayer"/></g><g class="infolayer"><g class="g-gtitle"/><g class="g-xtitle" transform="translate(0,4.550000000000011)"><text class="xtitle" x="108" y="188.1501953125" text-anchor="middle" style="opacity: 1; font-family: 'Open Sans', verdana, arial, sans-serif; font-size: 11px; fill: rgb(0, 0, 0); fill-opacity: 1; white-space: pre;">Time (days)</text></g><g class="g-ytitle"><text class="ytitle" transform="rotate(-90,16.5435546875,97)" x="16.5435546875" y="97" text-anchor="middle" style="opacity: 1; font-family: 'Open Sans', verdana, arial, sans-serif; font-size: 11px; fill: rgb(0, 0, 0); fill-opacity: 1; white-space: pre;">CFUs/mL</text></g></g></svg>