<svg class="main-svg" xmlns="http://www.w3.org/2000/svg" xmlns:xlink="http://www.w3.org/1999/xlink" width="180" height="180" style="" viewBox="0 0 180 180"><rect x="0" y="0" width="180" height="180" style="fill: rgb(255, 255, 255); fill-opacity: 1;"/><defs id="defs-aba41d"><g class="clips"><clipPath id="clipaba41dxyplot" class="plotclip"><rect width="112" height="114"/></clipPath><clipPath class="axesclip" id="clipaba41dx"><rect x="38" y="0" width="112" height="180"/></clipPath><clipPath class="axesclip" id="clipaba41dy"><rect x="0" y="30" width="180" height="114"/></clipPath><clipPath class="axesclip" id="clipaba41dxy"><rect x="38" y="30" width="112" height="114"/></clipPath></g><g class="gradients"/><g class="patterns"/></defs><g class="bglayer"/><g class="layer-below"><g class="imagelayer"/><g class="shapelayer"/></g><g class="cartesianlayer"><g class="subplot xy"><g class="layer-subplot"><g class="shapelayer"/><g class="imagelayer"/></g><g class="minor-gridlayer"><g class="x"/><g class="y"/></g><g class="gridlayer"><g class="x"><path class="xgrid crisp" transform="translate(61.33,0)" d="M0,30v114" style="stroke: rgb(128, 128, 128); stroke-opacity: 1; stroke-width: 0.2px;"/><path class="xgrid crisp" transform="translate(84.67,0)" d="M0,30v114" style="stroke: rgb(128, 128, 128); stroke-opacity: 1; stroke-width: 0.2px;"/><path class="xgrid crisp" transform="translate(108,0)" d="M0,30v114" style="stroke: rgb(128, 128, 128); stroke-opacity: 1; stroke-width: 0.2px;"/><path class="xgrid crisp" transform="translate(131.32999999999998,0)" d="M0,30v114" style="stroke: rgb(128, 128, 128); stroke-opacity: 1; stroke-width: 0.2px;"/></g><g class="y"><path class="ygrid crisp" transform="translate(0,138.3)" d="M38,0h112" style="stroke: rgb(128, 128, 128); stroke-opacity: 1; stroke-width: 0.2px;"/><path class="ygrid crisp" transform="translate(0,97.26)" d="M38,0h112" style="stroke: rgb(128, 128, 128); stroke-opacity: 1; stroke-width: 0.2px;"/><path class="ygrid crisp" transform="translate(0,56.22)" d="M38,0h112" style="stroke: rgb(128, 128, 128); stroke-opacity: 1; stroke-width: 0.2px;"/></g></g><g class="zerolinelayer"/><g class="layer-between"><g class="shapelayer"/><g class="imagelayer"/></g><path class="xlines-below"/><path class="ylines-below"/><g class="overlines-below"/><g class="xaxislayer-below"/><g class="yaxislayer-below"/><g class="overaxes-below"/><g class="overplot"><g class="xy" transform="translate(38,30)" clip-path="url(#clipaba41dxyplot)"><g class="scatterlayer mlayer"><g class="trace scatter trace974b38" style="stroke-miterlimit: 2; opacity: 1;"><g class="fills"/><g class="errorbars"/><g class="lines"><path class="js-line" d="M0,108.3L2.33,108.3L2.33,108.3L2.36,5.7L12.79,7.84L12.82,7.86L15.26,9.64L15.28,9.67L16.67,12.43L16.7,12.51L17.95,18.95L17.98,19.16L18.98,31.25L19.01,31.69L22.66,101.44L22.68,101.55L24.12,104.28L24.15,104.3L26.56,104.89L26.59,104.89L28,104.94L28,104.94L28,108.3L30.33,108.3L30.33,108.3L30.36,5.7L39.09,39.17L39.12,39.26L46.9,64.48L46.93,64.56L54.54,89.48L54.56,89.62L56,98.44L56,108.3L58.33,108.3L58.33,108.3L58.36,5.7L62.42,10.8L62.44,10.85L64.01,15.06L64.04,15.16L65.35,23.9L65.37,24.17L66.43,40.75L66.45,41.3L69.77,101.55L69.79,101.63L71.23,103.89L71.26,103.91L73.83,104.44L73.85,104.44L84,104.54L84,104.54L84,108.3L86.33,108.3L86.33,108.3L86.36,5.7L95.04,38.95L95.07,39.04L101.62,59.82L101.65,59.89L107.32,74.54L107.35,74.6L112,84.25" style="vector-effect: none; fill: none; stroke: rgb(79, 79, 79); stroke-opacity: 1; stroke-width: 1.7px; opacity: 1;"/></g><g class="points"/><g class="text"/></g></g></g></g><g class="zerolinelayer-above"/><path class="xlines-above crisp" d="M37.5,144.25H150.5M37.5,29.75H150.5" style="fill: none; stroke-width: 0.5px; stroke: rgb(0, 0, 0); stroke-opacity: 1;"/><path class="ylines-above crisp" d="M37.75,30V144M150.25,30V144" style="fill: none; stroke-width: 0.5px; stroke: rgb(0, 0, 0); stroke-opacity: 1;"/><g class="overlines-above"/><g class="xaxislayer-above"><g class="xtick"><text text-anchor="middle" x="0" y="157.7" transform="translate(38,0)" style="font-family: 'Open Sans', verdana, arial, sans-serif; font-size: 11px; fill: rgb(0, 0, 0); fill-opacity: 1; white-space: pre;">0</text></g><g class="xtick"><text text-anchor="middle" x="0" y="157.7" style="font-family: 'Open Sans', verdana, arial, sans-serif; font-size: 11px; fill: rgb(0, 0, 0); fill-opacity: 1; white-space: pre;" transform="translate(61.33,0)">20</text></g><g class="xtick"><text text-anchor="middle" x="0" y="157.7" style="font-family: 'Open Sans', verdana, arial, sans-serif; font-size: 11px; fill: rgb(0, 0, 0); fill-opacity: 1; white-space: pre;" transform="translate(84.67,0)">40</text></g><g class="xtick"><text text-anchor="middle" x="0" y="157.7" style="font-family: 'Open Sans', verdana, arial, sans-serif; font-size: 11px; fill: rgb(0, 0, 0); fill-opacity: 1; white-space: pre;" transform="translate(108,0)">60</text></g><g class="xtick"><text text-anchor="middle" x="0" y="157.7" style="font-family: 'Open Sans', verdana, arial, sans-serif; font-size: 11px; fill: rgb(0, 0, 0); fill-opacity: 1; white-space: pre;" transform="translate(131.32999999999998,0)">80</text></g></g><g class="yaxislayer-above"><g class="ytick"><text text-anchor="end" x="35.3" y="3.8499999999999996" transform="translate(0,138.3)" style="font-family: 'Open Sans', verdana, arial, sans-serif; font-size: 11px; fill: rgb(0, 0, 0); fill-opacity: 1; white-space: pre;">0</text></g><g class="ytick"><text text-anchor="end" x="35.3" y="3.8499999999999996" style="font-family: 'Open Sans', verdana, arial, sans-serif; font-size: 11px; fill: rgb(0, 0, 0); fill-opacity: 1; white-space: pre;" transform="translate(0,97.26)">0.1</text></g><g class="ytick"><text text-anchor="end" x="35.3" y="3.8499999999999996" style="font-family: 'Open Sans', verdana, arial, sans-serif; font-size: 11px; fill: rgb(0, 0, 0); fill-opacity: 1; white-space: pre;" transform="translate(0,56.22)">0.2</text></g></g><g class="overaxes-above"/></g></g><g class="polarlayer"/><g class="smithlayer"/><g class="ternarylayer"/><g class="geolayer"/><g class="funnelarealayer"/><g class="pielayer"/><g class="iciclelayer"/><g class="treemaplayer"/><g class="sunburstlayer"/><g class="glimages"/><defs id="topdefs-aba41d"><g class="clips"/></defs><g class="layer-above"><g class="imagelayer"/><g class="shapelayer"/></g><g class="infolayer"><g class="g-gtitle"/><g class="g-xtitle" transform="translate(0,4.550000000000011)"><text class="xtitle" x="94" y="168.1501953125" text-anchor="middle" style="opacity: 1; font-family: 'Open Sans', verdana, arial, sans-serif; font-size: 11px; fill: rgb(0, 0, 0); fill-opacity: 1; white-space: pre;">Time [h]</text></g><g class="g-ytitle"><text class="ytitle" transform="rotate(-90,16.1841796875,87)" x="16.1841796875" y="87" text-anchor="middle" style="opacity: 1; font-family: 'Open Sans', verdana, arial, sans-serif; font-size: 11px; fill: rgb(0, 0, 0); fill-opacity: 1; white-space: pre;">Cf [µg/mL]</text></g></g></svg>