<svg class="main-svg" xmlns="http://www.w3.org/2000/svg" xmlns:xlink="http://www.w3.org/1999/xlink" width="500" height="400" style="" viewBox="0 0 500 400"><rect x="0" y="0" width="500" height="400" style="fill: rgb(255, 255, 255); fill-opacity: 1;"/><defs id="defs-086a5a"><g class="clips"><clipPath id="clip086a5axyplot" class="plotclip"><rect width="460" height="330"/></clipPath><clipPath class="axesclip" id="clip086a5ax"><rect x="40" y="0" width="460" height="400"/></clipPath><clipPath class="axesclip" id="clip086a5ay"><rect x="0" y="20" width="500" height="330"/></clipPath><clipPath class="axesclip" id="clip086a5axy"><rect x="40" y="20" width="460" height="330"/></clipPath></g><g class="gradients"/><g class="patterns"/></defs><g class="bglayer"/><g class="layer-below"><g class="imagelayer"/><g class="shapelayer"/></g><g class="cartesianlayer"><g class="subplot xy"><g class="layer-subplot"><g class="shapelayer"/><g class="imagelayer"/></g><g class="minor-gridlayer"><g class="x"/><g class="y"/></g><g class="gridlayer"><g class="x"><path class="xgrid crisp" transform="translate(135.82999999999998,0)" d="M0,20v330" style="stroke: rgb(0, 0, 0); stroke-opacity: 1; stroke-width: 0.5px;"/><path class="xgrid crisp" transform="translate(231.67,0)" d="M0,20v330" style="stroke: rgb(0, 0, 0); stroke-opacity: 1; stroke-width: 0.5px;"/><path class="xgrid crisp" transform="translate(327.5,0)" d="M0,20v330" style="stroke: rgb(0, 0, 0); stroke-opacity: 1; stroke-width: 0.5px;"/><path class="xgrid crisp" transform="translate(423.33,0)" d="M0,20v330" style="stroke: rgb(0, 0, 0); stroke-opacity: 1; stroke-width: 0.5px;"/></g><g class="y"><path class="ygrid crisp" transform="translate(0,274.1)" d="M40,0h460" style="stroke: rgb(0, 0, 0); stroke-opacity: 1; stroke-width: 0.5px;"/><path class="ygrid crisp" transform="translate(0,214.7)" d="M40,0h460" style="stroke: rgb(0, 0, 0); stroke-opacity: 1; stroke-width: 0.5px;"/><path class="ygrid crisp" transform="translate(0,155.3)" d="M40,0h460" style="stroke: rgb(0, 0, 0); stroke-opacity: 1; stroke-width: 0.5px;"/><path class="ygrid crisp" transform="translate(0,95.9)" d="M40,0h460" style="stroke: rgb(0, 0, 0); stroke-opacity: 1; stroke-width: 0.5px;"/><path class="ygrid crisp" transform="translate(0,36.5)" d="M40,0h460" style="stroke: rgb(0, 0, 0); stroke-opacity: 1; stroke-width: 0.5px;"/></g></g><g class="zerolinelayer"><path class="xzl zl crisp" transform="translate(40,0)" d="M0,20v330" style="stroke: rgb(0, 0, 0); stroke-opacity: 1; stroke-width: 0.5px;"/><path class="yzl zl crisp" transform="translate(0,333.5)" d="M40,0h460" style="stroke: rgb(0, 0, 0); stroke-opacity: 1; stroke-width: 0.5px;"/></g><g class="layer-between"><g class="shapelayer"/><g class="imagelayer"/></g><path class="xlines-below"/><path class="ylines-below"/><g class="overlines-below"/><g class="xaxislayer-below"/><g class="yaxislayer-below"/><g class="overaxes-below"/><g class="overplot"><g class="xy" transform="translate(40,20)" clip-path="url(#clip086a5axyplot)"><g class="scatterlayer mlayer"><g class="trace scatter trace63e448" style="stroke-miterlimit: 2; opacity: 1;"><g class="fills"/><g class="errorbars"/><g class="lines"><path class="js-line" d="M0,313.5L3.83,313.5L3.83,313.5L3.88,16.5L6.75,219.72L6.79,221.69L8.81,284.61L8.86,285.37L10.67,304.98L10.71,305.21L12.74,311.22L12.78,311.27L14.93,312.73L14.98,312.75L19.28,313.24L19.32,313.24L33.76,313.34L33.8,313.34L49.83,313.5L49.83,313.5L49.88,16.5L63.13,113.21L63.17,113.64L67.31,165.91L67.35,166.56L75.83,297.46L75.88,297.8L77.94,308.68L77.99,308.81L79.84,312.14L79.89,312.18L82.08,313.18L82.12,313.19L87.91,313.46L87.95,313.46L95.83,313.5L95.83,313.5L95.88,16.5L108.16,97.88L108.2,98.26L112.17,143.96L112.21,144.57L117.02,227.71L117.06,228.5L122.05,299.25L122.09,299.57L124.11,309.31L124.16,309.43L126.05,312.38L126.1,312.41L128.63,313.28L128.67,313.29L141.83,313.5L141.83,313.5L141.88,16.5L154.12,98.11L154.16,98.5L158.21,145.01L158.25,145.61L163.57,237.78L163.61,238.55L168.17,300.03L168.21,300.33L170.62,310.46L170.66,310.54L172.65,312.74L172.69,312.76L175.73,313.37L175.77,313.37L187.83,313.5L187.83,313.5L187.88,16.5L200.12,98.04L200.16,98.43L203.96,141.39L204,141.98L208.52,218.14L208.56,218.93L212.74,286.73L212.78,287.21L215.02,305.1L215.06,305.31L216.96,311.08L217,311.15L218.9,312.86L218.94,312.87L222.15,313.39L222.19,313.39L233.83,313.5L233.83,313.5L233.88,16.5L246.12,98.05L246.16,98.43L250.21,144.95L250.25,145.55L255.53,236.99L255.57,237.76L259.03,289.98L259.07,290.42L261.78,308.22L261.82,308.36L263.68,312.02L263.72,312.06L265.87,313.15L265.91,313.16L271.86,313.46L271.91,313.46L279.83,313.5L279.83,313.5L279.88,16.5L292.12,98.05L292.16,98.43L296.21,144.95L296.25,145.55L301.53,236.99L301.57,237.76L305.03,289.98L305.07,290.42L307.78,308.22L307.82,308.36L309.68,312.02L309.72,312.06L311.87,313.15L311.91,313.16L317.86,313.46L317.91,313.46L325.83,313.5L325.83,313.5L325.88,16.5L338.12,98.05L338.16,98.43L342.21,144.95L342.25,145.55L347.53,236.99L347.57,237.76L351.03,289.98L351.07,290.42L353.78,308.22L353.82,308.36L355.68,312.02L355.72,312.06L357.87,313.15L357.91,313.16L363.86,313.46L363.91,313.46L371.83,313.5L371.83,313.5L371.88,16.5L384.12,98.05L384.16,98.43L388.21,144.95L388.25,145.55L393.53,236.99L393.57,237.76L397.03,289.98L397.07,290.42L399.78,308.22L399.82,308.36L401.68,312.02L401.72,312.06L403.87,313.15L403.91,313.16L409.86,313.46L409.91,313.46L417.83,313.5L417.83,313.5L417.88,16.5L430.12,98.05L430.16,98.43L434.21,144.95L434.25,145.55L439.53,236.99L439.57,237.76L443.03,289.98L443.07,290.42L445.78,308.22L445.82,308.36L447.68,312.02L447.72,312.06L449.87,313.15L449.91,313.16L455.86,313.46L455.91,313.46L460,313.47" style="vector-effect: none; fill: none; stroke: rgb(0, 0, 0); stroke-opacity: 1; stroke-width: 1.7px; opacity: 1;"/></g><g class="points"/><g class="text"/></g></g></g></g><path class="xlines-above crisp" d="M0,0" style="fill: none;"/><path class="ylines-above crisp" d="M0,0" style="fill: none;"/><g class="overlines-above"/><g class="xaxislayer-above"><g class="xtick"><text text-anchor="middle" x="0" y="365" transform="translate(40,0)" style="font-family: 'Open Sans', verdana, arial, sans-serif; font-size: 14px; fill: rgb(0, 0, 0); fill-opacity: 1; white-space: pre; opacity: 1;">0</text></g><g class="xtick"><text text-anchor="middle" x="0" y="365" style="font-family: 'Open Sans', verdana, arial, sans-serif; font-size: 14px; fill: rgb(0, 0, 0); fill-opacity: 1; white-space: pre; opacity: 1;" transform="translate(135.82999999999998,0)">50</text></g><g class="xtick"><text text-anchor="middle" x="0" y="365" style="font-family: 'Open Sans', verdana, arial, sans-serif; font-size: 14px; fill: rgb(0, 0, 0); fill-opacity: 1; white-space: pre; opacity: 1;" transform="translate(231.67,0)">100</text></g><g class="xtick"><text text-anchor="middle" x="0" y="365" style="font-family: 'Open Sans', verdana, arial, sans-serif; font-size: 14px; fill: rgb(0, 0, 0); fill-opacity: 1; white-space: pre; opacity: 1;" transform="translate(327.5,0)">150</text></g><g class="xtick"><text text-anchor="middle" x="0" y="365" style="font-family: 'Open Sans', verdana, arial, sans-serif; font-size: 14px; fill: rgb(0, 0, 0); fill-opacity: 1; white-space: pre; opacity: 1;" transform="translate(423.33,0)">200</text></g></g><g class="yaxislayer-above"><g class="ytick"><text text-anchor="end" x="39" y="4.8999999999999995" transform="translate(0,333.5)" style="font-family: 'Open Sans', verdana, arial, sans-serif; font-size: 14px; fill: rgb(0, 0, 0); fill-opacity: 1; white-space: pre; opacity: 1;">0</text></g><g class="ytick"><text text-anchor="end" x="39" y="4.8999999999999995" style="font-family: 'Open Sans', verdana, arial, sans-serif; font-size: 14px; fill: rgb(0, 0, 0); fill-opacity: 1; white-space: pre; opacity: 1;" transform="translate(0,274.1)">0.05</text></g><g class="ytick"><text text-anchor="end" x="39" y="4.8999999999999995" style="font-family: 'Open Sans', verdana, arial, sans-serif; font-size: 14px; fill: rgb(0, 0, 0); fill-opacity: 1; white-space: pre; opacity: 1;" transform="translate(0,214.7)">0.1</text></g><g class="ytick"><text text-anchor="end" x="39" y="4.8999999999999995" style="font-family: 'Open Sans', verdana, arial, sans-serif; font-size: 14px; fill: rgb(0, 0, 0); fill-opacity: 1; white-space: pre; opacity: 1;" transform="translate(0,155.3)">0.15</text></g><g class="ytick"><text text-anchor="end" x="39" y="4.8999999999999995" style="font-family: 'Open Sans', verdana, arial, sans-serif; font-size: 14px; fill: rgb(0, 0, 0); fill-opacity: 1; white-space: pre; opacity: 1;" transform="translate(0,95.9)">0.2</text></g><g class="ytick"><text text-anchor="end" x="39" y="4.8999999999999995" style="font-family: 'Open Sans', verdana, arial, sans-serif; font-size: 14px; fill: rgb(0, 0, 0); fill-opacity: 1; white-space: pre; opacity: 1;" transform="translate(0,36.5)">0.25</text></g></g><g class="overaxes-above"/></g></g><g class="polarlayer"/><g class="smithlayer"/><g class="ternarylayer"/><g class="geolayer"/><g class="funnelarealayer"/><g class="pielayer"/><g class="iciclelayer"/><g class="treemaplayer"/><g class="sunburstlayer"/><g class="glimages"/><defs id="topdefs-086a5a"><g class="clips"/></defs><g class="layer-above"><g class="imagelayer"/><g class="shapelayer"/></g><g class="infolayer"><g class="g-gtitle"/><g class="g-xtitle" transform="translate(0,5.699999999999989)"><text class="xtitle" x="270" y="378.3" text-anchor="middle" style="opacity: 1; font-family: 'Open Sans', verdana, arial, sans-serif; font-size: 14px; fill: rgb(0, 0, 0); fill-opacity: 1; white-space: pre;">Time [1/h]</text></g><g class="g-ytitle" transform="translate(8.150390625,0)"><text class="ytitle" transform="rotate(-90,6.850000000000001,185)" x="6.850000000000001" y="185" text-anchor="middle" style="opacity: 1; font-family: 'Open Sans', verdana, arial, sans-serif; font-size: 14px; fill: rgb(0, 0, 0); fill-opacity: 1; white-space: pre;">Cefotaxime concentration [µg/mL]</text></g></g></svg>