<svg class="main-svg" xmlns="http://www.w3.org/2000/svg" xmlns:xlink="http://www.w3.org/1999/xlink" width="135" height="180" style="" viewBox="0 0 135 180"><rect x="0" y="0" width="135" height="180" style="fill: rgb(255, 255, 255); fill-opacity: 1;"/><defs id="defs-91e0b6"><g class="clips"><clipPath id="clip91e0b6xyplot" class="plotclip"><rect width="105" height="120"/></clipPath><clipPath class="axesclip" id="clip91e0b6x"><rect x="30" y="0" width="105" height="180"/></clipPath><clipPath class="axesclip" id="clip91e0b6y"><rect x="0" y="30" width="135" height="120"/></clipPath><clipPath class="axesclip" id="clip91e0b6xy"><rect x="30" y="30" width="105" height="120"/></clipPath></g><g class="gradients"/><g class="patterns"/></defs><g class="bglayer"/><g class="layer-below"><g class="imagelayer"/><g class="shapelayer"/></g><g class="cartesianlayer"><g class="subplot xy"><g class="layer-subplot"><g class="shapelayer"/><g class="imagelayer"/></g><g class="minor-gridlayer"><g class="x"/><g class="y"/></g><g class="gridlayer"><g class="x"><path class="xgrid crisp" transform="translate(51.879999999999995,0)" d="M0,30v120" style="stroke: rgb(128, 128, 128); stroke-opacity: 1; stroke-width: 0.2px;"/><path class="xgrid crisp" transform="translate(73.75,0)" d="M0,30v120" style="stroke: rgb(128, 128, 128); stroke-opacity: 1; stroke-width: 0.2px;"/><path class="xgrid crisp" transform="translate(95.63,0)" d="M0,30v120" style="stroke: rgb(128, 128, 128); stroke-opacity: 1; stroke-width: 0.2px;"/><path class="xgrid crisp" transform="translate(117.5,0)" d="M0,30v120" style="stroke: rgb(128, 128, 128); stroke-opacity: 1; stroke-width: 0.2px;"/></g><g class="y"><path class="ygrid crisp" transform="translate(0,144.1)" d="M30,0h105" style="stroke: rgb(128, 128, 128); stroke-opacity: 1; stroke-width: 0.2px;"/><path class="ygrid crisp" transform="translate(0,110.32)" d="M30,0h105" style="stroke: rgb(128, 128, 128); stroke-opacity: 1; stroke-width: 0.2px;"/><path class="ygrid crisp" transform="translate(0,76.53999999999999)" d="M30,0h105" style="stroke: rgb(128, 128, 128); stroke-opacity: 1; stroke-width: 0.2px;"/><path class="ygrid crisp" transform="translate(0,42.76)" d="M30,0h105" style="stroke: rgb(128, 128, 128); stroke-opacity: 1; stroke-width: 0.2px;"/></g></g><g class="zerolinelayer"/><g class="layer-between"><g class="shapelayer"/><g class="imagelayer"/></g><path class="xlines-below"/><path class="ylines-below"/><g class="overlines-below"/><g class="xaxislayer-below"/><g class="yaxislayer-below"/><g class="overaxes-below"/><g class="overplot"><g class="xy" transform="translate(30,30)" clip-path="url(#clip91e0b6xyplot)"><g class="scatterlayer mlayer"><g class="trace scatter trace6473f3" style="stroke-miterlimit: 2; opacity: 1;"><g class="fills"/><g class="errorbars"/><g class="lines"><path class="js-line" d="M0,6L1,7.49L1,7.5L1.79,12.2L1.79,12.23L6.76,80.53L6.79,80.75L9.08,96.96L9.1,97.09L11.99,107.78L12.01,107.83L14.81,112.06L14.83,112.08L17.46,113.48L17.48,113.49L21.91,113.9L21.94,113.9L26.25,113.9L26.25,113.9L26.25,6L28.31,6.88L28.31,6.88L28.32,6.89L31.93,14.14L31.95,14.19L35.28,23L35.3,23.08L38.75,35.78L38.77,35.89L41.78,51.75L41.81,51.9L50.31,111.02L50.33,111.09L52.02,113.66L52.04,113.67L52.5,113.87L52.5,113.87L52.5,6L53.33,9.81L53.33,9.83L54.12,22.13L54.12,22.18L54.76,45.39L54.78,46.5L56.9,98.56L56.93,98.82L58.45,108.95L58.47,109.04L60.35,112.83L60.37,112.85L62.54,113.83L62.56,113.84L69.4,114L69.43,114L78.75,114L78.75,114L78.75,6L88.4,6.75L88.43,6.76L94.38,8.21L94.4,8.22L97.85,10.4L97.87,10.43L100.18,13.56L100.21,13.6L102.4,19.64L102.42,19.73L104.23,29.54L104.25,29.71L105,35.95" style="vector-effect: none; fill: none; stroke: rgb(79, 79, 79); stroke-opacity: 1; stroke-width: 1.7px; opacity: 1;"/></g><g class="points"/><g class="text"/></g></g></g></g><g class="zerolinelayer-above"/><path class="xlines-above crisp" d="M29.5,150.25H135.5M29.5,29.75H135.5" style="fill: none; stroke-width: 0.5px; stroke: rgb(0, 0, 0); stroke-opacity: 1;"/><path class="ylines-above crisp" d="M29.75,30V150M135.25,30V150" style="fill: none; stroke-width: 0.5px; stroke: rgb(0, 0, 0); stroke-opacity: 1;"/><g class="overlines-above"/><g class="xaxislayer-above"><g class="xtick"><text text-anchor="middle" x="0" y="163.7" transform="translate(30,0)" style="font-family: 'Open Sans', verdana, arial, sans-serif; font-size: 11px; fill: rgb(0, 0, 0); fill-opacity: 1; white-space: pre;">0</text></g><g class="xtick"><text text-anchor="middle" x="0" y="163.7" style="font-family: 'Open Sans', verdana, arial, sans-serif; font-size: 11px; fill: rgb(0, 0, 0); fill-opacity: 1; white-space: pre;" transform="translate(51.879999999999995,0)">20</text></g><g class="xtick"><text text-anchor="middle" x="0" y="163.7" style="font-family: 'Open Sans', verdana, arial, sans-serif; font-size: 11px; fill: rgb(0, 0, 0); fill-opacity: 1; white-space: pre;" transform="translate(73.75,0)">40</text></g><g class="xtick"><text text-anchor="middle" x="0" y="163.7" style="font-family: 'Open Sans', verdana, arial, sans-serif; font-size: 11px; fill: rgb(0, 0, 0); fill-opacity: 1; white-space: pre;" transform="translate(95.63,0)">60</text></g><g class="xtick"><text text-anchor="middle" x="0" y="163.7" style="font-family: 'Open Sans', verdana, arial, sans-serif; font-size: 11px; fill: rgb(0, 0, 0); fill-opacity: 1; white-space: pre;" transform="translate(117.5,0)">80</text></g></g><g class="yaxislayer-above"><g class="ytick"><text text-anchor="end" x="27.3" y="3.8499999999999996" transform="translate(0,144.1)" style="font-family: 'Open Sans', verdana, arial, sans-serif; font-size: 11px; fill: rgb(0, 0, 0); fill-opacity: 1; white-space: pre;">0</text></g><g class="ytick"><text text-anchor="end" x="27.3" y="3.8499999999999996" style="font-family: 'Open Sans', verdana, arial, sans-serif; font-size: 11px; fill: rgb(0, 0, 0); fill-opacity: 1; white-space: pre;" transform="translate(0,110.32)">5</text></g><g class="ytick"><text text-anchor="end" x="27.3" y="3.8499999999999996" style="font-family: 'Open Sans', verdana, arial, sans-serif; font-size: 11px; fill: rgb(0, 0, 0); fill-opacity: 1; white-space: pre;" transform="translate(0,76.53999999999999)">10</text></g><g class="ytick"><text text-anchor="end" x="27.3" y="3.8499999999999996" style="font-family: 'Open Sans', verdana, arial, sans-serif; font-size: 11px; fill: rgb(0, 0, 0); fill-opacity: 1; white-space: pre;" transform="translate(0,42.76)">15</text></g></g><g class="overaxes-above"/></g></g><g class="polarlayer"/><g class="smithlayer"/><g class="ternarylayer"/><g class="geolayer"/><g class="funnelarealayer"/><g class="pielayer"/><g class="iciclelayer"/><g class="treemaplayer"/><g class="sunburstlayer"/><g class="glimages"/><defs id="topdefs-91e0b6"><g class="clips"/></defs><g class="layer-above"><g class="imagelayer"/><g class="shapelayer"/></g><g class="infolayer"><g class="g-gtitle"/><g class="g-xtitle" transform="translate(0,2.8498046875000114)"><text class="xtitle" x="82.5" y="174.1501953125" text-anchor="middle" style="opacity: 1; font-family: 'Open Sans', verdana, arial, sans-serif; font-size: 11px; fill: rgb(0, 0, 0); fill-opacity: 1; white-space: pre;">Time [h]</text></g><g class="g-ytitle" transform="translate(0.8935546875,0)"><text class="ytitle" transform="rotate(-90,11.106054687499999,90)" x="11.106054687499999" y="90" text-anchor="middle" style="opacity: 1; font-family: 'Open Sans', verdana, arial, sans-serif; font-size: 11px; fill: rgb(0, 0, 0); fill-opacity: 1; white-space: pre;">Ch [µg/mL]</text></g></g></svg>