<svg class="main-svg" xmlns="http://www.w3.org/2000/svg" xmlns:xlink="http://www.w3.org/1999/xlink" width="500" height="400" style="" viewBox="0 0 500 400"><rect x="0" y="0" width="500" height="400" style="fill: rgb(255, 255, 255); fill-opacity: 1;"/><defs id="defs-4c610a"><g class="clips"><clipPath id="clip4c610axyplot" class="plotclip"><rect width="460" height="330"/></clipPath><clipPath class="axesclip" id="clip4c610ax"><rect x="40" y="0" width="460" height="400"/></clipPath><clipPath class="axesclip" id="clip4c610ay"><rect x="0" y="20" width="500" height="330"/></clipPath><clipPath class="axesclip" id="clip4c610axy"><rect x="40" y="20" width="460" height="330"/></clipPath></g><g class="gradients"/><g class="patterns"/></defs><g class="bglayer"/><g class="layer-below"><g class="imagelayer"/><g class="shapelayer"/></g><g class="cartesianlayer"><g class="subplot xy"><g class="layer-subplot"><g class="shapelayer"/><g class="imagelayer"/></g><g class="minor-gridlayer"><g class="x"/><g class="y"/></g><g class="gridlayer"><g class="x"><path class="xgrid crisp" transform="translate(135.82999999999998,0)" d="M0,20v330" style="stroke: rgb(0, 0, 0); stroke-opacity: 1; stroke-width: 0.5px;"/><path class="xgrid crisp" transform="translate(231.67,0)" d="M0,20v330" style="stroke: rgb(0, 0, 0); stroke-opacity: 1; stroke-width: 0.5px;"/><path class="xgrid crisp" transform="translate(327.5,0)" d="M0,20v330" style="stroke: rgb(0, 0, 0); stroke-opacity: 1; stroke-width: 0.5px;"/><path class="xgrid crisp" transform="translate(423.33,0)" d="M0,20v330" style="stroke: rgb(0, 0, 0); stroke-opacity: 1; stroke-width: 0.5px;"/></g><g class="y"><path class="ygrid crisp" transform="translate(0,296.38)" d="M40,0h460" style="stroke: rgb(0, 0, 0); stroke-opacity: 1; stroke-width: 0.5px;"/><path class="ygrid crisp" transform="translate(0,259.25)" d="M40,0h460" style="stroke: rgb(0, 0, 0); stroke-opacity: 1; stroke-width: 0.5px;"/><path class="ygrid crisp" transform="translate(0,222.13)" d="M40,0h460" style="stroke: rgb(0, 0, 0); stroke-opacity: 1; stroke-width: 0.5px;"/><path class="ygrid crisp" transform="translate(0,185)" d="M40,0h460" style="stroke: rgb(0, 0, 0); stroke-opacity: 1; stroke-width: 0.5px;"/><path class="ygrid crisp" transform="translate(0,147.88)" d="M40,0h460" style="stroke: rgb(0, 0, 0); stroke-opacity: 1; stroke-width: 0.5px;"/><path class="ygrid crisp" transform="translate(0,110.75)" d="M40,0h460" style="stroke: rgb(0, 0, 0); stroke-opacity: 1; stroke-width: 0.5px;"/><path class="ygrid crisp" transform="translate(0,73.63)" d="M40,0h460" style="stroke: rgb(0, 0, 0); stroke-opacity: 1; stroke-width: 0.5px;"/><path class="ygrid crisp" transform="translate(0,36.5)" d="M40,0h460" style="stroke: rgb(0, 0, 0); stroke-opacity: 1; stroke-width: 0.5px;"/></g></g><g class="zerolinelayer"><path class="xzl zl crisp" transform="translate(40,0)" d="M0,20v330" style="stroke: rgb(0, 0, 0); stroke-opacity: 1; stroke-width: 0.5px;"/><path class="yzl zl crisp" transform="translate(0,333.5)" d="M40,0h460" style="stroke: rgb(0, 0, 0); stroke-opacity: 1; stroke-width: 0.5px;"/></g><g class="layer-between"><g class="shapelayer"/><g class="imagelayer"/></g><path class="xlines-below"/><path class="ylines-below"/><g class="overlines-below"/><g class="xaxislayer-below"/><g class="yaxislayer-below"/><g class="overaxes-below"/><g class="overplot"><g class="xy" transform="translate(40,20)" clip-path="url(#clip4c610axyplot)"><g class="scatterlayer mlayer"><g class="trace scatter trace0806c3" style="stroke-miterlimit: 2; opacity: 1;"><g class="fills"/><g class="errorbars"/><g class="lines"><path class="js-line" d="M0,16.5L0.59,133.07L0.59,133.72L1.29,226.31L1.29,226.7L3.57,310.86L3.58,310.88L4.8,313.21L4.85,313.23L7.42,313.49L7.46,313.49L20.38,313.5L20.42,313.5L46,313.5L46,313.5L46,16.5L46.74,30.67L46.74,30.76L47.92,63.5L47.92,63.63L49.23,117.04L49.23,117.22L49.96,152.23L50,154.38L52.28,235.68L52.32,236.7L55.36,283.17L55.4,283.56L58.44,301.47L58.49,301.62L60.89,307.71L60.93,307.78L64.02,311.23L64.06,311.26L67.81,312.8L67.86,312.81L73.72,313.42L73.77,313.42L92,313.5L92,313.5L92,16.5L92.73,31.31L92.73,31.4L93.93,66.42L93.93,66.55L95.32,126.29L95.32,126.48L95.76,149L95.76,149.21L96.51,183.96L96.55,185.77L98.75,251.5L98.79,252.34L101.07,284.12L101.11,284.51L103.39,299.4L103.43,299.58L105.79,306.85L105.84,306.94L108.33,310.48L108.37,310.52L111.83,312.49L111.87,312.51L117.32,313.34L117.36,313.34L132.72,313.5L132.77,313.5L138,313.5L138,313.5L138,16.5L138.74,31.36L138.74,31.45L139.95,66.71L139.95,66.85L141.25,122.13L141.25,122.32L141.7,145.13L141.7,145.34L142.21,169.63L142.26,171.64L144.49,245.35L144.53,246.27L147.45,286.96L147.49,287.31L149.85,301L149.9,301.16L152.26,307.57L152.3,307.65L155.26,311.15L155.3,311.19L159.18,312.82L159.22,312.83L167.07,313.47L167.12,313.47L184,313.5L184,313.5L184,16.5L184.74,31.37L184.74,31.46L185.95,66.74L185.95,66.88L187.25,122.19L187.25,122.38L187.7,145L187.7,145.2L188.42,179.44L188.47,181.31L190.7,249.91L190.75,250.77L192.98,282.81L193.03,283.22L195.35,298.89L195.39,299.09L197.88,306.85L197.92,306.93L200.79,310.8L200.83,310.83L203.96,312.5L204,312.51L209.44,313.34L209.49,313.34L224.89,313.5L224.93,313.5L230,313.5L230,313.5L230,16.5L230.74,31.37L230.74,31.46L231.95,66.74L231.95,66.88L233.25,122.18L233.25,122.37L233.7,144.99L233.7,145.19L234.42,179.43L234.47,181.3L236.7,249.9L236.75,250.76L238.98,282.81L239.03,283.21L241.35,298.89L241.39,299.08L243.71,306.49L243.75,306.58L246.58,310.62L246.62,310.65L249.96,312.5L250,312.51L255.44,313.34L255.49,313.34L270.89,313.5L270.93,313.5L276,313.5L276,313.5L276,16.5L276.74,31.37L276.74,31.46L277.95,66.74L277.95,66.88L279.25,122.19L279.25,122.38L279.66,143.17L279.66,143.37L280.17,167.67L280.21,169.7L283.08,257.23L283.13,257.99L285.4,286.64L285.45,286.99L287.68,300.35L287.73,300.52L290.05,307.18L290.09,307.27L292.58,310.62L292.62,310.65L295.96,312.5L296,312.51L301.44,313.34L301.49,313.34L316.89,313.5L316.93,313.5L322,313.5L322,313.5L322,16.5L322.74,31.37L322.74,31.46L323.95,66.74L323.95,66.88L325.25,122.19L325.25,122.37L325.7,144.99L325.7,145.19L326.42,179.43L326.47,181.3L328.7,249.9L328.75,250.76L330.98,282.81L331.03,283.21L333.35,298.89L333.39,299.08L335.71,306.49L335.75,306.58L338.58,310.62L338.62,310.65L341.96,312.5L342,312.51L347.44,313.34L347.49,313.34L362.89,313.5L362.93,313.5L368,313.5L368,313.5L368,16.5L368.74,31.37L368.74,31.46L369.95,66.74L369.95,66.88L371.25,122.19L371.25,122.37L371.7,144.99L371.7,145.19L372.42,179.43L372.47,181.3L374.7,249.9L374.75,250.76L376.98,282.81L377.03,283.21L379.35,298.89L379.39,299.08L381.71,306.49L381.75,306.58L384.58,310.62L384.62,310.65L387.96,312.5L388,312.51L393.44,313.34L393.49,313.34L408.89,313.5L408.93,313.5L414,313.5L414,313.5L414,16.5L414.74,31.37L414.74,31.46L415.95,66.74L415.95,66.88L417.25,122.19L417.25,122.37L417.7,144.99L417.7,145.19L418.42,179.43L418.47,181.3L420.7,249.9L420.75,250.76L422.98,282.81L423.03,283.21L425.35,298.89L425.39,299.08L427.71,306.49L427.75,306.58L430.58,310.62L430.62,310.65L433.96,312.5L434,312.51L439.44,313.34L439.49,313.34L454.89,313.5L454.93,313.5L460,313.5" style="vector-effect: none; fill: none; stroke: rgb(0, 0, 0); stroke-opacity: 1; stroke-width: 1.7px; opacity: 1;"/></g><g class="points"/><g class="text"/></g></g></g></g><path class="xlines-above crisp" d="M0,0" style="fill: none;"/><path class="ylines-above crisp" d="M0,0" style="fill: none;"/><g class="overlines-above"/><g class="xaxislayer-above"><g class="xtick"><text text-anchor="middle" x="0" y="365" transform="translate(40,0)" style="font-family: 'Open Sans', verdana, arial, sans-serif; font-size: 14px; fill: rgb(0, 0, 0); fill-opacity: 1; white-space: pre; opacity: 1;">0</text></g><g class="xtick"><text text-anchor="middle" x="0" y="365" style="font-family: 'Open Sans', verdana, arial, sans-serif; font-size: 14px; fill: rgb(0, 0, 0); fill-opacity: 1; white-space: pre; opacity: 1;" transform="translate(135.82999999999998,0)">50</text></g><g class="xtick"><text text-anchor="middle" x="0" y="365" style="font-family: 'Open Sans', verdana, arial, sans-serif; font-size: 14px; fill: rgb(0, 0, 0); fill-opacity: 1; white-space: pre; opacity: 1;" transform="translate(231.67,0)">100</text></g><g class="xtick"><text text-anchor="middle" x="0" y="365" style="font-family: 'Open Sans', verdana, arial, sans-serif; font-size: 14px; fill: rgb(0, 0, 0); fill-opacity: 1; white-space: pre; opacity: 1;" transform="translate(327.5,0)">150</text></g><g class="xtick"><text text-anchor="middle" x="0" y="365" style="font-family: 'Open Sans', verdana, arial, sans-serif; font-size: 14px; fill: rgb(0, 0, 0); fill-opacity: 1; white-space: pre; opacity: 1;" transform="translate(423.33,0)">200</text></g></g><g class="yaxislayer-above"><g class="ytick"><text text-anchor="end" x="39" y="4.8999999999999995" transform="translate(0,333.5)" style="font-family: 'Open Sans', verdana, arial, sans-serif; font-size: 14px; fill: rgb(0, 0, 0); fill-opacity: 1; white-space: pre; opacity: 1;">0</text></g><g class="ytick"><text text-anchor="end" x="39" y="4.8999999999999995" style="font-family: 'Open Sans', verdana, arial, sans-serif; font-size: 14px; fill: rgb(0, 0, 0); fill-opacity: 1; white-space: pre; opacity: 1;" transform="translate(0,296.38)">2</text></g><g class="ytick"><text text-anchor="end" x="39" y="4.8999999999999995" style="font-family: 'Open Sans', verdana, arial, sans-serif; font-size: 14px; fill: rgb(0, 0, 0); fill-opacity: 1; white-space: pre; opacity: 1;" transform="translate(0,259.25)">4</text></g><g class="ytick"><text text-anchor="end" x="39" y="4.8999999999999995" style="font-family: 'Open Sans', verdana, arial, sans-serif; font-size: 14px; fill: rgb(0, 0, 0); fill-opacity: 1; white-space: pre; opacity: 1;" transform="translate(0,222.13)">6</text></g><g class="ytick"><text text-anchor="end" x="39" y="4.8999999999999995" style="font-family: 'Open Sans', verdana, arial, sans-serif; font-size: 14px; fill: rgb(0, 0, 0); fill-opacity: 1; white-space: pre; opacity: 1;" transform="translate(0,185)">8</text></g><g class="ytick"><text text-anchor="end" x="39" y="4.8999999999999995" style="font-family: 'Open Sans', verdana, arial, sans-serif; font-size: 14px; fill: rgb(0, 0, 0); fill-opacity: 1; white-space: pre; opacity: 1;" transform="translate(0,147.88)">10</text></g><g class="ytick"><text text-anchor="end" x="39" y="4.8999999999999995" style="font-family: 'Open Sans', verdana, arial, sans-serif; font-size: 14px; fill: rgb(0, 0, 0); fill-opacity: 1; white-space: pre; opacity: 1;" transform="translate(0,110.75)">12</text></g><g class="ytick"><text text-anchor="end" x="39" y="4.8999999999999995" style="font-family: 'Open Sans', verdana, arial, sans-serif; font-size: 14px; fill: rgb(0, 0, 0); fill-opacity: 1; white-space: pre; opacity: 1;" transform="translate(0,73.63)">14</text></g><g class="ytick"><text text-anchor="end" x="39" y="4.8999999999999995" style="font-family: 'Open Sans', verdana, arial, sans-serif; font-size: 14px; fill: rgb(0, 0, 0); fill-opacity: 1; white-space: pre; opacity: 1;" transform="translate(0,36.5)">16</text></g></g><g class="overaxes-above"/></g></g><g class="polarlayer"/><g class="smithlayer"/><g class="ternarylayer"/><g class="geolayer"/><g class="funnelarealayer"/><g class="pielayer"/><g class="iciclelayer"/><g class="treemaplayer"/><g class="sunburstlayer"/><g class="glimages"/><defs id="topdefs-4c610a"><g class="clips"/></defs><g class="layer-above"><g class="imagelayer"/><g class="shapelayer"/></g><g class="infolayer"><g class="g-gtitle"/><g class="g-xtitle" transform="translate(0,5.699999999999989)"><text class="xtitle" x="270" y="378.3" text-anchor="middle" style="opacity: 1; font-family: 'Open Sans', verdana, arial, sans-serif; font-size: 14px; fill: rgb(0, 0, 0); fill-opacity: 1; white-space: pre;">Time [1/h]</text></g><g class="g-ytitle"><text class="ytitle" transform="rotate(-90,18.584375,185)" x="18.584375" y="185" text-anchor="middle" style="opacity: 1; font-family: 'Open Sans', verdana, arial, sans-serif; font-size: 14px; fill: rgb(0, 0, 0); fill-opacity: 1; white-space: pre;">Chloramphenicol concentration [µg/mL]</text></g></g></svg>