<svg class="main-svg" xmlns="http://www.w3.org/2000/svg" xmlns:xlink="http://www.w3.org/1999/xlink" width="500" height="400" style="" viewBox="0 0 500 400"><rect x="0" y="0" width="500" height="400" style="fill: rgb(255, 255, 255); fill-opacity: 1;"/><defs id="defs-48f9f3"><g class="clips"><clipPath id="clip48f9f3xyplot" class="plotclip"><rect width="336" height="330"/></clipPath><clipPath class="axesclip" id="clip48f9f3x"><rect x="40" y="0" width="336" height="400"/></clipPath><clipPath class="axesclip" id="clip48f9f3y"><rect x="0" y="20" width="500" height="330"/></clipPath><clipPath class="axesclip" id="clip48f9f3xy"><rect x="40" y="20" width="336" height="330"/></clipPath></g><g class="gradients"/><g class="patterns"/></defs><g class="bglayer"/><g class="layer-below"><g class="imagelayer"/><g class="shapelayer"/></g><g class="cartesianlayer"><g class="subplot xy"><g class="layer-subplot"><g class="shapelayer"/><g class="imagelayer"/></g><g class="minor-gridlayer"><g class="x"/><g class="y"/></g><g class="gridlayer"><g class="x"><path class="xgrid crisp" transform="translate(56.8,0)" d="M0,20v330" style="stroke: rgb(0, 0, 0); stroke-opacity: 1; stroke-width: 0.5px;"/><path class="xgrid crisp" transform="translate(73.6,0)" d="M0,20v330" style="stroke: rgb(0, 0, 0); stroke-opacity: 1; stroke-width: 0.5px;"/><path class="xgrid crisp" transform="translate(90.4,0)" d="M0,20v330" style="stroke: rgb(0, 0, 0); stroke-opacity: 1; stroke-width: 0.5px;"/><path class="xgrid crisp" transform="translate(107.2,0)" d="M0,20v330" style="stroke: rgb(0, 0, 0); stroke-opacity: 1; stroke-width: 0.5px;"/><path class="xgrid crisp" transform="translate(124,0)" d="M0,20v330" style="stroke: rgb(0, 0, 0); stroke-opacity: 1; stroke-width: 0.5px;"/><path class="xgrid crisp" transform="translate(140.8,0)" d="M0,20v330" style="stroke: rgb(0, 0, 0); stroke-opacity: 1; stroke-width: 0.5px;"/><path class="xgrid crisp" transform="translate(157.6,0)" d="M0,20v330" style="stroke: rgb(0, 0, 0); stroke-opacity: 1; stroke-width: 0.5px;"/><path class="xgrid crisp" transform="translate(174.4,0)" d="M0,20v330" style="stroke: rgb(0, 0, 0); stroke-opacity: 1; stroke-width: 0.5px;"/><path class="xgrid crisp" transform="translate(191.2,0)" d="M0,20v330" style="stroke: rgb(0, 0, 0); stroke-opacity: 1; stroke-width: 0.5px;"/><path class="xgrid crisp" transform="translate(208,0)" d="M0,20v330" style="stroke: rgb(0, 0, 0); stroke-opacity: 1; stroke-width: 0.5px;"/><path class="xgrid crisp" transform="translate(224.8,0)" d="M0,20v330" style="stroke: rgb(0, 0, 0); stroke-opacity: 1; stroke-width: 0.5px;"/><path class="xgrid crisp" transform="translate(241.6,0)" d="M0,20v330" style="stroke: rgb(0, 0, 0); stroke-opacity: 1; stroke-width: 0.5px;"/><path class="xgrid crisp" transform="translate(258.4,0)" d="M0,20v330" style="stroke: rgb(0, 0, 0); stroke-opacity: 1; stroke-width: 0.5px;"/><path class="xgrid crisp" transform="translate(275.2,0)" d="M0,20v330" style="stroke: rgb(0, 0, 0); stroke-opacity: 1; stroke-width: 0.5px;"/><path class="xgrid crisp" transform="translate(292,0)" d="M0,20v330" style="stroke: rgb(0, 0, 0); stroke-opacity: 1; stroke-width: 0.5px;"/><path class="xgrid crisp" transform="translate(308.8,0)" d="M0,20v330" style="stroke: rgb(0, 0, 0); stroke-opacity: 1; stroke-width: 0.5px;"/><path class="xgrid crisp" transform="translate(325.6,0)" d="M0,20v330" style="stroke: rgb(0, 0, 0); stroke-opacity: 1; stroke-width: 0.5px;"/><path class="xgrid crisp" transform="translate(342.4,0)" d="M0,20v330" style="stroke: rgb(0, 0, 0); stroke-opacity: 1; stroke-width: 0.5px;"/><path class="xgrid crisp" transform="translate(359.2,0)" d="M0,20v330" style="stroke: rgb(0, 0, 0); stroke-opacity: 1; stroke-width: 0.5px;"/></g><g class="y"><path class="ygrid crisp" transform="translate(0,295)" d="M40,0h336" style="stroke: rgb(0, 0, 0); stroke-opacity: 1; stroke-width: 0.5px;"/><path class="ygrid crisp" transform="translate(0,240)" d="M40,0h336" style="stroke: rgb(0, 0, 0); stroke-opacity: 1; stroke-width: 0.5px;"/><path class="ygrid crisp" transform="translate(0,185)" d="M40,0h336" style="stroke: rgb(0, 0, 0); stroke-opacity: 1; stroke-width: 0.5px;"/><path class="ygrid crisp" transform="translate(0,130)" d="M40,0h336" style="stroke: rgb(0, 0, 0); stroke-opacity: 1; stroke-width: 0.5px;"/><path class="ygrid crisp" transform="translate(0,75)" d="M40,0h336" style="stroke: rgb(0, 0, 0); stroke-opacity: 1; stroke-width: 0.5px;"/></g></g><g class="zerolinelayer"><path class="xzl zl crisp" transform="translate(40,0)" d="M0,20v330" style="stroke: rgb(0, 0, 0); stroke-opacity: 1; stroke-width: 0.5px;"/><path class="yzl zl crisp" transform="translate(0,350)" d="M40,0h336" style="stroke: rgb(0, 0, 0); stroke-opacity: 1; stroke-width: 0.5px;"/></g><g class="layer-between"><g class="shapelayer"/><g class="imagelayer"/></g><path class="xlines-below"/><path class="ylines-below"/><g class="overlines-below"/><g class="xaxislayer-below"/><g class="yaxislayer-below"/><g class="overaxes-below"/><g class="overplot"><g class="xy" transform="translate(40,20)" clip-path="url(#clip48f9f3xyplot)"><g class="scatterlayer mlayer"><g class="trace scatter trace0dd238" style="stroke-miterlimit: 2; opacity: 1;"><g class="fills"/><g class="errorbars"/><g class="lines"><path class="js-line" d="M0,302.5L1.92,260.07L1.92,259.98L2.69,234.19L2.69,234.09L3.57,200.26L3.6,199.03L6.9,93.39L6.93,92.8L8.97,68.14L9,67.93L10.91,59.78L10.94,59.71L12.94,56.91L12.97,56.89L15.72,55.88L15.75,55.88L23.24,55.63L23.27,55.63L33.6,55.63L33.6,327.26L35.02,323.27L35.02,323.26L36.65,311.6L36.68,311.25L38.19,285.1L38.22,284.34L40.1,217.2L40.13,215.79L44.11,62.08L44.14,61.49L46.05,38.51L46.08,38.31L47.9,31.14L47.93,31.08L49.84,28.76L49.87,28.75L52.56,27.96L52.59,27.96L66.15,27.79L66.18,27.79L67.2,27.79L67.2,326.98L68.66,322.41L68.66,322.39L70.09,311.59L70.12,311.25L71.63,285.05L71.66,284.29L72.84,247.01L72.87,245.81L77.99,54.15L78.02,53.67L79.9,35.82L79.93,35.66L81.72,30.14L81.75,30.08L83.87,28.16L83.9,28.15L87.6,27.56L87.64,27.56L100.8,27.5L100.8,326.98L102.25,322.42L102.25,322.41L103.29,315.61L103.29,315.59L104.43,301.42L104.46,300.9L106.13,258.35L106.16,257.26L111.83,50.52L111.86,50.1L113.74,34.62L113.77,34.48L115.9,29.31L115.93,29.27L118.37,27.87L118.4,27.87L122.59,27.52L122.62,27.52L134.4,27.5L134.4,326.98L135.85,322.42L135.85,322.41L136.89,315.61L136.89,315.59L138.03,301.42L138.06,300.9L139.73,258.35L139.76,257.26L145.43,50.52L145.46,50.1L147.34,34.62L147.37,34.48L149.5,29.31L149.53,29.27L151.97,27.87L152,27.87L156.19,27.52L156.22,27.52L168,27.5L168,326.98L169.45,322.42L169.45,322.41L170.49,315.61L170.49,315.59L171.63,301.42L171.66,300.9L173.33,258.35L173.36,257.26L179.03,50.52L179.06,50.1L180.94,34.62L180.97,34.48L183.1,29.31L183.13,29.27L185.57,27.87L185.6,27.87L189.79,27.52L189.82,27.52L201.6,27.5L201.6,326.98L203.05,322.42L203.05,322.41L204.09,315.61L204.09,315.59L205.23,301.42L205.26,300.9L206.93,258.35L206.96,257.26L212.63,50.52L212.66,50.1L214.54,34.62L214.57,34.48L216.7,29.31L216.73,29.27L219.17,27.87L219.2,27.87L223.39,27.52L223.42,27.52L235.2,27.5L235.2,326.98L236.65,322.42L236.65,322.41L237.69,315.61L237.69,315.59L238.83,301.42L238.86,300.9L240.53,258.35L240.56,257.26L246.23,50.52L246.26,50.1L248.14,34.62L248.17,34.48L250.3,29.31L250.33,29.27L252.77,27.87L252.8,27.87L256.99,27.52L257.02,27.52L268.8,27.5L268.8,326.98L270.25,322.42L270.25,322.41L271.29,315.61L271.29,315.59L272.43,301.42L272.46,300.9L274.13,258.35L274.16,257.26L279.83,50.52L279.86,50.1L281.74,34.62L281.77,34.48L283.9,29.31L283.93,29.27L286.37,27.87L286.4,27.87L290.59,27.52L290.62,27.52L302.4,27.5L302.4,326.98L303.85,322.42L303.85,322.41L304.89,315.61L304.89,315.59L306.03,301.42L306.06,300.9L307.73,258.35L307.76,257.26L313.43,50.52L313.46,50.1L315.34,34.62L315.37,34.48L317.5,29.31L317.53,29.27L319.97,27.87L320,27.87L324.19,27.52L324.22,27.52L336,27.5" style="vector-effect: none; fill: none; stroke: rgb(51, 204, 51); stroke-opacity: 1; stroke-width: 1.7px; opacity: 1;"/></g><g class="points"/><g class="text"/></g><g class="trace scatter tracec6aa5b" style="stroke-miterlimit: 2; opacity: 1;"><g class="fills"/><g class="errorbars"/><g class="lines"><path class="js-line" d="M0,302.5L10.23,301.88L10.26,301.88L33.6,301.87L33.6,329.72L336,330" style="vector-effect: none; fill: none; stroke: rgb(255, 28, 28); stroke-opacity: 1; stroke-width: 1.7px; opacity: 1;"/></g><g class="points"/><g class="text"/></g></g></g></g><path class="xlines-above crisp" d="M0,0" style="fill: none;"/><path class="ylines-above crisp" d="M0,0" style="fill: none;"/><g class="overlines-above"/><g class="xaxislayer-above"><g class="xtick"><text text-anchor="start" x="0" y="365" transform="translate(40,0) rotate(90,0,358)" style="font-family: 'Open Sans', verdana, arial, sans-serif; font-size: 14px; fill: rgb(0, 0, 0); fill-opacity: 1; white-space: pre; opacity: 1;">0</text></g><g class="xtick"><text text-anchor="start" x="0" y="365" style="font-family: 'Open Sans', verdana, arial, sans-serif; font-size: 14px; fill: rgb(0, 0, 0); fill-opacity: 1; white-space: pre; opacity: 1;" transform="translate(56.8,0) rotate(90,0,358)">12</text></g><g class="xtick"><text text-anchor="start" x="0" y="365" style="font-family: 'Open Sans', verdana, arial, sans-serif; font-size: 14px; fill: rgb(0, 0, 0); fill-opacity: 1; white-space: pre; opacity: 1;" transform="translate(73.6,0) rotate(90,0,358)">24</text></g><g class="xtick"><text text-anchor="start" x="0" y="365" style="font-family: 'Open Sans', verdana, arial, sans-serif; font-size: 14px; fill: rgb(0, 0, 0); fill-opacity: 1; white-space: pre; opacity: 1;" transform="translate(90.4,0) rotate(90,0,358)">36</text></g><g class="xtick"><text text-anchor="start" x="0" y="365" style="font-family: 'Open Sans', verdana, arial, sans-serif; font-size: 14px; fill: rgb(0, 0, 0); fill-opacity: 1; white-space: pre; opacity: 1;" transform="translate(107.2,0) rotate(90,0,358)">48</text></g><g class="xtick"><text text-anchor="start" x="0" y="365" style="font-family: 'Open Sans', verdana, arial, sans-serif; font-size: 14px; fill: rgb(0, 0, 0); fill-opacity: 1; white-space: pre; opacity: 1;" transform="translate(124,0) rotate(90,0,358)">60</text></g><g class="xtick"><text text-anchor="start" x="0" y="365" style="font-family: 'Open Sans', verdana, arial, sans-serif; font-size: 14px; fill: rgb(0, 0, 0); fill-opacity: 1; white-space: pre; opacity: 1;" transform="translate(140.8,0) rotate(90,0,358)">72</text></g><g class="xtick"><text text-anchor="start" x="0" y="365" style="font-family: 'Open Sans', verdana, arial, sans-serif; font-size: 14px; fill: rgb(0, 0, 0); fill-opacity: 1; white-space: pre; opacity: 1;" transform="translate(157.6,0) rotate(90,0,358)">84</text></g><g class="xtick"><text text-anchor="start" x="0" y="365" style="font-family: 'Open Sans', verdana, arial, sans-serif; font-size: 14px; fill: rgb(0, 0, 0); fill-opacity: 1; white-space: pre; opacity: 1;" transform="translate(174.4,0) rotate(90,0,358)">96</text></g><g class="xtick"><text text-anchor="start" x="0" y="365" style="font-family: 'Open Sans', verdana, arial, sans-serif; font-size: 14px; fill: rgb(0, 0, 0); fill-opacity: 1; white-space: pre; opacity: 1;" transform="translate(191.2,0) rotate(90,0,358)">108</text></g><g class="xtick"><text text-anchor="start" x="0" y="365" style="font-family: 'Open Sans', verdana, arial, sans-serif; font-size: 14px; fill: rgb(0, 0, 0); fill-opacity: 1; white-space: pre; opacity: 1;" transform="translate(208,0) rotate(90,0,358)">120</text></g><g class="xtick"><text text-anchor="start" x="0" y="365" style="font-family: 'Open Sans', verdana, arial, sans-serif; font-size: 14px; fill: rgb(0, 0, 0); fill-opacity: 1; white-space: pre; opacity: 1;" transform="translate(224.8,0) rotate(90,0,358)">132</text></g><g class="xtick"><text text-anchor="start" x="0" y="365" style="font-family: 'Open Sans', verdana, arial, sans-serif; font-size: 14px; fill: rgb(0, 0, 0); fill-opacity: 1; white-space: pre; opacity: 1;" transform="translate(241.6,0) rotate(90,0,358)">144</text></g><g class="xtick"><text text-anchor="start" x="0" y="365" style="font-family: 'Open Sans', verdana, arial, sans-serif; font-size: 14px; fill: rgb(0, 0, 0); fill-opacity: 1; white-space: pre; opacity: 1;" transform="translate(258.4,0) rotate(90,0,358)">156</text></g><g class="xtick"><text text-anchor="start" x="0" y="365" style="font-family: 'Open Sans', verdana, arial, sans-serif; font-size: 14px; fill: rgb(0, 0, 0); fill-opacity: 1; white-space: pre; opacity: 1;" transform="translate(275.2,0) rotate(90,0,358)">168</text></g><g class="xtick"><text text-anchor="start" x="0" y="365" style="font-family: 'Open Sans', verdana, arial, sans-serif; font-size: 14px; fill: rgb(0, 0, 0); fill-opacity: 1; white-space: pre; opacity: 1;" transform="translate(292,0) rotate(90,0,358)">180</text></g><g class="xtick"><text text-anchor="start" x="0" y="365" style="font-family: 'Open Sans', verdana, arial, sans-serif; font-size: 14px; fill: rgb(0, 0, 0); fill-opacity: 1; white-space: pre; opacity: 1;" transform="translate(308.8,0) rotate(90,0,358)">192</text></g><g class="xtick"><text text-anchor="start" x="0" y="365" style="font-family: 'Open Sans', verdana, arial, sans-serif; font-size: 14px; fill: rgb(0, 0, 0); fill-opacity: 1; white-space: pre; opacity: 1;" transform="translate(325.6,0) rotate(90,0,358)">204</text></g><g class="xtick"><text text-anchor="start" x="0" y="365" style="font-family: 'Open Sans', verdana, arial, sans-serif; font-size: 14px; fill: rgb(0, 0, 0); fill-opacity: 1; white-space: pre; opacity: 1;" transform="translate(342.4,0) rotate(90,0,358)">216</text></g><g class="xtick"><text text-anchor="start" x="0" y="365" style="font-family: 'Open Sans', verdana, arial, sans-serif; font-size: 14px; fill: rgb(0, 0, 0); fill-opacity: 1; white-space: pre; opacity: 1;" transform="translate(359.2,0) rotate(90,0,358)">228</text></g><g class="xtick"><text text-anchor="start" x="0" y="365" style="font-family: 'Open Sans', verdana, arial, sans-serif; font-size: 14px; fill: rgb(0, 0, 0); fill-opacity: 1; white-space: pre; opacity: 1;" transform="translate(376,0) rotate(90,0,358)">240</text></g></g><g class="yaxislayer-above"><g class="ytick"><text text-anchor="end" x="39" y="4.8999999999999995" transform="translate(0,350)" style="font-family: 'Open Sans', verdana, arial, sans-serif; font-size: 14px; fill: rgb(0, 0, 0); fill-opacity: 1; white-space: pre; opacity: 1;">0</text></g><g class="ytick"><text text-anchor="end" x="39" y="4.8999999999999995" style="font-family: 'Open Sans', verdana, arial, sans-serif; font-size: 14px; fill: rgb(0, 0, 0); fill-opacity: 1; white-space: pre; opacity: 1;" transform="translate(0,295)">0.2</text></g><g class="ytick"><text text-anchor="end" x="39" y="4.8999999999999995" style="font-family: 'Open Sans', verdana, arial, sans-serif; font-size: 14px; fill: rgb(0, 0, 0); fill-opacity: 1; white-space: pre; opacity: 1;" transform="translate(0,240)">0.4</text></g><g class="ytick"><text text-anchor="end" x="39" y="4.8999999999999995" style="font-family: 'Open Sans', verdana, arial, sans-serif; font-size: 14px; fill: rgb(0, 0, 0); fill-opacity: 1; white-space: pre; opacity: 1;" transform="translate(0,185)">0.6</text></g><g class="ytick"><text text-anchor="end" x="39" y="4.8999999999999995" style="font-family: 'Open Sans', verdana, arial, sans-serif; font-size: 14px; fill: rgb(0, 0, 0); fill-opacity: 1; white-space: pre; opacity: 1;" transform="translate(0,130)">0.8</text></g><g class="ytick"><text text-anchor="end" x="39" y="4.8999999999999995" style="font-family: 'Open Sans', verdana, arial, sans-serif; font-size: 14px; fill: rgb(0, 0, 0); fill-opacity: 1; white-space: pre; opacity: 1;" transform="translate(0,75)">1</text></g><g class="ytick"><text text-anchor="end" x="39" y="4.8999999999999995" style="font-family: 'Open Sans', verdana, arial, sans-serif; font-size: 14px; fill: rgb(0, 0, 0); fill-opacity: 1; white-space: pre; opacity: 1;" transform="translate(0,20)">1.2</text></g></g><g class="overaxes-above"/></g></g><g class="polarlayer"/><g class="smithlayer"/><g class="ternarylayer"/><g class="geolayer"/><g class="funnelarealayer"/><g class="pielayer"/><g class="iciclelayer"/><g class="treemaplayer"/><g class="sunburstlayer"/><g class="glimages"/><defs id="topdefs-48f9f3"><g class="clips"/><clipPath id="legend48f9f3"><rect width="117" height="53" x="0" y="0"/></clipPath></defs><g class="layer-above"><g class="imagelayer"/><g class="shapelayer"/></g><g class="infolayer"><g class="legend" pointer-events="all" transform="translate(382.72,20)"><rect class="bg" shape-rendering="crispEdges" style="stroke: rgb(68, 68, 68); stroke-opacity: 1; fill: rgb(255, 255, 255); fill-opacity: 1; stroke-width: 0px;" width="117" height="53" x="0" y="0"/><g class="scrollbox" transform="" clip-path="url(#legend48f9f3)"><g class="groups"><g class="traces" transform="translate(0,15.6)" style="opacity: 1;"><text class="legendtext" text-anchor="start" x="40" y="5.46" style="font-family: 'Open Sans', verdana, arial, sans-serif; font-size: 14px; fill: rgb(0, 0, 0); fill-opacity: 1; white-space: pre;">E_coli</text><g class="layers" style="opacity: 1;"><g class="legendfill"/><g class="legendlines"><path class="js-line" d="M5,0h30" style="fill: none; stroke: rgb(51, 204, 51); stroke-opacity: 1; stroke-width: 1.7px;"/></g><g class="legendsymbols"><g class="legendpoints"/></g></g><rect class="legendtoggle" x="0" y="-10.6" width="111.8125" height="21.2" style="fill: rgb(0, 0, 0); fill-opacity: 0;"/></g><g class="traces" transform="translate(0,36.8)" style="opacity: 1;"><text class="legendtext" text-anchor="start" x="40" y="5.46" style="font-family: 'Open Sans', verdana, arial, sans-serif; font-size: 14px; fill: rgb(0, 0, 0); fill-opacity: 1; white-space: pre;">Salmonella</text><g class="layers" style="opacity: 1;"><g class="legendfill"/><g class="legendlines"><path class="js-line" d="M5,0h30" style="fill: none; stroke: rgb(255, 28, 28); stroke-opacity: 1; stroke-width: 1.7px;"/></g><g class="legendsymbols"><g class="legendpoints"/></g></g><rect class="legendtoggle" x="0" y="-10.6" width="111.8125" height="21.2" style="fill: rgb(0, 0, 0); fill-opacity: 0;"/></g></g></g><rect class="scrollbar" rx="20" ry="3" width="0" height="0" style="fill: rgb(128, 139, 164); fill-opacity: 1;" x="0" y="0"/></g><g class="g-gtitle"/><g class="g-xtitle" transform="translate(0,4.684374999999989)"><text class="xtitle" x="208" y="391.315625" text-anchor="middle" style="opacity: 1; font-family: 'Open Sans', verdana, arial, sans-serif; font-size: 14px; fill: rgb(0, 0, 0); fill-opacity: 1; white-space: pre;">Time [1/h]</text></g><g class="g-ytitle" transform="translate(0.150390625,0)"><text class="ytitle" transform="rotate(-90,14.850000000000001,185)" x="14.850000000000001" y="185" text-anchor="middle" style="opacity: 1; font-family: 'Open Sans', verdana, arial, sans-serif; font-size: 14px; fill: rgb(0, 0, 0); fill-opacity: 1; white-space: pre;">Abundance</text></g></g></svg>