<svg class="main-svg" xmlns="http://www.w3.org/2000/svg" xmlns:xlink="http://www.w3.org/1999/xlink" width="180" height="180" style="" viewBox="0 0 180 180"><rect x="0" y="0" width="180" height="180" style="fill: rgb(255, 255, 255); fill-opacity: 1;"/><defs id="defs-d157b2"><g class="clips"><clipPath id="clipd157b2xyplot" class="plotclip"><rect width="104" height="114"/></clipPath><clipPath class="axesclip" id="clipd157b2x"><rect x="46" y="0" width="104" height="180"/></clipPath><clipPath class="axesclip" id="clipd157b2y"><rect x="0" y="30" width="180" height="114"/></clipPath><clipPath class="axesclip" id="clipd157b2xy"><rect x="46" y="30" width="104" height="114"/></clipPath></g><g class="gradients"/><g class="patterns"/></defs><g class="bglayer"/><g class="layer-below"><g class="imagelayer"/><g class="shapelayer"/></g><g class="cartesianlayer"><g class="subplot xy"><g class="layer-subplot"><g class="shapelayer"/><g class="imagelayer"/></g><g class="minor-gridlayer"><g class="x"/><g class="y"/></g><g class="gridlayer"><g class="x"><path class="xgrid crisp" transform="translate(72,0)" d="M0,30v114" style="stroke: rgb(128, 128, 128); stroke-opacity: 1; stroke-width: 0.2px;"/><path class="xgrid crisp" transform="translate(98,0)" d="M0,30v114" style="stroke: rgb(128, 128, 128); stroke-opacity: 1; stroke-width: 0.2px;"/><path class="xgrid crisp" transform="translate(124,0)" d="M0,30v114" style="stroke: rgb(128, 128, 128); stroke-opacity: 1; stroke-width: 0.2px;"/></g><g class="y"><path class="ygrid crisp" transform="translate(0,115.5)" d="M46,0h104" style="stroke: rgb(128, 128, 128); stroke-opacity: 1; stroke-width: 0.2px;"/><path class="ygrid crisp" transform="translate(0,87)" d="M46,0h104" style="stroke: rgb(128, 128, 128); stroke-opacity: 1; stroke-width: 0.2px;"/><path class="ygrid crisp" transform="translate(0,58.5)" d="M46,0h104" style="stroke: rgb(128, 128, 128); stroke-opacity: 1; stroke-width: 0.2px;"/></g></g><g class="zerolinelayer"/><g class="layer-between"><g class="shapelayer"/><g class="imagelayer"/></g><path class="xlines-below"/><path class="ylines-below"/><g class="overlines-below"/><g class="xaxislayer-below"/><g class="yaxislayer-below"/><g class="overaxes-below"/><g class="overplot"><g class="xy" transform="translate(46,30)" clip-path="url(#clipd157b2xyplot)"><g class="scatterlayer mlayer"><g class="trace scatter tracede1d3e" style="stroke-miterlimit: 2; opacity: 1;"><g class="fills"/><g class="errorbars"/><g class="lines"><path class="js-line" d="M0,45.6L13,16.53L13,39.33L25.03,13.15L25.05,13.13L26,11.55L26,34.35L36.04,12.82L36.05,12.8L39,8.77L39,31.57L47.93,12.63L47.94,12.61L51.86,7.85L51.87,7.84L52,7.75L52,30.55L60.51,12.57L60.53,12.55L63.78,8.35L63.8,8.34L65,7.46L65,30.26L73.38,12.58L73.4,12.56L76.66,8.34L76.68,8.33L78,7.39L78,30.19L86.38,12.52L86.4,12.5L89.64,8.34L89.65,8.33L91,7.39L91,30.19L99.38,12.53L99.4,12.51L102.6,8.39L102.62,8.38L104,7.45" style="vector-effect: none; fill: none; stroke: rgb(152, 202, 170); stroke-opacity: 1; stroke-width: 1.7px; opacity: 1;"/></g><g class="points"/><g class="text"/></g><g class="trace scatter trace07c23d" style="stroke-miterlimit: 2; opacity: 1;"><g class="fills"/><g class="errorbars"/><g class="lines"><path class="js-line" d="M0,45.6L12.25,40.73L12.26,40.72L13,40.12L13,62.92L22.64,58.92L22.65,58.91L24.8,56.32L24.81,56.29L26,52.88L26,75.68L33.64,72.35L33.66,72.34L35.6,69.96L35.61,69.94L37.13,65.26L37.14,65.2L39,54.18L39,76.98L45.59,74L45.61,73.99L47.6,71.36L47.61,71.33L49.16,65.97L49.17,65.91L51.38,52.51L51.39,52.44L52,49.14L52,71.94L58.24,69.08L58.25,69.07L60.16,66.52L60.17,66.49L61.73,61.09L61.74,61.03L63.96,47.59L63.97,47.52L65,42.31L65,65.11L71.13,62.28L71.14,62.27L73.04,59.73L73.05,59.7L74.49,54.88L74.5,54.82L76.39,43.53L76.4,43.46L78,35.05L78,57.85L84.11,55.03L84.12,55.02L86.01,52.47L86.03,52.45L87.59,47.03L87.6,46.97L91,27.81L91,50.61L97.12,47.78L97.13,47.77L99.01,45.23L99.03,45.2L100.48,40.32L100.49,40.26L102.4,28.89L102.41,28.82L104,21.05" style="vector-effect: none; fill: none; stroke: rgb(49, 97, 66); stroke-opacity: 1; stroke-width: 1.7px; opacity: 1;"/></g><g class="points"/><g class="text"/></g></g></g></g><g class="zerolinelayer-above"/><path class="xlines-above crisp" d="M45.5,144.25H150.5M45.5,29.75H150.5" style="fill: none; stroke-width: 0.5px; stroke: rgb(0, 0, 0); stroke-opacity: 1;"/><path class="ylines-above crisp" d="M45.75,30V144M150.25,30V144" style="fill: none; stroke-width: 0.5px; stroke: rgb(0, 0, 0); stroke-opacity: 1;"/><g class="overlines-above"/><g class="xaxislayer-above"><path class="xtick ticks crisp" d="M0,144v-5" transform="translate(72,0)" style="stroke: rgb(0, 0, 0); stroke-opacity: 1; stroke-width: 0.5px;"/><path class="xtick ticks crisp" d="M0,144v-5" transform="translate(98,0)" style="stroke: rgb(0, 0, 0); stroke-opacity: 1; stroke-width: 0.5px;"/><path class="xtick ticks crisp" d="M0,144v-5" transform="translate(124,0)" style="stroke: rgb(0, 0, 0); stroke-opacity: 1; stroke-width: 0.5px;"/><g class="xtick"><text text-anchor="middle" x="0" y="157.7" transform="translate(46,0)" style="font-family: 'Open Sans', verdana, arial, sans-serif; font-size: 11px; fill: rgb(0, 0, 0); fill-opacity: 1; white-space: pre;">0</text></g><g class="xtick"><text text-anchor="middle" x="0" y="157.7" style="font-family: 'Open Sans', verdana, arial, sans-serif; font-size: 11px; fill: rgb(0, 0, 0); fill-opacity: 1; white-space: pre;" transform="translate(72,0)">2</text></g><g class="xtick"><text text-anchor="middle" x="0" y="157.7" style="font-family: 'Open Sans', verdana, arial, sans-serif; font-size: 11px; fill: rgb(0, 0, 0); fill-opacity: 1; white-space: pre;" transform="translate(98,0)">4</text></g><g class="xtick"><text text-anchor="middle" x="0" y="157.7" style="font-family: 'Open Sans', verdana, arial, sans-serif; font-size: 11px; fill: rgb(0, 0, 0); fill-opacity: 1; white-space: pre;" transform="translate(124,0)">6</text></g><g class="xtick"><text text-anchor="middle" x="0" y="157.7" style="font-family: 'Open Sans', verdana, arial, sans-serif; font-size: 11px; fill: rgb(0, 0, 0); fill-opacity: 1; white-space: pre;" transform="translate(150,0)">8</text></g></g><g class="yaxislayer-above"><path class="ytick ticks crisp" d="M46,0h5" transform="translate(0,115.5)" style="stroke: rgb(0, 0, 0); stroke-opacity: 1; stroke-width: 0.5px;"/><path class="ytick ticks crisp" d="M46,0h5" transform="translate(0,87)" style="stroke: rgb(0, 0, 0); stroke-opacity: 1; stroke-width: 0.5px;"/><path class="ytick ticks crisp" d="M46,0h5" transform="translate(0,58.5)" style="stroke: rgb(0, 0, 0); stroke-opacity: 1; stroke-width: 0.5px;"/><g class="ytick"><text text-anchor="end" x="43.3" y="3.8499999999999996" transform="translate(0,144)" style="font-family: 'Open Sans', verdana, arial, sans-serif; font-size: 11px; fill: rgb(0, 0, 0); fill-opacity: 1; white-space: pre;">10⁰</text></g><g class="ytick"><text text-anchor="end" x="43.3" y="3.8499999999999996" style="font-family: 'Open Sans', verdana, arial, sans-serif; font-size: 11px; fill: rgb(0, 0, 0); fill-opacity: 1; white-space: pre;" transform="translate(0,115.5)">10²·⁵</text></g><g class="ytick"><text text-anchor="end" x="43.3" y="3.8499999999999996" style="font-family: 'Open Sans', verdana, arial, sans-serif; font-size: 11px; fill: rgb(0, 0, 0); fill-opacity: 1; white-space: pre;" transform="translate(0,87)">10⁵</text></g><g class="ytick"><text text-anchor="end" x="43.3" y="3.8499999999999996" style="font-family: 'Open Sans', verdana, arial, sans-serif; font-size: 11px; fill: rgb(0, 0, 0); fill-opacity: 1; white-space: pre;" transform="translate(0,58.5)">10⁷·⁵</text></g><g class="ytick"><text text-anchor="end" x="43.3" y="3.8499999999999996" style="font-family: 'Open Sans', verdana, arial, sans-serif; font-size: 11px; fill: rgb(0, 0, 0); fill-opacity: 1; white-space: pre;" transform="translate(0,30)">10¹⁰</text></g></g><g class="overaxes-above"/></g></g><g class="polarlayer"/><g class="smithlayer"/><g class="ternarylayer"/><g class="geolayer"/><g class="funnelarealayer"/><g class="pielayer"/><g class="iciclelayer"/><g class="treemaplayer"/><g class="sunburstlayer"/><g class="glimages"/><defs id="topdefs-d157b2"><g class="clips"/></defs><g class="layer-above"><g class="imagelayer"/><g class="shapelayer"/></g><g class="infolayer"><g class="g-gtitle"/><g class="g-xtitle" transform="translate(0,4.550000000000011)"><text class="xtitle" x="98" y="168.1501953125" text-anchor="middle" style="opacity: 1; font-family: 'Open Sans', verdana, arial, sans-serif; font-size: 11px; fill: rgb(0, 0, 0); fill-opacity: 1; white-space: pre;">Time (days)</text></g><g class="g-ytitle"><text class="ytitle" transform="rotate(-90,16.5435546875,87)" x="16.5435546875" y="87" text-anchor="middle" style="opacity: 1; font-family: 'Open Sans', verdana, arial, sans-serif; font-size: 11px; fill: rgb(0, 0, 0); fill-opacity: 1; white-space: pre;">CFUs/mL</text></g></g></svg>