<svg class="main-svg" xmlns="http://www.w3.org/2000/svg" xmlns:xlink="http://www.w3.org/1999/xlink" width="500" height="400" style="" viewBox="0 0 500 400"><rect x="0" y="0" width="500" height="400" style="fill: rgb(255, 255, 255); fill-opacity: 1;"/><defs id="defs-5f0e45"><g class="clips"><clipPath id="clip5f0e45xyplot" class="plotclip"><rect width="336" height="330"/></clipPath><clipPath class="axesclip" id="clip5f0e45x"><rect x="40" y="0" width="336" height="400"/></clipPath><clipPath class="axesclip" id="clip5f0e45y"><rect x="0" y="20" width="500" height="330"/></clipPath><clipPath class="axesclip" id="clip5f0e45xy"><rect x="40" y="20" width="336" height="330"/></clipPath></g><g class="gradients"/><g class="patterns"/></defs><g class="bglayer"/><g class="layer-below"><g class="imagelayer"/><g class="shapelayer"/></g><g class="cartesianlayer"><g class="subplot xy"><g class="layer-subplot"><g class="shapelayer"/><g class="imagelayer"/></g><g class="minor-gridlayer"><g class="x"/><g class="y"/></g><g class="gridlayer"><g class="x"><path class="xgrid crisp" transform="translate(110,0)" d="M0,20v330" style="stroke: rgb(0, 0, 0); stroke-opacity: 1; stroke-width: 0.5px;"/><path class="xgrid crisp" transform="translate(180,0)" d="M0,20v330" style="stroke: rgb(0, 0, 0); stroke-opacity: 1; stroke-width: 0.5px;"/><path class="xgrid crisp" transform="translate(250,0)" d="M0,20v330" style="stroke: rgb(0, 0, 0); stroke-opacity: 1; stroke-width: 0.5px;"/><path class="xgrid crisp" transform="translate(320,0)" d="M0,20v330" style="stroke: rgb(0, 0, 0); stroke-opacity: 1; stroke-width: 0.5px;"/></g><g class="y"><path class="ygrid crisp" transform="translate(0,279.5)" d="M40,0h336" style="stroke: rgb(0, 0, 0); stroke-opacity: 1; stroke-width: 0.5px;"/><path class="ygrid crisp" transform="translate(0,225.5)" d="M40,0h336" style="stroke: rgb(0, 0, 0); stroke-opacity: 1; stroke-width: 0.5px;"/><path class="ygrid crisp" transform="translate(0,171.5)" d="M40,0h336" style="stroke: rgb(0, 0, 0); stroke-opacity: 1; stroke-width: 0.5px;"/><path class="ygrid crisp" transform="translate(0,117.5)" d="M40,0h336" style="stroke: rgb(0, 0, 0); stroke-opacity: 1; stroke-width: 0.5px;"/><path class="ygrid crisp" transform="translate(0,63.5)" d="M40,0h336" style="stroke: rgb(0, 0, 0); stroke-opacity: 1; stroke-width: 0.5px;"/></g></g><g class="zerolinelayer"><path class="xzl zl crisp" transform="translate(40,0)" d="M0,20v330" style="stroke: rgb(0, 0, 0); stroke-opacity: 1; stroke-width: 0.5px;"/><path class="yzl zl crisp" transform="translate(0,333.5)" d="M40,0h336" style="stroke: rgb(0, 0, 0); stroke-opacity: 1; stroke-width: 0.5px;"/></g><g class="layer-between"><g class="shapelayer"/><g class="imagelayer"/></g><path class="xlines-below"/><path class="ylines-below"/><g class="overlines-below"/><g class="xaxislayer-below"/><g class="yaxislayer-below"/><g class="overaxes-below"/><g class="overplot"><g class="xy" transform="translate(40,20)" clip-path="url(#clip5f0e45xyplot)"><g class="scatterlayer mlayer"><g class="trace scatter trace87f60b" style="stroke-miterlimit: 2; opacity: 1;"><g class="fills"/><g class="errorbars"/><g class="lines"><path class="js-line" d="M0,286.5L1.98,243.14L1.98,243.05L2.77,216.92L2.77,216.82L3.66,184.21L3.69,183.07L6.65,98.63L6.68,98.11L9.27,73.17L9.31,73.03L11.22,67.81L11.25,67.76L13.41,65.94L13.44,65.93L16.95,65.32L16.98,65.32L30.36,65.23L30.39,65.23L33.6,65.23L33.6,311.02L35.07,307.21L35.07,307.2L36.36,299.47L36.36,299.45L37.54,285.11L37.57,284.59L39.21,243.64L39.24,242.58L44.94,40.02L44.97,39.61L46.88,24.49L46.91,24.36L48.79,19.73L48.82,19.69L51.11,18.17L51.14,18.16L55.64,17.73L55.67,17.73L67.2,17.71L67.2,310.54L68.69,305.91L68.69,305.89L69.81,298.33L69.81,298.3L70.86,285.04L70.89,284.52L72.53,243.38L72.56,242.31L78.23,39.21L78.26,38.8L80.14,23.55L80.17,23.41L82.3,18.31L82.33,18.28L84.74,16.9L84.77,16.9L88.99,16.55L89.02,16.55L100.8,16.53L100.8,310.53L102.29,305.89L102.29,305.88L103.72,295.07L103.75,294.73L105.26,268.58L105.3,267.82L107.21,199.71L107.24,198.32L111.15,50.06L111.18,49.47L113.59,24.2L113.62,24.05L115.5,18.8L115.53,18.75L117.57,17.11L117.6,17.1L120.93,16.57L120.96,16.57L133.26,16.5L133.29,16.5L134.4,16.5L134.4,310.53L135.89,305.89L135.89,305.88L137.32,295.07L137.35,294.73L138.86,268.58L138.9,267.82L140.81,199.7L140.84,198.31L144.75,50.05L144.78,49.47L147.19,24.2L147.22,24.05L149.04,18.89L149.07,18.84L151.17,17.11L151.2,17.1L154.53,16.57L154.56,16.57L166.86,16.5L166.89,16.5L168,16.5L168,310.53L169.49,305.89L169.49,305.88L170.92,295.07L170.95,294.73L172.46,268.58L172.5,267.82L174.41,199.7L174.44,198.31L178.35,50.05L178.38,49.47L180.79,24.2L180.82,24.05L182.64,18.89L182.67,18.84L184.77,17.11L184.8,17.1L188.13,16.57L188.16,16.57L200.46,16.5L200.49,16.5L201.6,16.5L201.6,310.53L203.09,305.89L203.09,305.88L204.52,295.07L204.55,294.73L206.06,268.58L206.1,267.82L208.01,199.7L208.04,198.31L211.95,50.05L211.98,49.47L214.39,24.2L214.42,24.05L216.24,18.89L216.27,18.84L218.37,17.11L218.4,17.1L221.73,16.57L221.76,16.57L234.06,16.5L234.09,16.5L235.2,16.5L235.2,310.53L236.69,305.89L236.69,305.88L238.12,295.07L238.15,294.73L239.66,268.58L239.7,267.82L241.61,199.7L241.64,198.31L245.55,50.05L245.58,49.47L247.99,24.2L248.02,24.05L249.84,18.89L249.87,18.84L251.97,17.11L252,17.1L255.33,16.57L255.36,16.57L267.66,16.5L267.69,16.5L268.8,16.5L268.8,310.53L270.29,305.89L270.29,305.88L271.72,295.07L271.75,294.73L273.26,268.58L273.3,267.82L275.21,199.7L275.24,198.31L279.15,50.05L279.18,49.47L281.59,24.2L281.62,24.05L283.44,18.89L283.47,18.84L285.57,17.11L285.6,17.1L288.93,16.57L288.96,16.57L301.26,16.5L301.29,16.5L302.4,16.5L302.4,310.53L303.89,305.89L303.89,305.88L305.32,295.07L305.35,294.73L306.86,268.58L306.9,267.82L308.81,199.7L308.84,198.31L312.75,50.05L312.78,49.47L315.19,24.2L315.22,24.05L317.04,18.89L317.07,18.84L319.17,17.11L319.2,17.1L322.53,16.57L322.56,16.57L334.86,16.5L334.89,16.5L336,16.5" style="vector-effect: none; fill: none; stroke: rgb(51, 204, 51); stroke-opacity: 1; stroke-width: 1.7px; opacity: 1;"/></g><g class="points"/><g class="text"/></g><g class="trace scatter trace681190" style="stroke-miterlimit: 2; opacity: 1;"><g class="fills"/><g class="errorbars"/><g class="lines"><path class="js-line" d="M0,286.5L1.81,285.51L1.81,285.51L1.81,285.5L2.8,282.5L2.8,282.5L2.83,282.37L6.41,268.64L6.44,268.58L8.6,265.93L8.63,265.91L11.31,265.01L11.34,265.01L18.74,264.77L18.77,264.77L33.6,264.77L33.6,313.01L67.2,312.29L67.2,313.49L336,313.5" style="vector-effect: none; fill: none; stroke: rgb(255, 28, 28); stroke-opacity: 1; stroke-width: 1.7px; opacity: 1;"/></g><g class="points"/><g class="text"/></g></g></g></g><path class="xlines-above crisp" d="M0,0" style="fill: none;"/><path class="ylines-above crisp" d="M0,0" style="fill: none;"/><g class="overlines-above"/><g class="xaxislayer-above"><g class="xtick"><text text-anchor="middle" x="0" y="365" transform="translate(40,0)" style="font-family: 'Open Sans', verdana, arial, sans-serif; font-size: 14px; fill: rgb(0, 0, 0); fill-opacity: 1; white-space: pre; opacity: 1;">0</text></g><g class="xtick"><text text-anchor="middle" x="0" y="365" style="font-family: 'Open Sans', verdana, arial, sans-serif; font-size: 14px; fill: rgb(0, 0, 0); fill-opacity: 1; white-space: pre; opacity: 1;" transform="translate(110,0)">50</text></g><g class="xtick"><text text-anchor="middle" x="0" y="365" style="font-family: 'Open Sans', verdana, arial, sans-serif; font-size: 14px; fill: rgb(0, 0, 0); fill-opacity: 1; white-space: pre; opacity: 1;" transform="translate(180,0)">100</text></g><g class="xtick"><text text-anchor="middle" x="0" y="365" style="font-family: 'Open Sans', verdana, arial, sans-serif; font-size: 14px; fill: rgb(0, 0, 0); fill-opacity: 1; white-space: pre; opacity: 1;" transform="translate(250,0)">150</text></g><g class="xtick"><text text-anchor="middle" x="0" y="365" style="font-family: 'Open Sans', verdana, arial, sans-serif; font-size: 14px; fill: rgb(0, 0, 0); fill-opacity: 1; white-space: pre; opacity: 1;" transform="translate(320,0)">200</text></g></g><g class="yaxislayer-above"><g class="ytick"><text text-anchor="end" x="39" y="4.8999999999999995" transform="translate(0,333.5)" style="font-family: 'Open Sans', verdana, arial, sans-serif; font-size: 14px; fill: rgb(0, 0, 0); fill-opacity: 1; white-space: pre; opacity: 1;">0</text></g><g class="ytick"><text text-anchor="end" x="39" y="4.8999999999999995" style="font-family: 'Open Sans', verdana, arial, sans-serif; font-size: 14px; fill: rgb(0, 0, 0); fill-opacity: 1; white-space: pre; opacity: 1;" transform="translate(0,279.5)">0.2</text></g><g class="ytick"><text text-anchor="end" x="39" y="4.8999999999999995" style="font-family: 'Open Sans', verdana, arial, sans-serif; font-size: 14px; fill: rgb(0, 0, 0); fill-opacity: 1; white-space: pre; opacity: 1;" transform="translate(0,225.5)">0.4</text></g><g class="ytick"><text text-anchor="end" x="39" y="4.8999999999999995" style="font-family: 'Open Sans', verdana, arial, sans-serif; font-size: 14px; fill: rgb(0, 0, 0); fill-opacity: 1; white-space: pre; opacity: 1;" transform="translate(0,171.5)">0.6</text></g><g class="ytick"><text text-anchor="end" x="39" y="4.8999999999999995" style="font-family: 'Open Sans', verdana, arial, sans-serif; font-size: 14px; fill: rgb(0, 0, 0); fill-opacity: 1; white-space: pre; opacity: 1;" transform="translate(0,117.5)">0.8</text></g><g class="ytick"><text text-anchor="end" x="39" y="4.8999999999999995" style="font-family: 'Open Sans', verdana, arial, sans-serif; font-size: 14px; fill: rgb(0, 0, 0); fill-opacity: 1; white-space: pre; opacity: 1;" transform="translate(0,63.5)">1</text></g></g><g class="overaxes-above"/></g></g><g class="polarlayer"/><g class="smithlayer"/><g class="ternarylayer"/><g class="geolayer"/><g class="funnelarealayer"/><g class="pielayer"/><g class="iciclelayer"/><g class="treemaplayer"/><g class="sunburstlayer"/><g class="glimages"/><defs id="topdefs-5f0e45"><g class="clips"/><clipPath id="legend5f0e45"><rect width="117" height="53" x="0" y="0"/></clipPath></defs><g class="layer-above"><g class="imagelayer"/><g class="shapelayer"/></g><g class="infolayer"><g class="legend" pointer-events="all" transform="translate(382.72,20)"><rect class="bg" shape-rendering="crispEdges" width="117" height="53" x="0" y="0" style="stroke: rgb(68, 68, 68); stroke-opacity: 1; fill: rgb(255, 255, 255); fill-opacity: 1; stroke-width: 0px;"/><g class="scrollbox" transform="" clip-path="url(#legend5f0e45)"><g class="groups"><g class="traces" transform="translate(0,15.6)" style="opacity: 1;"><text class="legendtext" text-anchor="start" x="40" y="5.46" style="font-family: 'Open Sans', verdana, arial, sans-serif; font-size: 14px; fill: rgb(0, 0, 0); fill-opacity: 1; white-space: pre;">E_coli</text><g class="layers" style="opacity: 1;"><g class="legendfill"/><g class="legendlines"><path class="js-line" d="M5,0h30" style="fill: none; stroke: rgb(51, 204, 51); stroke-opacity: 1; stroke-width: 1.7px;"/></g><g class="legendsymbols"><g class="legendpoints"/></g></g><rect class="legendtoggle" x="0" y="-10.6" width="111.8125" height="21.2" style="fill: rgb(0, 0, 0); fill-opacity: 0;"/></g><g class="traces" transform="translate(0,36.8)" style="opacity: 1;"><text class="legendtext" text-anchor="start" x="40" y="5.46" style="font-family: 'Open Sans', verdana, arial, sans-serif; font-size: 14px; fill: rgb(0, 0, 0); fill-opacity: 1; white-space: pre;">Salmonella</text><g class="layers" style="opacity: 1;"><g class="legendfill"/><g class="legendlines"><path class="js-line" d="M5,0h30" style="fill: none; stroke: rgb(255, 28, 28); stroke-opacity: 1; stroke-width: 1.7px;"/></g><g class="legendsymbols"><g class="legendpoints"/></g></g><rect class="legendtoggle" x="0" y="-10.6" width="111.8125" height="21.2" style="fill: rgb(0, 0, 0); fill-opacity: 0;"/></g></g></g><rect class="scrollbar" rx="20" ry="3" width="0" height="0" x="0" y="0" style="fill: rgb(128, 139, 164); fill-opacity: 1;"/></g><g class="g-gtitle"/><g class="g-xtitle" transform="translate(0,5.699999999999989)"><text class="xtitle" x="208" y="378.3" text-anchor="middle" style="opacity: 1; font-family: 'Open Sans', verdana, arial, sans-serif; font-size: 14px; fill: rgb(0, 0, 0); fill-opacity: 1; white-space: pre;">Time [h]</text></g><g class="g-ytitle" transform="translate(0.150390625,0)"><text class="ytitle" transform="rotate(-90,14.850000000000001,185)" x="14.850000000000001" y="185" text-anchor="middle" style="opacity: 1; font-family: 'Open Sans', verdana, arial, sans-serif; font-size: 14px; fill: rgb(0, 0, 0); fill-opacity: 1; white-space: pre;">Abundance [OD]</text></g></g></svg>