<svg class="main-svg" xmlns="http://www.w3.org/2000/svg" xmlns:xlink="http://www.w3.org/1999/xlink" width="500" height="400" style="" viewBox="0 0 500 400"><rect x="0" y="0" width="500" height="400" style="fill: rgb(255, 255, 255); fill-opacity: 1;"/><defs id="defs-303b1f"><g class="clips"><clipPath id="clip303b1fxyplot" class="plotclip"><rect width="336" height="330"/></clipPath><clipPath class="axesclip" id="clip303b1fx"><rect x="40" y="0" width="336" height="400"/></clipPath><clipPath class="axesclip" id="clip303b1fy"><rect x="0" y="20" width="500" height="330"/></clipPath><clipPath class="axesclip" id="clip303b1fxy"><rect x="40" y="20" width="336" height="330"/></clipPath></g><g class="gradients"/><g class="patterns"/></defs><g class="bglayer"/><g class="layer-below"><g class="imagelayer"/><g class="shapelayer"/></g><g class="cartesianlayer"><g class="subplot xy"><g class="layer-subplot"><g class="shapelayer"/><g class="imagelayer"/></g><g class="minor-gridlayer"><g class="x"/><g class="y"/></g><g class="gridlayer"><g class="x"><path class="xgrid crisp" transform="translate(110,0)" d="M0,20v330" style="stroke: rgb(0, 0, 0); stroke-opacity: 1; stroke-width: 0.5px;"/><path class="xgrid crisp" transform="translate(180,0)" d="M0,20v330" style="stroke: rgb(0, 0, 0); stroke-opacity: 1; stroke-width: 0.5px;"/><path class="xgrid crisp" transform="translate(250,0)" d="M0,20v330" style="stroke: rgb(0, 0, 0); stroke-opacity: 1; stroke-width: 0.5px;"/><path class="xgrid crisp" transform="translate(320,0)" d="M0,20v330" style="stroke: rgb(0, 0, 0); stroke-opacity: 1; stroke-width: 0.5px;"/></g><g class="y"><path class="ygrid crisp" transform="translate(0,279.5)" d="M40,0h336" style="stroke: rgb(0, 0, 0); stroke-opacity: 1; stroke-width: 0.5px;"/><path class="ygrid crisp" transform="translate(0,225.5)" d="M40,0h336" style="stroke: rgb(0, 0, 0); stroke-opacity: 1; stroke-width: 0.5px;"/><path class="ygrid crisp" transform="translate(0,171.5)" d="M40,0h336" style="stroke: rgb(0, 0, 0); stroke-opacity: 1; stroke-width: 0.5px;"/><path class="ygrid crisp" transform="translate(0,117.5)" d="M40,0h336" style="stroke: rgb(0, 0, 0); stroke-opacity: 1; stroke-width: 0.5px;"/><path class="ygrid crisp" transform="translate(0,63.5)" d="M40,0h336" style="stroke: rgb(0, 0, 0); stroke-opacity: 1; stroke-width: 0.5px;"/></g></g><g class="zerolinelayer"><path class="xzl zl crisp" transform="translate(40,0)" d="M0,20v330" style="stroke: rgb(0, 0, 0); stroke-opacity: 1; stroke-width: 0.5px;"/><path class="yzl zl crisp" transform="translate(0,333.5)" d="M40,0h336" style="stroke: rgb(0, 0, 0); stroke-opacity: 1; stroke-width: 0.5px;"/></g><g class="layer-between"><g class="shapelayer"/><g class="imagelayer"/></g><path class="xlines-below"/><path class="ylines-below"/><g class="overlines-below"/><g class="xaxislayer-below"/><g class="yaxislayer-below"/><g class="overaxes-below"/><g class="overplot"><g class="xy" transform="translate(40,20)" clip-path="url(#clip303b1fxyplot)"><g class="scatterlayer mlayer"><g class="trace scatter trace352f54" style="stroke-miterlimit: 2; opacity: 1;"><g class="fills"/><g class="errorbars"/><g class="lines"><path class="js-line" d="M0,286.5L1.97,243.32L1.97,243.24L2.76,217.12L2.76,217.01L3.51,188.53L3.54,187.33L6.93,80.62L6.96,80.05L9,56.19L9.03,55.99L10.88,48.27L10.91,48.2L12.79,45.49L12.82,45.47L15.19,44.46L15.22,44.45L20.96,44.13L20.99,44.13L33.6,44.12L33.6,310.81L35.05,306.77L35.05,306.76L36.24,299.39L36.24,299.36L37.63,281.2L37.66,280.62L39.33,234.47L39.36,233.32L44.63,41.64L44.66,41.19L46.54,24.53L46.57,24.38L48.82,18.61L48.86,18.58L50.98,17.25L51.01,17.24L55.79,16.81L55.82,16.81L67.2,16.79L67.2,310.53L68.69,305.9L68.69,305.88L70.25,293.67L70.28,293.3L71.79,265.51L71.82,264.71L73.79,191.32L73.82,189.9L77.43,52.52L77.46,51.9L79.4,27.6L79.43,27.39L81.78,18.99L81.81,18.94L83.81,17.18L83.84,17.17L87.02,16.59L87.05,16.59L99.63,16.5L99.66,16.5L100.8,16.5L100.8,310.53L102.29,305.89L102.29,305.88L103.72,295.07L103.75,294.73L105.26,268.58L105.3,267.82L107.21,199.71L107.24,198.31L111.15,50.05L111.18,49.47L113.59,24.2L113.62,24.05L115.44,18.89L115.47,18.84L117.57,17.11L117.6,17.1L120.93,16.57L120.96,16.57L133.26,16.5L133.29,16.5L134.4,16.5L134.4,310.53L135.89,305.89L135.89,305.88L137.32,295.07L137.35,294.73L138.86,268.58L138.9,267.82L140.81,199.7L140.84,198.31L144.75,50.05L144.78,49.47L147.19,24.2L147.22,24.05L149.04,18.89L149.07,18.84L151.17,17.11L151.2,17.1L154.53,16.57L154.56,16.57L166.86,16.5L166.89,16.5L168,16.5L168,310.53L169.49,305.89L169.49,305.88L170.92,295.07L170.95,294.73L172.46,268.58L172.5,267.82L174.41,199.7L174.44,198.31L178.35,50.05L178.38,49.47L180.79,24.2L180.82,24.05L182.64,18.89L182.67,18.84L184.77,17.11L184.8,17.1L188.13,16.57L188.16,16.57L200.46,16.5L200.49,16.5L201.6,16.5L201.6,310.53L203.09,305.89L203.09,305.88L204.52,295.07L204.55,294.73L206.06,268.58L206.1,267.82L208.01,199.7L208.04,198.31L211.95,50.05L211.98,49.47L214.39,24.2L214.42,24.05L216.24,18.89L216.27,18.84L218.37,17.11L218.4,17.1L221.73,16.57L221.76,16.57L234.06,16.5L234.09,16.5L235.2,16.5L235.2,310.53L236.69,305.89L236.69,305.88L238.12,295.07L238.15,294.73L239.66,268.58L239.7,267.82L241.61,199.7L241.64,198.31L245.55,50.05L245.58,49.47L247.99,24.2L248.02,24.05L249.84,18.89L249.87,18.84L251.97,17.11L252,17.1L255.33,16.57L255.36,16.57L267.66,16.5L267.69,16.5L268.8,16.5L268.8,310.53L270.29,305.89L270.29,305.88L271.72,295.07L271.75,294.73L273.26,268.58L273.3,267.82L275.21,199.7L275.24,198.31L279.15,50.05L279.18,49.47L281.59,24.2L281.62,24.05L283.44,18.89L283.47,18.84L285.57,17.11L285.6,17.1L288.93,16.57L288.96,16.57L301.26,16.5L301.29,16.5L302.4,16.5L302.4,310.53L303.89,305.89L303.89,305.88L305.32,295.07L305.35,294.73L306.86,268.58L306.9,267.82L308.81,199.7L308.84,198.31L312.75,50.05L312.78,49.47L315.19,24.2L315.22,24.05L317.04,18.89L317.07,18.84L319.17,17.11L319.2,17.1L322.53,16.57L322.56,16.57L334.86,16.5L334.89,16.5L336,16.5" style="vector-effect: none; fill: none; stroke: rgb(51, 204, 51); stroke-opacity: 1; stroke-width: 1.7px; opacity: 1;"/></g><g class="points"/><g class="text"/></g><g class="trace scatter trace762322" style="stroke-miterlimit: 2; opacity: 1;"><g class="fills"/><g class="errorbars"/><g class="lines"><path class="js-line" d="M0,286.5L10.17,285.89L10.2,285.89L33.6,285.88L33.6,313.22L336,313.5" style="vector-effect: none; fill: none; stroke: rgb(255, 28, 28); stroke-opacity: 1; stroke-width: 1.7px; opacity: 1;"/></g><g class="points"/><g class="text"/></g></g></g></g><path class="xlines-above crisp" d="M0,0" style="fill: none;"/><path class="ylines-above crisp" d="M0,0" style="fill: none;"/><g class="overlines-above"/><g class="xaxislayer-above"><g class="xtick"><text text-anchor="middle" x="0" y="365" transform="translate(40,0)" style="font-family: 'Open Sans', verdana, arial, sans-serif; font-size: 14px; fill: rgb(0, 0, 0); fill-opacity: 1; white-space: pre; opacity: 1;">0</text></g><g class="xtick"><text text-anchor="middle" x="0" y="365" style="font-family: 'Open Sans', verdana, arial, sans-serif; font-size: 14px; fill: rgb(0, 0, 0); fill-opacity: 1; white-space: pre; opacity: 1;" transform="translate(110,0)">50</text></g><g class="xtick"><text text-anchor="middle" x="0" y="365" style="font-family: 'Open Sans', verdana, arial, sans-serif; font-size: 14px; fill: rgb(0, 0, 0); fill-opacity: 1; white-space: pre; opacity: 1;" transform="translate(180,0)">100</text></g><g class="xtick"><text text-anchor="middle" x="0" y="365" style="font-family: 'Open Sans', verdana, arial, sans-serif; font-size: 14px; fill: rgb(0, 0, 0); fill-opacity: 1; white-space: pre; opacity: 1;" transform="translate(250,0)">150</text></g><g class="xtick"><text text-anchor="middle" x="0" y="365" style="font-family: 'Open Sans', verdana, arial, sans-serif; font-size: 14px; fill: rgb(0, 0, 0); fill-opacity: 1; white-space: pre; opacity: 1;" transform="translate(320,0)">200</text></g></g><g class="yaxislayer-above"><g class="ytick"><text text-anchor="end" x="39" y="4.8999999999999995" transform="translate(0,333.5)" style="font-family: 'Open Sans', verdana, arial, sans-serif; font-size: 14px; fill: rgb(0, 0, 0); fill-opacity: 1; white-space: pre; opacity: 1;">0</text></g><g class="ytick"><text text-anchor="end" x="39" y="4.8999999999999995" style="font-family: 'Open Sans', verdana, arial, sans-serif; font-size: 14px; fill: rgb(0, 0, 0); fill-opacity: 1; white-space: pre; opacity: 1;" transform="translate(0,279.5)">0.2</text></g><g class="ytick"><text text-anchor="end" x="39" y="4.8999999999999995" style="font-family: 'Open Sans', verdana, arial, sans-serif; font-size: 14px; fill: rgb(0, 0, 0); fill-opacity: 1; white-space: pre; opacity: 1;" transform="translate(0,225.5)">0.4</text></g><g class="ytick"><text text-anchor="end" x="39" y="4.8999999999999995" style="font-family: 'Open Sans', verdana, arial, sans-serif; font-size: 14px; fill: rgb(0, 0, 0); fill-opacity: 1; white-space: pre; opacity: 1;" transform="translate(0,171.5)">0.6</text></g><g class="ytick"><text text-anchor="end" x="39" y="4.8999999999999995" style="font-family: 'Open Sans', verdana, arial, sans-serif; font-size: 14px; fill: rgb(0, 0, 0); fill-opacity: 1; white-space: pre; opacity: 1;" transform="translate(0,117.5)">0.8</text></g><g class="ytick"><text text-anchor="end" x="39" y="4.8999999999999995" style="font-family: 'Open Sans', verdana, arial, sans-serif; font-size: 14px; fill: rgb(0, 0, 0); fill-opacity: 1; white-space: pre; opacity: 1;" transform="translate(0,63.5)">1</text></g></g><g class="overaxes-above"/></g></g><g class="polarlayer"/><g class="smithlayer"/><g class="ternarylayer"/><g class="geolayer"/><g class="funnelarealayer"/><g class="pielayer"/><g class="iciclelayer"/><g class="treemaplayer"/><g class="sunburstlayer"/><g class="glimages"/><defs id="topdefs-303b1f"><g class="clips"/><clipPath id="legend303b1f"><rect width="117" height="53" x="0" y="0"/></clipPath></defs><g class="layer-above"><g class="imagelayer"/><g class="shapelayer"/></g><g class="infolayer"><g class="legend" pointer-events="all" transform="translate(382.72,20)"><rect class="bg" shape-rendering="crispEdges" width="117" height="53" x="0" y="0" style="stroke: rgb(68, 68, 68); stroke-opacity: 1; fill: rgb(255, 255, 255); fill-opacity: 1; stroke-width: 0px;"/><g class="scrollbox" transform="" clip-path="url(#legend303b1f)"><g class="groups"><g class="traces" transform="translate(0,15.6)" style="opacity: 1;"><text class="legendtext" text-anchor="start" x="40" y="5.46" style="font-family: 'Open Sans', verdana, arial, sans-serif; font-size: 14px; fill: rgb(0, 0, 0); fill-opacity: 1; white-space: pre;">E_coli</text><g class="layers" style="opacity: 1;"><g class="legendfill"/><g class="legendlines"><path class="js-line" d="M5,0h30" style="fill: none; stroke: rgb(51, 204, 51); stroke-opacity: 1; stroke-width: 1.7px;"/></g><g class="legendsymbols"><g class="legendpoints"/></g></g><rect class="legendtoggle" x="0" y="-10.6" width="111.8125" height="21.2" style="fill: rgb(0, 0, 0); fill-opacity: 0;"/></g><g class="traces" transform="translate(0,36.8)" style="opacity: 1;"><text class="legendtext" text-anchor="start" x="40" y="5.46" style="font-family: 'Open Sans', verdana, arial, sans-serif; font-size: 14px; fill: rgb(0, 0, 0); fill-opacity: 1; white-space: pre;">Salmonella</text><g class="layers" style="opacity: 1;"><g class="legendfill"/><g class="legendlines"><path class="js-line" d="M5,0h30" style="fill: none; stroke: rgb(255, 28, 28); stroke-opacity: 1; stroke-width: 1.7px;"/></g><g class="legendsymbols"><g class="legendpoints"/></g></g><rect class="legendtoggle" x="0" y="-10.6" width="111.8125" height="21.2" style="fill: rgb(0, 0, 0); fill-opacity: 0;"/></g></g></g><rect class="scrollbar" rx="20" ry="3" width="0" height="0" x="0" y="0" style="fill: rgb(128, 139, 164); fill-opacity: 1;"/></g><g class="g-gtitle"/><g class="g-xtitle" transform="translate(0,5.699999999999989)"><text class="xtitle" x="208" y="378.3" text-anchor="middle" style="opacity: 1; font-family: 'Open Sans', verdana, arial, sans-serif; font-size: 14px; fill: rgb(0, 0, 0); fill-opacity: 1; white-space: pre;">Time [h]</text></g><g class="g-ytitle" transform="translate(0.150390625,0)"><text class="ytitle" transform="rotate(-90,14.850000000000001,185)" x="14.850000000000001" y="185" text-anchor="middle" style="opacity: 1; font-family: 'Open Sans', verdana, arial, sans-serif; font-size: 14px; fill: rgb(0, 0, 0); fill-opacity: 1; white-space: pre;">Abundance [OD]</text></g></g></svg>