<svg class="main-svg" xmlns="http://www.w3.org/2000/svg" xmlns:xlink="http://www.w3.org/1999/xlink" width="500" height="400" style="" viewBox="0 0 500 400"><rect x="0" y="0" width="500" height="400" style="fill: rgb(255, 255, 255); fill-opacity: 1;"/><defs id="defs-072aa8"><g class="clips"><clipPath id="clip072aa8xyplot" class="plotclip"><rect width="460" height="330"/></clipPath><clipPath class="axesclip" id="clip072aa8x"><rect x="40" y="0" width="460" height="400"/></clipPath><clipPath class="axesclip" id="clip072aa8y"><rect x="0" y="20" width="500" height="330"/></clipPath><clipPath class="axesclip" id="clip072aa8xy"><rect x="40" y="20" width="460" height="330"/></clipPath></g><g class="gradients"/><g class="patterns"/></defs><g class="bglayer"/><g class="layer-below"><g class="imagelayer"/><g class="shapelayer"/></g><g class="cartesianlayer"><g class="subplot xy"><g class="layer-subplot"><g class="shapelayer"/><g class="imagelayer"/></g><g class="minor-gridlayer"><g class="x"/><g class="y"/></g><g class="gridlayer"><g class="x"><path class="xgrid crisp" transform="translate(135.82999999999998,0)" d="M0,20v330" style="stroke: rgb(0, 0, 0); stroke-opacity: 1; stroke-width: 0.5px;"/><path class="xgrid crisp" transform="translate(231.67,0)" d="M0,20v330" style="stroke: rgb(0, 0, 0); stroke-opacity: 1; stroke-width: 0.5px;"/><path class="xgrid crisp" transform="translate(327.5,0)" d="M0,20v330" style="stroke: rgb(0, 0, 0); stroke-opacity: 1; stroke-width: 0.5px;"/><path class="xgrid crisp" transform="translate(423.33,0)" d="M0,20v330" style="stroke: rgb(0, 0, 0); stroke-opacity: 1; stroke-width: 0.5px;"/></g><g class="y"><path class="ygrid crisp" transform="translate(0,296.38)" d="M40,0h460" style="stroke: rgb(0, 0, 0); stroke-opacity: 1; stroke-width: 0.5px;"/><path class="ygrid crisp" transform="translate(0,259.25)" d="M40,0h460" style="stroke: rgb(0, 0, 0); stroke-opacity: 1; stroke-width: 0.5px;"/><path class="ygrid crisp" transform="translate(0,222.13)" d="M40,0h460" style="stroke: rgb(0, 0, 0); stroke-opacity: 1; stroke-width: 0.5px;"/><path class="ygrid crisp" transform="translate(0,185)" d="M40,0h460" style="stroke: rgb(0, 0, 0); stroke-opacity: 1; stroke-width: 0.5px;"/><path class="ygrid crisp" transform="translate(0,147.88)" d="M40,0h460" style="stroke: rgb(0, 0, 0); stroke-opacity: 1; stroke-width: 0.5px;"/><path class="ygrid crisp" transform="translate(0,110.75)" d="M40,0h460" style="stroke: rgb(0, 0, 0); stroke-opacity: 1; stroke-width: 0.5px;"/><path class="ygrid crisp" transform="translate(0,73.63)" d="M40,0h460" style="stroke: rgb(0, 0, 0); stroke-opacity: 1; stroke-width: 0.5px;"/><path class="ygrid crisp" transform="translate(0,36.5)" d="M40,0h460" style="stroke: rgb(0, 0, 0); stroke-opacity: 1; stroke-width: 0.5px;"/></g></g><g class="zerolinelayer"><path class="xzl zl crisp" transform="translate(40,0)" d="M0,20v330" style="stroke: rgb(0, 0, 0); stroke-opacity: 1; stroke-width: 0.5px;"/><path class="yzl zl crisp" transform="translate(0,333.5)" d="M40,0h460" style="stroke: rgb(0, 0, 0); stroke-opacity: 1; stroke-width: 0.5px;"/></g><g class="layer-between"><g class="shapelayer"/><g class="imagelayer"/></g><path class="xlines-below"/><path class="ylines-below"/><g class="overlines-below"/><g class="xaxislayer-below"/><g class="yaxislayer-below"/><g class="overaxes-below"/><g class="overplot"><g class="xy" transform="translate(40,20)" clip-path="url(#clip072aa8xyplot)"><g class="scatterlayer mlayer"><g class="trace scatter tracecd67f2" style="stroke-miterlimit: 2; opacity: 1;"><g class="fills"/><g class="errorbars"/><g class="lines"><path class="js-line" d="M0,16.5L0.59,133.07L0.59,133.72L1.29,226.31L1.29,226.7L3.57,310.86L3.58,310.88L4.8,313.25L4.85,313.27L7.72,313.5L7.76,313.5L46,313.5L46,313.5L46,16.5L47.25,56.3L47.25,56.45L47.68,74.13L47.68,74.3L48.12,94.5L48.12,94.69L48.56,117.16L48.56,117.37L48.99,140.92L48.99,141.14L49.45,167.61L49.45,167.83L50,197.74L50.04,200.19L52.83,304.79L52.87,305.31L54.22,312.75L54.27,312.82L55.7,313.48L55.74,313.48L68.83,313.5L68.87,313.5L92,313.5L92,313.5L92,16.5L93.21,61.37L93.21,61.54L93.63,81.45L93.64,81.64L94.39,122.31L94.4,122.53L95.15,167.66L95.16,167.9L95.83,208.82L95.88,208.82L95.92,211.28L98.07,298.51L98.11,299.31L99.51,312.01L99.55,312.13L100.81,313.42L100.86,313.43L107.82,313.5L107.86,313.5L138,313.5L138,313.5L138,16.5L139.2,61.19L139.2,61.36L139.63,81.29L139.63,81.48L140.38,121.98L140.39,122.2L141.14,167.36L141.15,167.6L141.83,209.24L141.88,209.24L141.92,211.7L144.07,298.67L144.11,299.46L145.51,312.04L145.55,312.15L146.81,313.42L146.86,313.43L153.82,313.5L153.86,313.5L184,313.5L184,313.5L184,16.5L185.2,61.19L185.2,61.37L185.63,81.29L185.63,81.49L186.38,121.99L186.39,122.21L187.14,167.37L187.15,167.61L187.83,209.25L187.88,209.25L187.92,211.71L190.07,298.67L190.11,299.46L191.51,312.04L191.55,312.15L192.81,313.42L192.86,313.43L199.82,313.5L199.86,313.5L230,313.5L230,313.5L230,16.5L231.2,61.19L231.2,61.37L231.63,81.3L231.63,81.49L232.38,121.99L232.39,122.21L233.14,167.37L233.15,167.61L233.83,209.25L233.88,209.25L233.92,211.71L236.07,298.67L236.11,299.46L237.51,312.04L237.55,312.15L238.81,313.42L238.86,313.43L245.82,313.5L245.86,313.5L276,313.5L276,313.5L276,16.5L277.2,61.19L277.2,61.37L277.63,81.3L277.63,81.49L278.38,121.99L278.39,122.21L279.14,167.37L279.15,167.61L279.83,209.25L279.88,209.25L279.92,211.71L282.07,298.67L282.11,299.46L283.51,312.04L283.55,312.15L284.81,313.42L284.86,313.43L291.82,313.5L291.86,313.5L322,313.5L322,313.5L322,16.5L323.2,61.19L323.2,61.37L323.63,81.3L323.63,81.49L324.38,121.99L324.39,122.21L325.14,167.37L325.15,167.61L325.83,209.25L325.88,209.25L325.92,211.71L328.07,298.67L328.11,299.46L329.51,312.04L329.55,312.15L330.81,313.42L330.86,313.43L337.82,313.5L337.86,313.5L368,313.5L368,313.5L368,16.5L369.2,61.19L369.2,61.37L369.63,81.3L369.63,81.49L370.38,121.99L370.39,122.21L371.14,167.37L371.15,167.61L371.83,209.25L371.88,209.25L371.92,211.71L374.07,298.67L374.11,299.46L375.51,312.04L375.55,312.15L376.81,313.42L376.86,313.43L383.82,313.5L383.86,313.5L414,313.5L414,313.5L414,16.5L415.2,61.19L415.2,61.37L415.63,81.3L415.63,81.49L416.38,121.99L416.39,122.21L417.14,167.37L417.15,167.61L417.83,209.25L417.88,209.25L417.92,211.71L420.07,298.67L420.11,299.46L421.51,312.04L421.55,312.15L422.81,313.42L422.86,313.43L429.82,313.5L429.86,313.5L460,313.5" style="vector-effect: none; fill: none; stroke: rgb(0, 0, 0); stroke-opacity: 1; stroke-width: 1.7px; opacity: 1;"/></g><g class="points"/><g class="text"/></g></g></g></g><path class="xlines-above crisp" d="M0,0" style="fill: none;"/><path class="ylines-above crisp" d="M0,0" style="fill: none;"/><g class="overlines-above"/><g class="xaxislayer-above"><g class="xtick"><text text-anchor="middle" x="0" y="365" transform="translate(40,0)" style="font-family: 'Open Sans', verdana, arial, sans-serif; font-size: 14px; fill: rgb(0, 0, 0); fill-opacity: 1; white-space: pre; opacity: 1;">0</text></g><g class="xtick"><text text-anchor="middle" x="0" y="365" style="font-family: 'Open Sans', verdana, arial, sans-serif; font-size: 14px; fill: rgb(0, 0, 0); fill-opacity: 1; white-space: pre; opacity: 1;" transform="translate(135.82999999999998,0)">50</text></g><g class="xtick"><text text-anchor="middle" x="0" y="365" style="font-family: 'Open Sans', verdana, arial, sans-serif; font-size: 14px; fill: rgb(0, 0, 0); fill-opacity: 1; white-space: pre; opacity: 1;" transform="translate(231.67,0)">100</text></g><g class="xtick"><text text-anchor="middle" x="0" y="365" style="font-family: 'Open Sans', verdana, arial, sans-serif; font-size: 14px; fill: rgb(0, 0, 0); fill-opacity: 1; white-space: pre; opacity: 1;" transform="translate(327.5,0)">150</text></g><g class="xtick"><text text-anchor="middle" x="0" y="365" style="font-family: 'Open Sans', verdana, arial, sans-serif; font-size: 14px; fill: rgb(0, 0, 0); fill-opacity: 1; white-space: pre; opacity: 1;" transform="translate(423.33,0)">200</text></g></g><g class="yaxislayer-above"><g class="ytick"><text text-anchor="end" x="39" y="4.8999999999999995" transform="translate(0,333.5)" style="font-family: 'Open Sans', verdana, arial, sans-serif; font-size: 14px; fill: rgb(0, 0, 0); fill-opacity: 1; white-space: pre; opacity: 1;">0</text></g><g class="ytick"><text text-anchor="end" x="39" y="4.8999999999999995" style="font-family: 'Open Sans', verdana, arial, sans-serif; font-size: 14px; fill: rgb(0, 0, 0); fill-opacity: 1; white-space: pre; opacity: 1;" transform="translate(0,296.38)">2</text></g><g class="ytick"><text text-anchor="end" x="39" y="4.8999999999999995" style="font-family: 'Open Sans', verdana, arial, sans-serif; font-size: 14px; fill: rgb(0, 0, 0); fill-opacity: 1; white-space: pre; opacity: 1;" transform="translate(0,259.25)">4</text></g><g class="ytick"><text text-anchor="end" x="39" y="4.8999999999999995" style="font-family: 'Open Sans', verdana, arial, sans-serif; font-size: 14px; fill: rgb(0, 0, 0); fill-opacity: 1; white-space: pre; opacity: 1;" transform="translate(0,222.13)">6</text></g><g class="ytick"><text text-anchor="end" x="39" y="4.8999999999999995" style="font-family: 'Open Sans', verdana, arial, sans-serif; font-size: 14px; fill: rgb(0, 0, 0); fill-opacity: 1; white-space: pre; opacity: 1;" transform="translate(0,185)">8</text></g><g class="ytick"><text text-anchor="end" x="39" y="4.8999999999999995" style="font-family: 'Open Sans', verdana, arial, sans-serif; font-size: 14px; fill: rgb(0, 0, 0); fill-opacity: 1; white-space: pre; opacity: 1;" transform="translate(0,147.88)">10</text></g><g class="ytick"><text text-anchor="end" x="39" y="4.8999999999999995" style="font-family: 'Open Sans', verdana, arial, sans-serif; font-size: 14px; fill: rgb(0, 0, 0); fill-opacity: 1; white-space: pre; opacity: 1;" transform="translate(0,110.75)">12</text></g><g class="ytick"><text text-anchor="end" x="39" y="4.8999999999999995" style="font-family: 'Open Sans', verdana, arial, sans-serif; font-size: 14px; fill: rgb(0, 0, 0); fill-opacity: 1; white-space: pre; opacity: 1;" transform="translate(0,73.63)">14</text></g><g class="ytick"><text text-anchor="end" x="39" y="4.8999999999999995" style="font-family: 'Open Sans', verdana, arial, sans-serif; font-size: 14px; fill: rgb(0, 0, 0); fill-opacity: 1; white-space: pre; opacity: 1;" transform="translate(0,36.5)">16</text></g></g><g class="overaxes-above"/></g></g><g class="polarlayer"/><g class="smithlayer"/><g class="ternarylayer"/><g class="geolayer"/><g class="funnelarealayer"/><g class="pielayer"/><g class="iciclelayer"/><g class="treemaplayer"/><g class="sunburstlayer"/><g class="glimages"/><defs id="topdefs-072aa8"><g class="clips"/></defs><g class="layer-above"><g class="imagelayer"/><g class="shapelayer"/></g><g class="infolayer"><g class="g-gtitle"/><g class="g-xtitle" transform="translate(0,5.699999999999989)"><text class="xtitle" x="270" y="378.3" text-anchor="middle" style="opacity: 1; font-family: 'Open Sans', verdana, arial, sans-serif; font-size: 14px; fill: rgb(0, 0, 0); fill-opacity: 1; white-space: pre;">Time [h]</text></g><g class="g-ytitle"><text class="ytitle" transform="rotate(-90,18.584375,185)" x="18.584375" y="185" text-anchor="middle" style="opacity: 1; font-family: 'Open Sans', verdana, arial, sans-serif; font-size: 14px; fill: rgb(0, 0, 0); fill-opacity: 1; white-space: pre;">Chloramphenicol concentration [µg/mL]</text></g></g></svg>