<svg class="main-svg" xmlns="http://www.w3.org/2000/svg" xmlns:xlink="http://www.w3.org/1999/xlink" width="500" height="400" style="" viewBox="0 0 500 400"><rect x="0" y="0" width="500" height="400" style="fill: rgb(255, 255, 255); fill-opacity: 1;"/><defs id="defs-46bb59"><g class="clips"><clipPath id="clip46bb59xyplot" class="plotclip"><rect width="337" height="330"/></clipPath><clipPath class="axesclip" id="clip46bb59x"><rect x="50" y="0" width="337" height="400"/></clipPath><clipPath class="axesclip" id="clip46bb59y"><rect x="0" y="20" width="500" height="330"/></clipPath><clipPath class="axesclip" id="clip46bb59xy"><rect x="50" y="20" width="337" height="330"/></clipPath><clipPath class="contourclip" id="clip0b338c"><path d="M0,0L337,0L337,330L0,330Z"/></clipPath></g><g class="gradients"/><g class="patterns"/></defs><g class="bglayer"/><g class="layer-below"><g class="imagelayer"/><g class="shapelayer"/></g><g class="cartesianlayer"><g class="subplot xy"><g class="layer-subplot"><g class="shapelayer"/><g class="imagelayer"/></g><g class="minor-gridlayer"><g class="x"/><g class="y"/></g><g class="gridlayer"><g class="x"><path class="xgrid crisp" transform="translate(87.44,0)" d="M0,20v330" style="stroke: rgb(0, 0, 0); stroke-opacity: 1; stroke-width: 0.5px;"/><path class="xgrid crisp" transform="translate(124.89,0)" d="M0,20v330" style="stroke: rgb(0, 0, 0); stroke-opacity: 1; stroke-width: 0.5px;"/><path class="xgrid crisp" transform="translate(162.32999999999998,0)" d="M0,20v330" style="stroke: rgb(0, 0, 0); stroke-opacity: 1; stroke-width: 0.5px;"/><path class="xgrid crisp" transform="translate(199.78,0)" d="M0,20v330" style="stroke: rgb(0, 0, 0); stroke-opacity: 1; stroke-width: 0.5px;"/><path class="xgrid crisp" transform="translate(237.22,0)" d="M0,20v330" style="stroke: rgb(0, 0, 0); stroke-opacity: 1; stroke-width: 0.5px;"/><path class="xgrid crisp" transform="translate(274.66999999999996,0)" d="M0,20v330" style="stroke: rgb(0, 0, 0); stroke-opacity: 1; stroke-width: 0.5px;"/><path class="xgrid crisp" transform="translate(312.11,0)" d="M0,20v330" style="stroke: rgb(0, 0, 0); stroke-opacity: 1; stroke-width: 0.5px;"/><path class="xgrid crisp" transform="translate(349.56,0)" d="M0,20v330" style="stroke: rgb(0, 0, 0); stroke-opacity: 1; stroke-width: 0.5px;"/></g><g class="y"><path class="ygrid crisp" transform="translate(0,284)" d="M50,0h337" style="stroke: rgb(0, 0, 0); stroke-opacity: 1; stroke-width: 0.5px;"/><path class="ygrid crisp" transform="translate(0,218)" d="M50,0h337" style="stroke: rgb(0, 0, 0); stroke-opacity: 1; stroke-width: 0.5px;"/><path class="ygrid crisp" transform="translate(0,152)" d="M50,0h337" style="stroke: rgb(0, 0, 0); stroke-opacity: 1; stroke-width: 0.5px;"/><path class="ygrid crisp" transform="translate(0,86)" d="M50,0h337" style="stroke: rgb(0, 0, 0); stroke-opacity: 1; stroke-width: 0.5px;"/></g></g><g class="zerolinelayer"><path class="xzl zl crisp" transform="translate(50,0)" d="M0,20v330" style="stroke: rgb(0, 0, 0); stroke-opacity: 1; stroke-width: 0.5px;"/><path class="yzl zl crisp" transform="translate(0,350)" d="M50,0h337" style="stroke: rgb(0, 0, 0); stroke-opacity: 1; stroke-width: 0.5px;"/></g><g class="layer-between"><g class="shapelayer"/><g class="imagelayer"/></g><path class="xlines-below"/><path class="ylines-below"/><g class="overlines-below"/><g class="xaxislayer-below"/><g class="yaxislayer-below"/><g class="overaxes-below"/><g class="overplot"><g class="xy" transform="translate(50,20)" clip-path="url(#clip46bb59xyplot)"><g class="contourlayer mlayer"><g class="contour" clip-path="url(#clip0b338c)" style="opacity: 1;"><g class="heatmapcoloring"/><g class="contourbg"><path d="M0,0L337,0L337,330L0,330Z" style="stroke: none; fill: rgb(58, 76, 192);"/></g><g class="contourfill"><path d="M0,176.88Q0.92,174.5 1.36,173.33C1.79,172.2 2.24,171 2.6,170C2.9,169.18 3.18,168.36 3.4,167.75C3.55,167.32 3.63,167.13 3.79,166.67C4.08,165.86 4.57,164.44 4.95,163.33C5.33,162.22 5.74,161 6.07,160C6.34,159.17 6.61,158.34 6.81,157.73C6.95,157.31 7.01,157.12 7.15,156.67C7.4,155.87 7.85,154.44 8.2,153.33C8.54,152.22 8.88,151.11 9.22,150C9.55,148.89 9.89,147.78 10.21,146.67C10.54,145.56 10.85,144.44 11.17,143.33C11.48,142.22 11.79,141.11 12.1,140C12.4,138.89 12.73,137.68 13,136.67C13.23,135.82 13.46,134.96 13.62,134.34C13.73,133.93 13.77,133.76 13.88,133.33C14.08,132.54 14.45,131.11 14.73,130C15.01,128.89 15.29,127.78 15.56,126.67C15.83,125.56 16.12,124.39 16.37,123.33C16.6,122.37 16.88,121.16 17.02,120.58C17.08,120.31 17.1,120.27 17.16,120C17.31,119.35 17.67,117.78 17.92,116.67C18.17,115.56 18.42,114.44 18.67,113.33C18.91,112.22 19.15,111.11 19.39,110C19.63,108.89 19.91,107.58 20.1,106.67C20.23,106.05 20.31,105.63 20.42,105.09C20.54,104.52 20.65,104.01 20.79,103.33C20.98,102.4 21.24,101.11 21.46,100C21.68,98.89 21.9,97.78 22.12,96.67C22.34,95.56 22.55,94.44 22.76,93.33C22.97,92.22 23.19,91.03 23.38,90C23.54,89.12 23.72,88.16 23.83,87.55C23.9,87.18 23.92,87.06 23.99,86.67C24.13,85.91 24.39,84.44 24.59,83.33C24.79,82.22 24.98,81.11 25.17,80C25.36,78.89 25.55,77.78 25.74,76.67C25.93,75.56 26.11,74.44 26.29,73.33C26.47,72.22 26.66,71.03 26.83,70C26.97,69.11 27.13,68.11 27.23,67.5C27.29,67.15 27.31,67.04 27.37,66.67C27.49,65.93 27.71,64.44 27.88,63.33C28.05,62.22 28.22,61.11 28.39,60C28.56,58.89 28.73,57.78 28.89,56.67C29.06,55.56 29.22,54.44 29.38,53.33C29.54,52.22 29.69,51.11 29.85,50C30.01,48.89 30.18,47.68 30.32,46.67C30.44,45.83 30.56,44.98 30.64,44.36C30.7,43.95 30.72,43.77 30.78,43.33C30.89,42.54 31.08,41.11 31.23,40C31.38,38.89 31.52,37.78 31.66,36.67C31.8,35.56 31.95,34.44 32.09,33.33C32.23,32.22 32.38,31.11 32.52,30C32.66,28.89 32.79,27.78 32.93,26.67C33.07,25.56 33.21,24.44 33.34,23.33C33.47,22.22 33.61,21.04 33.73,20C33.84,19.07 33.97,17.97 34.04,17.37C34.08,17.06 34.08,16.99 34.12,16.67C34.2,15.97 34.38,14.44 34.51,13.33C34.64,12.22 34.76,11.11 34.88,10C35,8.89 35.13,7.78 35.25,6.67C35.37,5.56 35.49,4.44 35.61,3.33Q35.73,2.22 35.97,0L337,0L337,330L0,330Z" style="stroke: none; fill: rgb(94, 108, 198);"/><path d="M0,272.56Q2.76,270.76 3.4,270.34C3.65,270.18 3.68,270.16 3.93,270C4.51,269.61 5.95,268.6 6.81,268C7.51,267.51 8.13,267.1 8.72,266.67C9.25,266.29 9.62,265.99 10.21,265.55C11.07,264.9 12.3,264.02 13.41,263.16499999999996C14.63,262.23 16,261.14 17.21,260.15C18.33,259.23 19.67,258.08 20.42,257.45C20.82,257.11 20.97,257 21.35,256.67C21.98,256.12 23.14,255.06 23.83,254.45C24.32,254.01 24.61,253.76 25.08,253.33C25.7,252.75 26.6,251.89 27.23,251.29C27.73,250.81 28.09,250.48 28.59,250C29.21,249.4 30.04,248.55 30.64,247.95C31.11,247.47 31.44,247.16 31.91,246.67C32.53,246.03 33.46,245.03 34.04,244.41C34.44,243.98 34.65,243.77 35.06,243.33C35.69,242.64 36.91,241.26 37.44,240.67C37.71,240.37 37.77,240.31 38.04,240C38.64,239.32 39.94,237.8 40.86,236.68C41.78,235.57 42.96,234.09 43.56,233.33C43.87,232.94 43.96,232.8 44.25,232.43C44.72,231.82 45.53,230.78 46.12,230C46.66,229.28 47.22,228.51 47.66,227.9C48,227.44 48.19,227.19 48.56,226.67C49.17,225.81 50.2,224.34 50.975,223.2C51.71,222.12 52.48,220.96 53.11,220C53.62,219.22 54.07,218.49 54.46,217.88C54.75,217.42 54.92,217.18 55.24,216.67C55.76,215.84 56.8,214.12 57.27,213.33C57.53,212.89 57.63,212.72 57.87,212.31C58.23,211.7 58.73,210.85 59.22,210C59.82,208.96 60.55,207.64 61.18000000000001,206.495C61.77,205.42 62.31,204.41 62.88,203.33C63.47,202.22 64.07,201.05 64.64,199.925C65.19,198.83 65.72,197.76 66.25,196.67C66.79,195.57 67.56,193.96 67.85,193.33C67.96,193.09 67.97,193.06 68.08,192.82C68.34,192.26 68.94,190.98 69.38,190C69.86,188.94 70.46,187.56 70.85,186.67C71.11,186.08 71.26,185.71 71.48,185.19C71.73,184.61 71.98,184.04 72.28,183.33C72.68,182.38 73.2,181.1 73.65,180C74.09,178.92 74.5,177.87 74.93,176.77499999999998C75.37,175.65 75.82,174.47 76.25,173.33C76.67,172.21 77.13,171 77.49,170C77.79,169.18 78.07,168.36 78.29,167.75C78.44,167.32 78.52,167.13 78.68,166.67C78.97,165.86 79.46,164.44 79.84,163.33C80.22,162.22 80.63,161 80.96,160C81.23,159.17 81.5,158.34 81.7,157.73C81.84,157.31 81.9,157.12 82.04,156.67C82.29,155.87 82.74,154.44 83.09,153.33C83.43,152.22 83.77,151.11 84.11,150C84.44,148.89 84.78,147.78 85.1,146.67C85.43,145.56 85.74,144.44 86.06,143.33C86.37,142.22 86.68,141.11 86.99,140C87.29,138.89 87.62,137.68 87.89,136.67C88.12,135.82 88.35,134.96 88.51,134.34C88.62,133.93 88.66,133.76 88.77,133.33C88.97,132.54 89.34,131.11 89.62,130C89.9,128.89 90.18,127.78 90.45,126.67C90.72,125.56 91.01,124.39 91.26,123.33C91.49,122.37 91.77,121.16 91.91,120.58C91.97,120.31 91.99,120.27 92.05,120C92.2,119.35 92.56,117.78 92.81,116.67C93.06,115.56 93.31,114.44 93.56,113.33C93.8,112.22 94.04,111.11 94.28,110C94.52,108.89 94.8,107.58 94.99,106.67C95.12,106.05 95.2,105.63 95.31,105.09C95.43,104.52 95.54,104.01 95.68,103.33C95.87,102.4 96.13,101.11 96.35,100C96.57,98.89 96.79,97.78 97.01,96.67C97.23,95.56 97.44,94.44 97.65,93.33C97.86,92.22 98.08,91.03 98.27,90C98.43,89.12 98.61,88.16 98.72,87.55C98.79,87.18 98.81,87.06 98.88,86.67C99.02,85.91 99.27,84.44 99.47,83.33C99.67,82.22 99.87,81.11 100.06,80C100.25,78.89 100.43,77.78 100.62,76.67C100.81,75.56 101,74.44 101.18,73.33C101.36,72.22 101.55,71.03 101.72,70C101.86,69.11 102.02,68.11 102.12,67.5C102.18,67.15 102.19,67.04 102.25,66.67C102.37,65.93 102.6,64.44 102.77,63.33C102.94,62.22 103.11,61.11 103.28,60C103.45,58.89 103.62,57.78 103.78,56.67C103.95,55.56 104.11,54.44 104.27,53.33C104.43,52.22 104.58,51.11 104.74,50C104.9,48.89 105.07,47.68 105.21,46.67C105.33,45.83 105.45,44.98 105.53,44.36C105.59,43.95 105.61,43.77 105.67,43.33C105.78,42.54 105.96,41.11 106.11,40C106.26,38.89 106.41,37.78 106.55,36.67C106.7,35.56 106.84,34.44 106.98,33.33C107.12,32.22 107.27,31.11 107.41,30C107.55,28.89 107.69,27.78 107.82,26.67C107.96,25.56 108.09,24.44 108.22,23.33C108.35,22.22 108.5,21.04 108.62,20C108.73,19.07 108.86,17.97 108.93,17.37C108.97,17.06 108.97,16.99 109.01,16.67C109.09,15.97 109.26,14.44 109.39,13.33C109.52,12.22 109.64,11.11 109.77,10C109.89,8.89 110.02,7.78 110.14,6.67C110.26,5.56 110.38,4.44 110.5,3.33Q110.62,2.22 110.86,0L337,0L337,330L0,330Z" style="stroke: none; fill: rgb(130, 140, 205);"/><path d="M0,304.44Q2.74,303.67 3.4,303.49C3.67,303.41 3.71,303.41 3.97,303.33C4.56,303.16 5.82,302.76 6.81,302.45C7.89,302.12 9.08,301.75 10.21,301.4C11.35,301.05 12.79,300.61 13.62,300.35C14.09,300.2 14.3,300.14 14.74,300C15.37,299.79 16.18,299.51 17.02,299.22C18.04,298.87 19.29,298.45 20.42,298.06C21.56,297.67 23.13,297.14 23.83,296.9C24.14,296.79 24.21,296.78 24.51,296.67C25.12,296.45 26.27,296.01 27.23,295.65C28.3,295.25 29.56,294.77 30.64,294.37C31.61,294.01 32.81,293.56 33.41,293.33C33.7,293.22 33.75,293.2 34.04,293.08C34.72,292.8 36.31,292.14 37.44,291.68C38.58,291.21 40.14,290.58 40.85,290.29C41.18,290.16 41.25,290.13 41.56,290C42.17,289.74 43.3,289.22 44.25,288.8C45.32,288.32 46.78,287.67 47.66,287.28C48.22,287.03 48.54,286.9 49.04,286.67C49.65,286.39 50.3,286.06 51.06,285.69C52.05,285.21 53.56,284.48 54.46,284.04C55.05,283.75 55.41,283.59 55.93,283.33C56.53,283.03 57.13,282.7 57.87,282.32C58.85,281.81 60.47,280.96 61.27,280.54C61.71,280.31 61.89,280.22 62.3,280C62.93,279.66 63.81,279.15 64.68,278.66C65.73,278.07 67.01,277.37 68.145,276.70500000000004C69.27,276.04 70.48,275.29 71.48,274.68C72.3,274.18 73.08,273.72 73.7,273.33C74.16,273.04 74.39,272.88 74.89,272.56C75.73,272.01 77.65,270.76 78.29,270.34C78.54,270.18 78.57,270.16 78.82,270C79.4,269.61 80.84,268.6 81.7,268C82.4,267.51 83.02,267.1 83.61,266.67C84.14,266.29 84.51,265.99 85.1,265.55C85.96,264.9 87.19,264.02 88.30000000000001,263.16499999999996C89.52,262.23 90.89,261.14 92.1,260.15C93.22,259.23 94.56,258.08 95.31,257.45C95.71,257.11 95.86,257 96.24,256.67C96.87,256.12 98.03,255.06 98.72,254.45C99.21,254.01 99.5,253.76 99.97,253.33C100.59,252.75 101.49,251.89 102.12,251.29C102.62,250.81 102.98,250.48 103.48,250C104.1,249.4 104.93,248.55 105.53,247.95C106,247.47 106.33,247.16 106.8,246.67C107.42,246.03 108.35,245.03 108.93,244.41C109.33,243.98 109.54,243.77 109.95,243.33C110.58,242.64 111.8,241.26 112.33,240.67C112.6,240.37 112.66,240.31 112.93,240C113.53,239.32 114.83,237.8 115.75,236.68C116.67,235.57 117.85,234.09 118.45,233.33C118.76,232.94 118.85,232.8 119.14,232.43C119.61,231.82 120.42,230.78 121.01,230C121.55,229.28 122.11,228.51 122.55,227.9C122.89,227.44 123.08,227.19 123.45,226.67C124.06,225.81 125.09,224.34 125.86500000000001,223.2C126.6,222.12 127.37,220.96 128,220C128.51,219.22 128.96,218.49 129.35,217.88C129.64,217.42 129.81,217.18 130.13,216.67C130.65,215.84 131.69,214.12 132.16,213.33C132.42,212.89 132.52,212.72 132.76,212.31C133.12,211.7 133.62,210.85 134.11,210C134.71,208.96 135.44,207.64 136.07,206.495C136.66,205.42 137.2,204.41 137.77,203.33C138.36,202.22 138.96,201.05 139.53,199.925C140.08,198.83 140.61,197.76 141.14,196.67C141.68,195.57 142.43,193.96 142.73,193.33C142.85,193.09 142.86,193.06 142.97,192.82C143.23,192.26 143.83,190.98 144.27,190C144.75,188.94 145.35,187.56 145.74,186.67C146,186.08 146.15,185.71 146.37,185.19C146.62,184.61 146.86,184.04 147.16,183.33C147.56,182.38 148.09,181.1 148.54,180C148.98,178.92 149.39,177.87 149.82,176.77499999999998C150.26,175.65 150.71,174.47 151.14,173.33C151.56,172.21 152.02,171 152.38,170C152.68,169.18 152.96,168.36 153.18,167.75C153.33,167.32 153.41,167.13 153.57,166.67C153.86,165.86 154.35,164.44 154.73,163.33C155.11,162.22 155.52,161 155.85,160C156.12,159.17 156.39,158.34 156.59,157.73C156.73,157.31 156.79,157.12 156.93,156.67C157.18,155.87 157.63,154.44 157.98,153.33C158.32,152.22 158.66,151.11 159,150C159.33,148.89 159.67,147.78 159.99,146.67C160.32,145.56 160.63,144.44 160.95,143.33C161.26,142.22 161.57,141.11 161.88,140C162.18,138.89 162.51,137.68 162.78,136.67C163,135.82 163.23,134.96 163.39,134.34C163.5,133.93 163.55,133.76 163.66,133.33C163.87,132.54 164.23,131.11 164.51,130C164.79,128.89 165.07,127.78 165.34,126.67C165.61,125.56 165.9,124.39 166.15,123.33C166.38,122.37 166.67,121.16 166.8,120.58C166.86,120.32 166.87,120.27 166.93,120C167.08,119.35 167.45,117.78 167.7,116.67C167.95,115.56 168.19,114.44 168.44,113.33C168.68,112.22 168.93,111.11 169.17,110C169.41,108.89 169.69,107.58 169.88,106.67C170.01,106.05 170.09,105.63 170.2,105.09C170.32,104.52 170.43,104.01 170.57,103.33C170.76,102.4 171.02,101.11 171.24,100C171.46,98.89 171.68,97.78 171.89,96.67C172.11,95.56 172.32,94.44 172.53,93.33C172.74,92.22 172.97,91.03 173.16,90C173.32,89.12 173.5,88.16 173.61,87.55C173.68,87.18 173.7,87.06 173.77,86.67C173.91,85.91 174.16,84.44 174.36,83.33C174.56,82.22 174.76,81.11 174.95,80C175.14,78.89 175.32,77.78 175.51,76.67C175.7,75.56 175.89,74.44 176.07,73.33C176.25,72.22 176.44,71.03 176.61,70C176.75,69.11 176.91,68.11 177.01,67.5C177.07,67.15 177.08,67.04 177.14,66.67C177.26,65.93 177.49,64.44 177.66,63.33C177.83,62.22 178,61.11 178.17,60C178.34,58.89 178.51,57.78 178.67,56.67C178.84,55.56 179,54.44 179.16,53.33C179.32,52.22 179.47,51.11 179.63,50C179.79,48.89 179.96,47.68 180.1,46.67C180.22,45.83 180.32,44.98 180.41,44.36C180.47,43.95 180.5,43.77 180.56,43.33C180.67,42.54 180.85,41.11 181,40C181.15,38.89 181.3,37.78 181.44,36.67C181.59,35.56 181.73,34.44 181.87,33.33C182.01,32.22 182.15,31.11 182.29,30C182.43,28.89 182.57,27.78 182.71,26.67C182.85,25.56 182.98,24.44 183.11,23.33C183.24,22.22 183.39,21.04 183.51,20C183.62,19.07 183.75,17.97 183.82,17.37C183.86,17.06 183.86,16.99 183.9,16.67C183.98,15.97 184.15,14.44 184.28,13.33C184.41,12.22 184.53,11.11 184.66,10C184.78,8.89 184.91,7.78 185.03,6.67C185.15,5.56 185.27,4.44 185.39,3.33Q185.51,2.22 185.75,0L337,0L337,330L0,330Z" style="stroke: none; fill: rgb(167, 173, 211);"/><path d="M0,320.4Q2.06,320.1 2.67,320C2.99,319.95 3.07,319.93 3.4,319.87C4.12,319.74 5.67,319.48 6.81,319.28C7.94,319.08 9.08,318.89 10.21,318.69C11.35,318.49 12.48,318.3 13.62,318.1C14.75,317.9 15.89,317.7 17.02,317.5C18.15,317.3 19.53,317.06 20.42,316.91C20.99,316.81 21.33,316.76 21.84,316.67C22.45,316.56 23.08,316.42 23.83,316.27C24.81,316.07 26.1,315.82 27.23,315.6C28.37,315.38 29.5,315.16 30.64,314.93C31.77,314.71 32.91,314.48 34.04,314.25C35.17,314.03 36.58,313.75 37.44,313.58C37.96,313.48 38.22,313.43 38.69,313.33C39.31,313.2 40.05,313.03 40.85,312.85C41.86,312.63 43.12,312.34 44.25,312.09C45.39,311.84 46.52,311.58 47.66,311.33C48.79,311.08 50.01,310.81 51.06,310.57C51.97,310.37 52.99,310.15 53.61,310C53.97,309.92 54.08,309.88 54.46,309.79C55.22,309.6 56.73,309.22 57.87,308.93C59,308.65 60.14,308.36 61.27,308.08C62.41,307.8 63.66,307.48 64.68,307.23C65.5,307.02 66.3,306.84 66.92,306.67C67.37,306.55 67.59,306.48 68.08,306.34C68.92,306.1 70.35,305.71 71.48,305.39C72.62,305.07 73.75,304.76 74.89,304.44C76.02,304.12 77.63,303.67 78.29,303.49C78.56,303.41 78.6,303.41 78.86,303.33C79.45,303.16 80.71,302.76 81.7,302.45C82.78,302.12 83.97,301.75 85.1,301.4C86.24,301.05 87.68,300.61 88.51,300.35C88.98,300.2 89.19,300.14 89.63,300C90.26,299.79 91.07,299.51 91.91,299.22C92.93,298.87 94.18,298.45 95.31,298.06C96.45,297.67 98.02,297.14 98.72,296.9C99.03,296.79 99.1,296.78 99.4,296.67C100.01,296.45 101.16,296.01 102.12,295.65C103.19,295.25 104.45,294.77 105.53,294.37C106.5,294.01 107.7,293.56 108.3,293.33C108.59,293.22 108.64,293.2 108.93,293.08C109.61,292.8 111.2,292.14 112.33,291.68C113.47,291.21 115.03,290.58 115.74,290.29C116.07,290.16 116.14,290.13 116.45,290C117.06,289.74 118.19,289.22 119.14,288.8C120.21,288.32 121.67,287.67 122.55,287.28C123.11,287.03 123.43,286.9 123.93,286.67C124.54,286.39 125.19,286.06 125.95,285.69C126.94,285.21 128.45,284.48 129.35,284.04C129.94,283.75 130.3,283.59 130.82,283.33C131.42,283.03 132.02,282.7 132.76,282.32C133.74,281.81 135.36,280.96 136.16,280.54C136.6,280.31 136.78,280.22 137.19,280C137.82,279.66 138.7,279.15 139.57,278.66C140.62,278.07 141.9,277.37 143.035,276.70500000000004C144.16,276.04 145.37,275.29 146.37,274.68C147.19,274.18 147.97,273.72 148.59,273.33C149.05,273.04 149.28,272.88 149.78,272.56C150.62,272.01 152.54,270.76 153.18,270.34C153.43,270.18 153.46,270.16 153.71,270C154.29,269.61 155.73,268.6 156.59,268C157.29,267.51 157.9,267.1 158.49,266.67C159.02,266.28 159.4,265.99 159.99,265.55C160.86,264.9 162.08,264.01 163.18,263.16499999999996C164.4,262.23 165.78,261.14 166.99,260.15C168.11,259.23 169.45,258.08 170.2,257.45C170.6,257.11 170.75,257 171.13,256.67C171.76,256.12 172.92,255.06 173.61,254.45C174.1,254.01 174.39,253.76 174.86,253.33C175.48,252.75 176.38,251.89 177.01,251.29C177.51,250.81 177.87,250.48 178.37,250C178.99,249.4 179.81,248.55 180.41,247.95C180.89,247.47 181.21,247.16 181.69,246.67C182.31,246.03 183.24,245.03 183.82,244.41C184.22,243.98 184.43,243.77 184.84,243.33C185.47,242.64 186.69,241.26 187.22,240.67C187.49,240.37 187.55,240.31 187.82,240C188.42,239.32 189.72,237.8 190.64,236.68C191.56,235.57 192.74,234.09 193.34,233.33C193.65,232.94 193.74,232.8 194.03,232.43C194.5,231.82 195.31,230.78 195.9,230C196.44,229.28 196.98,228.51 197.43,227.9C197.77,227.43 197.97,227.19 198.34,226.67C198.96,225.81 199.98,224.34 200.755,223.2C201.49,222.12 202.26,220.96 202.89,220C203.4,219.22 203.85,218.49 204.24,217.88C204.53,217.42 204.69,217.18 205.01,216.67C205.53,215.84 206.57,214.12 207.05,213.33C207.31,212.89 207.41,212.72 207.65,212.31C208.01,211.7 208.51,210.85 209,210C209.6,208.96 210.33,207.64 210.955,206.495C211.55,205.42 212.09,204.41 212.66,203.33C213.25,202.22 213.85,201.05 214.415,199.925C214.97,198.83 215.5,197.76 216.03,196.67C216.57,195.57 217.32,193.96 217.62,193.33C217.74,193.09 217.75,193.06 217.86,192.82C218.12,192.26 218.72,190.98 219.16,190C219.64,188.94 220.24,187.56 220.63,186.67C220.89,186.08 221.04,185.71 221.26,185.19C221.51,184.61 221.75,184.04 222.05,183.33C222.45,182.38 222.98,181.1 223.43,180C223.87,178.92 224.28,177.87 224.70999999999998,176.77499999999998C225.15,175.65 225.6,174.47 226.03,173.33C226.45,172.21 226.91,171 227.27,170C227.57,169.18 227.85,168.36 228.07,167.75C228.22,167.32 228.3,167.13 228.46,166.67C228.75,165.86 229.24,164.44 229.62,163.33C230,162.22 230.41,161 230.74,160C231.01,159.17 231.27,158.34 231.47,157.73C231.61,157.31 231.67,157.12 231.82,156.67C232.08,155.87 232.52,154.44 232.87,153.33C233.21,152.22 233.55,151.11 233.89,150C234.22,148.89 234.56,147.78 234.88,146.67C235.2,145.56 235.51,144.44 235.83,143.33C236.14,142.22 236.46,141.11 236.77,140C237.08,138.89 237.4,137.68 237.67,136.67C237.89,135.82 238.12,134.96 238.28,134.34C238.39,133.93 238.44,133.76 238.55,133.33C238.76,132.54 239.12,131.11 239.4,130C239.68,128.89 239.96,127.78 240.23,126.67C240.5,125.56 240.79,124.39 241.04,123.33C241.27,122.37 241.56,121.16 241.69,120.58C241.75,120.32 241.76,120.27 241.82,120C241.97,119.35 242.34,117.78 242.59,116.67C242.84,115.56 243.08,114.44 243.33,113.33C243.57,112.22 243.82,111.11 244.06,110C244.3,108.89 244.58,107.58 244.77,106.67C244.9,106.05 244.98,105.63 245.09,105.09C245.21,104.52 245.32,104.01 245.46,103.33C245.65,102.4 245.91,101.11 246.13,100C246.35,98.89 246.57,97.78 246.78,96.67C247,95.56 247.21,94.44 247.42,93.33C247.63,92.22 247.86,91.03 248.05,90C248.21,89.12 248.38,88.16 248.49,87.55C248.56,87.18 248.59,87.06 248.66,86.67C248.8,85.92 249.05,84.44 249.25,83.33C249.44,82.22 249.64,81.11 249.83,80C250.02,78.89 250.21,77.78 250.4,76.67C250.59,75.56 250.78,74.44 250.96,73.33C251.14,72.22 251.33,71.03 251.5,70C251.64,69.11 251.8,68.11 251.9,67.5C251.96,67.15 251.97,67.04 252.03,66.67C252.15,65.93 252.38,64.44 252.55,63.33C252.72,62.22 252.89,61.11 253.06,60C253.23,58.89 253.4,57.78 253.56,56.67C253.72,55.56 253.88,54.44 254.04,53.33C254.2,52.22 254.36,51.11 254.52,50C254.68,48.89 254.85,47.68 254.99,46.67C255.11,45.83 255.22,44.98 255.3,44.36C255.36,43.95 255.38,43.77 255.44,43.33C255.55,42.54 255.74,41.11 255.89,40C256.04,38.89 256.19,37.78 256.33,36.67C256.48,35.56 256.62,34.44 256.76,33.33C256.9,32.22 257.04,31.11 257.18,30C257.32,28.89 257.46,27.78 257.6,26.67C257.74,25.56 257.87,24.44 258,23.33C258.13,22.22 258.28,21.04 258.4,20C258.51,19.07 258.64,17.97 258.71,17.37C258.75,17.06 258.75,16.99 258.79,16.67C258.87,15.97 259.04,14.44 259.17,13.33C259.3,12.22 259.42,11.11 259.55,10C259.67,8.89 259.8,7.78 259.92,6.67C260.04,5.56 260.16,4.44 260.28,3.33Q260.4,2.22 260.63,0L337,0L337,330L0,330Z" style="stroke: none; fill: rgb(203, 205, 218);"/><path d="M0,330Q2.27,329.75 3.4,329.62C4.54,329.49 5.67,329.37 6.81,329.24C7.94,329.12 9.08,328.99 10.21,328.87C11.35,328.74 12.48,328.62 13.62,328.49C14.75,328.36 15.89,328.24 17.02,328.11C18.15,327.98 19.29,327.86 20.42,327.73C21.56,327.6 22.69,327.48 23.83,327.35C24.96,327.22 26.16,327.09 27.23,326.97C28.2,326.86 29.39,326.74 29.99,326.67C30.28,326.63 30.34,326.62 30.64,326.58C31.33,326.49 32.91,326.29 34.04,326.14C35.17,325.99 36.31,325.84 37.44,325.69C38.58,325.54 39.71,325.4 40.85,325.25C41.98,325.1 43.12,324.96 44.25,324.81C45.39,324.66 46.52,324.51 47.66,324.36C48.79,324.21 49.93,324.07 51.06,323.92C52.19,323.77 53.64,323.58 54.46,323.47C54.92,323.41 55.11,323.39 55.54,323.33C56.17,323.24 57.02,323.11 57.87,322.98C58.9,322.83 60.14,322.64 61.27,322.47C62.41,322.3 63.54,322.12 64.68,321.95C65.81,321.78 66.95,321.6 68.08,321.43C69.21,321.26 70.35,321.09 71.48,320.92C72.62,320.75 73.82,320.56 74.89,320.4C75.83,320.26 76.95,320.1 77.56,320C77.88,319.95 77.96,319.93 78.29,319.87C79.01,319.74 80.56,319.48 81.7,319.28C82.83,319.08 83.97,318.89 85.1,318.69C86.24,318.49 87.37,318.3 88.51,318.1C89.64,317.9 90.78,317.7 91.91,317.5C93.04,317.3 94.42,317.06 95.31,316.91C95.88,316.81 96.22,316.76 96.73,316.67C97.34,316.56 97.97,316.42 98.72,316.27C99.7,316.07 100.99,315.82 102.12,315.6C103.26,315.38 104.39,315.16 105.53,314.93C106.66,314.71 107.8,314.48 108.93,314.25C110.06,314.03 111.47,313.75 112.33,313.58C112.85,313.48 113.11,313.43 113.58,313.33C114.2,313.2 114.94,313.03 115.74,312.85C116.75,312.63 118.01,312.34 119.14,312.09C120.28,311.84 121.41,311.58 122.55,311.33C123.68,311.08 124.9,310.81 125.95,310.57C126.86,310.37 127.88,310.15 128.5,310C128.86,309.92 128.97,309.88 129.35,309.79C130.11,309.6 131.62,309.22 132.76,308.93C133.89,308.65 135.03,308.36 136.16,308.08C137.3,307.8 138.55,307.48 139.57,307.23C140.39,307.02 141.18,306.84 141.8,306.67C142.25,306.55 142.48,306.48 142.97,306.34C143.81,306.1 145.24,305.71 146.37,305.39C147.51,305.07 148.64,304.76 149.78,304.44C150.91,304.12 152.53,303.67 153.18,303.49C153.45,303.41 153.48,303.41 153.74,303.33C154.32,303.16 155.6,302.76 156.59,302.45C157.67,302.12 158.86,301.75 159.99,301.4C161.12,301.05 162.56,300.61 163.39,300.35C163.87,300.2 164.08,300.14 164.52,300C165.15,299.79 165.96,299.51 166.8,299.22C167.82,298.87 169.07,298.45 170.2,298.06C171.34,297.67 172.91,297.14 173.61,296.9C173.92,296.79 173.99,296.78 174.29,296.67C174.9,296.45 176.05,296.01 177.01,295.65C178.08,295.25 179.33,294.77 180.41,294.37C181.38,294 182.59,293.56 183.19,293.33C183.48,293.22 183.53,293.2 183.82,293.08C184.5,292.8 186.09,292.14 187.22,291.68C188.36,291.21 189.92,290.58 190.63,290.29C190.96,290.16 191.03,290.13 191.34,290C191.95,289.74 193.08,289.22 194.03,288.8C195.1,288.32 196.55,287.67 197.43,287.28C197.99,287.03 198.31,286.9 198.81,286.67C199.42,286.39 200.08,286.06 200.84,285.69C201.83,285.21 203.34,284.48 204.24,284.04C204.83,283.75 205.19,283.59 205.71,283.33C206.31,283.03 206.91,282.7 207.65,282.32C208.63,281.81 210.25,280.96 211.05,280.54C211.49,280.31 211.67,280.22 212.08,280C212.71,279.66 213.58,279.15 214.45,278.66C215.5,278.07 216.78,277.37 217.925,276.70500000000004C219.05,276.05 220.26,275.29 221.26,274.68C222.08,274.18 222.86,273.72 223.48,273.33C223.94,273.04 224.17,272.88 224.67,272.56C225.51,272.01 227.43,270.76 228.07,270.34C228.32,270.18 228.36,270.16 228.6,270C229.18,269.61 230.61,268.6 231.47,268C232.17,267.51 232.79,267.1 233.38,266.67C233.91,266.29 234.29,265.99 234.88,265.55C235.75,264.9 236.97,264.01 238.07,263.16499999999996C239.29,262.23 240.67,261.14 241.88,260.15C243,259.23 244.34,258.08 245.09,257.45C245.49,257.11 245.64,257 246.02,256.67C246.65,256.12 247.8,255.06 248.49,254.45C248.98,254.01 249.28,253.76 249.75,253.33C250.38,252.76 251.27,251.89 251.9,251.29C252.4,250.81 252.76,250.48 253.26,250C253.88,249.4 254.7,248.55 255.3,247.95C255.78,247.47 256.1,247.16 256.58,246.67C257.2,246.03 258.13,245.03 258.71,244.41C259.11,243.98 259.32,243.77 259.73,243.33C260.36,242.64 261.58,241.26 262.11,240.67C262.38,240.37 262.44,240.31 262.71,240C263.31,239.32 264.61,237.8 265.53,236.68C266.45,235.57 267.63,234.09 268.23,233.33C268.54,232.94 268.63,232.8 268.92,232.43C269.39,231.82 270.2,230.78 270.79,230C271.33,229.28 271.87,228.51 272.32,227.9C272.66,227.43 272.86,227.19 273.23,226.67C273.85,225.81 274.87,224.34 275.64,223.2C276.38,222.12 277.15,220.96 277.78,220C278.29,219.22 278.74,218.49 279.13,217.88C279.42,217.42 279.58,217.18 279.9,216.67C280.42,215.84 281.46,214.12 281.94,213.33C282.2,212.89 282.3,212.72 282.54,212.31C282.9,211.7 283.4,210.85 283.89,210C284.49,208.96 285.22,207.64 285.845,206.495C286.44,205.42 286.98,204.41 287.55,203.33C288.14,202.22 288.74,201.05 289.30499999999995,199.925C289.86,198.83 290.39,197.76 290.92,196.67C291.46,195.57 292.21,193.96 292.51,193.33C292.63,193.09 292.64,193.06 292.75,192.82C293.01,192.26 293.6,190.98 294.04,190C294.52,188.94 295.13,187.56 295.52,186.67C295.78,186.08 295.93,185.71 296.15,185.19C296.4,184.61 296.64,184.04 296.94,183.33C297.34,182.38 297.86,181.1 298.31,180C298.75,178.92 299.17,177.87 299.6,176.77499999999998C300.04,175.65 300.49,174.47 300.92,173.33C301.34,172.21 301.78,171 302.15,170C302.45,169.18 302.74,168.36 302.96,167.75C303.11,167.32 303.19,167.13 303.35,166.67C303.64,165.86 304.13,164.44 304.51,163.33C304.89,162.22 305.29,161 305.62,160C305.89,159.17 306.16,158.34 306.36,157.73C306.5,157.31 306.56,157.12 306.71,156.67C306.97,155.87 307.41,154.44 307.76,153.33C308.1,152.22 308.44,151.11 308.78,150C309.11,148.89 309.45,147.78 309.77,146.67C310.09,145.56 310.41,144.44 310.72,143.33C311.03,142.22 311.34,141.11 311.65,140C311.96,138.89 312.29,137.68 312.56,136.67C312.79,135.82 313.01,134.96 313.17,134.34C313.28,133.93 313.33,133.76 313.44,133.33C313.65,132.54 314.01,131.11 314.29,130C314.57,128.89 314.85,127.78 315.12,126.67C315.39,125.56 315.68,124.39 315.93,123.33C316.16,122.37 316.45,121.16 316.58,120.58C316.64,120.32 316.65,120.27 316.71,120C316.86,119.35 317.23,117.78 317.48,116.67C317.73,115.56 317.97,114.44 318.22,113.33C318.46,112.22 318.71,111.11 318.95,110C319.19,108.89 319.46,107.58 319.65,106.67C319.78,106.05 319.87,105.63 319.98,105.09C320.1,104.52 320.2,104.01 320.34,103.33C320.53,102.4 320.8,101.11 321.02,100C321.24,98.89 321.46,97.78 321.67,96.67C321.89,95.56 322.1,94.44 322.31,93.33C322.52,92.22 322.75,91.03 322.94,90C323.1,89.12 323.27,88.16 323.38,87.55C323.45,87.18 323.48,87.06 323.55,86.67C323.69,85.92 323.94,84.44 324.14,83.33C324.33,82.22 324.53,81.11 324.72,80C324.91,78.89 325.1,77.78 325.29,76.67C325.48,75.56 325.67,74.44 325.85,73.33C326.03,72.22 326.22,71.03 326.39,70C326.53,69.11 326.69,68.11 326.79,67.5C326.85,67.15 326.86,67.04 326.92,66.67C327.04,65.93 327.27,64.44 327.44,63.33C327.61,62.22 327.78,61.11 327.95,60C328.12,58.89 328.29,57.78 328.45,56.67C328.61,55.56 328.77,54.44 328.93,53.33C329.09,52.22 329.25,51.11 329.41,50C329.57,48.89 329.74,47.68 329.88,46.67C330,45.83 330.11,44.98 330.19,44.36C330.25,43.95 330.27,43.77 330.33,43.33C330.44,42.54 330.63,41.11 330.78,40C330.93,38.89 331.08,37.78 331.22,36.67C331.37,35.56 331.51,34.44 331.65,33.33C331.79,32.22 331.93,31.11 332.07,30C332.21,28.89 332.35,27.78 332.49,26.67C332.63,25.56 332.76,24.44 332.89,23.33C333.02,22.22 333.17,21.04 333.29,20C333.4,19.07 333.53,17.97 333.6,17.37C333.64,17.06 333.64,16.99 333.68,16.67C333.76,15.97 333.93,14.44 334.06,13.33C334.19,12.22 334.31,11.11 334.44,10C334.56,8.89 334.69,7.78 334.81,6.67C334.93,5.56 335.05,4.44 335.17,3.33Q335.29,2.22 335.52,0L337,0L337,330Z" style="stroke: none; fill: rgb(216, 197, 201);"/><path d="M74.89,330Q77.16,329.75 78.29,329.62C79.43,329.49 80.56,329.37 81.7,329.24C82.83,329.12 83.97,328.99 85.1,328.87C86.24,328.74 87.37,328.62 88.51,328.49C89.64,328.36 90.78,328.24 91.91,328.11C93.04,327.98 94.18,327.86 95.31,327.73C96.45,327.6 97.58,327.48 98.72,327.35C99.85,327.22 101.05,327.09 102.12,326.97C103.09,326.86 104.28,326.74 104.88,326.67C105.17,326.63 105.23,326.62 105.53,326.58C106.22,326.49 107.8,326.29 108.93,326.14C110.06,325.99 111.2,325.84 112.33,325.69C113.47,325.54 114.6,325.4 115.74,325.25C116.87,325.1 118.01,324.96 119.14,324.81C120.28,324.66 121.41,324.51 122.55,324.36C123.68,324.21 124.82,324.07 125.95,323.92C127.08,323.77 128.53,323.58 129.35,323.47C129.81,323.41 130,323.39 130.43,323.33C131.06,323.24 131.91,323.11 132.76,322.98C133.79,322.83 135.03,322.64 136.16,322.47C137.3,322.3 138.43,322.12 139.57,321.95C140.7,321.78 141.84,321.6 142.97,321.43C144.1,321.26 145.24,321.09 146.37,320.92C147.51,320.75 148.71,320.56 149.78,320.4C150.72,320.26 151.84,320.1 152.45,320C152.77,319.95 152.85,319.93 153.18,319.87C153.9,319.74 155.45,319.48 156.59,319.28C157.72,319.08 158.86,318.89 159.99,318.69C161.12,318.49 162.26,318.3 163.39,318.1C164.53,317.9 165.66,317.7 166.8,317.5C167.93,317.3 169.31,317.06 170.2,316.91C170.77,316.81 171.11,316.76 171.62,316.67C172.23,316.56 172.86,316.42 173.61,316.27C174.59,316.07 175.88,315.82 177.01,315.6C178.14,315.38 179.28,315.15 180.41,314.93C181.55,314.7 182.68,314.48 183.82,314.25C184.95,314.03 186.36,313.75 187.22,313.58C187.74,313.48 188,313.43 188.47,313.33C189.09,313.2 189.83,313.03 190.63,312.85C191.64,312.63 192.9,312.34 194.03,312.09C195.16,311.84 196.3,311.58 197.43,311.33C198.57,311.08 199.79,310.81 200.84,310.57C201.75,310.37 202.77,310.15 203.39,310C203.75,309.92 203.86,309.88 204.24,309.79C205,309.6 206.51,309.22 207.65,308.93C208.78,308.65 209.92,308.36 211.05,308.08C212.18,307.8 213.43,307.48 214.45,307.23C215.27,307.02 216.06,306.84 216.69,306.67C217.14,306.55 217.37,306.48 217.86,306.34C218.7,306.1 220.13,305.71 221.26,305.39C222.4,305.07 223.53,304.76 224.67,304.44C225.8,304.12 227.42,303.67 228.07,303.49C228.34,303.41 228.37,303.41 228.63,303.33C229.21,303.16 230.48,302.76 231.47,302.45C232.55,302.11 233.74,301.75 234.88,301.4C236.01,301.05 237.45,300.61 238.28,300.35C238.76,300.2 238.97,300.14 239.41,300C240.04,299.79 240.85,299.51 241.69,299.22C242.71,298.87 243.96,298.45 245.09,298.06C246.22,297.67 247.79,297.14 248.49,296.9C248.81,296.79 248.88,296.78 249.18,296.67C249.79,296.45 250.94,296.01 251.9,295.65C252.97,295.25 254.22,294.77 255.3,294.37C256.27,294 257.48,293.56 258.08,293.33C258.37,293.22 258.42,293.2 258.71,293.08C259.39,292.8 260.98,292.14 262.11,291.68C263.25,291.21 264.81,290.58 265.52,290.29C265.84,290.16 265.91,290.13 266.22,290C266.83,289.74 267.97,289.22 268.92,288.8C269.99,288.32 271.44,287.67 272.32,287.28C272.88,287.03 273.2,286.9 273.7,286.67C274.31,286.39 274.97,286.06 275.73,285.69C276.72,285.21 278.23,284.48 279.13,284.04C279.72,283.75 280.08,283.59 280.6,283.33C281.2,283.03 281.8,282.7 282.54,282.32C283.52,281.81 285.14,280.96 285.94,280.54C286.38,280.31 286.56,280.22 286.97,280C287.6,279.66 288.47,279.15 289.34,278.66C290.39,278.07 291.67,277.37 292.81,276.70500000000004C293.94,276.04 295.15,275.29 296.15,274.68C296.97,274.18 297.75,273.72 298.37,273.33C298.83,273.04 299.06,272.88 299.56,272.56C300.4,272.01 302.32,270.76 302.96,270.34C303.21,270.18 303.25,270.16 303.49,270C304.07,269.61 305.5,268.6 306.36,268C307.06,267.51 307.68,267.1 308.27,266.67C308.8,266.29 309.18,265.99 309.77,265.55C310.64,264.9 311.86,264.01 312.96000000000004,263.16499999999996C314.18,262.23 315.56,261.14 316.77,260.15C317.89,259.23 319.23,258.08 319.98,257.45C320.38,257.11 320.53,257 320.91,256.67C321.54,256.12 322.7,255.06 323.38,254.45C323.87,254.01 324.16,253.76 324.63,253.33C325.26,252.75 326.15,251.89 326.79,251.29C327.3,250.81 327.65,250.48 328.15,250C328.77,249.4 329.59,248.55 330.19,247.95C330.67,247.47 330.99,247.16 331.47,246.67C332.09,246.03 333.02,245.03 333.6,244.41C334,243.98 334.2,243.77 334.61,243.33Q335.24,242.64 337,240.67L337,330Z" style="stroke: none; fill: rgb(207, 149, 160);"/><path d="M149.78,330Q152.05,329.75 153.18,329.62C154.32,329.49 155.45,329.37 156.59,329.24C157.72,329.12 158.86,328.99 159.99,328.87C161.12,328.74 162.26,328.62 163.39,328.49C164.53,328.36 165.66,328.24 166.8,328.11C167.93,327.98 169.07,327.86 170.2,327.73C171.34,327.6 172.47,327.48 173.61,327.35C174.74,327.22 175.94,327.09 177.01,326.97C177.98,326.86 179.17,326.74 179.77,326.67C180.06,326.63 180.11,326.62 180.41,326.58C181.1,326.49 182.68,326.29 183.82,326.14C184.95,325.99 186.09,325.84 187.22,325.69C188.36,325.54 189.49,325.4 190.63,325.25C191.76,325.1 192.9,324.96 194.03,324.81C195.16,324.66 196.3,324.51 197.43,324.36C198.57,324.21 199.7,324.07 200.84,323.92C201.97,323.77 203.42,323.58 204.24,323.47C204.7,323.41 204.89,323.39 205.32,323.33C205.95,323.24 206.8,323.11 207.65,322.98C208.68,322.83 209.92,322.64 211.05,322.47C212.18,322.3 213.32,322.12 214.45,321.95C215.59,321.78 216.72,321.6 217.86,321.43C218.99,321.26 220.13,321.09 221.26,320.92C222.4,320.75 223.6,320.56 224.67,320.4C225.61,320.26 226.72,320.1 227.33,320C227.65,319.95 227.73,319.93 228.07,319.87C228.79,319.74 230.34,319.48 231.47,319.28C232.61,319.08 233.74,318.89 234.88,318.69C236.01,318.49 237.15,318.3 238.28,318.1C239.42,317.9 240.55,317.7 241.69,317.5C242.82,317.3 244.2,317.06 245.09,316.91C245.66,316.81 246,316.76 246.51,316.67C247.12,316.56 247.74,316.42 248.49,316.27C249.47,316.07 250.76,315.82 251.9,315.6C253.03,315.38 254.17,315.15 255.3,314.93C256.44,314.7 257.57,314.48 258.71,314.25C259.84,314.03 261.25,313.75 262.11,313.58C262.63,313.48 262.89,313.43 263.36,313.33C263.98,313.2 264.72,313.03 265.52,312.85C266.53,312.63 267.79,312.34 268.92,312.09C270.05,311.84 271.19,311.58 272.32,311.33C273.46,311.08 274.68,310.81 275.73,310.57C276.64,310.37 277.66,310.15 278.28,310C278.64,309.92 278.75,309.88 279.13,309.79C279.89,309.6 281.4,309.22 282.54,308.93C283.67,308.65 284.81,308.36 285.94,308.08C287.07,307.8 288.32,307.48 289.34,307.23C290.16,307.02 290.95,306.84 291.58,306.67C292.03,306.55 292.26,306.48 292.75,306.34C293.59,306.1 295.02,305.71 296.15,305.39C297.29,305.07 298.42,304.76 299.56,304.44C300.69,304.12 302.31,303.67 302.96,303.49C303.23,303.41 303.26,303.41 303.52,303.33C304.1,303.16 305.37,302.76 306.36,302.45C307.44,302.11 308.63,301.75 309.77,301.4C310.9,301.05 312.34,300.61 313.17,300.35C313.65,300.2 313.86,300.14 314.3,300C314.93,299.79 315.74,299.51 316.58,299.22C317.6,298.87 318.85,298.45 319.98,298.06C321.11,297.67 322.68,297.14 323.38,296.9C323.7,296.79 323.77,296.78 324.07,296.67C324.68,296.45 325.83,296.01 326.79,295.65C327.86,295.25 329.11,294.77 330.19,294.37C331.16,294 332.37,293.56 332.97,293.33C333.26,293.22 333.31,293.2 333.6,293.08Q334.28,292.8 337,291.68L337,330Z" style="stroke: none; fill: rgb(198, 100, 119);"/><path d="M224.67,330Q226.94,329.75 228.07,329.62C229.2,329.49 230.34,329.36 231.47,329.24C232.61,329.11 233.74,329 234.88,328.87C236.01,328.75 237.15,328.62 238.28,328.49C239.42,328.36 240.55,328.24 241.69,328.11C242.82,327.98 243.96,327.86 245.09,327.73C246.22,327.6 247.36,327.48 248.49,327.35C249.63,327.22 250.82,327.09 251.9,326.97C252.87,326.86 254.06,326.74 254.66,326.67C254.95,326.63 255,326.62 255.3,326.58C255.99,326.49 257.57,326.29 258.71,326.14C259.84,325.99 260.98,325.84 262.11,325.69C263.25,325.54 264.38,325.4 265.52,325.25C266.65,325.1 267.79,324.96 268.92,324.81C270.05,324.66 271.19,324.51 272.32,324.36C273.46,324.21 274.59,324.07 275.73,323.92C276.86,323.77 278.31,323.58 279.13,323.47C279.59,323.41 279.78,323.39 280.21,323.33C280.84,323.24 281.69,323.11 282.54,322.98C283.57,322.83 284.81,322.64 285.94,322.47C287.07,322.3 288.21,322.12 289.34,321.95C290.48,321.78 291.61,321.6 292.75,321.43C293.88,321.26 295.02,321.09 296.15,320.92C297.29,320.75 298.49,320.56 299.56,320.4C300.5,320.26 301.61,320.1 302.22,320C302.54,319.95 302.62,319.93 302.96,319.87C303.68,319.74 305.23,319.48 306.36,319.28C307.5,319.08 308.63,318.89 309.77,318.69C310.9,318.49 312.04,318.3 313.17,318.1C314.31,317.9 315.44,317.7 316.58,317.5C317.71,317.3 319.09,317.06 319.98,316.91C320.55,316.81 320.89,316.76 321.4,316.67C322.01,316.56 322.63,316.42 323.38,316.27C324.36,316.07 325.65,315.82 326.79,315.6C327.92,315.38 329.06,315.15 330.19,314.93C331.33,314.7 332.46,314.48 333.6,314.25Q334.73,314.03 337,313.58L337,330Z" style="stroke: none; fill: rgb(189, 52, 79);"/><path d="M299.56,330Q301.83,329.75 302.96,329.62C304.09,329.49 305.23,329.36 306.36,329.24C307.5,329.11 308.63,329 309.77,328.87C310.9,328.75 312.04,328.62 313.17,328.49C314.31,328.36 315.44,328.24 316.58,328.11C317.71,327.98 318.85,327.86 319.98,327.73C321.11,327.6 322.25,327.48 323.38,327.35C324.52,327.22 325.71,327.09 326.79,326.97C327.76,326.86 328.95,326.74 329.55,326.67C329.84,326.63 329.89,326.62 330.19,326.58C330.88,326.49 332.46,326.29 333.6,326.14Q334.73,325.99 337,325.69L337,330Z" style="stroke: none; fill: rgb(180, 4, 38);"/></g><g class="contourlines"/></g></g></g></g><path class="xlines-above crisp" d="M0,0" style="fill: none;"/><path class="ylines-above crisp" d="M0,0" style="fill: none;"/><g class="overlines-above"/><g class="xaxislayer-above"><g class="xtick"><text text-anchor="middle" x="0" y="365" transform="translate(50,0)" style="font-family: 'Open Sans', verdana, arial, sans-serif; font-size: 14px; fill: rgb(0, 0, 0); fill-opacity: 1; white-space: pre; opacity: 1;">0</text></g><g class="xtick"><text text-anchor="middle" x="0" y="365" style="font-family: 'Open Sans', verdana, arial, sans-serif; font-size: 14px; fill: rgb(0, 0, 0); fill-opacity: 1; white-space: pre; opacity: 1;" transform="translate(87.44,0)">0.1</text></g><g class="xtick"><text text-anchor="middle" x="0" y="365" style="font-family: 'Open Sans', verdana, arial, sans-serif; font-size: 14px; fill: rgb(0, 0, 0); fill-opacity: 1; white-space: pre; opacity: 1;" transform="translate(124.89,0)">0.2</text></g><g class="xtick"><text text-anchor="middle" x="0" y="365" style="font-family: 'Open Sans', verdana, arial, sans-serif; font-size: 14px; fill: rgb(0, 0, 0); fill-opacity: 1; white-space: pre; opacity: 1;" transform="translate(162.32999999999998,0)">0.3</text></g><g class="xtick"><text text-anchor="middle" x="0" y="365" style="font-family: 'Open Sans', verdana, arial, sans-serif; font-size: 14px; fill: rgb(0, 0, 0); fill-opacity: 1; white-space: pre; opacity: 1;" transform="translate(199.78,0)">0.4</text></g><g class="xtick"><text text-anchor="middle" x="0" y="365" style="font-family: 'Open Sans', verdana, arial, sans-serif; font-size: 14px; fill: rgb(0, 0, 0); fill-opacity: 1; white-space: pre; opacity: 1;" transform="translate(237.22,0)">0.5</text></g><g class="xtick"><text text-anchor="middle" x="0" y="365" style="font-family: 'Open Sans', verdana, arial, sans-serif; font-size: 14px; fill: rgb(0, 0, 0); fill-opacity: 1; white-space: pre; opacity: 1;" transform="translate(274.66999999999996,0)">0.6</text></g><g class="xtick"><text text-anchor="middle" x="0" y="365" style="font-family: 'Open Sans', verdana, arial, sans-serif; font-size: 14px; fill: rgb(0, 0, 0); fill-opacity: 1; white-space: pre; opacity: 1;" transform="translate(312.11,0)">0.7</text></g><g class="xtick"><text text-anchor="middle" x="0" y="365" style="font-family: 'Open Sans', verdana, arial, sans-serif; font-size: 14px; fill: rgb(0, 0, 0); fill-opacity: 1; white-space: pre; opacity: 1;" transform="translate(349.56,0)">0.8</text></g><g class="xtick"><text text-anchor="middle" x="0" y="365" style="font-family: 'Open Sans', verdana, arial, sans-serif; font-size: 14px; fill: rgb(0, 0, 0); fill-opacity: 1; white-space: pre; opacity: 1;" transform="translate(387,0)">0.9</text></g></g><g class="yaxislayer-above"><g class="ytick"><text text-anchor="end" x="49" y="4.8999999999999995" transform="translate(0,350)" style="font-family: 'Open Sans', verdana, arial, sans-serif; font-size: 14px; fill: rgb(0, 0, 0); fill-opacity: 1; white-space: pre; opacity: 1;">0</text></g><g class="ytick"><text text-anchor="end" x="49" y="4.8999999999999995" style="font-family: 'Open Sans', verdana, arial, sans-serif; font-size: 14px; fill: rgb(0, 0, 0); fill-opacity: 1; white-space: pre; opacity: 1;" transform="translate(0,284)">0.05</text></g><g class="ytick"><text text-anchor="end" x="49" y="4.8999999999999995" style="font-family: 'Open Sans', verdana, arial, sans-serif; font-size: 14px; fill: rgb(0, 0, 0); fill-opacity: 1; white-space: pre; opacity: 1;" transform="translate(0,218)">0.1</text></g><g class="ytick"><text text-anchor="end" x="49" y="4.8999999999999995" style="font-family: 'Open Sans', verdana, arial, sans-serif; font-size: 14px; fill: rgb(0, 0, 0); fill-opacity: 1; white-space: pre; opacity: 1;" transform="translate(0,152)">0.15</text></g><g class="ytick"><text text-anchor="end" x="49" y="4.8999999999999995" style="font-family: 'Open Sans', verdana, arial, sans-serif; font-size: 14px; fill: rgb(0, 0, 0); fill-opacity: 1; white-space: pre; opacity: 1;" transform="translate(0,86)">0.2</text></g><g class="ytick"><text text-anchor="end" x="49" y="4.8999999999999995" style="font-family: 'Open Sans', verdana, arial, sans-serif; font-size: 14px; fill: rgb(0, 0, 0); fill-opacity: 1; white-space: pre; opacity: 1;" transform="translate(0,20)">0.25</text></g></g><g class="overaxes-above"/></g></g><g class="polarlayer"/><g class="smithlayer"/><g class="ternarylayer"/><g class="geolayer"/><g class="funnelarealayer"/><g class="pielayer"/><g class="iciclelayer"/><g class="treemaplayer"/><g class="sunburstlayer"/><g class="glimages"/><defs id="topdefs-46bb59"><g class="clips"/></defs><g class="layer-above"><g class="imagelayer"/><g class="shapelayer"/></g><g class="infolayer"><g class="cb0b338c colorbar" transform="translate(50,20)"><rect class="cbbg" x="344" y="0" width="106.046875" height="330" style="fill: rgb(0, 0, 0); fill-opacity: 0; stroke: rgb(68, 68, 68); stroke-opacity: 1; stroke-width: 0;"/><g class="cbfills" transform="translate(0,10)"><rect class="cbfill" style="" x="354" y="1" width="30" height="309" fill="#3a4cc0"/><rect class="cbfill" style="" x="354" y="1" width="30" height="292" fill="#5e6cc6"/><rect class="cbfill" style="" x="354" y="1" width="30" height="257" fill="#828ccd"/><rect class="cbfill" style="" x="354" y="1" width="30" height="223" fill="#a7add3"/><rect class="cbfill" style="" x="354" y="1" width="30" height="188" fill="#cbcdda"/><rect class="cbfill" style="" x="354" y="1" width="30" height="154" fill="#d8c5c9"/><rect class="cbfill" style="" x="354" y="1" width="30" height="120" fill="#cf95a0"/><rect class="cbfill" style="" x="354" y="1" width="30" height="85" fill="#c66477"/><rect class="cbfill" style="" x="354" y="1" width="30" height="51" fill="#bd344f"/><rect class="cbfill" style="" x="354" y="0" width="30" height="17" fill="#b40426"/></g><g class="cblines" transform="translate(0,10)"/><g class="cbaxis crisp" transform="translate(0,-20)"><g class="ycb0b338ctick"><text text-anchor="start" x="387.3" y="4.8999999999999995" transform="translate(0,322.78)" style="font-family: 'Open Sans', verdana, arial, sans-serif; font-size: 14px; fill: rgb(0, 0, 0); fill-opacity: 1; white-space: pre; opacity: 1;">−0.8</text></g><g class="ycb0b338ctick"><text text-anchor="start" x="387.3" y="4.8999999999999995" style="font-family: 'Open Sans', verdana, arial, sans-serif; font-size: 14px; fill: rgb(0, 0, 0); fill-opacity: 1; white-space: pre; opacity: 1;" transform="translate(0,288.33)">−0.6</text></g><g class="ycb0b338ctick"><text text-anchor="start" x="387.3" y="4.8999999999999995" style="font-family: 'Open Sans', verdana, arial, sans-serif; font-size: 14px; fill: rgb(0, 0, 0); fill-opacity: 1; white-space: pre; opacity: 1;" transform="translate(0,253.89)">−0.4</text></g><g class="ycb0b338ctick"><text text-anchor="start" x="387.3" y="4.8999999999999995" style="font-family: 'Open Sans', verdana, arial, sans-serif; font-size: 14px; fill: rgb(0, 0, 0); fill-opacity: 1; white-space: pre; opacity: 1;" transform="translate(0,219.44)">−0.2</text></g><g class="ycb0b338ctick"><text text-anchor="start" x="387.3" y="4.8999999999999995" style="font-family: 'Open Sans', verdana, arial, sans-serif; font-size: 14px; fill: rgb(0, 0, 0); fill-opacity: 1; white-space: pre; opacity: 1;" transform="translate(0,185)">0</text></g><g class="ycb0b338ctick"><text text-anchor="start" x="387.3" y="4.8999999999999995" style="font-family: 'Open Sans', verdana, arial, sans-serif; font-size: 14px; fill: rgb(0, 0, 0); fill-opacity: 1; white-space: pre; opacity: 1;" transform="translate(0,150.56)">0.2</text></g><g class="ycb0b338ctick"><text text-anchor="start" x="387.3" y="4.8999999999999995" style="font-family: 'Open Sans', verdana, arial, sans-serif; font-size: 14px; fill: rgb(0, 0, 0); fill-opacity: 1; white-space: pre; opacity: 1;" transform="translate(0,116.10999999999999)">0.4</text></g><g class="ycb0b338ctick"><text text-anchor="start" x="387.3" y="4.8999999999999995" style="font-family: 'Open Sans', verdana, arial, sans-serif; font-size: 14px; fill: rgb(0, 0, 0); fill-opacity: 1; white-space: pre; opacity: 1;" transform="translate(0,81.66999999999999)">0.6</text></g><g class="ycb0b338ctick"><text text-anchor="start" x="387.3" y="4.8999999999999995" style="font-family: 'Open Sans', verdana, arial, sans-serif; font-size: 14px; fill: rgb(0, 0, 0); fill-opacity: 1; white-space: pre; opacity: 1;" transform="translate(0,47.21999999999999)">0.8</text></g></g><g class="cbtitleunshift" transform="translate(-50,-20)"><g class="cbtitle" transform="translate(24.306640625,0)"><text class="hycb0b338ctitle" transform="rotate(-90,460.73999999999995,185)" x="460.73999999999995" y="185" text-anchor="middle" style="opacity: 1; font-family: 'Open Sans', verdana, arial, sans-serif; font-size: 17px; fill: rgb(0, 0, 0); fill-opacity: 1; white-space: pre;">Netto growth rate [1/h]</text></g></g><rect class="cboutline" x="354" y="10" width="30" height="310" style="stroke: rgb(68, 68, 68); stroke-opacity: 1; fill: none; stroke-width: 0;"/></g><g class="g-gtitle"><text class="gtitle" x="25" y="10" text-anchor="start" dy="0em" style="opacity: 1; font-family: 'Open Sans', verdana, arial, sans-serif; font-size: 14px; fill: rgb(0, 0, 0); fill-opacity: 1; white-space: pre;">J = -1 1/h</text></g><g class="g-xtitle" transform="translate(0,5.699999999999989)"><text class="xtitle" x="218.5" y="378.3" text-anchor="middle" style="opacity: 1; font-family: 'Open Sans', verdana, arial, sans-serif; font-size: 14px; fill: rgb(0, 0, 0); fill-opacity: 1; white-space: pre;">Per capita growth rate µ [1/h]</text></g><g class="g-ytitle"><text class="ytitle" transform="rotate(-90,16.85,185)" x="16.85" y="185" text-anchor="middle" style="opacity: 1; font-family: 'Open Sans', verdana, arial, sans-serif; font-size: 14px; fill: rgb(0, 0, 0); fill-opacity: 1; white-space: pre;">Cefotaxime concentration μg/mL</text></g></g></svg>