<svg class="main-svg" xmlns="http://www.w3.org/2000/svg" xmlns:xlink="http://www.w3.org/1999/xlink" width="150" height="150" style="" viewBox="0 0 150 150"><rect x="0" y="0" width="150" height="150" style="fill: rgb(255, 255, 255); fill-opacity: 1;"/><defs id="defs-861b2e"><g class="clips"><clipPath id="clip861b2exyplot" class="plotclip"><rect width="103" height="105"/></clipPath><clipPath class="axesclip" id="clip861b2ex"><rect x="36" y="0" width="103" height="150"/></clipPath><clipPath class="axesclip" id="clip861b2ey"><rect x="0" y="11" width="150" height="105"/></clipPath><clipPath class="axesclip" id="clip861b2exy"><rect x="36" y="11" width="103" height="105"/></clipPath><clipPath class="contourclip" id="clipa0c8a6"><path d="M0,0L103,0L103,105L0,105Z"/></clipPath></g><g class="gradients"/><g class="patterns"/></defs><g class="bglayer"/><g class="layer-below"><g class="imagelayer"/><g class="shapelayer"/></g><g class="cartesianlayer"><g class="subplot xy"><g class="layer-subplot"><g class="shapelayer"/><g class="imagelayer"/></g><g class="minor-gridlayer"><g class="x"/><g class="y"/></g><g class="gridlayer"><g class="x"><path class="xgrid crisp" transform="translate(78.92,0)" d="M0,11v105" style="stroke: rgb(128, 128, 128); stroke-opacity: 1; stroke-width: 0.2px;"/><path class="xgrid crisp" transform="translate(121.83,0)" d="M0,11v105" style="stroke: rgb(128, 128, 128); stroke-opacity: 1; stroke-width: 0.2px;"/></g><g class="y"><path class="ygrid crisp" transform="translate(0,74)" d="M36,0h103" style="stroke: rgb(128, 128, 128); stroke-opacity: 1; stroke-width: 0.2px;"/><path class="ygrid crisp" transform="translate(0,32)" d="M36,0h103" style="stroke: rgb(128, 128, 128); stroke-opacity: 1; stroke-width: 0.2px;"/></g></g><g class="zerolinelayer"/><g class="layer-between"><g class="shapelayer"/><g class="imagelayer"/></g><path class="xlines-below"/><path class="ylines-below"/><g class="overlines-below"/><g class="xaxislayer-below"/><g class="yaxislayer-below"/><g class="overaxes-below"/><g class="overplot"><g class="xy" transform="translate(36,11)" clip-path="url(#clip861b2exyplot)"><g class="contourlayer mlayer"><g class="contour" clip-path="url(#clipa0c8a6)" style="opacity: 1;"><g class="heatmapcoloring"/><g class="contourbg"><path d="M0,0L103,0L103,105L0,105Z" style="stroke: none; fill: rgb(59, 76, 192);"/></g><g class="contourfill"><path d="M0,56.28Q0.21,55.52 0.31,55.15C0.41,54.79 0.51,54.44 0.6,54.09C0.69,53.74 0.79,53.34 0.87,53.03C0.93,52.78 0.99,52.54 1.04,52.35C1.08,52.21 1.09,52.13 1.13,51.97C1.19,51.71 1.3,51.26 1.39,50.91C1.47,50.56 1.56,50.2 1.64,49.85C1.72,49.5 1.8,49.14 1.88,48.79C1.95,48.46 2.02,48.15 2.0949999999999998,47.805C2.17,47.44 2.26,47.04 2.34,46.67C2.42,46.31 2.49,45.96 2.56,45.61C2.63,45.26 2.7,44.9 2.77,44.55C2.84,44.19 2.92,43.8 2.98,43.48C3.03,43.21 3.08,42.94 3.12,42.74C3.14,42.61 3.15,42.56 3.18,42.42C3.23,42.17 3.31,41.71 3.38,41.36C3.44,41.01 3.51,40.65 3.57,40.3C3.63,39.95 3.69,39.59 3.75,39.24C3.81,38.89 3.87,38.53 3.93,38.18C3.99,37.83 4.07,37.37 4.11,37.12C4.13,36.98 4.14,36.92 4.16,36.79C4.19,36.59 4.24,36.33 4.28,36.06C4.33,35.74 4.39,35.35 4.45,35C4.5,34.65 4.56,34.29 4.61,33.94C4.66,33.59 4.72,33.23 4.77,32.88C4.82,32.53 4.87,32.17 4.92,31.82C4.97,31.47 5.02,31.11 5.07,30.76C5.12,30.42 5.16,30.09 5.21,29.75C5.26,29.39 5.31,29.01 5.36,28.64C5.41,28.28 5.45,27.93 5.5,27.58C5.55,27.23 5.6,26.87 5.64,26.52C5.69,26.16 5.73,25.81 5.77,25.45C5.81,25.1 5.86,24.74 5.9,24.39C5.94,24.04 5.99,23.68 6.03,23.33C6.07,22.98 6.11,22.6 6.15,22.27C6.18,21.99 6.22,21.67 6.24,21.48C6.25,21.37 6.26,21.33 6.27,21.21C6.3,20.97 6.35,20.5 6.39,20.15C6.43,19.8 6.47,19.44 6.51,19.09C6.55,18.74 6.58,18.38 6.62,18.03C6.66,17.68 6.69,17.32 6.73,16.97C6.77,16.62 6.8,16.26 6.84,15.91C6.88,15.56 6.91,15.2 6.95,14.85C6.99,14.5 7.02,14.14 7.06,13.79C7.09,13.44 7.13,13.08 7.16,12.73C7.19,12.38 7.24,11.91 7.26,11.67C7.27,11.55 7.27,11.51 7.28,11.4C7.3,11.21 7.33,10.89 7.36,10.61C7.39,10.28 7.42,9.9 7.45,9.55C7.48,9.19 7.52,8.84 7.55,8.48C7.58,8.13 7.61,7.77 7.64,7.42C7.67,7.07 7.7,6.71 7.73,6.36C7.76,6.01 7.79,5.65 7.82,5.3C7.85,4.95 7.88,4.59 7.91,4.24C7.94,3.89 7.97,3.53 8,3.18C8.03,2.83 8.05,2.47 8.08,2.12C8.11,1.77 8.13,1.41 8.16,1.06Q8.19,0.71 8.24,0L103,0L103,105L0,105Z" style="stroke: none; fill: rgb(95, 118, 203);"/><path d="M0,86.72Q0.73,86.07 0.9,85.91C0.97,85.85 0.97,85.84 1.04,85.77C1.22,85.59 1.71,85.14 2.04,84.805C2.38,84.46 2.74,84.09 3.075,83.73500000000001C3.39,83.4 3.81,82.94 3.99,82.73C4.07,82.64 4.08,82.62 4.16,82.53C4.32,82.34 4.71,81.9 4.9,81.67C5.02,81.52 5.08,81.43 5.2,81.29C5.36,81.1 5.57,80.84 5.75,80.61C5.92,80.39 6.1,80.15 6.24,79.96C6.36,79.81 6.43,79.72 6.55,79.55C6.75,79.28 7.05,78.86 7.300000000000001,78.505C7.55,78.15 7.85,77.7 8.04,77.42C8.16,77.24 8.22,77.14 8.32,76.98C8.44,76.79 8.57,76.59 8.72,76.36C8.91,76.06 9.15,75.66 9.364999999999998,75.305C9.58,74.95 9.81,74.57 9.99,74.24C10.14,73.97 10.29,73.69 10.4,73.49C10.47,73.36 10.5,73.31 10.57,73.18C10.7,72.93 10.97,72.43 11.13,72.12C11.25,71.89 11.35,71.69 11.44,71.5C11.52,71.34 11.57,71.24 11.66,71.06C11.8,70.78 12.02,70.31 12.17,70C12.29,69.75 12.39,69.51 12.48,69.32C12.55,69.17 12.59,69.1 12.66,68.94C12.78,68.68 12.98,68.23 13.13,67.88C13.28,67.54 13.41,67.22 13.55,66.88C13.7,66.52 13.85,66.13 14,65.76C14.14,65.4 14.3,64.97 14.41,64.7C14.48,64.53 14.51,64.44 14.57,64.29C14.64,64.1 14.72,63.88 14.81,63.64C14.92,63.33 15.06,62.94 15.19,62.58C15.32,62.21 15.46,61.8 15.58,61.435C15.69,61.09 15.79,60.78 15.9,60.45C16.01,60.1 16.13,59.74 16.24,59.39C16.35,59.04 16.5,58.56 16.57,58.33C16.61,58.21 16.62,58.18 16.65,58.07C16.71,57.88 16.8,57.56 16.88,57.27C16.98,56.94 17.09,56.56 17.19,56.21C17.29,55.86 17.39,55.48 17.48,55.15C17.56,54.87 17.64,54.56 17.69,54.37C17.72,54.25 17.73,54.21 17.76,54.09C17.82,53.85 17.95,53.38 18.04,53.03C18.13,52.68 18.21,52.32 18.3,51.97C18.39,51.62 18.48,51.23 18.56,50.91C18.62,50.65 18.68,50.39 18.73,50.19C18.76,50.06 18.78,49.99 18.81,49.85C18.87,49.59 18.97,49.14 19.05,48.79C19.13,48.44 19.2,48.08 19.28,47.73C19.36,47.38 19.43,47.02 19.51,46.67C19.58,46.32 19.69,45.83 19.73,45.61C19.75,45.51 19.75,45.49 19.77,45.4C19.81,45.21 19.88,44.85 19.94,44.55C20.01,44.21 20.08,43.84 20.15,43.48C20.22,43.13 20.28,42.77 20.35,42.42C20.41,42.07 20.48,41.71 20.54,41.36C20.6,41.01 20.68,40.57 20.73,40.3C20.76,40.13 20.78,40.03 20.81,39.88C20.84,39.69 20.88,39.48 20.92,39.24C20.97,38.93 21.04,38.53 21.1,38.18C21.16,37.83 21.21,37.47 21.27,37.12C21.33,36.77 21.39,36.41 21.45,36.06C21.51,35.71 21.56,35.35 21.61,35C21.66,34.65 21.73,34.23 21.77,33.94C21.8,33.74 21.82,33.61 21.85,33.44C21.88,33.26 21.9,33.1 21.93,32.88C21.97,32.58 22.04,32.17 22.09,31.82C22.14,31.47 22.19,31.11 22.24,30.76C22.29,30.41 22.33,30.05 22.38,29.7C22.43,29.35 22.48,28.99 22.53,28.64C22.58,28.29 22.62,27.93 22.67,27.58C22.71,27.23 22.76,26.84 22.8,26.52C22.83,26.27 22.86,26.03 22.89,25.83C22.91,25.68 22.92,25.61 22.94,25.45C22.97,25.19 23.03,24.74 23.07,24.39C23.11,24.04 23.15,23.68 23.19,23.33C23.23,22.98 23.28,22.62 23.32,22.27C23.36,21.92 23.4,21.56 23.44,21.21C23.48,20.86 23.52,20.5 23.56,20.15C23.6,19.8 23.64,19.44 23.68,19.09C23.72,18.74 23.75,18.38 23.79,18.03C23.83,17.68 23.87,17.21 23.9,16.97C23.91,16.85 23.92,16.81 23.93,16.69C23.95,16.5 23.98,16.19 24.01,15.91C24.04,15.58 24.08,15.2 24.12,14.85C24.15,14.5 24.19,14.14 24.22,13.79C24.25,13.44 24.29,13.08 24.32,12.73C24.36,12.38 24.4,12.02 24.43,11.67C24.46,11.32 24.49,10.96 24.52,10.61C24.55,10.26 24.59,9.9 24.62,9.55C24.65,9.19 24.69,8.84 24.72,8.48C24.75,8.13 24.78,7.77 24.81,7.42C24.84,7.07 24.87,6.69 24.9,6.36C24.92,6.07 24.95,5.72 24.97,5.53C24.98,5.43 24.98,5.4 24.99,5.3C25.01,5.08 25.05,4.59 25.08,4.24C25.11,3.89 25.13,3.53 25.16,3.18C25.19,2.83 25.22,2.47 25.25,2.12C25.28,1.77 25.3,1.41 25.33,1.06Q25.36,0.71 25.41,0L103,0L103,105L0,105Z" style="stroke: none; fill: rgb(131, 160, 213);"/><path d="M0,96.87Q0.64,96.63 0.9750000000000001,96.49C1.33,96.34 1.72,96.17 2.08,96.01C2.43,95.86 2.89,95.67 3.12,95.57C3.24,95.52 3.27,95.5 3.38,95.45C3.57,95.36 3.88,95.21 4.16,95.08C4.48,94.93 4.93,94.72 5.2,94.59C5.37,94.51 5.47,94.47 5.62,94.39C5.81,94.3 6.01,94.19 6.24,94.07C6.54,93.91 7.02,93.67 7.28,93.53C7.44,93.45 7.52,93.41 7.66,93.33C7.85,93.23 8.08,93.1 8.32,92.96C8.63,92.79 9.16,92.49 9.36,92.37C9.44,92.32 9.45,92.32 9.53,92.27C9.71,92.16 10.11,91.91 10.4,91.73C10.68,91.55 11.06,91.33 11.24,91.21C11.33,91.15 11.35,91.14 11.44,91.08C11.65,90.94 12.23,90.55 12.48,90.38C12.62,90.28 12.69,90.24 12.82,90.15C13.01,90.01 13.29,89.81 13.53,89.64C13.78,89.46 14.09,89.23 14.28,89.09C14.4,89 14.44,88.97 14.57,88.87C14.81,88.68 15.28,88.32 15.625,88.03999999999999C15.97,87.76 16.43,87.37 16.65,87.18C16.76,87.09 16.79,87.06 16.89,86.97C17.08,86.8 17.47,86.45 17.69,86.25C17.84,86.12 17.93,86.04 18.07,85.91C18.26,85.73 18.53,85.46 18.73,85.27C18.89,85.12 19.01,85 19.16,84.85C19.35,84.66 19.59,84.42 19.77,84.23C19.92,84.07 20.04,83.95 20.19,83.79C20.38,83.59 20.63,83.3 20.81,83.11C20.94,82.96 21.03,82.88 21.16,82.73C21.35,82.51 21.69,82.11 21.85,81.92C21.94,81.81 21.97,81.78 22.06,81.67C22.25,81.44 22.63,80.98 22.905,80.625C23.18,80.27 23.54,79.8 23.72,79.55C23.81,79.42 23.84,79.38 23.93,79.26C24.07,79.06 24.3,78.73 24.48,78.48C24.65,78.24 24.84,77.97 24.97,77.77C25.06,77.63 25.1,77.57 25.2,77.42C25.37,77.16 25.76,76.57 25.89,76.36C25.95,76.27 25.96,76.25 26.01,76.16C26.12,75.97 26.37,75.59 26.54,75.3C26.71,75.01 26.95,74.6 27.05,74.42C27.1,74.34 27.1,74.32 27.15,74.24C27.26,74.03 27.57,73.49 27.74,73.18C27.87,72.93 27.99,72.7 28.09,72.51C28.17,72.36 28.22,72.28 28.3,72.12C28.44,71.85 28.68,71.37 28.83,71.06C28.95,70.83 29.04,70.63 29.13,70.44C29.21,70.28 29.26,70.18 29.34,70C29.47,69.72 29.68,69.27 29.83,68.94C29.96,68.66 30.09,68.35 30.17,68.16C30.22,68.04 30.24,68 30.29,67.88C30.39,67.64 30.59,67.18 30.74,66.82C30.89,66.45 31.05,66.07 31.19,65.70500000000001C31.33,65.36 31.45,65.04 31.58,64.7C31.71,64.35 31.85,63.97 31.97,63.64C32.07,63.36 32.18,63.05 32.25,62.86C32.29,62.74 32.31,62.7 32.35,62.58C32.43,62.34 32.6,61.87 32.72,61.52C32.84,61.16 32.97,60.77 33.07,60.45C33.15,60.2 33.23,59.95 33.29,59.76C33.34,59.62 33.36,59.55 33.41,59.39C33.49,59.13 33.62,58.68 33.73,58.33C33.84,57.98 33.95,57.62 34.05,57.27C34.15,56.93 34.24,56.59 34.34,56.245000000000005C34.44,55.89 34.55,55.51 34.65,55.15C34.75,54.79 34.84,54.44 34.93,54.09C35.02,53.74 35.12,53.34 35.2,53.03C35.26,52.78 35.32,52.54 35.37,52.35C35.41,52.2 35.43,52.13 35.47,51.97C35.54,51.71 35.64,51.26 35.72,50.91C35.8,50.56 35.89,50.2 35.97,49.85C36.05,49.5 36.13,49.14 36.21,48.79C36.29,48.46 36.36,48.15 36.43,47.805C36.51,47.44 36.59,47.04 36.67,46.67C36.75,46.31 36.82,45.96 36.89,45.61C36.96,45.26 37.04,44.9 37.11,44.55C37.18,44.19 37.25,43.8 37.31,43.48C37.36,43.21 37.41,42.94 37.45,42.74C37.48,42.61 37.49,42.56 37.52,42.42C37.57,42.17 37.65,41.71 37.71,41.36C37.77,41.01 37.84,40.65 37.9,40.3C37.96,39.95 38.03,39.59 38.09,39.24C38.15,38.89 38.21,38.53 38.27,38.18C38.33,37.83 38.4,37.37 38.44,37.12C38.46,36.98 38.47,36.92 38.49,36.79C38.52,36.59 38.57,36.33 38.61,36.06C38.66,35.74 38.72,35.35 38.78,35C38.83,34.65 38.89,34.29 38.94,33.94C38.99,33.59 39.05,33.23 39.1,32.88C39.15,32.53 39.2,32.17 39.25,31.82C39.3,31.47 39.35,31.11 39.4,30.76C39.45,30.42 39.5,30.09 39.545,29.75C39.59,29.39 39.64,29.01 39.69,28.64C39.74,28.28 39.78,27.93 39.83,27.58C39.88,27.23 39.93,26.87 39.97,26.52C40.02,26.16 40.06,25.81 40.1,25.45C40.14,25.1 40.19,24.74 40.23,24.39C40.27,24.04 40.32,23.68 40.36,23.33C40.4,22.98 40.44,22.6 40.48,22.27C40.51,21.99 40.56,21.67 40.58,21.48C40.59,21.37 40.6,21.33 40.61,21.21C40.64,20.97 40.69,20.5 40.73,20.15C40.77,19.8 40.8,19.44 40.84,19.09C40.88,18.74 40.92,18.38 40.96,18.03C41,17.68 41.03,17.32 41.07,16.97C41.11,16.62 41.14,16.26 41.18,15.91C41.21,15.56 41.25,15.2 41.28,14.85C41.32,14.5 41.35,14.14 41.39,13.79C41.42,13.44 41.46,13.08 41.49,12.73C41.52,12.38 41.57,11.91 41.59,11.67C41.6,11.55 41.61,11.51 41.62,11.4C41.64,11.21 41.66,10.89 41.69,10.61C41.72,10.28 41.76,9.9 41.79,9.55C41.82,9.19 41.85,8.84 41.88,8.48C41.91,8.13 41.94,7.77 41.97,7.42C42,7.07 42.04,6.71 42.07,6.36C42.1,6.01 42.13,5.65 42.16,5.3C42.19,4.95 42.21,4.59 42.24,4.24C42.27,3.89 42.3,3.53 42.33,3.18C42.36,2.83 42.38,2.47 42.41,2.12C42.44,1.77 42.47,1.41 42.5,1.06Q42.53,0.71 42.58,0L103,0L103,105L0,105Z" style="stroke: none; fill: rgb(178, 199, 229);"/><path d="M0,101.95Q0.42,101.86 0.61,101.82C0.77,101.78 0.87,101.75 1.04,101.71C1.31,101.64 1.73,101.54 2.08,101.46C2.43,101.38 2.77,101.29 3.12,101.21C3.47,101.13 3.83,101.04 4.16,100.96C4.46,100.89 4.83,100.81 5.01,100.76C5.1,100.74 5.11,100.73 5.2,100.7C5.41,100.64 5.89,100.51 6.24,100.42C6.59,100.32 6.93,100.23 7.28,100.13C7.63,100.04 8.03,99.93 8.32,99.85C8.53,99.79 8.69,99.75 8.87,99.7C9.04,99.65 9.17,99.6 9.36,99.54C9.64,99.45 10.05,99.33 10.4,99.22C10.75,99.11 11.11,99 11.44,98.9C11.74,98.81 12.11,98.7 12.29,98.64C12.38,98.61 12.39,98.6 12.48,98.57C12.69,98.5 13.18,98.33 13.53,98.21C13.88,98.09 14.25,97.95 14.57,97.84C14.85,97.74 15.15,97.65 15.34,97.58C15.45,97.54 15.49,97.52 15.61,97.47C15.84,97.38 16.3,97.2 16.65,97.07C17,96.94 17.43,96.77 17.69,96.67C17.85,96.61 17.93,96.58 18.08,96.52C18.27,96.44 18.49,96.34 18.73,96.24C19.04,96.11 19.45,95.93 19.77,95.79C20.05,95.67 20.36,95.54 20.55,95.45C20.66,95.4 20.69,95.38 20.81,95.33C21.04,95.22 21.51,95 21.85,94.84C22.18,94.68 22.5,94.53 22.84,94.36500000000001C23.2,94.19 23.58,93.98 23.93,93.8C24.26,93.63 24.57,93.47 24.9,93.28999999999999C25.26,93.09 25.69,92.85 26.01,92.66C26.26,92.51 26.5,92.38 26.69,92.27C26.83,92.19 26.9,92.14 27.05,92.05C27.31,91.89 27.84,91.56 28.09,91.41C28.23,91.32 28.28,91.29 28.41,91.21C28.6,91.09 28.88,90.9 29.13,90.73C29.4,90.55 29.81,90.28 29.99,90.15C30.07,90.09 30.09,90.08 30.17,90.02C30.37,89.87 30.98,89.42 31.21,89.26C31.32,89.18 31.35,89.17 31.45,89.09C31.64,88.95 32.01,88.65 32.25,88.46C32.45,88.3 32.62,88.17 32.8,88.03C32.97,87.89 33.11,87.77 33.29,87.62C33.52,87.43 33.87,87.14 34.06,86.97C34.17,86.87 34.21,86.83 34.33,86.72C34.54,86.53 35.06,86.07 35.23,85.91C35.3,85.85 35.3,85.84 35.37,85.77C35.55,85.59 36.04,85.14 36.37,84.805C36.71,84.46 37.07,84.09 37.405,83.73500000000001C37.72,83.4 38.14,82.94 38.32,82.73C38.4,82.64 38.41,82.62 38.49,82.53C38.65,82.34 39.04,81.9 39.23,81.67C39.36,81.52 39.42,81.44 39.54,81.29C39.7,81.1 39.9,80.83 40.08,80.61C40.25,80.39 40.43,80.15 40.58,79.96C40.7,79.81 40.77,79.72 40.89,79.55C41.09,79.28 41.39,78.86 41.635,78.505C41.88,78.15 42.18,77.7 42.37,77.42C42.49,77.24 42.56,77.14 42.66,76.98C42.78,76.79 42.9,76.59 43.05,76.36C43.24,76.06 43.49,75.66 43.7,75.305C43.91,74.95 44.13,74.56 44.32,74.24C44.47,73.97 44.63,73.69 44.74,73.49C44.81,73.36 44.84,73.31 44.91,73.18C45.04,72.93 45.3,72.43 45.46,72.12C45.58,71.89 45.68,71.69 45.78,71.5C45.86,71.34 45.91,71.24 46,71.06C46.14,70.78 46.36,70.31 46.51,70C46.63,69.75 46.73,69.51 46.82,69.32C46.89,69.17 46.93,69.1 47,68.94C47.12,68.68 47.31,68.23 47.46,67.88C47.61,67.54 47.74,67.22 47.885,66.88C48.04,66.52 48.19,66.13 48.34,65.76C48.48,65.4 48.65,64.97 48.75,64.7C48.81,64.53 48.84,64.44 48.9,64.29C48.97,64.1 49.05,63.88 49.14,63.64C49.25,63.33 49.39,62.93 49.52,62.58C49.64,62.23 49.82,61.72 49.89,61.52C49.92,61.44 49.92,61.43 49.94,61.35C50,61.17 50.14,60.76 50.24,60.45C50.35,60.11 50.46,59.74 50.57,59.39C50.68,59.04 50.83,58.56 50.9,58.33C50.94,58.21 50.95,58.18 50.98,58.07C51.04,57.88 51.14,57.56 51.22,57.27C51.32,56.94 51.42,56.56 51.52,56.21C51.62,55.86 51.72,55.48 51.81,55.15C51.89,54.87 51.97,54.56 52.02,54.37C52.05,54.25 52.07,54.21 52.1,54.09C52.16,53.85 52.28,53.38 52.37,53.03C52.46,52.68 52.54,52.32 52.63,51.97C52.72,51.62 52.81,51.23 52.89,50.91C52.95,50.65 53.01,50.39 53.06,50.19C53.09,50.06 53.11,49.99 53.14,49.85C53.2,49.59 53.3,49.14 53.38,48.79C53.46,48.44 53.53,48.08 53.61,47.73C53.69,47.38 53.76,47.02 53.84,46.67C53.91,46.32 54.02,45.83 54.06,45.61C54.08,45.51 54.08,45.49 54.1,45.4C54.14,45.21 54.21,44.85 54.27,44.55C54.34,44.21 54.41,43.84 54.48,43.48C54.55,43.13 54.61,42.77 54.68,42.42C54.75,42.07 54.81,41.71 54.88,41.36C54.94,41.01 55.02,40.57 55.07,40.3C55.1,40.13 55.11,40.03 55.14,39.88C55.17,39.69 55.21,39.48 55.25,39.24C55.3,38.93 55.37,38.53 55.43,38.18C55.49,37.83 55.55,37.47 55.61,37.12C55.67,36.77 55.72,36.41 55.78,36.06C55.84,35.71 55.89,35.35 55.95,35C56,34.65 56.07,34.23 56.11,33.94C56.14,33.74 56.15,33.61 56.18,33.44C56.21,33.26 56.24,33.1 56.27,32.88C56.31,32.58 56.37,32.17 56.42,31.82C56.47,31.47 56.52,31.11 56.57,30.76C56.62,30.41 56.67,30.05 56.72,29.7C56.77,29.35 56.81,28.99 56.86,28.64C56.91,28.29 56.95,27.93 57,27.58C57.05,27.23 57.1,26.84 57.14,26.52C57.17,26.27 57.2,26.03 57.22,25.83C57.24,25.68 57.25,25.61 57.27,25.45C57.3,25.19 57.36,24.74 57.4,24.39C57.44,24.04 57.49,23.68 57.53,23.33C57.57,22.98 57.61,22.62 57.65,22.27C57.69,21.92 57.73,21.56 57.77,21.21C57.81,20.86 57.85,20.5 57.89,20.15C57.93,19.8 57.97,19.44 58.01,19.09C58.05,18.74 58.08,18.38 58.12,18.03C58.16,17.68 58.2,17.21 58.23,16.97C58.24,16.85 58.25,16.81 58.26,16.69C58.28,16.5 58.31,16.19 58.34,15.91C58.37,15.58 58.41,15.2 58.45,14.85C58.49,14.5 58.52,14.14 58.56,13.79C58.59,13.44 58.63,13.08 58.66,12.73C58.69,12.38 58.73,12.02 58.76,11.67C58.79,11.32 58.83,10.96 58.86,10.61C58.89,10.26 58.92,9.9 58.95,9.55C58.98,9.19 59.02,8.84 59.05,8.48C59.08,8.13 59.11,7.77 59.14,7.42C59.17,7.07 59.2,6.69 59.23,6.36C59.25,6.07 59.28,5.72 59.3,5.53C59.31,5.43 59.31,5.4 59.32,5.3C59.34,5.08 59.38,4.59 59.41,4.24C59.44,3.89 59.47,3.53 59.5,3.18C59.53,2.83 59.55,2.47 59.58,2.12C59.61,1.77 59.63,1.41 59.66,1.06Q59.69,0.71 59.74,0L103,0L103,105L0,105Z" style="stroke: none; fill: rgb(229, 236, 246);"/><path d="M0,105Q0.69,104.89 1.04,104.84C1.39,104.79 1.73,104.73 2.08,104.68C2.43,104.63 2.77,104.57 3.12,104.52C3.47,104.47 3.81,104.41 4.16,104.36C4.51,104.31 4.85,104.25 5.2,104.2C5.55,104.15 5.94,104.09 6.24,104.04C6.48,104 6.69,103.97 6.88,103.94C7.03,103.92 7.12,103.9 7.28,103.87C7.55,103.82 7.97,103.74 8.32,103.68C8.67,103.62 9.01,103.55 9.36,103.49C9.71,103.43 10.05,103.36 10.4,103.3C10.75,103.24 11.09,103.17 11.44,103.11C11.79,103.05 12.25,102.96 12.48,102.92C12.59,102.9 12.62,102.9 12.73,102.88C12.92,102.84 13.25,102.77 13.53,102.71C13.85,102.64 14.22,102.56 14.57,102.49C14.92,102.42 15.26,102.34 15.61,102.27C15.96,102.2 16.3,102.13 16.65,102.06C17.01,101.99 17.38,101.91 17.735,101.83C18.07,101.75 18.39,101.67 18.73,101.59C19.07,101.51 19.42,101.42 19.77,101.34C20.12,101.26 20.46,101.17 20.81,101.09C21.16,101.01 21.6,100.9 21.85,100.84C21.99,100.81 22.04,100.79 22.17,100.76C22.36,100.71 22.63,100.63 22.89,100.56C23.2,100.47 23.58,100.37 23.93,100.28C24.28,100.18 24.62,100.09 24.97,99.99C25.32,99.89 25.68,99.8 26.025,99.7C26.37,99.6 26.71,99.49 27.05,99.38C27.4,99.27 27.74,99.17 28.09,99.06C28.44,98.95 28.88,98.82 29.13,98.74C29.27,98.7 29.33,98.68 29.46,98.64C29.65,98.58 29.91,98.48 30.17,98.39C30.48,98.28 30.86,98.15 31.21,98.03C31.56,97.91 32.02,97.74 32.25,97.66C32.37,97.62 32.4,97.62 32.51,97.58C32.7,97.51 33.01,97.38 33.29,97.27C33.61,97.14 33.99,97 34.33,96.87C34.66,96.74 34.97,96.63 35.305,96.49C35.66,96.34 36.05,96.17 36.41,96.01C36.76,95.86 37.22,95.67 37.45,95.57C37.57,95.52 37.6,95.5 37.71,95.45C37.9,95.36 38.21,95.21 38.49,95.08C38.81,94.93 39.27,94.72 39.54,94.59C39.71,94.51 39.8,94.47 39.95,94.39C40.14,94.3 40.34,94.19 40.58,94.07C40.88,93.91 41.36,93.67 41.62,93.53C41.77,93.45 41.85,93.41 41.99,93.33C42.18,93.23 42.41,93.1 42.66,92.96C42.97,92.79 43.51,92.49 43.7,92.37C43.78,92.32 43.79,92.32 43.86,92.27C44.04,92.16 44.45,91.91 44.74,91.73C45.02,91.56 45.38,91.33 45.57,91.21C45.66,91.15 45.68,91.14 45.78,91.08C46,90.94 46.57,90.55 46.82,90.38C46.96,90.28 47.02,90.24 47.15,90.15C47.34,90.01 47.62,89.81 47.86,89.64C48.11,89.46 48.42,89.23 48.61,89.09C48.73,89 48.77,88.97 48.9,88.87C49.14,88.68 49.61,88.32 49.955,88.03999999999999C50.3,87.76 50.75,87.37 50.98,87.18C51.09,87.09 51.12,87.06 51.23,86.97C51.42,86.8 51.8,86.45 52.02,86.25C52.17,86.12 52.26,86.04 52.4,85.91C52.59,85.73 52.86,85.46 53.06,85.27C53.22,85.11 53.34,85.01 53.5,84.85C53.69,84.67 53.92,84.42 54.1,84.23C54.26,84.07 54.38,83.95 54.53,83.79C54.72,83.59 54.96,83.3 55.14,83.11C55.27,82.96 55.36,82.88 55.49,82.73C55.68,82.51 56.01,82.11 56.18,81.92C56.27,81.81 56.3,81.78 56.4,81.67C56.59,81.44 56.96,80.98 57.235,80.625C57.51,80.27 57.87,79.8 58.05,79.55C58.14,79.42 58.17,79.38 58.26,79.26C58.4,79.06 58.64,78.74 58.82,78.48C58.99,78.24 59.17,77.97 59.3,77.77C59.39,77.63 59.44,77.57 59.54,77.42C59.71,77.16 60.09,76.57 60.22,76.36C60.28,76.27 60.29,76.25 60.34,76.16C60.45,75.97 60.7,75.59 60.87,75.3C61.04,75.01 61.27,74.6 61.38,74.42C61.43,74.34 61.44,74.33 61.49,74.24C61.61,74.03 61.9,73.49 62.07,73.18C62.2,72.93 62.32,72.7 62.42,72.51C62.5,72.36 62.55,72.28 62.63,72.12C62.77,71.85 63.01,71.37 63.16,71.06C63.28,70.83 63.37,70.63 63.46,70.44C63.54,70.28 63.59,70.18 63.67,70C63.8,69.72 64.01,69.27 64.16,68.94C64.29,68.66 64.42,68.36 64.51,68.16C64.56,68.04 64.58,68 64.63,67.88C64.73,67.64 64.92,67.18 65.07,66.82C65.22,66.45 65.38,66.07 65.525,65.70500000000001C65.66,65.36 65.78,65.04 65.91,64.7C66.04,64.35 66.19,63.97 66.31,63.64C66.41,63.36 66.52,63.05 66.59,62.86C66.63,62.74 66.65,62.7 66.69,62.58C66.77,62.34 66.93,61.87 67.05,61.52C67.17,61.16 67.3,60.77 67.4,60.45C67.48,60.19 67.57,59.95 67.63,59.76C67.67,59.62 67.69,59.54 67.74,59.39C67.82,59.13 67.96,58.68 68.07,58.33C68.18,57.98 68.28,57.62 68.38,57.27C68.48,56.93 68.58,56.59 68.68,56.245000000000005C68.78,55.89 68.88,55.51 68.98,55.15C69.08,54.79 69.17,54.44 69.26,54.09C69.35,53.74 69.46,53.34 69.54,53.03C69.6,52.78 69.66,52.54 69.71,52.35C69.75,52.21 69.76,52.13 69.8,51.97C69.86,51.71 69.97,51.26 70.06,50.91C70.14,50.56 70.23,50.2 70.31,49.85C70.39,49.5 70.47,49.14 70.55,48.79C70.62,48.46 70.69,48.15 70.765,47.805C70.84,47.44 70.93,47.04 71.01,46.67C71.09,46.31 71.16,45.96 71.23,45.61C71.3,45.26 71.37,44.9 71.44,44.55C71.51,44.19 71.59,43.8 71.65,43.48C71.7,43.21 71.75,42.94 71.79,42.74C71.81,42.61 71.82,42.56 71.85,42.42C71.9,42.17 71.98,41.71 72.04,41.36C72.1,41.01 72.17,40.65 72.23,40.3C72.29,39.95 72.36,39.59 72.42,39.24C72.48,38.89 72.54,38.53 72.6,38.18C72.66,37.83 72.73,37.37 72.77,37.12C72.79,36.98 72.81,36.92 72.83,36.79C72.86,36.59 72.91,36.33 72.95,36.06C73,35.74 73.06,35.35 73.11,35C73.16,34.65 73.22,34.29 73.27,33.94C73.32,33.59 73.38,33.23 73.43,32.88C73.48,32.53 73.54,32.17 73.59,31.82C73.64,31.47 73.69,31.11 73.74,30.76C73.79,30.42 73.83,30.09 73.875,29.75C73.92,29.39 73.98,29.01 74.03,28.64C74.08,28.28 74.12,27.93 74.17,27.58C74.21,27.23 74.26,26.87 74.3,26.52C74.35,26.16 74.39,25.81 74.44,25.45C74.48,25.1 74.53,24.74 74.57,24.39C74.61,24.04 74.65,23.68 74.69,23.33C74.73,22.98 74.78,22.6 74.82,22.27C74.85,21.99 74.89,21.67 74.91,21.48C74.92,21.37 74.93,21.33 74.94,21.21C74.97,20.97 75.02,20.5 75.06,20.15C75.1,19.8 75.14,19.44 75.18,19.09C75.22,18.74 75.25,18.38 75.29,18.03C75.33,17.68 75.36,17.32 75.4,16.97C75.44,16.62 75.47,16.26 75.51,15.91C75.55,15.56 75.58,15.2 75.62,14.85C75.65,14.5 75.69,14.14 75.72,13.79C75.75,13.44 75.79,13.08 75.82,12.73C75.86,12.38 75.91,11.91 75.93,11.67C75.94,11.55 75.94,11.51 75.95,11.4C75.97,11.21 75.99,10.89 76.02,10.61C76.05,10.28 76.09,9.9 76.12,9.55C76.15,9.19 76.19,8.84 76.22,8.48C76.25,8.13 76.28,7.77 76.31,7.42C76.34,7.07 76.37,6.71 76.4,6.36C76.43,6.01 76.46,5.65 76.49,5.3C76.52,4.95 76.55,4.59 76.58,4.24C76.61,3.89 76.63,3.53 76.66,3.18C76.69,2.83 76.72,2.47 76.75,2.12C76.78,1.77 76.8,1.41 76.83,1.06Q76.86,0.71 76.91,0L103,0L103,105Z" style="stroke: none; fill: rgb(247, 230, 226);"/><path d="M17.17,105Q17.49,104.95 17.69,104.92C17.98,104.88 18.38,104.81 18.73,104.76C19.08,104.71 19.42,104.65 19.77,104.6C20.12,104.55 20.46,104.49 20.81,104.44C21.16,104.39 21.5,104.33 21.85,104.28C22.2,104.23 22.54,104.17 22.89,104.12C23.25,104.06 23.63,104.01 23.985,103.94999999999999C24.32,103.89 24.64,103.83 24.97,103.77C25.31,103.71 25.66,103.64 26.01,103.58C26.36,103.52 26.7,103.45 27.05,103.39C27.4,103.33 27.74,103.27 28.09,103.21C28.44,103.15 28.81,103.08 29.13,103.02C29.41,102.97 29.71,102.92 29.9,102.88C30.01,102.86 30.05,102.85 30.17,102.82C30.4,102.77 30.86,102.67 31.21,102.6C31.56,102.53 31.9,102.45 32.25,102.38C32.6,102.31 32.94,102.24 33.29,102.17C33.64,102.1 34.03,102.01 34.33,101.95C34.56,101.9 34.75,101.86 34.94,101.82C35.1,101.78 35.2,101.75 35.37,101.71C35.64,101.64 36.06,101.54 36.41,101.46C36.76,101.38 37.1,101.29 37.45,101.21C37.8,101.13 38.16,101.04 38.49,100.96C38.79,100.89 39.16,100.81 39.34,100.76C39.43,100.74 39.45,100.73 39.54,100.7C39.75,100.64 40.23,100.51 40.58,100.42C40.93,100.32 41.27,100.23 41.62,100.13C41.97,100.04 42.37,99.93 42.66,99.85C42.87,99.79 43.02,99.75 43.2,99.7C43.37,99.65 43.5,99.6 43.7,99.54C43.98,99.45 44.39,99.33 44.74,99.22C45.09,99.11 45.45,99 45.78,98.9C46.07,98.81 46.44,98.7 46.62,98.64C46.71,98.61 46.73,98.6 46.82,98.57C47.03,98.5 47.51,98.33 47.86,98.21C48.21,98.09 48.58,97.95 48.9,97.84C49.18,97.74 49.48,97.65 49.67,97.58C49.78,97.54 49.82,97.52 49.94,97.47C50.17,97.38 50.63,97.2 50.98,97.07C51.33,96.94 51.76,96.77 52.02,96.67C52.18,96.61 52.26,96.58 52.41,96.52C52.6,96.44 52.82,96.34 53.06,96.24C53.37,96.11 53.78,95.93 54.1,95.79C54.38,95.67 54.69,95.54 54.88,95.45C54.99,95.4 55.02,95.38 55.14,95.33C55.37,95.22 55.84,95 56.18,94.84C56.51,94.68 56.83,94.53 57.17,94.36500000000001C57.53,94.19 57.91,93.98 58.26,93.8C58.59,93.63 58.9,93.47 59.23,93.28999999999999C59.59,93.09 60.01,92.84 60.34,92.66C60.6,92.51 60.84,92.38 61.03,92.27C61.17,92.19 61.23,92.14 61.38,92.05C61.63,91.89 62.17,91.56 62.42,91.41C62.56,91.32 62.61,91.29 62.74,91.21C62.93,91.09 63.21,90.9 63.46,90.73C63.73,90.55 64.14,90.27 64.32,90.15C64.41,90.09 64.42,90.08 64.51,90.02C64.72,89.87 65.33,89.42 65.55,89.26C65.65,89.18 65.68,89.17 65.78,89.09C65.97,88.95 66.35,88.65 66.59,88.46C66.79,88.3 66.96,88.17 67.14,88.03C67.31,87.89 67.45,87.77 67.63,87.62C67.86,87.43 68.2,87.14 68.39,86.97C68.51,86.87 68.55,86.83 68.67,86.72C68.88,86.53 69.4,86.07 69.57,85.91C69.64,85.85 69.64,85.84 69.71,85.77C69.89,85.59 70.37,85.14 70.705,84.805C71.05,84.46 71.41,84.09 71.74000000000001,83.73500000000001C72.06,83.4 72.48,82.94 72.66,82.73C72.74,82.64 72.75,82.62 72.83,82.53C72.99,82.34 73.37,81.9 73.56,81.67C73.69,81.52 73.75,81.44 73.87,81.29C74.03,81.1 74.24,80.84 74.42,80.61C74.59,80.39 74.77,80.15 74.91,79.96C75.03,79.81 75.1,79.72 75.22,79.55C75.42,79.28 75.72,78.86 75.965,78.505C76.21,78.15 76.51,77.7 76.7,77.42C76.82,77.24 76.89,77.14 76.99,76.98C77.11,76.79 77.24,76.59 77.39,76.36C77.58,76.06 77.82,75.66 78.035,75.305C78.24,74.95 78.47,74.56 78.65,74.24C78.8,73.97 78.96,73.69 79.07,73.49C79.14,73.36 79.17,73.31 79.24,73.18C79.37,72.93 79.64,72.43 79.8,72.12C79.92,71.89 80.02,71.69 80.11,71.5C80.19,71.34 80.24,71.24 80.33,71.06C80.47,70.78 80.69,70.31 80.84,70C80.96,69.75 81.06,69.51 81.15,69.32C81.22,69.17 81.26,69.1 81.33,68.94C81.45,68.68 81.64,68.23 81.79,67.88C81.94,67.54 82.07,67.22 82.215,66.88C82.37,66.52 82.52,66.13 82.67,65.76C82.81,65.4 82.98,64.97 83.08,64.7C83.14,64.53 83.17,64.44 83.23,64.29C83.3,64.1 83.38,63.88 83.47,63.64C83.58,63.33 83.72,62.94 83.85,62.58C83.98,62.21 84.12,61.8 84.245,61.435C84.36,61.09 84.46,60.78 84.57,60.45C84.68,60.1 84.8,59.74 84.91,59.39C85.02,59.04 85.16,58.56 85.23,58.33C85.27,58.21 85.28,58.18 85.31,58.07C85.37,57.88 85.47,57.56 85.55,57.27C85.65,56.94 85.75,56.56 85.85,56.21C85.95,55.86 86.06,55.48 86.15,55.15C86.23,54.87 86.3,54.56 86.35,54.37C86.38,54.25 86.4,54.21 86.43,54.09C86.49,53.85 86.61,53.38 86.7,53.03C86.79,52.68 86.88,52.32 86.97,51.97C87.06,51.62 87.14,51.23 87.22,50.91C87.28,50.65 87.34,50.39 87.39,50.19C87.42,50.06 87.44,49.99 87.47,49.85C87.53,49.59 87.63,49.14 87.71,48.79C87.79,48.44 87.87,48.08 87.95,47.73C88.03,47.38 88.1,47.02 88.17,46.67C88.24,46.32 88.35,45.83 88.39,45.61C88.41,45.51 88.41,45.49 88.43,45.4C88.47,45.21 88.55,44.85 88.61,44.55C88.68,44.21 88.74,43.84 88.81,43.48C88.88,43.13 88.95,42.77 89.02,42.42C89.09,42.07 89.15,41.71 89.21,41.36C89.27,41.01 89.35,40.57 89.4,40.3C89.43,40.13 89.44,40.03 89.47,39.88C89.5,39.69 89.55,39.48 89.59,39.24C89.65,38.93 89.71,38.53 89.77,38.18C89.83,37.83 89.88,37.47 89.94,37.12C90,36.77 90.05,36.41 90.11,36.06C90.17,35.71 90.22,35.35 90.28,35C90.33,34.65 90.4,34.23 90.44,33.94C90.47,33.74 90.49,33.61 90.52,33.44C90.55,33.26 90.57,33.1 90.6,32.88C90.64,32.58 90.7,32.17 90.75,31.82C90.8,31.47 90.85,31.11 90.9,30.76C90.95,30.41 91,30.05 91.05,29.7C91.1,29.35 91.14,28.99 91.19,28.64C91.24,28.29 91.28,27.93 91.33,27.58C91.38,27.23 91.43,26.84 91.47,26.52C91.5,26.27 91.54,26.03 91.56,25.83C91.58,25.68 91.58,25.61 91.6,25.45C91.63,25.19 91.69,24.74 91.73,24.39C91.77,24.04 91.82,23.68 91.86,23.33C91.9,22.98 91.94,22.62 91.98,22.27C92.02,21.92 92.07,21.56 92.11,21.21C92.15,20.86 92.19,20.5 92.23,20.15C92.27,19.8 92.3,19.44 92.34,19.09C92.38,18.74 92.42,18.38 92.46,18.03C92.5,17.68 92.54,17.21 92.57,16.97C92.58,16.85 92.59,16.81 92.6,16.69C92.62,16.5 92.65,16.19 92.68,15.91C92.71,15.58 92.75,15.2 92.78,14.85C92.82,14.5 92.85,14.14 92.89,13.79C92.92,13.44 92.96,13.08 92.99,12.73C93.02,12.38 93.06,12.02 93.09,11.67C93.12,11.32 93.16,10.96 93.19,10.61C93.22,10.26 93.26,9.9 93.29,9.55C93.32,9.19 93.35,8.84 93.38,8.48C93.41,8.13 93.44,7.77 93.47,7.42C93.5,7.07 93.54,6.69 93.57,6.36C93.6,6.07 93.62,5.72 93.64,5.53C93.65,5.43 93.65,5.4 93.66,5.3C93.68,5.08 93.71,4.59 93.74,4.24C93.77,3.89 93.8,3.53 93.83,3.18C93.86,2.83 93.88,2.47 93.91,2.12C93.94,1.77 93.97,1.41 94,1.06Q94.03,0.71 94.08,0L103,0L103,105Z" style="stroke: none; fill: rgb(230, 181, 169);"/><path d="M34.33,105Q35.02,104.89 35.37,104.84C35.72,104.79 36.06,104.73 36.41,104.68C36.76,104.63 37.1,104.57 37.45,104.52C37.8,104.47 38.14,104.41 38.49,104.36C38.84,104.31 39.19,104.25 39.54,104.2C39.89,104.15 40.28,104.09 40.58,104.04C40.82,104 41.02,103.97 41.21,103.94C41.36,103.92 41.45,103.9 41.62,103.87C41.89,103.82 42.31,103.74 42.66,103.68C43.01,103.62 43.35,103.55 43.7,103.49C44.05,103.43 44.39,103.36 44.74,103.3C45.09,103.24 45.43,103.17 45.78,103.11C46.13,103.05 46.59,102.96 46.82,102.92C46.93,102.9 46.96,102.9 47.06,102.88C47.25,102.84 47.58,102.77 47.86,102.71C48.18,102.64 48.55,102.56 48.9,102.49C49.25,102.42 49.59,102.34 49.94,102.27C50.29,102.2 50.63,102.13 50.98,102.06C51.34,101.99 51.71,101.91 52.065,101.83C52.4,101.75 52.72,101.67 53.06,101.59C53.4,101.51 53.75,101.42 54.1,101.34C54.45,101.26 54.79,101.17 55.14,101.09C55.49,101.01 55.93,100.9 56.18,100.84C56.32,100.81 56.38,100.79 56.51,100.76C56.7,100.71 56.96,100.63 57.22,100.56C57.53,100.47 57.91,100.37 58.26,100.28C58.61,100.18 58.95,100.09 59.3,99.99C59.65,99.89 60.01,99.8 60.355000000000004,99.7C60.7,99.6 61.04,99.49 61.38,99.38C61.73,99.27 62.07,99.17 62.42,99.06C62.77,98.95 63.21,98.82 63.46,98.74C63.6,98.7 63.66,98.68 63.79,98.64C63.98,98.58 64.25,98.48 64.51,98.39C64.82,98.28 65.2,98.15 65.55,98.03C65.9,97.91 66.36,97.74 66.59,97.66C66.7,97.62 66.73,97.62 66.84,97.58C67.03,97.51 67.35,97.38 67.63,97.27C67.95,97.14 68.33,97 68.67,96.87C69,96.74 69.31,96.63 69.645,96.49C70,96.34 70.39,96.17 70.75,96.01C71.1,95.86 71.56,95.67 71.79,95.57C71.91,95.52 71.94,95.5 72.05,95.45C72.24,95.36 72.55,95.21 72.83,95.08C73.15,94.93 73.6,94.72 73.87,94.59C74.04,94.51 74.14,94.47 74.29,94.39C74.48,94.3 74.68,94.19 74.91,94.07C75.21,93.91 75.69,93.67 75.95,93.53C76.11,93.45 76.19,93.41 76.33,93.33C76.52,93.23 76.75,93.1 76.99,92.96C77.3,92.79 77.84,92.49 78.03,92.37C78.11,92.32 78.12,92.32 78.19,92.27C78.37,92.16 78.78,91.91 79.07,91.73C79.35,91.56 79.73,91.33 79.91,91.21C80,91.15 80.02,91.14 80.11,91.08C80.32,90.94 80.9,90.55 81.15,90.38C81.29,90.28 81.36,90.24 81.49,90.15C81.68,90.01 81.95,89.81 82.19,89.64C82.44,89.46 82.76,89.23 82.95,89.09C83.07,89 83.11,88.97 83.23,88.87C83.47,88.68 83.94,88.32 84.285,88.03999999999999C84.63,87.76 85.08,87.37 85.31,87.18C85.42,87.09 85.45,87.06 85.56,86.97C85.75,86.8 86.13,86.45 86.35,86.25C86.5,86.12 86.59,86.04 86.73,85.91C86.92,85.73 87.19,85.46 87.39,85.27C87.55,85.11 87.67,85.01 87.83,84.85C88.02,84.67 88.25,84.42 88.43,84.23C88.59,84.07 88.71,83.95 88.86,83.79C89.05,83.59 89.29,83.3 89.47,83.11C89.6,82.96 89.68,82.88 89.82,82.73C90.01,82.51 90.36,82.11 90.52,81.92C90.61,81.81 90.64,81.78 90.73,81.67C90.92,81.44 91.29,80.98 91.57,80.625C91.85,80.27 92.21,79.8 92.39,79.55C92.48,79.42 92.51,79.38 92.6,79.26C92.74,79.06 92.97,78.73 93.15,78.48C93.32,78.24 93.51,77.97 93.64,77.77C93.73,77.63 93.77,77.57 93.87,77.42C94.04,77.16 94.41,76.57 94.55,76.36C94.61,76.27 94.62,76.25 94.68,76.16C94.8,75.97 95.03,75.59 95.2,75.3C95.37,75.01 95.62,74.6 95.72,74.42C95.77,74.34 95.77,74.32 95.82,74.24C95.93,74.03 96.24,73.49 96.41,73.18C96.54,72.93 96.66,72.7 96.76,72.51C96.84,72.36 96.88,72.28 96.96,72.12C97.1,71.85 97.35,71.37 97.5,71.06C97.62,70.83 97.71,70.63 97.8,70.44C97.88,70.28 97.93,70.18 98.01,70C98.14,69.72 98.35,69.27 98.5,68.94C98.63,68.66 98.76,68.35 98.84,68.16C98.89,68.04 98.91,68 98.96,67.88C99.06,67.64 99.26,67.18 99.41,66.82C99.56,66.45 99.72,66.07 99.86,65.70500000000001C100,65.36 100.12,65.04 100.25,64.7C100.38,64.35 100.52,63.97 100.64,63.64C100.74,63.36 100.85,63.05 100.92,62.86C100.96,62.74 100.98,62.7 101.02,62.58C101.1,62.34 101.27,61.87 101.39,61.52C101.51,61.16 101.64,60.77 101.74,60.45C101.82,60.2 101.9,59.95 101.96,59.76C102,59.62 102.02,59.54 102.07,59.39C102.15,59.13 102.29,58.68 102.4,58.33C102.51,57.98 102.62,57.62 102.72,57.27Q102.82,56.93 103,56.28L103,105Z" style="stroke: none; fill: rgb(213, 128, 116);"/><path d="M51.5,105Q51.82,104.95 52.02,104.92C52.31,104.88 52.71,104.81 53.06,104.76C53.41,104.71 53.75,104.65 54.1,104.6C54.45,104.55 54.79,104.49 55.14,104.44C55.49,104.39 55.83,104.33 56.18,104.28C56.53,104.23 56.87,104.17 57.22,104.12C57.58,104.06 57.96,104.01 58.32,103.94999999999999C58.66,103.89 58.97,103.83 59.3,103.77C59.64,103.71 59.99,103.64 60.34,103.58C60.69,103.52 61.03,103.45 61.38,103.39C61.73,103.33 62.07,103.27 62.42,103.21C62.77,103.15 63.14,103.08 63.46,103.02C63.74,102.97 64.04,102.92 64.23,102.88C64.35,102.86 64.39,102.85 64.51,102.82C64.75,102.77 65.2,102.67 65.55,102.6C65.9,102.53 66.24,102.45 66.59,102.38C66.94,102.31 67.28,102.24 67.63,102.17C67.98,102.1 68.37,102.01 68.67,101.95C68.9,101.9 69.09,101.86 69.28,101.82C69.44,101.78 69.54,101.75 69.71,101.71C69.98,101.64 70.4,101.54 70.75,101.46C71.1,101.38 71.44,101.29 71.79,101.21C72.14,101.13 72.5,101.04 72.83,100.96C73.12,100.89 73.49,100.81 73.67,100.76C73.76,100.74 73.78,100.73 73.87,100.7C74.08,100.64 74.56,100.51 74.91,100.42C75.26,100.32 75.6,100.23 75.95,100.13C76.3,100.04 76.7,99.93 76.99,99.85C77.2,99.79 77.36,99.75 77.54,99.7C77.71,99.65 77.84,99.6 78.03,99.54C78.31,99.45 78.72,99.33 79.07,99.22C79.42,99.11 79.78,99 80.11,98.9C80.41,98.81 80.78,98.7 80.96,98.64C81.05,98.61 81.06,98.6 81.15,98.57C81.36,98.5 81.84,98.33 82.19,98.21C82.54,98.09 82.91,97.95 83.23,97.84C83.51,97.74 83.82,97.65 84.01,97.58C84.12,97.54 84.15,97.52 84.27,97.47C84.5,97.38 84.96,97.2 85.31,97.07C85.66,96.94 86.09,96.77 86.35,96.67C86.51,96.61 86.59,96.58 86.74,96.52C86.93,96.44 87.15,96.34 87.39,96.24C87.7,96.11 88.11,95.93 88.43,95.79C88.71,95.67 89.02,95.54 89.21,95.45C89.32,95.4 89.35,95.38 89.47,95.33C89.7,95.22 90.18,95 90.52,94.84C90.85,94.68 91.17,94.53 91.505,94.36500000000001C91.86,94.19 92.25,93.98 92.6,93.8C92.93,93.63 93.23,93.47 93.565,93.28999999999999C93.92,93.09 94.35,92.85 94.68,92.66C94.93,92.51 95.17,92.38 95.36,92.27C95.5,92.19 95.57,92.14 95.72,92.05C95.98,91.89 96.52,91.56 96.76,91.41C96.89,91.33 96.95,91.29 97.07,91.21C97.26,91.08 97.55,90.9 97.8,90.73C98.07,90.55 98.47,90.27 98.65,90.15C98.74,90.09 98.75,90.08 98.84,90.02C99.05,89.87 99.66,89.42 99.88,89.26C99.98,89.18 100.01,89.17 100.11,89.09C100.3,88.95 100.68,88.65 100.92,88.46C101.12,88.3 101.29,88.17 101.47,88.03C101.64,87.89 101.78,87.77 101.96,87.62C102.19,87.43 102.54,87.14 102.73,86.97Q102.84,86.87 103,86.72L103,105Z" style="stroke: none; fill: rgb(196, 66, 77);"/><path d="M68.67,105Q69.36,104.89 69.71,104.84C70.06,104.79 70.4,104.73 70.75,104.68C71.1,104.63 71.44,104.57 71.79,104.52C72.14,104.47 72.48,104.41 72.83,104.36C73.18,104.31 73.52,104.25 73.87,104.2C74.22,104.15 74.61,104.09 74.91,104.04C75.15,104 75.35,103.97 75.54,103.94C75.69,103.92 75.78,103.9 75.95,103.87C76.22,103.82 76.64,103.74 76.99,103.68C77.34,103.62 77.68,103.55 78.03,103.49C78.38,103.43 78.72,103.36 79.07,103.3C79.42,103.24 79.76,103.17 80.11,103.11C80.46,103.05 80.92,102.96 81.15,102.92C81.26,102.9 81.29,102.9 81.4,102.88C81.59,102.84 81.91,102.77 82.19,102.71C82.51,102.64 82.88,102.56 83.23,102.49C83.58,102.42 83.92,102.34 84.27,102.27C84.62,102.2 84.96,102.13 85.31,102.06C85.67,101.99 86.04,101.91 86.395,101.83C86.73,101.75 87.05,101.67 87.39,101.59C87.73,101.51 88.08,101.42 88.43,101.34C88.78,101.26 89.12,101.17 89.47,101.09C89.82,101.01 90.27,100.9 90.52,100.84C90.66,100.81 90.71,100.79 90.84,100.76C91.03,100.71 91.3,100.63 91.56,100.56C91.87,100.47 92.25,100.37 92.6,100.28C92.95,100.18 93.29,100.09 93.64,99.99C93.99,99.89 94.34,99.8 94.69,99.7C95.04,99.6 95.38,99.49 95.72,99.38C96.07,99.27 96.41,99.17 96.76,99.06C97.11,98.95 97.55,98.82 97.8,98.74C97.94,98.7 97.99,98.68 98.12,98.64C98.31,98.58 98.58,98.48 98.84,98.39C99.15,98.28 99.53,98.15 99.88,98.03C100.23,97.91 100.69,97.74 100.92,97.66C101.03,97.62 101.06,97.62 101.17,97.58C101.36,97.51 101.68,97.38 101.96,97.27Q102.28,97.14 103,96.87L103,105Z" style="stroke: none; fill: rgb(180, 4, 38);"/></g><g class="contourlines"/></g></g></g></g><g class="zerolinelayer-above"/><path class="xlines-above crisp" d="M35.5,116.25H139.5M35.5,10.75H139.5" style="fill: none; stroke-width: 0.5px; stroke: rgb(0, 0, 0); stroke-opacity: 1;"/><path class="ylines-above crisp" d="M35.75,11V116M139.25,11V116" style="fill: none; stroke-width: 0.5px; stroke: rgb(0, 0, 0); stroke-opacity: 1;"/><g class="overlines-above"/><g class="xaxislayer-above"><path class="xtick ticks crisp" d="M0,116v-5" transform="translate(78.92,0)" style="stroke: rgb(0, 0, 0); stroke-opacity: 1; stroke-width: 0.5px;"/><path class="xtick ticks crisp" d="M0,116v-5" transform="translate(121.83,0)" style="stroke: rgb(0, 0, 0); stroke-opacity: 1; stroke-width: 0.5px;"/><g class="xtick"><text text-anchor="middle" x="0" y="129.7" transform="translate(36,0)" style="font-family: 'Open Sans', verdana, arial, sans-serif; font-size: 11px; fill: rgb(0, 0, 0); fill-opacity: 1; white-space: pre;">0</text></g><g class="xtick"><text text-anchor="middle" x="0" y="129.7" style="font-family: 'Open Sans', verdana, arial, sans-serif; font-size: 11px; fill: rgb(0, 0, 0); fill-opacity: 1; white-space: pre;" transform="translate(78.92,0)">0.5</text></g><g class="xtick"><text text-anchor="middle" x="0" y="129.7" style="font-family: 'Open Sans', verdana, arial, sans-serif; font-size: 11px; fill: rgb(0, 0, 0); fill-opacity: 1; white-space: pre;" transform="translate(121.83,0)">1</text></g></g><g class="yaxislayer-above"><path class="ytick ticks crisp" d="M36,0h5" transform="translate(0,74)" style="stroke: rgb(0, 0, 0); stroke-opacity: 1; stroke-width: 0.5px;"/><path class="ytick ticks crisp" d="M36,0h5" transform="translate(0,32)" style="stroke: rgb(0, 0, 0); stroke-opacity: 1; stroke-width: 0.5px;"/><g class="ytick"><text text-anchor="end" x="33.3" y="3.8499999999999996" transform="translate(0,116)" style="font-family: 'Open Sans', verdana, arial, sans-serif; font-size: 11px; fill: rgb(0, 0, 0); fill-opacity: 1; white-space: pre;">0</text></g><g class="ytick"><text text-anchor="end" x="33.3" y="3.8499999999999996" style="font-family: 'Open Sans', verdana, arial, sans-serif; font-size: 11px; fill: rgb(0, 0, 0); fill-opacity: 1; white-space: pre;" transform="translate(0,74)">0.1</text></g><g class="ytick"><text text-anchor="end" x="33.3" y="3.8499999999999996" style="font-family: 'Open Sans', verdana, arial, sans-serif; font-size: 11px; fill: rgb(0, 0, 0); fill-opacity: 1; white-space: pre;" transform="translate(0,32)">0.2</text></g></g><g class="overaxes-above"/></g></g><g class="polarlayer"/><g class="smithlayer"/><g class="ternarylayer"/><g class="geolayer"/><g class="funnelarealayer"/><g class="pielayer"/><g class="iciclelayer"/><g class="treemaplayer"/><g class="sunburstlayer"/><g class="glimages"/><defs id="topdefs-861b2e"><g class="clips"/></defs><g class="layer-above"><g class="imagelayer"/><g class="shapelayer"/></g><g class="infolayer"><g class="g-gtitle"/><g class="g-xtitle" transform="translate(0,4.550000000000011)"><text class="xtitle" x="87.5" y="140.1501953125" text-anchor="middle" style="opacity: 1; font-family: 'Open Sans', verdana, arial, sans-serif; font-size: 11px; fill: rgb(0, 0, 0); fill-opacity: 1; white-space: pre;">µ [1/h]</text></g><g class="g-ytitle"><text class="ytitle" transform="rotate(-90,14.184179687499999,63.5)" x="14.184179687499999" y="63.5" text-anchor="middle" style="opacity: 1; font-family: 'Open Sans', verdana, arial, sans-serif; font-size: 11px; fill: rgb(0, 0, 0); fill-opacity: 1; white-space: pre;">Cefotaxime [μg/mL]</text></g></g></svg>