<svg class="main-svg" xmlns="http://www.w3.org/2000/svg" xmlns:xlink="http://www.w3.org/1999/xlink" width="180" height="180" style="" viewBox="0 0 180 180"><rect x="0" y="0" width="180" height="180" style="fill: rgb(255, 255, 255); fill-opacity: 1;"/><defs id="defs-c72605"><g class="clips"><clipPath id="clipc72605xyplot" class="plotclip"><rect width="133" height="135"/></clipPath><clipPath class="axesclip" id="clipc72605x"><rect x="36" y="0" width="133" height="180"/></clipPath><clipPath class="axesclip" id="clipc72605y"><rect x="0" y="11" width="180" height="135"/></clipPath><clipPath class="axesclip" id="clipc72605xy"><rect x="36" y="11" width="133" height="135"/></clipPath><clipPath class="contourclip" id="clipa73141"><path d="M0,0L133,0L133,135L0,135Z"/></clipPath></g><g class="gradients"/><g class="patterns"/></defs><g class="bglayer"/><g class="layer-below"><g class="imagelayer"/><g class="shapelayer"/></g><g class="cartesianlayer"><g class="subplot xy"><g class="layer-subplot"><g class="shapelayer"/><g class="imagelayer"/></g><g class="minor-gridlayer"><g class="x"/><g class="y"/></g><g class="gridlayer"><g class="x"><path class="xgrid crisp" transform="translate(72.94,0)" d="M0,11v135" style="stroke: rgb(128, 128, 128); stroke-opacity: 1; stroke-width: 0.2px;"/><path class="xgrid crisp" transform="translate(109.89,0)" d="M0,11v135" style="stroke: rgb(128, 128, 128); stroke-opacity: 1; stroke-width: 0.2px;"/><path class="xgrid crisp" transform="translate(146.82999999999998,0)" d="M0,11v135" style="stroke: rgb(128, 128, 128); stroke-opacity: 1; stroke-width: 0.2px;"/></g><g class="y"><path class="ygrid crisp" transform="translate(0,92)" d="M36,0h133" style="stroke: rgb(128, 128, 128); stroke-opacity: 1; stroke-width: 0.2px;"/><path class="ygrid crisp" transform="translate(0,38)" d="M36,0h133" style="stroke: rgb(128, 128, 128); stroke-opacity: 1; stroke-width: 0.2px;"/></g></g><g class="zerolinelayer"/><g class="layer-between"><g class="shapelayer"/><g class="imagelayer"/></g><path class="xlines-below"/><path class="ylines-below"/><g class="overlines-below"/><g class="xaxislayer-below"/><g class="yaxislayer-below"/><g class="overaxes-below"/><g class="overplot"><g class="xy" transform="translate(36,11)" clip-path="url(#clipc72605xyplot)"><g class="contourlayer mlayer"><g class="contour" clip-path="url(#clipa73141)" style="opacity: 1;"><g class="heatmapcoloring"/><g class="contourbg"><path d="M0,0L133,0L133,135L0,135Z" style="stroke: none; fill: rgb(49, 97, 66);"/></g><g class="contourfill"><path d="M0,125.02Q0.89,124.76 1.34,124.64C1.79,124.51 2.32,124.37 2.69,124.27C2.94,124.2 3.11,124.15 3.33,124.09C3.56,124.02 3.76,123.96 4.03,123.88C4.41,123.76 4.92,123.6 5.37,123.46C5.82,123.32 6.3,123.18 6.72,123.05C7.09,122.94 7.53,122.81 7.77,122.73C7.9,122.69 7.93,122.67 8.06,122.63C8.34,122.53 8.95,122.33 9.4,122.18C9.85,122.03 10.33,121.86 10.75,121.72C11.12,121.59 11.57,121.44 11.81,121.36C11.93,121.32 11.96,121.31 12.09,121.26C12.37,121.16 12.98,120.93 13.43,120.76C13.88,120.59 14.4,120.4 14.78,120.26C15.05,120.16 15.26,120.09 15.49,120C15.71,119.92 15.87,119.84 16.12,119.74C16.48,119.59 17.01,119.38 17.46,119.2C17.92,119.02 18.38,118.84 18.835,118.65C19.28,118.46 19.71,118.26 20.15,118.07C20.59,117.87 21.16,117.63 21.49,117.48C21.69,117.39 21.78,117.35 21.96,117.27C22.21,117.16 22.52,117.01 22.84,116.86C23.24,116.67 23.81,116.4 24.18,116.22C24.44,116.1 24.61,116.02 24.83,115.91C25.06,115.8 25.26,115.69 25.53,115.55C25.9,115.36 26.51,115.04 26.87,114.86C27.11,114.74 27.27,114.66 27.48,114.55C27.71,114.43 27.93,114.3 28.21,114.14C28.59,113.93 29.25,113.56 29.56,113.39C29.73,113.3 29.79,113.27 29.94,113.18C30.19,113.04 30.55,112.82 30.9,112.61C31.31,112.37 31.79,112.09 32.235,111.815C32.69,111.54 33.2,111.2 33.59,110.95C33.88,110.76 34.12,110.61 34.36,110.45C34.56,110.32 34.7,110.23 34.93,110.07C35.29,109.83 35.86,109.44 36.315,109.12C36.76,108.81 37.27,108.44 37.62,108.18C37.86,108 38.02,107.89 38.23,107.73C38.46,107.55 38.7,107.37 38.96,107.16C39.27,106.92 39.75,106.55 39.99,106.36C40.12,106.25 40.16,106.22 40.3,106.11C40.59,105.87 41.2,105.38 41.65,105C42.1,104.62 42.73,104.05 42.99,103.83C43.09,103.74 43.11,103.73 43.21,103.64C43.44,103.43 44.06,102.84 44.33,102.59C44.48,102.45 44.53,102.41 44.68,102.27C44.93,102.04 45.42,101.55 45.68,101.3C45.84,101.14 45.91,101.07 46.07,100.91C46.32,100.66 46.78,100.18 47.02,99.93C47.17,99.77 47.24,99.71 47.39,99.55C47.64,99.29 48.13,98.74 48.36,98.49C48.48,98.36 48.52,98.32 48.64,98.18C48.89,97.9 49.39,97.34 49.769999999999996,96.88999999999999C50.18,96.41 50.61,95.88 51.004999999999995,95.39500000000001C51.37,94.95 51.79,94.42 52.04,94.09C52.19,93.9 52.25,93.8 52.39,93.62C52.58,93.37 52.85,93.03 53.07,92.73C53.3,92.42 53.56,92.04 53.74,91.79C53.86,91.62 53.92,91.55 54.05,91.36C54.29,91.02 54.72,90.39 55.03,89.925C55.33,89.49 55.63,89.03 55.88,88.64C56.08,88.32 56.26,88.02 56.42,87.77C56.54,87.58 56.6,87.48 56.73,87.27C56.94,86.93 57.38,86.22 57.56,85.91C57.65,85.75 57.68,85.69 57.77,85.54C57.91,85.29 58.14,84.91 58.34,84.55C58.58,84.13 58.85,83.63 59.105000000000004,83.17C59.35,82.72 59.6,82.27 59.83,81.82C60.06,81.38 60.26,80.96 60.485,80.52000000000001C60.72,80.05 60.97,79.56 61.2,79.09C61.42,78.64 61.61,78.22 61.82,77.775C62.04,77.31 62.26,76.84 62.47,76.36C62.68,75.88 62.9,75.38 63.105000000000004,74.91499999999999C63.29,74.48 63.47,74.07 63.65,73.64C63.84,73.19 64.06,72.65 64.21,72.27C64.32,72 64.39,71.8 64.48,71.57C64.57,71.35 64.65,71.17 64.75,70.91C64.9,70.54 65.1,70.01 65.27,69.55C65.45,69.08 65.63,68.58 65.805,68.11000000000001C65.97,67.67 66.12,67.26 66.27,66.82C66.43,66.37 66.59,65.9 66.74,65.45C66.89,65.01 67.04,64.58 67.185,64.13C67.34,63.67 67.49,63.19 67.64,62.73C67.79,62.27 67.93,61.82 68.07,61.36C68.21,60.9 68.36,60.42 68.505,59.965C68.64,59.52 68.77,59.09 68.9,58.64C69.03,58.19 69.16,57.73 69.29,57.27C69.42,56.82 69.58,56.28 69.68,55.91C69.75,55.65 69.8,55.46 69.86,55.24C69.92,55.01 69.98,54.82 70.05,54.55C70.15,54.17 70.29,53.64 70.41,53.18C70.53,52.73 70.65,52.27 70.76,51.82C70.88,51.36 71.02,50.77 71.1,50.45C71.14,50.28 71.16,50.22 71.2,50.06C71.26,49.81 71.36,49.44 71.44,49.09C71.54,48.68 71.65,48.18 71.76,47.73C71.87,47.27 71.97,46.82 72.08,46.36C72.18,45.91 72.3,45.38 72.39,45C72.45,44.72 72.5,44.51 72.55,44.28C72.6,44.06 72.64,43.89 72.69,43.64C72.77,43.27 72.88,42.73 72.98,42.27C73.07,41.82 73.17,41.36 73.26,40.91C73.35,40.46 73.45,40 73.54,39.55C73.63,39.09 73.75,38.49 73.81,38.18C73.84,38.01 73.86,37.96 73.89,37.8C73.94,37.55 74.01,37.17 74.08,36.82C74.16,36.4 74.25,35.91 74.34,35.45C74.42,35 74.51,34.54 74.59,34.09C74.67,33.64 74.76,33.18 74.84,32.73C74.92,32.27 75.01,31.77 75.08,31.36C75.14,31.03 75.19,30.73 75.23,30.48C75.26,30.3 75.28,30.2 75.32,30C75.38,29.66 75.48,29.09 75.55,28.64C75.63,28.18 75.7,27.73 75.77,27.27C75.84,26.82 75.92,26.36 75.99,25.91C76.06,25.46 76.14,25 76.21,24.55C76.28,24.09 76.35,23.6 76.42,23.18C76.48,22.81 76.54,22.41 76.58,22.16C76.6,22.02 76.61,21.97 76.63,21.82C76.67,21.52 76.76,20.91 76.83,20.45C76.9,20 76.96,19.54 77.03,19.09C77.09,18.64 77.16,18.18 77.22,17.73C77.28,17.27 77.35,16.82 77.41,16.36C77.47,15.91 77.54,15.45 77.6,15C77.66,14.55 77.72,14.06 77.78,13.64C77.83,13.27 77.89,12.85 77.92,12.6C77.94,12.46 77.94,12.42 77.96,12.27C78,11.97 78.08,11.36 78.14,10.91C78.2,10.46 78.25,10 78.31,9.55C78.37,9.09 78.42,8.64 78.48,8.18C78.54,7.73 78.6,7.27 78.65,6.82C78.71,6.36 78.76,5.91 78.81,5.45C78.86,5 78.92,4.54 78.97,4.09C79.02,3.64 79.08,3.18 79.13,2.73C79.18,2.29 79.22,1.88 79.27000000000001,1.435Q79.32,0.97 79.43,0L133,0L133,135L0,135Z" style="stroke: none; fill: rgb(60, 109, 78);"/><path d="M0,128.5Q1.06,128.3 1.34,128.24C1.47,128.21 1.5,128.21 1.63,128.18C1.87,128.13 2.32,128.03 2.69,127.95C3.11,127.86 3.58,127.75 4.03,127.65C4.48,127.55 4.92,127.45 5.37,127.35C5.82,127.25 6.3,127.14 6.72,127.05C7.08,126.97 7.5,126.88 7.74,126.82C7.88,126.79 7.92,126.78 8.06,126.74C8.35,126.67 8.95,126.51 9.4,126.4C9.85,126.29 10.3,126.18 10.75,126.07C11.2,125.96 11.66,125.84 12.09,125.73C12.48,125.63 12.97,125.51 13.2,125.45C13.31,125.42 13.32,125.42 13.43,125.39C13.69,125.32 14.33,125.15 14.78,125.02C15.23,124.9 15.67,124.77 16.12,124.64C16.57,124.52 17.09,124.37 17.46,124.27C17.72,124.2 17.89,124.15 18.11,124.09C18.34,124.02 18.54,123.96 18.81,123.88C19.19,123.76 19.7,123.6 20.15,123.46C20.6,123.32 21.07,123.18 21.49,123.05C21.86,122.94 22.31,122.81 22.55,122.73C22.68,122.69 22.71,122.67 22.84,122.63C23.12,122.53 23.73,122.33 24.18,122.18C24.63,122.03 25.11,121.86 25.53,121.72C25.9,121.59 26.34,121.44 26.58,121.36C26.71,121.32 26.74,121.31 26.87,121.26C27.15,121.16 27.76,120.93 28.21,120.76C28.66,120.59 29.18,120.4 29.56,120.26C29.83,120.16 30.04,120.09 30.27,120C30.49,119.92 30.65,119.84 30.9,119.74C31.26,119.59 31.79,119.38 32.24,119.2C32.7,119.02 33.16,118.84 33.615,118.65C34.06,118.46 34.49,118.26 34.93,118.07C35.37,117.87 35.94,117.63 36.27,117.48C36.47,117.39 36.56,117.35 36.74,117.27C36.99,117.16 37.3,117.01 37.62,116.86C38.02,116.67 38.59,116.4 38.96,116.22C39.22,116.1 39.39,116.02 39.61,115.91C39.84,115.8 40.03,115.69 40.3,115.55C40.67,115.36 41.29,115.04 41.65,114.86C41.89,114.74 42.05,114.66 42.26,114.55C42.49,114.43 42.71,114.3 42.99,114.14C43.37,113.93 44.02,113.56 44.33,113.39C44.5,113.3 44.55,113.27 44.71,113.18C44.96,113.04 45.33,112.82 45.68,112.61C46.09,112.37 46.57,112.09 47.010000000000005,111.815C47.46,111.54 47.97,111.2 48.36,110.95C48.66,110.76 48.9,110.61 49.14,110.45C49.35,110.32 49.48,110.23 49.71,110.07C50.07,109.83 50.64,109.44 51.095,109.12C51.54,108.81 52.04,108.44 52.39,108.18C52.63,108 52.8,107.89 53.01,107.73C53.24,107.55 53.48,107.37 53.74,107.16C54.05,106.92 54.53,106.55 54.77,106.36C54.9,106.25 54.94,106.22 55.08,106.11C55.37,105.87 55.97,105.38 56.42,105C56.87,104.62 57.52,104.05 57.77,103.83C57.87,103.74 57.88,103.73 57.98,103.64C58.21,103.43 58.84,102.84 59.11,102.59C59.26,102.45 59.32,102.41 59.46,102.27C59.71,102.04 60.19,101.55 60.45,101.3C60.61,101.14 60.69,101.07 60.85,100.91C61.1,100.66 61.56,100.18 61.8,99.93C61.95,99.77 62.02,99.71 62.17,99.55C62.42,99.29 62.91,98.74 63.14,98.49C63.26,98.36 63.3,98.32 63.42,98.18C63.67,97.9 64.16,97.34 64.545,96.88999999999999C64.95,96.41 65.39,95.88 65.785,95.39500000000001C66.15,94.95 66.57,94.42 66.82,94.09C66.97,93.9 67.03,93.8 67.17,93.62C67.36,93.37 67.62,93.03 67.84,92.73C68.07,92.42 68.34,92.04 68.52,91.79C68.64,91.62 68.69,91.55 68.82,91.36C69.05,91.02 69.49,90.39 69.81,89.925C70.11,89.49 70.41,89.03 70.66,88.64C70.86,88.32 71.04,88.02 71.2,87.77C71.32,87.58 71.38,87.48 71.51,87.27C71.72,86.93 72.14,86.22 72.33,85.91C72.43,85.75 72.46,85.69 72.55,85.54C72.7,85.29 72.92,84.91 73.12,84.55C73.36,84.13 73.64,83.63 73.88499999999999,83.17C74.13,82.72 74.37,82.27 74.6,81.82C74.83,81.38 75.04,80.96 75.265,80.52000000000001C75.5,80.06 75.74,79.56 75.97,79.09C76.19,78.64 76.39,78.22 76.6,77.775C76.82,77.31 77.03,76.83 77.24,76.36C77.46,75.88 77.68,75.38 77.88499999999999,74.91499999999999C78.08,74.48 78.25,74.07 78.43,73.64C78.62,73.19 78.84,72.65 78.99,72.27C79.1,72 79.17,71.8 79.26,71.57C79.35,71.35 79.43,71.17 79.53,70.91C79.68,70.54 79.88,70.01 80.05,69.55C80.23,69.08 80.41,68.58 80.58,68.11000000000001C80.74,67.67 80.89,67.26 81.04,66.82C81.2,66.37 81.36,65.9 81.52,65.45C81.67,65.01 81.82,64.58 81.965,64.13C82.12,63.67 82.27,63.19 82.42,62.73C82.57,62.27 82.71,61.82 82.85,61.36C82.99,60.9 83.14,60.42 83.28,59.965C83.42,59.52 83.55,59.09 83.68,58.64C83.81,58.19 83.94,57.73 84.07,57.27C84.2,56.82 84.34,56.28 84.45,55.91C84.52,55.65 84.58,55.47 84.64,55.24C84.7,55.01 84.76,54.82 84.83,54.55C84.93,54.17 85.07,53.64 85.19,53.18C85.31,52.73 85.43,52.27 85.54,51.82C85.66,51.36 85.8,50.77 85.88,50.45C85.92,50.28 85.94,50.22 85.98,50.06C86.04,49.81 86.14,49.44 86.22,49.09C86.32,48.68 86.43,48.18 86.54,47.73C86.65,47.27 86.76,46.82 86.86,46.36C86.96,45.91 87.08,45.38 87.16,45C87.22,44.72 87.27,44.51 87.32,44.28C87.37,44.06 87.4,43.89 87.46,43.64C87.54,43.27 87.66,42.73 87.76,42.27C87.86,41.82 87.95,41.36 88.04,40.91C88.13,40.46 88.23,40 88.32,39.55C88.41,39.09 88.53,38.49 88.59,38.18C88.62,38.01 88.64,37.96 88.67,37.8C88.72,37.55 88.79,37.17 88.86,36.82C88.94,36.4 89.03,35.91 89.12,35.45C89.2,35 89.29,34.54 89.37,34.09C89.45,33.64 89.54,33.18 89.62,32.73C89.7,32.27 89.79,31.77 89.86,31.36C89.92,31.03 89.97,30.73 90.01,30.48C90.04,30.3 90.06,30.2 90.09,30C90.15,29.66 90.24,29.09 90.32,28.64C90.4,28.18 90.47,27.73 90.55,27.27C90.62,26.82 90.7,26.36 90.77,25.91C90.84,25.46 90.92,25 90.99,24.55C91.06,24.09 91.14,23.6 91.2,23.18C91.25,22.82 91.31,22.41 91.35,22.16C91.37,22.02 91.38,21.97 91.4,21.82C91.45,21.52 91.54,20.91 91.61,20.45C91.68,20 91.74,19.54 91.81,19.09C91.87,18.64 91.94,18.18 92,17.73C92.06,17.27 92.13,16.82 92.19,16.36C92.25,15.91 92.32,15.45 92.38,15C92.44,14.55 92.5,14.06 92.56,13.64C92.61,13.27 92.67,12.85 92.7,12.6C92.72,12.46 92.72,12.42 92.74,12.27C92.78,11.97 92.86,11.36 92.92,10.91C92.98,10.46 93.03,10 93.09,9.55C93.15,9.09 93.2,8.64 93.26,8.18C93.31,7.73 93.37,7.27 93.42,6.82C93.48,6.36 93.53,5.91 93.59,5.45C93.64,5 93.7,4.54 93.75,4.09C93.8,3.64 93.85,3.18 93.9,2.73C93.95,2.29 94,1.88 94.05000000000001,1.435Q94.1,0.97 94.21,0L133,0L133,135L0,135Z" style="stroke: none; fill: rgb(72, 120, 89);"/><path d="M0,131.17Q1.03,131.02 1.34,130.97C1.51,130.94 1.57,130.94 1.73,130.91C1.98,130.87 2.34,130.8 2.69,130.74C3.1,130.67 3.58,130.59 4.03,130.51C4.48,130.43 4.92,130.35 5.37,130.27C5.82,130.19 6.27,130.12 6.72,130.04C7.17,129.96 7.61,129.88 8.06,129.8C8.52,129.72 9.01,129.65 9.465,129.56C9.9,129.48 10.32,129.39 10.75,129.3C11.19,129.21 11.64,129.13 12.09,129.04C12.54,128.95 12.98,128.86 13.43,128.77C13.88,128.68 14.33,128.59 14.78,128.5C15.23,128.41 15.84,128.3 16.12,128.24C16.25,128.21 16.28,128.21 16.41,128.18C16.65,128.13 17.09,128.03 17.46,127.95C17.88,127.86 18.36,127.75 18.81,127.65C19.26,127.55 19.7,127.45 20.15,127.35C20.6,127.25 21.07,127.14 21.49,127.05C21.85,126.97 22.26,126.88 22.51,126.82C22.65,126.79 22.69,126.78 22.84,126.74C23.14,126.67 23.73,126.51 24.18,126.4C24.63,126.29 25.08,126.18 25.53,126.07C25.98,125.96 26.45,125.84 26.87,125.73C27.25,125.63 27.74,125.51 27.97,125.45C28.08,125.42 28.1,125.42 28.21,125.39C28.48,125.32 29.11,125.15 29.56,125.02C30.01,124.9 30.45,124.77 30.9,124.64C31.35,124.52 31.87,124.37 32.24,124.27C32.5,124.2 32.67,124.15 32.89,124.09C33.12,124.02 33.32,123.96 33.59,123.88C33.97,123.76 34.48,123.6 34.93,123.46C35.38,123.32 35.85,123.18 36.27,123.05C36.64,122.94 37.09,122.81 37.33,122.73C37.46,122.69 37.49,122.67 37.62,122.63C37.9,122.53 38.51,122.33 38.96,122.18C39.41,122.03 39.88,121.86 40.3,121.72C40.67,121.59 41.12,121.44 41.36,121.36C41.49,121.32 41.52,121.31 41.65,121.26C41.93,121.16 42.54,120.93 42.99,120.76C43.44,120.59 43.95,120.4 44.33,120.26C44.6,120.16 44.81,120.09 45.04,120C45.26,119.92 45.43,119.84 45.68,119.74C46.04,119.59 46.57,119.38 47.02,119.2C47.47,119.02 47.94,118.84 48.39,118.65C48.84,118.46 49.27,118.26 49.71,118.07C50.16,117.87 50.72,117.63 51.05,117.48C51.25,117.39 51.34,117.35 51.52,117.27C51.77,117.16 52.07,117.01 52.39,116.86C52.79,116.67 53.37,116.4 53.74,116.22C53.99,116.1 54.16,116.02 54.38,115.91C54.61,115.8 54.81,115.69 55.08,115.55C55.45,115.36 56.06,115.04 56.42,114.86C56.66,114.74 56.82,114.66 57.03,114.55C57.27,114.42 57.49,114.3 57.77,114.14C58.15,113.93 58.8,113.56 59.11,113.39C59.28,113.3 59.34,113.27 59.49,113.18C59.74,113.04 60.1,112.82 60.45,112.61C60.86,112.37 61.34,112.09 61.79,111.815C62.24,111.54 62.75,111.2 63.14,110.95C63.44,110.76 63.68,110.61 63.92,110.45C64.12,110.32 64.25,110.23 64.48,110.07C64.84,109.82 65.42,109.44 65.875,109.12C66.32,108.81 66.82,108.44 67.17,108.18C67.41,108 67.58,107.89 67.79,107.73C68.02,107.55 68.26,107.37 68.52,107.16C68.83,106.92 69.31,106.55 69.55,106.36C69.68,106.25 69.72,106.22 69.86,106.11C70.15,105.87 70.75,105.38 71.2,105C71.65,104.62 72.3,104.05 72.55,103.83C72.65,103.74 72.66,103.73 72.76,103.64C72.99,103.43 73.62,102.84 73.89,102.59C74.04,102.45 74.09,102.41 74.23,102.27C74.48,102.03 74.97,101.55 75.23,101.3C75.39,101.14 75.47,101.07 75.63,100.91C75.88,100.66 76.34,100.18 76.58,99.93C76.73,99.77 76.8,99.71 76.95,99.55C77.2,99.29 77.69,98.74 77.92,98.49C78.04,98.36 78.08,98.32 78.2,98.18C78.45,97.9 78.94,97.34 79.325,96.88999999999999C79.73,96.41 80.17,95.88 80.565,95.39500000000001C80.93,94.95 81.35,94.42 81.6,94.09C81.75,93.9 81.81,93.8 81.95,93.62C82.14,93.37 82.4,93.03 82.62,92.73C82.85,92.42 83.11,92.04 83.29,91.79C83.41,91.62 83.47,91.55 83.6,91.36C83.84,91.02 84.28,90.39 84.59,89.925C84.88,89.49 85.18,89.03 85.43,88.64C85.63,88.32 85.82,88.02 85.98,87.77C86.1,87.58 86.16,87.48 86.29,87.27C86.5,86.93 86.93,86.22 87.11,85.91C87.2,85.75 87.23,85.69 87.32,85.54C87.46,85.29 87.7,84.91 87.9,84.55C88.14,84.13 88.41,83.63 88.66,83.17C88.9,82.72 89.15,82.27 89.38,81.82C89.61,81.38 89.82,80.96 90.045,80.52000000000001C90.28,80.06 90.52,79.56 90.75,79.09C90.97,78.64 91.17,78.22 91.375,77.775C91.59,77.31 91.81,76.83 92.02,76.36C92.24,75.88 92.46,75.38 92.66,74.91499999999999C92.85,74.48 93.02,74.07 93.2,73.64C93.39,73.19 93.61,72.65 93.76,72.27C93.87,72 93.95,71.8 94.04,71.57C94.13,71.35 94.2,71.17 94.3,70.91C94.45,70.54 94.66,70.01 94.83,69.55C95.01,69.08 95.19,68.58 95.35499999999999,68.11000000000001C95.52,67.67 95.66,67.26 95.82,66.82C95.98,66.37 96.15,65.9 96.3,65.45C96.45,65.01 96.59,64.58 96.74000000000001,64.13C96.89,63.67 97.05,63.19 97.2,62.73C97.35,62.27 97.49,61.82 97.63,61.36C97.77,60.9 97.92,60.42 98.06,59.965C98.19,59.52 98.32,59.09 98.45,58.64C98.58,58.19 98.72,57.73 98.85,57.27C98.98,56.82 99.13,56.28 99.23,55.91C99.3,55.65 99.35,55.46 99.41,55.24C99.47,55.01 99.53,54.82 99.6,54.55C99.7,54.17 99.85,53.64 99.97,53.18C100.09,52.73 100.21,52.27 100.32,51.82C100.44,51.36 100.58,50.77 100.66,50.45C100.7,50.28 100.72,50.22 100.76,50.06C100.82,49.81 100.91,49.44 100.99,49.09C101.09,48.67 101.21,48.18 101.32,47.73C101.43,47.27 101.53,46.82 101.63,46.36C101.73,45.91 101.85,45.38 101.94,45C102,44.72 102.05,44.51 102.1,44.28C102.15,44.06 102.19,43.89 102.24,43.64C102.32,43.27 102.43,42.73 102.53,42.27C102.63,41.82 102.72,41.36 102.82,40.91C102.91,40.46 103.01,40 103.1,39.55C103.19,39.09 103.31,38.5 103.37,38.18C103.4,38.01 103.41,37.96 103.44,37.8C103.49,37.55 103.56,37.17 103.63,36.82C103.71,36.4 103.8,35.91 103.89,35.45C103.98,35 104.07,34.54 104.15,34.09C104.23,33.64 104.31,33.18 104.39,32.73C104.47,32.27 104.57,31.77 104.64,31.36C104.7,31.03 104.75,30.73 104.79,30.48C104.82,30.3 104.84,30.2 104.87,30C104.93,29.66 105.02,29.09 105.1,28.64C105.18,28.18 105.25,27.73 105.33,27.27C105.4,26.82 105.48,26.36 105.55,25.91C105.62,25.46 105.69,25 105.76,24.55C105.83,24.09 105.91,23.6 105.98,23.18C106.04,22.82 106.09,22.41 106.13,22.16C106.15,22.02 106.16,21.97 106.18,21.82C106.23,21.52 106.32,20.91 106.39,20.45C106.46,20 106.52,19.54 106.58,19.09C106.65,18.64 106.72,18.18 106.78,17.73C106.85,17.27 106.91,16.82 106.97,16.36C107.03,15.91 107.1,15.45 107.16,15C107.22,14.55 107.29,14.06 107.34,13.64C107.39,13.27 107.44,12.85 107.47,12.6C107.49,12.46 107.5,12.42 107.52,12.27C107.56,11.97 107.63,11.36 107.69,10.91C107.75,10.46 107.81,10 107.87,9.55C107.93,9.09 107.98,8.64 108.04,8.18C108.09,7.73 108.15,7.27 108.2,6.82C108.25,6.36 108.31,5.91 108.36,5.45C108.41,5 108.47,4.54 108.52,4.09C108.57,3.64 108.63,3.18 108.68,2.73C108.73,2.29 108.77,1.88 108.82499999999999,1.435Q108.88,0.97 108.99,0L133,0L133,135L0,135Z" style="stroke: none; fill: rgb(83, 132, 101);"/><path d="M0,133.28Q0.89,133.16 1.34,133.1C1.79,133.04 2.24,132.98 2.69,132.92C3.14,132.86 3.58,132.8 4.03,132.74C4.48,132.68 4.92,132.62 5.37,132.56C5.82,132.5 6.32,132.44 6.72,132.39C7.04,132.35 7.33,132.3 7.58,132.27C7.76,132.24 7.86,132.23 8.06,132.2C8.39,132.15 8.95,132.06 9.4,131.99C9.85,131.92 10.3,131.86 10.75,131.79C11.2,131.72 11.64,131.65 12.09,131.58C12.54,131.51 12.98,131.45 13.43,131.38C13.88,131.31 14.33,131.24 14.78,131.17C15.23,131.1 15.81,131.02 16.12,130.97C16.29,130.94 16.35,130.94 16.51,130.91C16.76,130.87 17.12,130.8 17.46,130.74C17.87,130.67 18.36,130.59 18.81,130.51C19.26,130.43 19.7,130.35 20.15,130.27C20.6,130.19 21.04,130.12 21.49,130.04C21.94,129.96 22.39,129.88 22.84,129.8C23.3,129.72 23.79,129.65 24.244999999999997,129.56C24.68,129.48 25.1,129.39 25.53,129.3C25.97,129.21 26.42,129.13 26.87,129.04C27.32,128.95 27.76,128.86 28.21,128.77C28.66,128.68 29.11,128.59 29.56,128.5C30.01,128.41 30.62,128.3 30.9,128.24C31.03,128.21 31.06,128.21 31.18,128.18C31.42,128.13 31.87,128.03 32.24,127.95C32.66,127.86 33.14,127.75 33.59,127.65C34.04,127.55 34.48,127.45 34.93,127.35C35.38,127.25 35.85,127.14 36.27,127.05C36.63,126.97 37.04,126.88 37.29,126.82C37.43,126.79 37.47,126.78 37.62,126.74C37.92,126.67 38.51,126.51 38.96,126.4C39.41,126.29 39.85,126.18 40.3,126.07C40.75,125.96 41.22,125.84 41.65,125.73C42.04,125.63 42.52,125.51 42.75,125.45C42.86,125.42 42.88,125.42 42.99,125.39C43.26,125.32 43.88,125.14 44.33,125.02C44.78,124.89 45.23,124.77 45.68,124.64C46.13,124.52 46.66,124.37 47.02,124.27C47.27,124.2 47.44,124.15 47.66,124.09C47.89,124.02 48.09,123.96 48.36,123.88C48.74,123.76 49.26,123.6 49.71,123.46C50.16,123.32 50.63,123.18 51.05,123.05C51.42,122.94 51.86,122.81 52.1,122.73C52.23,122.69 52.26,122.67 52.39,122.63C52.67,122.53 53.29,122.33 53.74,122.18C54.19,122.03 54.66,121.86 55.08,121.72C55.45,121.59 55.9,121.44 56.14,121.36C56.26,121.32 56.29,121.31 56.42,121.26C56.7,121.16 57.32,120.93 57.77,120.76C58.22,120.59 58.73,120.4 59.11,120.26C59.38,120.16 59.59,120.09 59.82,120C60.04,119.92 60.2,119.84 60.45,119.74C60.81,119.59 61.35,119.38 61.8,119.2C62.26,119.02 62.72,118.84 63.17,118.65C63.61,118.46 64.04,118.26 64.48,118.07C64.93,117.87 65.5,117.63 65.83,117.48C66.03,117.39 66.12,117.35 66.3,117.27C66.55,117.16 66.85,117.01 67.17,116.86C67.57,116.67 68.15,116.4 68.52,116.22C68.77,116.1 68.94,116.02 69.16,115.91C69.39,115.8 69.59,115.69 69.86,115.55C70.23,115.36 70.84,115.04 71.2,114.86C71.44,114.74 71.6,114.66 71.81,114.55C72.05,114.42 72.27,114.3 72.55,114.14C72.93,113.93 73.58,113.56 73.89,113.39C74.06,113.3 74.12,113.27 74.27,113.18C74.52,113.04 74.88,112.82 75.23,112.61C75.64,112.37 76.12,112.09 76.57,111.815C77.02,111.54 77.53,111.2 77.92,110.95C78.22,110.76 78.46,110.61 78.7,110.45C78.9,110.32 79.03,110.23 79.26,110.07C79.62,109.82 80.2,109.44 80.65,109.12C81.09,108.81 81.6,108.44 81.95,108.18C82.19,108 82.36,107.89 82.57,107.73C82.8,107.55 83.03,107.37 83.29,107.16C83.6,106.91 84.09,106.55 84.33,106.36C84.46,106.25 84.5,106.22 84.64,106.11C84.93,105.87 85.54,105.38 85.98,105C86.43,104.62 87.06,104.05 87.32,103.83C87.42,103.74 87.44,103.73 87.54,103.64C87.77,103.43 88.4,102.84 88.67,102.59C88.82,102.45 88.87,102.41 89.01,102.27C89.26,102.03 89.75,101.55 90.01,101.3C90.17,101.14 90.25,101.07 90.41,100.91C90.66,100.66 91.11,100.18 91.35,99.93C91.5,99.77 91.58,99.71 91.73,99.55C91.98,99.29 92.47,98.74 92.7,98.49C92.82,98.36 92.86,98.32 92.98,98.18C93.23,97.9 93.72,97.34 94.105,96.88999999999999C94.51,96.41 94.95,95.88 95.34,95.39500000000001C95.7,94.95 96.12,94.42 96.37,94.09C96.52,93.89 96.59,93.8 96.73,93.62C96.92,93.37 97.18,93.03 97.4,92.73C97.63,92.42 97.89,92.04 98.07,91.79C98.19,91.62 98.25,91.55 98.38,91.36C98.62,91.02 99.05,90.39 99.365,89.925C99.66,89.49 99.96,89.03 100.21,88.64C100.41,88.32 100.6,88.02 100.76,87.77C100.88,87.58 100.94,87.48 101.07,87.27C101.28,86.93 101.71,86.22 101.89,85.91C101.98,85.75 102.01,85.69 102.1,85.54C102.24,85.29 102.48,84.91 102.68,84.55C102.92,84.13 103.19,83.63 103.435,83.17C103.68,82.72 103.93,82.27 104.16,81.82C104.39,81.38 104.6,80.96 104.825,80.52000000000001C105.06,80.06 105.3,79.56 105.53,79.09C105.75,78.64 105.95,78.22 106.155,77.775C106.37,77.31 106.59,76.83 106.8,76.36C107.01,75.88 107.23,75.38 107.435,74.91499999999999C107.62,74.48 107.8,74.07 107.98,73.64C108.17,73.19 108.39,72.65 108.54,72.27C108.65,72 108.73,71.8 108.82,71.57C108.91,71.35 108.98,71.17 109.08,70.91C109.22,70.54 109.43,70.01 109.6,69.55C109.78,69.08 109.96,68.58 110.13499999999999,68.11000000000001C110.3,67.67 110.45,67.26 110.6,66.82C110.76,66.37 110.92,65.9 111.07,65.45C111.22,65.01 111.37,64.58 111.52000000000001,64.13C111.67,63.67 111.83,63.19 111.98,62.73C112.13,62.27 112.27,61.82 112.41,61.36C112.55,60.9 112.7,60.42 112.84,59.965C112.97,59.52 113.1,59.09 113.23,58.64C113.36,58.19 113.5,57.73 113.63,57.27C113.76,56.82 113.91,56.28 114.01,55.91C114.08,55.65 114.13,55.46 114.19,55.24C114.25,55.01 114.31,54.82 114.38,54.55C114.48,54.17 114.62,53.64 114.74,53.18C114.86,52.73 114.98,52.27 115.1,51.82C115.22,51.36 115.36,50.77 115.44,50.45C115.48,50.28 115.5,50.22 115.54,50.06C115.6,49.81 115.69,49.44 115.77,49.09C115.87,48.67 115.99,48.18 116.1,47.73C116.21,47.27 116.31,46.82 116.41,46.36C116.51,45.91 116.63,45.38 116.72,45C116.78,44.72 116.83,44.51 116.88,44.28C116.93,44.06 116.97,43.89 117.02,43.64C117.1,43.27 117.21,42.73 117.31,42.27C117.41,41.82 117.5,41.36 117.6,40.91C117.69,40.46 117.79,40 117.88,39.55C117.97,39.09 118.09,38.5 118.15,38.18C118.18,38.01 118.19,37.96 118.22,37.8C118.27,37.55 118.34,37.17 118.41,36.82C118.49,36.4 118.58,35.91 118.67,35.45C118.75,35 118.84,34.54 118.92,34.09C119,33.64 119.09,33.18 119.17,32.73C119.25,32.27 119.34,31.77 119.41,31.36C119.47,31.03 119.53,30.73 119.57,30.48C119.6,30.3 119.62,30.2 119.65,30C119.71,29.66 119.8,29.09 119.88,28.64C119.96,28.18 120.03,27.73 120.11,27.27C120.18,26.82 120.26,26.36 120.33,25.91C120.4,25.46 120.47,25 120.54,24.55C120.61,24.09 120.68,23.6 120.75,23.18C120.81,22.81 120.87,22.41 120.91,22.16C120.93,22.02 120.94,21.97 120.96,21.82C121,21.52 121.09,20.91 121.16,20.45C121.23,20 121.29,19.54 121.36,19.09C121.43,18.64 121.5,18.18 121.56,17.73C121.63,17.27 121.69,16.82 121.75,16.36C121.81,15.91 121.87,15.45 121.93,15C121.99,14.55 122.06,14.06 122.12,13.64C122.17,13.27 122.22,12.85 122.25,12.6C122.27,12.46 122.28,12.42 122.3,12.27C122.34,11.97 122.41,11.36 122.47,10.91C122.53,10.46 122.58,10 122.64,9.55C122.7,9.09 122.75,8.64 122.81,8.18C122.87,7.73 122.93,7.27 122.98,6.82C123.04,6.36 123.09,5.91 123.14,5.45C123.19,5 123.25,4.54 123.3,4.09C123.35,3.64 123.41,3.18 123.46,2.73C123.51,2.29 123.56,1.88 123.60499999999999,1.435Q123.66,0.97 123.76,0L133,0L133,135L0,135Z" style="stroke: none; fill: rgb(95, 144, 112);"/><path d="M0,135Q0.89,134.9 1.34,134.85C1.79,134.8 2.24,134.75 2.69,134.7C3.14,134.65 3.58,134.59 4.03,134.54C4.48,134.49 4.92,134.44 5.37,134.39C5.82,134.34 6.27,134.29 6.72,134.24C7.17,134.19 7.61,134.14 8.06,134.09C8.51,134.04 8.95,133.99 9.4,133.94C9.85,133.89 10.3,133.83 10.75,133.78C11.19,133.73 11.63,133.69 12.07,133.635C12.52,133.58 12.98,133.51 13.43,133.45C13.88,133.39 14.33,133.34 14.78,133.28C15.23,133.22 15.67,133.16 16.12,133.1C16.57,133.04 17.01,132.98 17.46,132.92C17.91,132.86 18.36,132.8 18.81,132.74C19.26,132.68 19.7,132.62 20.15,132.56C20.6,132.5 21.09,132.44 21.49,132.39C21.81,132.35 22.11,132.31 22.36,132.27C22.54,132.24 22.64,132.23 22.84,132.2C23.17,132.15 23.73,132.06 24.18,131.99C24.63,131.92 25.08,131.86 25.53,131.79C25.98,131.72 26.42,131.65 26.87,131.58C27.32,131.51 27.76,131.45 28.21,131.38C28.66,131.31 29.11,131.24 29.56,131.17C30.01,131.1 30.59,131.02 30.9,130.97C31.07,130.94 31.12,130.94 31.28,130.91C31.53,130.87 31.89,130.8 32.24,130.74C32.65,130.67 33.14,130.59 33.59,130.51C34.04,130.43 34.48,130.35 34.93,130.27C35.38,130.19 35.82,130.12 36.27,130.04C36.72,129.96 37.17,129.88 37.62,129.8C38.08,129.72 38.56,129.65 39.019999999999996,129.56C39.46,129.48 39.87,129.39 40.3,129.3C40.74,129.21 41.2,129.13 41.65,129.04C42.1,128.95 42.54,128.86 42.99,128.77C43.44,128.68 43.88,128.59 44.33,128.5C44.78,128.41 45.4,128.3 45.68,128.24C45.81,128.21 45.84,128.21 45.96,128.18C46.2,128.13 46.65,128.03 47.02,127.95C47.44,127.86 47.91,127.75 48.36,127.65C48.81,127.55 49.26,127.45 49.71,127.35C50.16,127.25 50.63,127.14 51.05,127.05C51.41,126.97 51.83,126.88 52.07,126.82C52.21,126.79 52.25,126.78 52.39,126.74C52.68,126.67 53.29,126.51 53.74,126.4C54.19,126.29 54.63,126.18 55.08,126.07C55.53,125.96 55.99,125.84 56.42,125.73C56.81,125.63 57.3,125.51 57.53,125.45C57.64,125.42 57.66,125.42 57.77,125.39C58.04,125.32 58.66,125.14 59.11,125.02C59.56,124.89 60,124.76 60.45,124.64C60.9,124.51 61.43,124.37 61.8,124.27C62.05,124.2 62.22,124.15 62.44,124.09C62.67,124.02 62.87,123.96 63.14,123.88C63.52,123.76 64.03,123.6 64.48,123.46C64.93,123.32 65.41,123.18 65.83,123.05C66.2,122.94 66.64,122.81 66.88,122.73C67.01,122.69 67.04,122.67 67.17,122.63C67.45,122.53 68.07,122.33 68.52,122.18C68.97,122.03 69.44,121.86 69.86,121.72C70.23,121.59 70.68,121.44 70.92,121.36C71.04,121.32 71.07,121.31 71.2,121.26C71.48,121.16 72.1,120.93 72.55,120.76C73,120.59 73.51,120.4 73.89,120.26C74.16,120.16 74.37,120.09 74.6,120C74.82,119.92 74.98,119.84 75.23,119.74C75.59,119.59 76.13,119.38 76.58,119.2C77.03,119.02 77.5,118.84 77.945,118.65C78.39,118.46 78.82,118.26 79.26,118.07C79.71,117.87 80.28,117.63 80.61,117.48C80.81,117.39 80.9,117.35 81.08,117.27C81.33,117.16 81.63,117.01 81.95,116.86C82.35,116.67 82.92,116.4 83.29,116.22C83.55,116.1 83.72,116.02 83.94,115.91C84.17,115.8 84.37,115.69 84.64,115.55C85.01,115.36 85.62,115.04 85.98,114.86C86.22,114.74 86.38,114.66 86.59,114.55C86.82,114.43 87.04,114.3 87.32,114.14C87.7,113.93 88.36,113.56 88.67,113.39C88.84,113.3 88.9,113.27 89.05,113.18C89.3,113.04 89.66,112.82 90.01,112.61C90.42,112.37 90.9,112.09 91.34,111.82C91.79,111.54 92.31,111.2 92.7,110.95C92.99,110.76 93.23,110.61 93.47,110.45C93.67,110.32 93.81,110.23 94.04,110.07C94.4,109.83 94.97,109.44 95.425,109.12C95.87,108.81 96.38,108.44 96.73,108.18C96.97,108 97.13,107.89 97.34,107.73C97.57,107.55 97.81,107.37 98.07,107.16C98.38,106.92 98.86,106.55 99.1,106.36C99.23,106.25 99.27,106.22 99.41,106.11C99.7,105.87 100.31,105.38 100.76,105C101.21,104.62 101.84,104.05 102.1,103.83C102.2,103.74 102.22,103.73 102.32,103.64C102.55,103.43 103.17,102.84 103.44,102.59C103.59,102.45 103.64,102.41 103.79,102.27C104.04,102.04 104.53,101.55 104.79,101.3C104.95,101.14 105.02,101.07 105.18,100.91C105.43,100.66 105.89,100.18 106.13,99.93C106.28,99.77 106.35,99.71 106.5,99.55C106.75,99.29 107.24,98.74 107.47,98.49C107.59,98.36 107.63,98.32 107.75,98.18C108,97.9 108.5,97.34 108.88,96.88999999999999C109.29,96.41 109.72,95.88 110.115,95.39500000000001C110.48,94.95 110.9,94.42 111.15,94.09C111.3,93.89 111.37,93.8 111.51,93.62C111.7,93.37 111.96,93.03 112.18,92.73C112.41,92.42 112.67,92.04 112.85,91.79C112.97,91.62 113.03,91.55 113.16,91.36C113.4,91.02 113.83,90.39 114.14,89.925C114.44,89.49 114.74,89.03 114.99,88.64C115.2,88.32 115.38,88.02 115.54,87.77C115.66,87.58 115.72,87.48 115.85,87.27C116.06,86.93 116.49,86.22 116.67,85.91C116.76,85.75 116.79,85.69 116.88,85.54C117.02,85.29 117.25,84.91 117.45,84.55C117.69,84.13 117.96,83.63 118.215,83.17C118.46,82.72 118.71,82.27 118.94,81.82C119.17,81.38 119.38,80.96 119.60499999999999,80.52000000000001C119.84,80.06 120.08,79.56 120.31,79.09C120.53,78.64 120.72,78.22 120.93,77.775C121.15,77.31 121.37,76.84 121.58,76.36C121.79,75.88 122.01,75.38 122.215,74.91499999999999C122.4,74.48 122.58,74.07 122.76,73.64C122.95,73.19 123.17,72.65 123.32,72.27C123.43,72 123.51,71.8 123.6,71.57C123.69,71.35 123.76,71.17 123.86,70.91C124,70.54 124.21,70.01 124.38,69.55C124.56,69.08 124.74,68.58 124.91499999999999,68.11000000000001C125.08,67.67 125.23,67.26 125.38,66.82C125.54,66.37 125.7,65.9 125.85,65.45C126,65.01 126.15,64.58 126.295,64.13C126.45,63.67 126.6,63.19 126.75,62.73C126.9,62.27 127.05,61.82 127.19,61.36C127.33,60.9 127.48,60.42 127.615,59.965C127.75,59.52 127.88,59.09 128.01,58.64C128.14,58.19 128.27,57.73 128.4,57.27C128.53,56.82 128.69,56.28 128.79,55.91C128.86,55.65 128.91,55.46 128.97,55.24C129.03,55.01 129.09,54.82 129.16,54.55C129.26,54.17 129.4,53.64 129.52,53.18C129.64,52.73 129.75,52.27 129.87,51.82C129.99,51.36 130.14,50.77 130.22,50.45C130.26,50.28 130.27,50.22 130.31,50.06C130.37,49.81 130.47,49.44 130.55,49.09C130.65,48.68 130.76,48.18 130.87,47.73C130.98,47.27 131.08,46.82 131.19,46.36C131.29,45.91 131.41,45.38 131.5,45C131.56,44.72 131.61,44.51 131.66,44.28C131.71,44.06 131.75,43.89 131.8,43.64C131.88,43.27 131.99,42.73 132.09,42.27C132.19,41.82 132.29,41.36 132.38,40.91C132.47,40.46 132.56,40 132.65,39.55C132.74,39.09 132.87,38.5 132.93,38.18Q132.96,38.01 133,37.8L133,135Z" style="stroke: none; fill: rgb(106, 155, 124);"/><path d="M14.78,135Q15.67,134.9 16.12,134.85C16.57,134.8 17.01,134.75 17.46,134.7C17.91,134.65 18.36,134.59 18.81,134.54C19.26,134.49 19.7,134.44 20.15,134.39C20.6,134.34 21.04,134.29 21.49,134.24C21.94,134.19 22.39,134.14 22.84,134.09C23.29,134.04 23.73,133.99 24.18,133.94C24.63,133.89 25.08,133.83 25.53,133.78C25.97,133.73 26.4,133.69 26.845,133.635C27.3,133.58 27.76,133.51 28.21,133.45C28.66,133.39 29.11,133.34 29.56,133.28C30.01,133.22 30.45,133.16 30.9,133.1C31.35,133.04 31.79,132.98 32.24,132.92C32.69,132.86 33.14,132.8 33.59,132.74C34.04,132.68 34.48,132.62 34.93,132.56C35.38,132.5 35.87,132.44 36.27,132.39C36.59,132.35 36.89,132.31 37.14,132.27C37.32,132.24 37.42,132.23 37.62,132.2C37.95,132.15 38.51,132.06 38.96,131.99C39.41,131.92 39.85,131.86 40.3,131.79C40.75,131.72 41.2,131.65 41.65,131.58C42.1,131.51 42.54,131.45 42.99,131.38C43.44,131.31 43.88,131.24 44.33,131.17C44.78,131.1 45.37,131.02 45.68,130.97C45.85,130.94 45.9,130.94 46.06,130.91C46.31,130.87 46.67,130.8 47.02,130.74C47.43,130.67 47.91,130.59 48.36,130.51C48.81,130.43 49.26,130.35 49.71,130.27C50.16,130.19 50.6,130.12 51.05,130.04C51.5,129.96 51.94,129.88 52.39,129.8C52.85,129.72 53.34,129.65 53.8,129.56C54.24,129.48 54.65,129.39 55.08,129.3C55.52,129.21 55.97,129.13 56.42,129.04C56.87,128.95 57.32,128.86 57.77,128.77C58.22,128.68 58.66,128.59 59.11,128.5C59.56,128.41 60.17,128.3 60.45,128.24C60.58,128.21 60.61,128.21 60.74,128.18C60.98,128.13 61.43,128.03 61.8,127.95C62.22,127.86 62.69,127.75 63.14,127.65C63.59,127.55 64.03,127.45 64.48,127.35C64.93,127.25 65.41,127.14 65.83,127.05C66.19,126.97 66.61,126.88 66.85,126.82C66.99,126.79 67.03,126.78 67.17,126.74C67.46,126.67 68.07,126.51 68.52,126.4C68.97,126.29 69.41,126.18 69.86,126.07C70.31,125.96 70.77,125.84 71.2,125.73C71.59,125.63 72.08,125.51 72.31,125.45C72.42,125.42 72.44,125.42 72.55,125.39C72.82,125.32 73.44,125.14 73.89,125.02C74.34,124.89 74.78,124.76 75.23,124.64C75.68,124.51 76.21,124.37 76.58,124.27C76.83,124.2 77,124.15 77.22,124.09C77.45,124.02 77.65,123.96 77.92,123.88C78.3,123.76 78.81,123.6 79.26,123.46C79.71,123.32 80.19,123.18 80.61,123.05C80.98,122.94 81.42,122.81 81.66,122.73C81.79,122.69 81.82,122.67 81.95,122.63C82.23,122.53 82.84,122.33 83.29,122.18C83.74,122.03 84.22,121.86 84.64,121.72C85.01,121.59 85.45,121.44 85.69,121.36C85.82,121.32 85.85,121.31 85.98,121.26C86.26,121.16 86.87,120.93 87.32,120.76C87.77,120.59 88.29,120.4 88.67,120.26C88.94,120.16 89.15,120.09 89.38,120C89.6,119.92 89.76,119.84 90.01,119.74C90.37,119.59 90.9,119.38 91.35,119.2C91.81,119.02 92.27,118.84 92.725,118.65C93.17,118.46 93.6,118.26 94.04,118.07C94.48,117.87 95.05,117.63 95.38,117.48C95.58,117.39 95.67,117.35 95.85,117.27C96.1,117.16 96.41,117.01 96.73,116.86C97.13,116.67 97.7,116.4 98.07,116.22C98.33,116.1 98.5,116.02 98.72,115.91C98.95,115.8 99.14,115.69 99.41,115.55C99.78,115.36 100.4,115.04 100.76,114.86C101,114.74 101.16,114.66 101.37,114.55C101.6,114.43 101.82,114.3 102.1,114.14C102.48,113.93 103.13,113.56 103.44,113.39C103.61,113.3 103.67,113.27 103.83,113.18C104.08,113.04 104.44,112.82 104.79,112.61C105.2,112.37 105.68,112.09 106.12,111.82C106.57,111.54 107.08,111.2 107.47,110.95C107.77,110.76 108.01,110.61 108.25,110.45C108.46,110.32 108.59,110.23 108.82,110.07C109.18,109.83 109.75,109.44 110.205,109.12C110.65,108.81 111.16,108.44 111.51,108.18C111.75,108 111.91,107.89 112.12,107.73C112.35,107.55 112.59,107.37 112.85,107.16C113.16,106.92 113.64,106.55 113.88,106.36C114.01,106.25 114.05,106.22 114.19,106.11C114.48,105.87 115.09,105.38 115.54,105C115.99,104.62 116.62,104.05 116.88,103.83C116.98,103.74 117,103.73 117.1,103.64C117.33,103.43 117.95,102.84 118.22,102.59C118.37,102.45 118.42,102.41 118.57,102.27C118.82,102.04 119.31,101.55 119.57,101.3C119.73,101.14 119.8,101.07 119.96,100.91C120.21,100.66 120.67,100.18 120.91,99.93C121.06,99.77 121.13,99.71 121.28,99.55C121.53,99.29 122.02,98.74 122.25,98.49C122.37,98.36 122.41,98.32 122.53,98.18C122.78,97.9 123.28,97.34 123.66,96.88999999999999C124.07,96.41 124.5,95.88 124.895,95.39500000000001C125.26,94.95 125.68,94.42 125.93,94.09C126.08,93.9 126.14,93.8 126.28,93.62C126.47,93.37 126.74,93.03 126.96,92.73C127.19,92.42 127.45,92.04 127.63,91.79C127.75,91.62 127.8,91.55 127.93,91.36C128.16,91.02 128.6,90.39 128.92000000000002,89.925C129.22,89.49 129.52,89.03 129.77,88.64C129.97,88.32 130.15,88.02 130.31,87.77C130.43,87.58 130.49,87.48 130.62,87.27C130.83,86.93 131.25,86.22 131.44,85.91C131.54,85.75 131.57,85.69 131.66,85.54C131.81,85.29 132.03,84.91 132.23,84.55Q132.47,84.13 133,83.16L133,135Z" style="stroke: none; fill: rgb(118, 167, 135);"/><path d="M29.56,135Q30.45,134.9 30.9,134.85C31.35,134.8 31.79,134.75 32.24,134.7C32.69,134.65 33.14,134.59 33.59,134.54C34.04,134.49 34.48,134.44 34.93,134.39C35.38,134.34 35.82,134.29 36.27,134.24C36.72,134.19 37.17,134.14 37.62,134.09C38.07,134.04 38.51,133.99 38.96,133.94C39.41,133.89 39.85,133.83 40.3,133.78C40.74,133.73 41.18,133.69 41.625,133.635C42.08,133.58 42.54,133.51 42.99,133.45C43.44,133.39 43.88,133.34 44.33,133.28C44.78,133.22 45.23,133.16 45.68,133.1C46.13,133.04 46.57,132.98 47.02,132.92C47.47,132.86 47.91,132.8 48.36,132.74C48.81,132.68 49.26,132.62 49.71,132.56C50.16,132.5 50.65,132.44 51.05,132.39C51.37,132.35 51.66,132.3 51.91,132.27C52.09,132.24 52.19,132.23 52.39,132.2C52.73,132.15 53.29,132.06 53.74,131.99C54.19,131.92 54.63,131.86 55.08,131.79C55.53,131.72 55.97,131.65 56.42,131.58C56.87,131.51 57.32,131.45 57.77,131.38C58.22,131.31 58.66,131.24 59.11,131.17C59.56,131.1 60.14,131.02 60.45,130.97C60.62,130.94 60.68,130.94 60.84,130.91C61.09,130.87 61.45,130.8 61.8,130.74C62.21,130.67 62.69,130.59 63.14,130.51C63.59,130.43 64.03,130.35 64.48,130.27C64.93,130.19 65.38,130.12 65.83,130.04C66.28,129.96 66.72,129.88 67.17,129.8C67.63,129.72 68.12,129.65 68.58,129.56C69.02,129.48 69.43,129.39 69.86,129.3C70.3,129.21 70.75,129.13 71.2,129.04C71.65,128.95 72.1,128.86 72.55,128.77C73,128.68 73.44,128.59 73.89,128.5C74.34,128.41 74.95,128.3 75.23,128.24C75.36,128.21 75.39,128.21 75.52,128.18C75.76,128.13 76.21,128.03 76.58,127.95C77,127.86 77.47,127.75 77.92,127.65C78.37,127.55 78.81,127.45 79.26,127.35C79.71,127.25 80.19,127.14 80.61,127.05C80.97,126.97 81.38,126.88 81.62,126.82C81.76,126.79 81.8,126.78 81.95,126.74C82.25,126.67 82.84,126.51 83.29,126.4C83.74,126.29 84.19,126.18 84.64,126.07C85.09,125.96 85.55,125.84 85.98,125.73C86.37,125.63 86.86,125.51 87.09,125.45C87.2,125.42 87.21,125.42 87.32,125.39C87.58,125.32 88.22,125.15 88.67,125.02C89.12,124.9 89.56,124.77 90.01,124.64C90.46,124.52 90.98,124.37 91.35,124.27C91.61,124.2 91.78,124.15 92,124.09C92.23,124.02 92.43,123.96 92.7,123.88C93.08,123.76 93.59,123.6 94.04,123.46C94.49,123.32 94.96,123.18 95.38,123.05C95.75,122.94 96.2,122.81 96.44,122.73C96.57,122.69 96.6,122.67 96.73,122.63C97.01,122.53 97.62,122.33 98.07,122.18C98.52,122.03 98.99,121.86 99.41,121.72C99.78,121.59 100.23,121.44 100.47,121.36C100.6,121.32 100.63,121.31 100.76,121.26C101.04,121.16 101.65,120.93 102.1,120.76C102.55,120.59 103.06,120.4 103.44,120.26C103.71,120.16 103.92,120.09 104.15,120C104.37,119.92 104.54,119.84 104.79,119.74C105.15,119.59 105.68,119.38 106.13,119.2C106.58,119.02 107.05,118.84 107.5,118.65C107.95,118.46 108.38,118.26 108.82,118.07C109.27,117.87 109.83,117.63 110.16,117.48C110.36,117.39 110.45,117.35 110.63,117.27C110.88,117.16 111.19,117.01 111.51,116.86C111.91,116.67 112.49,116.4 112.85,116.22C113.1,116.1 113.27,116.02 113.49,115.91C113.72,115.8 113.92,115.69 114.19,115.55C114.57,115.36 115.18,115.04 115.54,114.86C115.78,114.74 115.93,114.66 116.14,114.55C116.37,114.42 116.6,114.3 116.88,114.14C117.26,113.93 117.91,113.56 118.22,113.39C118.39,113.3 118.44,113.27 118.6,113.18C118.85,113.04 119.22,112.82 119.57,112.61C119.98,112.37 120.46,112.09 120.9,111.815C121.35,111.54 121.86,111.2 122.25,110.95C122.55,110.76 122.79,110.61 123.03,110.45C123.24,110.32 123.37,110.23 123.6,110.07C123.96,109.83 124.53,109.44 124.985,109.12C125.43,108.81 125.93,108.44 126.28,108.18C126.52,108 126.69,107.89 126.9,107.73C127.13,107.55 127.37,107.37 127.63,107.16C127.94,106.92 128.42,106.55 128.66,106.36C128.79,106.25 128.83,106.22 128.97,106.11C129.26,105.87 129.86,105.38 130.31,105C130.76,104.62 131.41,104.05 131.66,103.83C131.76,103.74 131.77,103.73 131.87,103.64Q132.1,103.43 133,102.59L133,135Z" style="stroke: none; fill: rgb(129, 179, 147);"/><path d="M44.33,135Q45.23,134.9 45.68,134.85C46.13,134.8 46.57,134.75 47.02,134.7C47.47,134.65 47.91,134.59 48.36,134.54C48.81,134.49 49.26,134.44 49.71,134.39C50.16,134.34 50.6,134.29 51.05,134.24C51.5,134.19 51.94,134.14 52.39,134.09C52.84,134.04 53.29,133.99 53.74,133.94C54.19,133.89 54.63,133.83 55.08,133.78C55.52,133.73 55.96,133.69 56.400000000000006,133.635C56.85,133.58 57.32,133.51 57.77,133.45C58.22,133.39 58.66,133.34 59.11,133.28C59.56,133.22 60,133.16 60.45,133.1C60.9,133.04 61.35,132.98 61.8,132.92C62.25,132.86 62.69,132.8 63.14,132.74C63.59,132.68 64.03,132.62 64.48,132.56C64.93,132.5 65.43,132.44 65.83,132.39C66.15,132.35 66.44,132.3 66.69,132.27C66.87,132.24 66.97,132.23 67.17,132.2C67.51,132.15 68.07,132.06 68.52,131.99C68.97,131.92 69.41,131.86 69.86,131.79C70.31,131.72 70.75,131.65 71.2,131.58C71.65,131.51 72.1,131.45 72.55,131.38C73,131.31 73.44,131.24 73.89,131.17C74.34,131.1 74.92,131.02 75.23,130.97C75.4,130.94 75.46,130.94 75.62,130.91C75.87,130.87 76.23,130.8 76.58,130.74C76.99,130.67 77.47,130.59 77.92,130.51C78.37,130.43 78.81,130.35 79.26,130.27C79.71,130.19 80.16,130.12 80.61,130.04C81.06,129.96 81.5,129.88 81.95,129.8C82.41,129.72 82.9,129.65 83.355,129.56C83.79,129.48 84.21,129.39 84.64,129.3C85.08,129.21 85.53,129.13 85.98,129.04C86.43,128.95 86.87,128.86 87.32,128.77C87.77,128.68 88.22,128.59 88.67,128.5C89.12,128.41 89.73,128.3 90.01,128.24C90.14,128.21 90.17,128.21 90.3,128.18C90.54,128.13 90.98,128.03 91.35,127.95C91.77,127.86 92.25,127.75 92.7,127.65C93.15,127.55 93.59,127.45 94.04,127.35C94.49,127.25 94.96,127.14 95.38,127.05C95.74,126.97 96.15,126.88 96.4,126.82C96.54,126.79 96.58,126.78 96.73,126.74C97.03,126.67 97.62,126.51 98.07,126.4C98.52,126.29 98.96,126.18 99.41,126.07C99.86,125.96 100.33,125.84 100.76,125.73C101.15,125.63 101.63,125.51 101.86,125.45C101.97,125.42 101.99,125.42 102.1,125.39C102.37,125.32 102.99,125.14 103.44,125.02C103.89,124.89 104.34,124.77 104.79,124.64C105.24,124.52 105.77,124.37 106.13,124.27C106.38,124.2 106.55,124.15 106.77,124.09C107,124.02 107.2,123.96 107.47,123.88C107.85,123.76 108.37,123.6 108.82,123.46C109.27,123.32 109.74,123.18 110.16,123.05C110.53,122.94 110.98,122.81 111.22,122.73C111.35,122.69 111.38,122.67 111.51,122.63C111.79,122.53 112.4,122.33 112.85,122.18C113.3,122.03 113.77,121.86 114.19,121.72C114.56,121.59 115.01,121.44 115.25,121.36C115.38,121.32 115.41,121.31 115.54,121.26C115.82,121.16 116.43,120.93 116.88,120.76C117.33,120.59 117.84,120.4 118.22,120.26C118.49,120.16 118.7,120.09 118.93,120C119.15,119.92 119.32,119.84 119.57,119.74C119.93,119.59 120.46,119.38 120.91,119.2C121.36,119.02 121.83,118.84 122.28,118.65C122.73,118.46 123.16,118.26 123.6,118.07C124.05,117.87 124.61,117.63 124.94,117.48C125.14,117.39 125.23,117.35 125.41,117.27C125.66,117.16 125.96,117.01 126.28,116.86C126.68,116.67 127.26,116.4 127.63,116.22C127.88,116.1 128.05,116.02 128.27,115.91C128.5,115.8 128.7,115.69 128.97,115.55C129.34,115.36 129.95,115.04 130.31,114.86C130.55,114.74 130.71,114.66 130.92,114.55C131.16,114.42 131.38,114.3 131.66,114.14Q132.04,113.93 133,113.39L133,135Z" style="stroke: none; fill: rgb(141, 190, 158);"/><path d="M59.11,135Q60,134.9 60.45,134.85C60.9,134.8 61.35,134.75 61.8,134.7C62.25,134.65 62.69,134.59 63.14,134.54C63.59,134.49 64.03,134.44 64.48,134.39C64.93,134.34 65.38,134.29 65.83,134.24C66.28,134.19 66.72,134.14 67.17,134.09C67.62,134.04 68.07,133.99 68.52,133.94C68.97,133.89 69.41,133.83 69.86,133.78C70.3,133.73 70.74,133.69 71.18,133.635C71.63,133.58 72.1,133.51 72.55,133.45C73,133.39 73.44,133.34 73.89,133.28C74.34,133.22 74.78,133.16 75.23,133.1C75.68,133.04 76.13,132.98 76.58,132.92C77.03,132.86 77.47,132.8 77.92,132.74C78.37,132.68 78.81,132.62 79.26,132.56C79.71,132.5 80.21,132.44 80.61,132.39C80.93,132.35 81.22,132.3 81.47,132.27C81.65,132.24 81.75,132.23 81.95,132.2C82.28,132.15 82.84,132.06 83.29,131.99C83.74,131.92 84.19,131.86 84.64,131.79C85.09,131.72 85.53,131.65 85.98,131.58C86.43,131.51 86.87,131.45 87.32,131.38C87.77,131.31 88.22,131.24 88.67,131.17C89.12,131.1 89.7,131.02 90.01,130.97C90.18,130.94 90.23,130.94 90.39,130.91C90.64,130.87 91,130.8 91.35,130.74C91.76,130.67 92.25,130.59 92.7,130.51C93.15,130.43 93.59,130.35 94.04,130.27C94.49,130.19 94.93,130.12 95.38,130.04C95.83,129.96 96.28,129.88 96.73,129.8C97.19,129.72 97.68,129.65 98.13499999999999,129.56C98.57,129.48 98.98,129.39 99.41,129.3C99.85,129.21 100.31,129.13 100.76,129.04C101.21,128.95 101.65,128.86 102.1,128.77C102.55,128.68 102.99,128.59 103.44,128.5C103.89,128.41 104.51,128.3 104.79,128.24C104.92,128.21 104.95,128.21 105.07,128.18C105.31,128.13 105.76,128.03 106.13,127.95C106.55,127.86 107.02,127.75 107.47,127.65C107.92,127.55 108.37,127.45 108.82,127.35C109.27,127.25 109.74,127.14 110.16,127.05C110.52,126.97 110.93,126.88 111.18,126.82C111.32,126.79 111.36,126.78 111.51,126.74C111.81,126.67 112.4,126.51 112.85,126.4C113.3,126.29 113.74,126.18 114.19,126.07C114.64,125.96 115.11,125.84 115.54,125.73C115.93,125.63 116.41,125.51 116.64,125.45C116.75,125.42 116.77,125.42 116.88,125.39C117.15,125.32 117.77,125.14 118.22,125.02C118.67,124.89 119.12,124.77 119.57,124.64C120.02,124.52 120.55,124.37 120.91,124.27C121.16,124.2 121.33,124.15 121.55,124.09C121.78,124.02 121.98,123.96 122.25,123.88C122.63,123.76 123.15,123.6 123.6,123.46C124.05,123.32 124.52,123.18 124.94,123.05C125.31,122.94 125.75,122.81 125.99,122.73C126.12,122.69 126.15,122.67 126.28,122.63C126.56,122.53 127.18,122.33 127.63,122.18C128.08,122.03 128.55,121.86 128.97,121.72C129.34,121.59 129.79,121.44 130.03,121.36C130.15,121.32 130.18,121.31 130.31,121.26C130.59,121.16 131.21,120.93 131.66,120.76Q132.11,120.59 133,120.26L133,135Z" style="stroke: none; fill: rgb(152, 202, 170);"/></g><g class="contourlines"/></g></g></g></g><g class="zerolinelayer-above"/><path class="xlines-above crisp" d="M35.5,146.25H169.5M35.5,10.75H169.5" style="fill: none; stroke-width: 0.5px; stroke: rgb(0, 0, 0); stroke-opacity: 1;"/><path class="ylines-above crisp" d="M35.75,11V146M169.25,11V146" style="fill: none; stroke-width: 0.5px; stroke: rgb(0, 0, 0); stroke-opacity: 1;"/><g class="overlines-above"/><g class="xaxislayer-above"><path class="xtick ticks crisp" d="M0,146v-5" transform="translate(72.94,0)" style="stroke: rgb(0, 0, 0); stroke-opacity: 1; stroke-width: 0.5px;"/><path class="xtick ticks crisp" d="M0,146v-5" transform="translate(109.89,0)" style="stroke: rgb(0, 0, 0); stroke-opacity: 1; stroke-width: 0.5px;"/><path class="xtick ticks crisp" d="M0,146v-5" transform="translate(146.82999999999998,0)" style="stroke: rgb(0, 0, 0); stroke-opacity: 1; stroke-width: 0.5px;"/><g class="xtick"><text text-anchor="middle" x="0" y="159.7" transform="translate(36,0)" style="font-family: 'Open Sans', verdana, arial, sans-serif; font-size: 11px; fill: rgb(0, 0, 0); fill-opacity: 1; white-space: pre;">0</text></g><g class="xtick"><text text-anchor="middle" x="0" y="159.7" style="font-family: 'Open Sans', verdana, arial, sans-serif; font-size: 11px; fill: rgb(0, 0, 0); fill-opacity: 1; white-space: pre;" transform="translate(72.94,0)">0.5</text></g><g class="xtick"><text text-anchor="middle" x="0" y="159.7" style="font-family: 'Open Sans', verdana, arial, sans-serif; font-size: 11px; fill: rgb(0, 0, 0); fill-opacity: 1; white-space: pre;" transform="translate(109.89,0)">1</text></g><g class="xtick"><text text-anchor="middle" x="0" y="159.7" style="font-family: 'Open Sans', verdana, arial, sans-serif; font-size: 11px; fill: rgb(0, 0, 0); fill-opacity: 1; white-space: pre;" transform="translate(146.82999999999998,0)">1.5</text></g></g><g class="yaxislayer-above"><path class="ytick ticks crisp" d="M36,0h5" transform="translate(0,92)" style="stroke: rgb(0, 0, 0); stroke-opacity: 1; stroke-width: 0.5px;"/><path class="ytick ticks crisp" d="M36,0h5" transform="translate(0,38)" style="stroke: rgb(0, 0, 0); stroke-opacity: 1; stroke-width: 0.5px;"/><g class="ytick"><text text-anchor="end" x="33.3" y="3.8499999999999996" transform="translate(0,146)" style="font-family: 'Open Sans', verdana, arial, sans-serif; font-size: 11px; fill: rgb(0, 0, 0); fill-opacity: 1; white-space: pre;">0</text></g><g class="ytick"><text text-anchor="end" x="33.3" y="3.8499999999999996" style="font-family: 'Open Sans', verdana, arial, sans-serif; font-size: 11px; fill: rgb(0, 0, 0); fill-opacity: 1; white-space: pre;" transform="translate(0,92)">0.1</text></g><g class="ytick"><text text-anchor="end" x="33.3" y="3.8499999999999996" style="font-family: 'Open Sans', verdana, arial, sans-serif; font-size: 11px; fill: rgb(0, 0, 0); fill-opacity: 1; white-space: pre;" transform="translate(0,38)">0.2</text></g></g><g class="overaxes-above"/></g></g><g class="polarlayer"/><g class="smithlayer"/><g class="ternarylayer"/><g class="geolayer"/><g class="funnelarealayer"/><g class="pielayer"/><g class="iciclelayer"/><g class="treemaplayer"/><g class="sunburstlayer"/><g class="glimages"/><defs id="topdefs-c72605"><g class="clips"/></defs><g class="layer-above"><g class="imagelayer"/><g class="shapelayer"/></g><g class="infolayer"><g class="g-gtitle"/><g class="g-xtitle" transform="translate(0,4.550000000000011)"><text class="xtitle" x="102.5" y="170.1501953125" text-anchor="middle" style="opacity: 1; font-family: 'Open Sans', verdana, arial, sans-serif; font-size: 11px; fill: rgb(0, 0, 0); fill-opacity: 1; white-space: pre;">µ [1/h]</text></g><g class="g-ytitle"><text class="ytitle" transform="rotate(-90,14.184179687499999,78.5)" x="14.184179687499999" y="78.5" text-anchor="middle" style="opacity: 1; font-family: 'Open Sans', verdana, arial, sans-serif; font-size: 11px; fill: rgb(0, 0, 0); fill-opacity: 1; white-space: pre;">Cefotaxime [μg/mL]</text></g></g></svg>