<svg class="main-svg" xmlns="http://www.w3.org/2000/svg" xmlns:xlink="http://www.w3.org/1999/xlink" width="500" height="400" style="" viewBox="0 0 500 400"><rect x="0" y="0" width="500" height="400" style="fill: rgb(255, 255, 255); fill-opacity: 1;"/><defs id="defs-69bc9d"><g class="clips"><clipPath id="clip69bc9dxyplot" class="plotclip"><rect width="345" height="330"/></clipPath><clipPath class="axesclip" id="clip69bc9dx"><rect x="50" y="0" width="345" height="400"/></clipPath><clipPath class="axesclip" id="clip69bc9dy"><rect x="0" y="20" width="500" height="330"/></clipPath><clipPath class="axesclip" id="clip69bc9dxy"><rect x="50" y="20" width="345" height="330"/></clipPath><clipPath class="contourclip" id="clip697378"><path d="M0,0L345,0L345,330L0,330Z"/></clipPath></g><g class="gradients"/><g class="patterns"/></defs><g class="bglayer"/><g class="layer-below"><g class="imagelayer"/><g class="shapelayer"/></g><g class="cartesianlayer"><g class="subplot xy"><g class="layer-subplot"><g class="shapelayer"/><g class="imagelayer"/></g><g class="minor-gridlayer"><g class="x"/><g class="y"/></g><g class="gridlayer"><g class="x"><path class="xgrid crisp" transform="translate(99.28999999999999,0)" d="M0,20v330" style="stroke: rgb(0, 0, 0); stroke-opacity: 1; stroke-width: 0.5px;"/><path class="xgrid crisp" transform="translate(148.57,0)" d="M0,20v330" style="stroke: rgb(0, 0, 0); stroke-opacity: 1; stroke-width: 0.5px;"/><path class="xgrid crisp" transform="translate(197.86,0)" d="M0,20v330" style="stroke: rgb(0, 0, 0); stroke-opacity: 1; stroke-width: 0.5px;"/><path class="xgrid crisp" transform="translate(247.14,0)" d="M0,20v330" style="stroke: rgb(0, 0, 0); stroke-opacity: 1; stroke-width: 0.5px;"/><path class="xgrid crisp" transform="translate(296.43,0)" d="M0,20v330" style="stroke: rgb(0, 0, 0); stroke-opacity: 1; stroke-width: 0.5px;"/><path class="xgrid crisp" transform="translate(345.71,0)" d="M0,20v330" style="stroke: rgb(0, 0, 0); stroke-opacity: 1; stroke-width: 0.5px;"/></g><g class="y"><path class="ygrid crisp" transform="translate(0,308.75)" d="M50,0h345" style="stroke: rgb(0, 0, 0); stroke-opacity: 1; stroke-width: 0.5px;"/><path class="ygrid crisp" transform="translate(0,267.5)" d="M50,0h345" style="stroke: rgb(0, 0, 0); stroke-opacity: 1; stroke-width: 0.5px;"/><path class="ygrid crisp" transform="translate(0,226.25)" d="M50,0h345" style="stroke: rgb(0, 0, 0); stroke-opacity: 1; stroke-width: 0.5px;"/><path class="ygrid crisp" transform="translate(0,185)" d="M50,0h345" style="stroke: rgb(0, 0, 0); stroke-opacity: 1; stroke-width: 0.5px;"/><path class="ygrid crisp" transform="translate(0,143.75)" d="M50,0h345" style="stroke: rgb(0, 0, 0); stroke-opacity: 1; stroke-width: 0.5px;"/><path class="ygrid crisp" transform="translate(0,102.5)" d="M50,0h345" style="stroke: rgb(0, 0, 0); stroke-opacity: 1; stroke-width: 0.5px;"/><path class="ygrid crisp" transform="translate(0,61.25)" d="M50,0h345" style="stroke: rgb(0, 0, 0); stroke-opacity: 1; stroke-width: 0.5px;"/></g></g><g class="zerolinelayer"><path class="xzl zl crisp" transform="translate(50,0)" d="M0,20v330" style="stroke: rgb(0, 0, 0); stroke-opacity: 1; stroke-width: 0.5px;"/><path class="yzl zl crisp" transform="translate(0,350)" d="M50,0h345" style="stroke: rgb(0, 0, 0); stroke-opacity: 1; stroke-width: 0.5px;"/></g><g class="layer-between"><g class="shapelayer"/><g class="imagelayer"/></g><path class="xlines-below"/><path class="ylines-below"/><g class="overlines-below"/><g class="xaxislayer-below"/><g class="yaxislayer-below"/><g class="overaxes-below"/><g class="overplot"><g class="xy" transform="translate(50,20)" clip-path="url(#clip69bc9dxyplot)"><g class="contourlayer mlayer"><g class="contour" clip-path="url(#clip697378)" style="opacity: 1;"><g class="heatmapcoloring"/><g class="contourbg"><path d="M0,0L345,0L345,330L0,330Z" style="stroke: none; fill: rgb(58, 76, 192);"/></g><g class="contourfill"><path d="M0,330Q0,327.78 0,326.67C0,325.56 0,324.44 0,323.33C0,322.22 0,321.11 0,320C0,318.89 0,317.78 0,316.67C0,315.56 0,314.44 0,313.33C0,312.22 0,311.11 0,310C0,308.89 0,307.78 0,306.67C0,305.56 0,304.44 0,303.33C0,302.22 0,301.11 0,300C0,298.89 0,297.78 0,296.67C0,295.56 0,294.44 0,293.33C0,292.22 0,291.11 0,290C0,288.89 0,287.78 0,286.67C0,285.56 0,284.44 0,283.33C0,282.22 0,281.11 0,280C0,278.89 0,277.78 0,276.67C0,275.56 0,274.44 0,273.33C0,272.22 0,271.11 0,270C0,268.89 0,267.78 0,266.67C0,265.56 0,264.44 0,263.33C0,262.22 0,261.11 0,260C0,258.89 0,257.78 0,256.67C0,255.56 0,254.44 0,253.33C0,252.22 0,251.11 0,250C0,248.89 0,247.78 0,246.67C0,245.56 0,244.44 0,243.33C0,242.22 0,241.11 0,240C0,238.89 0,237.78 0,236.67C0,235.56 0,234.44 0,233.33C0,232.22 0,231.11 0,230C0,228.89 0,227.78 0,226.67C0,225.56 0,224.44 0,223.33C0,222.22 0,221.11 0,220C0,218.89 0,217.78 0,216.67C0,215.56 0,214.44 0,213.33C0,212.22 0,211.11 0,210C0,208.89 0,207.78 0,206.67C0,205.56 0,204.44 0,203.33C0,202.22 0,201.11 0,200C0,198.89 0,197.78 0,196.67C0,195.56 0,194.44 0,193.33C0,192.22 0,191.11 0,190C0,188.89 0,187.78 0,186.67C0,185.56 0,184.44 0,183.33C0,182.22 0,181.11 0,180C0,178.89 0,177.78 0,176.67C0,175.56 0,174.44 0,173.33C0,172.22 0,171.11 0,170C0,168.89 0,167.78 0,166.67C0,165.56 0,164.44 0,163.33C0,162.22 0,161.11 0,160C0,158.89 0,157.78 0,156.67C0,155.56 0,154.44 0,153.33C0,152.22 0,151.11 0,150C0,148.89 0,147.78 0,146.67C0,145.56 0,144.44 0,143.33C0,142.22 0,141.11 0,140C0,138.89 0,137.78 0,136.67C0,135.56 0,134.44 0,133.33C0,132.22 0,131.11 0,130C0,128.89 0,127.78 0,126.67C0,125.56 0,124.44 0,123.33C0,122.22 0,121.11 0,120C0,118.89 0,117.78 0,116.67C0,115.56 0,114.44 0,113.33C0,112.22 0,111.11 0,110C0,108.89 0,107.78 0,106.67C0,105.56 0,104.44 0,103.33C0,102.22 0,101.11 0,100C0,98.89 0,97.78 0,96.67C0,95.56 0,94.44 0,93.33C0,92.22 0,91.11 0,90C0,88.89 0,87.78 0,86.67C0,85.56 0,84.44 0,83.33C0,82.22 0,81.11 0,80C0,78.89 0,77.78 0,76.67C0,75.56 0,74.44 0,73.33C0,72.22 0,71.11 0,70C0,68.89 0,67.78 0,66.67C0,65.56 0,64.44 0,63.33C0,62.22 0,61.11 0,60C0,58.89 0,57.78 0,56.67C0,55.56 0,54.44 0,53.33C0,52.22 0,51.11 0,50C0,48.89 0,47.78 0,46.67C0,45.56 0,44.44 0,43.33C0,42.22 0,41.11 0,40C0,38.89 0,37.78 0,36.67C0,35.56 0,34.44 0,33.33C0,32.22 0,31.11 0,30C0,28.89 0,27.78 0,26.67C0,25.56 0,24.44 0,23.33C0,22.22 0,21.11 0,20C0,18.89 0,17.78 0,16.67C0,15.56 0,14.44 0,13.33C0,12.22 0,11.11 0,10C0,8.89 0,7.78 0,6.67C0,5.56 0,4.44 0,3.33Q0,2.22 0,0L345,0L345,330Z" style="stroke: none; fill: rgb(123, 134, 204);"/><path d="M98.57,330Q100.16,329.85 101.06,329.76C102.13,329.66 103.39,329.54 104.55,329.43C105.71,329.33 106.87,329.23 108.03,329.13C109.19,329.03 110.36,328.94 111.52,328.85C112.68,328.76 113.84,328.67 115,328.58C116.16,328.49 117.32,328.41 118.48,328.33C119.64,328.25 120.81,328.17 121.97,328.09C123.13,328.01 124.29,327.94 125.45,327.87C126.61,327.8 127.78,327.73 128.94,327.66C130.1,327.59 131.26,327.52 132.42,327.46C133.58,327.39 134.75,327.33 135.91,327.27C137.07,327.21 138.23,327.15 139.39,327.09C140.55,327.03 141.72,326.98 142.88,326.92C144.04,326.87 145.36,326.81 146.36,326.76C147.12,326.73 147.73,326.71 148.35,326.67C148.89,326.63 149.25,326.58 149.85,326.53C150.77,326.45 152.17,326.34 153.33,326.24C154.49,326.14 155.66,326.04 156.82,325.95C157.98,325.86 159.14,325.77 160.3,325.68C161.46,325.59 162.63,325.51 163.79,325.42C164.95,325.34 166.11,325.25 167.27,325.17C168.43,325.09 169.6,325.01 170.76,324.93C171.92,324.85 173.08,324.78 174.24,324.7C175.4,324.62 176.57,324.54 177.73,324.47C178.89,324.4 180.05,324.33 181.21,324.26C182.37,324.19 183.54,324.13 184.7,324.06C185.86,323.99 187.02,323.92 188.18,323.86C189.34,323.79 190.51,323.73 191.67,323.67C192.83,323.61 194.01,323.55 195.15,323.49C196.25,323.43 197.27,323.39 198.39,323.31C199.59,323.23 200.9,323.11 202.12,323.01C203.3,322.91 204.45,322.82 205.61,322.73C206.77,322.64 207.93,322.55 209.09,322.46C210.25,322.37 211.42,322.29 212.58,322.21C213.74,322.13 214.9,322.04 216.06,321.96C217.22,321.88 218.39,321.79 219.55,321.71C220.71,321.63 221.87,321.56 223.03,321.48C224.19,321.4 225.36,321.33 226.52,321.25C227.68,321.18 228.84,321.1 230,321.03C231.16,320.96 232.32,320.89 233.48,320.82C234.64,320.75 235.81,320.68 236.97,320.61C238.13,320.54 239.29,320.47 240.45,320.41C241.61,320.34 242.76,320.28 243.94,320.22C245.16,320.15 246.47,320.1 247.67,320.015C248.79,319.94 249.81,319.85 250.91,319.76C252.05,319.67 253.23,319.58 254.39,319.49C255.55,319.4 256.72,319.32 257.88,319.23C259.04,319.14 260.2,319.05 261.36,318.97C262.52,318.89 263.69,318.81 264.85,318.73C266.01,318.65 267.17,318.56 268.33,318.48C269.49,318.4 270.66,318.33 271.82,318.25C272.98,318.17 274.14,318.1 275.3,318.02C276.46,317.94 277.63,317.87 278.79,317.79C279.95,317.72 281.11,317.64 282.27,317.57C283.43,317.5 284.6,317.43 285.76,317.36C286.92,317.29 288.08,317.22 289.24,317.15C290.4,317.08 291.57,317.02 292.73,316.95C293.89,316.88 295.29,316.8 296.21,316.75C296.81,316.72 297.17,316.71 297.71,316.67C298.33,316.63 298.94,316.57 299.7,316.51C300.7,316.43 302.02,316.34 303.18,316.25C304.34,316.16 305.51,316.08 306.67,315.99C307.83,315.9 308.99,315.81 310.15,315.73C311.31,315.64 312.48,315.56 313.64,315.48C314.8,315.4 315.96,315.32 317.12,315.24C318.28,315.16 319.45,315.08 320.61,315C321.77,314.92 322.93,314.84 324.09,314.77C325.25,314.69 326.42,314.63 327.58,314.55C328.74,314.48 329.9,314.39 331.06,314.32C332.22,314.24 333.39,314.17 334.55,314.1C335.71,314.03 336.87,313.96 338.03,313.89C339.19,313.82 340.36,313.75 341.52,313.68Q342.68,313.61 345,313.48L345,330Z" style="stroke: none; fill: rgb(188, 192, 215);"/><path d="M197.14,330Q198.04,329.96 198.64,329.93C199.56,329.89 200.96,329.82 202.12,329.76C203.28,329.7 204.45,329.65 205.61,329.59C206.77,329.54 207.93,329.48 209.09,329.43C210.25,329.38 211.42,329.33 212.58,329.28C213.74,329.23 214.9,329.18 216.06,329.13C217.22,329.08 218.39,329.04 219.55,328.99C220.71,328.94 221.87,328.9 223.03,328.85C224.19,328.8 225.36,328.76 226.52,328.71C227.68,328.67 228.84,328.62 230,328.58C231.16,328.54 232.32,328.49 233.48,328.45C234.64,328.41 235.81,328.37 236.97,328.33C238.13,328.29 239.29,328.25 240.45,328.21C241.61,328.17 242.78,328.13 243.94,328.09C245.1,328.05 246.26,328.02 247.42,327.98C248.58,327.94 249.75,327.91 250.91,327.87C252.07,327.83 253.23,327.79 254.39,327.76C255.55,327.72 256.72,327.69 257.88,327.66C259.04,327.63 260.2,327.59 261.36,327.56C262.52,327.53 263.69,327.49 264.85,327.46C266.01,327.43 267.17,327.39 268.33,327.36C269.49,327.33 270.66,327.3 271.82,327.27C272.98,327.24 274.14,327.21 275.3,327.18C276.46,327.15 277.63,327.12 278.79,327.09C279.95,327.06 281.11,327.03 282.27,327C283.43,326.97 284.6,326.95 285.76,326.92C286.92,326.89 288.08,326.87 289.24,326.84C290.4,326.81 291.55,326.79 292.73,326.76C293.95,326.73 295.26,326.72 296.46,326.675C297.58,326.64 298.6,326.58 299.7,326.53C300.84,326.48 302.02,326.43 303.18,326.38C304.34,326.33 305.51,326.29 306.67,326.24C307.83,326.19 308.99,326.14 310.15,326.09C311.31,326.04 312.48,326 313.64,325.95C314.8,325.9 315.96,325.85 317.12,325.81C318.28,325.76 319.45,325.72 320.61,325.68C321.77,325.64 322.93,325.59 324.09,325.55C325.25,325.51 326.42,325.46 327.58,325.42C328.74,325.38 329.9,325.33 331.06,325.29C332.22,325.25 333.39,325.21 334.55,325.17C335.71,325.13 336.87,325.08 338.03,325.04C339.19,325 340.36,324.97 341.52,324.93Q342.68,324.89 345,324.81L345,330Z" style="stroke: none; fill: rgb(213, 178, 184);"/><path d="M295.71,330Q298.42,329.91 299.7,329.87C300.9,329.83 302.02,329.8 303.18,329.76C304.34,329.72 305.51,329.69 306.67,329.65C307.83,329.61 308.99,329.58 310.15,329.54C311.31,329.5 312.48,329.47 313.64,329.43C314.8,329.4 315.96,329.36 317.12,329.33C318.28,329.3 319.45,329.26 320.61,329.23C321.77,329.2 322.93,329.16 324.09,329.13C325.25,329.1 326.42,329.06 327.58,329.03C328.74,329 329.9,328.97 331.06,328.94C332.22,328.91 333.39,328.88 334.55,328.85C335.71,328.82 336.87,328.79 338.03,328.76C339.19,328.73 340.36,328.7 341.52,328.67Q342.68,328.64 345,328.58L345,330Z" style="stroke: none; fill: rgb(196, 91, 111);"/></g><g class="contourlines"/></g></g></g></g><path class="xlines-above crisp" d="M0,0" style="fill: none;"/><path class="ylines-above crisp" d="M0,0" style="fill: none;"/><g class="overlines-above"/><g class="xaxislayer-above"><g class="xtick"><text text-anchor="middle" x="0" y="365" transform="translate(50,0)" style="font-family: 'Open Sans', verdana, arial, sans-serif; font-size: 14px; fill: rgb(0, 0, 0); fill-opacity: 1; white-space: pre; opacity: 1;">0</text></g><g class="xtick"><text text-anchor="middle" x="0" y="365" style="font-family: 'Open Sans', verdana, arial, sans-serif; font-size: 14px; fill: rgb(0, 0, 0); fill-opacity: 1; white-space: pre; opacity: 1;" transform="translate(99.28999999999999,0)">0.1</text></g><g class="xtick"><text text-anchor="middle" x="0" y="365" style="font-family: 'Open Sans', verdana, arial, sans-serif; font-size: 14px; fill: rgb(0, 0, 0); fill-opacity: 1; white-space: pre; opacity: 1;" transform="translate(148.57,0)">0.2</text></g><g class="xtick"><text text-anchor="middle" x="0" y="365" style="font-family: 'Open Sans', verdana, arial, sans-serif; font-size: 14px; fill: rgb(0, 0, 0); fill-opacity: 1; white-space: pre; opacity: 1;" transform="translate(197.86,0)">0.3</text></g><g class="xtick"><text text-anchor="middle" x="0" y="365" style="font-family: 'Open Sans', verdana, arial, sans-serif; font-size: 14px; fill: rgb(0, 0, 0); fill-opacity: 1; white-space: pre; opacity: 1;" transform="translate(247.14,0)">0.4</text></g><g class="xtick"><text text-anchor="middle" x="0" y="365" style="font-family: 'Open Sans', verdana, arial, sans-serif; font-size: 14px; fill: rgb(0, 0, 0); fill-opacity: 1; white-space: pre; opacity: 1;" transform="translate(296.43,0)">0.5</text></g><g class="xtick"><text text-anchor="middle" x="0" y="365" style="font-family: 'Open Sans', verdana, arial, sans-serif; font-size: 14px; fill: rgb(0, 0, 0); fill-opacity: 1; white-space: pre; opacity: 1;" transform="translate(345.71,0)">0.6</text></g><g class="xtick"><text text-anchor="middle" x="0" y="365" style="font-family: 'Open Sans', verdana, arial, sans-serif; font-size: 14px; fill: rgb(0, 0, 0); fill-opacity: 1; white-space: pre; opacity: 1;" transform="translate(395,0)">0.7</text></g></g><g class="yaxislayer-above"><g class="ytick"><text text-anchor="end" x="49" y="4.8999999999999995" transform="translate(0,350)" style="font-family: 'Open Sans', verdana, arial, sans-serif; font-size: 14px; fill: rgb(0, 0, 0); fill-opacity: 1; white-space: pre; opacity: 1;">0</text></g><g class="ytick"><text text-anchor="end" x="49" y="4.8999999999999995" style="font-family: 'Open Sans', verdana, arial, sans-serif; font-size: 14px; fill: rgb(0, 0, 0); fill-opacity: 1; white-space: pre; opacity: 1;" transform="translate(0,308.75)">2</text></g><g class="ytick"><text text-anchor="end" x="49" y="4.8999999999999995" style="font-family: 'Open Sans', verdana, arial, sans-serif; font-size: 14px; fill: rgb(0, 0, 0); fill-opacity: 1; white-space: pre; opacity: 1;" transform="translate(0,267.5)">4</text></g><g class="ytick"><text text-anchor="end" x="49" y="4.8999999999999995" style="font-family: 'Open Sans', verdana, arial, sans-serif; font-size: 14px; fill: rgb(0, 0, 0); fill-opacity: 1; white-space: pre; opacity: 1;" transform="translate(0,226.25)">6</text></g><g class="ytick"><text text-anchor="end" x="49" y="4.8999999999999995" style="font-family: 'Open Sans', verdana, arial, sans-serif; font-size: 14px; fill: rgb(0, 0, 0); fill-opacity: 1; white-space: pre; opacity: 1;" transform="translate(0,185)">8</text></g><g class="ytick"><text text-anchor="end" x="49" y="4.8999999999999995" style="font-family: 'Open Sans', verdana, arial, sans-serif; font-size: 14px; fill: rgb(0, 0, 0); fill-opacity: 1; white-space: pre; opacity: 1;" transform="translate(0,143.75)">10</text></g><g class="ytick"><text text-anchor="end" x="49" y="4.8999999999999995" style="font-family: 'Open Sans', verdana, arial, sans-serif; font-size: 14px; fill: rgb(0, 0, 0); fill-opacity: 1; white-space: pre; opacity: 1;" transform="translate(0,102.5)">12</text></g><g class="ytick"><text text-anchor="end" x="49" y="4.8999999999999995" style="font-family: 'Open Sans', verdana, arial, sans-serif; font-size: 14px; fill: rgb(0, 0, 0); fill-opacity: 1; white-space: pre; opacity: 1;" transform="translate(0,61.25)">14</text></g><g class="ytick"><text text-anchor="end" x="49" y="4.8999999999999995" style="font-family: 'Open Sans', verdana, arial, sans-serif; font-size: 14px; fill: rgb(0, 0, 0); fill-opacity: 1; white-space: pre; opacity: 1;" transform="translate(0,20)">16</text></g></g><g class="overaxes-above"/></g></g><g class="polarlayer"/><g class="smithlayer"/><g class="ternarylayer"/><g class="geolayer"/><g class="funnelarealayer"/><g class="pielayer"/><g class="iciclelayer"/><g class="treemaplayer"/><g class="sunburstlayer"/><g class="glimages"/><defs id="topdefs-69bc9d"><g class="clips"/></defs><g class="layer-above"><g class="imagelayer"/><g class="shapelayer"/></g><g class="infolayer"><g class="cb697378 colorbar" transform="translate(50,20)"><rect class="cbbg" x="352" y="0" width="98.046875" height="330" style="fill: rgb(0, 0, 0); fill-opacity: 0; stroke: rgb(68, 68, 68); stroke-opacity: 1; stroke-width: 0;"/><g class="cbfills" transform="translate(0,10)"><rect class="cbfill" style="" x="362" y="1" width="30" height="309" fill="#3a4cc0"/><rect class="cbfill" style="" x="362" y="1" width="30" height="278" fill="#7b86cc"/><rect class="cbfill" style="" x="362" y="1" width="30" height="216" fill="#bcc0d7"/><rect class="cbfill" style="" x="362" y="1" width="30" height="154" fill="#d5b2b8"/><rect class="cbfill" style="" x="362" y="1" width="30" height="92" fill="#c45b6f"/><rect class="cbfill" style="" x="362" y="0" width="30" height="31" fill="#b40426"/></g><g class="cblines" transform="translate(0,10)"/><g class="cbaxis crisp" transform="translate(0,-20)"><g class="ycb697378tick"><text text-anchor="start" x="395.3" y="4.8999999999999995" transform="translate(0,309)" style="font-family: 'Open Sans', verdana, arial, sans-serif; font-size: 14px; fill: rgb(0, 0, 0); fill-opacity: 1; white-space: pre; opacity: 1;">0</text></g><g class="ycb697378tick"><text text-anchor="start" x="395.3" y="4.8999999999999995" style="font-family: 'Open Sans', verdana, arial, sans-serif; font-size: 14px; fill: rgb(0, 0, 0); fill-opacity: 1; white-space: pre; opacity: 1;" transform="translate(0,247)">0.2</text></g><g class="ycb697378tick"><text text-anchor="start" x="395.3" y="4.8999999999999995" style="font-family: 'Open Sans', verdana, arial, sans-serif; font-size: 14px; fill: rgb(0, 0, 0); fill-opacity: 1; white-space: pre; opacity: 1;" transform="translate(0,185)">0.4</text></g><g class="ycb697378tick"><text text-anchor="start" x="395.3" y="4.8999999999999995" style="font-family: 'Open Sans', verdana, arial, sans-serif; font-size: 14px; fill: rgb(0, 0, 0); fill-opacity: 1; white-space: pre; opacity: 1;" transform="translate(0,123)">0.6</text></g><g class="ycb697378tick"><text text-anchor="start" x="395.3" y="4.8999999999999995" style="font-family: 'Open Sans', verdana, arial, sans-serif; font-size: 14px; fill: rgb(0, 0, 0); fill-opacity: 1; white-space: pre; opacity: 1;" transform="translate(0,60.99999999999999)">0.8</text></g></g><g class="cbtitleunshift" transform="translate(-50,-20)"><g class="cbtitle" transform="translate(16.146484375,0)"><text class="hycb697378title" transform="rotate(-90,468.9,185)" x="468.9" y="185" text-anchor="middle" style="opacity: 1; font-family: 'Open Sans', verdana, arial, sans-serif; font-size: 17px; fill: rgb(0, 0, 0); fill-opacity: 1; white-space: pre;">Netto growth rate [1/h]</text></g></g><rect class="cboutline" x="362" y="10" width="30" height="310" style="stroke: rgb(68, 68, 68); stroke-opacity: 1; fill: none; stroke-width: 0;"/></g><g class="g-gtitle"><text class="gtitle" x="25" y="10" text-anchor="start" dy="0em" style="opacity: 1; font-family: 'Open Sans', verdana, arial, sans-serif; font-size: 14px; fill: rgb(0, 0, 0); fill-opacity: 1; white-space: pre;">J = -1 1/h</text></g><g class="g-xtitle" transform="translate(0,5.699999999999989)"><text class="xtitle" x="222.5" y="378.3" text-anchor="middle" style="opacity: 1; font-family: 'Open Sans', verdana, arial, sans-serif; font-size: 14px; fill: rgb(0, 0, 0); fill-opacity: 1; white-space: pre;">Per capita growth rate µ [1/h]</text></g><g class="g-ytitle"><text class="ytitle" transform="rotate(-90,28.584375,185)" x="28.584375" y="185" text-anchor="middle" style="opacity: 1; font-family: 'Open Sans', verdana, arial, sans-serif; font-size: 14px; fill: rgb(0, 0, 0); fill-opacity: 1; white-space: pre;">Chloramphenicol concentration μg/mL</text></g></g></svg>