<svg class="main-svg" xmlns="http://www.w3.org/2000/svg" xmlns:xlink="http://www.w3.org/1999/xlink" width="180" height="180" style="" viewBox="0 0 180 180"><rect x="0" y="0" width="180" height="180" style="fill: rgb(255, 255, 255); fill-opacity: 1;"/><defs id="defs-689d9e"><g class="clips"><clipPath id="clip689d9exyplot" class="plotclip"><rect width="64" height="135"/></clipPath><clipPath class="axesclip" id="clip689d9ex"><rect x="29" y="0" width="64" height="180"/></clipPath><clipPath class="axesclip" id="clip689d9ey"><rect x="0" y="11" width="180" height="135"/></clipPath><clipPath class="axesclip" id="clip689d9exy"><rect x="29" y="11" width="64" height="135"/></clipPath><clipPath class="contourclip" id="clip6367bb"><path d="M0,0L64,0L64,135L0,135Z"/></clipPath></g><g class="gradients"/><g class="patterns"/></defs><g class="bglayer"/><g class="layer-below"><g class="imagelayer"/><g class="shapelayer"/></g><g class="cartesianlayer"><g class="subplot xy"><g class="layer-subplot"><g class="shapelayer"/><g class="imagelayer"/></g><g class="minor-gridlayer"><g class="x"/><g class="y"/></g><g class="gridlayer"><g class="x"><path class="xgrid crisp" transform="translate(46.78,0)" d="M0,11v135" style="stroke: rgb(128, 128, 128); stroke-opacity: 1; stroke-width: 0.2px;"/><path class="xgrid crisp" transform="translate(64.56,0)" d="M0,11v135" style="stroke: rgb(128, 128, 128); stroke-opacity: 1; stroke-width: 0.2px;"/><path class="xgrid crisp" transform="translate(82.33,0)" d="M0,11v135" style="stroke: rgb(128, 128, 128); stroke-opacity: 1; stroke-width: 0.2px;"/></g><g class="y"><path class="ygrid crisp" transform="translate(0,103.81)" d="M29,0h64" style="stroke: rgb(128, 128, 128); stroke-opacity: 1; stroke-width: 0.2px;"/><path class="ygrid crisp" transform="translate(0,61.63)" d="M29,0h64" style="stroke: rgb(128, 128, 128); stroke-opacity: 1; stroke-width: 0.2px;"/><path class="ygrid crisp" transform="translate(0,19.439999999999998)" d="M29,0h64" style="stroke: rgb(128, 128, 128); stroke-opacity: 1; stroke-width: 0.2px;"/></g></g><g class="zerolinelayer"/><g class="layer-between"><g class="shapelayer"/><g class="imagelayer"/></g><path class="xlines-below"/><path class="ylines-below"/><g class="overlines-below"/><g class="xaxislayer-below"/><g class="yaxislayer-below"/><g class="overaxes-below"/><g class="overplot"><g class="xy" transform="translate(29,11)" clip-path="url(#clip689d9exyplot)"><g class="contourlayer mlayer"><g class="contour" clip-path="url(#clip6367bb)" style="opacity: 1;"><g class="heatmapcoloring"/><g class="contourbg"><path d="M0,0L64,0L64,135L0,135Z" style="stroke: none; fill: rgb(49, 97, 66);"/></g><g class="contourfill"><path d="M7.11,135Q7.54,134.77 7.76,134.66C7.97,134.56 8.18,134.46 8.4,134.37C8.61,134.28 8.83,134.21 9.05,134.13C9.27,134.06 9.48,133.99 9.7,133.92C9.91,133.85 10.16,133.78 10.34,133.73C10.48,133.69 10.59,133.68 10.7,133.64C10.8,133.6 10.87,133.55 10.99,133.49C11.16,133.41 11.42,133.29 11.64,133.2C11.85,133.11 12.07,133.02 12.28,132.94C12.5,132.86 12.71,132.78 12.93,132.7C13.15,132.63 13.36,132.56 13.58,132.49C13.8,132.42 14.04,132.36 14.254999999999999,132.28C14.47,132.2 14.66,132.1 14.87,132.01C15.08,131.92 15.3,131.83 15.52,131.74C15.73,131.65 15.95,131.57 16.16,131.49C16.38,131.41 16.59,131.34 16.81,131.26C17.02,131.19 17.26,131.1 17.45,131.04C17.61,130.99 17.77,130.96 17.89,130.91C17.97,130.88 18.01,130.85 18.1,130.81C18.26,130.74 18.53,130.62 18.75,130.53C18.96,130.44 19.18,130.35 19.39,130.27C19.61,130.19 19.82,130.11 20.04,130.03C20.26,129.95 20.47,129.87 20.69,129.8C20.9,129.73 21.19,129.63 21.33,129.59C21.4,129.57 21.42,129.57 21.48,129.55C21.6,129.51 21.8,129.41 21.98,129.33C22.18,129.24 22.41,129.15 22.63,129.06C22.84,128.97 23.06,128.89 23.27,128.81C23.49,128.73 23.7,128.65 23.92,128.57C24.14,128.49 24.37,128.42 24.57,128.35C24.75,128.29 24.96,128.22 25.07,128.18C25.13,128.16 25.15,128.15 25.21,128.12C25.35,128.06 25.64,127.94 25.86,127.85C26.08,127.76 26.29,127.67 26.51,127.59C26.72,127.51 26.94,127.43 27.15,127.35C27.37,127.27 27.58,127.19 27.8,127.11C28.01,127.03 28.28,126.94 28.44,126.89C28.53,126.86 28.58,126.85 28.66,126.82C28.78,126.78 28.93,126.71 29.09,126.64C29.28,126.56 29.52,126.46 29.74,126.37C29.95,126.28 30.17,126.2 30.38,126.12C30.6,126.04 30.81,125.96 31.03,125.88C31.25,125.8 31.47,125.73 31.68,125.65C31.89,125.58 32.08,125.51 32.285,125.435C32.51,125.35 32.74,125.25 32.97,125.16C33.19,125.07 33.4,124.98 33.62,124.9C33.83,124.82 34.05,124.74 34.26,124.66C34.48,124.58 34.69,124.5 34.91,124.42C35.13,124.34 35.39,124.25 35.56,124.19C35.67,124.15 35.74,124.13 35.84,124.09C35.95,124.05 36.06,124 36.2,123.94C36.38,123.86 36.63,123.77 36.85,123.68C37.06,123.6 37.28,123.51 37.49,123.43C37.71,123.35 37.92,123.27 38.14,123.19C38.36,123.11 38.57,123.03 38.79,122.95C39,122.87 39.22,122.81 39.43,122.73C39.65,122.65 39.86,122.55 40.08,122.46C40.3,122.37 40.51,122.29 40.73,122.21C40.94,122.13 41.16,122.04 41.37,121.96C41.59,121.88 41.8,121.8 42.02,121.72C42.24,121.64 42.49,121.56 42.67,121.49C42.81,121.44 42.92,121.4 43.03,121.36C43.13,121.32 43.2,121.29 43.31,121.25C43.48,121.18 43.74,121.08 43.96,120.99C44.18,120.91 44.39,120.82 44.61,120.74C44.82,120.66 45.04,120.57 45.25,120.49C45.47,120.41 45.68,120.34 45.9,120.26C46.13,120.18 46.36,120.1 46.584999999999994,120.015C46.79,119.94 46.98,119.85 47.19,119.77C47.4,119.68 47.62,119.59 47.84,119.51C48.05,119.43 48.27,119.35 48.48,119.27C48.7,119.19 48.91,119.1 49.13,119.02C49.35,118.94 49.59,118.86 49.78,118.79C49.94,118.73 50.09,118.69 50.21,118.64C50.29,118.61 50.33,118.59 50.42,118.55C50.58,118.49 50.85,118.38 51.07,118.29C51.29,118.21 51.5,118.12 51.72,118.04C51.93,117.96 52.15,117.88 52.36,117.8C52.58,117.72 52.79,117.64 53.01,117.56C53.23,117.48 53.52,117.37 53.66,117.32C53.72,117.3 53.74,117.29 53.8,117.27C53.92,117.23 54.12,117.14 54.3,117.07C54.5,116.99 54.73,116.9 54.95,116.82C55.17,116.74 55.38,116.65 55.6,116.57C55.81,116.49 56.03,116.41 56.24,116.33C56.46,116.25 56.69,116.16 56.89,116.09C57.07,116.03 57.27,115.95 57.39,115.91C57.45,115.89 57.47,115.88 57.54,115.85C57.68,115.79 57.97,115.67 58.18,115.59C58.4,115.5 58.61,115.42 58.83,115.34C59.04,115.26 59.26,115.18 59.47,115.1C59.69,115.02 59.9,114.94 60.12,114.86C60.34,114.78 60.61,114.68 60.77,114.62C60.86,114.59 60.9,114.58 60.98,114.55C61.1,114.51 61.25,114.43 61.41,114.37C61.6,114.29 61.84,114.2 62.06,114.12C62.28,114.04 62.49,113.95 62.71,113.87C62.92,113.79 63.14,113.71 63.35,113.63Q63.57,113.55 64,113.39L64,135Z" style="stroke: none; fill: rgb(62, 110, 79);"/><path d="M14.22,135Q14.65,134.88 14.87,134.82C15.09,134.76 15.3,134.71 15.52,134.66C15.73,134.61 15.95,134.56 16.16,134.51C16.38,134.46 16.59,134.41 16.81,134.37C17.02,134.33 17.24,134.29 17.45,134.25C17.67,134.21 17.88,134.17 18.1,134.13C18.32,134.09 18.53,134.06 18.75,134.02C18.96,133.99 19.18,133.95 19.39,133.92C19.61,133.89 19.82,133.85 20.04,133.82C20.26,133.79 20.47,133.76 20.69,133.73C20.91,133.7 21.15,133.69 21.369999999999997,133.64499999999998C21.58,133.61 21.77,133.54 21.98,133.49C22.19,133.44 22.41,133.39 22.63,133.34C22.84,133.29 23.06,133.24 23.27,133.2C23.49,133.15 23.7,133.11 23.92,133.07C24.14,133.03 24.35,132.98 24.57,132.94C24.78,132.9 25,132.86 25.21,132.82C25.43,132.78 25.64,132.74 25.86,132.7C26.08,132.66 26.29,132.63 26.51,132.59C26.72,132.56 26.94,132.52 27.15,132.49C27.37,132.46 27.58,132.42 27.8,132.39C28.01,132.36 28.3,132.31 28.44,132.29C28.51,132.28 28.53,132.28 28.59,132.27C28.71,132.25 28.91,132.2 29.09,132.16C29.29,132.11 29.52,132.06 29.74,132.01C29.95,131.96 30.17,131.91 30.38,131.87C30.6,131.82 30.81,131.78 31.03,131.74C31.25,131.7 31.46,131.65 31.68,131.61C31.89,131.57 32.11,131.53 32.32,131.49C32.54,131.45 32.75,131.41 32.97,131.37C33.19,131.33 33.4,131.3 33.62,131.26C33.83,131.22 34.05,131.19 34.26,131.15C34.48,131.11 34.69,131.08 34.91,131.04C35.13,131.01 35.4,130.96 35.56,130.94C35.65,130.93 35.69,130.93 35.77,130.91C35.89,130.89 36.04,130.85 36.2,130.81C36.39,130.77 36.63,130.72 36.85,130.67C37.06,130.62 37.28,130.57 37.49,130.53C37.71,130.48 37.92,130.44 38.14,130.4C38.36,130.36 38.57,130.31 38.79,130.27C39,130.23 39.22,130.19 39.43,130.15C39.65,130.11 39.86,130.07 40.08,130.03C40.3,129.99 40.51,129.96 40.73,129.92C40.94,129.88 41.16,129.84 41.37,129.8C41.59,129.76 41.8,129.73 42.02,129.7C42.24,129.66 42.5,129.62 42.67,129.59C42.78,129.57 42.85,129.57 42.95,129.55C43.06,129.53 43.17,129.5 43.31,129.47C43.49,129.43 43.74,129.38 43.96,129.33C44.18,129.28 44.39,129.24 44.61,129.19C44.82,129.15 45.04,129.1 45.25,129.06C45.47,129.02 45.68,128.97 45.9,128.93C46.12,128.89 46.33,128.85 46.55,128.81C46.76,128.77 46.98,128.73 47.19,128.69C47.41,128.65 47.62,128.61 47.84,128.57C48.05,128.53 48.27,128.5 48.48,128.46C48.7,128.42 48.91,128.39 49.13,128.35C49.35,128.31 49.6,128.27 49.78,128.24C49.92,128.22 50.03,128.2 50.14,128.18C50.24,128.16 50.31,128.14 50.42,128.12C50.59,128.08 50.85,128.03 51.07,127.98C51.29,127.94 51.5,127.89 51.72,127.85C51.93,127.81 52.15,127.76 52.36,127.72C52.58,127.68 52.79,127.63 53.01,127.59C53.23,127.55 53.44,127.51 53.66,127.47C53.87,127.43 54.09,127.39 54.3,127.35C54.52,127.31 54.73,127.27 54.95,127.23C55.17,127.19 55.38,127.15 55.6,127.11C55.81,127.07 56.03,127.04 56.24,127C56.46,126.96 56.7,126.92 56.89,126.89C57.05,126.86 57.2,126.84 57.32,126.82C57.41,126.8 57.45,126.79 57.54,126.77C57.7,126.74 57.97,126.68 58.18,126.64C58.4,126.59 58.61,126.55 58.83,126.5C59.04,126.46 59.26,126.41 59.47,126.37C59.69,126.33 59.9,126.29 60.12,126.25C60.34,126.21 60.55,126.16 60.77,126.12C60.98,126.08 61.2,126.04 61.41,126C61.63,125.96 61.84,125.92 62.06,125.88C62.28,125.84 62.49,125.81 62.71,125.77C62.92,125.73 63.14,125.69 63.35,125.65Q63.57,125.61 64,125.54L64,135Z" style="stroke: none; fill: rgb(75, 123, 92);"/><path d="M21.33,135Q21.76,134.92 21.98,134.88C22.2,134.84 22.41,134.81 22.63,134.77C22.84,134.73 23.06,134.69 23.27,134.66C23.49,134.62 23.7,134.59 23.92,134.56C24.14,134.53 24.35,134.5 24.57,134.47C24.78,134.44 25,134.4 25.21,134.37C25.43,134.34 25.64,134.32 25.86,134.29C26.08,134.26 26.29,134.24 26.51,134.21C26.72,134.18 26.94,134.16 27.15,134.13C27.37,134.1 27.58,134.08 27.8,134.05C28.01,134.03 28.23,134 28.44,133.98C28.66,133.96 28.87,133.94 29.09,133.92C29.31,133.9 29.52,133.87 29.74,133.85C29.95,133.83 30.17,133.81 30.38,133.79C30.6,133.77 30.81,133.75 31.03,133.73C31.25,133.71 31.49,133.69 31.68,133.67C31.84,133.66 31.99,133.66 32.11,133.64C32.19,133.63 32.23,133.62 32.32,133.6C32.48,133.57 32.75,133.53 32.97,133.49C33.19,133.46 33.4,133.42 33.62,133.39C33.83,133.36 34.05,133.33 34.26,133.3C34.48,133.27 34.69,133.23 34.91,133.2C35.13,133.17 35.34,133.14 35.56,133.11C35.77,133.08 35.99,133.05 36.2,133.02C36.42,132.99 36.63,132.97 36.85,132.94C37.06,132.91 37.28,132.89 37.49,132.86C37.71,132.83 37.92,132.81 38.14,132.78C38.36,132.75 38.57,132.73 38.79,132.7C39,132.68 39.22,132.65 39.43,132.63C39.65,132.61 39.86,132.58 40.08,132.56C40.3,132.54 40.51,132.51 40.73,132.49C40.94,132.47 41.16,132.44 41.37,132.42C41.59,132.4 41.8,132.38 42.02,132.36C42.24,132.34 42.51,132.31 42.67,132.29C42.76,132.28 42.8,132.28 42.88,132.27C43,132.26 43.15,132.23 43.31,132.21C43.5,132.18 43.74,132.14 43.96,132.11C44.18,132.08 44.39,132.04 44.61,132.01C44.82,131.98 45.04,131.95 45.25,131.92C45.47,131.89 45.68,131.86 45.9,131.83C46.12,131.8 46.33,131.77 46.55,131.74C46.76,131.71 46.98,131.68 47.19,131.65C47.41,131.62 47.62,131.6 47.84,131.57C48.05,131.54 48.27,131.52 48.48,131.49C48.7,131.46 48.91,131.44 49.13,131.41C49.35,131.38 49.56,131.36 49.78,131.33C49.99,131.31 50.21,131.28 50.42,131.26C50.64,131.23 50.85,131.21 51.07,131.18C51.29,131.16 51.5,131.13 51.72,131.11C51.93,131.09 52.15,131.06 52.36,131.04C52.58,131.02 52.79,131 53.01,130.98C53.23,130.96 53.44,130.94 53.66,130.91C53.87,130.88 54.09,130.84 54.3,130.81C54.52,130.78 54.73,130.75 54.95,130.72C55.17,130.69 55.38,130.65 55.6,130.62C55.81,130.59 56.03,130.56 56.24,130.53C56.46,130.5 56.67,130.48 56.89,130.45C57.11,130.42 57.32,130.39 57.54,130.36C57.75,130.33 57.97,130.3 58.18,130.27C58.4,130.24 58.61,130.22 58.83,130.19C59.04,130.16 59.26,130.14 59.47,130.11C59.69,130.08 59.9,130.06 60.12,130.03C60.34,130 60.55,129.98 60.77,129.95C60.98,129.93 61.2,129.9 61.41,129.88C61.63,129.85 61.84,129.83 62.06,129.8C62.28,129.78 62.49,129.75 62.71,129.73C62.92,129.71 63.14,129.68 63.35,129.66Q63.57,129.64 64,129.59L64,135Z" style="stroke: none; fill: rgb(88, 136, 105);"/><path d="M28.44,135Q28.87,134.94 29.09,134.91C29.31,134.88 29.52,134.85 29.74,134.82C29.95,134.79 30.17,134.77 30.38,134.74C30.6,134.71 30.81,134.69 31.03,134.66C31.25,134.64 31.46,134.62 31.68,134.59C31.89,134.57 32.11,134.53 32.32,134.51C32.54,134.48 32.75,134.46 32.97,134.44C33.19,134.42 33.4,134.39 33.62,134.37C33.83,134.35 34.05,134.33 34.26,134.31C34.48,134.29 34.69,134.27 34.91,134.25C35.13,134.23 35.34,134.21 35.56,134.19C35.77,134.17 35.99,134.15 36.2,134.13C36.42,134.11 36.63,134.09 36.85,134.07C37.06,134.05 37.28,134.04 37.49,134.02C37.71,134 37.92,133.99 38.14,133.97C38.36,133.95 38.57,133.94 38.79,133.92C39,133.9 39.22,133.89 39.43,133.87C39.65,133.85 39.86,133.84 40.08,133.82C40.3,133.8 40.51,133.79 40.73,133.77C40.94,133.76 41.16,133.74 41.37,133.73C41.59,133.72 41.8,133.7 42.02,133.69C42.24,133.68 42.53,133.66 42.67,133.65C42.73,133.65 42.75,133.65 42.81,133.64C42.93,133.63 43.13,133.59 43.31,133.57C43.51,133.54 43.74,133.52 43.96,133.49C44.18,133.47 44.39,133.45 44.61,133.42C44.82,133.4 45.04,133.36 45.25,133.34C45.47,133.31 45.68,133.29 45.9,133.27C46.12,133.25 46.33,133.22 46.55,133.2C46.76,133.18 46.98,133.15 47.19,133.13C47.41,133.11 47.62,133.09 47.84,133.07C48.05,133.05 48.27,133.02 48.48,133C48.7,132.98 48.91,132.96 49.13,132.94C49.35,132.92 49.56,132.9 49.78,132.88C49.99,132.86 50.21,132.84 50.42,132.82C50.64,132.8 50.85,132.78 51.07,132.76C51.29,132.74 51.5,132.72 51.72,132.7C51.93,132.68 52.15,132.67 52.36,132.65C52.58,132.63 52.79,132.61 53.01,132.59C53.23,132.57 53.44,132.56 53.66,132.54C53.87,132.52 54.09,132.51 54.3,132.49C54.52,132.47 54.73,132.46 54.95,132.44C55.17,132.42 55.38,132.41 55.6,132.39C55.81,132.37 56.03,132.36 56.24,132.34C56.46,132.32 56.72,132.3 56.89,132.29C57.01,132.28 57.08,132.28 57.18,132.27C57.29,132.26 57.4,132.25 57.54,132.23C57.72,132.21 57.97,132.18 58.18,132.16C58.4,132.13 58.61,132.11 58.83,132.08C59.04,132.06 59.26,132.03 59.47,132.01C59.69,131.99 59.9,131.96 60.12,131.94C60.34,131.92 60.55,131.89 60.77,131.87C60.98,131.85 61.2,131.82 61.41,131.8C61.63,131.78 61.84,131.76 62.06,131.74C62.28,131.72 62.49,131.69 62.71,131.67C62.92,131.65 63.14,131.63 63.35,131.61Q63.57,131.59 64,131.55L64,135Z" style="stroke: none; fill: rgb(101, 150, 118);"/><path d="M35.56,135Q35.99,134.95 36.2,134.93C36.42,134.91 36.63,134.88 36.85,134.86C37.06,134.84 37.28,134.81 37.49,134.79C37.71,134.77 37.92,134.74 38.14,134.72C38.36,134.7 38.57,134.68 38.79,134.66C39,134.64 39.22,134.62 39.43,134.6C39.65,134.58 39.86,134.56 40.08,134.54C40.3,134.52 40.51,134.5 40.73,134.48C40.94,134.46 41.16,134.45 41.37,134.43C41.59,134.41 41.8,134.39 42.02,134.37C42.24,134.35 42.45,134.34 42.67,134.32C42.88,134.3 43.1,134.29 43.31,134.27C43.53,134.25 43.74,134.24 43.96,134.22C44.18,134.21 44.39,134.2 44.61,134.18C44.82,134.17 45.04,134.15 45.25,134.13C45.47,134.11 45.68,134.1 45.9,134.08C46.12,134.07 46.33,134.05 46.55,134.04C46.76,134.03 46.98,134.01 47.19,134C47.41,133.99 47.62,133.97 47.84,133.96C48.05,133.95 48.27,133.93 48.48,133.92C48.7,133.91 48.91,133.89 49.13,133.88C49.35,133.87 49.56,133.85 49.78,133.84C49.99,133.83 50.21,133.81 50.42,133.8C50.64,133.79 50.85,133.78 51.07,133.77C51.29,133.76 51.5,133.74 51.72,133.73C51.93,133.72 52.15,133.71 52.36,133.7C52.58,133.69 52.81,133.67 53.01,133.66C53.19,133.65 53.39,133.65 53.51,133.64C53.57,133.63 53.59,133.63 53.66,133.62C53.8,133.6 54.09,133.58 54.3,133.56C54.52,133.54 54.73,133.51 54.95,133.49C55.17,133.47 55.38,133.45 55.6,133.43C55.81,133.41 56.03,133.39 56.24,133.37C56.46,133.35 56.67,133.33 56.89,133.31C57.11,133.29 57.32,133.28 57.54,133.26C57.75,133.24 57.97,133.22 58.18,133.2C58.4,133.18 58.61,133.17 58.83,133.15C59.04,133.13 59.26,133.11 59.47,133.09C59.69,133.07 59.9,133.06 60.12,133.04C60.34,133.02 60.55,133.01 60.77,132.99C60.98,132.97 61.2,132.96 61.41,132.94C61.63,132.92 61.84,132.91 62.06,132.89C62.28,132.87 62.49,132.86 62.71,132.84C62.92,132.82 63.14,132.8 63.35,132.79Q63.57,132.77 64,132.75L64,135Z" style="stroke: none; fill: rgb(113, 163, 131);"/><path d="M42.67,135Q43.1,134.96 43.31,134.94C43.53,134.92 43.74,134.9 43.96,134.88C44.18,134.86 44.39,134.84 44.61,134.82C44.82,134.8 45.04,134.79 45.25,134.77C45.47,134.75 45.68,134.73 45.9,134.71C46.12,134.69 46.33,134.68 46.55,134.66C46.76,134.64 46.98,134.63 47.19,134.61C47.41,134.59 47.62,134.58 47.84,134.56C48.05,134.54 48.27,134.52 48.48,134.51C48.7,134.49 48.91,134.48 49.13,134.47C49.35,134.45 49.56,134.44 49.78,134.42C49.99,134.4 50.21,134.38 50.42,134.37C50.64,134.35 50.85,134.34 51.07,134.33C51.29,134.32 51.5,134.3 51.72,134.29C51.93,134.28 52.15,134.26 52.36,134.25C52.58,134.24 52.79,134.22 53.01,134.21C53.23,134.2 53.44,134.18 53.66,134.17C53.87,134.16 54.09,134.14 54.3,134.13C54.52,134.12 54.73,134.1 54.95,134.09C55.17,134.08 55.38,134.06 55.6,134.05C55.81,134.04 56.03,134.03 56.24,134.02C56.46,134.01 56.67,133.99 56.89,133.98C57.11,133.97 57.32,133.96 57.54,133.95C57.75,133.94 57.97,133.93 58.18,133.92C58.4,133.91 58.61,133.89 58.83,133.88C59.04,133.87 59.26,133.86 59.47,133.85C59.69,133.84 59.9,133.83 60.12,133.82C60.34,133.81 60.55,133.8 60.77,133.79C60.98,133.78 61.2,133.77 61.41,133.76C61.63,133.75 61.84,133.74 62.06,133.73C62.28,133.72 62.49,133.71 62.71,133.7C62.92,133.69 63.14,133.68 63.35,133.67Q63.57,133.66 64,133.65L64,135Z" style="stroke: none; fill: rgb(126, 176, 144);"/><path d="M49.78,135Q50.21,134.97 50.42,134.95C50.64,134.93 50.85,134.92 51.07,134.9C51.29,134.88 51.5,134.87 51.72,134.85C51.93,134.83 52.15,134.82 52.36,134.8C52.58,134.78 52.79,134.77 53.01,134.75C53.23,134.74 53.44,134.73 53.66,134.71C53.87,134.7 54.09,134.67 54.3,134.66C54.52,134.64 54.73,134.63 54.95,134.62C55.17,134.6 55.38,134.59 55.6,134.57C55.81,134.56 56.03,134.54 56.24,134.53C56.46,134.52 56.67,134.5 56.89,134.49C57.11,134.48 57.32,134.46 57.54,134.45C57.75,134.44 57.97,134.42 58.18,134.41C58.4,134.4 58.61,134.38 58.83,134.37C59.04,134.36 59.26,134.35 59.47,134.34C59.69,134.33 59.9,134.31 60.12,134.3C60.34,134.29 60.55,134.28 60.77,134.27C60.98,134.26 61.2,134.24 61.41,134.23C61.63,134.22 61.84,134.21 62.06,134.2C62.28,134.19 62.49,134.17 62.71,134.16C62.92,134.15 63.14,134.14 63.35,134.13Q63.57,134.12 64,134.1L64,135Z" style="stroke: none; fill: rgb(139, 189, 157);"/><path d="M56.89,135Q57.32,134.97 57.54,134.95C57.75,134.94 57.97,134.92 58.18,134.91C58.4,134.9 58.61,134.89 58.83,134.87C59.04,134.86 59.26,134.83 59.47,134.82C59.69,134.8 59.9,134.79 60.12,134.78C60.34,134.77 60.55,134.75 60.77,134.74C60.98,134.73 61.2,134.71 61.41,134.7C61.63,134.69 61.84,134.67 62.06,134.66C62.28,134.65 62.49,134.63 62.71,134.62C62.92,134.61 63.14,134.6 63.35,134.59Q63.57,134.58 64,134.55L64,135Z" style="stroke: none; fill: rgb(152, 202, 170);"/></g><g class="contourlines"/></g></g></g></g><g class="zerolinelayer-above"/><path class="xlines-above crisp" d="M28.5,146.25H93.5M28.5,10.75H93.5" style="fill: none; stroke-width: 0.5px; stroke: rgb(0, 0, 0); stroke-opacity: 1;"/><path class="ylines-above crisp" d="M28.75,11V146M93.25,11V146" style="fill: none; stroke-width: 0.5px; stroke: rgb(0, 0, 0); stroke-opacity: 1;"/><g class="overlines-above"/><g class="xaxislayer-above"><path class="xtick ticks crisp" d="M0,146v-5" transform="translate(46.78,0)" style="stroke: rgb(0, 0, 0); stroke-opacity: 1; stroke-width: 0.5px;"/><path class="xtick ticks crisp" d="M0,146v-5" transform="translate(64.56,0)" style="stroke: rgb(0, 0, 0); stroke-opacity: 1; stroke-width: 0.5px;"/><path class="xtick ticks crisp" d="M0,146v-5" transform="translate(82.33,0)" style="stroke: rgb(0, 0, 0); stroke-opacity: 1; stroke-width: 0.5px;"/><g class="xtick"><text text-anchor="middle" x="0" y="159.7" transform="translate(29,0)" style="font-family: 'Open Sans', verdana, arial, sans-serif; font-size: 11px; fill: rgb(0, 0, 0); fill-opacity: 1; white-space: pre;">0</text></g><g class="xtick"><text text-anchor="middle" x="0" y="159.7" style="font-family: 'Open Sans', verdana, arial, sans-serif; font-size: 11px; fill: rgb(0, 0, 0); fill-opacity: 1; white-space: pre;" transform="translate(46.78,0)">0.5</text></g><g class="xtick"><text text-anchor="middle" x="0" y="159.7" style="font-family: 'Open Sans', verdana, arial, sans-serif; font-size: 11px; fill: rgb(0, 0, 0); fill-opacity: 1; white-space: pre;" transform="translate(64.56,0)">1</text></g><g class="xtick"><text text-anchor="middle" x="0" y="159.7" style="font-family: 'Open Sans', verdana, arial, sans-serif; font-size: 11px; fill: rgb(0, 0, 0); fill-opacity: 1; white-space: pre;" transform="translate(82.33,0)">1.5</text></g></g><g class="yaxislayer-above"><path class="ytick ticks crisp" d="M29,0h5" transform="translate(0,103.81)" style="stroke: rgb(0, 0, 0); stroke-opacity: 1; stroke-width: 0.5px;"/><path class="ytick ticks crisp" d="M29,0h5" transform="translate(0,61.63)" style="stroke: rgb(0, 0, 0); stroke-opacity: 1; stroke-width: 0.5px;"/><path class="ytick ticks crisp" d="M29,0h5" transform="translate(0,19.439999999999998)" style="stroke: rgb(0, 0, 0); stroke-opacity: 1; stroke-width: 0.5px;"/><g class="ytick"><text text-anchor="end" x="26.3" y="3.8499999999999996" transform="translate(0,146)" style="font-family: 'Open Sans', verdana, arial, sans-serif; font-size: 11px; fill: rgb(0, 0, 0); fill-opacity: 1; white-space: pre;">0</text></g><g class="ytick"><text text-anchor="end" x="26.3" y="3.8499999999999996" style="font-family: 'Open Sans', verdana, arial, sans-serif; font-size: 11px; fill: rgb(0, 0, 0); fill-opacity: 1; white-space: pre;" transform="translate(0,103.81)">5</text></g><g class="ytick"><text text-anchor="end" x="26.3" y="3.8499999999999996" style="font-family: 'Open Sans', verdana, arial, sans-serif; font-size: 11px; fill: rgb(0, 0, 0); fill-opacity: 1; white-space: pre;" transform="translate(0,61.63)">10</text></g><g class="ytick"><text text-anchor="end" x="26.3" y="3.8499999999999996" style="font-family: 'Open Sans', verdana, arial, sans-serif; font-size: 11px; fill: rgb(0, 0, 0); fill-opacity: 1; white-space: pre;" transform="translate(0,19.439999999999998)">15</text></g></g><g class="overaxes-above"/></g></g><g class="polarlayer"/><g class="smithlayer"/><g class="ternarylayer"/><g class="geolayer"/><g class="funnelarealayer"/><g class="pielayer"/><g class="iciclelayer"/><g class="treemaplayer"/><g class="sunburstlayer"/><g class="glimages"/><defs id="topdefs-689d9e"><g class="clips"/></defs><g class="layer-above"><g class="imagelayer"/><g class="shapelayer"/></g><g class="infolayer"><g class="cb6367bb colorbar" transform="translate(29,11)"><rect class="cbbg" x="65" y="0" width="88.9169921875" height="135" style="fill: rgb(0, 0, 0); fill-opacity: 0; stroke: rgb(68, 68, 68); stroke-opacity: 1; stroke-width: 0;"/><g class="cbfills" transform="translate(0,10)"><rect class="cbfill" style="" x="75" y="1" width="30" height="114" fill="#316142"/><rect class="cbfill" style="" x="75" y="1" width="30" height="101" fill="#3e6e4f"/><rect class="cbfill" style="" x="75" y="1" width="30" height="88" fill="#4b7b5c"/><rect class="cbfill" style="" x="75" y="1" width="30" height="76" fill="#588869"/><rect class="cbfill" style="" x="75" y="1" width="30" height="63" fill="#659676"/><rect class="cbfill" style="" x="75" y="1" width="30" height="50" fill="#71a383"/><rect class="cbfill" style="" x="75" y="1" width="30" height="37" fill="#7eb090"/><rect class="cbfill" style="" x="75" y="1" width="30" height="25" fill="#8bbd9d"/><rect class="cbfill" style="" x="75" y="0" width="30" height="13" fill="#98caaa"/></g><g class="cblines" transform="translate(0,10)"/><g class="cbaxis crisp" transform="translate(0,-11)"><g class="ycb6367bbtick"><text text-anchor="start" x="107.7" y="3.8499999999999996" transform="translate(0,136)" style="font-family: 'Open Sans', verdana, arial, sans-serif; font-size: 11px; fill: rgb(0, 0, 0); fill-opacity: 1; white-space: pre;">0</text></g><g class="ycb6367bbtick"><text text-anchor="start" x="107.7" y="3.8499999999999996" style="font-family: 'Open Sans', verdana, arial, sans-serif; font-size: 11px; fill: rgb(0, 0, 0); fill-opacity: 1; white-space: pre;" transform="translate(0,123.22)">0.2</text></g><g class="ycb6367bbtick"><text text-anchor="start" x="107.7" y="3.8499999999999996" style="font-family: 'Open Sans', verdana, arial, sans-serif; font-size: 11px; fill: rgb(0, 0, 0); fill-opacity: 1; white-space: pre;" transform="translate(0,110.44)">0.4</text></g><g class="ycb6367bbtick"><text text-anchor="start" x="107.7" y="3.8499999999999996" style="font-family: 'Open Sans', verdana, arial, sans-serif; font-size: 11px; fill: rgb(0, 0, 0); fill-opacity: 1; white-space: pre;" transform="translate(0,97.67)">0.6</text></g><g class="ycb6367bbtick"><text text-anchor="start" x="107.7" y="3.8499999999999996" style="font-family: 'Open Sans', verdana, arial, sans-serif; font-size: 11px; fill: rgb(0, 0, 0); fill-opacity: 1; white-space: pre;" transform="translate(0,84.89)">0.8</text></g><g class="ycb6367bbtick"><text text-anchor="start" x="107.7" y="3.8499999999999996" style="font-family: 'Open Sans', verdana, arial, sans-serif; font-size: 11px; fill: rgb(0, 0, 0); fill-opacity: 1; white-space: pre;" transform="translate(0,72.11)">1</text></g><g class="ycb6367bbtick"><text text-anchor="start" x="107.7" y="3.8499999999999996" style="font-family: 'Open Sans', verdana, arial, sans-serif; font-size: 11px; fill: rgb(0, 0, 0); fill-opacity: 1; white-space: pre;" transform="translate(0,59.33)">1.2</text></g><g class="ycb6367bbtick"><text text-anchor="start" x="107.7" y="3.8499999999999996" style="font-family: 'Open Sans', verdana, arial, sans-serif; font-size: 11px; fill: rgb(0, 0, 0); fill-opacity: 1; white-space: pre;" transform="translate(0,46.56)">1.4</text></g><g class="ycb6367bbtick"><text text-anchor="start" x="107.7" y="3.8499999999999996" style="font-family: 'Open Sans', verdana, arial, sans-serif; font-size: 11px; fill: rgb(0, 0, 0); fill-opacity: 1; white-space: pre;" transform="translate(0,33.78)">1.6</text></g><g class="ycb6367bbtick"><text text-anchor="start" x="107.7" y="3.8499999999999996" style="font-family: 'Open Sans', verdana, arial, sans-serif; font-size: 11px; fill: rgb(0, 0, 0); fill-opacity: 1; white-space: pre;" transform="translate(0,21)">1.8</text></g></g><g class="cbtitleunshift" transform="translate(-29,-11)"><g class="cbtitle" transform="translate(11.63671875,0)"><text class="hycb6367bbtitle" transform="rotate(-90,157.28,78.5)" x="157.28" y="78.5" text-anchor="middle" style="opacity: 1; font-family: 'Open Sans', verdana, arial, sans-serif; font-size: 13px; fill: rgb(0, 0, 0); fill-opacity: 1; white-space: pre;">Netto growth rate [1/h]</text></g></g><rect class="cboutline" x="75" y="10" width="30" height="115" style="stroke: rgb(68, 68, 68); stroke-opacity: 1; fill: none; stroke-width: 0;"/></g><g class="g-gtitle"/><g class="g-xtitle" transform="translate(0,4.550000000000011)"><text class="xtitle" x="61" y="170.1501953125" text-anchor="middle" style="opacity: 1; font-family: 'Open Sans', verdana, arial, sans-serif; font-size: 11px; fill: rgb(0, 0, 0); fill-opacity: 1; white-space: pre;">µ [1/h]</text></g><g class="g-ytitle" transform="translate(1.8935546875,0)"><text class="ytitle" transform="rotate(-90,10.106054687499999,78.5)" x="10.106054687499999" y="78.5" text-anchor="middle" style="opacity: 1; font-family: 'Open Sans', verdana, arial, sans-serif; font-size: 11px; fill: rgb(0, 0, 0); fill-opacity: 1; white-space: pre;">Chloram [μg/mL]</text></g></g></svg>