<svg class="main-svg" xmlns="http://www.w3.org/2000/svg" xmlns:xlink="http://www.w3.org/1999/xlink" width="150" height="150" style="" viewBox="0 0 150 150"><rect x="0" y="0" width="150" height="150" style="fill: rgb(255, 255, 255); fill-opacity: 1;"/><defs id="defs-26eabb"><g class="clips"><clipPath id="clip26eabbxyplot" class="plotclip"><rect width="106" height="105"/></clipPath><clipPath class="axesclip" id="clip26eabbx"><rect x="33" y="0" width="106" height="150"/></clipPath><clipPath class="axesclip" id="clip26eabby"><rect x="0" y="11" width="150" height="105"/></clipPath><clipPath class="axesclip" id="clip26eabbxy"><rect x="33" y="11" width="106" height="105"/></clipPath><clipPath class="contourclip" id="clip7a9212"><path d="M0,0L106,0L106,105L0,105Z"/></clipPath></g><g class="gradients"/><g class="patterns"/></defs><g class="bglayer"/><g class="layer-below"><g class="imagelayer"/><g class="shapelayer"/></g><g class="cartesianlayer"><g class="subplot xy"><g class="layer-subplot"><g class="shapelayer"/><g class="imagelayer"/></g><g class="minor-gridlayer"><g class="x"/><g class="y"/></g><g class="gridlayer"><g class="x"><path class="xgrid crisp" transform="translate(81.18,0)" d="M0,11v105" style="stroke: rgb(128, 128, 128); stroke-opacity: 1; stroke-width: 0.2px;"/><path class="xgrid crisp" transform="translate(129.36,0)" d="M0,11v105" style="stroke: rgb(128, 128, 128); stroke-opacity: 1; stroke-width: 0.2px;"/></g><g class="y"><path class="ygrid crisp" transform="translate(0,83.19)" d="M33,0h106" style="stroke: rgb(128, 128, 128); stroke-opacity: 1; stroke-width: 0.2px;"/><path class="ygrid crisp" transform="translate(0,50.38)" d="M33,0h106" style="stroke: rgb(128, 128, 128); stroke-opacity: 1; stroke-width: 0.2px;"/><path class="ygrid crisp" transform="translate(0,17.56)" d="M33,0h106" style="stroke: rgb(128, 128, 128); stroke-opacity: 1; stroke-width: 0.2px;"/></g></g><g class="zerolinelayer"/><g class="layer-between"><g class="shapelayer"/><g class="imagelayer"/></g><path class="xlines-below"/><path class="ylines-below"/><g class="overlines-below"/><g class="xaxislayer-below"/><g class="yaxislayer-below"/><g class="overaxes-below"/><g class="overplot"><g class="xy" transform="translate(33,11)" clip-path="url(#clip26eabbxyplot)"><g class="contourlayer mlayer"><g class="contour" clip-path="url(#clip7a9212)" style="opacity: 1;"><g class="heatmapcoloring"/><g class="contourbg"><path d="M0,0L106,0L106,105L0,105Z" style="stroke: none; fill: rgb(59, 76, 192);"/></g><g class="contourfill"><path d="M9.64,105Q10.35,104.78 10.71,104.68C11.07,104.59 11.42,104.51 11.78,104.43C12.14,104.35 12.49,104.28 12.85,104.21C13.21,104.14 13.62,104.08 13.92,104.03C14.14,103.99 14.32,103.98 14.5,103.94C14.67,103.9 14.79,103.85 14.99,103.8C15.28,103.72 15.7,103.62 16.06,103.53C16.42,103.45 16.77,103.37 17.13,103.29C17.49,103.22 17.84,103.15 18.2,103.08C18.57,103.01 18.96,102.96 19.32,102.88499999999999C19.67,102.81 20,102.71 20.34,102.63C20.69,102.54 21.05,102.45 21.41,102.37C21.77,102.29 22.12,102.22 22.48,102.15C22.84,102.08 23.24,102 23.56,101.94C23.81,101.89 24.05,101.86 24.24,101.82C24.39,101.79 24.47,101.76 24.63,101.72C24.9,101.65 25.34,101.54 25.7,101.46C26.06,101.38 26.41,101.3 26.77,101.22C27.13,101.14 27.48,101.07 27.84,101C28.2,100.93 28.7,100.83 28.91,100.79C29,100.77 29.01,100.78 29.1,100.76C29.29,100.72 29.67,100.61 29.98,100.54C30.32,100.46 30.69,100.37 31.05,100.29C31.41,100.21 31.76,100.13 32.12,100.06C32.48,99.99 32.86,99.91 33.19,99.85C33.47,99.8 33.77,99.75 33.97,99.7C34.09,99.67 34.13,99.65 34.26,99.62C34.5,99.56 34.97,99.45 35.33,99.37C35.69,99.29 36.04,99.21 36.4,99.13C36.76,99.05 37.11,98.98 37.47,98.91C37.83,98.84 38.3,98.74 38.55,98.69C38.68,98.67 38.72,98.66 38.84,98.64C39.04,98.6 39.34,98.52 39.62,98.45C39.95,98.37 40.33,98.28 40.69,98.2C41.05,98.12 41.4,98.05 41.76,97.97C42.12,97.9 42.49,97.82 42.83,97.75C43.13,97.69 43.51,97.62 43.7,97.58C43.79,97.56 43.81,97.55 43.9,97.53C44.12,97.48 44.61,97.36 44.97,97.28C45.33,97.2 45.68,97.12 46.04,97.04C46.4,96.96 46.75,96.89 47.11,96.81C47.47,96.74 47.91,96.64 48.18,96.59C48.34,96.56 48.42,96.55 48.57,96.52C48.77,96.48 49,96.41 49.25,96.35C49.57,96.28 49.96,96.19 50.32,96.11C50.68,96.03 51.03,95.96 51.39,95.88C51.75,95.8 52.11,95.72 52.46,95.65C52.81,95.58 53.14,95.52 53.489999999999995,95.44C53.86,95.36 54.24,95.26 54.61,95.18C54.97,95.1 55.32,95.02 55.68,94.94C56.04,94.86 56.39,94.79 56.75,94.71C57.11,94.64 57.53,94.55 57.82,94.49C58.01,94.45 58.13,94.43 58.3,94.39C58.49,94.35 58.66,94.31 58.89,94.26C59.19,94.19 59.6,94.09 59.96,94.01C60.32,93.93 60.67,93.86 61.03,93.78C61.39,93.7 61.74,93.63 62.1,93.55C62.46,93.48 62.81,93.41 63.17,93.33C63.53,93.25 63.88,93.17 64.24,93.09C64.6,93.01 64.95,92.93 65.31,92.85C65.67,92.77 66.02,92.7 66.38,92.62C66.74,92.54 67.15,92.45 67.45,92.39C67.68,92.34 67.85,92.31 68.04,92.27C68.21,92.23 68.34,92.2 68.53,92.16C68.82,92.1 69.24,92 69.6,91.92C69.96,91.84 70.31,91.76 70.67,91.68C71.03,91.6 71.38,91.53 71.74,91.45C72.11,91.37 72.5,91.3 72.86,91.22C73.21,91.14 73.54,91.07 73.88,90.99C74.23,90.91 74.59,90.83 74.95,90.75C75.31,90.67 75.66,90.6 76.02,90.52C76.38,90.44 76.77,90.36 77.09,90.29C77.34,90.24 77.57,90.19 77.77,90.15C77.92,90.12 78,90.1 78.16,90.06C78.43,90 78.87,89.9 79.23,89.82C79.59,89.74 79.94,89.66 80.3,89.58C80.66,89.5 81.01,89.43 81.37,89.35C81.73,89.28 82.22,89.17 82.44,89.13C82.53,89.11 82.55,89.11 82.64,89.09C82.83,89.05 83.21,88.96 83.52,88.89C83.86,88.81 84.23,88.73 84.59,88.65C84.95,88.57 85.3,88.5 85.66,88.42C86.02,88.34 86.4,88.26 86.73,88.19C87.01,88.13 87.31,88.07 87.51,88.03C87.63,88 87.67,87.99 87.8,87.96C88.04,87.9 88.51,87.8 88.87,87.72C89.23,87.64 89.58,87.57 89.94,87.49C90.3,87.41 90.65,87.34 91.01,87.26C91.37,87.18 91.84,87.08 92.08,87.03C92.21,87 92.25,87 92.37,86.97C92.57,86.93 92.87,86.85 93.15,86.79C93.48,86.72 93.86,86.63 94.22,86.55C94.58,86.47 94.93,86.4 95.29,86.32C95.65,86.24 96.02,86.16 96.36,86.09C96.67,86.03 97.05,85.95 97.24,85.91C97.33,85.89 97.34,85.88 97.43,85.86C97.64,85.81 98.15,85.7 98.51,85.62C98.87,85.54 99.22,85.47 99.58,85.39C99.94,85.31 100.29,85.24 100.65,85.16C101.01,85.08 101.45,84.99 101.72,84.93C101.88,84.9 101.96,84.88 102.11,84.85C102.31,84.81 102.54,84.75 102.79,84.69C103.11,84.62 103.5,84.54 103.86,84.46C104.22,84.38 104.57,84.3 104.93,84.22Q105.29,84.14 106,83.99L106,105Z" style="stroke: none; fill: rgb(91, 114, 202);"/><path d="M19.27,105Q19.98,104.88 20.34,104.83C20.7,104.78 21.05,104.73 21.41,104.68C21.77,104.63 22.12,104.59 22.48,104.55C22.84,104.51 23.2,104.47 23.56,104.43C23.92,104.39 24.27,104.35 24.63,104.31C24.99,104.27 25.34,104.24 25.7,104.21C26.06,104.18 26.41,104.15 26.77,104.12C27.13,104.09 27.48,104.06 27.84,104.03C28.21,104 28.6,103.98 28.96,103.945C29.31,103.91 29.64,103.85 29.98,103.8C30.33,103.75 30.69,103.71 31.05,103.66C31.41,103.62 31.76,103.57 32.12,103.53C32.48,103.49 32.83,103.45 33.19,103.41C33.55,103.37 33.9,103.33 34.26,103.29C34.62,103.25 34.97,103.22 35.33,103.18C35.69,103.15 36.04,103.11 36.4,103.08C36.76,103.05 37.11,103.02 37.47,102.99C37.85,102.96 38.27,102.93 38.644999999999996,102.88499999999999C38.99,102.85 39.29,102.8 39.62,102.76C39.97,102.72 40.33,102.67 40.69,102.63C41.05,102.59 41.4,102.54 41.76,102.5C42.12,102.46 42.47,102.41 42.83,102.37C43.19,102.33 43.54,102.3 43.9,102.26C44.26,102.22 44.61,102.19 44.97,102.15C45.33,102.11 45.68,102.08 46.04,102.04C46.4,102.01 46.75,101.97 47.11,101.94C47.47,101.91 47.94,101.86 48.18,101.84C48.31,101.83 48.35,101.83 48.47,101.82C48.67,101.8 48.97,101.76 49.25,101.72C49.58,101.68 49.96,101.63 50.32,101.59C50.68,101.55 51.03,101.5 51.39,101.46C51.75,101.42 52.1,101.38 52.46,101.34C52.82,101.3 53.18,101.26 53.54,101.22C53.9,101.18 54.25,101.15 54.61,101.11C54.97,101.07 55.32,101.04 55.68,101C56.04,100.96 56.39,100.93 56.75,100.89C57.11,100.86 57.55,100.81 57.82,100.79C57.98,100.78 58.06,100.78 58.21,100.76C58.41,100.74 58.64,100.7 58.89,100.67C59.21,100.63 59.6,100.58 59.96,100.54C60.32,100.5 60.67,100.46 61.03,100.42C61.39,100.38 61.74,100.33 62.1,100.29C62.46,100.25 62.81,100.22 63.17,100.18C63.53,100.14 63.88,100.1 64.24,100.06C64.6,100.02 64.95,99.99 65.31,99.95C65.67,99.92 66.02,99.88 66.38,99.85C66.74,99.81 67.16,99.77 67.45,99.74C67.64,99.72 67.77,99.72 67.94,99.7C68.13,99.68 68.3,99.65 68.53,99.62C68.83,99.58 69.24,99.54 69.6,99.5C69.96,99.46 70.31,99.41 70.67,99.37C71.03,99.33 71.38,99.29 71.74,99.25C72.1,99.21 72.45,99.17 72.81,99.13C73.17,99.09 73.52,99.06 73.88,99.02C74.24,98.98 74.59,98.95 74.95,98.91C75.31,98.87 75.66,98.84 76.02,98.8C76.38,98.76 76.79,98.72 77.09,98.69C77.31,98.67 77.48,98.66 77.67,98.64C77.84,98.62 77.97,98.6 78.16,98.58C78.45,98.54 78.87,98.49 79.23,98.45C79.59,98.41 79.94,98.36 80.3,98.32C80.66,98.28 81.01,98.24 81.37,98.2C81.73,98.16 82.08,98.13 82.44,98.09C82.8,98.05 83.16,98.01 83.52,97.97C83.88,97.93 84.23,97.9 84.59,97.86C84.95,97.82 85.3,97.79 85.66,97.75C86.02,97.71 86.41,97.67 86.73,97.64C86.98,97.62 87.21,97.6 87.41,97.58C87.56,97.56 87.64,97.55 87.8,97.53C88.07,97.5 88.51,97.44 88.87,97.4C89.23,97.36 89.58,97.32 89.94,97.28C90.3,97.24 90.65,97.2 91.01,97.16C91.37,97.12 91.72,97.08 92.08,97.04C92.44,97 92.79,96.96 93.15,96.92C93.51,96.88 93.86,96.85 94.22,96.81C94.58,96.77 94.93,96.74 95.29,96.7C95.65,96.66 96.03,96.62 96.36,96.59C96.64,96.56 96.94,96.54 97.14,96.52C97.26,96.51 97.3,96.5 97.43,96.48C97.68,96.45 98.15,96.39 98.51,96.35C98.87,96.31 99.22,96.27 99.58,96.23C99.94,96.19 100.29,96.15 100.65,96.11C101.01,96.07 101.36,96.03 101.72,95.99C102.08,95.95 102.43,95.92 102.79,95.88C103.15,95.84 103.5,95.8 103.86,95.76C104.22,95.72 104.57,95.69 104.93,95.65Q105.29,95.61 106,95.54L106,105Z" style="stroke: none; fill: rgb(124, 152, 211);"/><path d="M28.91,105Q29.62,104.93 29.98,104.89C30.34,104.85 30.69,104.82 31.05,104.78C31.41,104.75 31.76,104.71 32.12,104.68C32.48,104.65 32.83,104.62 33.19,104.59C33.55,104.56 33.9,104.54 34.26,104.51C34.62,104.48 34.97,104.46 35.33,104.43C35.69,104.4 36.04,104.38 36.4,104.35C36.76,104.33 37.11,104.3 37.47,104.28C37.83,104.26 38.19,104.23 38.55,104.21C38.91,104.19 39.26,104.17 39.62,104.15C39.98,104.13 40.33,104.11 40.69,104.09C41.05,104.07 41.4,104.05 41.76,104.03C42.12,104.01 42.51,103.99 42.83,103.97C43.08,103.96 43.31,103.95 43.51,103.94C43.66,103.93 43.74,103.92 43.9,103.9C44.17,103.87 44.61,103.83 44.97,103.8C45.33,103.77 45.68,103.74 46.04,103.71C46.4,103.68 46.75,103.65 47.11,103.62C47.47,103.59 47.82,103.56 48.18,103.53C48.54,103.5 48.89,103.48 49.25,103.45C49.61,103.42 49.96,103.4 50.32,103.37C50.68,103.34 51.03,103.32 51.39,103.29C51.75,103.27 52.1,103.24 52.46,103.22C52.82,103.2 53.18,103.17 53.54,103.15C53.9,103.13 54.25,103.1 54.61,103.08C54.97,103.06 55.32,103.04 55.68,103.02C56.04,103 56.39,102.97 56.75,102.95C57.11,102.93 57.58,102.9 57.82,102.89C57.95,102.88 57.99,102.89 58.11,102.88C58.31,102.87 58.61,102.83 58.89,102.81C59.22,102.78 59.6,102.75 59.96,102.72C60.32,102.69 60.67,102.66 61.03,102.63C61.39,102.6 61.74,102.57 62.1,102.54C62.46,102.51 62.81,102.49 63.17,102.46C63.53,102.43 63.88,102.4 64.24,102.37C64.6,102.34 64.95,102.32 65.31,102.3C65.67,102.27 66.02,102.25 66.38,102.22C66.74,102.2 67.09,102.17 67.45,102.15C67.81,102.13 68.17,102.1 68.53,102.08C68.89,102.06 69.24,102.03 69.6,102.01C69.96,101.99 70.31,101.96 70.67,101.94C71.03,101.92 71.39,101.9 71.74,101.88C72.08,101.86 72.41,101.84 72.75999999999999,101.815C73.12,101.79 73.51,101.75 73.88,101.72C74.24,101.69 74.59,101.66 74.95,101.63C75.31,101.6 75.66,101.57 76.02,101.54C76.38,101.51 76.73,101.49 77.09,101.46C77.45,101.43 77.8,101.41 78.16,101.38C78.52,101.35 78.87,101.33 79.23,101.3C79.59,101.27 79.94,101.25 80.3,101.22C80.66,101.19 81.01,101.17 81.37,101.14C81.73,101.12 82.08,101.09 82.44,101.07C82.8,101.05 83.16,101.02 83.52,101C83.88,100.98 84.23,100.95 84.59,100.93C84.95,100.91 85.3,100.88 85.66,100.86C86.02,100.84 86.43,100.81 86.73,100.79C86.95,100.78 87.12,100.77 87.31,100.76C87.48,100.75 87.61,100.74 87.8,100.72C88.09,100.7 88.51,100.66 88.87,100.63C89.23,100.6 89.58,100.57 89.94,100.54C90.3,100.51 90.65,100.49 91.01,100.46C91.37,100.43 91.72,100.4 92.08,100.37C92.44,100.34 92.79,100.32 93.15,100.29C93.51,100.26 93.86,100.24 94.22,100.21C94.58,100.19 94.93,100.16 95.29,100.14C95.65,100.11 96,100.09 96.36,100.06C96.72,100.04 97.07,100.01 97.43,99.99C97.79,99.97 98.15,99.94 98.51,99.92C98.87,99.9 99.22,99.87 99.58,99.85C99.94,99.83 100.29,99.8 100.65,99.78C101.03,99.76 101.44,99.73 101.815,99.705C102.15,99.68 102.46,99.65 102.79,99.62C103.14,99.59 103.5,99.57 103.86,99.54C104.22,99.51 104.57,99.48 104.93,99.45Q105.29,99.42 106,99.37L106,105Z" style="stroke: none; fill: rgb(163, 188, 224);"/><path d="M38.55,105Q39.26,104.94 39.62,104.91C39.98,104.88 40.33,104.86 40.69,104.83C41.05,104.81 41.4,104.78 41.76,104.76C42.12,104.73 42.47,104.71 42.83,104.68C43.19,104.66 43.54,104.63 43.9,104.61C44.26,104.59 44.61,104.57 44.97,104.55C45.33,104.53 45.68,104.51 46.04,104.49C46.4,104.47 46.75,104.45 47.11,104.43C47.47,104.41 47.82,104.39 48.18,104.37C48.54,104.35 48.89,104.33 49.25,104.31C49.61,104.29 49.96,104.28 50.32,104.26C50.68,104.24 51.03,104.23 51.39,104.21C51.75,104.19 52.1,104.17 52.46,104.16C52.82,104.14 53.18,104.14 53.54,104.12C53.9,104.11 54.25,104.09 54.61,104.07C54.97,104.06 55.32,104.04 55.68,104.03C56.04,104.02 56.39,104 56.75,103.99C57.13,103.98 57.54,103.96 57.915,103.945C58.25,103.93 58.56,103.9 58.89,103.88C59.24,103.86 59.6,103.83 59.96,103.8C60.32,103.78 60.67,103.75 61.03,103.73C61.39,103.71 61.74,103.68 62.1,103.66C62.46,103.64 62.81,103.61 63.17,103.59C63.53,103.57 63.88,103.55 64.24,103.53C64.6,103.51 64.95,103.49 65.31,103.47C65.67,103.45 66.02,103.43 66.38,103.41C66.74,103.39 67.09,103.37 67.45,103.35C67.81,103.33 68.17,103.31 68.53,103.29C68.89,103.27 69.24,103.26 69.6,103.24C69.96,103.22 70.31,103.2 70.67,103.18C71.03,103.16 71.38,103.15 71.74,103.13C72.1,103.11 72.45,103.1 72.81,103.08C73.17,103.06 73.52,103.05 73.88,103.03C74.24,103.02 74.59,103 74.95,102.99C75.31,102.97 75.66,102.96 76.02,102.94C76.38,102.92 76.82,102.9 77.09,102.89C77.25,102.88 77.33,102.89 77.48,102.88C77.68,102.87 77.91,102.85 78.16,102.83C78.48,102.81 78.87,102.78 79.23,102.76C79.59,102.74 79.94,102.71 80.3,102.69C80.66,102.67 81.01,102.65 81.37,102.63C81.73,102.61 82.08,102.58 82.44,102.56C82.8,102.54 83.16,102.52 83.52,102.5C83.88,102.48 84.23,102.46 84.59,102.44C84.95,102.42 85.3,102.39 85.66,102.37C86.02,102.35 86.37,102.34 86.73,102.32C87.09,102.3 87.44,102.28 87.8,102.26C88.16,102.24 88.51,102.22 88.87,102.2C89.23,102.18 89.58,102.17 89.94,102.15C90.3,102.13 90.65,102.11 91.01,102.09C91.37,102.07 91.72,102.06 92.08,102.04C92.44,102.02 92.79,102.01 93.15,101.99C93.51,101.97 93.86,101.96 94.22,101.94C94.58,101.92 94.93,101.91 95.29,101.89C95.65,101.87 96.06,101.85 96.36,101.84C96.59,101.83 96.76,101.83 96.95,101.82C97.12,101.81 97.24,101.8 97.43,101.79C97.72,101.77 98.15,101.74 98.51,101.72C98.87,101.7 99.22,101.67 99.58,101.65C99.94,101.63 100.29,101.61 100.65,101.59C101.01,101.57 101.36,101.54 101.72,101.52C102.08,101.5 102.43,101.48 102.79,101.46C103.15,101.44 103.5,101.42 103.86,101.4C104.22,101.38 104.57,101.36 104.93,101.34Q105.29,101.32 106,101.28L106,105Z" style="stroke: none; fill: rgb(209, 221, 239);"/><path d="M48.18,105Q48.89,104.95 49.25,104.93C49.61,104.91 49.96,104.89 50.32,104.87C50.68,104.85 51.03,104.82 51.39,104.8C51.75,104.78 52.1,104.76 52.46,104.74C52.82,104.72 53.18,104.7 53.54,104.68C53.9,104.66 54.25,104.65 54.61,104.63C54.97,104.61 55.32,104.59 55.68,104.57C56.04,104.55 56.39,104.54 56.75,104.52C57.11,104.5 57.46,104.49 57.82,104.47C58.18,104.46 58.53,104.44 58.89,104.43C59.25,104.41 59.6,104.4 59.96,104.38C60.32,104.36 60.67,104.35 61.03,104.33C61.39,104.32 61.74,104.3 62.1,104.29C62.46,104.28 62.81,104.26 63.17,104.25C63.53,104.24 63.88,104.22 64.24,104.21C64.6,104.2 64.95,104.18 65.31,104.17C65.67,104.16 66.02,104.14 66.38,104.13C66.74,104.12 67.09,104.11 67.45,104.1C67.81,104.09 68.17,104.07 68.53,104.06C68.89,104.05 69.24,104.04 69.6,104.03C69.96,104.02 70.31,104 70.67,103.99C71.03,103.98 71.41,103.97 71.74,103.96C72.02,103.95 72.32,103.95 72.52,103.94C72.64,103.93 72.68,103.93 72.81,103.92C73.05,103.9 73.52,103.88 73.88,103.86C74.24,103.84 74.59,103.82 74.95,103.8C75.31,103.78 75.66,103.76 76.02,103.74C76.38,103.72 76.73,103.71 77.09,103.69C77.45,103.67 77.8,103.65 78.16,103.63C78.52,103.61 78.87,103.6 79.23,103.58C79.59,103.56 79.94,103.55 80.3,103.53C80.66,103.51 81.01,103.5 81.37,103.48C81.73,103.46 82.08,103.45 82.44,103.43C82.8,103.41 83.16,103.4 83.52,103.38C83.88,103.37 84.23,103.35 84.59,103.34C84.95,103.32 85.3,103.31 85.66,103.29C86.02,103.28 86.37,103.26 86.73,103.25C87.09,103.23 87.44,103.22 87.8,103.2C88.16,103.19 88.51,103.17 88.87,103.16C89.23,103.15 89.58,103.13 89.94,103.12C90.3,103.11 90.65,103.09 91.01,103.08C91.37,103.07 91.72,103.05 92.08,103.04C92.44,103.03 92.79,103.01 93.15,103C93.51,102.99 93.86,102.98 94.22,102.97C94.58,102.96 94.93,102.94 95.29,102.93C95.65,102.92 96.07,102.9 96.36,102.89C96.55,102.88 96.68,102.89 96.85,102.88C97.04,102.87 97.21,102.86 97.43,102.85C97.73,102.83 98.15,102.81 98.51,102.79C98.87,102.77 99.22,102.75 99.58,102.73C99.94,102.71 100.29,102.7 100.65,102.68C101.01,102.66 101.36,102.65 101.72,102.63C102.08,102.61 102.43,102.59 102.79,102.57C103.15,102.55 103.5,102.54 103.86,102.52C104.22,102.5 104.57,102.49 104.93,102.47Q105.29,102.45 106,102.42L106,105Z" style="stroke: none; fill: rgb(255, 255, 255);"/><path d="M57.82,105Q58.53,104.96 58.89,104.94C59.25,104.92 59.6,104.91 59.96,104.89C60.32,104.87 60.67,104.85 61.03,104.83C61.39,104.81 61.74,104.8 62.1,104.78C62.46,104.76 62.81,104.75 63.17,104.73C63.53,104.71 63.88,104.7 64.24,104.68C64.6,104.67 64.95,104.65 65.31,104.64C65.67,104.62 66.02,104.61 66.38,104.59C66.74,104.58 67.09,104.56 67.45,104.55C67.81,104.54 68.17,104.52 68.53,104.51C68.89,104.5 69.24,104.48 69.6,104.47C69.96,104.46 70.31,104.44 70.67,104.43C71.03,104.42 71.38,104.4 71.74,104.39C72.1,104.38 72.45,104.36 72.81,104.35C73.17,104.34 73.52,104.32 73.88,104.31C74.24,104.3 74.59,104.29 74.95,104.28C75.31,104.27 75.66,104.25 76.02,104.24C76.38,104.23 76.73,104.22 77.09,104.21C77.45,104.2 77.8,104.19 78.16,104.18C78.52,104.17 78.87,104.16 79.23,104.15C79.59,104.14 79.94,104.13 80.3,104.12C80.66,104.11 81.01,104.1 81.37,104.09C81.73,104.08 82.08,104.07 82.44,104.06C82.8,104.05 83.16,104.04 83.52,104.03C83.88,104.02 84.23,104.01 84.59,104C84.95,103.99 85.3,103.98 85.66,103.97C86.02,103.96 86.49,103.96 86.73,103.95C86.86,103.95 86.9,103.95 87.02,103.94C87.22,103.93 87.52,103.91 87.8,103.9C88.13,103.88 88.51,103.87 88.87,103.85C89.23,103.83 89.58,103.82 89.94,103.8C90.3,103.78 90.65,103.77 91.01,103.75C91.37,103.74 91.72,103.72 92.08,103.71C92.44,103.69 92.79,103.68 93.15,103.66C93.51,103.65 93.86,103.63 94.22,103.62C94.58,103.6 94.93,103.59 95.29,103.57C95.65,103.56 96,103.54 96.36,103.53C96.72,103.52 97.07,103.5 97.43,103.49C97.79,103.48 98.15,103.46 98.51,103.45C98.87,103.44 99.22,103.42 99.58,103.41C99.94,103.4 100.29,103.38 100.65,103.37C101.01,103.36 101.36,103.34 101.72,103.33C102.08,103.32 102.43,103.3 102.79,103.29C103.15,103.28 103.5,103.26 103.86,103.25C104.22,103.24 104.57,103.23 104.93,103.22Q105.29,103.21 106,103.18L106,105Z" style="stroke: none; fill: rgb(240, 211, 203);"/><path d="M67.45,105Q68.17,104.97 68.53,104.95C68.89,104.93 69.24,104.92 69.6,104.9C69.96,104.89 70.31,104.87 70.67,104.86C71.03,104.84 71.38,104.83 71.74,104.81C72.1,104.8 72.45,104.78 72.81,104.77C73.17,104.76 73.52,104.74 73.88,104.73C74.24,104.71 74.59,104.7 74.95,104.68C75.31,104.67 75.66,104.65 76.02,104.64C76.38,104.63 76.73,104.61 77.09,104.6C77.45,104.59 77.8,104.58 78.16,104.57C78.52,104.56 78.87,104.54 79.23,104.53C79.59,104.52 79.94,104.5 80.3,104.49C80.66,104.48 81.01,104.47 81.37,104.46C81.73,104.45 82.08,104.44 82.44,104.43C82.8,104.42 83.16,104.4 83.52,104.39C83.88,104.38 84.23,104.37 84.59,104.36C84.95,104.35 85.3,104.34 85.66,104.33C86.02,104.32 86.37,104.31 86.73,104.3C87.09,104.29 87.44,104.28 87.8,104.27C88.16,104.26 88.51,104.25 88.87,104.24C89.23,104.23 89.58,104.22 89.94,104.21C90.3,104.2 90.65,104.19 91.01,104.18C91.37,104.17 91.72,104.16 92.08,104.15C92.44,104.14 92.79,104.14 93.15,104.13C93.51,104.12 93.86,104.11 94.22,104.1C94.58,104.09 94.93,104.09 95.29,104.08C95.65,104.07 96,104.06 96.36,104.05C96.72,104.04 97.07,104.04 97.43,104.03C97.79,104.02 98.15,104.01 98.51,104C98.87,103.99 99.22,103.99 99.58,103.98C99.94,103.97 100.3,103.97 100.65,103.96C100.98,103.95 101.28,103.95 101.62,103.935C101.99,103.92 102.41,103.91 102.79,103.89C103.15,103.87 103.5,103.86 103.86,103.84C104.22,103.83 104.57,103.81 104.93,103.8Q105.29,103.79 106,103.76L106,105Z" style="stroke: none; fill: rgb(225, 166, 152);"/><path d="M77.09,105Q77.8,104.97 78.16,104.96C78.52,104.94 78.87,104.93 79.23,104.91C79.59,104.9 79.94,104.88 80.3,104.87C80.66,104.86 81.01,104.84 81.37,104.83C81.73,104.82 82.08,104.8 82.44,104.79C82.8,104.78 83.16,104.77 83.52,104.76C83.88,104.75 84.23,104.73 84.59,104.72C84.95,104.71 85.3,104.69 85.66,104.68C86.02,104.67 86.37,104.66 86.73,104.65C87.09,104.64 87.44,104.62 87.8,104.61C88.16,104.6 88.51,104.59 88.87,104.58C89.23,104.57 89.58,104.56 89.94,104.55C90.3,104.54 90.65,104.53 91.01,104.52C91.37,104.51 91.72,104.5 92.08,104.49C92.44,104.48 92.79,104.47 93.15,104.46C93.51,104.45 93.86,104.44 94.22,104.43C94.58,104.42 94.93,104.41 95.29,104.4C95.65,104.39 96,104.38 96.36,104.37C96.72,104.36 97.07,104.35 97.43,104.34C97.79,104.33 98.15,104.32 98.51,104.31C98.87,104.3 99.22,104.3 99.58,104.29C99.94,104.28 100.29,104.27 100.65,104.26C101.01,104.25 101.36,104.24 101.72,104.23C102.08,104.22 102.43,104.22 102.79,104.21C103.15,104.2 103.5,104.2 103.86,104.19C104.22,104.18 104.57,104.17 104.93,104.16Q105.29,104.15 106,104.14L106,105Z" style="stroke: none; fill: rgb(210, 116, 108);"/><path d="M86.73,105Q87.44,104.97 87.8,104.96C88.16,104.95 88.51,104.93 88.87,104.92C89.23,104.91 89.58,104.9 89.94,104.89C90.3,104.88 90.65,104.86 91.01,104.85C91.37,104.84 91.72,104.83 92.08,104.82C92.44,104.81 92.79,104.79 93.15,104.78C93.51,104.77 93.86,104.76 94.22,104.75C94.58,104.74 94.93,104.73 95.29,104.72C95.65,104.71 96,104.69 96.36,104.68C96.72,104.67 97.07,104.66 97.43,104.65C97.79,104.64 98.15,104.63 98.51,104.62C98.87,104.61 99.22,104.6 99.58,104.59C99.94,104.58 100.29,104.57 100.65,104.56C101.01,104.55 101.36,104.54 101.72,104.53C102.08,104.52 102.43,104.52 102.79,104.51C103.15,104.5 103.5,104.49 103.86,104.48C104.22,104.47 104.57,104.46 104.93,104.45Q105.29,104.44 106,104.43L106,105Z" style="stroke: none; fill: rgb(195, 60, 73);"/><path d="M96.36,105Q97.07,104.98 97.43,104.97C97.79,104.96 98.15,104.94 98.51,104.93C98.87,104.92 99.22,104.91 99.58,104.9C99.94,104.89 100.29,104.88 100.65,104.87C101.01,104.86 101.36,104.84 101.72,104.83C102.08,104.82 102.43,104.81 102.79,104.8C103.15,104.79 103.5,104.78 103.86,104.77C104.22,104.76 104.57,104.75 104.93,104.74Q105.29,104.73 106,104.71L106,105Z" style="stroke: none; fill: rgb(180, 4, 38);"/></g><g class="contourlines"/></g></g></g></g><path class="xlines-above crisp" d="M32.5,116.25H139.5M32.5,10.75H139.5" style="fill: none; stroke-width: 0.5px; stroke: rgb(0, 0, 0); stroke-opacity: 1;"/><path class="ylines-above crisp" d="M32.75,11V116M139.25,11V116" style="fill: none; stroke-width: 0.5px; stroke: rgb(0, 0, 0); stroke-opacity: 1;"/><g class="overlines-above"/><g class="xaxislayer-above"><path class="xtick ticks crisp" d="M0,116v-5" transform="translate(81.18,0)" style="stroke: rgb(0, 0, 0); stroke-opacity: 1; stroke-width: 0.5px;"/><path class="xtick ticks crisp" d="M0,116v-5" transform="translate(129.36,0)" style="stroke: rgb(0, 0, 0); stroke-opacity: 1; stroke-width: 0.5px;"/><g class="xtick"><text text-anchor="middle" x="0" y="129.7" transform="translate(33,0)" style="font-family: 'Open Sans', verdana, arial, sans-serif; font-size: 11px; fill: rgb(0, 0, 0); fill-opacity: 1; white-space: pre; opacity: 1;">0</text></g><g class="xtick"><text text-anchor="middle" x="0" y="129.7" style="font-family: 'Open Sans', verdana, arial, sans-serif; font-size: 11px; fill: rgb(0, 0, 0); fill-opacity: 1; white-space: pre; opacity: 1;" transform="translate(81.18,0)">0.5</text></g><g class="xtick"><text text-anchor="middle" x="0" y="129.7" style="font-family: 'Open Sans', verdana, arial, sans-serif; font-size: 11px; fill: rgb(0, 0, 0); fill-opacity: 1; white-space: pre; opacity: 1;" transform="translate(129.36,0)">1</text></g></g><g class="yaxislayer-above"><path class="ytick ticks crisp" d="M33,0h5" transform="translate(0,83.19)" style="stroke: rgb(0, 0, 0); stroke-opacity: 1; stroke-width: 0.5px;"/><path class="ytick ticks crisp" d="M33,0h5" transform="translate(0,50.38)" style="stroke: rgb(0, 0, 0); stroke-opacity: 1; stroke-width: 0.5px;"/><path class="ytick ticks crisp" d="M33,0h5" transform="translate(0,17.56)" style="stroke: rgb(0, 0, 0); stroke-opacity: 1; stroke-width: 0.5px;"/><g class="ytick"><text text-anchor="end" x="30.3" y="3.8499999999999996" transform="translate(0,116)" style="font-family: 'Open Sans', verdana, arial, sans-serif; font-size: 11px; fill: rgb(0, 0, 0); fill-opacity: 1; white-space: pre; opacity: 1;">0</text></g><g class="ytick"><text text-anchor="end" x="30.3" y="3.8499999999999996" style="font-family: 'Open Sans', verdana, arial, sans-serif; font-size: 11px; fill: rgb(0, 0, 0); fill-opacity: 1; white-space: pre; opacity: 1;" transform="translate(0,83.19)">5</text></g><g class="ytick"><text text-anchor="end" x="30.3" y="3.8499999999999996" style="font-family: 'Open Sans', verdana, arial, sans-serif; font-size: 11px; fill: rgb(0, 0, 0); fill-opacity: 1; white-space: pre; opacity: 1;" transform="translate(0,50.38)">10</text></g><g class="ytick"><text text-anchor="end" x="30.3" y="3.8499999999999996" style="font-family: 'Open Sans', verdana, arial, sans-serif; font-size: 11px; fill: rgb(0, 0, 0); fill-opacity: 1; white-space: pre; opacity: 1;" transform="translate(0,17.56)">15</text></g></g><g class="overaxes-above"/></g></g><g class="polarlayer"/><g class="smithlayer"/><g class="ternarylayer"/><g class="geolayer"/><g class="funnelarealayer"/><g class="pielayer"/><g class="iciclelayer"/><g class="treemaplayer"/><g class="sunburstlayer"/><g class="glimages"/><defs id="topdefs-26eabb"><g class="clips"/></defs><g class="layer-above"><g class="imagelayer"/><g class="shapelayer"/></g><g class="infolayer"><g class="g-gtitle"/><g class="g-xtitle" transform="translate(0,4.550000000000011)"><text class="xtitle" x="86" y="140.153125" text-anchor="middle" style="opacity: 1; font-family: 'Open Sans', verdana, arial, sans-serif; font-size: 11px; fill: rgb(0, 0, 0); fill-opacity: 1; white-space: pre;">µ [1/h]</text></g><g class="g-ytitle"><text class="ytitle" transform="rotate(-90,14.118749999999999,63.5)" x="14.118749999999999" y="63.5" text-anchor="middle" style="opacity: 1; font-family: 'Open Sans', verdana, arial, sans-serif; font-size: 11px; fill: rgb(0, 0, 0); fill-opacity: 1; white-space: pre;">Chloram [μg/mL]</text></g></g></svg>