<svg class="main-svg" xmlns="http://www.w3.org/2000/svg" xmlns:xlink="http://www.w3.org/1999/xlink" width="180" height="180" style="" viewBox="0 0 180 180"><rect x="0" y="0" width="180" height="180" style="fill: rgb(255, 255, 255); fill-opacity: 1;"/><defs id="defs-400640"><g class="clips"><clipPath id="clip400640xyplot" class="plotclip"><rect width="133" height="135"/></clipPath><clipPath class="axesclip" id="clip400640x"><rect x="36" y="0" width="133" height="180"/></clipPath><clipPath class="axesclip" id="clip400640y"><rect x="0" y="11" width="180" height="135"/></clipPath><clipPath class="axesclip" id="clip400640xy"><rect x="36" y="11" width="133" height="135"/></clipPath><clipPath class="contourclip" id="clip621435"><path d="M0,6.75L133,6.75L133,135L0,135Z"/></clipPath></g><g class="gradients"/><g class="patterns"/></defs><g class="bglayer"/><g class="layer-below"><g class="imagelayer"/><g class="shapelayer"/></g><g class="cartesianlayer"><g class="subplot xy"><g class="layer-subplot"><g class="shapelayer"/><g class="imagelayer"/></g><g class="minor-gridlayer"><g class="x"/><g class="y"/></g><g class="gridlayer"><g class="x"/><g class="y"/></g><g class="zerolinelayer"/><g class="layer-between"><g class="shapelayer"/><g class="imagelayer"/></g><path class="xlines-below"/><path class="ylines-below"/><g class="overlines-below"/><g class="xaxislayer-below"/><g class="yaxislayer-below"/><g class="overaxes-below"/><g class="overplot"><g class="xy" transform="translate(36,11)" clip-path="url(#clip400640xyplot)"><g class="contourlayer mlayer"><g class="contour" clip-path="url(#clip621435)" style="opacity: 1;"><g class="heatmapcoloring"/><g class="contourbg"><path d="M0,6.75L133,6.75L133,135L0,135Z" style="stroke: none; fill: rgb(49, 97, 66);"/></g><g class="contourfill"><path d="M0,6.75L133,6.75L133,135L0,135Z" style="stroke: none; fill: rgb(54, 103, 71);"/><path d="M0,6.75L133,6.75L133,135L0,135Z" style="stroke: none; fill: rgb(60, 108, 77);"/><path d="M0,6.75L133,6.75L133,135L0,135Z" style="stroke: none; fill: rgb(65, 114, 82);"/><path d="M0,6.75L133,6.75L133,135L0,135Z" style="stroke: none; fill: rgb(71, 119, 88);"/><path d="M0,6.75L133,6.75L133,135L0,135Z" style="stroke: none; fill: rgb(76, 125, 93);"/><path d="M0,6.75L133,6.75L133,135L0,135Z" style="stroke: none; fill: rgb(82, 130, 99);"/><path d="M0,6.75L133,6.75L133,135L0,135Z" style="stroke: none; fill: rgb(87, 136, 104);"/><path d="M0,6.75L133,6.75L133,135L0,135Z" style="stroke: none; fill: rgb(92, 141, 110);"/><path d="M0,6.75L133,6.75L133,135L0,135Z" style="stroke: none; fill: rgb(98, 147, 115);"/><path d="M0,6.75L133,6.75L133,135L0,135Z" style="stroke: none; fill: rgb(103, 152, 121);"/><path d="M0,6.75L133,6.75L133,135L0,135Z" style="stroke: none; fill: rgb(109, 158, 126);"/><path d="M0,6.75L133,6.75L133,135L0,135Z" style="stroke: none; fill: rgb(114, 163, 132);"/><path d="M0,6.75L133,6.75L133,135L0,135Z" style="stroke: none; fill: rgb(119, 169, 137);"/><path d="M0,6.75L133,6.75L133,135L0,135Z" style="stroke: none; fill: rgb(125, 174, 143);"/><path d="M0,6.75L133,6.75L133,135L0,135Z" style="stroke: none; fill: rgb(130, 180, 148);"/><path d="M0,6.75L133,6.75L133,135L0,135Z" style="stroke: none; fill: rgb(136, 185, 154);"/><path d="M0,6.75L133,6.75L133,135L0,135Z" style="stroke: none; fill: rgb(141, 191, 159);"/><path d="M0,6.75L133,6.75L133,135L0,135Z" style="stroke: none; fill: rgb(147, 196, 165);"/><path d="M0,6.75L133,6.75L133,135L0,135Z" style="stroke: none; fill: rgb(152, 202, 170);"/></g><g class="contourlines"/></g></g><g class="scatterlayer mlayer"><g class="trace scatter trace2e2dee" style="stroke-miterlimit: 2; opacity: 1;"><g class="fills"/><g class="errorbars"/><g class="lines"><path class="js-line" d="M77,128.25L133,6.75" style="vector-effect: none; fill: none; stroke: rgb(0, 0, 0); stroke-opacity: 1; stroke-dasharray: 9px, 9px; stroke-width: 1.5px; opacity: 1;"/></g><g class="points"/><g class="text"/></g></g></g></g><g class="zerolinelayer-above"/><path class="xlines-above crisp" d="M35.5,146.25H169.5M35.5,10.75H169.5" style="fill: none; stroke-width: 0.5px; stroke: rgb(0, 0, 0); stroke-opacity: 1;"/><path class="ylines-above crisp" d="M35.75,11V146M169.25,11V146" style="fill: none; stroke-width: 0.5px; stroke: rgb(0, 0, 0); stroke-opacity: 1;"/><g class="overlines-above"/><g class="xaxislayer-above"><path class="xtick ticks crisp" d="M0,146v-5" transform="translate(72.94,0)" style="stroke: rgb(0, 0, 0); stroke-opacity: 1; stroke-width: 0.5px;"/><path class="xtick ticks crisp" d="M0,146v-5" transform="translate(109.89,0)" style="stroke: rgb(0, 0, 0); stroke-opacity: 1; stroke-width: 0.5px;"/><path class="xtick ticks crisp" d="M0,146v-5" transform="translate(146.82999999999998,0)" style="stroke: rgb(0, 0, 0); stroke-opacity: 1; stroke-width: 0.5px;"/><g class="xtick"><text text-anchor="middle" x="0" y="159.7" transform="translate(36,0)" style="font-family: 'Open Sans', verdana, arial, sans-serif; font-size: 11px; fill: rgb(0, 0, 0); fill-opacity: 1; white-space: pre;">0</text></g><g class="xtick"><text text-anchor="middle" x="0" y="159.7" style="font-family: 'Open Sans', verdana, arial, sans-serif; font-size: 11px; fill: rgb(0, 0, 0); fill-opacity: 1; white-space: pre;" transform="translate(72.94,0)">0.5</text></g><g class="xtick"><text text-anchor="middle" x="0" y="159.7" style="font-family: 'Open Sans', verdana, arial, sans-serif; font-size: 11px; fill: rgb(0, 0, 0); fill-opacity: 1; white-space: pre;" transform="translate(109.89,0)">1</text></g><g class="xtick"><text text-anchor="middle" x="0" y="159.7" style="font-family: 'Open Sans', verdana, arial, sans-serif; font-size: 11px; fill: rgb(0, 0, 0); fill-opacity: 1; white-space: pre;" transform="translate(146.82999999999998,0)">1.5</text></g></g><g class="yaxislayer-above"><path class="ytick ticks crisp" d="M36,0h5" transform="translate(0,113.94)" style="stroke: rgb(0, 0, 0); stroke-opacity: 1; stroke-width: 0.5px;"/><path class="ytick ticks crisp" d="M36,0h5" transform="translate(0,81.88)" style="stroke: rgb(0, 0, 0); stroke-opacity: 1; stroke-width: 0.5px;"/><path class="ytick ticks crisp" d="M36,0h5" transform="translate(0,49.81)" style="stroke: rgb(0, 0, 0); stroke-opacity: 1; stroke-width: 0.5px;"/><path class="ytick ticks crisp" d="M36,0h5" transform="translate(0,17.75)" style="stroke: rgb(0, 0, 0); stroke-opacity: 1; stroke-width: 0.5px;"/><g class="ytick"><text text-anchor="end" x="33.3" y="3.8499999999999996" transform="translate(0,146)" style="font-family: 'Open Sans', verdana, arial, sans-serif; font-size: 11px; fill: rgb(0, 0, 0); fill-opacity: 1; white-space: pre;">1</text></g><g class="ytick"><text text-anchor="end" x="33.3" y="3.8499999999999996" style="font-family: 'Open Sans', verdana, arial, sans-serif; font-size: 11px; fill: rgb(0, 0, 0); fill-opacity: 1; white-space: pre;" transform="translate(0,113.94)">1.2</text></g><g class="ytick"><text text-anchor="end" x="33.3" y="3.8499999999999996" style="font-family: 'Open Sans', verdana, arial, sans-serif; font-size: 11px; fill: rgb(0, 0, 0); fill-opacity: 1; white-space: pre;" transform="translate(0,81.88)">1.4</text></g><g class="ytick"><text text-anchor="end" x="33.3" y="3.8499999999999996" style="font-family: 'Open Sans', verdana, arial, sans-serif; font-size: 11px; fill: rgb(0, 0, 0); fill-opacity: 1; white-space: pre;" transform="translate(0,49.81)">1.6</text></g><g class="ytick"><text text-anchor="end" x="33.3" y="3.8499999999999996" style="font-family: 'Open Sans', verdana, arial, sans-serif; font-size: 11px; fill: rgb(0, 0, 0); fill-opacity: 1; white-space: pre;" transform="translate(0,17.75)">1.8</text></g></g><g class="overaxes-above"/></g></g><g class="polarlayer"/><g class="smithlayer"/><g class="ternarylayer"/><g class="geolayer"/><g class="funnelarealayer"/><g class="pielayer"/><g class="iciclelayer"/><g class="treemaplayer"/><g class="sunburstlayer"/><g class="glimages"/><defs id="topdefs-400640"><g class="clips"/></defs><g class="layer-above"><g class="imagelayer"/><g class="shapelayer"/></g><g class="infolayer"><g class="g-gtitle"/><g class="g-xtitle" transform="translate(0,4.550000000000011)"><text class="xtitle" x="102.5" y="170.1501953125" text-anchor="middle" style="opacity: 1; font-family: 'Open Sans', verdana, arial, sans-serif; font-size: 11px; fill: rgb(0, 0, 0); fill-opacity: 1; white-space: pre;">Maximum growth rate ST (1/h)</text></g><g class="g-ytitle"><text class="ytitle" transform="rotate(-90,14.184179687499999,78.5)" x="14.184179687499999" y="78.5" text-anchor="middle" style="opacity: 1; font-family: 'Open Sans', verdana, arial, sans-serif; font-size: 11px; fill: rgb(0, 0, 0); fill-opacity: 1; white-space: pre;">Maximum growth rate EcN (1/h)</text></g></g></svg>